<svg width="48" height="48" viewBox="0 0 48 48" fill="none" xmlns="http://www.w3.org/2000/svg">
<path d="M32.1498 47.06L11.1843 26.0046C10.9355 25.754 10.7596 25.4824 10.6568 25.19C10.5523 24.8975 10.5 24.5842 10.5 24.25C10.5 23.9158 10.5523 23.6025 10.6568 23.31C10.7596 23.0176 10.9355 22.746 11.1843 22.4954L32.1498 1.37731C32.7304 0.792436 33.4562 0.5 34.3272 0.5C35.1982 0.5 35.9447 0.813325 36.5668 1.43997C37.1889 2.06662 37.5 2.79771 37.5 3.63324C37.5 4.46878 37.1889 5.19987 36.5668 5.82652L18.2765 24.25L36.5668 42.6735C37.1475 43.2584 37.4378 43.9786 37.4378 44.8342C37.4378 45.6914 37.1267 46.4334 36.5046 47.06C35.8825 47.6867 35.1567 48 34.3272 48C33.4977 48 32.7719 47.6867 32.1498 47.06Z" fill="#FFD3F0"/>
</svg>
