<svg width="660" height="77" viewBox="0 0 660 77" fill="none" xmlns="http://www.w3.org/2000/svg">
<rect x="0.5" y="9.5" width="659" height="19" rx="9.5" fill="url(#paint0_linear_1167_499)" stroke="white"/>
<circle cx="495" cy="19" r="19" fill="#D8A5DF"/>
<rect y="9" width="495" height="20" rx="10" fill="#D8A5DF"/>
<path d="M472.442 66.2216V63.2884L481.082 49.6364H483.528V53.8125H482.037L476.22 63.0298V63.1889H488.281V66.2216H472.442ZM482.156 70V65.3267L482.196 64.0142V49.6364H485.676V70H482.156ZM499.81 48.6818L493.248 73.0625H490.096L496.658 48.6818H499.81ZM509.147 70.2784C507.821 70.2784 506.635 70.0298 505.587 69.5327C504.54 69.0289 503.708 68.3395 503.092 67.4645C502.482 66.5895 502.157 65.5885 502.117 64.4616H505.697C505.763 65.2969 506.124 65.9796 506.781 66.5099C507.437 67.0336 508.226 67.2955 509.147 67.2955C509.87 67.2955 510.513 67.1297 511.076 66.7983C511.639 66.4669 512.084 66.0062 512.408 65.4162C512.733 64.8262 512.892 64.1534 512.886 63.3977C512.892 62.6288 512.73 61.946 512.398 61.3494C512.067 60.7528 511.613 60.2855 511.036 59.9474C510.46 59.6027 509.797 59.4304 509.048 59.4304C508.438 59.4238 507.838 59.5365 507.248 59.7685C506.658 60.0005 506.191 60.3054 505.846 60.6832L502.515 60.1364L503.579 49.6364H515.391V52.7188H506.631L506.045 58.1179H506.164C506.542 57.6738 507.076 57.3059 507.765 57.0142C508.454 56.7159 509.21 56.5668 510.032 56.5668C511.265 56.5668 512.365 56.8584 513.333 57.4418C514.301 58.0185 515.063 58.8139 515.62 59.8281C516.177 60.8423 516.455 62.0024 516.455 63.3082C516.455 64.6539 516.144 65.8537 515.521 66.9077C514.904 67.955 514.046 68.7803 512.945 69.3835C511.852 69.9801 510.585 70.2784 509.147 70.2784Z" fill="white"/>
<defs>
<linearGradient id="paint0_linear_1167_499" x1="0" y1="19" x2="660" y2="19" gradientUnits="userSpaceOnUse">
<stop stop-color="#B99BB9"/>
<stop offset="1" stop-color="#0C083B"/>
</linearGradient>
</defs>
</svg>
