<svg width="680" height="77" viewBox="0 0 680 77" fill="none" xmlns="http://www.w3.org/2000/svg">
<rect x="0.5" y="9.5" width="659" height="19" rx="9.5" fill="url(#paint0_linear_2552_379)" stroke="white"/>
<circle cx="660" cy="19" r="19" fill="#D8A5DF"/>
<rect y="9" width="660" height="20" rx="10" fill="#D8A5DF"/>
<path d="M643.14 71.448C641.441 71.448 640.069 71.0653 639.024 70.3C637.979 69.516 637.353 68.4427 637.148 67.08C637.279 66.744 637.465 66.492 637.708 66.324C637.969 66.156 638.259 66.072 638.576 66.072C639.005 66.072 639.351 66.2027 639.612 66.464C639.873 66.7253 640.051 67.1733 640.144 67.808L640.788 70.58L639.836 69.796C640.303 70.0573 640.732 70.244 641.124 70.356C641.535 70.468 642.039 70.524 642.636 70.524C644.111 70.524 645.268 70.048 646.108 69.096C646.948 68.144 647.368 66.7813 647.368 65.008C647.368 63.3093 646.948 62.04 646.108 61.2C645.287 60.36 644.185 59.94 642.804 59.94C642.225 59.94 641.675 59.9867 641.152 60.08C640.629 60.1733 640.125 60.3133 639.64 60.5L638.884 60.136L639.556 50.42H650.112V52.94H640.06L640.648 51.176L640.06 59.968L639.08 59.66C639.845 59.2867 640.601 59.0253 641.348 58.876C642.095 58.7267 642.888 58.652 643.728 58.652C645.875 58.652 647.573 59.1747 648.824 60.22C650.093 61.2653 650.728 62.8147 650.728 64.868C650.728 66.2307 650.411 67.4067 649.776 68.396C649.141 69.3667 648.255 70.1227 647.116 70.664C645.977 71.1867 644.652 71.448 643.14 71.448ZM652.635 75.956L660.923 49.048H662.435L654.175 75.956H652.635ZM669.992 71.448C668.293 71.448 666.921 71.0653 665.876 70.3C664.83 69.516 664.205 68.4427 664 67.08C664.13 66.744 664.317 66.492 664.56 66.324C664.821 66.156 665.11 66.072 665.428 66.072C665.857 66.072 666.202 66.2027 666.464 66.464C666.725 66.7253 666.902 67.1733 666.996 67.808L667.64 70.58L666.688 69.796C667.154 70.0573 667.584 70.244 667.976 70.356C668.386 70.468 668.89 70.524 669.488 70.524C670.962 70.524 672.12 70.048 672.96 69.096C673.8 68.144 674.22 66.7813 674.22 65.008C674.22 63.3093 673.8 62.04 672.96 61.2C672.138 60.36 671.037 59.94 669.656 59.94C669.077 59.94 668.526 59.9867 668.004 60.08C667.481 60.1733 666.977 60.3133 666.492 60.5L665.736 60.136L666.408 50.42H676.964V52.94H666.912L667.5 51.176L666.912 59.968L665.932 59.66C666.697 59.2867 667.453 59.0253 668.2 58.876C668.946 58.7267 669.74 58.652 670.58 58.652C672.726 58.652 674.425 59.1747 675.676 60.22C676.945 61.2653 677.58 62.8147 677.58 64.868C677.58 66.2307 677.262 67.4067 676.628 68.396C675.993 69.3667 675.106 70.1227 673.968 70.664C672.829 71.1867 671.504 71.448 669.992 71.448Z" fill="white"/>
<defs>
<linearGradient id="paint0_linear_2552_379" x1="0" y1="19" x2="660" y2="19" gradientUnits="userSpaceOnUse">
<stop stop-color="#B99BB9"/>
<stop offset="1" stop-color="#0C083B"/>
</linearGradient>
</defs>
</svg>
