<svg width="376" height="51" viewBox="0 0 376 51" fill="none" xmlns="http://www.w3.org/2000/svg">
<path d="M22.672 13.28H29.172V27.112H22.672V13.28ZM7.488 15.776H44.98V20.872H7.488V15.776ZM2.236 23.888H49.816V29.14H2.236V23.888ZM4.212 32.26H48.256V37.512H4.212V32.26ZM32.968 28.412H39.416V43.232C39.416 44.7227 39.208 45.884 38.792 46.716C38.4107 47.548 37.6653 48.2067 36.556 48.692C35.4467 49.1427 34.1467 49.4027 32.656 49.472C31.1653 49.576 29.4493 49.628 27.508 49.628C27.3347 48.7613 27.0227 47.7733 26.572 46.664C26.1213 45.5547 25.6707 44.6013 25.22 43.804C26.1213 43.8387 27.0227 43.8733 27.924 43.908C28.8253 43.908 29.6227 43.908 30.316 43.908C31.044 43.908 31.564 43.908 31.876 43.908C32.292 43.908 32.5693 43.856 32.708 43.752C32.8813 43.6133 32.968 43.388 32.968 43.076V28.412ZM8.84 4.544H25.428V9.692H8.84V4.544ZM29.536 4.544H49.556V9.692H29.536V4.544ZM9.256 0.383998L15.236 1.996C14.1267 4.596 12.74 7.10933 11.076 9.536C9.44667 11.9627 7.8 13.9907 6.136 15.62C5.72 15.2733 5.2 14.892 4.576 14.476C3.952 14.0253 3.31067 13.592 2.652 13.176C1.99333 12.76 1.42133 12.4133 0.936 12.136C2.63467 10.7147 4.22933 8.964 5.72 6.884C7.21067 4.76933 8.38933 2.60266 9.256 0.383998ZM30.316 0.383998L36.244 1.892C35.308 4.388 34.0947 6.79733 32.604 9.12C31.148 11.4427 29.6053 13.384 27.976 14.944C27.56 14.5973 27.04 14.1987 26.416 13.748C25.792 13.2973 25.1507 12.864 24.492 12.448C23.868 12.032 23.3133 11.6853 22.828 11.408C24.4227 10.0907 25.8787 8.46133 27.196 6.52C28.5133 4.544 29.5533 2.49866 30.316 0.383998ZM10.816 8.496L15.86 6.572C16.5187 7.54267 17.1773 8.63466 17.836 9.848C18.4947 11.0267 18.98 12.0667 19.292 12.968L13.936 15.152C13.6933 14.2853 13.26 13.228 12.636 11.98C12.0467 10.6973 11.44 9.536 10.816 8.496ZM33.488 8.652L38.532 6.624C39.3293 7.56 40.144 8.63466 40.976 9.848C41.8427 11.0267 42.484 12.0667 42.9 12.968L37.544 15.204C37.1973 14.3373 36.6253 13.28 35.828 12.032C35.0653 10.784 34.2853 9.65733 33.488 8.652ZM11.076 39.644L15.6 36.16C16.6053 36.8187 17.628 37.5813 18.668 38.448C19.7427 39.3147 20.7307 40.1987 21.632 41.1C22.5333 42.0013 23.244 42.8333 23.764 43.596L18.98 47.496C18.4947 46.6987 17.8187 45.832 16.952 44.896C16.0853 43.96 15.1493 43.0413 14.144 42.14C13.1387 41.204 12.116 40.372 11.076 39.644ZM74.568 6.728H102.7V12.396H74.568V6.728ZM72.124 26.748H104.676V32.364H72.124V26.748ZM71.604 16.92H105.144V22.588H71.604V16.92ZM85.228 1.06H91.416V19.884H85.228V1.06ZM92.352 21.652H98.592V43.128C98.592 44.6533 98.4013 45.832 98.02 46.664C97.6387 47.5307 96.928 48.2067 95.888 48.692C94.848 49.1427 93.5827 49.42 92.092 49.524C90.636 49.628 88.92 49.68 86.944 49.68C86.84 48.8133 86.5973 47.808 86.216 46.664C85.8693 45.5547 85.488 44.6013 85.072 43.804C85.904 43.8387 86.7533 43.8733 87.62 43.908C88.4867 43.908 89.2493 43.908 89.908 43.908C90.5667 43.8733 91.0173 43.856 91.26 43.856C91.676 43.856 91.9533 43.804 92.092 43.7C92.2653 43.5613 92.352 43.3187 92.352 42.972V21.652ZM75.036 35.38L80.184 32.676C80.9467 33.5427 81.7267 34.5133 82.524 35.588C83.3213 36.6627 84.0493 37.72 84.708 38.76C85.4013 39.7653 85.9213 40.7013 86.268 41.568L80.808 44.584C80.496 43.752 80.028 42.7987 79.404 41.724C78.78 40.6493 78.0867 39.5573 77.324 38.448C76.5613 37.3387 75.7987 36.316 75.036 35.38ZM68.12 12.292L73.528 14.58C72.28 16.7293 70.824 18.8787 69.16 21.028C67.496 23.1773 65.7453 25.2227 63.908 27.164C62.0707 29.0707 60.268 30.7347 58.5 32.156C58.3613 31.6707 58.1187 31.0293 57.772 30.232C57.4253 29.4 57.044 28.568 56.628 27.736C56.212 26.904 55.8653 26.2453 55.588 25.76C57.1133 24.6507 58.6387 23.3853 60.164 21.964C61.724 20.508 63.1973 18.9653 64.584 17.336C65.9707 15.672 67.1493 13.9907 68.12 12.292ZM66.82 0.903997L72.644 3.296C71.5347 4.89066 70.2347 6.50266 68.744 8.132C67.2533 9.72666 65.676 11.2347 64.012 12.656C62.3827 14.0773 60.7533 15.3253 59.124 16.4C58.916 15.9147 58.6213 15.3427 58.24 14.684C57.8933 14.0253 57.5293 13.3667 57.148 12.708C56.7667 12.0493 56.42 11.512 56.108 11.096C57.46 10.264 58.812 9.276 60.164 8.132C61.5507 6.988 62.8333 5.792 64.012 4.544C65.1907 3.26133 66.1267 2.048 66.82 0.903997ZM63.232 23.94L68.9 18.168L69.212 18.272V49.628H63.232V23.94ZM122.356 27.32H148.044V31.792H122.356V27.32ZM132.444 22.796H137.748V41.412H132.444V22.796ZM142.636 19.416L146.276 22.9C144.369 23.42 142.185 23.8533 139.724 24.2C137.297 24.512 134.801 24.7547 132.236 24.928C129.705 25.1013 127.261 25.2227 124.904 25.292C124.8 24.8067 124.627 24.2 124.384 23.472C124.141 22.7093 123.881 22.1027 123.604 21.652C125.303 21.548 127.036 21.444 128.804 21.34C130.572 21.2013 132.305 21.0453 134.004 20.872C135.703 20.664 137.28 20.4387 138.736 20.196C140.227 19.9533 141.527 19.6933 142.636 19.416ZM131.976 29.712L135.928 31.272C135.096 32.5893 134.039 33.8893 132.756 35.172C131.508 36.4547 130.156 37.6333 128.7 38.708C127.279 39.7827 125.857 40.6493 124.436 41.308C124.055 40.7187 123.535 40.0427 122.876 39.28C122.217 38.5173 121.611 37.8933 121.056 37.408C122.408 36.888 123.777 36.2293 125.164 35.432C126.551 34.6 127.833 33.6987 129.012 32.728C130.225 31.7573 131.213 30.752 131.976 29.712ZM112.06 3.66H158.288V9.12H112.06V3.66ZM117.832 42.556H152.62V47.912H117.832V42.556ZM123.448 0.799999H129.636V12.344H123.448V0.799999ZM140.556 0.799999H146.796V12.344H140.556V0.799999ZM114.816 13.8H155.844V49.628H149.708V19H120.692V49.628H114.816V13.8ZM138.58 30.18C139.343 31.0813 140.296 32 141.44 32.936C142.584 33.8373 143.815 34.6693 145.132 35.432C146.449 36.1947 147.732 36.836 148.98 37.356C148.425 37.8067 147.801 38.4133 147.108 39.176C146.415 39.9387 145.877 40.632 145.496 41.256C144.213 40.5627 142.896 39.7133 141.544 38.708C140.227 37.668 138.979 36.5587 137.8 35.38C136.621 34.1667 135.616 32.9707 134.784 31.792L138.58 30.18ZM196.04 5.272H202.02V46.404H196.04V5.272ZM184.288 9.9H213.304V14.736H184.288V9.9ZM182.728 43.908H214.396V48.796H182.728V43.908ZM185.692 36.732H212.42V41.516H185.692V36.732ZM209.612 1.268L213.2 5.844C211.328 6.22533 209.283 6.55466 207.064 6.832C204.845 7.07466 202.557 7.28266 200.2 7.456C197.843 7.62933 195.468 7.768 193.076 7.872C190.684 7.94133 188.396 7.99333 186.212 8.028C186.143 7.36933 185.969 6.58933 185.692 5.688C185.415 4.78666 185.137 4.024 184.86 3.4C187.009 3.33066 189.211 3.244 191.464 3.14C193.752 3.00133 195.988 2.84533 198.172 2.672C200.356 2.49866 202.419 2.29066 204.36 2.048C206.336 1.80533 208.087 1.54533 209.612 1.268ZM191.412 27.476V30.076H206.804V27.476H191.412ZM191.412 21.184V23.784H206.804V21.184H191.412ZM186.004 16.868H212.472V34.392H186.004V16.868ZM173.42 5.688H179.452V49.628H173.42V5.688ZM165.932 15.464H185.016V21.236H165.932V15.464ZM173.732 17.804L177.372 19.364C176.887 21.236 176.297 23.1773 175.604 25.188C174.911 27.1987 174.148 29.192 173.316 31.168C172.484 33.1093 171.6 34.9467 170.664 36.68C169.728 38.4133 168.757 39.9213 167.752 41.204C167.44 40.3027 166.989 39.2973 166.4 38.188C165.845 37.044 165.325 36.0733 164.84 35.276C165.741 34.236 166.625 33.0227 167.492 31.636C168.393 30.2147 169.243 28.7067 170.04 27.112C170.837 25.5173 171.548 23.9227 172.172 22.328C172.796 20.7333 173.316 19.2253 173.732 17.804ZM181.48 1.372L185.692 6.156C183.924 6.81466 181.983 7.42133 179.868 7.976C177.753 8.53067 175.587 9.016 173.368 9.432C171.184 9.81333 169.087 10.1427 167.076 10.42C166.937 9.72666 166.695 8.92933 166.348 8.028C166.001 7.092 165.655 6.29466 165.308 5.636C167.215 5.324 169.156 4.96 171.132 4.544C173.143 4.09333 175.032 3.59067 176.8 3.036C178.603 2.48133 180.163 1.92667 181.48 1.372ZM179.348 22.692C179.66 22.9347 180.128 23.3853 180.752 24.044C181.411 24.668 182.104 25.3613 182.832 26.124C183.595 26.8867 184.271 27.5973 184.86 28.256C185.449 28.88 185.883 29.3307 186.16 29.608L182.572 34.548C182.26 33.8893 181.844 33.144 181.324 32.312C180.839 31.48 180.301 30.6133 179.712 29.712C179.157 28.8107 178.603 27.9613 178.048 27.164C177.493 26.332 177.008 25.656 176.592 25.136L179.348 22.692ZM229.216 10.264H265.408V16.348H229.216V10.264ZM227.032 25.552H263.38V31.584H227.032V25.552ZM221.052 42.088H268.06V48.172H221.052V42.088ZM241.228 0.799999H247.78V45.052H241.228V0.799999ZM229.216 1.476L235.664 2.932C234.936 5.60133 234.035 8.236 232.96 10.836C231.885 13.436 230.724 15.8627 229.476 18.116C228.228 20.3347 226.928 22.276 225.576 23.94C225.16 23.5587 224.605 23.1427 223.912 22.692C223.253 22.2067 222.56 21.7387 221.832 21.288C221.104 20.8373 220.48 20.4733 219.96 20.196C221.347 18.74 222.612 17.0067 223.756 14.996C224.935 12.9853 225.975 10.8187 226.876 8.496C227.812 6.17333 228.592 3.83333 229.216 1.476ZM282.464 20.404H294.476V26.072H282.464V20.404ZM292.084 20.404H298.116C298.116 20.404 298.116 20.5427 298.116 20.82C298.116 21.0973 298.116 21.4267 298.116 21.808C298.116 22.1547 298.116 22.4493 298.116 22.692C298.047 26.3667 297.96 29.3827 297.856 31.74C297.752 34.0627 297.579 35.8827 297.336 37.2C297.128 38.4827 296.833 39.384 296.452 39.904C295.932 40.5627 295.377 41.0307 294.788 41.308C294.233 41.5853 293.575 41.7933 292.812 41.932C292.119 42.0707 291.235 42.1573 290.16 42.192C289.12 42.192 287.976 42.1747 286.728 42.14C286.693 41.2387 286.52 40.2333 286.208 39.124C285.896 38.0147 285.515 37.0787 285.064 36.316C286 36.3853 286.867 36.4373 287.664 36.472C288.496 36.5067 289.12 36.524 289.536 36.524C289.883 36.524 290.177 36.4893 290.42 36.42C290.697 36.316 290.923 36.1427 291.096 35.9C291.339 35.588 291.512 34.9467 291.616 33.976C291.755 32.9707 291.859 31.4627 291.928 29.452C291.997 27.4067 292.049 24.7027 292.084 21.34V20.404ZM307.684 4.076L311.48 0.331999C312.451 0.817332 313.473 1.38933 314.548 2.048C315.623 2.70666 316.645 3.36533 317.616 4.024C318.621 4.68266 319.436 5.324 320.06 5.948L316.056 10.108C315.467 9.51867 314.704 8.86 313.768 8.132C312.832 7.404 311.827 6.69333 310.752 6C309.677 5.272 308.655 4.63066 307.684 4.076ZM313.82 17.492L320.164 19C317.98 25.76 314.999 31.74 311.22 36.94C307.441 42.1053 302.969 46.2827 297.804 49.472C297.527 49.0213 297.111 48.4667 296.556 47.808C296.001 47.184 295.429 46.5427 294.84 45.884C294.251 45.26 293.731 44.74 293.28 44.324C298.272 41.62 302.501 37.98 305.968 33.404C309.435 28.7933 312.052 23.4893 313.82 17.492ZM282.776 8.6H322.92V14.736H282.776V8.6ZM278.616 8.6H285.168V23.94C285.168 25.8813 285.099 28.0133 284.96 30.336C284.821 32.624 284.561 34.9813 284.18 37.408C283.799 39.8 283.227 42.1053 282.464 44.324C281.736 46.5427 280.783 48.536 279.604 50.304C279.257 49.8533 278.737 49.3507 278.044 48.796C277.385 48.2413 276.709 47.6867 276.016 47.132C275.357 46.612 274.785 46.248 274.3 46.04C275.617 43.96 276.571 41.6373 277.16 39.072C277.784 36.472 278.183 33.8547 278.356 31.22C278.529 28.5853 278.616 26.1413 278.616 23.888V8.6ZM299.728 0.851998H306.28C306.211 5.116 306.332 9.29333 306.644 13.384C306.956 17.4747 307.407 21.3053 307.996 24.876C308.62 28.412 309.348 31.5493 310.18 34.288C311.012 36.992 311.931 39.1067 312.936 40.632C313.941 42.1573 314.964 42.92 316.004 42.92C316.593 42.92 317.044 42.2093 317.356 40.788C317.703 39.3667 317.945 37.0267 318.084 33.768C318.812 34.4613 319.661 35.1373 320.632 35.796C321.637 36.4547 322.556 36.94 323.388 37.252C323.076 40.476 322.608 42.972 321.984 44.74C321.36 46.4733 320.528 47.6693 319.488 48.328C318.448 48.9867 317.113 49.316 315.484 49.316C313.612 49.316 311.913 48.6747 310.388 47.392C308.897 46.1093 307.563 44.324 306.384 42.036C305.24 39.748 304.252 37.0613 303.42 33.976C302.588 30.8907 301.895 27.5453 301.34 23.94C300.82 20.3347 300.421 16.5907 300.144 12.708C299.901 8.79066 299.763 4.83867 299.728 0.851998ZM332.176 9.848H375.128V35.952H368.576V15.984H338.416V36.212H332.176V9.848ZM335.4 27.216H372.216V33.352H335.4V27.216ZM350.168 0.799999H356.772V49.628H350.168V0.799999Z" fill="white"/>
</svg>
