<svg width="1512" height="982" viewBox="0 0 1512 982" fill="none" xmlns="http://www.w3.org/2000/svg">
<g filter="url(#filter0_f_765_416)">
<path d="M519.458 791.938C1346.81 725.733 962.682 550.568 1036.97 34.0388H519.458C243.675 308.74 -142.422 844.901 519.458 791.938Z" fill="#A245FF"/>
<path d="M116.79 380.442C-221.645 194.92 44.2997 -41.3543 219.577 -136.301L655.808 -150.341C721.909 -113.991 868.413 30.9326 925.614 319.825C997.115 680.94 871.173 686.14 716.473 419.365C561.772 152.589 539.835 612.344 116.79 380.442Z" fill="#2B2A6F"/>
<path d="M2.10635 628.292C-219.195 582.793 -87.0747 738.293 -313 885.155C-290.319 955.417 -219.723 1106.08 -118.784 1146.62C7.39114 1197.31 202.268 1205.95 328.443 1187.52C454.618 1169.09 665.349 1123.59 633.64 1036.62C601.931 949.658 865.511 958.297 633.64 747.508C401.77 536.719 223.407 673.79 2.10635 628.292Z" fill="#403057"/>
<path d="M1306.79 925.203C1848.75 840.185 988.181 658.371 1020.2 649.538C860.897 523.299 1141.08 494.224 1217.13 538.389C1293.18 582.554 1593.38 561.576 1835.94 538.389C2078.5 515.202 1861.56 649.538 1969.63 755.167C2077.7 860.796 1950.42 925.203 1676.64 969C1402.86 1012.8 764.834 1010.22 1306.79 925.203Z" fill="#A53DFF"/>
<path d="M1194.25 938.429C1008.8 1098.66 915.581 1021.96 892.156 963.578C892.156 889.629 874.063 727.451 801.688 670.328C711.22 598.924 892.156 477.223 1136.1 441.296C1380.04 405.37 1258.07 502.371 1483.43 670.328C1708.79 838.284 1426.08 738.139 1194.25 938.429Z" fill="#330060"/>
</g>
<g style="mix-blend-mode:multiply" filter="url(#filter1_f_765_416)">
<path d="M735.465 591.355C1562.82 525.286 1178.69 350.478 1252.98 -165H735.465C459.682 109.141 73.5848 644.21 735.465 591.355Z" fill="#A245FF"/>
<path d="M332.797 180.697C-5.63853 -4.44647 260.307 -240.24 435.583 -334.993L871.814 -349.004C937.916 -312.728 1084.42 -168.1 1141.62 120.204C1213.12 480.584 1087.18 485.774 932.479 219.541C777.778 -46.6909 755.842 412.127 332.797 180.697Z" fill="#2B2A6F"/>
<path d="M218.113 428.043C-3.18792 382.637 128.932 537.82 -96.9932 684.382C-74.3126 754.502 -3.7164 904.858 97.2233 945.32C223.398 995.898 418.275 1004.52 544.45 986.128C670.624 967.735 881.356 922.33 849.647 835.542C817.938 748.755 1081.52 757.376 849.647 547.016C617.776 336.657 439.414 473.448 218.113 428.043Z" fill="#403057"/>
<path d="M1522.8 724.349C2064.76 639.504 1204.19 458.061 1236.21 449.246C1076.9 323.264 1357.09 294.248 1433.14 338.323C1509.19 382.398 1809.39 361.463 2051.95 338.323C2294.51 315.184 2077.56 449.246 2185.64 554.659C2293.71 660.073 2166.42 724.349 1892.64 768.057C1618.86 811.765 980.84 809.194 1522.8 724.349Z" fill="#A53DFF"/>
<path d="M1410.79 737.548C1225.09 897.454 1131.76 820.907 1108.31 762.646C1108.31 688.848 1090.19 527 1017.73 469.993C927.143 398.734 1108.31 277.281 1352.56 241.428C1596.81 205.575 1474.68 302.379 1700.33 469.993C1925.98 637.607 1642.91 537.666 1410.79 737.548Z" fill="#330060"/>
</g>
<defs>
<filter id="filter0_f_765_416" x="-513" y="-350.341" width="2721" height="1746.75" filterUnits="userSpaceOnUse" color-interpolation-filters="sRGB">
<feFlood flood-opacity="0" result="BackgroundImageFix"/>
<feBlend mode="normal" in="SourceGraphic" in2="BackgroundImageFix" result="shape"/>
<feGaussianBlur stdDeviation="100" result="effect1_foregroundBlur_765_416"/>
</filter>
<filter id="filter1_f_765_416" x="-296.993" y="-549.004" width="2721" height="1744" filterUnits="userSpaceOnUse" color-interpolation-filters="sRGB">
<feFlood flood-opacity="0" result="BackgroundImageFix"/>
<feBlend mode="normal" in="SourceGraphic" in2="BackgroundImageFix" result="shape"/>
<feGaussianBlur stdDeviation="100" result="effect1_foregroundBlur_765_416"/>
</filter>
</defs>
</svg>
