<svg width="199" height="38" viewBox="0 0 199 38" fill="none" xmlns="http://www.w3.org/2000/svg">
<path d="M2.08 12.32H14.16V15.92H2.08V12.32ZM2.2 1.28H14.04V4.92H2.2V1.28ZM2.08 17.76H14.16V21.4H2.08V17.76ZM0.16 6.68H15.48V10.48H0.16V6.68ZM4.16 23.32H14.2V35.48H4.16V31.68H10.12V27.12H4.16V23.32ZM2 23.32H6.04V37.08H2V23.32ZM16.44 2.2H36.84V5.64H16.44V2.2ZM17.44 7.08H36.2V10.32H17.44V7.08ZM15.48 11.88H37.6V15.32H15.48V11.88ZM24.2 0.0399985H28.76V14.8H24.2V0.0399985ZM18.2 16.84H33.56V20.24H22.64V37.56H18.2V16.84ZM30.92 16.84H35.4V33.12C35.4 35.16 35 36.2 33.68 36.84C32.32 37.44 30.44 37.48 27.84 37.48C27.72 36.32 27.12 34.68 26.6 33.64C28.08 33.72 29.76 33.68 30.28 33.68C30.8 33.68 30.92 33.52 30.92 33.08V16.84ZM20.16 22.04H33.24V25.16H20.16V22.04ZM20.16 27.04H33.24V30.16H20.16V27.04ZM49.08 15.64V30.36H44.6V20.08H40.44V15.64H49.08ZM49.08 28.52C50.64 31.24 53.56 32.4 57.68 32.6C62.64 32.8 72.48 32.68 78.16 32.24C77.64 33.28 76.92 35.4 76.72 36.72C71.6 36.96 62.72 37.04 57.72 36.84C52.84 36.64 49.56 35.44 47.16 32.32C45.64 33.92 44.04 35.44 42.16 37.24L39.88 32.64C41.48 31.52 43.4 30 45.08 28.52H49.08ZM40.2 3.36L43.96 0.959999C46.08 2.88 48.56 5.6 49.64 7.56L45.56 10.24C44.64 8.32 42.24 5.4 40.2 3.36ZM51.52 16.4H76.04V19.88H51.52V16.4ZM50.32 22.56H77.28V26.12H50.32V22.56ZM56.84 14.28H61.36V24.28H56.84V14.28ZM66 14.28H70.56V24.28H66V14.28ZM52.6 5.96H58.44V4.28H50.84V1.28H62.48V9H52.6V5.96ZM51.4 5.96H55.36V9.84C55.36 10.68 55.52 10.84 56.56 10.84C57 10.84 59.04 10.84 59.64 10.84C60.44 10.84 60.6 10.6 60.76 9.28C61.48 9.8 63 10.32 64.08 10.52C63.68 13.24 62.6 14 60.16 14C59.4 14 56.72 14 55.96 14C52.4 14 51.4 13.08 51.4 9.88V5.96ZM65.76 5.96H71.64V4.28H63.84V1.28H75.72V9H65.76V5.96ZM64.56 5.96H68.52V9.84C68.52 10.68 68.72 10.84 69.76 10.84C70.24 10.84 72.36 10.84 72.96 10.84C73.8 10.84 73.96 10.6 74.12 9.24C74.84 9.76 76.36 10.24 77.44 10.48C77.04 13.24 75.96 14 73.48 14C72.72 14 69.92 14 69.16 14C65.56 14 64.56 13.08 64.56 9.84V5.96ZM65.32 27.8L68.84 25.84C71.72 27.16 75.24 29.08 77.24 30.44L72.28 32.24C70.8 30.96 67.96 29.16 65.32 27.8ZM58.32 25.84L62.52 27.32C60.44 29.24 57.08 31.08 54.32 32.2C53.56 31.4 51.84 29.96 50.84 29.32C53.64 28.48 56.6 27.2 58.32 25.84ZM110.12 4.64V7.28H112.6V4.64H110.12ZM104.04 4.64V7.28H106.48V4.64H104.04ZM98.08 4.64V7.28H100.4V4.64H98.08ZM94.36 1.48H116.52V10.44H94.36V1.48ZM94.84 12.04H115.92V15.44H94.84V12.04ZM92.84 17.28H117.68V20.88H92.84V17.28ZM93.2 23.88H117.24V27.44H93.2V23.88ZM94.24 29.28H116.28V32.76H94.24V29.28ZM102.8 9.6H107.36V18.88H102.8V9.6ZM102.8 25.64H107.36V37.8H102.8V25.64ZM97.56 21.12L101.48 20.32C101.92 21.36 102.48 22.76 102.68 23.68L98.6 24.64C98.44 23.72 98 22.24 97.56 21.12ZM109.28 19.76L113.68 20.8C112.8 22.32 111.96 23.76 111.32 24.76L107.76 23.8C108.32 22.6 108.96 20.92 109.28 19.76ZM79.8 20.16C83 19.44 87.76 18.16 92.28 16.88L92.92 21.2C88.8 22.48 84.4 23.76 80.88 24.76L79.8 20.16ZM80.44 7.64H92.68V12.04H80.44V7.64ZM84.68 0.079998H89.08V32.52C89.08 34.76 88.68 36 87.44 36.72C86.24 37.48 84.52 37.64 81.92 37.64C81.8 36.44 81.24 34.48 80.68 33.16C82.12 33.24 83.52 33.24 84 33.2C84.48 33.2 84.68 33.08 84.68 32.52V0.079998ZM120.8 1.88H136.96V6.32H120.8V1.88ZM125.92 12.88V16.6H131.8V12.88H125.92ZM121.88 9.12H136.08V20.36H121.88V9.12ZM130.8 20.92L135.48 21.92C134.64 24.84 133.8 28 133.08 30.04L129.4 29.12C130 26.88 130.6 23.4 130.8 20.92ZM122.36 22.24L126.2 21.28C127.04 23.52 127.64 26.4 127.76 28.36L123.68 29.4C123.64 27.48 123.12 24.52 122.36 22.24ZM120.12 31.36C124.44 30.6 131 29.24 137.2 27.92L137.6 32C131.92 33.36 125.8 34.76 121.24 35.84L120.12 31.36ZM137.92 1.64H157.36V5.68H137.92V1.64ZM143.28 17.68V20.24H151.84V17.68H143.28ZM143.28 23.52V26.12H151.84V23.52H143.28ZM143.28 11.88V14.44H151.84V11.88H143.28ZM138.88 8.4H156.44V29.6H138.88V8.4ZM144.72 3.88L150.2 4.48C149.44 7 148.6 9.52 147.92 11.24L143.76 10.48C144.16 8.56 144.6 5.84 144.72 3.88ZM142.68 29.8L146.6 32.32C144.4 34.32 140.76 36.52 137.68 37.68C136.96 36.8 135.56 35.44 134.52 34.6C137.52 33.56 141 31.44 142.68 29.8ZM148.2 32.4L151.84 30.12C154 31.52 157.04 33.68 158.6 35.12L154.76 37.64C153.4 36.2 150.44 33.92 148.2 32.4ZM177.4 0.0399985L181.88 0.879997C179.72 4.8 176.84 8.68 172.84 11.96C172.04 11 170.48 9.8 169.36 9.24C173.16 6.56 175.88 3.04 177.4 0.0399985ZM178.64 2.48H187.56V5.96H175.88L178.64 2.48ZM176.6 11.36V14.4H191.76V11.36H176.6ZM172.28 8.08H196.36V17.6H172.28V8.08ZM181.8 9.52H186.08V15.88H181.8V9.52ZM182.52 14.72L186.12 16.16C182.84 19.44 177.4 22.36 172.76 24.08C172.2 23.28 170.96 21.68 170.16 20.96C174.72 19.64 179.76 17.36 182.52 14.72ZM177.64 20.12L180.8 18.2C188.72 23.56 188.8 33.2 185.52 36C184.28 37.24 183.04 37.56 181.28 37.64C180.48 37.64 179.44 37.64 178.44 37.56C178.4 36.44 178.08 34.68 177.36 33.48C178.52 33.64 179.56 33.68 180.36 33.68C181.2 33.68 181.84 33.56 182.36 32.92C184.08 31.36 183.96 24.52 177.64 20.12ZM181.76 20.8L184.4 22.6C181.6 25.12 176.52 28.04 172.56 29.64C172.08 28.72 171.2 27.4 170.4 26.6C174.24 25.52 179.28 23 181.76 20.8ZM183.72 24.88L186.72 27C183.36 30.4 177.2 34.2 172.24 36.2C171.68 35.16 170.68 33.68 169.76 32.84C174.64 31.32 180.76 27.96 183.72 24.88ZM194.56 18.4L197.76 21.28C195.84 23 193.4 24.84 191.6 25.96L188.88 23.36C190.64 22.16 193.12 20 194.56 18.4ZM188.92 15.52C190.28 22.76 193.16 29.24 198.28 32.28C197.28 33.12 195.88 34.84 195.2 36.04C189.6 32.2 186.68 24.96 185.04 16.2L188.92 15.52ZM186.12 2.48H187.12L188 2.2L190.8 4.24C189.36 6.68 187.24 9.48 185.44 11.24C184.84 10.4 183.6 9.04 182.84 8.4C184.08 7.04 185.48 4.76 186.12 3.24V2.48ZM167.36 0.119998L171.8 1.4C169.52 8.4 165.84 16 161.76 20.8C161.36 19.6 160.2 16.88 159.44 15.6C162.68 11.84 165.64 5.96 167.36 0.119998ZM164.2 11.08L168.64 6.68L168.76 6.76V37.56H164.2V11.08Z" fill="white"/>
</svg>
