<svg width="777" height="51" viewBox="0 0 777 51" fill="none" xmlns="http://www.w3.org/2000/svg">
<path d="M3.02939 16.764H18.7334V21.496H3.02939V16.764ZM3.23739 2.464H18.6294V7.144H3.23739V2.464ZM3.02939 23.888H18.7334V28.568H3.02939V23.888ZM0.585391 9.432H20.4494V14.372H0.585391V9.432ZM5.73339 31.064H18.8374V46.924H5.73339V41.984H13.4814V36.004H5.73339V31.064ZM2.92539 31.064H8.17739V48.952H2.92539V31.064ZM21.6974 3.66H48.2174V8.08H21.6974V3.66ZM23.0494 10.004H47.4374V14.164H23.0494V10.004ZM20.5014 16.244H49.2054V20.716H20.5014V16.244ZM31.8374 0.799999H37.7134V20.04H31.8374V0.799999ZM24.0374 22.692H43.9534V27.112H29.7574V49.576H24.0374V22.692ZM40.5734 22.692H46.3974V43.856C46.3974 45.1387 46.2414 46.144 45.9294 46.872C45.6174 47.6347 45.0107 48.224 44.1094 48.64C43.2427 49.056 42.1854 49.2987 40.9374 49.368C39.6894 49.472 38.2334 49.524 36.5694 49.524C36.4654 48.7613 36.2401 47.8947 35.8934 46.924C35.5814 45.988 35.2694 45.1907 34.9574 44.532C35.8934 44.5667 36.8294 44.584 37.7654 44.584C38.7361 44.584 39.3774 44.5667 39.6894 44.532C40.0361 44.532 40.2614 44.48 40.3654 44.376C40.5041 44.2373 40.5734 44.0293 40.5734 43.752V22.692ZM26.5334 29.4H43.5374V33.508H26.5334V29.4ZM26.5334 35.9H43.5374V39.956H26.5334V35.9ZM79.8334 13.696H94.1854V18.636H79.8334V13.696ZM77.1294 28.568H84.4094V32.572H77.1294V28.568ZM77.1294 35.328H84.4094V39.748H77.1294V35.328ZM88.5174 22.848H92.7814V41.568H88.5174V22.848ZM87.0614 6.572C86.2294 8.028 85.1894 9.55333 83.9414 11.148C82.6934 12.7427 81.2894 14.2853 79.7294 15.776C78.2041 17.232 76.5921 18.5147 74.8934 19.624C74.5814 18.8267 74.1307 17.9427 73.5414 16.972C72.9867 15.9667 72.4494 15.1347 71.9294 14.476C73.6281 13.4707 75.2574 12.2053 76.8174 10.68C78.4121 9.15466 79.8334 7.54266 81.0814 5.844C82.3641 4.11067 83.3867 2.464 84.1494 0.903997H89.5574C90.6321 2.63733 91.8627 4.336 93.2494 6C94.6361 7.664 96.1094 9.18933 97.6694 10.576C99.2641 11.928 100.859 13.02 102.453 13.852C101.899 14.5453 101.327 15.3947 100.737 16.4C100.183 17.4053 99.6974 18.3587 99.2814 19.26C97.7214 18.2547 96.1787 17.0587 94.6534 15.672C93.1281 14.2507 91.7067 12.7427 90.3894 11.148C89.0721 9.55333 87.9627 8.028 87.0614 6.572ZM74.4254 21.496H84.2014V25.864H78.6374V49.472H74.4254V21.496ZM82.3294 21.496H86.5934V44.948C86.5934 45.884 86.5067 46.664 86.3334 47.288C86.1947 47.912 85.8654 48.432 85.3454 48.848C84.7907 49.1947 84.1841 49.4027 83.5254 49.472C82.8667 49.576 82.1041 49.628 81.2374 49.628C81.2027 49.0387 81.0814 48.328 80.8734 47.496C80.6654 46.664 80.4401 45.9533 80.1974 45.364C80.5787 45.364 80.9254 45.364 81.2374 45.364C81.5494 45.364 81.7921 45.364 81.9654 45.364C82.2081 45.364 82.3294 45.1907 82.3294 44.844V21.496ZM95.1214 20.664H100.009V44.376C100.009 45.52 99.8707 46.4387 99.5934 47.132C99.3507 47.8253 98.8654 48.3627 98.1374 48.744C97.3747 49.1253 96.4561 49.3507 95.3814 49.42C94.3067 49.524 93.0067 49.576 91.4814 49.576C91.3774 48.9173 91.1867 48.1547 90.9094 47.288C90.6667 46.4213 90.3894 45.6587 90.0774 45C91.0134 45.0347 91.8801 45.052 92.6774 45.052C93.5094 45.052 94.0641 45.052 94.3414 45.052C94.8614 45.0173 95.1214 44.7747 95.1214 44.324V20.664ZM53.1574 5.74H73.5414V11.096H53.1574V5.74ZM52.5334 36.004H73.3854V41.412H52.5334V36.004ZM60.3334 0.747999H65.7414V16.14H60.3334V0.747999ZM61.2174 16.14H64.9614V30.596H65.7934V49.576H60.3334V30.596H61.2174V16.14ZM58.0454 25.448V28.516H68.0814V25.448H58.0454ZM58.0454 18.324V21.392H68.0814V18.324H58.0454ZM53.7814 14.008H72.5014V32.884H53.7814V14.008ZM114.933 3.712H129.701V10.056H114.933V3.712ZM126.633 3.712H133.081C133.081 5.376 133.151 7.26533 133.289 9.38C133.428 11.46 133.723 13.696 134.173 16.088C134.624 18.4453 135.3 20.872 136.201 23.368C137.103 25.864 138.299 28.3427 139.789 30.804C141.315 33.2307 143.221 35.5707 145.509 37.824C147.797 40.0773 150.536 42.1573 153.725 44.064C153.275 44.4107 152.72 44.9133 152.061 45.572C151.403 46.2307 150.761 46.9067 150.137 47.6C149.548 48.328 149.063 48.9693 148.681 49.524C145.423 47.5133 142.597 45.26 140.205 42.764C137.813 40.2333 135.803 37.564 134.173 34.756C132.544 31.9133 131.227 29.0533 130.221 26.176C129.216 23.264 128.453 20.4387 127.933 17.7C127.413 14.9267 127.067 12.344 126.893 9.952C126.72 7.56 126.633 5.48 126.633 3.712ZM124.397 15.152L131.521 16.452C130.343 21.5827 128.765 26.2453 126.789 30.44C124.813 34.6347 122.439 38.3267 119.665 41.516C116.927 44.7053 113.755 47.392 110.149 49.576C109.768 49.1253 109.231 48.5707 108.537 47.912C107.844 47.288 107.116 46.6467 106.353 45.988C105.625 45.364 104.984 44.8613 104.429 44.48C109.872 41.7413 114.205 37.8933 117.429 32.936C120.653 27.944 122.976 22.016 124.397 15.152ZM168.597 34.288H174.785V41.36C174.785 42.1227 174.976 42.608 175.357 42.816C175.773 42.9893 176.692 43.076 178.113 43.076C178.46 43.076 178.997 43.076 179.725 43.076C180.453 43.076 181.251 43.076 182.117 43.076C183.019 43.076 183.851 43.076 184.613 43.076C185.411 43.076 186.035 43.076 186.485 43.076C187.283 43.076 187.872 42.9547 188.253 42.712C188.669 42.4347 188.964 41.8627 189.137 40.996C189.311 40.1293 189.449 38.8293 189.553 37.096C189.969 37.408 190.507 37.72 191.165 38.032C191.859 38.3093 192.552 38.5693 193.245 38.812C193.973 39.02 194.615 39.1933 195.169 39.332C194.927 41.7933 194.528 43.6827 193.973 45C193.419 46.352 192.587 47.288 191.477 47.808C190.368 48.328 188.86 48.588 186.953 48.588C186.641 48.588 186.173 48.588 185.549 48.588C184.925 48.588 184.197 48.588 183.365 48.588C182.568 48.588 181.771 48.588 180.973 48.588C180.211 48.588 179.517 48.588 178.893 48.588C178.269 48.588 177.801 48.588 177.489 48.588C175.132 48.588 173.312 48.3627 172.029 47.912C170.747 47.496 169.845 46.768 169.325 45.728C168.84 44.688 168.597 43.2493 168.597 41.412V34.288ZM176.137 33.612L180.401 30.18C181.199 30.8387 182.031 31.584 182.897 32.416C183.799 33.248 184.665 34.08 185.497 34.912C186.329 35.7093 187.005 36.42 187.525 37.044L183.001 40.892C182.551 40.268 181.927 39.5227 181.129 38.656C180.332 37.7893 179.483 36.9227 178.581 36.056C177.715 35.1547 176.9 34.34 176.137 33.612ZM193.661 35.068L199.121 32.52C199.849 33.56 200.629 34.7213 201.461 36.004C202.293 37.2867 203.091 38.5347 203.853 39.748C204.616 40.9267 205.24 41.9667 205.725 42.868L199.901 45.884C199.485 44.948 198.913 43.856 198.185 42.608C197.492 41.36 196.729 40.0773 195.897 38.76C195.1 37.4427 194.355 36.212 193.661 35.068ZM161.161 33.196L166.725 35.38C166.379 36.5933 165.98 37.8933 165.529 39.28C165.079 40.6667 164.576 42.0187 164.021 43.336C163.501 44.6187 162.929 45.7627 162.305 46.768L156.585 43.96C157.244 43.024 157.851 41.9493 158.405 40.736C158.995 39.5227 159.532 38.2747 160.017 36.992C160.503 35.6747 160.884 34.4093 161.161 33.196ZM157.521 8.236H179.361V13.54H157.521V8.236ZM166.101 0.903997H172.029V32.156H166.101V0.903997ZM165.945 11.72L170.157 13.072C169.464 15.1867 168.597 17.2667 167.557 19.312C166.517 21.3573 165.373 23.264 164.125 25.032C162.877 26.8 161.577 28.2907 160.225 29.504C159.775 28.8453 159.151 28.0827 158.353 27.216C157.556 26.3147 156.845 25.6213 156.221 25.136C157.539 24.2 158.804 23.0213 160.017 21.6C161.265 20.144 162.392 18.5667 163.397 16.868C164.403 15.1347 165.252 13.4187 165.945 11.72ZM171.665 15.256C172.116 15.4987 172.74 15.8973 173.537 16.452C174.369 16.972 175.236 17.5613 176.137 18.22C177.073 18.844 177.905 19.4333 178.633 19.988C179.396 20.508 179.968 20.9067 180.349 21.184L177.021 26.176C176.536 25.6213 175.912 24.9973 175.149 24.304C174.421 23.576 173.641 22.8307 172.809 22.068C172.012 21.3053 171.215 20.5947 170.417 19.936C169.655 19.2773 169.013 18.74 168.493 18.324L171.665 15.256ZM187.109 15.932V19H196.729V15.932H187.109ZM187.109 23.576V26.696H196.729V23.576H187.109ZM187.109 8.34V11.356H196.729V8.34H187.109ZM181.441 3.452H202.709V31.532H181.441V3.452ZM209.157 29.036H256.945V34.08H209.157V29.036ZM210.145 2.672H255.645V8.08H210.145V2.672ZM226.525 23.992L232.661 25.604C231.552 27.4067 230.339 29.296 229.021 31.272C227.739 33.248 226.456 35.1547 225.173 36.992C223.925 38.8293 222.764 40.4413 221.689 41.828L215.709 39.956C216.784 38.5693 217.963 36.9573 219.245 35.12C220.528 33.2827 221.811 31.3933 223.093 29.452C224.376 27.5107 225.52 25.6907 226.525 23.992ZM241.605 30.908L247.637 32.416C246.32 35.5013 244.656 38.0667 242.645 40.112C240.635 42.1573 238.191 43.8213 235.313 45.104C232.471 46.3867 229.16 47.3747 225.381 48.068C221.603 48.796 217.304 49.3507 212.485 49.732C212.277 48.8307 211.948 47.8773 211.497 46.872C211.081 45.8667 210.631 45.0347 210.145 44.376C215.969 44.1333 220.961 43.596 225.121 42.764C229.316 41.932 232.765 40.58 235.469 38.708C238.173 36.836 240.219 34.236 241.605 30.908ZM219.297 40.372L222.417 35.952C226.439 36.7493 230.46 37.668 234.481 38.708C238.537 39.7133 242.351 40.7533 245.921 41.828C249.492 42.868 252.577 43.856 255.177 44.792L251.433 49.888C248.903 48.848 245.921 47.756 242.489 46.612C239.092 45.5027 235.4 44.4107 231.413 43.336C227.461 42.2613 223.423 41.2733 219.297 40.372ZM223.873 4.752H229.749V22.536H223.873V4.752ZM235.625 4.752H241.553V22.536H235.625V4.752ZM218.413 15.932V20.768H247.793V15.932H218.413ZM212.537 10.992H253.981V25.656H212.537V10.992ZM272.545 1.164H279.045V31.012H272.545V1.164ZM291.005 1.164H297.557V31.012H291.005V1.164ZM261.313 26.852H308.893V32.936H261.313V26.852ZM263.133 10.836H307.281V16.868H263.133V10.836ZM288.665 37.876L294.333 34.756C295.824 35.8307 297.453 37.044 299.221 38.396C301.024 39.7133 302.757 41.048 304.421 42.4C306.085 43.752 307.455 44.9653 308.529 46.04L302.341 49.68C301.405 48.64 300.14 47.4267 298.545 46.04C296.985 44.6533 295.339 43.2493 293.605 41.828C291.872 40.372 290.225 39.0547 288.665 37.876ZM274.781 34.964L281.437 37.512C280.12 39.0027 278.647 40.4933 277.017 41.984C275.388 43.4747 273.689 44.8787 271.921 46.196C270.153 47.548 268.42 48.7093 266.721 49.68C266.305 49.2293 265.785 48.7267 265.161 48.172C264.537 47.6173 263.913 47.08 263.289 46.56C262.7 46.0747 262.145 45.6587 261.625 45.312C263.289 44.4107 264.953 43.388 266.617 42.244C268.281 41.1 269.824 39.8867 271.245 38.604C272.701 37.3213 273.88 36.108 274.781 34.964ZM323.973 12.864H350.025V18.116H323.973V12.864ZM326.417 22.068H332.137V43.076H326.417V22.068ZM329.589 22.068H347.685V39.592H329.589V34.444H341.913V27.216H329.589V22.068ZM314.925 3.296H356.525V9.172H321.009V49.68H314.925V3.296ZM353.093 3.296H359.229V42.504C359.229 44.1333 359.039 45.416 358.657 46.352C358.276 47.288 357.583 48.016 356.577 48.536C355.572 49.0213 354.324 49.3333 352.833 49.472C351.343 49.6453 349.505 49.732 347.321 49.732C347.252 49.1427 347.096 48.4667 346.853 47.704C346.645 46.976 346.403 46.2307 346.125 45.468C345.848 44.74 345.536 44.0987 345.189 43.544C346.576 43.6133 347.911 43.6653 349.193 43.7C350.511 43.7 351.395 43.6827 351.845 43.648C352.331 43.6133 352.66 43.5093 352.833 43.336C353.007 43.1627 353.093 42.868 353.093 42.452V3.296ZM375.401 15.568H402.389V21.236H375.401V15.568ZM365.729 24.98H412.321V30.804H365.729V24.98ZM378.313 29.66H385.073C384.831 32.052 384.432 34.288 383.877 36.368C383.323 38.4133 382.439 40.2853 381.225 41.984C380.047 43.648 378.383 45.1387 376.233 46.456C374.084 47.7733 371.311 48.8827 367.913 49.784C367.705 49.2293 367.393 48.6053 366.977 47.912C366.596 47.2187 366.163 46.5253 365.677 45.832C365.192 45.1733 364.724 44.636 364.273 44.22C367.255 43.5613 369.629 42.764 371.397 41.828C373.2 40.892 374.552 39.8347 375.453 38.656C376.389 37.4427 377.048 36.0907 377.429 34.6C377.845 33.0747 378.14 31.428 378.313 29.66ZM391.729 28.62H398.021V41.308C398.021 42.14 398.143 42.6773 398.385 42.92C398.663 43.128 399.269 43.232 400.205 43.232C400.413 43.232 400.743 43.232 401.193 43.232C401.644 43.232 402.147 43.232 402.701 43.232C403.256 43.232 403.776 43.232 404.261 43.232C404.747 43.232 405.128 43.232 405.405 43.232C405.96 43.232 406.376 43.0933 406.653 42.816C406.965 42.5387 407.173 41.9493 407.277 41.048C407.416 40.112 407.52 38.7427 407.589 36.94C408.04 37.252 408.595 37.564 409.253 37.876C409.912 38.188 410.588 38.4653 411.281 38.708C412.009 38.9507 412.651 39.1587 413.205 39.332C412.997 41.828 412.633 43.7693 412.113 45.156C411.593 46.5773 410.848 47.548 409.877 48.068C408.941 48.6227 407.641 48.9 405.977 48.9C405.665 48.9 405.197 48.9 404.573 48.9C403.984 48.9 403.325 48.9 402.597 48.9C401.904 48.9 401.245 48.9 400.621 48.9C400.032 48.9 399.581 48.9 399.269 48.9C397.259 48.9 395.699 48.6747 394.589 48.224C393.515 47.7733 392.769 46.9933 392.353 45.884C391.937 44.7747 391.729 43.284 391.729 41.412V28.62ZM385.541 0.851998H392.197V10.316H385.541V0.851998ZM366.665 5.844H411.333V18.22H404.677V11.772H373.009V18.22H366.665V5.844ZM424.489 20.404H436.501V26.072H424.489V20.404ZM434.109 20.404H440.141C440.141 20.404 440.141 20.5427 440.141 20.82C440.141 21.0973 440.141 21.4267 440.141 21.808C440.141 22.1547 440.141 22.4493 440.141 22.692C440.072 26.3667 439.985 29.3827 439.881 31.74C439.777 34.0627 439.604 35.8827 439.361 37.2C439.153 38.4827 438.859 39.384 438.477 39.904C437.957 40.5627 437.403 41.0307 436.813 41.308C436.259 41.5853 435.6 41.7933 434.837 41.932C434.144 42.0707 433.26 42.1573 432.185 42.192C431.145 42.192 430.001 42.1747 428.753 42.14C428.719 41.2387 428.545 40.2333 428.233 39.124C427.921 38.0147 427.54 37.0787 427.089 36.316C428.025 36.3853 428.892 36.4373 429.689 36.472C430.521 36.5067 431.145 36.524 431.561 36.524C431.908 36.524 432.203 36.4893 432.445 36.42C432.723 36.316 432.948 36.1427 433.121 35.9C433.364 35.588 433.537 34.9467 433.641 33.976C433.78 32.9707 433.884 31.4627 433.953 29.452C434.023 27.4067 434.075 24.7027 434.109 21.34V20.404ZM449.709 4.076L453.505 0.331999C454.476 0.817332 455.499 1.38933 456.573 2.048C457.648 2.70666 458.671 3.36533 459.641 4.024C460.647 4.68266 461.461 5.324 462.085 5.948L458.081 10.108C457.492 9.51867 456.729 8.86 455.793 8.132C454.857 7.404 453.852 6.69333 452.777 6C451.703 5.272 450.68 4.63066 449.709 4.076ZM455.845 17.492L462.189 19C460.005 25.76 457.024 31.74 453.245 36.94C449.467 42.1053 444.995 46.2827 439.829 49.472C439.552 49.0213 439.136 48.4667 438.581 47.808C438.027 47.184 437.455 46.5427 436.865 45.884C436.276 45.26 435.756 44.74 435.305 44.324C440.297 41.62 444.527 37.98 447.993 33.404C451.46 28.7933 454.077 23.4893 455.845 17.492ZM424.801 8.6H464.945V14.736H424.801V8.6ZM420.641 8.6H427.193V23.94C427.193 25.8813 427.124 28.0133 426.985 30.336C426.847 32.624 426.587 34.9813 426.205 37.408C425.824 39.8 425.252 42.1053 424.489 44.324C423.761 46.5427 422.808 48.536 421.629 50.304C421.283 49.8533 420.763 49.3507 420.069 48.796C419.411 48.2413 418.735 47.6867 418.041 47.132C417.383 46.612 416.811 46.248 416.325 46.04C417.643 43.96 418.596 41.6373 419.185 39.072C419.809 36.472 420.208 33.8547 420.381 31.22C420.555 28.5853 420.641 26.1413 420.641 23.888V8.6ZM441.753 0.851998H448.305C448.236 5.116 448.357 9.29333 448.669 13.384C448.981 17.4747 449.432 21.3053 450.021 24.876C450.645 28.412 451.373 31.5493 452.205 34.288C453.037 36.992 453.956 39.1067 454.961 40.632C455.967 42.1573 456.989 42.92 458.029 42.92C458.619 42.92 459.069 42.2093 459.381 40.788C459.728 39.3667 459.971 37.0267 460.109 33.768C460.837 34.4613 461.687 35.1373 462.657 35.796C463.663 36.4547 464.581 36.94 465.413 37.252C465.101 40.476 464.633 42.972 464.009 44.74C463.385 46.4733 462.553 47.6693 461.513 48.328C460.473 48.9867 459.139 49.316 457.509 49.316C455.637 49.316 453.939 48.6747 452.413 47.392C450.923 46.1093 449.588 44.324 448.409 42.036C447.265 39.748 446.277 37.0613 445.445 33.976C444.613 30.8907 443.92 27.5453 443.365 23.94C442.845 20.3347 442.447 16.5907 442.169 12.708C441.927 8.79066 441.788 4.83867 441.753 0.851998ZM488.033 28.412L491.049 27.476C491.639 28.3427 492.176 29.3133 492.661 30.388C493.181 31.428 493.528 32.3467 493.701 33.144L490.529 34.236C490.356 33.404 490.027 32.4507 489.541 31.376C489.091 30.3013 488.588 29.3133 488.033 28.412ZM479.349 24.46L481.325 22.068C482.261 22.692 483.232 23.4373 484.237 24.304C485.243 25.1707 485.988 25.9507 486.473 26.644L484.393 29.4C483.908 28.672 483.18 27.84 482.209 26.904C481.239 25.968 480.285 25.1533 479.349 24.46ZM485.121 18.74L488.709 20.144C488.016 21.0107 487.305 21.8947 486.577 22.796C485.884 23.6973 485.225 24.4427 484.601 25.032L481.845 23.836C482.4 23.108 482.989 22.2587 483.613 21.288C484.237 20.3173 484.74 19.468 485.121 18.74ZM488.657 22.536L491.881 23.94C491.015 24.876 490.096 25.8467 489.125 26.852C488.155 27.8573 487.201 28.828 486.265 29.764C485.329 30.6653 484.445 31.4627 483.613 32.156L481.221 30.908C482.053 30.1453 482.92 29.2787 483.821 28.308C484.757 27.3027 485.641 26.2973 486.473 25.292C487.34 24.252 488.068 23.3333 488.657 22.536ZM494.065 34.08H498.329V48.64H494.065V34.08ZM478.881 30.492C480.545 30.388 482.417 30.284 484.497 30.18C486.612 30.0413 488.848 29.8853 491.205 29.712V32.884C489.056 33.092 486.976 33.2827 484.965 33.456C482.955 33.5947 481.065 33.7333 479.297 33.872L478.881 30.492ZM501.137 28.1L504.309 27.164C504.933 28.1347 505.523 29.2093 506.077 30.388C506.632 31.532 507.013 32.5547 507.221 33.456L503.945 34.496C503.772 33.6293 503.425 32.6067 502.905 31.428C502.385 30.2147 501.796 29.1053 501.137 28.1ZM491.725 24.2L493.961 21.912C495.001 22.6053 496.041 23.4373 497.081 24.408C498.156 25.3787 498.953 26.2627 499.473 27.06L497.185 29.66C496.665 28.828 495.885 27.9093 494.845 26.904C493.805 25.864 492.765 24.9627 491.725 24.2ZM497.705 18.688L501.501 20.092C500.704 21.0973 499.907 22.068 499.109 23.004C498.312 23.94 497.567 24.772 496.873 25.5L494.065 24.252C494.689 23.4893 495.348 22.5707 496.041 21.496C496.735 20.4213 497.289 19.4853 497.705 18.688ZM501.449 22.536L504.725 24.044C503.824 25.0147 502.871 26.02 501.865 27.06C500.86 28.1 499.855 29.088 498.849 30.024C497.844 30.96 496.873 31.792 495.937 32.52L493.545 31.168C494.412 30.4053 495.331 29.5387 496.301 28.568C497.307 27.5627 498.26 26.54 499.161 25.5C500.063 24.4253 500.825 23.4373 501.449 22.536ZM492.765 30.492C494.36 30.4227 496.18 30.3187 498.225 30.18C500.305 30.0413 502.489 29.9027 504.777 29.764V32.884C502.767 33.092 500.791 33.2827 498.849 33.456C496.943 33.5947 495.157 33.7333 493.493 33.872L492.765 30.492ZM480.493 34.964H484.289V39.436H489.905V42.92H480.493V34.964ZM501.553 34.964H505.453V42.92H497.445V39.436H501.553V34.964ZM487.461 34.08H491.569V39.124C491.569 40.476 491.396 41.7933 491.049 43.076C490.703 44.3587 489.992 45.5373 488.917 46.612C487.843 47.6867 486.196 48.6053 483.977 49.368C483.735 48.848 483.336 48.2587 482.781 47.6C482.227 46.9413 481.741 46.404 481.325 45.988C483.128 45.468 484.463 44.844 485.329 44.116C486.196 43.3533 486.768 42.5387 487.045 41.672C487.323 40.8053 487.461 39.9213 487.461 39.02V34.08ZM474.201 9.432H487.305V13.228H474.201V9.432ZM498.121 9.432H511.329V13.228H498.121V9.432ZM509.249 2.828H515.229V42.504C515.229 43.9947 515.091 45.1907 514.813 46.092C514.536 47.028 513.947 47.756 513.045 48.276C512.179 48.796 511.121 49.108 509.873 49.212C508.625 49.3507 507.135 49.42 505.401 49.42C505.332 48.8307 505.211 48.172 505.037 47.444C504.864 46.716 504.656 45.9707 504.413 45.208C504.205 44.48 503.963 43.856 503.685 43.336C504.621 43.3707 505.54 43.4053 506.441 43.44C507.377 43.44 508.019 43.4227 508.365 43.388C508.712 43.388 508.937 43.3187 509.041 43.18C509.18 43.0413 509.249 42.7987 509.249 42.452V2.828ZM474.773 2.828H491.257V19.78H474.773V15.62H485.433V6.988H474.773V2.828ZM512.317 2.828V6.988H500.617V15.62H512.317V19.78H494.689V2.828H512.317ZM471.081 2.828H477.009V49.68H471.081V2.828ZM521.417 19.208H568.789V25.396H521.417V19.208ZM544.609 7.196H563.121V13.176H544.609V7.196ZM540.553 0.799999H547.209V22.172H540.553V0.799999ZM540.553 23.16H547.209V49.628H540.553V23.16ZM545.285 33.092L548.457 28.1C549.775 28.4813 551.213 28.932 552.773 29.452C554.333 29.9373 555.911 30.4747 557.505 31.064C559.1 31.6187 560.608 32.1733 562.029 32.728C563.451 33.2827 564.647 33.8027 565.617 34.288L562.289 39.956C561.353 39.436 560.192 38.8813 558.805 38.292C557.453 37.7027 555.997 37.096 554.437 36.472C552.877 35.848 551.3 35.2413 549.705 34.652C548.145 34.0627 546.672 33.5427 545.285 33.092ZM578.461 9.276H594.425V44.272H578.461V38.812H588.809V14.684H578.461V9.276ZM574.821 9.276H580.489V48.12H574.821V9.276ZM578.253 23.16H591.513V28.568H578.253V23.16ZM582.257 0.799999L589.017 1.788C588.463 3.556 587.856 5.30667 587.197 7.04C586.573 8.77333 586.001 10.2467 585.481 11.46L580.489 10.316C580.732 9.41467 580.957 8.40933 581.165 7.3C581.408 6.19067 581.633 5.064 581.841 3.92C582.049 2.776 582.188 1.736 582.257 0.799999ZM601.289 8.86H616.525V14.58H601.289V8.86ZM614.341 8.86H620.113C620.113 8.86 620.113 9.05066 620.113 9.432C620.113 9.77867 620.113 10.1773 620.113 10.628C620.113 11.0787 620.096 11.4253 620.061 11.668C619.923 17.5267 619.749 22.5013 619.541 26.592C619.368 30.648 619.143 34.0107 618.865 36.68C618.623 39.3147 618.328 41.3773 617.981 42.868C617.635 44.3587 617.184 45.4507 616.629 46.144C615.936 47.1493 615.191 47.8427 614.393 48.224C613.596 48.6053 612.677 48.8827 611.637 49.056C610.632 49.1947 609.384 49.2467 607.893 49.212C606.437 49.212 604.947 49.1947 603.421 49.16C603.387 48.2933 603.179 47.2707 602.797 46.092C602.416 44.948 601.948 43.9427 601.393 43.076C603.057 43.2147 604.6 43.3013 606.021 43.336C607.477 43.3707 608.535 43.388 609.193 43.388C609.713 43.388 610.129 43.336 610.441 43.232C610.788 43.0933 611.117 42.8507 611.429 42.504C611.88 42.0533 612.244 41.1347 612.521 39.748C612.833 38.3267 613.093 36.3333 613.301 33.768C613.509 31.2027 613.7 27.9613 613.873 24.044C614.047 20.1267 614.203 15.464 614.341 10.056V8.86ZM601.445 0.851998L607.477 2.256C606.819 4.78667 606.004 7.31733 605.033 9.848C604.097 12.3787 603.057 14.7707 601.913 17.024C600.804 19.2427 599.66 21.184 598.481 22.848C598.135 22.5013 597.632 22.1027 596.973 21.652C596.349 21.1667 595.708 20.6987 595.049 20.248C594.425 19.7973 593.871 19.4507 593.385 19.208C594.529 17.7173 595.604 16.0013 596.609 14.06C597.649 12.084 598.568 9.96933 599.365 7.716C600.197 5.428 600.891 3.14 601.445 0.851998ZM598.897 23.888L603.785 21.132C604.652 22.3107 605.571 23.6107 606.541 25.032C607.512 26.4533 608.431 27.84 609.297 29.192C610.164 30.544 610.875 31.74 611.429 32.78L606.125 36.004C605.64 34.9293 604.981 33.6987 604.149 32.312C603.352 30.9253 602.485 29.504 601.549 28.048C600.648 26.5573 599.764 25.1707 598.897 23.888ZM646.529 3.452H667.693V9.172H646.529V3.452ZM644.761 21.496H673.517V27.424H644.761V21.496ZM655.785 15.464H662.025V42.712C662.025 44.272 661.835 45.5027 661.453 46.404C661.072 47.3053 660.379 47.9987 659.373 48.484C658.333 48.9693 657.085 49.2813 655.629 49.42C654.208 49.5933 652.544 49.6627 650.637 49.628C650.499 48.7613 650.204 47.7387 649.753 46.56C649.303 45.3813 648.852 44.3587 648.401 43.492C649.719 43.5267 650.984 43.5613 652.197 43.596C653.411 43.6307 654.243 43.6307 654.693 43.596C655.109 43.596 655.387 43.5267 655.525 43.388C655.699 43.2493 655.785 43.0067 655.785 42.66V15.464ZM665.405 3.452H666.965L668.213 3.088L672.269 6.156C671.264 7.68133 670.12 9.276 668.837 10.94C667.589 12.5693 666.272 14.1467 664.885 15.672C663.499 17.1627 662.129 18.48 660.777 19.624C660.361 19.0693 659.789 18.428 659.061 17.7C658.333 16.972 657.709 16.4 657.189 15.984C658.229 15.0133 659.287 13.852 660.361 12.5C661.436 11.148 662.407 9.77866 663.273 8.392C664.175 7.00533 664.885 5.792 665.405 4.752V3.452ZM624.949 11.148H641.797V16.972H624.949V11.148ZM631.969 0.799999L637.793 1.424C637.308 4.19733 636.753 7.10933 636.129 10.16C635.54 13.2107 634.916 16.2613 634.257 19.312C633.599 22.328 632.94 25.2573 632.281 28.1C631.623 30.908 630.981 33.4733 630.357 35.796L625.261 33.144C625.851 31.0987 626.44 28.7587 627.029 26.124C627.653 23.4893 628.26 20.716 628.849 17.804C629.439 14.8573 629.993 11.9453 630.513 9.068C631.068 6.156 631.553 3.4 631.969 0.799999ZM628.017 32.26L631.397 27.84C633.2 28.984 635.089 30.2667 637.065 31.688C639.076 33.1093 640.931 34.548 642.629 36.004C644.363 37.46 645.732 38.8467 646.737 40.164L642.993 45.208C642.023 43.8907 640.705 42.4693 639.041 40.944C637.377 39.384 635.575 37.8413 633.633 36.316C631.727 34.7907 629.855 33.4387 628.017 32.26ZM639.613 11.148H640.653L641.745 11.044L645.437 11.668C645.056 18.428 644.207 24.2693 642.889 29.192C641.607 34.08 639.804 38.2053 637.481 41.568C635.193 44.9307 632.316 47.6867 628.849 49.836C628.468 49.0733 627.913 48.1893 627.185 47.184C626.457 46.2133 625.764 45.4507 625.105 44.896C628.052 43.336 630.548 41.048 632.593 38.032C634.639 35.016 636.233 31.3413 637.377 27.008C638.556 22.6747 639.301 17.7867 639.613 12.344V11.148ZM696.761 23.16C698.98 28.6027 702.429 33.0747 707.109 36.576C711.789 40.0773 717.787 42.4693 725.101 43.752C724.651 44.2027 724.165 44.7573 723.645 45.416C723.125 46.1093 722.64 46.82 722.189 47.548C721.739 48.276 721.375 48.9173 721.097 49.472C716.001 48.328 711.547 46.664 707.733 44.48C703.955 42.296 700.731 39.5573 698.061 36.264C695.392 32.9707 693.156 29.1227 691.353 24.72L696.761 23.16ZM712.725 19.988H713.921L715.065 19.728L719.329 21.548C718.289 25.4653 716.885 28.932 715.117 31.948C713.349 34.964 711.252 37.5987 708.825 39.852C706.399 42.1053 703.712 44.0293 700.765 45.624C697.853 47.2187 694.699 48.536 691.301 49.576C690.955 48.7787 690.435 47.86 689.741 46.82C689.083 45.78 688.424 44.948 687.765 44.324C690.816 43.5267 693.659 42.452 696.293 41.1C698.963 39.748 701.389 38.1013 703.573 36.16C705.757 34.2187 707.629 32 709.189 29.504C710.749 26.9733 711.928 24.1827 712.725 21.132V19.988ZM678.301 8.548H723.697V14.632H678.301V8.548ZM693.069 19.988H713.349V26.02H691.249L693.069 19.988ZM691.301 0.799999H697.801C697.767 1.97866 697.697 3.46933 697.593 5.272C697.489 7.04 697.316 9.05066 697.073 11.304C696.831 13.5573 696.467 15.9493 695.981 18.48C695.531 20.976 694.924 23.5413 694.161 26.176C693.399 28.776 692.445 31.3587 691.301 33.924C690.192 36.4893 688.84 38.9507 687.245 41.308C685.651 43.6653 683.779 45.8147 681.629 47.756C681.005 46.9587 680.225 46.1787 679.289 45.416C678.353 44.6533 677.348 43.96 676.273 43.336C678.388 41.568 680.208 39.6267 681.733 37.512C683.293 35.3627 684.611 33.092 685.685 30.7C686.76 28.308 687.644 25.916 688.337 23.524C689.031 21.0973 689.568 18.7227 689.949 16.4C690.331 14.0773 690.608 11.9107 690.781 9.9C690.955 7.85467 691.076 6.052 691.145 4.492C691.215 2.932 691.267 1.70133 691.301 0.799999ZM737.606 7.18182V45H730.756V7.18182H737.606ZM757.84 45H745.025V7.18182H758.099C761.854 7.18182 765.079 7.93892 767.775 9.45312C770.483 10.955 772.564 13.1155 774.017 15.9347C775.469 18.7538 776.195 22.1269 776.195 26.054C776.195 29.9934 775.463 33.3788 773.998 36.2102C772.545 39.0417 770.446 41.2145 767.701 42.7287C764.968 44.2429 761.681 45 757.84 45ZM751.876 39.0724H757.508C760.142 39.0724 762.34 38.5923 764.1 37.6321C765.861 36.6596 767.184 35.2131 768.07 33.2926C768.957 31.3598 769.4 28.947 769.4 26.054C769.4 23.161 768.957 20.7604 768.07 18.8523C767.184 16.9318 765.873 15.4976 764.137 14.5497C762.414 13.5895 760.272 13.1094 757.711 13.1094H751.876V39.0724Z" fill="white"/>
</svg>
