<svg width="108" height="19" viewBox="0 0 108 19" fill="none" xmlns="http://www.w3.org/2000/svg">
<path d="M30.032 9.576H37.936V10.952H30.032V9.576ZM33.136 8.168H34.784V13.896H33.136V8.168ZM36.272 7.144L37.408 8.216C35.6 8.68 32.992 8.904 30.816 8.952C30.768 8.648 30.592 8.12 30.432 7.816C32.496 7.72 34.928 7.496 36.272 7.144ZM32.992 10.296L34.224 10.776C33.424 12.008 32 13.24 30.672 13.88C30.448 13.512 29.968 12.952 29.632 12.68C30.896 12.2 32.272 11.256 32.992 10.296ZM26.864 2.296H41.088V3.96H26.864V2.296ZM28.656 14.248H39.36V15.896H28.656V14.248ZM30.384 1.416H32.288V4.952H30.384V1.416ZM35.648 1.416H37.552V4.952H35.648V1.416ZM27.728 5.416H40.352V16.44H38.464V7.016H29.536V16.44H27.728V5.416ZM35.04 10.44C35.728 11.304 37.072 12.2 38.224 12.648C37.872 12.936 37.392 13.48 37.152 13.848C35.984 13.24 34.624 12.04 33.856 10.952L35.04 10.44ZM52.384 2.776H54.224V15.448H52.384V2.776ZM48.784 4.216H57.696V5.704H48.784V4.216ZM48.304 14.664H58.032V16.184H48.304V14.664ZM49.2 12.472H57.44V13.928H49.2V12.472ZM56.576 1.544L57.68 2.968C55.36 3.416 52.08 3.608 49.36 3.64C49.328 3.224 49.12 2.584 48.944 2.2C51.584 2.12 54.688 1.912 56.576 1.544ZM50.976 9.608V10.424H55.696V9.608H50.976ZM50.976 7.688V8.488H55.696V7.688H50.976ZM49.312 6.36H57.44V11.752H49.312V6.36ZM45.424 2.904H47.296V16.424H45.424V2.904ZM43.12 5.912H48.992V7.704H43.12V5.912ZM45.536 6.632L46.656 7.128C46.048 9.416 44.912 12.264 43.68 13.848C43.504 13.288 43.088 12.488 42.784 12.008C43.904 10.728 45.024 8.408 45.536 6.632ZM47.92 1.576L49.2 3.064C47.568 3.688 45.344 4.12 43.472 4.36C43.392 3.944 43.152 3.304 42.928 2.904C44.704 2.6 46.688 2.136 47.92 1.576ZM47.248 8.136C47.648 8.472 49.04 9.912 49.344 10.28L48.256 11.784C47.872 11.016 46.912 9.56 46.416 8.888L47.248 8.136ZM64.832 3.224H74.192V4.936H64.832V3.224ZM66.432 13.928H72.56V15.672H66.432V13.928ZM64.384 7.144H74.48V8.856H64.384V7.144ZM68.544 1.48H70.448V3.88H68.544V1.48ZM65.664 10.056H73.536V16.36H71.616V11.768H67.488V16.408H65.664V10.056ZM71.152 4.712L73.12 5.176C72.768 6.008 72.448 6.824 72.176 7.368L70.512 6.936C70.736 6.328 71.024 5.384 71.152 4.712ZM66.192 5.16L67.936 4.792C68.24 5.448 68.496 6.36 68.56 6.952L66.72 7.4C66.688 6.792 66.464 5.864 66.192 5.16ZM59.664 5.208H64.656V7.016H59.664V5.208ZM61.312 1.592H63.136V12.216H61.312V1.592ZM59.312 12.28C60.704 11.848 62.816 11.048 64.8 10.296L65.2 12.056C63.408 12.84 61.472 13.624 59.92 14.232L59.312 12.28ZM77.056 2.808H89.728V4.216H77.056V2.808ZM77.872 4.776H88.976V6.104H77.872V4.776ZM76.288 6.664H90.528V8.072H76.288V6.664ZM80.096 10.696H86.352V11.688H80.096V10.696ZM82.416 3.576H84.4V7.352H82.416V3.576ZM82.48 8.36H84.304V9.8H82.48V8.36ZM79.184 1.896L80.88 1.352C81.264 1.752 81.648 2.328 81.824 2.744L80.048 3.4C79.92 2.984 79.552 2.344 79.184 1.896ZM85.84 1.4L87.952 1.8C87.504 2.392 87.056 2.888 86.72 3.224L85.072 2.792C85.344 2.376 85.664 1.784 85.84 1.4ZM86.544 7.064C87.424 8.312 89.152 9.384 91.008 9.88C90.624 10.248 90.08 10.92 89.808 11.384C87.84 10.696 86.08 9.272 85.04 7.592L86.544 7.064ZM83.984 12.68C85.136 14.072 87.536 14.712 90.704 14.84C90.32 15.224 89.872 15.96 89.648 16.472C86.24 16.12 83.872 15.128 82.48 13L83.984 12.68ZM80.336 9.016H87.824V13.384H80.336V12.216H85.888V10.184H80.336V9.016ZM79.056 9.016H80.96V15.24H79.056V9.016ZM77.36 14.696C79.12 14.6 81.84 14.424 84.416 14.232V15.736C81.984 15.96 79.424 16.184 77.552 16.344L77.36 14.696ZM88.448 12.728L89.856 13.528C88.944 14.184 87.872 14.792 87.024 15.208L85.936 14.52C86.736 14.056 87.824 13.288 88.448 12.728ZM80.112 7.112L81.888 7.624C80.816 9.352 78.944 10.728 77.088 11.56C76.816 11.192 76.176 10.504 75.776 10.168C77.584 9.528 79.264 8.44 80.112 7.112ZM99.488 5.656V6.984H102.112V5.656H99.488ZM97.696 4.408H104.016V8.248H97.696V4.408ZM97.6 10.232V11.992H98.848V10.232H97.6ZM96.048 8.936H100.48V13.272H96.048V8.936ZM102.784 10.232V11.992H104.08V10.232H102.784ZM101.2 8.936H105.744V13.272H101.2V8.936ZM93.216 1.976H106.896V3.656H95.088V16.44H93.216V1.976ZM94.432 14.072H107.328V15.8H94.432V14.072Z" fill="white"/>
<g clip-path="url(#clip0_1024_1627)">
<path d="M1.90764 17.6667C1.17799 17.6667 0.659511 17.3403 0.3522 16.6876C0.0443172 16.0343 0.119285 15.4278 0.577103 14.868L5.34128 9.05555V3.88888H4.48287C4.23965 3.88888 4.03564 3.80621 3.87082 3.64088C3.70658 3.47612 3.62446 3.27175 3.62446 3.02777C3.62446 2.78379 3.70658 2.57913 3.87082 2.4138C4.03564 2.24904 4.23965 2.16666 4.48287 2.16666H11.3501C11.5934 2.16666 11.7971 2.24904 11.9613 2.4138C12.1261 2.57913 12.2086 2.78379 12.2086 3.02777C12.2086 3.27175 12.1261 3.47612 11.9613 3.64088C11.7971 3.80621 11.5934 3.88888 11.3501 3.88888H10.4917V9.05555L15.2559 14.868C15.7137 15.4278 15.7887 16.0343 15.4808 16.6876C15.1735 17.3403 14.655 17.6667 13.9254 17.6667H1.90764Z" fill="white"/>
</g>
<defs>
<clipPath id="clip0_1024_1627">
<rect width="16" height="16" fill="white" transform="translate(0 2)"/>
</clipPath>
</defs>
</svg>
