<svg width="138" height="27" viewBox="0 0 138 27" fill="none" xmlns="http://www.w3.org/2000/svg">
<path d="M6.084 14.48H19.916V16.888H6.084V14.48ZM11.516 12.044H14.372V22.068H11.516V12.044ZM17.004 10.224L18.964 12.1C17.9373 12.38 16.7613 12.6133 15.436 12.8C14.1293 12.968 12.7853 13.0987 11.404 13.192C10.0413 13.2853 8.72533 13.3507 7.456 13.388C7.4 13.1267 7.30667 12.8 7.176 12.408C7.04533 11.9973 6.90533 11.6707 6.756 11.428C7.67067 11.372 8.604 11.316 9.556 11.26C10.508 11.1853 11.4413 11.1013 12.356 11.008C13.2707 10.896 14.12 10.7747 14.904 10.644C15.7067 10.5133 16.4067 10.3733 17.004 10.224ZM11.264 15.768L13.392 16.608C12.944 17.3173 12.3747 18.0173 11.684 18.708C11.012 19.3987 10.284 20.0333 9.5 20.612C8.73467 21.1907 7.96933 21.6573 7.204 22.012C6.99867 21.6947 6.71867 21.3307 6.364 20.92C6.00933 20.5093 5.68267 20.1733 5.384 19.912C6.112 19.632 6.84933 19.2773 7.596 18.848C8.34267 18.4 9.03333 17.9147 9.668 17.392C10.3213 16.8693 10.8533 16.328 11.264 15.768ZM0.54 1.74H25.432V4.68H0.54V1.74ZM3.648 22.684H22.38V25.568H3.648V22.684ZM6.672 0.199999H10.004V6.416H6.672V0.199999ZM15.884 0.199999H19.244V6.416H15.884V0.199999ZM2.024 7.2H24.116V26.492H20.812V10H5.188V26.492H2.024V7.2ZM14.82 16.02C15.2307 16.5053 15.744 17 16.36 17.504C16.976 17.9893 17.6387 18.4373 18.348 18.848C19.0573 19.2587 19.748 19.604 20.42 19.884C20.1213 20.1267 19.7853 20.4533 19.412 20.864C19.0387 21.2747 18.7493 21.648 18.544 21.984C17.8533 21.6107 17.144 21.1533 16.416 20.612C15.7067 20.052 15.0347 19.4547 14.4 18.82C13.7653 18.1667 13.224 17.5227 12.776 16.888L14.82 16.02ZM44.36 2.608H47.58V24.756H44.36V2.608ZM38.032 5.1H53.656V7.704H38.032V5.1ZM37.192 23.412H54.244V26.044H37.192V23.412ZM38.788 19.548H53.18V22.124H38.788V19.548ZM51.668 0.451999L53.6 2.916C52.592 3.12133 51.4907 3.29867 50.296 3.448C49.1013 3.57867 47.8693 3.69067 46.6 3.784C45.3307 3.87733 44.052 3.952 42.764 4.008C41.476 4.04533 40.244 4.07333 39.068 4.092C39.0307 3.73733 38.9373 3.31733 38.788 2.832C38.6387 2.34667 38.4893 1.936 38.34 1.6C39.4973 1.56267 40.6827 1.516 41.896 1.46C43.128 1.38533 44.332 1.30133 45.508 1.208C46.684 1.11467 47.7947 1.00267 48.84 0.871999C49.904 0.741332 50.8467 0.601332 51.668 0.451999ZM41.868 14.564V15.964H50.156V14.564H41.868ZM41.868 11.176V12.576H50.156V11.176H41.868ZM38.956 8.852H53.208V18.288H38.956V8.852ZM32.18 2.832H35.428V26.492H32.18V2.832ZM28.148 8.096H38.424V11.204H28.148V8.096ZM32.348 9.356L34.308 10.196C34.0467 11.204 33.7293 12.2493 33.356 13.332C32.9827 14.4147 32.572 15.488 32.124 16.552C31.676 17.5973 31.2 18.5867 30.696 19.52C30.192 20.4533 29.6693 21.2653 29.128 21.956C28.96 21.4707 28.7173 20.9293 28.4 20.332C28.1013 19.716 27.8213 19.1933 27.56 18.764C28.0453 18.204 28.5213 17.5507 28.988 16.804C29.4733 16.0387 29.9307 15.2267 30.36 14.368C30.7893 13.5093 31.172 12.6507 31.508 11.792C31.844 10.9333 32.124 10.1213 32.348 9.356ZM36.52 0.507999L38.788 3.084C37.836 3.43867 36.7907 3.76533 35.652 4.064C34.5133 4.36267 33.3467 4.624 32.152 4.848C30.976 5.05333 29.8467 5.23067 28.764 5.38C28.6893 5.00667 28.5587 4.57733 28.372 4.092C28.1853 3.588 27.9987 3.15867 27.812 2.804C28.8387 2.636 29.884 2.44 30.948 2.216C32.0307 1.97333 33.048 1.70267 34 1.404C34.9707 1.10533 35.8107 0.806666 36.52 0.507999ZM35.372 11.988C35.54 12.1187 35.792 12.3613 36.128 12.716C36.4827 13.052 36.856 13.4253 37.248 13.836C37.6587 14.2467 38.0227 14.6293 38.34 14.984C38.6573 15.32 38.8907 15.5627 39.04 15.712L37.108 18.372C36.94 18.0173 36.716 17.616 36.436 17.168C36.1747 16.72 35.8853 16.2533 35.568 15.768C35.2693 15.2827 34.9707 14.8253 34.672 14.396C34.3733 13.948 34.112 13.584 33.888 13.304L35.372 11.988ZM65.276 3.392H81.684V6.388H65.276V3.392ZM68.076 22.124H78.828V25.176H68.076V22.124ZM64.52 10.252H82.188V13.248H64.52V10.252ZM71.772 0.339999H75.104V4.512H71.772V0.339999ZM66.76 15.32H80.508V26.352H77.176V18.316H69.924V26.464H66.76V15.32ZM76.364 5.996L79.808 6.78C79.4907 7.508 79.192 8.208 78.912 8.88C78.632 9.552 78.3707 10.1307 78.128 10.616L75.244 9.888C75.3747 9.51467 75.5053 9.104 75.636 8.656C75.7853 8.18933 75.9253 7.732 76.056 7.284C76.1867 6.81733 76.2893 6.388 76.364 5.996ZM67.684 6.78L70.708 6.108C70.988 6.68667 71.2307 7.34 71.436 8.068C71.6413 8.77733 71.7627 9.384 71.8 9.888L68.608 10.672C68.5707 10.1493 68.4587 9.524 68.272 8.796C68.104 8.04933 67.908 7.37733 67.684 6.78ZM56.232 6.864H64.968V10.028H56.232V6.864ZM59.116 0.507999H62.336V19.1H59.116V0.507999ZM55.616 19.212C56.4373 18.9693 57.3707 18.6613 58.416 18.288C59.48 17.896 60.5907 17.4853 61.748 17.056C62.924 16.608 64.0907 16.1693 65.248 15.74L65.92 18.848C64.3707 19.52 62.784 20.192 61.16 20.864C59.536 21.5173 58.052 22.1053 56.708 22.628L55.616 19.212ZM85.856 2.636H108.004V5.128H85.856V2.636ZM87.284 6.108H106.716V8.432H87.284V6.108ZM84.512 9.412H109.432V11.876H84.512V9.412ZM91.176 16.468H102.124V18.176H91.176V16.468ZM95.208 4.008H98.68V10.616H95.208V4.008ZM95.32 12.38H98.54V14.9H95.32V12.38ZM89.58 1.04L92.52 0.0879991C92.8747 0.442666 93.2013 0.853332 93.5 1.32C93.7987 1.768 94.032 2.17867 94.2 2.552L91.092 3.7C90.98 3.32667 90.7747 2.888 90.476 2.384C90.196 1.88 89.8973 1.432 89.58 1.04ZM101.228 0.172L104.924 0.899999C104.532 1.404 104.14 1.87067 103.748 2.3C103.375 2.72933 103.048 3.09333 102.768 3.392L99.856 2.636C100.099 2.26267 100.341 1.84267 100.584 1.376C100.845 0.909332 101.06 0.507999 101.228 0.172ZM102.46 10.112C102.983 10.8213 103.645 11.5027 104.448 12.156C105.251 12.7907 106.147 13.36 107.136 13.864C108.144 14.3493 109.189 14.7413 110.272 15.04C109.936 15.3387 109.553 15.7493 109.124 16.272C108.713 16.7947 108.387 17.2613 108.144 17.672C107.005 17.2613 105.913 16.7293 104.868 16.076C103.823 15.404 102.871 14.6387 102.012 13.78C101.153 12.9213 100.416 11.9973 99.8 11.008L102.46 10.112ZM97.98 19.912C98.652 20.7333 99.548 21.4147 100.668 21.956C101.807 22.4787 103.141 22.8893 104.672 23.188C106.203 23.468 107.883 23.6453 109.712 23.72C109.395 24.056 109.059 24.4947 108.704 25.036C108.349 25.596 108.069 26.1 107.864 26.548C105.885 26.3427 104.103 25.9973 102.516 25.512C100.948 25.0453 99.5573 24.4013 98.344 23.58C97.1493 22.7587 96.1507 21.732 95.348 20.5L97.98 19.912ZM91.596 13.5H104.672V21.172H91.596V19.128H101.284V15.544H91.596V13.5ZM89.328 13.5H92.66V24.392H89.328V13.5ZM86.36 23.44C87.4053 23.384 88.6 23.3187 89.944 23.244C91.288 23.1693 92.716 23.0853 94.228 22.992C95.74 22.88 97.2427 22.768 98.736 22.656V25.26C97.3173 25.4093 95.8893 25.54 94.452 25.652C93.0333 25.7827 91.6613 25.904 90.336 26.016C89.0293 26.128 87.8253 26.2307 86.724 26.324L86.36 23.44ZM105.764 20.024L108.256 21.396C107.453 21.9747 106.604 22.5253 105.708 23.048C104.831 23.5707 104.028 24 103.3 24.336L101.396 23.132C101.863 22.8707 102.357 22.5627 102.88 22.208C103.421 21.8347 103.944 21.4613 104.448 21.088C104.971 20.696 105.409 20.3413 105.764 20.024ZM91.176 10.168L94.312 11.092C93.696 12.0813 92.9307 13.0147 92.016 13.892C91.12 14.7507 90.1493 15.5253 89.104 16.216C88.0587 16.9067 86.9853 17.4947 85.884 17.98C85.7347 17.756 85.52 17.4947 85.24 17.196C84.96 16.8787 84.6707 16.5707 84.372 16.272C84.092 15.9733 83.84 15.7307 83.616 15.544C84.6613 15.152 85.6693 14.6947 86.64 14.172C87.6107 13.6307 88.488 13.024 89.272 12.352C90.056 11.6613 90.6907 10.9333 91.176 10.168ZM124.244 7.648V9.944H128.836V7.648H124.244ZM121.108 5.436H132.168V12.156H121.108V5.436ZM120.968 15.656V18.708H123.124V15.656H120.968ZM118.252 13.388H126.008V20.976H118.252V13.388ZM130.012 15.656V18.708H132.308V15.656H130.012ZM127.268 13.388H135.22V20.976H127.268V13.388ZM113.296 1.18H137.208V4.148H116.572V26.52H113.296V1.18ZM115.396 22.348H137.964V25.4H115.396V22.348Z" fill="#D8A5DF"/>
</svg>
