<svg width="138" height="27" viewBox="0 0 138 27" fill="none" xmlns="http://www.w3.org/2000/svg">
<path d="M6.056 14.508H19.888V16.916H6.056V14.508ZM11.488 12.044H14.372V22.068H11.488V12.044ZM16.976 10.252L18.964 12.128C15.8 12.94 11.236 13.332 7.428 13.416C7.344 12.884 7.036 11.96 6.756 11.428C10.368 11.26 14.624 10.868 16.976 10.252ZM11.236 15.768L13.392 16.608C11.992 18.764 9.5 20.92 7.176 22.04C6.784 21.396 5.944 20.416 5.356 19.94C7.568 19.1 9.976 17.448 11.236 15.768ZM0.512 1.768H25.404V4.68H0.512V1.768ZM3.648 22.684H22.38V25.568H3.648V22.684ZM6.672 0.227999H10.004V6.416H6.672V0.227999ZM15.884 0.227999H19.216V6.416H15.884V0.227999ZM2.024 7.228H24.116V26.52H20.812V10.028H5.188V26.52H2.024V7.228ZM14.82 16.02C16.024 17.532 18.376 19.1 20.392 19.884C19.776 20.388 18.936 21.34 18.516 21.984C16.472 20.92 14.092 18.82 12.748 16.916L14.82 16.02ZM44.332 2.608H47.552V24.784H44.332V2.608ZM38.032 5.128H53.628V7.732H38.032V5.128ZM37.192 23.412H54.216V26.072H37.192V23.412ZM38.76 19.576H53.18V22.124H38.76V19.576ZM51.668 0.451999L53.6 2.944C49.54 3.728 43.8 4.064 39.04 4.12C38.984 3.392 38.62 2.272 38.312 1.6C42.932 1.46 48.364 1.096 51.668 0.451999ZM41.868 14.564V15.992H50.128V14.564H41.868ZM41.868 11.204V12.604H50.128V11.204H41.868ZM38.956 8.88H53.18V18.316H38.956V8.88ZM32.152 2.832H35.428V26.492H32.152V2.832ZM28.12 8.096H38.396V11.232H28.12V8.096ZM32.348 9.356L34.308 10.224C33.244 14.228 31.256 19.212 29.1 21.984C28.792 21.004 28.064 19.604 27.532 18.764C29.492 16.524 31.452 12.464 32.348 9.356ZM36.52 0.507999L38.76 3.112C35.904 4.204 32.012 4.96 28.736 5.38C28.596 4.652 28.176 3.532 27.784 2.832C30.892 2.3 34.364 1.488 36.52 0.507999ZM35.344 11.988C36.044 12.576 38.48 15.096 39.012 15.74L37.108 18.372C36.436 17.028 34.756 14.48 33.888 13.304L35.344 11.988ZM65.276 3.392H81.656V6.388H65.276V3.392ZM68.076 22.124H78.8V25.176H68.076V22.124ZM64.492 10.252H82.16V13.248H64.492V10.252ZM71.772 0.339999H75.104V4.54H71.772V0.339999ZM66.732 15.348H80.508V26.38H77.148V18.344H69.924V26.464H66.732V15.348ZM76.336 5.996L79.78 6.808C79.164 8.264 78.604 9.692 78.128 10.644L75.216 9.888C75.608 8.824 76.112 7.172 76.336 5.996ZM67.656 6.78L70.708 6.136C71.24 7.284 71.688 8.88 71.8 9.916L68.58 10.7C68.524 9.636 68.132 8.012 67.656 6.78ZM56.232 6.864H64.968V10.028H56.232V6.864ZM59.116 0.535998H62.308V19.128H59.116V0.535998ZM55.616 19.24C58.052 18.484 61.748 17.084 65.22 15.768L65.92 18.848C62.784 20.22 59.396 21.592 56.68 22.656L55.616 19.24ZM85.828 2.664H108.004V5.128H85.828V2.664ZM87.256 6.108H106.688V8.432H87.256V6.108ZM84.484 9.412H109.404V11.876H84.484V9.412ZM91.148 16.468H102.096V18.204H91.148V16.468ZM95.208 4.008H98.68V10.616H95.208V4.008ZM95.32 12.38H98.512V14.9H95.32V12.38ZM89.552 1.068L92.52 0.115999C93.192 0.815998 93.864 1.824 94.172 2.552L91.064 3.7C90.84 2.972 90.196 1.852 89.552 1.068ZM101.2 0.199999L104.896 0.899999C104.112 1.936 103.328 2.804 102.74 3.392L99.856 2.636C100.332 1.908 100.892 0.871999 101.2 0.199999ZM102.432 10.112C103.972 12.296 106.996 14.172 110.244 15.04C109.572 15.684 108.62 16.86 108.144 17.672C104.7 16.468 101.62 13.976 99.8 11.036L102.432 10.112ZM97.952 19.94C99.968 22.376 104.168 23.496 109.712 23.72C109.04 24.392 108.256 25.68 107.864 26.576C101.9 25.96 97.756 24.224 95.32 20.5L97.952 19.94ZM91.568 13.528H104.672V21.172H91.568V19.128H101.284V15.572H91.568V13.528ZM89.328 13.528H92.66V24.42H89.328V13.528ZM86.36 23.468C89.44 23.3 94.2 22.992 98.708 22.656V25.288C94.452 25.68 89.972 26.072 86.696 26.352L86.36 23.468ZM105.764 20.024L108.228 21.424C106.632 22.572 104.756 23.636 103.272 24.364L101.368 23.16C102.768 22.348 104.672 21.004 105.764 20.024ZM91.176 10.196L94.284 11.092C92.408 14.116 89.132 16.524 85.884 17.98C85.408 17.336 84.288 16.132 83.588 15.544C86.752 14.424 89.692 12.52 91.176 10.196ZM124.244 7.648V9.972H128.836V7.648H124.244ZM121.108 5.464H132.168V12.184H121.108V5.464ZM120.94 15.656V18.736H123.124V15.656H120.94ZM118.224 13.388H125.98V20.976H118.224V13.388ZM130.012 15.656V18.736H132.28V15.656H130.012ZM127.24 13.388H135.192V20.976H127.24V13.388ZM113.268 1.208H137.208V4.148H116.544V26.52H113.268V1.208ZM115.396 22.376H137.964V25.4H115.396V22.376Z" fill="white"/>
</svg>
