<svg width="162" height="49" viewBox="0 0 162 49" fill="none" xmlns="http://www.w3.org/2000/svg">
<path d="M18.056 17.508H31.888V19.916H18.056V17.508ZM23.488 15.044H26.372V25.068H23.488V15.044ZM28.976 13.252L30.964 15.128C27.8 15.94 23.236 16.332 19.428 16.416C19.344 15.884 19.036 14.96 18.756 14.428C22.368 14.26 26.624 13.868 28.976 13.252ZM23.236 18.768L25.392 19.608C23.992 21.764 21.5 23.92 19.176 25.04C18.784 24.396 17.944 23.416 17.356 22.94C19.568 22.1 21.976 20.448 23.236 18.768ZM12.512 4.768H37.404V7.68H12.512V4.768ZM15.648 25.684H34.38V28.568H15.648V25.684ZM18.672 3.228H22.004V9.416H18.672V3.228ZM27.884 3.228H31.216V9.416H27.884V3.228ZM14.024 10.228H36.116V29.52H32.812V13.028H17.188V29.52H14.024V10.228ZM26.82 19.02C28.024 20.532 30.376 22.1 32.392 22.884C31.776 23.388 30.936 24.34 30.516 24.984C28.472 23.92 26.092 21.82 24.748 19.916L26.82 19.02ZM56.332 5.608H59.552V27.784H56.332V5.608ZM50.032 8.128H65.628V10.732H50.032V8.128ZM49.192 26.412H66.216V29.072H49.192V26.412ZM50.76 22.576H65.18V25.124H50.76V22.576ZM63.668 3.452L65.6 5.944C61.54 6.728 55.8 7.064 51.04 7.12C50.984 6.392 50.62 5.272 50.312 4.6C54.932 4.46 60.364 4.096 63.668 3.452ZM53.868 17.564V18.992H62.128V17.564H53.868ZM53.868 14.204V15.604H62.128V14.204H53.868ZM50.956 11.88H65.18V21.316H50.956V11.88ZM44.152 5.832H47.428V29.492H44.152V5.832ZM40.12 11.096H50.396V14.232H40.12V11.096ZM44.348 12.356L46.308 13.224C45.244 17.228 43.256 22.212 41.1 24.984C40.792 24.004 40.064 22.604 39.532 21.764C41.492 19.524 43.452 15.464 44.348 12.356ZM48.52 3.508L50.76 6.112C47.904 7.204 44.012 7.96 40.736 8.38C40.596 7.652 40.176 6.532 39.784 5.832C42.892 5.3 46.364 4.488 48.52 3.508ZM47.344 14.988C48.044 15.576 50.48 18.096 51.012 18.74L49.108 21.372C48.436 20.028 46.756 17.48 45.888 16.304L47.344 14.988ZM77.276 6.392H93.656V9.388H77.276V6.392ZM80.076 25.124H90.8V28.176H80.076V25.124ZM76.492 13.252H94.16V16.248H76.492V13.252ZM83.772 3.34H87.104V7.54H83.772V3.34ZM78.732 18.348H92.508V29.38H89.148V21.344H81.924V29.464H78.732V18.348ZM88.336 8.996L91.78 9.808C91.164 11.264 90.604 12.692 90.128 13.644L87.216 12.888C87.608 11.824 88.112 10.172 88.336 8.996ZM79.656 9.78L82.708 9.136C83.24 10.284 83.688 11.88 83.8 12.916L80.58 13.7C80.524 12.636 80.132 11.012 79.656 9.78ZM68.232 9.864H76.968V13.028H68.232V9.864ZM71.116 3.536H74.308V22.128H71.116V3.536ZM67.616 22.24C70.052 21.484 73.748 20.084 77.22 18.768L77.92 21.848C74.784 23.22 71.396 24.592 68.68 25.656L67.616 22.24ZM97.828 5.664H120.004V8.128H97.828V5.664ZM99.256 9.108H118.688V11.432H99.256V9.108ZM96.484 12.412H121.404V14.876H96.484V12.412ZM103.148 19.468H114.096V21.204H103.148V19.468ZM107.208 7.008H110.68V13.616H107.208V7.008ZM107.32 15.38H110.512V17.9H107.32V15.38ZM101.552 4.068L104.52 3.116C105.192 3.816 105.864 4.824 106.172 5.552L103.064 6.7C102.84 5.972 102.196 4.852 101.552 4.068ZM113.2 3.2L116.896 3.9C116.112 4.936 115.328 5.804 114.74 6.392L111.856 5.636C112.332 4.908 112.892 3.872 113.2 3.2ZM114.432 13.112C115.972 15.296 118.996 17.172 122.244 18.04C121.572 18.684 120.62 19.86 120.144 20.672C116.7 19.468 113.62 16.976 111.8 14.036L114.432 13.112ZM109.952 22.94C111.968 25.376 116.168 26.496 121.712 26.72C121.04 27.392 120.256 28.68 119.864 29.576C113.9 28.96 109.756 27.224 107.32 23.5L109.952 22.94ZM103.568 16.528H116.672V24.172H103.568V22.128H113.284V18.572H103.568V16.528ZM101.328 16.528H104.66V27.42H101.328V16.528ZM98.36 26.468C101.44 26.3 106.2 25.992 110.708 25.656V28.288C106.452 28.68 101.972 29.072 98.696 29.352L98.36 26.468ZM117.764 23.024L120.228 24.424C118.632 25.572 116.756 26.636 115.272 27.364L113.368 26.16C114.768 25.348 116.672 24.004 117.764 23.024ZM103.176 13.196L106.284 14.092C104.408 17.116 101.132 19.524 97.884 20.98C97.408 20.336 96.288 19.132 95.588 18.544C98.752 17.424 101.692 15.52 103.176 13.196ZM136.244 10.648V12.972H140.836V10.648H136.244ZM133.108 8.464H144.168V15.184H133.108V8.464ZM132.94 18.656V21.736H135.124V18.656H132.94ZM130.224 16.388H137.98V23.976H130.224V16.388ZM142.012 18.656V21.736H144.28V18.656H142.012ZM139.24 16.388H147.192V23.976H139.24V16.388ZM125.268 4.208H149.208V7.148H128.544V29.52H125.268V4.208ZM127.396 25.376H149.964V28.4H127.396V25.376Z" fill="white"/>
<g filter="url(#filter0_d_842_653)">
<line x1="6" y1="38" x2="156" y2="38" stroke="white" stroke-width="2"/>
</g>
<defs>
<filter id="filter0_d_842_653" x="0" y="35" width="162" height="14" filterUnits="userSpaceOnUse" color-interpolation-filters="sRGB">
<feFlood flood-opacity="0" result="BackgroundImageFix"/>
<feColorMatrix in="SourceAlpha" type="matrix" values="0 0 0 0 0 0 0 0 0 0 0 0 0 0 0 0 0 0 127 0" result="hardAlpha"/>
<feOffset dy="4"/>
<feGaussianBlur stdDeviation="3"/>
<feComposite in2="hardAlpha" operator="out"/>
<feColorMatrix type="matrix" values="0 0 0 0 1 0 0 0 0 1 0 0 0 0 1 0 0 0 1 0"/>
<feBlend mode="normal" in2="BackgroundImageFix" result="effect1_dropShadow_842_653"/>
<feBlend mode="normal" in="SourceGraphic" in2="effect1_dropShadow_842_653" result="shape"/>
</filter>
</defs>
</svg>
