<svg width="180" height="26" viewBox="0 0 180 26" fill="none" xmlns="http://www.w3.org/2000/svg">
<path d="M2.6 7.06H5.08V16.42C5.08 17.66 5.42 17.86 7.64 17.86C8.68 17.86 13.06 17.86 14.24 17.86C16.3 17.86 16.62 17.34 16.9 14.4C17.52 14.8 18.64 15.22 19.34 15.34C18.88 19.14 18 20.24 14.34 20.24C13.36 20.24 8.56 20.24 7.66 20.24C3.78 20.24 2.6 19.48 2.6 16.42V7.06ZM4.04 9.78H15.1V12.16H4.04V9.78ZM1.8 3.14H16.7V13.08H14.2V5.52H1.8V3.14ZM21.08 4.44H38.92V6.68H21.08V4.44ZM26.48 11.64H35.18V13.64H26.48V11.64ZM24.7 8.26H34.82V10.36H27.08V20.78H24.7V8.26ZM34.34 8.26H36.68V18.2C36.68 19.38 36.46 20.04 35.64 20.42C34.84 20.78 33.7 20.8 32.08 20.8C31.98 20.14 31.66 19.12 31.34 18.5C32.38 18.56 33.56 18.54 33.9 18.54C34.22 18.54 34.34 18.44 34.34 18.16V8.26ZM27.28 2L29.76 2.56C28.36 7.08 25.96 11.68 22.06 14.4C21.72 13.86 20.96 13 20.48 12.54C24.04 10.2 26.28 5.9 27.28 2ZM26.48 14.94H35.18V16.94H26.48V14.94ZM43.58 2.02H45.6V20.8H43.58V2.02ZM40.98 5.7H47.36V7.82H42.72V16.64H40.98V5.7ZM46.5 5.7H48.22V14.28C48.22 15 48.14 15.64 47.72 16C47.28 16.36 46.82 16.42 46.14 16.42C46.12 15.84 45.86 14.94 45.6 14.4C45.94 14.42 46.22 14.42 46.36 14.42C46.46 14.4 46.5 14.36 46.5 14.2V5.7ZM50.44 2.76H58.48V4.68H50.44V2.76ZM50.46 5.58H57.86V7.36H50.46V5.58ZM50.46 8.28H57.86V10.04H50.46V8.28ZM48.42 10.98H59.2V12.96H48.42V10.98ZM47.76 18.5C49.52 18.28 52.14 17.88 54.66 17.48L54.82 19.46C52.52 19.88 50.1 20.28 48.24 20.62L47.76 18.5ZM54.68 11.66C55.34 14.98 56.78 17.62 59.68 18.74C59.16 19.2 58.46 20.18 58.14 20.82C54.94 19.28 53.52 16.16 52.74 11.94L54.68 11.66ZM57.86 13.1L59.42 14.54C58.38 15.46 57 16.44 56 17.06L54.68 15.72C55.64 15.08 57.06 13.96 57.86 13.1ZM49.56 2.76H51.78V11.96H49.56V2.76ZM49.52 12H51.74V18.74L49.52 19.02V12ZM63.56 4.6V6.74H65.42V4.6H63.56ZM61.46 2.68H67.64V8.68H61.46V2.68ZM60.6 9.6H68.34V11.66H60.6V9.6ZM62.28 10.58H64.46C64.12 12.34 63.66 14.5 63.3 15.9L61.16 15.54C61.56 14.2 62 12.18 62.28 10.58ZM62.9 12.88H66.26V14.86H62.44L62.9 12.88ZM65.4 12.88H67.56C67.56 12.88 67.54 13.44 67.52 13.74C67.26 17.7 67 19.4 66.44 20.04C66.02 20.52 65.58 20.68 64.96 20.76C64.44 20.82 63.56 20.82 62.64 20.8C62.6 20.18 62.36 19.3 61.98 18.74C62.82 18.82 63.6 18.82 63.96 18.82C64.26 18.82 64.46 18.78 64.64 18.6C65 18.24 65.22 16.8 65.4 13.2V12.88ZM73.64 3.1H78.72V5H73.64V3.1ZM69.76 5.88H78.06V7.76H69.76V5.88ZM72.56 2.02H74.86V6.74H72.56V2.02ZM68.78 5.88H70.92V11.08C70.92 14 70.6 18.2 68.74 20.86C68.36 20.48 67.44 19.8 66.94 19.58C68.62 17.12 68.78 13.64 68.78 11.08V5.88ZM71.08 9.12L76.54 8.64L76.74 10.2L71.28 10.72L71.08 9.12ZM72.7 7.6H74.8V10.66C74.8 11.14 74.86 11.18 75.34 11.18C75.54 11.18 76.44 11.18 76.7 11.18C77.08 11.18 77.16 11.04 77.22 10.2C77.64 10.48 78.44 10.74 78.98 10.86C78.78 12.4 78.26 12.84 76.94 12.84C76.56 12.84 75.38 12.84 75 12.84C73.12 12.84 72.7 12.34 72.7 10.66V7.6ZM77.44 5.88H77.74L78.08 5.8L79.58 6.12C79.38 7.48 79.08 9.04 78.84 10.04L77.04 9.62C77.18 8.72 77.36 7.28 77.44 6.16V5.88ZM71.78 13.5H73.78C73.66 16.9 73.2 19.42 70.74 20.92C70.48 20.38 69.88 19.56 69.4 19.18C71.4 18.04 71.68 16.18 71.78 13.5ZM74.76 13.5H76.8V18.02C76.8 18.12 76.82 18.26 76.86 18.3C76.92 18.38 77.04 18.42 77.16 18.42C77.24 18.42 77.42 18.42 77.54 18.42C77.64 18.42 77.78 18.38 77.84 18.32C77.92 18.26 77.98 18.12 78.02 17.94C78.06 17.64 78.08 16.92 78.08 16.1C78.46 16.44 79.2 16.84 79.74 17.02C79.72 17.98 79.6 18.94 79.48 19.34C79.34 19.78 79.12 20.04 78.78 20.28C78.52 20.44 78.08 20.54 77.68 20.54C77.36 20.54 76.84 20.54 76.56 20.54C76.04 20.54 75.52 20.42 75.2 20.08C74.84 19.72 74.76 19.38 74.76 18.22V13.5ZM88.46 13.86C88.04 10.72 92.3 10.02 92.3 8.08C92.3 6.86 91.34 6.18 89.76 6.18C88.54 6.18 87.54 6.74 86.56 7.76L84.92 6.26C86.2 4.78 87.96 3.8 90.1 3.8C93 3.8 95.12 5.16 95.12 7.82C95.12 10.74 90.74 11.1 91.06 13.86H88.46ZM89.78 19.2C88.74 19.2 88 18.46 88 17.42C88 16.38 88.76 15.66 89.78 15.66C90.78 15.66 91.54 16.38 91.54 17.42C91.54 18.46 90.78 19.2 89.78 19.2ZM111.98 2.02H114.4V5.56H111.98V2.02ZM107.68 4.6H119.2V8.86H116.86V6.7H109.92V8.86H107.68V4.6ZM111.42 7.12L113.8 7.48C112.84 10.54 111.48 14.3 110.48 16.76L108.32 16.06C109.3 13.76 110.6 10 111.42 7.12ZM107.54 9.96H119.42V12.12H107.54V9.96ZM115.22 11.34L117.78 11.42C116.78 17.32 113.88 19.66 107.92 20.82C107.76 20.26 107.18 19.26 106.78 18.76C112.12 18 114.7 16.12 115.22 11.34ZM109.58 15.82L110.96 14.08C113.88 15.14 117.62 17.08 119.44 18.74L117.92 20.74C116.22 19.08 112.58 17 109.58 15.82ZM100.4 12.26C102.18 11.88 104.82 11.22 107.32 10.6L107.6 12.76C105.32 13.4 102.9 14.06 101 14.56L100.4 12.26ZM100.7 5.8H107.36V8.02H100.7V5.8ZM103.12 2.02H105.44V18.3C105.44 19.42 105.22 20.02 104.56 20.38C103.9 20.74 102.94 20.8 101.54 20.8C101.48 20.2 101.18 19.24 100.88 18.64C101.66 18.66 102.48 18.66 102.74 18.66C103.02 18.66 103.12 18.56 103.12 18.28V2.02ZM126.86 7.96H130.72V10.26H126.86V7.96ZM125.94 2.02H128.42V17.96L125.94 18.24V2.02ZM122.14 6.18H124.48V18.48L122.14 18.8V6.18ZM120.66 18.16C123.22 17.8 127.08 17.14 130.6 16.52L130.78 18.88C127.38 19.54 123.7 20.18 121.06 20.7L120.66 18.16ZM137.2 6.34L139.12 8.32C137.34 9.56 135.08 10.72 133.1 11.62C132.94 11.08 132.52 10.24 132.2 9.74C134.02 8.82 135.96 7.46 137.2 6.34ZM131.44 2.02H133.94V16.78C133.94 17.88 134.02 18.04 134.66 18.04C134.96 18.04 136.18 18.04 136.48 18.04C137.14 18.04 137.24 17.36 137.34 14.74C137.94 15.18 138.92 15.62 139.6 15.78C139.36 19.1 138.74 20.38 136.72 20.38C136.26 20.38 134.7 20.38 134.26 20.38C132.06 20.38 131.44 19.56 131.44 16.74V2.02ZM146.32 7.36H153.72V9.36H146.32V7.36ZM141.4 18.44H158.68V20.4H141.4V18.44ZM142.56 2.76H148.16V4.7H142.56V2.76ZM147.4 2.76H147.8L148.22 2.66L149.78 3.44C148.3 7.36 145.14 10.22 141.78 11.84C141.46 11.34 140.82 10.52 140.34 10.1C143.32 8.84 146.3 6.12 147.4 3.16V2.76ZM151.96 2.08C153.34 5.34 156.14 8.24 159.62 9.56C159.06 10.04 158.36 10.94 158 11.56C154.32 9.88 151.58 6.68 149.92 2.72L151.96 2.08ZM141.6 6.36L142.88 5.04C143.78 5.54 144.88 6.32 145.4 6.92L144.06 8.38C143.54 7.78 142.46 6.92 141.6 6.36ZM155.04 2.2L156.84 3.48C155.74 4.42 154.44 5.4 153.44 6.04L152 4.92C152.96 4.24 154.28 3.08 155.04 2.2ZM157.3 4.54L159.06 5.78C157.92 6.78 156.54 7.82 155.48 8.48L154.04 7.36C155.08 6.64 156.48 5.46 157.3 4.54ZM146.5 12.42V14.18H153.34V12.42H146.5ZM144.16 10.5H155.82V16.08H144.16V10.5ZM145.32 16.34L147.52 15.78C148.04 16.5 148.48 17.52 148.66 18.2L146.36 18.86C146.22 18.18 145.78 17.12 145.32 16.34ZM152.46 15.76L154.78 16.26C154.28 17.24 153.82 18.14 153.42 18.78L151.32 18.3C151.72 17.6 152.22 16.52 152.46 15.76ZM164.58 3.14H170.24V5.58H164.58V3.14ZM169.06 3.14H171.54C171.54 6.94 172.08 14.3 179.5 18.64C178.94 19.08 177.98 20.14 177.56 20.74C169.94 16.16 169.06 7.22 169.06 3.14ZM168.2 7.52L170.96 8.02C169.56 13.96 166.9 18.26 162.72 20.78C162.28 20.26 161.16 19.26 160.54 18.82C164.72 16.7 167.12 12.82 168.2 7.52Z" fill="#F5F5F5"/>
<line x1="100" y1="25.5" x2="180" y2="25.5" stroke="#F5F5F5"/>
</svg>
