<svg width="188" height="26" viewBox="0 0 188 26" fill="none" xmlns="http://www.w3.org/2000/svg">
<path d="M2.78 7.66L5.82 7.92C5.79333 8.05333 5.73333 8.16667 5.64 8.26C5.56 8.34 5.4 8.4 5.16 8.44V17.32H2.78V7.66ZM14.1 4.76H13.88L15.02 3.48L17.42 5.32C17.3533 5.41333 17.24 5.50667 17.08 5.6C16.9333 5.68 16.7467 5.74667 16.52 5.8V12.36C16.52 12.4133 16.4067 12.4933 16.18 12.6C15.9533 12.7067 15.68 12.8067 15.36 12.9C15.0533 12.9933 14.76 13.04 14.48 13.04H14.1V4.76ZM2.78 16.86H5.16V17.74C5.16 18.1667 5.33333 18.46 5.68 18.62C6.04 18.78 6.62 18.86 7.42 18.86H13.78C14.46 18.86 14.98 18.82 15.34 18.74C15.7 18.66 15.98 18.4867 16.18 18.22C16.3133 18.0333 16.46 17.7667 16.62 17.42C16.78 17.06 16.94 16.66 17.1 16.22C17.26 15.78 17.4067 15.3533 17.54 14.94H17.74L17.76 18.32C18.28 18.48 18.64 18.6267 18.84 18.76C19.04 18.88 19.14 19.0533 19.14 19.28C19.14 19.56 19.0667 19.8067 18.92 20.02C18.7733 20.2467 18.5067 20.44 18.12 20.6C17.7467 20.7733 17.22 20.9 16.54 20.98C15.86 21.0733 14.9867 21.12 13.92 21.12H7.48C5.90667 21.12 4.72667 20.8733 3.94 20.38C3.16667 19.8867 2.78 18.9933 2.78 17.7V16.86ZM1.72 4.76H14.8V5.32H1.9L1.72 4.76ZM4.02 10.84H14.82V11.4H4.02V10.84ZM21.84 6.34H36.36L37.74 4.62C37.74 4.62 37.82 4.68667 37.98 4.82C38.1533 4.94 38.3733 5.1 38.64 5.3C38.9067 5.5 39.1867 5.71333 39.48 5.94C39.7733 6.16667 40.0333 6.38667 40.26 6.6C40.2467 6.70667 40.1867 6.78667 40.08 6.84C39.9733 6.89333 39.8467 6.92 39.7 6.92H22.02L21.84 6.34ZM28.78 2.96L32.02 3.94C31.98 4.06 31.9067 4.15333 31.8 4.22C31.6933 4.28667 31.5067 4.32 31.24 4.32C30.8667 5.26667 30.3867 6.23333 29.8 7.22C29.2267 8.20667 28.5467 9.16667 27.76 10.1C26.9867 11.0333 26.1 11.9067 25.1 12.72C24.1 13.5333 22.9733 14.2333 21.72 14.82L21.54 14.6C22.5 13.8667 23.3667 13.0333 24.14 12.1C24.9267 11.1533 25.62 10.16 26.22 9.12C26.8333 8.08 27.3533 7.03333 27.78 5.98C28.2067 4.92667 28.54 3.92 28.78 2.96ZM28.4 9.78V21.04C28.4 21.0933 28.32 21.1733 28.16 21.28C28.0133 21.4 27.7933 21.5067 27.5 21.6C27.22 21.6933 26.8867 21.74 26.5 21.74H26.06V10.34L26.84 9.08L28.68 9.78H28.4ZM27.28 12.88H36.4V13.44H27.28V12.88ZM27.28 9.78H36.4V10.34H27.28V9.78ZM27.28 16H36.4V16.58H27.28V16ZM34.92 9.78H34.7L35.8 8.48L38.2 10.32C38.1333 10.4133 38.02 10.5067 37.86 10.6C37.7133 10.68 37.5267 10.74 37.3 10.78V18.98C37.3 19.5 37.2333 19.9533 37.1 20.34C36.9667 20.7267 36.68 21.0333 36.24 21.26C35.8 21.5 35.12 21.66 34.2 21.74C34.16 21.3533 34.1067 21.0133 34.04 20.72C33.9867 20.44 33.88 20.2133 33.72 20.04C33.5467 19.8533 33.3267 19.6933 33.06 19.56C32.8067 19.4267 32.42 19.32 31.9 19.24V18.96C31.9 18.96 32.0067 18.9667 32.22 18.98C32.4467 18.9933 32.7133 19.0133 33.02 19.04C33.3267 19.0533 33.62 19.0667 33.9 19.08C34.18 19.0933 34.38 19.1 34.5 19.1C34.66 19.1 34.7667 19.0667 34.82 19C34.8867 18.9333 34.92 18.8267 34.92 18.68V9.78ZM52.4 4.44H57.52L58.7 2.98C58.7 2.98 58.82 3.07333 59.06 3.26C59.3133 3.44667 59.6067 3.67333 59.94 3.94C60.2733 4.19333 60.58 4.44667 60.86 4.7C60.8067 4.9 60.6267 5 60.32 5H52.4V4.44ZM52.68 7.04H57.16L58.18 5.74C58.18 5.74 58.2867 5.82667 58.5 6C58.7267 6.16 58.9867 6.36 59.28 6.6C59.5733 6.84 59.84 7.07333 60.08 7.3C60.0267 7.51333 59.8467 7.62 59.54 7.62H52.68V7.04ZM52.7 9.66H57.32L58.32 8.34C58.32 8.34 58.4267 8.42667 58.64 8.6C58.8533 8.76 59.1067 8.96 59.4 9.2C59.6933 9.44 59.96 9.67333 60.2 9.9C60.16 10.1133 59.98 10.22 59.66 10.22H52.7V9.66ZM49.96 12.44H58.18L59.34 10.98C59.34 10.98 59.46 11.0733 59.7 11.26C59.94 11.4467 60.22 11.6733 60.54 11.94C60.8733 12.1933 61.1667 12.44 61.42 12.68C61.3667 12.8933 61.1867 13 60.88 13H50.12L49.96 12.44ZM51.5 4.44V3.48L54.02 4.44H53.78V18.98C53.78 19.0467 53.7067 19.1467 53.56 19.28C53.4133 19.4133 53.2 19.54 52.92 19.66C52.64 19.78 52.3067 19.84 51.92 19.84H51.5V4.44ZM55.46 12.7C55.74 13.7933 56.1733 14.7867 56.76 15.68C57.3467 16.56 58.0533 17.3 58.88 17.9C59.7067 18.5 60.6267 18.94 61.64 19.22L61.62 19.44C61.1933 19.5733 60.82 19.8267 60.5 20.2C60.1933 20.5867 59.98 21.08 59.86 21.68C58.9133 21.12 58.1267 20.44 57.5 19.64C56.8867 18.84 56.4 17.8733 56.04 16.74C55.68 15.6067 55.4 14.2867 55.2 12.78L55.46 12.7ZM49.4 19.14C49.84 19.0867 50.4467 19.0067 51.22 18.9C51.9933 18.7933 52.8733 18.66 53.86 18.5C54.8467 18.3267 55.86 18.1467 56.9 17.96L56.94 18.2C56.34 18.5733 55.58 19.0067 54.66 19.5C53.7533 19.9933 52.6333 20.5733 51.3 21.24C51.2067 21.5067 51.0333 21.6733 50.78 21.74L49.4 19.14ZM58.92 13.44L61.32 14.94C61.24 15.0867 61.0333 15.1133 60.7 15.02C60.4067 15.18 60.0333 15.3667 59.58 15.58C59.14 15.7933 58.68 16 58.2 16.2C57.7333 16.4 57.3 16.5867 56.9 16.76L56.7 16.5C56.9533 16.2067 57.22 15.88 57.5 15.52C57.78 15.1467 58.04 14.7733 58.28 14.4C58.5333 14.0267 58.7467 13.7067 58.92 13.44ZM43.14 6.6V5.78L45.04 6.6H49.74V7.18H44.94V17.22C44.94 17.2733 44.8667 17.3533 44.72 17.46C44.5733 17.5667 44.3867 17.66 44.16 17.74C43.9333 17.8067 43.6867 17.84 43.42 17.84H43.14V6.6ZM48.34 6.6H48.14L48.98 5.6L50.96 7.1C50.8933 7.18 50.7867 7.26 50.64 7.34C50.4933 7.40667 50.3133 7.46 50.1 7.5V15.3C50.1 15.74 50.06 16.12 49.98 16.44C49.9 16.7467 49.7267 16.9867 49.46 17.16C49.1933 17.3333 48.7733 17.4533 48.2 17.52C48.2 17.2267 48.1867 16.9667 48.16 16.74C48.1333 16.5133 48.0867 16.3333 48.02 16.2C47.9667 16.0667 47.8867 15.9533 47.78 15.86C47.6733 15.7667 47.5133 15.7 47.3 15.66V15.34C47.3 15.34 47.3533 15.3467 47.46 15.36C47.5667 15.36 47.68 15.3667 47.8 15.38C47.9333 15.3933 48.0333 15.4 48.1 15.4C48.26 15.4 48.34 15.2933 48.34 15.08V6.6ZM45.5 6.82V3.12L48.42 3.4C48.4067 3.53333 48.3533 3.64667 48.26 3.74C48.1667 3.83333 47.9867 3.9 47.72 3.94V6.82H47.42V6.86H47.52V21.16C47.52 21.2 47.44 21.2667 47.28 21.36C47.1333 21.4533 46.9467 21.54 46.72 21.62C46.5067 21.7 46.2667 21.74 46 21.74H45.68V6.86H45.78V6.82H45.5ZM65.24 8.62H69.82V9.18H65.24V8.62ZM64.5 4.36V3.54L66.54 4.36H69.9V4.94H66.46V9.86C66.46 9.91333 66.3733 9.99333 66.2 10.1C66.04 10.1933 65.8333 10.28 65.58 10.36C65.3267 10.4267 65.06 10.46 64.78 10.46H64.5V4.36ZM68.42 4.36H68.22L69.18 3.32L71.24 4.86C71.1867 4.94 71.0867 5.02 70.94 5.1C70.7933 5.18 70.62 5.24 70.42 5.28V9.56C70.42 9.6 70.32 9.66667 70.12 9.76C69.9333 9.84 69.7133 9.91333 69.46 9.98C69.2067 10.0467 68.9733 10.08 68.76 10.08H68.42V4.36ZM63.62 11.3H68.56L69.6 9.86C69.6 9.86 69.7067 9.95333 69.92 10.14C70.1467 10.3267 70.4067 10.5533 70.7 10.82C70.9933 11.0733 71.26 11.3133 71.5 11.54C71.46 11.7533 71.28 11.86 70.96 11.86H63.78L63.62 11.3ZM65.76 14.04H69.78V14.62H65.54L65.76 14.04ZM65.2 11.3H67.32C67.2533 11.6867 67.16 12.1533 67.04 12.7C66.9333 13.2333 66.8133 13.7733 66.68 14.32C66.56 14.8533 66.4467 15.3067 66.34 15.68C66.1267 15.8267 65.82 15.9133 65.42 15.94C65.0333 15.9533 64.62 15.9 64.18 15.78C64.2733 15.5133 64.3733 15.18 64.48 14.78C64.5867 14.38 64.6867 13.9667 64.78 13.54C64.8867 13.1 64.9733 12.68 65.04 12.28C65.12 11.88 65.1733 11.5533 65.2 11.3ZM68.34 14.04H68.14L69.18 13.02L71.08 14.58C70.9467 14.7533 70.6867 14.8667 70.3 14.92C70.2333 16.1867 70.1333 17.24 70 18.08C69.8667 18.9067 69.7 19.56 69.5 20.04C69.3 20.5333 69.0467 20.9 68.74 21.14C68.46 21.34 68.1333 21.4933 67.76 21.6C67.4 21.7067 66.9933 21.76 66.54 21.76C66.54 21.48 66.52 21.22 66.48 20.98C66.44 20.74 66.36 20.5533 66.24 20.42C66.1067 20.2733 65.92 20.1467 65.68 20.04C65.4533 19.9333 65.18 19.8467 64.86 19.78L64.88 19.5C65.0667 19.5133 65.28 19.5267 65.52 19.54C65.7733 19.5533 66.0133 19.5667 66.24 19.58C66.4667 19.5933 66.64 19.6 66.76 19.6C67.04 19.6 67.24 19.5467 67.36 19.44C67.6 19.24 67.8 18.7 67.96 17.82C68.12 16.94 68.2467 15.68 68.34 14.04ZM75.54 3.02L78.32 3.26C78.3067 3.39333 78.2533 3.50667 78.16 3.6C78.0667 3.68 77.9 3.74 77.66 3.78V7.5H75.54V3.02ZM72.36 7.34H81.16V7.92H72.36V7.34ZM76.42 5.36H78.96L80.06 3.9C80.06 3.9 80.1733 3.99333 80.4 4.18C80.6267 4.36667 80.8933 4.59333 81.2 4.86C81.52 5.11333 81.8 5.36 82.04 5.6C81.9867 5.81333 81.8067 5.92 81.5 5.92H76.42V5.36ZM71.78 7.34V7.14V6.46L74.2 7.34H73.86V12C73.86 12.7733 73.82 13.5933 73.74 14.46C73.6733 15.3133 73.5133 16.18 73.26 17.06C73.02 17.9267 72.64 18.7667 72.12 19.58C71.6 20.38 70.8867 21.1067 69.98 21.76L69.76 21.58C70.3867 20.6467 70.84 19.6467 71.12 18.58C71.4 17.5 71.58 16.4 71.66 15.28C71.74 14.16 71.78 13.0667 71.78 12V7.34ZM79.92 7.34H79.7L80.7 6.34L82.5 8.04C82.42 8.12 82.32 8.17333 82.2 8.2C82.0933 8.22667 81.94 8.25333 81.74 8.28C81.4867 8.46667 81.1667 8.68667 80.78 8.94C80.4067 9.18 80.0667 9.38 79.76 9.54L79.52 9.42C79.5867 9.14 79.66 8.79333 79.74 8.38C79.8333 7.95333 79.8933 7.60667 79.92 7.34ZM75.5 8.22L77.96 8.44C77.9333 8.70667 77.74 8.86667 77.38 8.92V11.7C77.38 11.82 77.4067 11.9 77.46 11.94C77.5267 11.98 77.66 12 77.86 12H78.96C79.16 12 79.3467 12 79.52 12C79.7067 12 79.84 11.9933 79.92 11.98C80.0133 11.98 80.0933 11.9733 80.16 11.96C80.2267 11.9467 80.2867 11.9133 80.34 11.86C80.4067 11.78 80.4933 11.6333 80.6 11.42C80.7067 11.2067 80.82 10.9667 80.94 10.7H81.14L81.22 11.86C81.46 11.9667 81.62 12.0733 81.7 12.18C81.7933 12.2867 81.84 12.42 81.84 12.58C81.84 12.8333 81.7467 13.0333 81.56 13.18C81.3733 13.3267 81.0533 13.4333 80.6 13.5C80.16 13.5667 79.54 13.6 78.74 13.6H77.32C76.7867 13.6 76.3933 13.5533 76.14 13.46C75.8867 13.3667 75.7133 13.2067 75.62 12.98C75.54 12.7533 75.5 12.4467 75.5 12.06V8.22ZM77.66 14.28L80.22 14.52C80.2067 14.6533 80.1533 14.7667 80.06 14.86C79.9667 14.94 79.82 14.9933 79.62 15.02V19.38C79.62 19.4867 79.6333 19.56 79.66 19.6C79.7 19.64 79.78 19.66 79.9 19.66H80.3C80.38 19.66 80.46 19.66 80.54 19.66C80.62 19.66 80.6733 19.66 80.7 19.66C80.82 19.6467 80.92 19.58 81 19.46C81.0667 19.3267 81.16 19.0533 81.28 18.64C81.4 18.2267 81.5267 17.78 81.66 17.3H81.88L81.96 19.54C82.1867 19.6467 82.3333 19.7667 82.4 19.9C82.4667 20.02 82.5 20.1667 82.5 20.34C82.5 20.7133 82.3133 21 81.94 21.2C81.5667 21.4133 80.9533 21.52 80.1 21.52H79.22C78.7533 21.52 78.4067 21.4667 78.18 21.36C77.9667 21.2533 77.8267 21.08 77.76 20.84C77.6933 20.6 77.66 20.28 77.66 19.88V14.28ZM74.76 14.38L77.54 14.82C77.5133 14.9667 77.44 15.08 77.32 15.16C77.2133 15.24 77.04 15.2933 76.8 15.32C76.7067 16.1333 76.5133 16.9467 76.22 17.76C75.94 18.56 75.4933 19.3067 74.88 20C74.28 20.6933 73.44 21.28 72.36 21.76L72.2 21.52C72.9333 20.92 73.4867 20.2267 73.86 19.44C74.2467 18.64 74.5 17.8067 74.62 16.94C74.74 16.06 74.7867 15.2067 74.76 14.38ZM73.44 10.6L78.54 10.12L79.24 9.04C79.24 9.04 79.3267 9.1 79.5 9.22C79.6867 9.34 79.9 9.48667 80.14 9.66C80.3933 9.82 80.6133 9.98 80.8 10.14C80.7733 10.3667 80.62 10.4933 80.34 10.52L73.64 11.14L73.44 10.6ZM93.24 20.26C92.84 20.26 92.4933 20.12 92.2 19.84C91.92 19.56 91.78 19.2267 91.78 18.84C91.78 18.4267 91.92 18.08 92.2 17.8C92.4933 17.52 92.84 17.38 93.24 17.38C93.6667 17.38 94.02 17.52 94.3 17.8C94.5933 18.08 94.74 18.4267 94.74 18.84C94.74 19.2267 94.5933 19.56 94.3 19.84C94.02 20.12 93.6667 20.26 93.24 20.26ZM92.9 15.6C92.86 15.2533 92.8133 14.9 92.76 14.54C92.72 14.1667 92.7 13.8467 92.7 13.58C92.7 13.26 92.76 12.9667 92.88 12.7C93.0133 12.4333 93.2133 12.16 93.48 11.88C93.7467 11.5867 94.0933 11.2467 94.52 10.86C94.92 10.4867 95.2267 10.1667 95.44 9.9C95.6667 9.63333 95.82 9.35333 95.9 9.06C95.9933 8.75333 96.04 8.38 96.04 7.94C96.04 7.1 95.7933 6.46 95.3 6.02C94.8067 5.56667 94.0933 5.34 93.16 5.34C92.9467 5.34 92.74 5.35333 92.54 5.38C92.3533 5.40667 92.16 5.45333 91.96 5.52C91.7733 5.58667 91.56 5.67333 91.32 5.78L92.18 5.08C92.0333 5.93333 91.8867 6.60667 91.74 7.1C91.5933 7.59333 91.44 7.96 91.28 8.2C91.12 8.42667 90.9467 8.58 90.76 8.66C90.5733 8.72667 90.3667 8.76 90.14 8.76C89.9 8.76 89.68 8.70667 89.48 8.6C89.2933 8.49333 89.1333 8.34667 89 8.16C89.04 7.4 89.2667 6.76 89.68 6.24C90.1067 5.70667 90.68 5.30667 91.4 5.04C92.12 4.76 92.94 4.62 93.86 4.62C94.94 4.62 95.84 4.76667 96.56 5.06C97.2933 5.34 97.84 5.74 98.2 6.26C98.5733 6.76667 98.76 7.36667 98.76 8.06C98.76 8.58 98.6733 9.05333 98.5 9.48C98.3267 9.90667 98.04 10.32 97.64 10.72C97.2533 11.1067 96.72 11.5067 96.04 11.92C95.4933 12.2667 95.0467 12.56 94.7 12.8C94.3667 13.0267 94.12 13.26 93.96 13.5C93.8133 13.7267 93.7267 14.02 93.7 14.38L93.6 15.6H92.9ZM112.16 11.42H120.9L122.22 9.64C122.22 9.64 122.3 9.70667 122.46 9.84C122.633 9.97333 122.84 10.1467 123.08 10.36C123.333 10.56 123.593 10.78 123.86 11.02C124.127 11.2467 124.373 11.4667 124.6 11.68C124.547 11.8933 124.36 12 124.04 12H112.32L112.16 11.42ZM116.94 3.22L119.86 3.46C119.847 3.59333 119.793 3.70667 119.7 3.8C119.62 3.88 119.46 3.94 119.22 3.98V6.82H116.94V3.22ZM114.2 6.44H122.5V7H114.2V6.44ZM121.7 6.44H121.48L122.7 5.22L124.8 7.22C124.733 7.31333 124.64 7.38 124.52 7.42C124.4 7.44667 124.24 7.46667 124.04 7.48C123.813 7.68 123.533 7.91333 123.2 8.18C122.88 8.43333 122.547 8.68667 122.2 8.94C121.867 9.18 121.553 9.38667 121.26 9.56L121.06 9.44C121.14 9.16 121.22 8.84 121.3 8.48C121.393 8.10667 121.473 7.74 121.54 7.38C121.62 7.00667 121.673 6.69333 121.7 6.44ZM116.12 8L119 8.42C118.96 8.55333 118.88 8.66667 118.76 8.76C118.653 8.85333 118.46 8.91333 118.18 8.94C118.047 9.42 117.86 10.0267 117.62 10.76C117.38 11.48 117.113 12.2533 116.82 13.08C116.54 13.8933 116.253 14.6867 115.96 15.46C115.68 16.22 115.433 16.8667 115.22 17.4C114.98 17.5333 114.64 17.6 114.2 17.6C113.773 17.5867 113.32 17.4933 112.84 17.32C113.053 16.8933 113.287 16.3667 113.54 15.74C113.807 15.1 114.067 14.4267 114.32 13.72C114.587 13 114.84 12.2867 115.08 11.58C115.32 10.86 115.533 10.1933 115.72 9.58C115.907 8.95333 116.04 8.42667 116.12 8ZM119.94 11.42H122.38V11.74C122.207 12.9133 121.967 13.98 121.66 14.94C121.353 15.8867 120.94 16.7333 120.42 17.48C119.913 18.2133 119.253 18.86 118.44 19.42C117.627 19.9667 116.627 20.4333 115.44 20.82C114.267 21.2067 112.867 21.5267 111.24 21.78L111.12 21.5C112.653 21.0333 113.947 20.5067 115 19.92C116.067 19.32 116.94 18.62 117.62 17.82C118.3 17.02 118.82 16.0933 119.18 15.04C119.553 13.9867 119.807 12.78 119.94 11.42ZM114.9 15.76C116.513 15.96 117.873 16.2333 118.98 16.58C120.1 16.9267 121.007 17.3133 121.7 17.74C122.393 18.1667 122.907 18.6 123.24 19.04C123.573 19.4667 123.767 19.8667 123.82 20.24C123.887 20.6267 123.84 20.9467 123.68 21.2C123.533 21.4667 123.313 21.6333 123.02 21.7C122.727 21.7667 122.393 21.7067 122.02 21.52C121.7 21.0133 121.207 20.4333 120.54 19.78C119.873 19.1267 119.06 18.4667 118.1 17.8C117.14 17.1333 116.047 16.5333 114.82 16L114.9 15.76ZM113.76 5.34L114 5.32C114.293 5.89333 114.48 6.46 114.56 7.02C114.64 7.56667 114.607 8.05333 114.46 8.48C114.313 8.90667 114.027 9.24 113.6 9.48C113.24 9.68 112.907 9.74 112.6 9.66C112.307 9.56667 112.087 9.4 111.94 9.16C111.793 8.90667 111.76 8.62667 111.84 8.32C111.92 8 112.153 7.70667 112.54 7.44C112.82 7.29333 113.087 7.02667 113.34 6.64C113.593 6.25333 113.733 5.82 113.76 5.34ZM105.62 7.74H110.48L111.48 6.16C111.48 6.16 111.587 6.26667 111.8 6.48C112.013 6.68 112.26 6.92 112.54 7.2C112.82 7.48 113.067 7.74 113.28 7.98C113.227 8.19333 113.053 8.3 112.76 8.3H105.78L105.62 7.74ZM108.1 3L111.06 3.28C111.047 3.42667 110.98 3.55333 110.86 3.66C110.753 3.75333 110.573 3.82 110.32 3.86V19.12C110.32 19.64 110.26 20.0867 110.14 20.46C110.02 20.8333 109.76 21.1267 109.36 21.34C108.973 21.5533 108.373 21.7 107.56 21.78C107.547 21.4333 107.513 21.1267 107.46 20.86C107.407 20.5933 107.313 20.3667 107.18 20.18C107.06 20.0067 106.887 19.8667 106.66 19.76C106.447 19.64 106.133 19.54 105.72 19.46V19.18C105.72 19.18 105.8 19.1867 105.96 19.2C106.133 19.2133 106.333 19.2267 106.56 19.24C106.8 19.24 107.027 19.2467 107.24 19.26C107.467 19.2733 107.627 19.28 107.72 19.28C107.88 19.28 107.98 19.26 108.02 19.22C108.073 19.1667 108.1 19.08 108.1 18.96V3ZM105.38 12.54C105.793 12.46 106.393 12.3133 107.18 12.1C107.967 11.8867 108.86 11.64 109.86 11.36C110.86 11.0667 111.873 10.7667 112.9 10.46L112.96 10.66C112.32 11.1267 111.493 11.7067 110.48 12.4C109.48 13.0933 108.273 13.86 106.86 14.7C106.767 14.9933 106.593 15.18 106.34 15.26L105.38 12.54ZM137.72 3.22L140.78 3.56C140.767 3.69333 140.707 3.81333 140.6 3.92C140.493 4.01333 140.313 4.08 140.06 4.12V18.38C140.06 18.5933 140.107 18.7467 140.2 18.84C140.293 18.92 140.473 18.96 140.74 18.96H141.9C142.127 18.96 142.327 18.96 142.5 18.96C142.687 18.9467 142.833 18.9333 142.94 18.92C143.033 18.92 143.12 18.9 143.2 18.86C143.28 18.82 143.353 18.7533 143.42 18.66C143.5 18.5133 143.587 18.2867 143.68 17.98C143.773 17.66 143.873 17.2933 143.98 16.88C144.1 16.4667 144.207 16.0533 144.3 15.64H144.52L144.6 18.8C144.92 18.9467 145.133 19.1 145.24 19.26C145.347 19.4067 145.4 19.5867 145.4 19.8C145.4 20.12 145.287 20.3867 145.06 20.6C144.833 20.8267 144.447 20.9933 143.9 21.1C143.367 21.2067 142.627 21.26 141.68 21.26H140.12C139.493 21.26 139.007 21.1933 138.66 21.06C138.313 20.9267 138.067 20.7 137.92 20.38C137.787 20.0733 137.72 19.6467 137.72 19.1V3.22ZM142.94 7.28L145.36 9.36C145.267 9.46667 145.147 9.53333 145 9.56C144.853 9.57333 144.66 9.53333 144.42 9.44C143.593 9.92 142.727 10.3333 141.82 10.68C140.927 11.0133 140.107 11.2667 139.36 11.44L139.24 11.18C139.8 10.74 140.413 10.1667 141.08 9.46C141.76 8.75333 142.38 8.02667 142.94 7.28ZM128.26 7.28L131.06 7.52C131.047 7.65333 130.993 7.76667 130.9 7.86C130.807 7.94 130.64 8 130.4 8.04V19L128.26 19.54V7.28ZM132.04 3.22L135.04 3.52C135.027 3.65333 134.967 3.77333 134.86 3.88C134.767 3.97333 134.587 4.04 134.32 4.08V18.5L132.04 19.04V3.22ZM133.3 9.98H134.76L135.94 7.96C135.94 7.96 136.013 8.03333 136.16 8.18C136.307 8.32667 136.493 8.52 136.72 8.76C136.947 9 137.173 9.25333 137.4 9.52C137.64 9.77333 137.847 10.0067 138.02 10.22C137.98 10.4333 137.8 10.54 137.48 10.54H133.3V9.98ZM126.5 19.04C126.967 18.9733 127.58 18.8733 128.34 18.74C129.113 18.6067 129.987 18.4467 130.96 18.26C131.947 18.0733 132.993 17.8733 134.1 17.66C135.207 17.4467 136.34 17.2133 137.5 16.96L137.56 17.22C136.613 17.7267 135.407 18.32 133.94 19C132.487 19.6667 130.68 20.4333 128.52 21.3C128.4 21.58 128.22 21.7533 127.98 21.82L126.5 19.04ZM149.66 4.5H155.66V5.06H149.84L149.66 4.5ZM148.04 20.6H162.38L163.74 18.8C163.74 18.8 163.82 18.8733 163.98 19.02C164.153 19.1533 164.367 19.3267 164.62 19.54C164.887 19.74 165.16 19.9533 165.44 20.18C165.72 20.42 165.973 20.64 166.2 20.84C166.147 21.0533 165.953 21.16 165.62 21.16H148.2L148.04 20.6ZM153.64 9.62H157.34L158.48 8.14C158.48 8.14 158.547 8.2 158.68 8.32C158.827 8.42667 159.013 8.56667 159.24 8.74C159.467 8.91333 159.7 9.1 159.94 9.3C160.18 9.5 160.4 9.69333 160.6 9.88C160.547 10.08 160.367 10.18 160.06 10.18H153.8L153.64 9.62ZM154.26 4.5H154.04L155.32 3.26L157.48 5.12C157.413 5.21333 157.32 5.28 157.2 5.32C157.08 5.36 156.9 5.39333 156.66 5.42C156.153 6.56667 155.48 7.64 154.64 8.64C153.813 9.64 152.807 10.5267 151.62 11.3C150.447 12.0733 149.08 12.7067 147.52 13.2L147.36 12.96C148.533 12.32 149.573 11.56 150.48 10.68C151.4 9.78667 152.18 8.81333 152.82 7.76C153.46 6.70667 153.94 5.62 154.26 4.5ZM149.2 6.26C150.133 6.27333 150.86 6.38667 151.38 6.6C151.913 6.8 152.28 7.04667 152.48 7.34C152.693 7.63333 152.773 7.92667 152.72 8.22C152.667 8.51333 152.527 8.76 152.3 8.96C152.073 9.16 151.793 9.26667 151.46 9.28C151.127 9.29333 150.78 9.16667 150.42 8.9C150.393 8.58 150.313 8.26667 150.18 7.96C150.047 7.64 149.88 7.34667 149.68 7.08C149.493 6.8 149.287 6.56667 149.06 6.38L149.2 6.26ZM157.84 2.96C158.187 4 158.667 4.94 159.28 5.78C159.907 6.60667 160.613 7.34667 161.4 8C162.2 8.65333 163.053 9.22667 163.96 9.72C164.867 10.2133 165.787 10.6267 166.72 10.96L166.66 11.2C166.167 11.2667 165.74 11.4667 165.38 11.8C165.033 12.1333 164.76 12.5733 164.56 13.12C163.413 12.4267 162.38 11.62 161.46 10.7C160.54 9.76667 159.753 8.68 159.1 7.44C158.447 6.18667 157.933 4.74 157.56 3.1L157.84 2.96ZM161.72 3.56L164.06 5.12C164.007 5.21333 163.92 5.28 163.8 5.32C163.693 5.36 163.533 5.35333 163.32 5.3C163 5.5 162.633 5.70667 162.22 5.92C161.807 6.12 161.373 6.32667 160.92 6.54C160.467 6.74 160.02 6.92 159.58 7.08L159.36 6.84C159.653 6.53333 159.947 6.18 160.24 5.78C160.547 5.38 160.833 4.98667 161.1 4.6C161.367 4.2 161.573 3.85333 161.72 3.56ZM164.08 5.86L166.4 7.46C166.347 7.55333 166.26 7.62 166.14 7.66C166.033 7.7 165.873 7.69333 165.66 7.64C165.153 7.89333 164.54 8.16 163.82 8.44C163.1 8.70667 162.393 8.93333 161.7 9.12L161.5 8.9C161.82 8.60667 162.14 8.28 162.46 7.92C162.793 7.56 163.1 7.19333 163.38 6.82C163.673 6.44667 163.907 6.12667 164.08 5.86ZM152.58 16.8C153.46 16.96 154.147 17.1867 154.64 17.48C155.133 17.7733 155.467 18.0933 155.64 18.44C155.813 18.7867 155.867 19.1133 155.8 19.42C155.733 19.7267 155.58 19.98 155.34 20.18C155.113 20.38 154.84 20.4733 154.52 20.46C154.2 20.46 153.867 20.32 153.52 20.04C153.507 19.4933 153.393 18.9333 153.18 18.36C152.967 17.7867 152.713 17.3 152.42 16.9L152.58 16.8ZM159.08 16.7L162.14 17.68C162.1 17.8 162.02 17.8933 161.9 17.96C161.78 18.0267 161.607 18.0533 161.38 18.04C161.113 18.2933 160.8 18.5867 160.44 18.92C160.093 19.2533 159.727 19.5867 159.34 19.92C158.953 20.2533 158.567 20.56 158.18 20.84H157.92C158.067 20.4533 158.207 20.02 158.34 19.54C158.487 19.0467 158.627 18.5533 158.76 18.06C158.893 17.5533 159 17.1 159.08 16.7ZM152.6 15.36H161.46V15.92H152.6V15.36ZM151.3 12V11.04L153.78 12H160.8V12.58H153.66V16.4C153.66 16.4667 153.56 16.56 153.36 16.68C153.16 16.7867 152.9 16.8867 152.58 16.98C152.273 17.06 151.96 17.1 151.64 17.1H151.3V12ZM160.24 12H160.04L161.12 10.86L163.38 12.54C163.327 12.6067 163.24 12.68 163.12 12.76C163 12.8267 162.847 12.88 162.66 12.92V16.28C162.66 16.32 162.547 16.3867 162.32 16.48C162.093 16.56 161.827 16.6333 161.52 16.7C161.213 16.7667 160.927 16.8 160.66 16.8H160.24V12ZM176.72 4.92L177.74 3.32L180.44 5.28C180.24 5.50667 179.913 5.68667 179.46 5.82C179.007 5.95333 178.473 6.04667 177.86 6.1V6.8C178.073 8.82667 178.567 10.64 179.34 12.24C180.113 13.8267 181.18 15.2133 182.54 16.4C183.9 17.5733 185.547 18.5667 187.48 19.38L187.42 19.58C186.82 19.6467 186.327 19.8667 185.94 20.24C185.567 20.6133 185.267 21.1333 185.04 21.8C184.373 21.4133 183.7 20.9 183.02 20.26C182.34 19.6333 181.693 18.9133 181.08 18.1C180.467 17.2733 179.92 16.38 179.44 15.42C178.973 14.46 178.613 13.4667 178.36 12.44C177.88 13.7867 177.173 15.06 176.24 16.26C175.32 17.4467 174.227 18.5133 172.96 19.46C171.707 20.3933 170.307 21.16 168.76 21.76L168.62 21.56C169.713 20.9467 170.753 20.14 171.74 19.14C172.727 18.1267 173.607 16.9733 174.38 15.68C175.167 14.3733 175.807 12.96 176.3 11.44C176.807 9.92 177.12 8.34 177.24 6.7V5.5H172.58L172.42 4.92H176.72Z" fill="#F5F5F5"/>
<line x1="106" y1="25.5" x2="186" y2="25.5" stroke="#F5F5F5"/>
</svg>
