<svg width="48" height="48" viewBox="0 0 48 48" fill="none" xmlns="http://www.w3.org/2000/svg">
<path d="M13.0909 37C9.45455 37 6.36364 35.7118 3.81818 33.1354C1.27273 30.559 0 27.4306 0 23.75C0 20.0694 1.27273 16.941 3.81818 14.3646C6.36364 11.7882 9.45455 10.5 13.0909 10.5C16.0364 10.5 18.6095 11.337 20.8102 13.0109C23.0095 14.6863 24.5455 16.7938 25.4182 19.3333H43.6364C44.8364 19.3333 45.864 19.7654 46.7193 20.6296C47.5731 21.4953 48 22.5354 48 23.75C48 25.075 47.5455 26.1424 46.6364 26.9521C45.7273 27.7618 44.7273 28.1667 43.6364 28.1667V32.5833C43.6364 33.7979 43.2095 34.838 42.3556 35.7037C41.5004 36.5679 40.4727 37 39.2727 37C38.0727 37 37.0451 36.5679 36.1898 35.7037C35.336 34.838 34.9091 33.7979 34.9091 32.5833V28.1667H25.4182C24.5455 30.7063 23.0095 32.8137 20.8102 34.4891C18.6095 36.163 16.0364 37 13.0909 37ZM13.0909 28.1667C14.2909 28.1667 15.3178 27.7338 16.1716 26.8682C17.0269 26.004 17.4545 24.9646 17.4545 23.75C17.4545 22.5354 17.0269 21.4953 16.1716 20.6296C15.3178 19.7654 14.2909 19.3333 13.0909 19.3333C11.8909 19.3333 10.864 19.7654 10.0102 20.6296C9.15491 21.4953 8.72727 22.5354 8.72727 23.75C8.72727 24.9646 9.15491 26.004 10.0102 26.8682C10.864 27.7338 11.8909 28.1667 13.0909 28.1667Z" fill="white"/>
</svg>
