<svg width="398" height="236" viewBox="0 0 398 236" fill="none" xmlns="http://www.w3.org/2000/svg">
<g style="mix-blend-mode:plus-lighter" filter="url(#filter0_f_788_833)">
<g filter="url(#filter1_d_788_833)">
<ellipse cx="199.05" cy="124.388" rx="158.94" ry="70.4801" transform="rotate(-3.38176 199.05 124.388)" fill="url(#paint0_linear_788_833)"/>
<g filter="url(#filter2_f_788_833)">
<ellipse cx="198.796" cy="120.08" rx="158.94" ry="70.4801" transform="rotate(-3.38176 198.796 120.08)" fill="#603F76"/>
</g>
<g filter="url(#filter3_f_788_833)">
<ellipse cx="198.075" cy="107.875" rx="145.995" ry="66.8842" transform="rotate(-3.38176 198.075 107.875)" fill="#9E5DA8"/>
</g>
<g filter="url(#filter4_f_788_833)">
<ellipse cx="198.326" cy="99.9359" rx="136.645" ry="58.9732" transform="rotate(-3.38176 198.326 99.9359)" fill="url(#paint1_linear_788_833)"/>
</g>
</g>
<g filter="url(#filter5_d_788_833)">
<path d="M202.466 127.912C198.528 128.335 194.948 128.036 191.726 127.013C188.519 125.971 185.9 124.35 183.867 122.15C181.85 119.931 180.645 117.251 180.254 114.11L191.751 112.872C191.964 114.183 192.519 115.297 193.418 116.214C194.333 117.112 195.487 117.761 196.882 118.162C198.277 118.564 199.809 118.674 201.479 118.495C203.22 118.307 204.725 117.834 205.995 117.075C207.265 116.316 208.219 115.351 208.858 114.18C209.496 113.008 209.739 111.711 209.586 110.287C209.431 108.845 208.889 107.614 207.961 106.594C207.049 105.554 205.812 104.797 204.249 104.325C202.705 103.851 200.913 103.724 198.873 103.944L193.837 104.485L192.934 96.0998L197.971 95.5578C199.694 95.3725 201.182 94.91 202.437 94.1704C203.708 93.4289 204.657 92.4911 205.282 91.3568C205.904 90.205 206.139 88.9171 205.986 87.4931C205.84 86.1394 205.388 84.9878 204.627 84.0381C203.883 83.069 202.899 82.3568 201.677 81.9015C200.471 81.4443 199.104 81.298 197.575 81.4625C196.028 81.629 194.643 82.0626 193.42 82.7632C192.195 83.4463 191.251 84.3392 190.587 85.4421C189.923 86.545 189.639 87.7849 189.734 89.1618L178.79 90.3393C178.508 87.222 179.101 84.3839 180.568 81.8253C182.036 79.2666 184.157 77.1622 186.931 75.5121C189.721 73.8426 192.962 72.8092 196.654 72.4119C200.381 72.0109 203.715 72.3369 206.656 73.3898C209.597 74.4427 211.965 76.0374 213.76 78.1739C215.57 80.291 216.62 82.7744 216.909 85.6243C217.252 88.6462 216.583 91.2701 214.901 93.4961C213.238 95.7202 210.924 97.2674 207.958 98.1377L208.004 98.5597C212.032 98.642 215.204 99.6967 217.521 101.724C219.853 103.731 221.191 106.415 221.535 109.775C221.883 112.849 221.29 115.678 219.754 118.262C218.235 120.844 215.985 122.989 213.004 124.697C210.022 126.405 206.509 127.477 202.466 127.912Z" fill="white"/>
</g>
</g>
<g filter="url(#filter6_d_788_833)">
<ellipse cx="199.113" cy="135.009" rx="155.21" ry="68.8263" transform="rotate(-3.38176 199.113 135.009)" fill="url(#paint2_linear_788_833)"/>
<g filter="url(#filter7_f_788_833)">
<ellipse cx="198.864" cy="130.802" rx="155.21" ry="68.8263" transform="rotate(-3.38176 198.864 130.802)" fill="#603F76"/>
</g>
<g filter="url(#filter8_f_788_833)">
<ellipse cx="198.16" cy="118.884" rx="142.569" ry="65.3147" transform="rotate(-3.38176 198.16 118.884)" fill="#9E5DA8"/>
</g>
<g filter="url(#filter9_f_788_833)">
<ellipse cx="198.405" cy="111.131" rx="133.439" ry="57.5894" transform="rotate(-3.38176 198.405 111.131)" fill="url(#paint3_linear_788_833)"/>
</g>
</g>
<g filter="url(#filter10_d_788_833)">
<path d="M181.321 132.09L180.354 123.097L199.078 85.151L206.831 84.3169L208.17 96.7635L203.582 97.2572L191.789 121.28L191.834 121.702L223.874 118.255L224.858 127.405L181.321 132.09ZM208.264 138.794L206.948 126.558L206.73 122.553L202.664 84.7652L213.371 83.6132L219.182 137.619L208.264 138.794Z" fill="white"/>
</g>
<defs>
<filter id="filter0_f_788_833" x="0.0773926" y="0.509033" width="397.692" height="234.866" filterUnits="userSpaceOnUse" color-interpolation-filters="sRGB">
<feFlood flood-opacity="0" result="BackgroundImageFix"/>
<feBlend mode="normal" in="SourceGraphic" in2="BackgroundImageFix" result="shape"/>
<feGaussianBlur stdDeviation="20" result="effect1_foregroundBlur_788_833"/>
</filter>
<filter id="filter1_d_788_833" x="36.0774" y="40.509" width="325.692" height="168.866" filterUnits="userSpaceOnUse" color-interpolation-filters="sRGB">
<feFlood flood-opacity="0" result="BackgroundImageFix"/>
<feColorMatrix in="SourceAlpha" type="matrix" values="0 0 0 0 0 0 0 0 0 0 0 0 0 0 0 0 0 0 127 0" result="hardAlpha"/>
<feOffset dy="10"/>
<feGaussianBlur stdDeviation="2"/>
<feComposite in2="hardAlpha" operator="out"/>
<feColorMatrix type="matrix" values="0 0 0 0 0 0 0 0 0 0 0 0 0 0 0 0 0 0 0.4 0"/>
<feBlend mode="normal" in2="BackgroundImageFix" result="effect1_dropShadow_788_833"/>
<feBlend mode="normal" in="SourceGraphic" in2="effect1_dropShadow_788_833" result="shape"/>
</filter>
<filter id="filter2_f_788_833" x="36.0774" y="45.0929" width="325.437" height="149.975" filterUnits="userSpaceOnUse" color-interpolation-filters="sRGB">
<feFlood flood-opacity="0" result="BackgroundImageFix"/>
<feBlend mode="normal" in="SourceGraphic" in2="BackgroundImageFix" result="shape"/>
<feGaussianBlur stdDeviation="2" result="effect1_foregroundBlur_788_833"/>
</filter>
<filter id="filter3_f_788_833" x="48.2798" y="36.5471" width="299.59" height="142.657" filterUnits="userSpaceOnUse" color-interpolation-filters="sRGB">
<feFlood flood-opacity="0" result="BackgroundImageFix"/>
<feBlend mode="normal" in="SourceGraphic" in2="BackgroundImageFix" result="shape"/>
<feGaussianBlur stdDeviation="2" result="effect1_foregroundBlur_788_833"/>
</filter>
<filter id="filter4_f_788_833" x="59.8735" y="38.509" width="276.905" height="122.854" filterUnits="userSpaceOnUse" color-interpolation-filters="sRGB">
<feFlood flood-opacity="0" result="BackgroundImageFix"/>
<feBlend mode="normal" in="SourceGraphic" in2="BackgroundImageFix" result="shape"/>
<feGaussianBlur stdDeviation="1" result="effect1_foregroundBlur_788_833"/>
</filter>
<filter id="filter5_d_788_833" x="172.007" y="70.1903" width="55.2654" height="67.9259" filterUnits="userSpaceOnUse" color-interpolation-filters="sRGB">
<feFlood flood-opacity="0" result="BackgroundImageFix"/>
<feColorMatrix in="SourceAlpha" type="matrix" values="0 0 0 0 0 0 0 0 0 0 0 0 0 0 0 0 0 0 127 0" result="hardAlpha"/>
<feOffset dy="4"/>
<feGaussianBlur stdDeviation="2"/>
<feComposite in2="hardAlpha" operator="out"/>
<feColorMatrix type="matrix" values="0 0 0 0 0 0 0 0 0 0 0 0 0 0 0 0 0 0 0.25 0"/>
<feBlend mode="normal" in2="BackgroundImageFix" result="effect1_dropShadow_788_833"/>
<feBlend mode="normal" in="SourceGraphic" in2="effect1_dropShadow_788_833" result="shape"/>
</filter>
<filter id="filter6_d_788_833" x="39.8699" y="53.0981" width="318.237" height="165.233" filterUnits="userSpaceOnUse" color-interpolation-filters="sRGB">
<feFlood flood-opacity="0" result="BackgroundImageFix"/>
<feColorMatrix in="SourceAlpha" type="matrix" values="0 0 0 0 0 0 0 0 0 0 0 0 0 0 0 0 0 0 127 0" result="hardAlpha"/>
<feOffset dy="10"/>
<feGaussianBlur stdDeviation="2"/>
<feComposite in2="hardAlpha" operator="out"/>
<feColorMatrix type="matrix" values="0 0 0 0 0 0 0 0 0 0 0 0 0 0 0 0 0 0 0.4 0"/>
<feBlend mode="normal" in2="BackgroundImageFix" result="effect1_dropShadow_788_833"/>
<feBlend mode="normal" in="SourceGraphic" in2="effect1_dropShadow_788_833" result="shape"/>
</filter>
<filter id="filter7_f_788_833" x="39.8699" y="57.4806" width="317.989" height="146.644" filterUnits="userSpaceOnUse" color-interpolation-filters="sRGB">
<feFlood flood-opacity="0" result="BackgroundImageFix"/>
<feBlend mode="normal" in="SourceGraphic" in2="BackgroundImageFix" result="shape"/>
<feGaussianBlur stdDeviation="2" result="effect1_foregroundBlur_788_833"/>
</filter>
<filter id="filter8_f_788_833" x="51.7861" y="49.1355" width="292.747" height="139.497" filterUnits="userSpaceOnUse" color-interpolation-filters="sRGB">
<feFlood flood-opacity="0" result="BackgroundImageFix"/>
<feBlend mode="normal" in="SourceGraphic" in2="BackgroundImageFix" result="shape"/>
<feGaussianBlur stdDeviation="2" result="effect1_foregroundBlur_788_833"/>
</filter>
<filter id="filter9_f_788_833" x="63.1548" y="51.0981" width="270.501" height="120.065" filterUnits="userSpaceOnUse" color-interpolation-filters="sRGB">
<feFlood flood-opacity="0" result="BackgroundImageFix"/>
<feBlend mode="normal" in="SourceGraphic" in2="BackgroundImageFix" result="shape"/>
<feGaussianBlur stdDeviation="1" result="effect1_foregroundBlur_788_833"/>
</filter>
<filter id="filter10_d_788_833" x="172.532" y="82.8925" width="57.3479" height="66.6904" filterUnits="userSpaceOnUse" color-interpolation-filters="sRGB">
<feFlood flood-opacity="0" result="BackgroundImageFix"/>
<feColorMatrix in="SourceAlpha" type="matrix" values="0 0 0 0 0 0 0 0 0 0 0 0 0 0 0 0 0 0 127 0" result="hardAlpha"/>
<feOffset dy="4"/>
<feGaussianBlur stdDeviation="2"/>
<feComposite in2="hardAlpha" operator="out"/>
<feColorMatrix type="matrix" values="0 0 0 0 0 0 0 0 0 0 0 0 0 0 0 0 0 0 0.25 0"/>
<feBlend mode="normal" in2="BackgroundImageFix" result="effect1_dropShadow_788_833"/>
<feBlend mode="normal" in="SourceGraphic" in2="effect1_dropShadow_788_833" result="shape"/>
</filter>
<linearGradient id="paint0_linear_788_833" x1="63.8436" y1="140.929" x2="357.99" y2="138.772" gradientUnits="userSpaceOnUse">
<stop stop-color="#DA8FEF"/>
<stop offset="1" stop-color="#2D1247"/>
</linearGradient>
<linearGradient id="paint1_linear_788_833" x1="146.401" y1="57.1039" x2="170.631" y2="168.343" gradientUnits="userSpaceOnUse">
<stop stop-color="#FFE0FE"/>
<stop offset="0.882121" stop-color="#C788E6"/>
</linearGradient>
<linearGradient id="paint2_linear_788_833" x1="67.0787" y1="151.162" x2="354.323" y2="149.055" gradientUnits="userSpaceOnUse">
<stop stop-color="#DA8FEF"/>
<stop offset="1" stop-color="#2D1247"/>
</linearGradient>
<linearGradient id="paint3_linear_788_833" x1="147.699" y1="69.3035" x2="171.36" y2="177.933" gradientUnits="userSpaceOnUse">
<stop stop-color="#FFE0FE"/>
<stop offset="0.882121" stop-color="#C788E6"/>
</linearGradient>
</defs>
</svg>
