<svg width="397" height="235" viewBox="0 0 397 235" fill="none" xmlns="http://www.w3.org/2000/svg">
<g style="mix-blend-mode:plus-lighter" filter="url(#filter0_f_1552_698)">
<g filter="url(#filter1_d_1552_698)">
<ellipse cx="198.092" cy="123.765" rx="157.968" ry="70.0492" transform="rotate(3.63567 198.092 123.765)" fill="url(#paint0_linear_1552_698)"/>
<g filter="url(#filter2_f_1552_698)">
<ellipse cx="198.364" cy="119.485" rx="157.968" ry="70.0492" transform="rotate(3.63567 198.364 119.485)" fill="#603F76"/>
</g>
<g filter="url(#filter3_f_1552_698)">
<ellipse cx="199.135" cy="107.359" rx="145.102" ry="66.4752" transform="rotate(3.63567 199.135 107.359)" fill="#9E5DA8"/>
</g>
<g filter="url(#filter4_f_1552_698)">
<ellipse cx="200.347" cy="99.5569" rx="135.81" ry="58.6126" transform="rotate(3.63567 200.347 99.5569)" fill="url(#paint1_linear_1552_698)"/>
</g>
</g>
<g filter="url(#filter5_d_1552_698)">
<path d="M202.542 127.659C199.772 127.293 197.155 126.492 194.691 125.256C192.244 124.022 190.132 122.25 188.355 119.942C186.578 117.634 185.306 114.712 184.538 111.176C183.788 107.642 183.723 103.411 184.343 98.4808C184.929 93.9568 185.955 89.978 187.42 86.5446C188.905 83.0958 190.76 80.2459 192.985 77.9951C195.228 75.7464 197.773 74.1416 200.62 73.1807C203.47 72.2022 206.561 71.9224 209.894 72.3413C213.491 72.7933 216.578 73.8941 219.156 75.6437C221.736 77.3757 223.71 79.5395 225.076 82.1348C226.461 84.7324 227.142 87.5357 227.12 90.5446L215.884 89.1325C215.681 87.2003 214.945 85.6109 213.676 84.3643C212.407 83.1178 210.738 82.3645 208.667 82.1043C205.159 81.6634 202.3 82.8546 200.092 85.6778C197.902 88.5033 196.459 92.5366 195.765 97.7778L196.133 97.8241C197.141 96.329 198.399 95.1061 199.909 94.1552C201.438 93.1891 203.117 92.518 204.947 92.142C206.796 91.7506 208.703 91.6784 210.668 91.9253C213.861 92.3266 216.608 93.4381 218.909 95.2599C221.213 97.0642 222.92 99.3637 224.03 102.158C225.14 104.953 225.484 108.035 225.06 111.403C224.602 115.052 223.343 118.191 221.284 120.819C219.243 123.449 216.603 125.381 213.365 126.614C210.147 127.831 206.539 128.179 202.542 127.659ZM203.613 118.705C205.368 118.926 206.991 118.702 208.483 118.034C209.974 117.366 211.205 116.363 212.176 115.023C213.146 113.684 213.743 112.119 213.968 110.33C214.193 108.541 214 106.886 213.389 105.365C212.796 103.847 211.868 102.581 210.605 101.567C209.343 100.553 207.834 99.936 206.08 99.7156C204.764 99.5502 203.514 99.6426 202.33 99.9927C201.163 100.345 200.103 100.907 199.151 101.678C198.216 102.452 197.439 103.388 196.82 104.486C196.203 105.567 195.813 106.756 195.65 108.055C195.431 109.791 195.626 111.429 196.235 112.967C196.861 114.507 197.805 115.792 199.065 116.824C200.343 117.858 201.859 118.485 203.613 118.705Z" fill="white"/>
</g>
</g>
<g filter="url(#filter6_d_1552_698)">
<ellipse cx="199.263" cy="121.146" rx="155.21" ry="68.8263" transform="rotate(3.63567 199.263 121.146)" fill="url(#paint2_linear_1552_698)"/>
<g filter="url(#filter7_f_1552_698)">
<ellipse cx="199.53" cy="116.941" rx="155.21" ry="68.8263" transform="rotate(3.63567 199.53 116.941)" fill="#603F76"/>
</g>
<g filter="url(#filter8_f_1552_698)">
<ellipse cx="200.287" cy="105.025" rx="142.569" ry="65.3147" transform="rotate(3.63567 200.287 105.025)" fill="#9E5DA8"/>
</g>
<g filter="url(#filter9_f_1552_698)">
<ellipse cx="201.478" cy="97.3601" rx="133.439" ry="57.5894" transform="rotate(3.63567 201.478 97.3601)" fill="url(#paint3_linear_1552_698)"/>
</g>
</g>
<g filter="url(#filter10_d_1552_698)">
<path d="M203.913 126.287C201.144 125.921 198.527 125.12 196.062 123.883C193.616 122.649 191.504 120.878 189.727 118.57C187.95 116.261 186.677 113.339 185.91 109.803C185.16 106.27 185.095 102.038 185.714 97.1084C186.301 92.5844 187.326 88.6056 188.791 85.1721C190.276 81.7233 192.131 78.8735 194.356 76.6226C196.599 74.3739 199.144 72.7692 201.992 71.8082C204.841 70.8298 207.933 70.55 211.266 70.9689C214.862 71.4208 217.95 72.5216 220.527 74.2712C223.108 76.0033 225.081 78.167 226.448 80.7624C227.832 83.36 228.514 86.1632 228.492 89.1722L217.255 87.7601C217.053 85.8278 216.317 84.2384 215.048 82.9919C213.779 81.7454 212.109 80.992 210.039 80.7319C206.53 80.2909 203.672 81.4821 201.464 84.3054C199.273 87.1309 197.831 91.1642 197.136 96.4053L197.505 96.4516C198.512 94.9566 199.771 93.7336 201.281 92.7828C202.81 91.8166 204.489 91.1456 206.318 90.7695C208.167 90.3782 210.074 90.306 212.039 90.5529C215.232 90.9541 217.979 92.0657 220.281 93.8875C222.585 95.6917 224.292 97.9912 225.402 100.786C226.512 103.581 226.855 106.662 226.432 110.031C225.973 113.68 224.715 116.818 222.656 119.447C220.614 122.077 217.975 124.009 214.737 125.241C211.519 126.458 207.911 126.807 203.913 126.287ZM204.985 117.333C206.739 117.553 208.362 117.33 209.854 116.662C211.346 115.994 212.577 114.99 213.547 113.651C214.517 112.311 215.115 110.747 215.34 108.958C215.565 107.168 215.372 105.513 214.761 103.993C214.168 102.475 213.24 101.209 211.977 100.195C210.714 99.1809 209.206 98.5636 207.452 98.3431C206.136 98.1778 204.886 98.2702 203.701 98.6203C202.534 98.9726 201.475 99.5345 200.522 100.306C199.587 101.079 198.81 102.015 198.191 103.114C197.574 104.194 197.184 105.384 197.021 106.682C196.803 108.419 196.998 110.056 197.607 111.594C198.233 113.134 199.176 114.42 200.437 115.451C201.715 116.485 203.231 117.112 204.985 117.333Z" fill="white"/>
</g>
<ellipse cx="198.819" cy="116.829" rx="152.025" ry="77.0428" transform="rotate(2.97504 198.819 116.829)" fill="black" fill-opacity="0.4"/>
<defs>
<filter id="filter0_f_1552_698" x="0.378174" y="0.373901" width="395.7" height="234.023" filterUnits="userSpaceOnUse" color-interpolation-filters="sRGB">
<feFlood flood-opacity="0" result="BackgroundImageFix"/>
<feBlend mode="normal" in="SourceGraphic" in2="BackgroundImageFix" result="shape"/>
<feGaussianBlur stdDeviation="20" result="effect1_foregroundBlur_1552_698"/>
</filter>
<filter id="filter1_d_1552_698" x="36.3782" y="40.3739" width="323.7" height="168.023" filterUnits="userSpaceOnUse" color-interpolation-filters="sRGB">
<feFlood flood-opacity="0" result="BackgroundImageFix"/>
<feColorMatrix in="SourceAlpha" type="matrix" values="0 0 0 0 0 0 0 0 0 0 0 0 0 0 0 0 0 0 127 0" result="hardAlpha"/>
<feOffset dy="10"/>
<feGaussianBlur stdDeviation="2"/>
<feComposite in2="hardAlpha" operator="out"/>
<feColorMatrix type="matrix" values="0 0 0 0 0 0 0 0 0 0 0 0 0 0 0 0 0 0 0.4 0"/>
<feBlend mode="normal" in2="BackgroundImageFix" result="effect1_dropShadow_1552_698"/>
<feBlend mode="normal" in="SourceGraphic" in2="effect1_dropShadow_1552_698" result="shape"/>
</filter>
<filter id="filter2_f_1552_698" x="36.6501" y="44.854" width="323.428" height="149.262" filterUnits="userSpaceOnUse" color-interpolation-filters="sRGB">
<feFlood flood-opacity="0" result="BackgroundImageFix"/>
<feBlend mode="normal" in="SourceGraphic" in2="BackgroundImageFix" result="shape"/>
<feGaussianBlur stdDeviation="2" result="effect1_foregroundBlur_1552_698"/>
</filter>
<filter id="filter3_f_1552_698" x="50.2625" y="36.3739" width="297.745" height="141.969" filterUnits="userSpaceOnUse" color-interpolation-filters="sRGB">
<feFlood flood-opacity="0" result="BackgroundImageFix"/>
<feBlend mode="normal" in="SourceGraphic" in2="BackgroundImageFix" result="shape"/>
<feGaussianBlur stdDeviation="2" result="effect1_foregroundBlur_1552_698"/>
</filter>
<filter id="filter4_f_1552_698" x="62.7583" y="38.4238" width="275.177" height="122.266" filterUnits="userSpaceOnUse" color-interpolation-filters="sRGB">
<feFlood flood-opacity="0" result="BackgroundImageFix"/>
<feBlend mode="normal" in="SourceGraphic" in2="BackgroundImageFix" result="shape"/>
<feGaussianBlur stdDeviation="1" result="effect1_foregroundBlur_1552_698"/>
</filter>
<filter id="filter5_d_1552_698" x="177.012" y="69.5867" width="56.6445" height="68.6318" filterUnits="userSpaceOnUse" color-interpolation-filters="sRGB">
<feFlood flood-opacity="0" result="BackgroundImageFix"/>
<feColorMatrix in="SourceAlpha" type="matrix" values="0 0 0 0 0 0 0 0 0 0 0 0 0 0 0 0 0 0 127 0" result="hardAlpha"/>
<feOffset dy="4"/>
<feGaussianBlur stdDeviation="2"/>
<feComposite in2="hardAlpha" operator="out"/>
<feColorMatrix type="matrix" values="0 0 0 0 0 0 0 0 0 0 0 0 0 0 0 0 0 0 0.25 0"/>
<feBlend mode="normal" in2="BackgroundImageFix" result="effect1_dropShadow_1552_698"/>
<feBlend mode="normal" in="SourceGraphic" in2="effect1_dropShadow_1552_698" result="shape"/>
</filter>
<filter id="filter6_d_1552_698" x="40.302" y="39.2102" width="318.188" height="165.334" filterUnits="userSpaceOnUse" color-interpolation-filters="sRGB">
<feFlood flood-opacity="0" result="BackgroundImageFix"/>
<feColorMatrix in="SourceAlpha" type="matrix" values="0 0 0 0 0 0 0 0 0 0 0 0 0 0 0 0 0 0 127 0" result="hardAlpha"/>
<feOffset dy="10"/>
<feGaussianBlur stdDeviation="2"/>
<feComposite in2="hardAlpha" operator="out"/>
<feColorMatrix type="matrix" values="0 0 0 0 0 0 0 0 0 0 0 0 0 0 0 0 0 0 0.4 0"/>
<feBlend mode="normal" in2="BackgroundImageFix" result="effect1_dropShadow_1552_698"/>
<feBlend mode="normal" in="SourceGraphic" in2="effect1_dropShadow_1552_698" result="shape"/>
</filter>
<filter id="filter7_f_1552_698" x="40.5691" y="43.5424" width="317.921" height="146.797" filterUnits="userSpaceOnUse" color-interpolation-filters="sRGB">
<feFlood flood-opacity="0" result="BackgroundImageFix"/>
<feBlend mode="normal" in="SourceGraphic" in2="BackgroundImageFix" result="shape"/>
<feGaussianBlur stdDeviation="2" result="effect1_foregroundBlur_1552_698"/>
</filter>
<filter id="filter8_f_1552_698" x="53.9436" y="35.2102" width="292.687" height="139.631" filterUnits="userSpaceOnUse" color-interpolation-filters="sRGB">
<feFlood flood-opacity="0" result="BackgroundImageFix"/>
<feBlend mode="normal" in="SourceGraphic" in2="BackgroundImageFix" result="shape"/>
<feGaussianBlur stdDeviation="2" result="effect1_foregroundBlur_1552_698"/>
</filter>
<filter id="filter9_f_1552_698" x="66.2563" y="37.2594" width="270.442" height="120.201" filterUnits="userSpaceOnUse" color-interpolation-filters="sRGB">
<feFlood flood-opacity="0" result="BackgroundImageFix"/>
<feBlend mode="normal" in="SourceGraphic" in2="BackgroundImageFix" result="shape"/>
<feGaussianBlur stdDeviation="1" result="effect1_foregroundBlur_1552_698"/>
</filter>
<filter id="filter10_d_1552_698" x="178.384" y="68.2142" width="56.6445" height="68.632" filterUnits="userSpaceOnUse" color-interpolation-filters="sRGB">
<feFlood flood-opacity="0" result="BackgroundImageFix"/>
<feColorMatrix in="SourceAlpha" type="matrix" values="0 0 0 0 0 0 0 0 0 0 0 0 0 0 0 0 0 0 127 0" result="hardAlpha"/>
<feOffset dy="4"/>
<feGaussianBlur stdDeviation="2"/>
<feComposite in2="hardAlpha" operator="out"/>
<feColorMatrix type="matrix" values="0 0 0 0 0 0 0 0 0 0 0 0 0 0 0 0 0 0 0.25 0"/>
<feBlend mode="normal" in2="BackgroundImageFix" result="effect1_dropShadow_1552_698"/>
<feBlend mode="normal" in="SourceGraphic" in2="effect1_dropShadow_1552_698" result="shape"/>
</filter>
<linearGradient id="paint0_linear_1552_698" x1="63.7122" y1="140.206" x2="356.06" y2="138.061" gradientUnits="userSpaceOnUse">
<stop stop-color="#DA8FEF"/>
<stop offset="1" stop-color="#2D1247"/>
</linearGradient>
<linearGradient id="paint1_linear_1552_698" x1="136.473" y1="36.3068" x2="183.783" y2="154.506" gradientUnits="userSpaceOnUse">
<stop stop-color="#FFE0FE"/>
<stop offset="0.798314" stop-color="#C788E6"/>
</linearGradient>
<linearGradient id="paint2_linear_1552_698" x1="67.2284" y1="137.299" x2="354.473" y2="135.192" gradientUnits="userSpaceOnUse">
<stop stop-color="#DA8FEF"/>
<stop offset="1" stop-color="#2D1247"/>
</linearGradient>
<linearGradient id="paint3_linear_1552_698" x1="138.719" y1="35.2142" x2="185.203" y2="151.35" gradientUnits="userSpaceOnUse">
<stop stop-color="#FFE0FE"/>
<stop offset="0.798314" stop-color="#C788E6"/>
</linearGradient>
</defs>
</svg>
