<svg width="378" height="225" viewBox="0 0 378 225" fill="none" xmlns="http://www.w3.org/2000/svg">
<g style="mix-blend-mode:plus-lighter" filter="url(#filter0_f_1550_596)">
<g filter="url(#filter1_d_1550_596)">
<ellipse cx="188.797" cy="118.452" rx="148.455" ry="65.8305" transform="rotate(-3.30777 188.797 118.452)" fill="url(#paint0_linear_1550_596)"/>
<g filter="url(#filter2_f_1550_596)">
<ellipse cx="188.564" cy="114.429" rx="148.455" ry="65.8305" transform="rotate(-3.30777 188.564 114.429)" fill="#603F76"/>
</g>
<g filter="url(#filter3_f_1550_596)">
<ellipse cx="187.905" cy="103.028" rx="136.363" ry="62.4718" transform="rotate(-3.30777 187.905 103.028)" fill="#9E5DA8"/>
</g>
<g filter="url(#filter4_f_1550_596)">
<ellipse cx="188.149" cy="95.6125" rx="127.631" ry="55.0827" transform="rotate(-3.30777 188.149 95.6125)" fill="url(#paint1_linear_1550_596)"/>
</g>
</g>
<g filter="url(#filter5_d_1550_596)">
<path d="M167.383 111.481L166.766 102.458L186.95 65.2675L194.73 64.7351L195.584 77.2244L190.98 77.5395L178.263 101.086L178.292 101.51L210.441 99.3094L211.07 108.491L167.383 111.481ZM194.046 119.227L193.206 106.949L193.144 102.939L190.549 65.0212L201.292 64.286L205 118.477L194.046 119.227Z" fill="white"/>
</g>
</g>
<g filter="url(#filter6_d_1550_596)">
<ellipse cx="190.104" cy="115.865" rx="145.804" ry="64.6549" transform="rotate(-3.30777 190.104 115.865)" fill="url(#paint2_linear_1550_596)"/>
<g filter="url(#filter7_f_1550_596)">
<ellipse cx="189.876" cy="111.913" rx="145.804" ry="64.6549" transform="rotate(-3.30777 189.876 111.913)" fill="#603F76"/>
</g>
<g filter="url(#filter8_f_1550_596)">
<ellipse cx="189.228" cy="100.716" rx="133.928" ry="61.3562" transform="rotate(-3.30777 189.228 100.716)" fill="#9E5DA8"/>
</g>
<g filter="url(#filter9_f_1550_596)">
<ellipse cx="189.468" cy="93.4331" rx="125.351" ry="54.099" transform="rotate(-3.30777 189.468 93.4331)" fill="url(#paint3_linear_1550_596)"/>
</g>
</g>
<g filter="url(#filter10_d_1550_596)">
<path d="M190.766 118.966C186.815 119.237 183.249 118.798 180.069 117.651C176.906 116.485 174.351 114.764 172.405 112.487C170.476 110.191 169.376 107.466 169.107 104.312L180.644 103.522C180.805 104.84 181.317 105.975 182.18 106.926C183.059 107.859 184.187 108.552 185.566 109.007C186.944 109.462 188.471 109.633 190.146 109.518C191.893 109.398 193.415 108.984 194.714 108.275C196.012 107.566 197.003 106.638 197.687 105.493C198.37 104.347 198.663 103.06 198.566 101.631C198.467 100.185 197.973 98.9334 197.086 97.8776C196.215 96.8029 195.008 95.9994 193.465 95.467C191.94 94.9333 190.154 94.7365 188.108 94.8766L183.054 95.2225L182.478 86.8081L187.532 86.4622C189.26 86.3439 190.766 85.9395 192.048 85.2492C193.347 84.5577 194.331 83.6574 195 82.5483C195.667 81.4215 195.952 80.1437 195.854 78.7148C195.761 77.3565 195.353 76.1882 194.631 75.2097C193.924 74.2124 192.969 73.4625 191.765 72.96C190.579 72.4564 189.218 72.2571 187.683 72.3621C186.131 72.4684 184.73 72.8478 183.481 73.5004C182.231 74.1354 181.253 74.991 180.546 76.0672C179.84 77.1435 179.508 78.3714 179.549 79.751L168.568 80.5025C168.407 77.3766 169.11 74.5637 170.675 72.064C172.241 69.5642 174.442 67.5438 177.279 66.0027C180.132 64.4428 183.411 63.5361 187.115 63.2826C190.855 63.0266 194.174 63.4818 197.071 64.6482C199.969 65.8145 202.273 67.5 203.984 69.7046C205.711 71.8904 206.663 74.4128 206.841 77.2717C207.066 80.3046 206.296 82.9006 204.529 85.0596C202.781 87.2174 200.408 88.6736 197.411 89.4281L197.44 89.8514C201.462 90.0902 204.591 91.2673 206.827 93.3828C209.08 95.4794 210.312 98.213 210.525 101.583C210.754 104.669 210.051 107.473 208.416 109.996C206.798 112.517 204.467 114.572 201.421 116.163C198.375 117.754 194.824 118.688 190.766 118.966Z" fill="white"/>
</g>
<ellipse cx="187.39" cy="110.694" rx="147.13" ry="71.0352" transform="rotate(-4.63567 187.39 110.694)" fill="black" fill-opacity="0.4"/>
<defs>
<filter id="filter0_f_1550_596" x="0.307373" y="0.124268" width="376.746" height="224.612" filterUnits="userSpaceOnUse" color-interpolation-filters="sRGB">
<feFlood flood-opacity="0" result="BackgroundImageFix"/>
<feBlend mode="normal" in="SourceGraphic" in2="BackgroundImageFix" result="shape"/>
<feGaussianBlur stdDeviation="20" result="effect1_foregroundBlur_1550_596"/>
</filter>
<filter id="filter1_d_1550_596" x="36.3074" y="40.1243" width="304.746" height="158.612" filterUnits="userSpaceOnUse" color-interpolation-filters="sRGB">
<feFlood flood-opacity="0" result="BackgroundImageFix"/>
<feColorMatrix in="SourceAlpha" type="matrix" values="0 0 0 0 0 0 0 0 0 0 0 0 0 0 0 0 0 0 127 0" result="hardAlpha"/>
<feOffset dy="10"/>
<feGaussianBlur stdDeviation="2"/>
<feComposite in2="hardAlpha" operator="out"/>
<feColorMatrix type="matrix" values="0 0 0 0 0 0 0 0 0 0 0 0 0 0 0 0 0 0 0.4 0"/>
<feBlend mode="normal" in2="BackgroundImageFix" result="effect1_dropShadow_1550_596"/>
<feBlend mode="normal" in="SourceGraphic" in2="effect1_dropShadow_1550_596" result="shape"/>
</filter>
<filter id="filter2_f_1550_596" x="36.3074" y="44.1448" width="304.514" height="140.568" filterUnits="userSpaceOnUse" color-interpolation-filters="sRGB">
<feFlood flood-opacity="0" result="BackgroundImageFix"/>
<feBlend mode="normal" in="SourceGraphic" in2="BackgroundImageFix" result="shape"/>
<feGaussianBlur stdDeviation="2" result="effect1_foregroundBlur_1550_596"/>
</filter>
<filter id="filter3_f_1550_596" x="47.7205" y="36.1594" width="280.369" height="133.738" filterUnits="userSpaceOnUse" color-interpolation-filters="sRGB">
<feFlood flood-opacity="0" result="BackgroundImageFix"/>
<feBlend mode="normal" in="SourceGraphic" in2="BackgroundImageFix" result="shape"/>
<feGaussianBlur stdDeviation="2" result="effect1_foregroundBlur_1550_596"/>
</filter>
<filter id="filter4_f_1550_596" x="58.6909" y="38.1243" width="258.917" height="114.977" filterUnits="userSpaceOnUse" color-interpolation-filters="sRGB">
<feFlood flood-opacity="0" result="BackgroundImageFix"/>
<feBlend mode="normal" in="SourceGraphic" in2="BackgroundImageFix" result="shape"/>
<feGaussianBlur stdDeviation="1" result="effect1_foregroundBlur_1550_596"/>
</filter>
<filter id="filter5_d_1550_596" x="160.327" y="63.826" width="55.3948" height="65.1805" filterUnits="userSpaceOnUse" color-interpolation-filters="sRGB">
<feFlood flood-opacity="0" result="BackgroundImageFix"/>
<feColorMatrix in="SourceAlpha" type="matrix" values="0 0 0 0 0 0 0 0 0 0 0 0 0 0 0 0 0 0 127 0" result="hardAlpha"/>
<feOffset dy="4"/>
<feGaussianBlur stdDeviation="2"/>
<feComposite in2="hardAlpha" operator="out"/>
<feColorMatrix type="matrix" values="0 0 0 0 0 0 0 0 0 0 0 0 0 0 0 0 0 0 0.25 0"/>
<feBlend mode="normal" in2="BackgroundImageFix" result="effect1_dropShadow_1550_596"/>
<feBlend mode="normal" in="SourceGraphic" in2="effect1_dropShadow_1550_596" result="shape"/>
</filter>
<filter id="filter6_d_1550_596" x="40.2664" y="38.9357" width="299.447" height="156.03" filterUnits="userSpaceOnUse" color-interpolation-filters="sRGB">
<feFlood flood-opacity="0" result="BackgroundImageFix"/>
<feColorMatrix in="SourceAlpha" type="matrix" values="0 0 0 0 0 0 0 0 0 0 0 0 0 0 0 0 0 0 127 0" result="hardAlpha"/>
<feOffset dy="10"/>
<feGaussianBlur stdDeviation="2"/>
<feComposite in2="hardAlpha" operator="out"/>
<feColorMatrix type="matrix" values="0 0 0 0 0 0 0 0 0 0 0 0 0 0 0 0 0 0 0.4 0"/>
<feBlend mode="normal" in2="BackgroundImageFix" result="effect1_dropShadow_1550_596"/>
<feBlend mode="normal" in="SourceGraphic" in2="effect1_dropShadow_1550_596" result="shape"/>
</filter>
<filter id="filter7_f_1550_596" x="40.2664" y="42.813" width="299.219" height="138.201" filterUnits="userSpaceOnUse" color-interpolation-filters="sRGB">
<feFlood flood-opacity="0" result="BackgroundImageFix"/>
<feBlend mode="normal" in="SourceGraphic" in2="BackgroundImageFix" result="shape"/>
<feGaussianBlur stdDeviation="2" result="effect1_foregroundBlur_1550_596"/>
</filter>
<filter id="filter8_f_1550_596" x="51.4756" y="34.9702" width="275.506" height="131.492" filterUnits="userSpaceOnUse" color-interpolation-filters="sRGB">
<feFlood flood-opacity="0" result="BackgroundImageFix"/>
<feBlend mode="normal" in="SourceGraphic" in2="BackgroundImageFix" result="shape"/>
<feGaussianBlur stdDeviation="2" result="effect1_foregroundBlur_1550_596"/>
</filter>
<filter id="filter9_f_1550_596" x="62.2859" y="36.9357" width="254.365" height="112.995" filterUnits="userSpaceOnUse" color-interpolation-filters="sRGB">
<feFlood flood-opacity="0" result="BackgroundImageFix"/>
<feBlend mode="normal" in="SourceGraphic" in2="BackgroundImageFix" result="shape"/>
<feGaussianBlur stdDeviation="1" result="effect1_foregroundBlur_1550_596"/>
</filter>
<filter id="filter10_d_1550_596" x="162.396" y="61.8646" width="53.2471" height="66.5084" filterUnits="userSpaceOnUse" color-interpolation-filters="sRGB">
<feFlood flood-opacity="0" result="BackgroundImageFix"/>
<feColorMatrix in="SourceAlpha" type="matrix" values="0 0 0 0 0 0 0 0 0 0 0 0 0 0 0 0 0 0 127 0" result="hardAlpha"/>
<feOffset dy="4"/>
<feGaussianBlur stdDeviation="2"/>
<feComposite in2="hardAlpha" operator="out"/>
<feColorMatrix type="matrix" values="0 0 0 0 0 0 0 0 0 0 0 0 0 0 0 0 0 0 0.25 0"/>
<feBlend mode="normal" in2="BackgroundImageFix" result="effect1_dropShadow_1550_596"/>
<feBlend mode="normal" in="SourceGraphic" in2="effect1_dropShadow_1550_596" result="shape"/>
</filter>
<linearGradient id="paint0_linear_1550_596" x1="62.5097" y1="133.902" x2="337.251" y2="131.887" gradientUnits="userSpaceOnUse">
<stop stop-color="#DA8FEF"/>
<stop offset="1" stop-color="#2D1247"/>
</linearGradient>
<linearGradient id="paint1_linear_1550_596" x1="132.674" y1="55.1278" x2="154.477" y2="139.31" gradientUnits="userSpaceOnUse">
<stop stop-color="#F497F3"/>
<stop offset="0.882913" stop-color="#B16BD4"/>
</linearGradient>
<linearGradient id="paint2_linear_1550_596" x1="66.0722" y1="131.039" x2="335.908" y2="129.06" gradientUnits="userSpaceOnUse">
<stop stop-color="#DA8FEF"/>
<stop offset="1" stop-color="#2D1247"/>
</linearGradient>
<linearGradient id="paint3_linear_1550_596" x1="134.983" y1="53.6713" x2="156.397" y2="136.35" gradientUnits="userSpaceOnUse">
<stop stop-color="#F497F3"/>
<stop offset="0.882913" stop-color="#B16BD4"/>
</linearGradient>
</defs>
</svg>
