<svg width="378" height="225" viewBox="0 0 378 225" fill="none" xmlns="http://www.w3.org/2000/svg">
<g style="mix-blend-mode:plus-lighter" filter="url(#filter0_f_788_834)">
<g filter="url(#filter1_d_788_834)">
<ellipse cx="188.901" cy="118.931" rx="148.542" ry="65.8695" transform="rotate(1.97922 188.901 118.931)" fill="url(#paint0_linear_788_834)"/>
<g filter="url(#filter2_f_788_834)">
<ellipse cx="189.041" cy="114.901" rx="148.542" ry="65.8695" transform="rotate(1.97922 189.041 114.901)" fill="#603F76"/>
</g>
<g filter="url(#filter3_f_788_834)">
<ellipse cx="189.435" cy="103.481" rx="136.444" ry="62.5088" transform="rotate(1.97922 189.435 103.481)" fill="#9E5DA8"/>
</g>
<g filter="url(#filter4_f_788_834)">
<ellipse cx="190.362" cy="96.1153" rx="127.706" ry="55.1153" transform="rotate(1.97922 190.362 96.1153)" fill="url(#paint1_linear_788_834)"/>
</g>
</g>
<g filter="url(#filter5_d_788_834)">
<path d="M188.725 123.658C184.985 123.404 181.698 122.489 178.863 120.914C176.046 119.34 173.864 117.286 172.317 114.753C170.771 112.22 170.068 109.39 170.21 106.263L181.324 107.019C181.304 109.126 182.071 110.889 183.622 112.306C185.174 113.723 187.079 114.508 189.337 114.662C191.136 114.784 192.751 114.495 194.181 113.795C195.63 113.078 196.791 112.032 197.664 110.656C198.557 109.263 199.066 107.632 199.194 105.762C199.323 103.857 199.031 102.153 198.318 100.652C197.623 99.1511 196.597 97.9471 195.241 97.0396C193.885 96.1322 192.299 95.6078 190.483 95.4665C188.896 95.3585 187.33 95.5799 185.786 96.1306C184.26 96.6825 183.044 97.4947 182.138 98.5673L172.075 96.0485L176.585 67.6451L209.715 69.8988L209.078 79.2661L185.395 77.655L183.069 91.1341L183.386 91.1557C184.43 89.8798 185.944 88.8663 187.926 88.115C189.909 87.3638 192.091 87.0692 194.473 87.2312C197.736 87.4532 200.595 88.4186 203.048 90.1274C205.502 91.8361 207.378 94.0816 208.678 96.8638C209.978 99.6284 210.502 102.748 210.248 106.222C210.017 109.875 208.949 113.063 207.045 115.787C205.159 118.494 202.636 120.555 199.473 121.971C196.33 123.369 192.747 123.932 188.725 123.658Z" fill="white"/>
</g>
</g>
<g filter="url(#filter6_d_788_834)">
<ellipse cx="187.517" cy="117.301" rx="145.804" ry="64.6549" transform="rotate(1.97922 187.517 117.301)" fill="url(#paint2_linear_788_834)"/>
<g filter="url(#filter7_f_788_834)">
<ellipse cx="187.653" cy="113.345" rx="145.804" ry="64.6549" transform="rotate(1.97922 187.653 113.345)" fill="#603F76"/>
</g>
<g filter="url(#filter8_f_788_834)">
<ellipse cx="188.041" cy="102.136" rx="133.928" ry="61.3562" transform="rotate(1.97922 188.041 102.136)" fill="#9E5DA8"/>
</g>
<g filter="url(#filter9_f_788_834)">
<ellipse cx="188.95" cy="94.9055" rx="125.351" ry="54.099" transform="rotate(1.97922 188.95 94.9055)" fill="url(#paint3_linear_788_834)"/>
</g>
</g>
<g filter="url(#filter10_d_788_834)">
<path d="M187.698 123.309C183.959 123.055 180.671 122.14 177.837 120.565C175.019 118.991 172.837 116.937 171.291 114.404C169.744 111.871 169.042 109.041 169.183 105.914L180.297 106.67C180.278 108.777 181.044 110.54 182.596 111.957C184.148 113.374 186.052 114.159 188.31 114.313C190.11 114.435 191.724 114.146 193.154 113.446C194.603 112.729 195.764 111.683 196.638 110.307C197.53 108.914 198.04 107.283 198.167 105.413C198.297 103.508 198.005 101.804 197.292 100.303C196.596 98.802 195.571 97.598 194.215 96.6905C192.859 95.783 191.273 95.2587 189.457 95.1174C187.869 95.0094 186.303 95.2308 184.759 95.7815C183.233 96.3334 182.017 97.1456 181.111 98.2182L171.048 95.6993L175.559 67.2959L208.688 69.5497L208.051 78.917L184.368 77.3058L182.042 90.785L182.36 90.8066C183.404 89.5307 184.917 88.5171 186.9 87.7659C188.883 87.0147 191.065 86.7201 193.446 86.8821C196.71 87.1041 199.568 88.0695 202.022 89.7782C204.475 91.487 206.352 93.7325 207.651 96.5147C208.952 99.2792 209.475 102.399 209.221 105.873C208.99 109.525 207.923 112.714 206.018 115.437C204.133 118.145 201.609 120.206 198.447 121.621C195.303 123.02 191.721 123.583 187.698 123.309Z" fill="white"/>
</g>
<defs>
<filter id="filter0_f_788_834" x="0.429932" y="0.829224" width="377.082" height="224.135" filterUnits="userSpaceOnUse" color-interpolation-filters="sRGB">
<feFlood flood-opacity="0" result="BackgroundImageFix"/>
<feBlend mode="normal" in="SourceGraphic" in2="BackgroundImageFix" result="shape"/>
<feGaussianBlur stdDeviation="20" result="effect1_foregroundBlur_788_834"/>
</filter>
<filter id="filter1_d_788_834" x="36.4299" y="40.8292" width="305.082" height="158.135" filterUnits="userSpaceOnUse" color-interpolation-filters="sRGB">
<feFlood flood-opacity="0" result="BackgroundImageFix"/>
<feColorMatrix in="SourceAlpha" type="matrix" values="0 0 0 0 0 0 0 0 0 0 0 0 0 0 0 0 0 0 127 0" result="hardAlpha"/>
<feOffset dy="10"/>
<feGaussianBlur stdDeviation="2"/>
<feComposite in2="hardAlpha" operator="out"/>
<feColorMatrix type="matrix" values="0 0 0 0 0 0 0 0 0 0 0 0 0 0 0 0 0 0 0.4 0"/>
<feBlend mode="normal" in2="BackgroundImageFix" result="effect1_dropShadow_788_834"/>
<feBlend mode="normal" in="SourceGraphic" in2="effect1_dropShadow_788_834" result="shape"/>
</filter>
<filter id="filter2_f_788_834" x="36.5691" y="44.8677" width="304.943" height="140.066" filterUnits="userSpaceOnUse" color-interpolation-filters="sRGB">
<feFlood flood-opacity="0" result="BackgroundImageFix"/>
<feBlend mode="normal" in="SourceGraphic" in2="BackgroundImageFix" result="shape"/>
<feGaussianBlur stdDeviation="2" result="effect1_foregroundBlur_788_834"/>
</filter>
<filter id="filter3_f_788_834" x="49.0554" y="36.8292" width="280.76" height="133.304" filterUnits="userSpaceOnUse" color-interpolation-filters="sRGB">
<feFlood flood-opacity="0" result="BackgroundImageFix"/>
<feBlend mode="normal" in="SourceGraphic" in2="BackgroundImageFix" result="shape"/>
<feGaussianBlur stdDeviation="2" result="effect1_foregroundBlur_788_834"/>
</filter>
<filter id="filter4_f_788_834" x="60.7175" y="38.8538" width="259.289" height="114.523" filterUnits="userSpaceOnUse" color-interpolation-filters="sRGB">
<feFlood flood-opacity="0" result="BackgroundImageFix"/>
<feBlend mode="normal" in="SourceGraphic" in2="BackgroundImageFix" result="shape"/>
<feGaussianBlur stdDeviation="1" result="effect1_foregroundBlur_788_834"/>
</filter>
<filter id="filter5_d_788_834" x="165.117" y="67.3912" width="51.614" height="65.6461" filterUnits="userSpaceOnUse" color-interpolation-filters="sRGB">
<feFlood flood-opacity="0" result="BackgroundImageFix"/>
<feColorMatrix in="SourceAlpha" type="matrix" values="0 0 0 0 0 0 0 0 0 0 0 0 0 0 0 0 0 0 127 0" result="hardAlpha"/>
<feOffset dy="4"/>
<feGaussianBlur stdDeviation="2"/>
<feComposite in2="hardAlpha" operator="out"/>
<feColorMatrix type="matrix" values="0 0 0 0 0 0 0 0 0 0 0 0 0 0 0 0 0 0 0.25 0"/>
<feBlend mode="normal" in2="BackgroundImageFix" result="effect1_dropShadow_788_834"/>
<feBlend mode="normal" in="SourceGraphic" in2="effect1_dropShadow_788_834" result="shape"/>
</filter>
<filter id="filter6_d_788_834" x="37.7825" y="40.6389" width="299.605" height="155.477" filterUnits="userSpaceOnUse" color-interpolation-filters="sRGB">
<feFlood flood-opacity="0" result="BackgroundImageFix"/>
<feColorMatrix in="SourceAlpha" type="matrix" values="0 0 0 0 0 0 0 0 0 0 0 0 0 0 0 0 0 0 127 0" result="hardAlpha"/>
<feOffset dy="10"/>
<feGaussianBlur stdDeviation="2"/>
<feComposite in2="hardAlpha" operator="out"/>
<feColorMatrix type="matrix" values="0 0 0 0 0 0 0 0 0 0 0 0 0 0 0 0 0 0 0.4 0"/>
<feBlend mode="normal" in2="BackgroundImageFix" result="effect1_dropShadow_788_834"/>
<feBlend mode="normal" in="SourceGraphic" in2="effect1_dropShadow_788_834" result="shape"/>
</filter>
<filter id="filter7_f_788_834" x="37.9192" y="44.5291" width="299.468" height="137.631" filterUnits="userSpaceOnUse" color-interpolation-filters="sRGB">
<feFlood flood-opacity="0" result="BackgroundImageFix"/>
<feBlend mode="normal" in="SourceGraphic" in2="BackgroundImageFix" result="shape"/>
<feGaussianBlur stdDeviation="2" result="effect1_foregroundBlur_788_834"/>
</filter>
<filter id="filter8_f_788_834" x="50.1753" y="36.6389" width="275.731" height="130.993" filterUnits="userSpaceOnUse" color-interpolation-filters="sRGB">
<feFlood flood-opacity="0" result="BackgroundImageFix"/>
<feBlend mode="normal" in="SourceGraphic" in2="BackgroundImageFix" result="shape"/>
<feGaussianBlur stdDeviation="2" result="effect1_foregroundBlur_788_834"/>
</filter>
<filter id="filter9_f_788_834" x="61.6594" y="38.663" width="254.582" height="112.485" filterUnits="userSpaceOnUse" color-interpolation-filters="sRGB">
<feFlood flood-opacity="0" result="BackgroundImageFix"/>
<feBlend mode="normal" in="SourceGraphic" in2="BackgroundImageFix" result="shape"/>
<feGaussianBlur stdDeviation="1" result="effect1_foregroundBlur_788_834"/>
</filter>
<filter id="filter10_d_788_834" x="164.091" y="67.0421" width="51.614" height="65.6461" filterUnits="userSpaceOnUse" color-interpolation-filters="sRGB">
<feFlood flood-opacity="0" result="BackgroundImageFix"/>
<feColorMatrix in="SourceAlpha" type="matrix" values="0 0 0 0 0 0 0 0 0 0 0 0 0 0 0 0 0 0 127 0" result="hardAlpha"/>
<feOffset dy="4"/>
<feGaussianBlur stdDeviation="2"/>
<feComposite in2="hardAlpha" operator="out"/>
<feColorMatrix type="matrix" values="0 0 0 0 0 0 0 0 0 0 0 0 0 0 0 0 0 0 0.25 0"/>
<feBlend mode="normal" in2="BackgroundImageFix" result="effect1_dropShadow_788_834"/>
<feBlend mode="normal" in="SourceGraphic" in2="effect1_dropShadow_788_834" result="shape"/>
</filter>
<linearGradient id="paint0_linear_788_834" x1="62.5396" y1="134.39" x2="337.444" y2="132.374" gradientUnits="userSpaceOnUse">
<stop stop-color="#DA8FEF"/>
<stop offset="1" stop-color="#2D1247"/>
</linearGradient>
<linearGradient id="paint1_linear_788_834" x1="99.892" y1="30.642" x2="166.34" y2="165.402" gradientUnits="userSpaceOnUse">
<stop stop-color="#F497F3"/>
<stop offset="0.730303" stop-color="#B16BD4"/>
</linearGradient>
<linearGradient id="paint2_linear_788_834" x1="63.4845" y1="132.475" x2="333.32" y2="130.496" gradientUnits="userSpaceOnUse">
<stop stop-color="#DA8FEF"/>
<stop offset="1" stop-color="#2D1247"/>
</linearGradient>
<linearGradient id="paint3_linear_788_834" x1="100.148" y1="30.6394" x2="165.371" y2="162.915" gradientUnits="userSpaceOnUse">
<stop stop-color="#F497F3"/>
<stop offset="0.730303" stop-color="#B16BD4"/>
</linearGradient>
</defs>
</svg>
