<svg width="399" height="237" viewBox="0 0 399 237" fill="none" xmlns="http://www.w3.org/2000/svg">
<g style="mix-blend-mode:plus-lighter" filter="url(#filter0_f_1552_678)">
<g filter="url(#filter1_d_1552_678)">
<ellipse cx="199.56" cy="124.86" rx="158.94" ry="70.4801" transform="rotate(-4.96179 199.56 124.86)" fill="url(#paint0_linear_1552_678)"/>
<g filter="url(#filter2_f_1552_678)">
<ellipse cx="199.187" cy="120.561" rx="158.94" ry="70.4801" transform="rotate(-4.96179 199.187 120.561)" fill="#603F76"/>
</g>
<g filter="url(#filter3_f_1552_678)">
<ellipse cx="198.129" cy="108.381" rx="145.995" ry="66.8842" transform="rotate(-4.96179 198.129 108.381)" fill="#9E5DA8"/>
</g>
<g filter="url(#filter4_f_1552_678)">
<ellipse cx="198.161" cy="100.437" rx="136.645" ry="58.9732" transform="rotate(-4.96179 198.161 100.437)" fill="url(#paint1_linear_1552_678)"/>
</g>
</g>
<g filter="url(#filter5_d_1552_678)">
<path d="M203.071 128.288C199.146 128.82 195.56 128.619 192.31 127.686C189.076 126.733 186.413 125.184 184.32 123.041C182.243 120.879 180.965 118.233 180.487 115.103L191.946 113.55C192.194 114.854 192.78 115.953 193.704 116.844C194.643 117.716 195.815 118.334 197.221 118.696C198.626 119.059 200.161 119.127 201.825 118.902C203.56 118.666 205.052 118.152 206.3 117.358C207.548 116.564 208.476 115.573 209.082 114.385C209.688 113.196 209.895 111.892 209.702 110.473C209.508 109.036 208.932 107.821 207.977 106.826C207.036 105.812 205.779 105.09 204.204 104.661C202.646 104.23 200.852 104.152 198.819 104.428L193.799 105.108L192.666 96.7508L197.686 96.0702C199.403 95.8374 200.878 95.3341 202.112 94.5602C203.362 93.7839 204.285 92.8202 204.878 91.6692C205.469 90.5006 205.668 89.2067 205.476 87.7875C205.293 86.4384 204.808 85.2996 204.022 84.3713C203.251 83.4231 202.248 82.7383 201.014 82.3169C199.796 81.8931 198.426 81.7845 196.901 81.9912C195.359 82.2002 193.987 82.6718 192.784 83.4059C191.578 84.1225 190.659 85.0412 190.026 86.1619C189.393 87.2827 189.143 88.5299 189.275 89.9037L178.368 91.3825C178.001 88.2742 178.515 85.4209 179.911 82.8227C181.308 80.2245 183.37 78.0625 186.098 76.3365C188.841 74.5906 192.052 73.4683 195.732 72.9694C199.446 72.4658 202.788 72.6997 205.756 73.6711C208.725 74.6425 211.136 76.1713 212.989 78.2575C214.857 80.3239 215.975 82.7774 216.343 85.6182C216.769 88.6295 216.172 91.2709 214.553 93.5424C212.952 95.8115 210.681 97.422 207.741 98.3737L207.798 98.7942C211.826 98.7655 215.027 99.7323 217.398 101.695C219.785 103.637 221.196 106.283 221.633 109.632C222.066 112.696 221.55 115.54 220.086 118.165C218.64 120.788 216.45 122.994 213.516 124.784C210.583 126.573 207.101 127.741 203.071 128.288Z" fill="white"/>
</g>
</g>
<g filter="url(#filter6_d_1552_678)">
<ellipse cx="199.675" cy="125.587" rx="155.21" ry="68.8263" transform="rotate(-4.96179 199.675 125.587)" fill="url(#paint2_linear_1552_678)"/>
<g filter="url(#filter7_f_1552_678)">
<ellipse cx="199.311" cy="121.389" rx="155.21" ry="68.8263" transform="rotate(-4.96179 199.311 121.389)" fill="#603F76"/>
</g>
<g filter="url(#filter8_f_1552_678)">
<ellipse cx="198.278" cy="109.494" rx="142.569" ry="65.3147" transform="rotate(-4.96179 198.278 109.494)" fill="#9E5DA8"/>
</g>
<g filter="url(#filter9_f_1552_678)">
<ellipse cx="198.309" cy="101.737" rx="133.439" ry="57.5894" transform="rotate(-4.96179 198.309 101.737)" fill="url(#paint3_linear_1552_678)"/>
</g>
</g>
<g filter="url(#filter10_d_1552_678)">
<path d="M183.907 132.51L182.796 124.31L199.55 103.972C200.965 102.175 202.14 100.57 203.072 99.1589C204.023 97.7453 204.705 96.3949 205.119 95.1075C205.531 93.8026 205.641 92.4406 205.449 91.0214C205.235 89.4445 204.692 88.1353 203.819 87.0938C202.944 86.0348 201.842 85.283 200.515 84.8384C199.186 84.3763 197.733 84.2522 196.156 84.466C194.509 84.6893 193.117 85.217 191.981 86.0491C190.845 86.8812 190.028 87.9644 189.531 89.2987C189.034 90.6329 188.901 92.1586 189.134 93.8757L178.332 95.3402C177.855 91.8185 178.238 88.6529 179.48 85.8436C180.723 83.0343 182.685 80.7252 185.366 78.9164C188.047 77.1076 191.263 75.949 195.012 75.4406C198.867 74.918 202.315 75.1464 205.356 76.1258C208.412 77.0854 210.901 78.6572 212.821 80.8415C214.74 83.0257 215.911 85.6684 216.331 88.7697C216.607 90.8021 216.476 92.863 215.938 94.9521C215.418 97.0389 214.306 99.4291 212.601 102.123C210.894 104.799 208.42 108.069 205.179 111.935L198.365 120.701L198.415 121.069L221.017 118.004L222.279 127.308L183.907 132.51Z" fill="white"/>
</g>
<ellipse cx="198.549" cy="118.615" rx="152.025" ry="77.0428" transform="rotate(-4.45338 198.549 118.615)" fill="black" fill-opacity="0.4"/>
<defs>
<filter id="filter0_f_1552_678" x="0.7229" y="0.496338" width="397.301" height="235.926" filterUnits="userSpaceOnUse" color-interpolation-filters="sRGB">
<feFlood flood-opacity="0" result="BackgroundImageFix"/>
<feBlend mode="normal" in="SourceGraphic" in2="BackgroundImageFix" result="shape"/>
<feGaussianBlur stdDeviation="20" result="effect1_foregroundBlur_1552_678"/>
</filter>
<filter id="filter1_d_1552_678" x="36.7229" y="40.4963" width="325.301" height="169.926" filterUnits="userSpaceOnUse" color-interpolation-filters="sRGB">
<feFlood flood-opacity="0" result="BackgroundImageFix"/>
<feColorMatrix in="SourceAlpha" type="matrix" values="0 0 0 0 0 0 0 0 0 0 0 0 0 0 0 0 0 0 127 0" result="hardAlpha"/>
<feOffset dy="10"/>
<feGaussianBlur stdDeviation="2"/>
<feComposite in2="hardAlpha" operator="out"/>
<feColorMatrix type="matrix" values="0 0 0 0 0 0 0 0 0 0 0 0 0 0 0 0 0 0 0.4 0"/>
<feBlend mode="normal" in2="BackgroundImageFix" result="effect1_dropShadow_1552_678"/>
<feBlend mode="normal" in="SourceGraphic" in2="effect1_dropShadow_1552_678" result="shape"/>
</filter>
<filter id="filter2_f_1552_678" x="36.7229" y="44.9983" width="324.928" height="151.125" filterUnits="userSpaceOnUse" color-interpolation-filters="sRGB">
<feFlood flood-opacity="0" result="BackgroundImageFix"/>
<feBlend mode="normal" in="SourceGraphic" in2="BackgroundImageFix" result="shape"/>
<feGaussianBlur stdDeviation="2" result="effect1_foregroundBlur_1552_678"/>
</filter>
<filter id="filter3_f_1552_678" x="48.5647" y="36.5488" width="299.129" height="143.664" filterUnits="userSpaceOnUse" color-interpolation-filters="sRGB">
<feFlood flood-opacity="0" result="BackgroundImageFix"/>
<feBlend mode="normal" in="SourceGraphic" in2="BackgroundImageFix" result="shape"/>
<feGaussianBlur stdDeviation="2" result="effect1_foregroundBlur_1552_678"/>
</filter>
<filter id="filter4_f_1552_678" x="59.9312" y="38.4963" width="276.461" height="123.881" filterUnits="userSpaceOnUse" color-interpolation-filters="sRGB">
<feFlood flood-opacity="0" result="BackgroundImageFix"/>
<feBlend mode="normal" in="SourceGraphic" in2="BackgroundImageFix" result="shape"/>
<feGaussianBlur stdDeviation="1" result="effect1_foregroundBlur_1552_678"/>
</filter>
<filter id="filter5_d_1552_678" x="171.153" y="70.1792" width="56.6548" height="68.8772" filterUnits="userSpaceOnUse" color-interpolation-filters="sRGB">
<feFlood flood-opacity="0" result="BackgroundImageFix"/>
<feColorMatrix in="SourceAlpha" type="matrix" values="0 0 0 0 0 0 0 0 0 0 0 0 0 0 0 0 0 0 127 0" result="hardAlpha"/>
<feOffset dy="4"/>
<feGaussianBlur stdDeviation="2"/>
<feComposite in2="hardAlpha" operator="out"/>
<feColorMatrix type="matrix" values="0 0 0 0 0 0 0 0 0 0 0 0 0 0 0 0 0 0 0.25 0"/>
<feBlend mode="normal" in2="BackgroundImageFix" result="effect1_dropShadow_1552_678"/>
<feBlend mode="normal" in="SourceGraphic" in2="effect1_dropShadow_1552_678" result="shape"/>
</filter>
<filter id="filter6_d_1552_678" x="40.5652" y="43.2029" width="317.855" height="166.267" filterUnits="userSpaceOnUse" color-interpolation-filters="sRGB">
<feFlood flood-opacity="0" result="BackgroundImageFix"/>
<feColorMatrix in="SourceAlpha" type="matrix" values="0 0 0 0 0 0 0 0 0 0 0 0 0 0 0 0 0 0 127 0" result="hardAlpha"/>
<feOffset dy="10"/>
<feGaussianBlur stdDeviation="2"/>
<feComposite in2="hardAlpha" operator="out"/>
<feColorMatrix type="matrix" values="0 0 0 0 0 0 0 0 0 0 0 0 0 0 0 0 0 0 0.4 0"/>
<feBlend mode="normal" in2="BackgroundImageFix" result="effect1_dropShadow_1552_678"/>
<feBlend mode="normal" in="SourceGraphic" in2="effect1_dropShadow_1552_678" result="shape"/>
</filter>
<filter id="filter7_f_1552_678" x="40.5652" y="47.5056" width="317.491" height="147.767" filterUnits="userSpaceOnUse" color-interpolation-filters="sRGB">
<feFlood flood-opacity="0" result="BackgroundImageFix"/>
<feBlend mode="normal" in="SourceGraphic" in2="BackgroundImageFix" result="shape"/>
<feGaussianBlur stdDeviation="2" result="effect1_foregroundBlur_1552_678"/>
</filter>
<filter id="filter8_f_1552_678" x="52.1289" y="39.2544" width="292.298" height="140.48" filterUnits="userSpaceOnUse" color-interpolation-filters="sRGB">
<feFlood flood-opacity="0" result="BackgroundImageFix"/>
<feBlend mode="normal" in="SourceGraphic" in2="BackgroundImageFix" result="shape"/>
<feGaussianBlur stdDeviation="2" result="effect1_foregroundBlur_1552_678"/>
</filter>
<filter id="filter9_f_1552_678" x="63.2756" y="41.2029" width="270.067" height="121.068" filterUnits="userSpaceOnUse" color-interpolation-filters="sRGB">
<feFlood flood-opacity="0" result="BackgroundImageFix"/>
<feBlend mode="normal" in="SourceGraphic" in2="BackgroundImageFix" result="shape"/>
<feGaussianBlur stdDeviation="1" result="effect1_foregroundBlur_1552_678"/>
</filter>
<filter id="filter10_d_1552_678" x="171.984" y="72.7466" width="54.2947" height="67.835" filterUnits="userSpaceOnUse" color-interpolation-filters="sRGB">
<feFlood flood-opacity="0" result="BackgroundImageFix"/>
<feColorMatrix in="SourceAlpha" type="matrix" values="0 0 0 0 0 0 0 0 0 0 0 0 0 0 0 0 0 0 127 0" result="hardAlpha"/>
<feOffset dy="4"/>
<feGaussianBlur stdDeviation="2"/>
<feComposite in2="hardAlpha" operator="out"/>
<feColorMatrix type="matrix" values="0 0 0 0 0 0 0 0 0 0 0 0 0 0 0 0 0 0 0.25 0"/>
<feBlend mode="normal" in2="BackgroundImageFix" result="effect1_dropShadow_1552_678"/>
<feBlend mode="normal" in="SourceGraphic" in2="effect1_dropShadow_1552_678" result="shape"/>
</filter>
<linearGradient id="paint0_linear_1552_678" x1="64.3533" y1="141.401" x2="358.5" y2="139.244" gradientUnits="userSpaceOnUse">
<stop stop-color="#DA8FEF"/>
<stop offset="1" stop-color="#2D1247"/>
</linearGradient>
<linearGradient id="paint1_linear_1552_678" x1="146.237" y1="57.6049" x2="170.466" y2="168.844" gradientUnits="userSpaceOnUse">
<stop stop-color="#FFE0FE"/>
<stop offset="0.882121" stop-color="#C788E6"/>
</linearGradient>
<linearGradient id="paint2_linear_1552_678" x1="67.641" y1="141.74" x2="354.885" y2="139.633" gradientUnits="userSpaceOnUse">
<stop stop-color="#DA8FEF"/>
<stop offset="1" stop-color="#2D1247"/>
</linearGradient>
<linearGradient id="paint3_linear_1552_678" x1="147.603" y1="59.91" x2="171.264" y2="168.539" gradientUnits="userSpaceOnUse">
<stop stop-color="#FFE0FE"/>
<stop offset="0.882121" stop-color="#C788E6"/>
</linearGradient>
</defs>
</svg>
