<svg width="398" height="236" viewBox="0 0 398 236" fill="none" xmlns="http://www.w3.org/2000/svg">
<g style="mix-blend-mode:plus-lighter" filter="url(#filter0_f_1552_679)">
<g filter="url(#filter1_d_1552_679)">
<ellipse cx="199.05" cy="124.388" rx="158.94" ry="70.4801" transform="rotate(-3.38176 199.05 124.388)" fill="url(#paint0_linear_1552_679)"/>
<g filter="url(#filter2_f_1552_679)">
<ellipse cx="198.795" cy="120.08" rx="158.94" ry="70.4801" transform="rotate(-3.38176 198.795 120.08)" fill="#603F76"/>
</g>
<g filter="url(#filter3_f_1552_679)">
<ellipse cx="198.074" cy="107.875" rx="145.995" ry="66.8842" transform="rotate(-3.38176 198.074 107.875)" fill="#9E5DA8"/>
</g>
<g filter="url(#filter4_f_1552_679)">
<ellipse cx="198.325" cy="99.9357" rx="136.645" ry="58.9732" transform="rotate(-3.38176 198.325 99.9357)" fill="url(#paint1_linear_1552_679)"/>
</g>
</g>
<g filter="url(#filter5_d_1552_679)">
<path d="M202.465 127.911C198.527 128.335 194.947 128.036 191.725 127.013C188.519 125.971 185.899 124.35 183.866 122.15C181.849 119.931 180.645 117.25 180.254 114.109L191.751 112.872C191.963 114.183 192.519 115.297 193.418 116.214C194.332 117.112 195.487 117.761 196.882 118.162C198.276 118.563 199.809 118.674 201.479 118.494C203.219 118.307 204.724 117.834 205.994 117.075C207.264 116.316 208.218 115.351 208.857 114.179C209.496 113.008 209.738 111.71 209.585 110.286C209.43 108.845 208.889 107.614 207.961 106.593C207.049 105.553 205.811 104.797 204.249 104.325C202.704 103.851 200.912 103.724 198.873 103.943L193.836 104.485L192.934 96.0995L197.971 95.5576C199.693 95.3722 201.182 94.9097 202.436 94.1702C203.708 93.4287 204.656 92.4908 205.281 91.3566C205.904 90.2047 206.139 88.9168 205.986 87.4928C205.84 86.1392 205.387 84.9875 204.627 84.0379C203.882 83.0687 202.899 82.3565 201.676 81.9012C200.471 81.444 199.104 81.2977 197.574 81.4623C196.027 81.6288 194.642 82.0623 193.419 82.763C192.195 83.446 191.251 84.339 190.587 85.4419C189.923 86.5447 189.638 87.7846 189.733 89.1615L178.79 90.3391C178.508 87.2217 179.1 84.3837 180.568 81.825C182.035 79.2663 184.156 77.162 186.931 75.5119C189.721 73.8423 192.962 72.8089 196.654 72.4117C200.381 72.0107 203.715 72.3366 206.656 73.3895C209.596 74.4424 211.964 76.0371 213.759 78.1737C215.57 80.2907 216.619 82.7742 216.908 85.624C217.251 88.6459 216.582 91.2698 214.901 93.4958C213.237 95.7199 210.923 97.2672 207.958 98.1375L208.003 98.5594C212.031 98.6417 215.204 99.6964 217.52 101.723C219.852 103.731 221.19 106.415 221.534 109.774C221.883 112.849 221.289 115.678 219.753 118.262C218.235 120.844 215.985 122.989 213.003 124.697C210.021 126.405 206.509 127.476 202.465 127.911Z" fill="white"/>
</g>
</g>
<g filter="url(#filter6_d_1552_679)">
<ellipse cx="199.112" cy="135.009" rx="155.21" ry="68.8263" transform="rotate(-3.38176 199.112 135.009)" fill="url(#paint2_linear_1552_679)"/>
<g filter="url(#filter7_f_1552_679)">
<ellipse cx="198.864" cy="130.802" rx="155.21" ry="68.8263" transform="rotate(-3.38176 198.864 130.802)" fill="#603F76"/>
</g>
<g filter="url(#filter8_f_1552_679)">
<ellipse cx="198.159" cy="118.884" rx="142.569" ry="65.3147" transform="rotate(-3.38176 198.159 118.884)" fill="#9E5DA8"/>
</g>
<g filter="url(#filter9_f_1552_679)">
<ellipse cx="198.405" cy="111.13" rx="133.439" ry="57.5894" transform="rotate(-3.38176 198.405 111.13)" fill="url(#paint3_linear_1552_679)"/>
</g>
</g>
<g filter="url(#filter10_d_1552_679)">
<path d="M181.321 132.089L180.353 123.097L199.078 85.1508L206.83 84.3166L208.17 96.7633L203.581 97.257L191.788 121.28L191.833 121.702L223.873 118.255L224.858 127.405L181.321 132.089ZM208.264 138.794L206.947 126.558L206.73 122.553L202.664 84.7649L213.37 83.6129L219.181 137.619L208.264 138.794Z" fill="white"/>
</g>
<ellipse cx="197.548" cy="130.615" rx="152.025" ry="77.0428" transform="rotate(-4.45338 197.548 130.615)" fill="black" fill-opacity="0.4"/>
<defs>
<filter id="filter0_f_1552_679" x="0.0769043" y="0.508789" width="397.692" height="234.866" filterUnits="userSpaceOnUse" color-interpolation-filters="sRGB">
<feFlood flood-opacity="0" result="BackgroundImageFix"/>
<feBlend mode="normal" in="SourceGraphic" in2="BackgroundImageFix" result="shape"/>
<feGaussianBlur stdDeviation="20" result="effect1_foregroundBlur_1552_679"/>
</filter>
<filter id="filter1_d_1552_679" x="36.0769" y="40.5088" width="325.692" height="168.866" filterUnits="userSpaceOnUse" color-interpolation-filters="sRGB">
<feFlood flood-opacity="0" result="BackgroundImageFix"/>
<feColorMatrix in="SourceAlpha" type="matrix" values="0 0 0 0 0 0 0 0 0 0 0 0 0 0 0 0 0 0 127 0" result="hardAlpha"/>
<feOffset dy="10"/>
<feGaussianBlur stdDeviation="2"/>
<feComposite in2="hardAlpha" operator="out"/>
<feColorMatrix type="matrix" values="0 0 0 0 0 0 0 0 0 0 0 0 0 0 0 0 0 0 0.4 0"/>
<feBlend mode="normal" in2="BackgroundImageFix" result="effect1_dropShadow_1552_679"/>
<feBlend mode="normal" in="SourceGraphic" in2="effect1_dropShadow_1552_679" result="shape"/>
</filter>
<filter id="filter2_f_1552_679" x="36.0769" y="45.0925" width="325.437" height="149.975" filterUnits="userSpaceOnUse" color-interpolation-filters="sRGB">
<feFlood flood-opacity="0" result="BackgroundImageFix"/>
<feBlend mode="normal" in="SourceGraphic" in2="BackgroundImageFix" result="shape"/>
<feGaussianBlur stdDeviation="2" result="effect1_foregroundBlur_1552_679"/>
</filter>
<filter id="filter3_f_1552_679" x="48.2793" y="36.5469" width="299.59" height="142.656" filterUnits="userSpaceOnUse" color-interpolation-filters="sRGB">
<feFlood flood-opacity="0" result="BackgroundImageFix"/>
<feBlend mode="normal" in="SourceGraphic" in2="BackgroundImageFix" result="shape"/>
<feGaussianBlur stdDeviation="2" result="effect1_foregroundBlur_1552_679"/>
</filter>
<filter id="filter4_f_1552_679" x="59.873" y="38.5088" width="276.905" height="122.854" filterUnits="userSpaceOnUse" color-interpolation-filters="sRGB">
<feFlood flood-opacity="0" result="BackgroundImageFix"/>
<feBlend mode="normal" in="SourceGraphic" in2="BackgroundImageFix" result="shape"/>
<feGaussianBlur stdDeviation="1" result="effect1_foregroundBlur_1552_679"/>
</filter>
<filter id="filter5_d_1552_679" x="172.006" y="70.1899" width="55.2654" height="67.926" filterUnits="userSpaceOnUse" color-interpolation-filters="sRGB">
<feFlood flood-opacity="0" result="BackgroundImageFix"/>
<feColorMatrix in="SourceAlpha" type="matrix" values="0 0 0 0 0 0 0 0 0 0 0 0 0 0 0 0 0 0 127 0" result="hardAlpha"/>
<feOffset dy="4"/>
<feGaussianBlur stdDeviation="2"/>
<feComposite in2="hardAlpha" operator="out"/>
<feColorMatrix type="matrix" values="0 0 0 0 0 0 0 0 0 0 0 0 0 0 0 0 0 0 0.25 0"/>
<feBlend mode="normal" in2="BackgroundImageFix" result="effect1_dropShadow_1552_679"/>
<feBlend mode="normal" in="SourceGraphic" in2="effect1_dropShadow_1552_679" result="shape"/>
</filter>
<filter id="filter6_d_1552_679" x="39.8694" y="53.0979" width="318.237" height="165.233" filterUnits="userSpaceOnUse" color-interpolation-filters="sRGB">
<feFlood flood-opacity="0" result="BackgroundImageFix"/>
<feColorMatrix in="SourceAlpha" type="matrix" values="0 0 0 0 0 0 0 0 0 0 0 0 0 0 0 0 0 0 127 0" result="hardAlpha"/>
<feOffset dy="10"/>
<feGaussianBlur stdDeviation="2"/>
<feComposite in2="hardAlpha" operator="out"/>
<feColorMatrix type="matrix" values="0 0 0 0 0 0 0 0 0 0 0 0 0 0 0 0 0 0 0.4 0"/>
<feBlend mode="normal" in2="BackgroundImageFix" result="effect1_dropShadow_1552_679"/>
<feBlend mode="normal" in="SourceGraphic" in2="effect1_dropShadow_1552_679" result="shape"/>
</filter>
<filter id="filter7_f_1552_679" x="39.8694" y="57.4805" width="317.989" height="146.644" filterUnits="userSpaceOnUse" color-interpolation-filters="sRGB">
<feFlood flood-opacity="0" result="BackgroundImageFix"/>
<feBlend mode="normal" in="SourceGraphic" in2="BackgroundImageFix" result="shape"/>
<feGaussianBlur stdDeviation="2" result="effect1_foregroundBlur_1552_679"/>
</filter>
<filter id="filter8_f_1552_679" x="51.7856" y="49.1355" width="292.747" height="139.497" filterUnits="userSpaceOnUse" color-interpolation-filters="sRGB">
<feFlood flood-opacity="0" result="BackgroundImageFix"/>
<feBlend mode="normal" in="SourceGraphic" in2="BackgroundImageFix" result="shape"/>
<feGaussianBlur stdDeviation="2" result="effect1_foregroundBlur_1552_679"/>
</filter>
<filter id="filter9_f_1552_679" x="63.1543" y="51.0979" width="270.501" height="120.065" filterUnits="userSpaceOnUse" color-interpolation-filters="sRGB">
<feFlood flood-opacity="0" result="BackgroundImageFix"/>
<feBlend mode="normal" in="SourceGraphic" in2="BackgroundImageFix" result="shape"/>
<feGaussianBlur stdDeviation="1" result="effect1_foregroundBlur_1552_679"/>
</filter>
<filter id="filter10_d_1552_679" x="172.531" y="82.8923" width="57.3479" height="66.6904" filterUnits="userSpaceOnUse" color-interpolation-filters="sRGB">
<feFlood flood-opacity="0" result="BackgroundImageFix"/>
<feColorMatrix in="SourceAlpha" type="matrix" values="0 0 0 0 0 0 0 0 0 0 0 0 0 0 0 0 0 0 127 0" result="hardAlpha"/>
<feOffset dy="4"/>
<feGaussianBlur stdDeviation="2"/>
<feComposite in2="hardAlpha" operator="out"/>
<feColorMatrix type="matrix" values="0 0 0 0 0 0 0 0 0 0 0 0 0 0 0 0 0 0 0.25 0"/>
<feBlend mode="normal" in2="BackgroundImageFix" result="effect1_dropShadow_1552_679"/>
<feBlend mode="normal" in="SourceGraphic" in2="effect1_dropShadow_1552_679" result="shape"/>
</filter>
<linearGradient id="paint0_linear_1552_679" x1="63.8431" y1="140.929" x2="357.99" y2="138.771" gradientUnits="userSpaceOnUse">
<stop stop-color="#DA8FEF"/>
<stop offset="1" stop-color="#2D1247"/>
</linearGradient>
<linearGradient id="paint1_linear_1552_679" x1="146.401" y1="57.1036" x2="170.63" y2="168.343" gradientUnits="userSpaceOnUse">
<stop stop-color="#FFE0FE"/>
<stop offset="0.882121" stop-color="#C788E6"/>
</linearGradient>
<linearGradient id="paint2_linear_1552_679" x1="67.0782" y1="151.162" x2="354.323" y2="149.055" gradientUnits="userSpaceOnUse">
<stop stop-color="#DA8FEF"/>
<stop offset="1" stop-color="#2D1247"/>
</linearGradient>
<linearGradient id="paint3_linear_1552_679" x1="147.699" y1="69.3034" x2="171.359" y2="177.932" gradientUnits="userSpaceOnUse">
<stop stop-color="#FFE0FE"/>
<stop offset="0.882121" stop-color="#C788E6"/>
</linearGradient>
</defs>
</svg>
