<svg width="399" height="237" viewBox="0 0 399 237" fill="none" xmlns="http://www.w3.org/2000/svg">
<g style="mix-blend-mode:plus-lighter" filter="url(#filter0_f_1362_390)">
<g filter="url(#filter1_d_1362_390)">
<ellipse cx="199.56" cy="124.86" rx="158.94" ry="70.4801" transform="rotate(-4.96179 199.56 124.86)" fill="url(#paint0_linear_1362_390)"/>
<g filter="url(#filter2_f_1362_390)">
<ellipse cx="199.187" cy="120.561" rx="158.94" ry="70.4801" transform="rotate(-4.96179 199.187 120.561)" fill="#603F76"/>
</g>
<g filter="url(#filter3_f_1362_390)">
<ellipse cx="198.129" cy="108.381" rx="145.995" ry="66.8842" transform="rotate(-4.96179 198.129 108.381)" fill="#9E5DA8"/>
</g>
<g filter="url(#filter4_f_1362_390)">
<ellipse cx="198.161" cy="100.437" rx="136.645" ry="58.9732" transform="rotate(-4.96179 198.161 100.437)" fill="url(#paint1_linear_1362_390)"/>
</g>
</g>
<g filter="url(#filter5_d_1362_390)">
<path d="M203.071 128.288C199.146 128.82 195.56 128.619 192.31 127.686C189.076 126.733 186.413 125.185 184.32 123.042C182.243 120.879 180.965 118.233 180.487 115.104L191.946 113.55C192.194 114.854 192.78 115.953 193.704 116.844C194.643 117.716 195.815 118.334 197.221 118.696C198.626 119.059 200.161 119.127 201.825 118.902C203.56 118.666 205.052 118.152 206.3 117.358C207.548 116.564 208.476 115.573 209.082 114.385C209.688 113.196 209.895 111.893 209.702 110.473C209.508 109.037 208.932 107.821 207.977 106.826C207.036 105.812 205.779 105.09 204.204 104.661C202.646 104.23 200.852 104.152 198.819 104.428L193.799 105.109L192.666 96.7509L197.686 96.0703C199.403 95.8375 200.878 95.3342 202.112 94.5603C203.362 93.784 204.285 92.8204 204.878 91.6693C205.469 90.5007 205.668 89.2069 205.476 87.7876C205.293 86.4385 204.808 85.2998 204.022 84.3714C203.251 83.4232 202.248 82.7384 201.014 82.317C199.796 81.8932 198.426 81.7846 196.901 81.9913C195.359 82.2004 193.987 82.6719 192.784 83.406C191.578 84.1226 190.659 85.0413 190.026 86.162C189.393 87.2828 189.143 88.5301 189.275 89.9038L178.368 91.3827C178.001 88.2743 178.515 85.421 179.911 82.8228C181.308 80.2247 183.37 78.0626 186.098 76.3366C188.841 74.5908 192.052 73.4684 195.732 72.9695C199.446 72.4659 202.788 72.6998 205.756 73.6712C208.725 74.6426 211.136 76.1714 212.989 78.2577C214.857 80.324 215.975 82.7776 216.343 85.6184C216.769 88.6296 216.172 91.271 214.553 93.5425C212.952 95.8117 210.681 97.4221 207.741 98.3739L207.798 98.7944C211.826 98.7656 215.027 99.7324 217.398 101.695C219.785 103.637 221.196 106.283 221.633 109.632C222.066 112.696 221.55 115.54 220.086 118.165C218.64 120.788 216.45 122.994 213.516 124.784C210.583 126.573 207.101 127.741 203.071 128.288Z" fill="white"/>
</g>
</g>
<g filter="url(#filter6_d_1362_390)">
<ellipse cx="199.675" cy="125.587" rx="155.21" ry="68.8263" transform="rotate(-4.96179 199.675 125.587)" fill="url(#paint2_linear_1362_390)"/>
<g filter="url(#filter7_f_1362_390)">
<ellipse cx="199.311" cy="121.389" rx="155.21" ry="68.8263" transform="rotate(-4.96179 199.311 121.389)" fill="#603F76"/>
</g>
<g filter="url(#filter8_f_1362_390)">
<ellipse cx="198.278" cy="109.494" rx="142.569" ry="65.3147" transform="rotate(-4.96179 198.278 109.494)" fill="#9E5DA8"/>
</g>
<g filter="url(#filter9_f_1362_390)">
<ellipse cx="198.309" cy="101.737" rx="133.439" ry="57.5894" transform="rotate(-4.96179 198.309 101.737)" fill="url(#paint3_linear_1362_390)"/>
</g>
</g>
<g filter="url(#filter10_d_1362_390)">
<path d="M183.907 132.51L182.796 124.31L199.55 103.973C200.965 102.175 202.14 100.57 203.072 99.159C204.023 97.7454 204.705 96.395 205.119 95.1076C205.531 93.8027 205.641 92.4407 205.449 91.0215C205.235 89.4446 204.692 88.1354 203.819 87.0939C202.944 86.0349 201.842 85.2831 200.515 84.8385C199.186 84.3764 197.733 84.2523 196.156 84.4661C194.509 84.6894 193.117 85.2171 191.981 86.0492C190.845 86.8813 190.028 87.9645 189.531 89.2988C189.034 90.6331 188.901 92.1587 189.134 93.8758L178.332 95.3404C177.855 91.8186 178.238 88.6531 179.48 85.8437C180.723 83.0344 182.685 80.7254 185.366 78.9165C188.047 77.1077 191.263 75.9491 195.012 75.4408C198.867 74.9181 202.315 75.1465 205.356 76.126C208.412 77.0855 210.901 78.6574 212.821 80.8416C214.74 83.0258 215.911 85.6686 216.331 88.7698C216.607 90.8023 216.476 92.8631 215.938 94.9523C215.418 97.0391 214.306 99.4292 212.601 102.123C210.894 104.799 208.42 108.069 205.179 111.935L198.365 120.701L198.415 121.069L221.017 118.004L222.279 127.308L183.907 132.51Z" fill="white"/>
</g>
<defs>
<filter id="filter0_f_1362_390" x="0.7229" y="0.496216" width="397.301" height="235.926" filterUnits="userSpaceOnUse" color-interpolation-filters="sRGB">
<feFlood flood-opacity="0" result="BackgroundImageFix"/>
<feBlend mode="normal" in="SourceGraphic" in2="BackgroundImageFix" result="shape"/>
<feGaussianBlur stdDeviation="20" result="effect1_foregroundBlur_1362_390"/>
</filter>
<filter id="filter1_d_1362_390" x="36.7229" y="40.4962" width="325.301" height="169.926" filterUnits="userSpaceOnUse" color-interpolation-filters="sRGB">
<feFlood flood-opacity="0" result="BackgroundImageFix"/>
<feColorMatrix in="SourceAlpha" type="matrix" values="0 0 0 0 0 0 0 0 0 0 0 0 0 0 0 0 0 0 127 0" result="hardAlpha"/>
<feOffset dy="10"/>
<feGaussianBlur stdDeviation="2"/>
<feComposite in2="hardAlpha" operator="out"/>
<feColorMatrix type="matrix" values="0 0 0 0 0 0 0 0 0 0 0 0 0 0 0 0 0 0 0.4 0"/>
<feBlend mode="normal" in2="BackgroundImageFix" result="effect1_dropShadow_1362_390"/>
<feBlend mode="normal" in="SourceGraphic" in2="effect1_dropShadow_1362_390" result="shape"/>
</filter>
<filter id="filter2_f_1362_390" x="36.7229" y="44.9983" width="324.928" height="151.125" filterUnits="userSpaceOnUse" color-interpolation-filters="sRGB">
<feFlood flood-opacity="0" result="BackgroundImageFix"/>
<feBlend mode="normal" in="SourceGraphic" in2="BackgroundImageFix" result="shape"/>
<feGaussianBlur stdDeviation="2" result="effect1_foregroundBlur_1362_390"/>
</filter>
<filter id="filter3_f_1362_390" x="48.5647" y="36.5487" width="299.129" height="143.664" filterUnits="userSpaceOnUse" color-interpolation-filters="sRGB">
<feFlood flood-opacity="0" result="BackgroundImageFix"/>
<feBlend mode="normal" in="SourceGraphic" in2="BackgroundImageFix" result="shape"/>
<feGaussianBlur stdDeviation="2" result="effect1_foregroundBlur_1362_390"/>
</filter>
<filter id="filter4_f_1362_390" x="59.9312" y="38.4962" width="276.461" height="123.881" filterUnits="userSpaceOnUse" color-interpolation-filters="sRGB">
<feFlood flood-opacity="0" result="BackgroundImageFix"/>
<feBlend mode="normal" in="SourceGraphic" in2="BackgroundImageFix" result="shape"/>
<feGaussianBlur stdDeviation="1" result="effect1_foregroundBlur_1362_390"/>
</filter>
<filter id="filter5_d_1362_390" x="171.153" y="70.1793" width="56.6548" height="68.8773" filterUnits="userSpaceOnUse" color-interpolation-filters="sRGB">
<feFlood flood-opacity="0" result="BackgroundImageFix"/>
<feColorMatrix in="SourceAlpha" type="matrix" values="0 0 0 0 0 0 0 0 0 0 0 0 0 0 0 0 0 0 127 0" result="hardAlpha"/>
<feOffset dy="4"/>
<feGaussianBlur stdDeviation="2"/>
<feComposite in2="hardAlpha" operator="out"/>
<feColorMatrix type="matrix" values="0 0 0 0 0 0 0 0 0 0 0 0 0 0 0 0 0 0 0.25 0"/>
<feBlend mode="normal" in2="BackgroundImageFix" result="effect1_dropShadow_1362_390"/>
<feBlend mode="normal" in="SourceGraphic" in2="effect1_dropShadow_1362_390" result="shape"/>
</filter>
<filter id="filter6_d_1362_390" x="40.5652" y="43.203" width="317.855" height="166.267" filterUnits="userSpaceOnUse" color-interpolation-filters="sRGB">
<feFlood flood-opacity="0" result="BackgroundImageFix"/>
<feColorMatrix in="SourceAlpha" type="matrix" values="0 0 0 0 0 0 0 0 0 0 0 0 0 0 0 0 0 0 127 0" result="hardAlpha"/>
<feOffset dy="10"/>
<feGaussianBlur stdDeviation="2"/>
<feComposite in2="hardAlpha" operator="out"/>
<feColorMatrix type="matrix" values="0 0 0 0 0 0 0 0 0 0 0 0 0 0 0 0 0 0 0.4 0"/>
<feBlend mode="normal" in2="BackgroundImageFix" result="effect1_dropShadow_1362_390"/>
<feBlend mode="normal" in="SourceGraphic" in2="effect1_dropShadow_1362_390" result="shape"/>
</filter>
<filter id="filter7_f_1362_390" x="40.5652" y="47.5056" width="317.491" height="147.767" filterUnits="userSpaceOnUse" color-interpolation-filters="sRGB">
<feFlood flood-opacity="0" result="BackgroundImageFix"/>
<feBlend mode="normal" in="SourceGraphic" in2="BackgroundImageFix" result="shape"/>
<feGaussianBlur stdDeviation="2" result="effect1_foregroundBlur_1362_390"/>
</filter>
<filter id="filter8_f_1362_390" x="52.1289" y="39.2543" width="292.298" height="140.48" filterUnits="userSpaceOnUse" color-interpolation-filters="sRGB">
<feFlood flood-opacity="0" result="BackgroundImageFix"/>
<feBlend mode="normal" in="SourceGraphic" in2="BackgroundImageFix" result="shape"/>
<feGaussianBlur stdDeviation="2" result="effect1_foregroundBlur_1362_390"/>
</filter>
<filter id="filter9_f_1362_390" x="63.2756" y="41.203" width="270.067" height="121.068" filterUnits="userSpaceOnUse" color-interpolation-filters="sRGB">
<feFlood flood-opacity="0" result="BackgroundImageFix"/>
<feBlend mode="normal" in="SourceGraphic" in2="BackgroundImageFix" result="shape"/>
<feGaussianBlur stdDeviation="1" result="effect1_foregroundBlur_1362_390"/>
</filter>
<filter id="filter10_d_1362_390" x="171.984" y="72.7468" width="54.2947" height="67.8348" filterUnits="userSpaceOnUse" color-interpolation-filters="sRGB">
<feFlood flood-opacity="0" result="BackgroundImageFix"/>
<feColorMatrix in="SourceAlpha" type="matrix" values="0 0 0 0 0 0 0 0 0 0 0 0 0 0 0 0 0 0 127 0" result="hardAlpha"/>
<feOffset dy="4"/>
<feGaussianBlur stdDeviation="2"/>
<feComposite in2="hardAlpha" operator="out"/>
<feColorMatrix type="matrix" values="0 0 0 0 0 0 0 0 0 0 0 0 0 0 0 0 0 0 0.25 0"/>
<feBlend mode="normal" in2="BackgroundImageFix" result="effect1_dropShadow_1362_390"/>
<feBlend mode="normal" in="SourceGraphic" in2="effect1_dropShadow_1362_390" result="shape"/>
</filter>
<linearGradient id="paint0_linear_1362_390" x1="64.3533" y1="141.401" x2="358.5" y2="139.243" gradientUnits="userSpaceOnUse">
<stop stop-color="#DA8FEF"/>
<stop offset="1" stop-color="#2D1247"/>
</linearGradient>
<linearGradient id="paint1_linear_1362_390" x1="146.237" y1="57.6049" x2="170.466" y2="168.844" gradientUnits="userSpaceOnUse">
<stop stop-color="#FFE0FE"/>
<stop offset="0.882121" stop-color="#C788E6"/>
</linearGradient>
<linearGradient id="paint2_linear_1362_390" x1="67.641" y1="141.74" x2="354.885" y2="139.633" gradientUnits="userSpaceOnUse">
<stop stop-color="#DA8FEF"/>
<stop offset="1" stop-color="#2D1247"/>
</linearGradient>
<linearGradient id="paint3_linear_1362_390" x1="147.603" y1="59.9102" x2="171.264" y2="168.539" gradientUnits="userSpaceOnUse">
<stop stop-color="#FFE0FE"/>
<stop offset="0.882121" stop-color="#C788E6"/>
</linearGradient>
</defs>
</svg>
