<svg width="99" height="34" viewBox="0 0 99 34" fill="none" xmlns="http://www.w3.org/2000/svg">
<path d="M1.54119 27V6.63636H6.46307V23.0028H14.9347V27H1.54119ZM38.7098 16.8182C38.7098 19.0587 38.2789 20.9579 37.4172 22.5156C36.5554 24.0734 35.3888 25.2566 33.9172 26.0653C32.4522 26.8741 30.8083 27.2784 28.9854 27.2784C27.1558 27.2784 25.5086 26.8707 24.0436 26.0554C22.5786 25.2401 21.4153 24.0568 20.5536 22.5057C19.6984 20.9479 19.2709 19.0521 19.2709 16.8182C19.2709 14.5777 19.6984 12.6785 20.5536 11.1207C21.4153 9.56297 22.5786 8.37973 24.0436 7.57102C25.5086 6.76231 27.1558 6.35795 28.9854 6.35795C30.8083 6.35795 32.4522 6.76231 33.9172 7.57102C35.3888 8.37973 36.5554 9.56297 37.4172 11.1207C38.2789 12.6785 38.7098 14.5777 38.7098 16.8182ZM33.6786 16.8182C33.6786 15.4924 33.4896 14.3722 33.1118 13.4574C32.7406 12.5426 32.2036 11.8499 31.501 11.3793C30.805 10.9086 29.9664 10.6733 28.9854 10.6733C28.0109 10.6733 27.1724 10.9086 26.4697 11.3793C25.7671 11.8499 25.2268 12.5426 24.849 13.4574C24.4778 14.3722 24.2922 15.4924 24.2922 16.8182C24.2922 18.1439 24.4778 19.2642 24.849 20.179C25.2268 21.0937 25.7671 21.7865 26.4697 22.2571C27.1724 22.7277 28.0109 22.9631 28.9854 22.9631C29.9664 22.9631 30.805 22.7277 31.501 22.2571C32.2036 21.7865 32.7406 21.0937 33.1118 20.179C33.4896 19.2642 33.6786 18.1439 33.6786 16.8182ZM57.747 13.2884C57.6343 12.8707 57.4686 12.5028 57.2499 12.1847C57.0311 11.8598 56.7626 11.5848 56.4445 11.3594C56.1263 11.134 55.7617 10.965 55.3507 10.8523C54.9397 10.733 54.489 10.6733 53.9984 10.6733C53.0107 10.6733 52.1556 10.9119 51.4331 11.3892C50.7172 11.8665 50.1637 12.5625 49.7726 13.4773C49.3815 14.3854 49.1859 15.4891 49.1859 16.7884C49.1859 18.0942 49.3749 19.2079 49.7527 20.1293C50.1305 21.0507 50.6774 21.7533 51.3933 22.2372C52.1092 22.7211 52.9776 22.9631 53.9984 22.9631C54.9 22.9631 55.6623 22.8172 56.2854 22.5256C56.9151 22.2273 57.3924 21.8063 57.7172 21.2628C58.042 20.7192 58.2044 20.0795 58.2044 19.3438L59.1192 19.4531H54.1675V15.8636H62.9473V18.5582C62.9473 20.3812 62.5595 21.9422 61.7839 23.2415C61.015 24.5407 59.9544 25.5384 58.6021 26.2344C57.2565 26.9304 55.7087 27.2784 53.9587 27.2784C52.0164 27.2784 50.3095 26.8575 48.8379 26.0156C47.3663 25.1738 46.2196 23.974 45.3976 22.4162C44.5756 20.8518 44.1646 18.9957 44.1646 16.848C44.1646 15.1776 44.4132 13.696 44.9104 12.4034C45.4075 11.1042 46.1002 10.0038 46.9885 9.10227C47.8834 8.20076 48.9175 7.51799 50.0908 7.05398C51.2707 6.58996 52.5401 6.35795 53.899 6.35795C55.0789 6.35795 56.176 6.52699 57.1902 6.86506C58.211 7.20312 59.1125 7.6804 59.8947 8.29688C60.6836 8.91335 61.3232 9.64583 61.8138 10.4943C62.3043 11.3428 62.6092 12.2741 62.7286 13.2884H57.747ZM73.5701 6.63636V27H68.6482V6.63636H73.5701ZM96.7909 6.63636V27H92.6148L84.5111 15.2472H84.3818V27H79.4599V6.63636H83.6957L91.7099 18.3693H91.879V6.63636H96.7909Z" fill="white"/>
</svg>
