<svg width="79" height="38" viewBox="0 0 79 38" fill="none" xmlns="http://www.w3.org/2000/svg">
<path d="M12.64 10.72H27.44V14.72H12.64V10.72ZM2.8 32.88H37.36V36.8H2.8V32.88ZM5.12 1.52H16.32V5.4H5.12V1.52ZM14.8 1.52H15.6L16.44 1.32L19.56 2.88C16.6 10.72 10.28 16.44 3.56 19.68C2.92 18.68 1.64 17.04 0.68 16.2C6.64 13.68 12.6 8.24 14.8 2.32V1.52ZM23.92 0.159999C26.68 6.68 32.28 12.48 39.24 15.12C38.12 16.08 36.72 17.88 36 19.12C28.64 15.76 23.16 9.36 19.84 1.44L23.92 0.159999ZM3.2 8.72L5.76 6.08C7.56 7.08 9.76 8.64 10.8 9.84L8.12 12.76C7.08 11.56 4.92 9.84 3.2 8.72ZM30.08 0.399999L33.68 2.96C31.48 4.84 28.88 6.8 26.88 8.08L24 5.84C25.92 4.48 28.56 2.16 30.08 0.399999ZM34.6 5.08L38.12 7.56C35.84 9.56 33.08 11.64 30.96 12.96L28.08 10.72C30.16 9.28 32.96 6.92 34.6 5.08ZM13 20.84V24.36H26.68V20.84H13ZM8.32 17H31.64V28.16H8.32V17ZM10.64 28.68L15.04 27.56C16.08 29 16.96 31.04 17.32 32.4L12.72 33.72C12.44 32.36 11.56 30.24 10.64 28.68ZM24.92 27.52L29.56 28.52C28.56 30.48 27.64 32.28 26.84 33.56L22.64 32.6C23.44 31.2 24.44 29.04 24.92 27.52ZM49.16 2.28H60.48V7.16H49.16V2.28ZM58.12 2.28H63.08C63.08 9.88 64.16 24.6 79 33.28C77.88 34.16 75.96 36.28 75.12 37.48C59.88 28.32 58.12 10.44 58.12 2.28ZM56.4 11.04L61.92 12.04C59.12 23.92 53.8 32.52 45.44 37.56C44.56 36.52 42.32 34.52 41.08 33.64C49.44 29.4 54.24 21.64 56.4 11.04Z" fill="white"/>
</svg>
