<svg width="133" height="22" viewBox="0 0 133 22" fill="none" xmlns="http://www.w3.org/2000/svg">
<path d="M0.541193 21V0.636363H5.46307V17.0028H13.9347V21H0.541193ZM37.7098 10.8182C37.7098 13.0587 37.2789 14.9579 36.4172 16.5156C35.5554 18.0734 34.3888 19.2566 32.9172 20.0653C31.4522 20.8741 29.8083 21.2784 27.9854 21.2784C26.1558 21.2784 24.5086 20.8707 23.0436 20.0554C21.5786 19.2401 20.4153 18.0568 19.5536 16.5057C18.6984 14.9479 18.2709 13.0521 18.2709 10.8182C18.2709 8.57765 18.6984 6.6785 19.5536 5.12074C20.4153 3.56297 21.5786 2.37973 23.0436 1.57102C24.5086 0.76231 26.1558 0.357954 27.9854 0.357954C29.8083 0.357954 31.4522 0.76231 32.9172 1.57102C34.3888 2.37973 35.5554 3.56297 36.4172 5.12074C37.2789 6.6785 37.7098 8.57765 37.7098 10.8182ZM32.6786 10.8182C32.6786 9.49242 32.4896 8.37216 32.1118 7.45739C31.7406 6.54261 31.2036 5.8499 30.501 5.37926C29.805 4.90862 28.9664 4.67329 27.9854 4.67329C27.0109 4.67329 26.1724 4.90862 25.4697 5.37926C24.7671 5.8499 24.2268 6.54261 23.849 7.45739C23.4778 8.37216 23.2922 9.49242 23.2922 10.8182C23.2922 12.1439 23.4778 13.2642 23.849 14.179C24.2268 15.0937 24.7671 15.7865 25.4697 16.2571C26.1724 16.7277 27.0109 16.9631 27.9854 16.9631C28.9664 16.9631 29.805 16.7277 30.501 16.2571C31.2036 15.7865 31.7406 15.0937 32.1118 14.179C32.4896 13.2642 32.6786 12.1439 32.6786 10.8182ZM56.747 7.28835C56.6343 6.87074 56.4686 6.50284 56.2499 6.18466C56.0311 5.85985 55.7626 5.58475 55.4445 5.35938C55.1263 5.134 54.7617 4.96496 54.3507 4.85227C53.9397 4.73295 53.489 4.67329 52.9984 4.67329C52.0107 4.67329 51.1556 4.91193 50.4331 5.3892C49.7172 5.86648 49.1637 6.5625 48.7726 7.47727C48.3815 8.38542 48.1859 9.48911 48.1859 10.7884C48.1859 12.0942 48.3749 13.2079 48.7527 14.1293C49.1305 15.0507 49.6774 15.7533 50.3933 16.2372C51.1092 16.7211 51.9776 16.9631 52.9984 16.9631C53.9 16.9631 54.6623 16.8172 55.2854 16.5256C55.9151 16.2273 56.3924 15.8063 56.7172 15.2628C57.042 14.7192 57.2044 14.0795 57.2044 13.3438L58.1192 13.4531H53.1675V9.86364H61.9473V12.5582C61.9473 14.3812 61.5595 15.9422 60.7839 17.2415C60.015 18.5407 58.9544 19.5384 57.6021 20.2344C56.2565 20.9304 54.7087 21.2784 52.9587 21.2784C51.0164 21.2784 49.3095 20.8575 47.8379 20.0156C46.3663 19.1738 45.2196 17.974 44.3976 16.4162C43.5756 14.8518 43.1646 12.9957 43.1646 10.848C43.1646 9.17756 43.4132 7.69602 43.9104 6.40341C44.4075 5.10417 45.1002 4.00379 45.9885 3.10227C46.8834 2.20076 47.9175 1.51799 49.0908 1.05398C50.2707 0.589961 51.5401 0.357954 52.899 0.357954C54.0789 0.357954 55.176 0.526988 56.1902 0.865057C57.211 1.20312 58.1125 1.6804 58.8947 2.29688C59.6836 2.91335 60.3232 3.64583 60.8138 4.49432C61.3043 5.3428 61.6092 6.27415 61.7286 7.28835H56.747ZM86.8684 10.8182C86.8684 13.0587 86.4375 14.9579 85.5758 16.5156C84.714 18.0734 83.5474 19.2566 82.0758 20.0653C80.6108 20.8741 78.9669 21.2784 77.144 21.2784C75.3144 21.2784 73.6672 20.8707 72.2022 20.0554C70.7372 19.2401 69.5739 18.0568 68.7121 16.5057C67.857 14.9479 67.4295 13.0521 67.4295 10.8182C67.4295 8.57765 67.857 6.6785 68.7121 5.12074C69.5739 3.56297 70.7372 2.37973 72.2022 1.57102C73.6672 0.76231 75.3144 0.357954 77.144 0.357954C78.9669 0.357954 80.6108 0.76231 82.0758 1.57102C83.5474 2.37973 84.714 3.56297 85.5758 5.12074C86.4375 6.6785 86.8684 8.57765 86.8684 10.8182ZM81.8371 10.8182C81.8371 9.49242 81.6482 8.37216 81.2704 7.45739C80.8992 6.54261 80.3622 5.8499 79.6596 5.37926C78.9636 4.90862 78.125 4.67329 77.144 4.67329C76.1695 4.67329 75.331 4.90862 74.6283 5.37926C73.9257 5.8499 73.3854 6.54261 73.0076 7.45739C72.6364 8.37216 72.4508 9.49242 72.4508 10.8182C72.4508 12.1439 72.6364 13.2642 73.0076 14.179C73.3854 15.0937 73.9257 15.7865 74.6283 16.2571C75.331 16.7277 76.1695 16.9631 77.144 16.9631C78.125 16.9631 78.9636 16.7277 79.6596 16.2571C80.3622 15.7865 80.8992 15.0937 81.2704 14.179C81.6482 13.2642 81.8371 12.1439 81.8371 10.8182ZM104.862 0.636363H109.774V13.7713C109.774 15.2893 109.412 16.6117 108.69 17.7386C107.967 18.8589 106.96 19.7273 105.667 20.3438C104.374 20.9536 102.873 21.2585 101.163 21.2585C99.4326 21.2585 97.9212 20.9536 96.6286 20.3438C95.336 19.7273 94.3317 18.8589 93.6158 17.7386C92.8999 16.6117 92.542 15.2893 92.542 13.7713V0.636363H97.4638V13.3438C97.4638 14.0464 97.6163 14.6728 97.9212 15.223C98.2328 15.7732 98.667 16.2041 99.2238 16.5156C99.7806 16.8272 100.427 16.983 101.163 16.983C101.899 16.983 102.541 16.8272 103.092 16.5156C103.649 16.2041 104.083 15.7732 104.394 15.223C104.706 14.6728 104.862 14.0464 104.862 13.3438V0.636363ZM114.992 4.63352V0.636363H132.204V4.63352H126.029V21H121.177V4.63352H114.992Z" fill="white"/>
</svg>
