<svg width="200" height="27" viewBox="0 0 200 27" fill="none" xmlns="http://www.w3.org/2000/svg">
<path d="M8.72 2.09275H11.2V8.91275H8.72V2.09275ZM2.02 3.47275L4.16 2.59275C5.16 3.77275 6.18 5.37275 6.64 6.51275L4.4 7.55275C4 6.43275 2.98 4.71275 2.02 3.47275ZM15.6 2.41275L18 3.25275C17.1 4.81275 16.02 6.47275 15.14 7.53275L13.12 6.73275C13.98 5.59275 15.02 3.77275 15.6 2.41275ZM6.3 11.4328H8.48V18.7328H6.3V11.4328ZM7.6 11.4328H13.72V17.4728H7.6V15.4728H11.5V13.4328H7.6V11.4328ZM2.18 7.79275H17V10.0328H4.58V20.8728H2.18V7.79275ZM15.52 7.79275H17.88V18.2328C17.88 19.3728 17.66 20.0328 16.88 20.4128C16.12 20.7728 15.04 20.8128 13.54 20.8128C13.44 20.1528 13.1 19.1528 12.76 18.5328C13.72 18.5728 14.8 18.5728 15.12 18.5728C15.42 18.5728 15.52 18.4728 15.52 18.1928V7.79275ZM21.08 10.0328H39V12.4128H21.08V10.0328ZM22.58 5.09275H37.54V7.47275H22.58V5.09275ZM28.7 2.09275H31.24V20.8728H28.7V2.09275ZM28.28 11.4128L30.36 12.2728C28.44 15.4528 25.32 18.3528 22.16 19.9928C21.76 19.3928 20.96 18.4328 20.4 17.9328C23.48 16.5928 26.64 13.9928 28.28 11.4128ZM31.68 11.4328C33.3 14.0128 36.46 16.6128 39.52 17.9328C38.96 18.4128 38.16 19.3928 37.76 20.0328C34.66 18.3928 31.6 15.4328 29.68 12.2728L31.68 11.4328ZM41.08 4.51275H58.92V6.75275H41.08V4.51275ZM46.48 11.7128H55.18V13.7128H46.48V11.7128ZM44.7 8.33275H54.82V10.4328H47.08V20.8528H44.7V8.33275ZM54.34 8.33275H56.68V18.2728C56.68 19.4528 56.46 20.1128 55.64 20.4928C54.84 20.8528 53.7 20.8728 52.08 20.8728C51.98 20.2128 51.66 19.1928 51.34 18.5728C52.38 18.6328 53.56 18.6128 53.9 18.6128C54.22 18.6128 54.34 18.5128 54.34 18.2328V8.33275ZM47.28 2.07275L49.76 2.63275C48.36 7.15275 45.96 11.7528 42.06 14.4728C41.72 13.9328 40.96 13.0728 40.48 12.6128C44.04 10.2728 46.28 5.97275 47.28 2.07275ZM46.48 15.0128H55.18V17.0128H46.48V15.0128ZM63.58 2.09275H65.6V20.8728H63.58V2.09275ZM60.98 5.77275H67.36V7.89275H62.72V16.7128H60.98V5.77275ZM66.5 5.77275H68.22V14.3528C68.22 15.0728 68.14 15.7128 67.72 16.0728C67.28 16.4328 66.82 16.4928 66.14 16.4928C66.12 15.9128 65.86 15.0128 65.6 14.4728C65.94 14.4928 66.22 14.4928 66.36 14.4928C66.46 14.4728 66.5 14.4328 66.5 14.2728V5.77275ZM70.44 2.83275H78.48V4.75275H70.44V2.83275ZM70.46 5.65275H77.86V7.43275H70.46V5.65275ZM70.46 8.35275H77.86V10.1128H70.46V8.35275ZM68.42 11.0528H79.2V13.0328H68.42V11.0528ZM67.76 18.5728C69.52 18.3528 72.14 17.9528 74.66 17.5528L74.82 19.5328C72.52 19.9528 70.1 20.3528 68.24 20.6928L67.76 18.5728ZM74.68 11.7328C75.34 15.0528 76.78 17.6928 79.68 18.8128C79.16 19.2728 78.46 20.2528 78.14 20.8928C74.94 19.3528 73.52 16.2328 72.74 12.0128L74.68 11.7328ZM77.86 13.1728L79.42 14.6128C78.38 15.5328 77 16.5128 76 17.1328L74.68 15.7928C75.64 15.1528 77.06 14.0328 77.86 13.1728ZM69.56 2.83275H71.78V12.0328H69.56V2.83275ZM69.52 12.0728H71.74V18.8128L69.52 19.0928V12.0728ZM83.56 4.67275V6.81275H85.42V4.67275H83.56ZM81.46 2.75275H87.64V8.75275H81.46V2.75275ZM80.6 9.67275H88.34V11.7328H80.6V9.67275ZM82.28 10.6528H84.46C84.12 12.4128 83.66 14.5728 83.3 15.9728L81.16 15.6128C81.56 14.2728 82 12.2528 82.28 10.6528ZM82.9 12.9528H86.26V14.9328H82.44L82.9 12.9528ZM85.4 12.9528H87.56C87.56 12.9528 87.54 13.5128 87.52 13.8128C87.26 17.7728 87 19.4728 86.44 20.1128C86.02 20.5928 85.58 20.7528 84.96 20.8328C84.44 20.8928 83.56 20.8928 82.64 20.8728C82.6 20.2528 82.36 19.3728 81.98 18.8128C82.82 18.8928 83.6 18.8928 83.96 18.8928C84.26 18.8928 84.46 18.8528 84.64 18.6728C85 18.3128 85.22 16.8728 85.4 13.2728V12.9528ZM93.64 3.17275H98.72V5.07275H93.64V3.17275ZM89.76 5.95275H98.06V7.83275H89.76V5.95275ZM92.56 2.09275H94.86V6.81275H92.56V2.09275ZM88.78 5.95275H90.92V11.1528C90.92 14.0728 90.6 18.2728 88.74 20.9328C88.36 20.5528 87.44 19.8728 86.94 19.6528C88.62 17.1928 88.78 13.7128 88.78 11.1528V5.95275ZM91.08 9.19275L96.54 8.71275L96.74 10.2728L91.28 10.7928L91.08 9.19275ZM92.7 7.67275H94.8V10.7328C94.8 11.2128 94.86 11.2528 95.34 11.2528C95.54 11.2528 96.44 11.2528 96.7 11.2528C97.08 11.2528 97.16 11.1128 97.22 10.2728C97.64 10.5528 98.44 10.8128 98.98 10.9328C98.78 12.4728 98.26 12.9128 96.94 12.9128C96.56 12.9128 95.38 12.9128 95 12.9128C93.12 12.9128 92.7 12.4128 92.7 10.7328V7.67275ZM97.44 5.95275H97.74L98.08 5.87275L99.58 6.19275C99.38 7.55275 99.08 9.11275 98.84 10.1128L97.04 9.69275C97.18 8.79275 97.36 7.35275 97.44 6.23275V5.95275ZM91.78 13.5728H93.78C93.66 16.9728 93.2 19.4928 90.74 20.9928C90.48 20.4528 89.88 19.6328 89.4 19.2528C91.4 18.1128 91.68 16.2528 91.78 13.5728ZM94.76 13.5728H96.8V18.0928C96.8 18.1928 96.82 18.3328 96.86 18.3728C96.92 18.4528 97.04 18.4928 97.16 18.4928C97.24 18.4928 97.42 18.4928 97.54 18.4928C97.64 18.4928 97.78 18.4528 97.84 18.3928C97.92 18.3328 97.98 18.1928 98.02 18.0128C98.06 17.7128 98.08 16.9928 98.08 16.1728C98.46 16.5128 99.2 16.9128 99.74 17.0928C99.72 18.0528 99.6 19.0128 99.48 19.4128C99.34 19.8528 99.12 20.1128 98.78 20.3528C98.52 20.5128 98.08 20.6128 97.68 20.6128C97.36 20.6128 96.84 20.6128 96.56 20.6128C96.04 20.6128 95.52 20.4928 95.2 20.1528C94.84 19.7928 94.76 19.4528 94.76 18.2928V13.5728ZM108.46 13.9328C108.04 10.7928 112.3 10.0928 112.3 8.15275C112.3 6.93275 111.34 6.25275 109.76 6.25275C108.54 6.25275 107.54 6.81275 106.56 7.83275L104.92 6.33275C106.2 4.85275 107.96 3.87275 110.1 3.87275C113 3.87275 115.12 5.23275 115.12 7.89275C115.12 10.8128 110.74 11.1728 111.06 13.9328H108.46ZM109.78 19.2728C108.74 19.2728 108 18.5328 108 17.4928C108 16.4528 108.76 15.7328 109.78 15.7328C110.78 15.7328 111.54 16.4528 111.54 17.4928C111.54 18.5328 110.78 19.2728 109.78 19.2728ZM130.5 11.5528H138.68V20.7728H136.4V13.7128H132.68V20.8528H130.5V11.5528ZM133.16 2.11275H135.5V12.1328H133.16V2.11275ZM134.56 6.23275H139.38V8.45275H134.56V6.23275ZM131.64 17.9128H137.46V20.0928H131.64V17.9128ZM123.1 4.31275V8.67275H127.96V4.31275H123.1ZM121.32 2.69275H129.82V10.2928H121.32V2.69275ZM123.06 5.17275L124.04 4.87275C124.36 5.79275 124.62 6.99275 124.68 7.75275L123.64 8.09275C123.6 7.29275 123.36 6.09275 123.06 5.17275ZM123.54 16.6328L125 16.4528C125.26 17.5728 125.42 19.0128 125.42 19.9728L123.88 20.1528C123.92 19.1928 123.76 17.7528 123.54 16.6328ZM125.54 16.5528L126.96 16.2928C127.36 17.3328 127.74 18.6928 127.84 19.5928L126.36 19.9128C126.28 19.0128 125.92 17.6128 125.54 16.5528ZM127.5 16.3728L128.92 15.8528C129.58 16.8128 130.22 18.0928 130.46 18.9728L128.96 19.5928C128.72 18.7128 128.1 17.3728 127.5 16.3728ZM121.8 16.5128L123.4 16.9928C123.16 18.4328 122.8 19.9528 121.98 20.8728L120.42 20.0728C121.16 19.2328 121.6 17.8328 121.8 16.5128ZM126.98 4.85275L128.18 5.27275C127.8 6.23275 127.4 7.39275 127.06 8.11275L126.18 7.79275C126.46 6.97275 126.82 5.69275 126.98 4.85275ZM120.84 14.0328C123.18 13.9728 126.72 13.8528 130.1 13.7128L130.04 15.5728C126.78 15.7728 123.36 15.9328 120.92 16.0528L120.84 14.0328ZM121.34 11.1528H129.76V12.9728H121.34V11.1528ZM124.76 3.51275H126.22V9.55275H126.54V14.7728H124.44V9.55275H124.76V3.51275ZM145.04 9.89275V17.2528H142.8V12.1128H140.72V9.89275H145.04ZM145.04 16.3328C145.82 17.6928 147.28 18.2728 149.34 18.3728C151.82 18.4728 156.74 18.4128 159.58 18.1928C159.32 18.7128 158.96 19.7728 158.86 20.4328C156.3 20.5528 151.86 20.5928 149.36 20.4928C146.92 20.3928 145.28 19.7928 144.08 18.2328C143.32 19.0328 142.52 19.7928 141.58 20.6928L140.44 18.3928C141.24 17.8328 142.2 17.0728 143.04 16.3328H145.04ZM140.6 3.75275L142.48 2.55275C143.54 3.51275 144.78 4.87275 145.32 5.85275L143.28 7.19275C142.82 6.23275 141.62 4.77275 140.6 3.75275ZM146.26 10.2728H158.52V12.0128H146.26V10.2728ZM145.66 13.3528H159.14V15.1328H145.66V13.3528ZM148.92 9.21275H151.18V14.2128H148.92V9.21275ZM153.5 9.21275H155.78V14.2128H153.5V9.21275ZM146.8 5.05275H149.72V4.21275H145.92V2.71275H151.74V6.57275H146.8V5.05275ZM146.2 5.05275H148.18V6.99275C148.18 7.41275 148.26 7.49275 148.78 7.49275C149 7.49275 150.02 7.49275 150.32 7.49275C150.72 7.49275 150.8 7.37275 150.88 6.71275C151.24 6.97275 152 7.23275 152.54 7.33275C152.34 8.69275 151.8 9.07275 150.58 9.07275C150.2 9.07275 148.86 9.07275 148.48 9.07275C146.7 9.07275 146.2 8.61275 146.2 7.01275V5.05275ZM153.38 5.05275H156.32V4.21275H152.42V2.71275H158.36V6.57275H153.38V5.05275ZM152.78 5.05275H154.76V6.99275C154.76 7.41275 154.86 7.49275 155.38 7.49275C155.62 7.49275 156.68 7.49275 156.98 7.49275C157.4 7.49275 157.48 7.37275 157.56 6.69275C157.92 6.95275 158.68 7.19275 159.22 7.31275C159.02 8.69275 158.48 9.07275 157.24 9.07275C156.86 9.07275 155.46 9.07275 155.08 9.07275C153.28 9.07275 152.78 8.61275 152.78 6.99275V5.05275ZM153.16 15.9728L154.92 14.9928C156.36 15.6528 158.12 16.6128 159.12 17.2928L156.64 18.1928C155.9 17.5528 154.48 16.6528 153.16 15.9728ZM149.66 14.9928L151.76 15.7328C150.72 16.6928 149.04 17.6128 147.66 18.1728C147.28 17.7728 146.42 17.0528 145.92 16.7328C147.32 16.3128 148.8 15.6728 149.66 14.9928ZM162 2.63275H167.64V4.45275H162V2.63275ZM161.76 8.31275H167.84V10.1328H161.76V8.31275ZM161.76 11.0728H167.84V12.8928H161.76V11.0728ZM160.62 5.37275H168.78V7.31275H160.62V5.37275ZM169.06 5.87275H179.06V8.11275H169.06V5.87275ZM168.58 17.9328H179.38V20.1928H168.58V17.9328ZM169.48 11.7328H178.74V13.9528H169.48V11.7328ZM162.84 13.8528H168.06V19.7128H162.84V17.9328H165.84V15.6328H162.84V13.8528ZM161.6 13.8528H163.76V20.6128H161.6V13.8528ZM172.8 2.11275H175.2V6.87275H172.8V2.11275ZM172.8 6.73275H175.2V19.0728H172.8V6.73275ZM182.52 3.21275H196.52V5.57275H184.88V20.9128H182.52V3.21275ZM195.24 3.21275H197.62V18.2528C197.62 19.3128 197.46 19.9728 196.82 20.3928C196.2 20.7928 195.38 20.8528 194.22 20.8528C194.16 20.2128 193.84 19.1328 193.52 18.5128C194.1 18.5528 194.74 18.5528 194.94 18.5528C195.18 18.5528 195.24 18.4528 195.24 18.2128V3.21275ZM180.6 10.4328H199.4V12.7728H180.6V10.4328ZM186.76 3.99275H188.98V20.5728H186.76V3.99275ZM190.94 3.99275H193.2V20.5728H190.94V3.99275Z" fill="#F5F5F5"/>
<line x1="120" y1="25.5728" x2="200" y2="25.5728" stroke="#F5F5F5"/>
</svg>
