<svg width="209" height="26" viewBox="0 0 209 26" fill="none" xmlns="http://www.w3.org/2000/svg">
<path d="M3.06 3.69275C4.1 3.90609 4.92 4.19275 5.52 4.55275C6.13333 4.91275 6.57333 5.29942 6.84 5.71275C7.10667 6.12609 7.23333 6.52609 7.22 6.91275C7.22 7.28609 7.12 7.59942 6.92 7.85275C6.72 8.10609 6.45333 8.25275 6.12 8.29275C5.8 8.33275 5.44667 8.21942 5.06 7.95275C4.98 7.45942 4.82667 6.96609 4.6 6.47275C4.38667 5.96609 4.12667 5.48609 3.82 5.03275C3.51333 4.56609 3.2 4.15942 2.88 3.81275L3.06 3.69275ZM8.72 3.03275L11.8 3.29275C11.7867 3.42609 11.7267 3.54609 11.62 3.65275C11.5267 3.74609 11.34 3.81275 11.06 3.85275V9.19275H8.72V3.03275ZM14.3 3.51275L17.36 4.91275C17.3067 5.01942 17.2067 5.10609 17.06 5.17275C16.9267 5.22609 16.7533 5.23942 16.54 5.21275C15.9267 5.82609 15.2667 6.41275 14.56 6.97275C13.8667 7.51942 13.1867 7.98609 12.52 8.37275L12.3 8.21275C12.6067 7.65275 12.94 6.94609 13.3 6.09275C13.6733 5.22609 14.0067 4.36609 14.3 3.51275ZM15.74 8.79275H15.54L16.62 7.57275L18.92 9.35275C18.8533 9.41942 18.7467 9.49275 18.6 9.57275C18.4667 9.65275 18.3 9.71275 18.1 9.75275V19.1928C18.1 19.6994 18.0267 20.1394 17.88 20.5128C17.7467 20.8861 17.46 21.1794 17.02 21.3928C16.5933 21.6194 15.9267 21.7794 15.02 21.8728C14.98 21.4994 14.9267 21.1794 14.86 20.9128C14.7933 20.6594 14.68 20.4394 14.52 20.2528C14.3467 20.0928 14.1267 19.9528 13.86 19.8328C13.6067 19.6994 13.2267 19.5861 12.72 19.4928V19.2128C12.72 19.2128 12.8267 19.2261 13.04 19.2528C13.2533 19.2661 13.5133 19.2861 13.82 19.3128C14.1267 19.3261 14.42 19.3394 14.7 19.3528C14.98 19.3661 15.18 19.3728 15.3 19.3728C15.4733 19.3728 15.5867 19.3394 15.64 19.2728C15.7067 19.1928 15.74 19.0861 15.74 18.9528V8.79275ZM1.86 8.79275V7.77275L4.36 8.79275H16.7V9.37275H4.18V21.0928C4.18 21.1728 4.08667 21.2728 3.9 21.3928C3.71333 21.5261 3.46667 21.6394 3.16 21.7328C2.86667 21.8394 2.55333 21.8928 2.22 21.8928H1.86V8.79275ZM6.2 11.8728V10.9928L8.38 11.8728H12.26V12.4328H8.3V17.9128C8.3 17.9794 8.21333 18.0661 8.04 18.1728C7.86667 18.2794 7.64 18.3728 7.36 18.4528C7.08 18.5328 6.79333 18.5728 6.5 18.5728H6.2V11.8728ZM11.54 11.8728H11.34L12.36 10.7528L14.5 12.3928C14.4467 12.4728 14.3467 12.5528 14.2 12.6328C14.0667 12.6994 13.8933 12.7528 13.68 12.7928V17.4928C13.68 17.5461 13.58 17.6194 13.38 17.7128C13.18 17.8061 12.94 17.8994 12.66 17.9928C12.3933 18.0728 12.14 18.1128 11.9 18.1128H11.54V11.8728ZM7.32 16.0728H12.4V16.6528H7.32V16.0728ZM21.76 11.1328H36.32L37.7 9.39275C37.7 9.39275 37.7867 9.45942 37.96 9.59275C38.1333 9.72609 38.3533 9.89275 38.62 10.0928C38.8867 10.2928 39.16 10.5061 39.44 10.7328C39.7333 10.9594 40 11.1728 40.24 11.3728C40.2 11.5861 40.0067 11.6928 39.66 11.6928H21.92L21.76 11.1328ZM23.4 6.91275H35L36.34 5.23275C36.34 5.23275 36.42 5.29942 36.58 5.43275C36.7533 5.55275 36.96 5.71275 37.2 5.91275C37.4533 6.09942 37.72 6.30609 38 6.53275C38.2933 6.74609 38.5533 6.95275 38.78 7.15275C38.7533 7.25942 38.6867 7.33942 38.58 7.39275C38.4733 7.44609 38.3467 7.47275 38.2 7.47275H23.56L23.4 6.91275ZM29.72 3.09275L32.84 3.41275C32.8267 3.54609 32.7667 3.66609 32.66 3.77275C32.5667 3.86609 32.3867 3.93275 32.12 3.97275V21.0128C32.12 21.0928 32.02 21.1994 31.82 21.3328C31.62 21.4794 31.3667 21.5994 31.06 21.6928C30.7667 21.7994 30.4733 21.8528 30.18 21.8528H29.72V3.09275ZM28.56 11.1328H31.36V11.4528C30.4933 13.3728 29.2333 15.0994 27.58 16.6328C25.9267 18.1661 23.9533 19.4328 21.66 20.4328L21.5 20.2128C22.58 19.4528 23.58 18.5794 24.5 17.5928C25.42 16.6061 26.2267 15.5594 26.92 14.4528C27.6133 13.3328 28.16 12.2261 28.56 11.1328ZM32.24 11.1328C32.6267 11.9328 33.12 12.6861 33.72 13.3928C34.3333 14.0861 35.0067 14.7194 35.74 15.2928C36.4733 15.8528 37.2467 16.3461 38.06 16.7728C38.8733 17.1861 39.6933 17.5194 40.52 17.7728L40.48 18.0128C40.0133 18.1061 39.6067 18.3394 39.26 18.7128C38.9133 19.0861 38.66 19.5594 38.5 20.1328C37.46 19.5594 36.52 18.8528 35.68 18.0128C34.8533 17.1594 34.1333 16.1728 33.52 15.0528C32.9067 13.9194 32.4 12.6528 32 11.2528L32.24 11.1328ZM42.84 6.41275H57.36L58.74 4.69275C58.74 4.69275 58.82 4.75942 58.98 4.89275C59.1533 5.01275 59.3733 5.17275 59.64 5.37275C59.9067 5.57275 60.1867 5.78609 60.48 6.01275C60.7733 6.23942 61.0333 6.45942 61.26 6.67275C61.2467 6.77942 61.1867 6.85942 61.08 6.91275C60.9733 6.96609 60.8467 6.99275 60.7 6.99275H43.02L42.84 6.41275ZM49.78 3.03275L53.02 4.01275C52.98 4.13275 52.9067 4.22609 52.8 4.29275C52.6933 4.35942 52.5067 4.39275 52.24 4.39275C51.8667 5.33942 51.3867 6.30609 50.8 7.29275C50.2267 8.27942 49.5467 9.23942 48.76 10.1728C47.9867 11.1061 47.1 11.9794 46.1 12.7928C45.1 13.6061 43.9733 14.3061 42.72 14.8928L42.54 14.6728C43.5 13.9394 44.3667 13.1061 45.14 12.1728C45.9267 11.2261 46.62 10.2328 47.22 9.19275C47.8333 8.15275 48.3533 7.10609 48.78 6.05275C49.2067 4.99942 49.54 3.99275 49.78 3.03275ZM49.4 9.85275V21.1128C49.4 21.1661 49.32 21.2461 49.16 21.3528C49.0133 21.4728 48.7933 21.5794 48.5 21.6728C48.22 21.7661 47.8867 21.8128 47.5 21.8128H47.06V10.4128L47.84 9.15275L49.68 9.85275H49.4ZM48.28 12.9528H57.4V13.5128H48.28V12.9528ZM48.28 9.85275H57.4V10.4128H48.28V9.85275ZM48.28 16.0728H57.4V16.6528H48.28V16.0728ZM55.92 9.85275H55.7L56.8 8.55275L59.2 10.3928C59.1333 10.4861 59.02 10.5794 58.86 10.6728C58.7133 10.7528 58.5267 10.8128 58.3 10.8528V19.0528C58.3 19.5728 58.2333 20.0261 58.1 20.4128C57.9667 20.7994 57.68 21.1061 57.24 21.3328C56.8 21.5728 56.12 21.7328 55.2 21.8128C55.16 21.4261 55.1067 21.0861 55.04 20.7928C54.9867 20.5128 54.88 20.2861 54.72 20.1128C54.5467 19.9261 54.3267 19.7661 54.06 19.6328C53.8067 19.4994 53.42 19.3928 52.9 19.3128V19.0328C52.9 19.0328 53.0067 19.0394 53.22 19.0528C53.4467 19.0661 53.7133 19.0861 54.02 19.1128C54.3267 19.1261 54.62 19.1394 54.9 19.1528C55.18 19.1661 55.38 19.1728 55.5 19.1728C55.66 19.1728 55.7667 19.1394 55.82 19.0728C55.8867 19.0061 55.92 18.8994 55.92 18.7528V9.85275ZM73.4 4.51275H78.52L79.7 3.05275C79.7 3.05275 79.82 3.14609 80.06 3.33275C80.3133 3.51942 80.6067 3.74609 80.94 4.01275C81.2733 4.26609 81.58 4.51942 81.86 4.77275C81.8067 4.97275 81.6267 5.07275 81.32 5.07275H73.4V4.51275ZM73.68 7.11275H78.16L79.18 5.81275C79.18 5.81275 79.2867 5.89942 79.5 6.07275C79.7267 6.23275 79.9867 6.43275 80.28 6.67275C80.5733 6.91275 80.84 7.14609 81.08 7.37275C81.0267 7.58609 80.8467 7.69275 80.54 7.69275H73.68V7.11275ZM73.7 9.73275H78.32L79.32 8.41275C79.32 8.41275 79.4267 8.49942 79.64 8.67275C79.8533 8.83275 80.1067 9.03275 80.4 9.27275C80.6933 9.51275 80.96 9.74609 81.2 9.97275C81.16 10.1861 80.98 10.2928 80.66 10.2928H73.7V9.73275ZM70.96 12.5128H79.18L80.34 11.0528C80.34 11.0528 80.46 11.1461 80.7 11.3328C80.94 11.5194 81.22 11.7461 81.54 12.0128C81.8733 12.2661 82.1667 12.5128 82.42 12.7528C82.3667 12.9661 82.1867 13.0728 81.88 13.0728H71.12L70.96 12.5128ZM72.5 4.51275V3.55275L75.02 4.51275H74.78V19.0528C74.78 19.1194 74.7067 19.2194 74.56 19.3528C74.4133 19.4861 74.2 19.6128 73.92 19.7328C73.64 19.8528 73.3067 19.9128 72.92 19.9128H72.5V4.51275ZM76.46 12.7728C76.74 13.8661 77.1733 14.8594 77.76 15.7528C78.3467 16.6328 79.0533 17.3728 79.88 17.9728C80.7067 18.5728 81.6267 19.0128 82.64 19.2928L82.62 19.5128C82.1933 19.6461 81.82 19.8994 81.5 20.2728C81.1933 20.6594 80.98 21.1528 80.86 21.7528C79.9133 21.1928 79.1267 20.5128 78.5 19.7128C77.8867 18.9128 77.4 17.9461 77.04 16.8128C76.68 15.6794 76.4 14.3594 76.2 12.8528L76.46 12.7728ZM70.4 19.2128C70.84 19.1594 71.4467 19.0794 72.22 18.9728C72.9933 18.8661 73.8733 18.7328 74.86 18.5728C75.8467 18.3994 76.86 18.2194 77.9 18.0328L77.94 18.2728C77.34 18.6461 76.58 19.0794 75.66 19.5728C74.7533 20.0661 73.6333 20.6461 72.3 21.3128C72.2067 21.5794 72.0333 21.7461 71.78 21.8128L70.4 19.2128ZM79.92 13.5128L82.32 15.0128C82.24 15.1594 82.0333 15.1861 81.7 15.0928C81.4067 15.2528 81.0333 15.4394 80.58 15.6528C80.14 15.8661 79.68 16.0728 79.2 16.2728C78.7333 16.4728 78.3 16.6594 77.9 16.8328L77.7 16.5728C77.9533 16.2794 78.22 15.9528 78.5 15.5928C78.78 15.2194 79.04 14.8461 79.28 14.4728C79.5333 14.0994 79.7467 13.7794 79.92 13.5128ZM64.14 6.67275V5.85275L66.04 6.67275H70.74V7.25275H65.94V17.2928C65.94 17.3461 65.8667 17.4261 65.72 17.5328C65.5733 17.6394 65.3867 17.7328 65.16 17.8128C64.9333 17.8794 64.6867 17.9128 64.42 17.9128H64.14V6.67275ZM69.34 6.67275H69.14L69.98 5.67275L71.96 7.17275C71.8933 7.25275 71.7867 7.33275 71.64 7.41275C71.4933 7.47942 71.3133 7.53275 71.1 7.57275V15.3728C71.1 15.8128 71.06 16.1928 70.98 16.5128C70.9 16.8194 70.7267 17.0594 70.46 17.2328C70.1933 17.4061 69.7733 17.5261 69.2 17.5928C69.2 17.2994 69.1867 17.0394 69.16 16.8128C69.1333 16.5861 69.0867 16.4061 69.02 16.2728C68.9667 16.1394 68.8867 16.0261 68.78 15.9328C68.6733 15.8394 68.5133 15.7728 68.3 15.7328V15.4128C68.3 15.4128 68.3533 15.4194 68.46 15.4328C68.5667 15.4328 68.68 15.4394 68.8 15.4528C68.9333 15.4661 69.0333 15.4728 69.1 15.4728C69.26 15.4728 69.34 15.3661 69.34 15.1528V6.67275ZM66.5 6.89275V3.19275L69.42 3.47275C69.4067 3.60609 69.3533 3.71942 69.26 3.81275C69.1667 3.90609 68.9867 3.97275 68.72 4.01275V6.89275H68.42V6.93275H68.52V21.2328C68.52 21.2728 68.44 21.3394 68.28 21.4328C68.1333 21.5261 67.9467 21.6128 67.72 21.6928C67.5067 21.7728 67.2667 21.8128 67 21.8128H66.68V6.93275H66.78V6.89275H66.5ZM86.24 8.69275H90.82V9.25275H86.24V8.69275ZM85.5 4.43275V3.61275L87.54 4.43275H90.9V5.01275H87.46V9.93275C87.46 9.98609 87.3733 10.0661 87.2 10.1728C87.04 10.2661 86.8333 10.3528 86.58 10.4328C86.3267 10.4994 86.06 10.5328 85.78 10.5328H85.5V4.43275ZM89.42 4.43275H89.22L90.18 3.39275L92.24 4.93275C92.1867 5.01275 92.0867 5.09275 91.94 5.17275C91.7933 5.25275 91.62 5.31275 91.42 5.35275V9.63275C91.42 9.67275 91.32 9.73942 91.12 9.83275C90.9333 9.91275 90.7133 9.98609 90.46 10.0528C90.2067 10.1194 89.9733 10.1528 89.76 10.1528H89.42V4.43275ZM84.62 11.3728H89.56L90.6 9.93275C90.6 9.93275 90.7067 10.0261 90.92 10.2128C91.1467 10.3994 91.4067 10.6261 91.7 10.8928C91.9933 11.1461 92.26 11.3861 92.5 11.6128C92.46 11.8261 92.28 11.9328 91.96 11.9328H84.78L84.62 11.3728ZM86.76 14.1128H90.78V14.6928H86.54L86.76 14.1128ZM86.2 11.3728H88.32C88.2533 11.7594 88.16 12.2261 88.04 12.7728C87.9333 13.3061 87.8133 13.8461 87.68 14.3928C87.56 14.9261 87.4467 15.3794 87.34 15.7528C87.1267 15.8994 86.82 15.9861 86.42 16.0128C86.0333 16.0261 85.62 15.9728 85.18 15.8528C85.2733 15.5861 85.3733 15.2528 85.48 14.8528C85.5867 14.4528 85.6867 14.0394 85.78 13.6128C85.8867 13.1728 85.9733 12.7528 86.04 12.3528C86.12 11.9528 86.1733 11.6261 86.2 11.3728ZM89.34 14.1128H89.14L90.18 13.0928L92.08 14.6528C91.9467 14.8261 91.6867 14.9394 91.3 14.9928C91.2333 16.2594 91.1333 17.3128 91 18.1528C90.8667 18.9794 90.7 19.6328 90.5 20.1128C90.3 20.6061 90.0467 20.9728 89.74 21.2128C89.46 21.4128 89.1333 21.5661 88.76 21.6728C88.4 21.7794 87.9933 21.8328 87.54 21.8328C87.54 21.5528 87.52 21.2928 87.48 21.0528C87.44 20.8128 87.36 20.6261 87.24 20.4928C87.1067 20.3461 86.92 20.2194 86.68 20.1128C86.4533 20.0061 86.18 19.9194 85.86 19.8528L85.88 19.5728C86.0667 19.5861 86.28 19.5994 86.52 19.6128C86.7733 19.6261 87.0133 19.6394 87.24 19.6528C87.4667 19.6661 87.64 19.6728 87.76 19.6728C88.04 19.6728 88.24 19.6194 88.36 19.5128C88.6 19.3128 88.8 18.7728 88.96 17.8928C89.12 17.0128 89.2467 15.7528 89.34 14.1128ZM96.54 3.09275L99.32 3.33275C99.3067 3.46609 99.2533 3.57942 99.16 3.67275C99.0667 3.75275 98.9 3.81275 98.66 3.85275V7.57275H96.54V3.09275ZM93.36 7.41275H102.16V7.99275H93.36V7.41275ZM97.42 5.43275H99.96L101.06 3.97275C101.06 3.97275 101.173 4.06609 101.4 4.25275C101.627 4.43942 101.893 4.66609 102.2 4.93275C102.52 5.18609 102.8 5.43275 103.04 5.67275C102.987 5.88609 102.807 5.99275 102.5 5.99275H97.42V5.43275ZM92.78 7.41275V7.21275V6.53275L95.2 7.41275H94.86V12.0728C94.86 12.8461 94.82 13.6661 94.74 14.5328C94.6733 15.3861 94.5133 16.2528 94.26 17.1328C94.02 17.9994 93.64 18.8394 93.12 19.6528C92.6 20.4528 91.8867 21.1794 90.98 21.8328L90.76 21.6528C91.3867 20.7194 91.84 19.7194 92.12 18.6528C92.4 17.5728 92.58 16.4728 92.66 15.3528C92.74 14.2328 92.78 13.1394 92.78 12.0728V7.41275ZM100.92 7.41275H100.7L101.7 6.41275L103.5 8.11275C103.42 8.19275 103.32 8.24609 103.2 8.27275C103.093 8.29942 102.94 8.32609 102.74 8.35275C102.487 8.53942 102.167 8.75942 101.78 9.01275C101.407 9.25275 101.067 9.45275 100.76 9.61275L100.52 9.49275C100.587 9.21275 100.66 8.86609 100.74 8.45275C100.833 8.02609 100.893 7.67942 100.92 7.41275ZM96.5 8.29275L98.96 8.51275C98.9333 8.77942 98.74 8.93942 98.38 8.99275V11.7728C98.38 11.8928 98.4067 11.9728 98.46 12.0128C98.5267 12.0528 98.66 12.0728 98.86 12.0728H99.96C100.16 12.0728 100.347 12.0728 100.52 12.0728C100.707 12.0728 100.84 12.0661 100.92 12.0528C101.013 12.0528 101.093 12.0461 101.16 12.0328C101.227 12.0194 101.287 11.9861 101.34 11.9328C101.407 11.8528 101.493 11.7061 101.6 11.4928C101.707 11.2794 101.82 11.0394 101.94 10.7728H102.14L102.22 11.9328C102.46 12.0394 102.62 12.1461 102.7 12.2528C102.793 12.3594 102.84 12.4928 102.84 12.6528C102.84 12.9061 102.747 13.1061 102.56 13.2528C102.373 13.3994 102.053 13.5061 101.6 13.5728C101.16 13.6394 100.54 13.6728 99.74 13.6728H98.32C97.7867 13.6728 97.3933 13.6261 97.14 13.5328C96.8867 13.4394 96.7133 13.2794 96.62 13.0528C96.54 12.8261 96.5 12.5194 96.5 12.1328V8.29275ZM98.66 14.3528L101.22 14.5928C101.207 14.7261 101.153 14.8394 101.06 14.9328C100.967 15.0128 100.82 15.0661 100.62 15.0928V19.4528C100.62 19.5594 100.633 19.6328 100.66 19.6728C100.7 19.7128 100.78 19.7328 100.9 19.7328H101.3C101.38 19.7328 101.46 19.7328 101.54 19.7328C101.62 19.7328 101.673 19.7328 101.7 19.7328C101.82 19.7194 101.92 19.6528 102 19.5328C102.067 19.3994 102.16 19.1261 102.28 18.7128C102.4 18.2994 102.527 17.8528 102.66 17.3728H102.88L102.96 19.6128C103.187 19.7194 103.333 19.8394 103.4 19.9728C103.467 20.0928 103.5 20.2394 103.5 20.4128C103.5 20.7861 103.313 21.0728 102.94 21.2728C102.567 21.4861 101.953 21.5928 101.1 21.5928H100.22C99.7533 21.5928 99.4067 21.5394 99.18 21.4328C98.9667 21.3261 98.8267 21.1528 98.76 20.9128C98.6933 20.6728 98.66 20.3528 98.66 19.9528V14.3528ZM95.76 14.4528L98.54 14.8928C98.5133 15.0394 98.44 15.1528 98.32 15.2328C98.2133 15.3128 98.04 15.3661 97.8 15.3928C97.7067 16.2061 97.5133 17.0194 97.22 17.8328C96.94 18.6328 96.4933 19.3794 95.88 20.0728C95.28 20.7661 94.44 21.3528 93.36 21.8328L93.2 21.5928C93.9333 20.9928 94.4867 20.2994 94.86 19.5128C95.2467 18.7128 95.5 17.8794 95.62 17.0128C95.74 16.1328 95.7867 15.2794 95.76 14.4528ZM94.44 10.6728L99.54 10.1928L100.24 9.11275C100.24 9.11275 100.327 9.17275 100.5 9.29275C100.687 9.41275 100.9 9.55942 101.14 9.73275C101.393 9.89275 101.613 10.0528 101.8 10.2128C101.773 10.4394 101.62 10.5661 101.34 10.5928L94.64 11.2128L94.44 10.6728ZM114.24 20.3328C113.84 20.3328 113.493 20.1928 113.2 19.9128C112.92 19.6328 112.78 19.2994 112.78 18.9128C112.78 18.4994 112.92 18.1528 113.2 17.8728C113.493 17.5928 113.84 17.4528 114.24 17.4528C114.667 17.4528 115.02 17.5928 115.3 17.8728C115.593 18.1528 115.74 18.4994 115.74 18.9128C115.74 19.2994 115.593 19.6328 115.3 19.9128C115.02 20.1928 114.667 20.3328 114.24 20.3328ZM113.9 15.6728C113.86 15.3261 113.813 14.9728 113.76 14.6128C113.72 14.2394 113.7 13.9194 113.7 13.6528C113.7 13.3328 113.76 13.0394 113.88 12.7728C114.013 12.5061 114.213 12.2328 114.48 11.9528C114.747 11.6594 115.093 11.3194 115.52 10.9328C115.92 10.5594 116.227 10.2394 116.44 9.97275C116.667 9.70609 116.82 9.42609 116.9 9.13275C116.993 8.82609 117.04 8.45275 117.04 8.01275C117.04 7.17275 116.793 6.53275 116.3 6.09275C115.807 5.63942 115.093 5.41275 114.16 5.41275C113.947 5.41275 113.74 5.42609 113.54 5.45275C113.353 5.47942 113.16 5.52609 112.96 5.59275C112.773 5.65942 112.56 5.74609 112.32 5.85275L113.18 5.15275C113.033 6.00609 112.887 6.67942 112.74 7.17275C112.593 7.66609 112.44 8.03275 112.28 8.27275C112.12 8.49942 111.947 8.65275 111.76 8.73275C111.573 8.79942 111.367 8.83275 111.14 8.83275C110.9 8.83275 110.68 8.77942 110.48 8.67275C110.293 8.56609 110.133 8.41942 110 8.23275C110.04 7.47275 110.267 6.83275 110.68 6.31275C111.107 5.77942 111.68 5.37942 112.4 5.11275C113.12 4.83275 113.94 4.69275 114.86 4.69275C115.94 4.69275 116.84 4.83942 117.56 5.13275C118.293 5.41275 118.84 5.81275 119.2 6.33275C119.573 6.83942 119.76 7.43942 119.76 8.13275C119.76 8.65275 119.673 9.12609 119.5 9.55275C119.327 9.97942 119.04 10.3928 118.64 10.7928C118.253 11.1794 117.72 11.5794 117.04 11.9928C116.493 12.3394 116.047 12.6328 115.7 12.8728C115.367 13.0994 115.12 13.3328 114.96 13.5728C114.813 13.7994 114.727 14.0928 114.7 14.4528L114.6 15.6728H113.9ZM136.58 12.8528V11.9728L138.86 12.8528H142.36L143.38 11.6728L145.36 13.2128C145.293 13.2928 145.2 13.3661 145.08 13.4328C144.96 13.4994 144.793 13.5461 144.58 13.5728V21.0728C144.58 21.1261 144.413 21.2261 144.08 21.3728C143.76 21.5194 143.333 21.5928 142.8 21.5928H142.42V13.4128H138.64V21.2328C138.64 21.3128 138.487 21.4194 138.18 21.5528C137.887 21.6994 137.473 21.7728 136.94 21.7728H136.58V12.8528ZM137.5 19.4928H143.52V20.0528H137.5V19.4928ZM139.2 3.23275L142.14 3.49275C142.127 3.63942 142.067 3.76609 141.96 3.87275C141.853 3.96609 141.667 4.03275 141.4 4.07275V13.1728H139.2V3.23275ZM140.26 8.27275H142.46L143.56 6.63275C143.56 6.63275 143.627 6.69942 143.76 6.83275C143.907 6.95275 144.087 7.11275 144.3 7.31275C144.513 7.49942 144.733 7.69942 144.96 7.91275C145.187 8.12609 145.387 8.32609 145.56 8.51275C145.52 8.72609 145.347 8.83275 145.04 8.83275H140.26V8.27275ZM127.38 4.31275V3.53275L129.28 4.31275H135.02V4.89275H129.18V11.1328C129.18 11.1861 129.107 11.2594 128.96 11.3528C128.813 11.4328 128.62 11.5128 128.38 11.5928C128.153 11.6594 127.907 11.6928 127.64 11.6928H127.38V4.31275ZM134.04 4.31275H133.86L134.74 3.35275L136.66 4.77275C136.607 4.85275 136.513 4.93275 136.38 5.01275C136.247 5.07942 136.087 5.12609 135.9 5.15275V10.7728C135.9 10.8128 135.813 10.8728 135.64 10.9528C135.467 11.0328 135.26 11.1061 135.02 11.1728C134.78 11.2394 134.56 11.2728 134.36 11.2728H134.04V4.31275ZM128.2 10.0128H134.64V10.5728H128.2V10.0128ZM127.08 12.4928H133.42L134.42 11.2328C134.42 11.2328 134.527 11.3128 134.74 11.4728C134.953 11.6328 135.207 11.8328 135.5 12.0728C135.793 12.2994 136.06 12.5261 136.3 12.7528C136.26 12.9661 136.087 13.0728 135.78 13.0728H127.24L127.08 12.4928ZM129.48 5.59275C130.04 6.16609 130.407 6.70609 130.58 7.21275C130.767 7.70609 130.827 8.11942 130.76 8.45275C130.693 8.78609 130.553 9.00609 130.34 9.11275C130.14 9.20609 129.933 9.13275 129.72 8.89275C129.747 8.38609 129.7 7.83275 129.58 7.23275C129.46 6.61942 129.333 6.09942 129.2 5.67275L129.48 5.59275ZM128.32 17.3128L128.62 17.3328C128.927 18.3061 129.033 19.1528 128.94 19.8728C128.86 20.5794 128.66 21.1128 128.34 21.4728C128.193 21.6328 128 21.7328 127.76 21.7728C127.52 21.8261 127.287 21.8128 127.06 21.7328C126.847 21.6528 126.687 21.5061 126.58 21.2928C126.447 20.9994 126.44 20.7128 126.56 20.4328C126.68 20.1661 126.873 19.9461 127.14 19.7728C127.313 19.6261 127.487 19.4194 127.66 19.1528C127.847 18.8861 128 18.5928 128.12 18.2728C128.253 17.9394 128.32 17.6194 128.32 17.3128ZM129.98 17.1128C130.593 17.6194 131.02 18.1261 131.26 18.6328C131.5 19.1261 131.6 19.5728 131.56 19.9728C131.52 20.3728 131.393 20.6861 131.18 20.9128C130.98 21.1528 130.74 21.2661 130.46 21.2528C130.18 21.2528 129.92 21.0928 129.68 20.7728C129.813 20.1728 129.873 19.5528 129.86 18.9128C129.86 18.2594 129.813 17.6794 129.72 17.1728L129.98 17.1128ZM133.72 16.0928C134.413 16.3061 134.953 16.5594 135.34 16.8528C135.74 17.1328 136.013 17.4261 136.16 17.7328C136.32 18.0394 136.38 18.3261 136.34 18.5928C136.313 18.8594 136.22 19.0794 136.06 19.2528C135.913 19.4261 135.72 19.5194 135.48 19.5328C135.253 19.5328 135.013 19.4261 134.76 19.2128C134.747 18.8661 134.68 18.5128 134.56 18.1528C134.44 17.7794 134.287 17.4261 134.1 17.0928C133.913 16.7594 133.713 16.4728 133.5 16.2328L133.72 16.0928ZM131.7 16.6728C132.473 17.0328 133.033 17.4261 133.38 17.8528C133.74 18.2661 133.947 18.6594 134 19.0328C134.053 19.4061 134 19.7261 133.84 19.9928C133.68 20.2461 133.46 20.3928 133.18 20.4328C132.913 20.4728 132.64 20.3528 132.36 20.0728C132.387 19.5128 132.307 18.9328 132.12 18.3328C131.947 17.7194 131.733 17.1994 131.48 16.7728L131.7 16.6728ZM126.64 14.9328C127.187 14.9061 127.953 14.8661 128.94 14.8128C129.927 14.7594 131.047 14.6928 132.3 14.6128C133.567 14.5328 134.86 14.4394 136.18 14.3328L136.2 14.6328C135.307 14.9261 134.193 15.2594 132.86 15.6328C131.527 16.0061 129.92 16.4261 128.04 16.8928C127.973 17.0261 127.887 17.1328 127.78 17.2128C127.673 17.2794 127.567 17.3261 127.46 17.3528L126.64 14.9328ZM130.84 4.31275H132.32V10.1728L132.1 10.1928L132.6 10.2128V14.9328C132.6 14.9861 132.447 15.0928 132.14 15.2528C131.847 15.4128 131.44 15.4928 130.92 15.4928H130.54V10.2128L131.06 10.1928L130.84 10.1728V4.31275ZM132.92 5.51275L134.64 5.95275C134.627 6.04609 134.573 6.14609 134.48 6.25275C134.387 6.34609 134.227 6.39275 134 6.39275C133.88 6.73942 133.7 7.17942 133.46 7.71275C133.233 8.23275 132.993 8.73275 132.74 9.21275L132.48 9.13275C132.533 8.75942 132.587 8.34609 132.64 7.89275C132.707 7.43942 132.76 6.99942 132.8 6.57275C132.853 6.14609 132.893 5.79275 132.92 5.51275ZM152.02 17.6728C152.38 18.0461 152.753 18.3461 153.14 18.5728C153.527 18.7861 153.967 18.9528 154.46 19.0728C154.967 19.1794 155.56 19.2528 156.24 19.2928C156.92 19.3328 157.727 19.3528 158.66 19.3528C159.447 19.3528 160.3 19.3528 161.22 19.3528C162.14 19.3394 163.067 19.3261 164 19.3128C164.947 19.2994 165.847 19.2794 166.7 19.2528V19.5128C165.78 19.7261 165.273 20.3528 165.18 21.3928C164.567 21.3928 163.887 21.3928 163.14 21.3928C162.407 21.3928 161.653 21.3928 160.88 21.3928C160.12 21.3928 159.393 21.3928 158.7 21.3928C157.727 21.3928 156.88 21.3461 156.16 21.2528C155.44 21.1728 154.82 21.0061 154.3 20.7528C153.78 20.5128 153.32 20.1728 152.92 19.7328C152.52 19.2928 152.147 18.7194 151.8 18.0128C151.547 18.3728 151.26 18.7661 150.94 19.1928C150.62 19.6061 150.3 19.9994 149.98 20.3728C149.66 20.7594 149.373 21.0861 149.12 21.3528C149.12 21.4861 149.093 21.5861 149.04 21.6528C148.987 21.7328 148.913 21.7928 148.82 21.8328L147.56 19.3328C147.947 19.1994 148.393 19.0261 148.9 18.8128C149.42 18.5861 149.953 18.3461 150.5 18.0928C151.047 17.8261 151.553 17.5794 152.02 17.3528V17.6728ZM152.02 12.6928V17.6328L149.9 18.7928V12.3928H147.74L147.62 11.8328H149.58L150.7 10.3528L153.04 12.2728C152.973 12.3528 152.86 12.4328 152.7 12.5128C152.54 12.5928 152.313 12.6528 152.02 12.6928ZM148.16 3.69275C149.12 3.89275 149.88 4.16609 150.44 4.51275C151.013 4.85942 151.407 5.22609 151.62 5.61275C151.847 5.99942 151.947 6.37275 151.92 6.73275C151.893 7.07942 151.773 7.36609 151.56 7.59275C151.36 7.80609 151.093 7.92609 150.76 7.95275C150.44 7.97942 150.107 7.85275 149.76 7.57275C149.707 7.11942 149.587 6.66609 149.4 6.21275C149.227 5.75942 149.013 5.32609 148.76 4.91275C148.507 4.49942 148.247 4.13275 147.98 3.81275L148.16 3.69275ZM153.12 4.21275H157.6V4.79275H153.3L153.12 4.21275ZM160.86 6.15275H163.92V6.71275H160.86V6.15275ZM153.3 11.8528H162.64L163.7 10.5528C163.7 10.5528 163.807 10.6394 164.02 10.8128C164.247 10.9728 164.513 11.1728 164.82 11.4128C165.127 11.6528 165.4 11.8861 165.64 12.1128C165.587 12.3261 165.413 12.4328 165.12 12.4328H153.46L153.3 11.8528ZM152.54 14.6528H162.92L164.12 13.1728C164.12 13.1728 164.24 13.2661 164.48 13.4528C164.72 13.6394 165.007 13.8661 165.34 14.1328C165.687 14.3994 166 14.6528 166.28 14.8928C166.227 15.1061 166.047 15.2128 165.74 15.2128H152.7L152.54 14.6528ZM155.8 9.95275L158.48 10.1728C158.467 10.2928 158.42 10.3928 158.34 10.4728C158.26 10.5528 158.127 10.6061 157.94 10.6328V15.0728H155.8V9.95275ZM160.16 9.95275L162.88 10.1728C162.867 10.2928 162.82 10.3928 162.74 10.4728C162.66 10.5528 162.527 10.6128 162.34 10.6528V15.0728H160.16V9.95275ZM156.4 15.2328L159.1 16.8728C159.007 16.9794 158.867 17.0528 158.68 17.0928C158.507 17.1194 158.26 17.1061 157.94 17.0528C157.553 17.3061 157.087 17.5461 156.54 17.7728C156.007 17.9994 155.427 18.2061 154.8 18.3928C154.173 18.5661 153.527 18.7061 152.86 18.8128L152.76 18.5928C153.253 18.3128 153.733 17.9794 154.2 17.5928C154.68 17.2061 155.113 16.8061 155.5 16.3928C155.887 15.9661 156.187 15.5794 156.4 15.2328ZM159.74 6.15275V5.31275V5.29275L161.92 6.15275H161.68V7.93275C161.68 8.02609 161.7 8.09275 161.74 8.13275C161.793 8.17275 161.913 8.19275 162.1 8.19275H163.16C163.36 8.19275 163.547 8.19275 163.72 8.19275C163.907 8.19275 164.033 8.19275 164.1 8.19275C164.273 8.19275 164.4 8.14609 164.48 8.05275C164.56 7.97275 164.653 7.83275 164.76 7.63275C164.867 7.41942 164.98 7.16609 165.1 6.87275H165.32L165.38 8.05275C165.62 8.15942 165.78 8.26609 165.86 8.37275C165.953 8.47942 166 8.61275 166 8.77275C166 9.02609 165.9 9.22609 165.7 9.37275C165.513 9.50609 165.2 9.61275 164.76 9.69275C164.32 9.75942 163.713 9.79275 162.94 9.79275H161.54C161.007 9.79275 160.613 9.74609 160.36 9.65275C160.107 9.55942 159.94 9.39942 159.86 9.17275C159.78 8.94609 159.74 8.63942 159.74 8.25275V6.15275ZM159.44 4.21275H164.1V4.79275H159.62L159.44 4.21275ZM162.96 4.21275H162.78L163.7 3.27275L165.62 4.69275C165.567 4.74609 165.48 4.81275 165.36 4.89275C165.253 4.95942 165.12 5.00609 164.96 5.03275V6.61275C164.96 6.66609 164.867 6.73942 164.68 6.83275C164.493 6.91275 164.273 6.99275 164.02 7.07275C163.767 7.13942 163.527 7.17275 163.3 7.17275H162.96V4.21275ZM154.52 6.15275H157.58V6.71275H154.52V6.15275ZM153.2 6.15275V5.31275V5.29275L155.36 6.15275H155.1V7.93275C155.1 8.02609 155.12 8.09275 155.16 8.13275C155.213 8.17275 155.34 8.19275 155.54 8.19275H156.56C156.747 8.19275 156.927 8.19275 157.1 8.19275C157.273 8.19275 157.4 8.19275 157.48 8.19275C157.64 8.19275 157.767 8.14609 157.86 8.05275C157.927 7.97275 158.013 7.83275 158.12 7.63275C158.227 7.43275 158.34 7.19275 158.46 6.91275H158.66L158.74 8.05275C158.993 8.15942 159.16 8.26609 159.24 8.37275C159.32 8.47942 159.36 8.61275 159.36 8.77275C159.36 9.01275 159.26 9.20609 159.06 9.35275C158.873 9.49942 158.56 9.60609 158.12 9.67275C157.693 9.73942 157.1 9.77275 156.34 9.77275H154.96C154.453 9.77275 154.073 9.72609 153.82 9.63275C153.567 9.53942 153.4 9.37942 153.32 9.15275C153.24 8.92609 153.2 8.62609 153.2 8.25275V6.15275ZM156.48 4.21275H156.3L157.2 3.27275L159.1 4.69275C158.98 4.83942 158.76 4.95275 158.44 5.03275V6.61275C158.44 6.66609 158.347 6.73942 158.16 6.83275C157.987 6.91275 157.773 6.99275 157.52 7.07275C157.267 7.13942 157.033 7.17275 156.82 7.17275H156.48V4.21275ZM160.02 15.6928C161.273 15.7861 162.28 15.9394 163.04 16.1528C163.8 16.3661 164.367 16.6061 164.74 16.8728C165.113 17.1261 165.333 17.3861 165.4 17.6528C165.467 17.9061 165.427 18.1394 165.28 18.3528C165.147 18.5661 164.94 18.7261 164.66 18.8328C164.393 18.9394 164.107 18.9728 163.8 18.9328C163.507 18.8928 163.233 18.7461 162.98 18.4928C162.74 18.1194 162.36 17.6994 161.84 17.2328C161.333 16.7528 160.693 16.3261 159.92 15.9528L160.02 15.6928ZM176.6 7.21275H184.06L185.24 5.67275C185.24 5.67275 185.307 5.73275 185.44 5.85275C185.587 5.95942 185.773 6.10609 186 6.29275C186.227 6.47942 186.46 6.67275 186.7 6.87275C186.953 7.07275 187.18 7.26609 187.38 7.45275C187.34 7.66609 187.153 7.77275 186.82 7.77275H176.76L176.6 7.21275ZM176.9 13.0528H183.9L185.04 11.5528C185.04 11.5528 185.16 11.6528 185.4 11.8528C185.64 12.0394 185.92 12.2661 186.24 12.5328C186.573 12.7994 186.867 13.0594 187.12 13.3128C187.067 13.5261 186.887 13.6328 186.58 13.6328H177.06L176.9 13.0528ZM175.9 20.3328H184.12L185.34 18.6928C185.34 18.6928 185.42 18.7594 185.58 18.8928C185.74 19.0128 185.933 19.1661 186.16 19.3528C186.387 19.5394 186.627 19.7461 186.88 19.9728C187.147 20.1861 187.38 20.3928 187.58 20.5928C187.54 20.8061 187.353 20.9128 187.02 20.9128H176.06L175.9 20.3328ZM169.56 4.57275H173.24L174.3 3.15275C174.3 3.15275 174.413 3.24609 174.64 3.43275C174.867 3.60609 175.133 3.82609 175.44 4.09275C175.76 4.34609 176.04 4.58609 176.28 4.81275C176.227 5.02609 176.047 5.13275 175.74 5.13275H169.72L169.56 4.57275ZM169.5 9.69275H173.38L174.36 8.37275C174.36 8.37275 174.467 8.45942 174.68 8.63275C174.893 8.80609 175.14 9.01275 175.42 9.25275C175.7 9.49275 175.953 9.72609 176.18 9.95275C176.14 10.1528 175.967 10.2528 175.66 10.2528H169.66L169.5 9.69275ZM169.5 12.2928H173.58L174.58 10.9728C174.58 10.9728 174.68 11.0594 174.88 11.2328C175.093 11.4061 175.34 11.6128 175.62 11.8528C175.913 12.0928 176.167 12.3261 176.38 12.5528C176.367 12.6461 176.307 12.7194 176.2 12.7728C176.107 12.8261 175.993 12.8528 175.86 12.8528H169.66L169.5 12.2928ZM168.54 7.09275H173.82L174.96 5.57275C174.96 5.57275 175.033 5.63275 175.18 5.75275C175.327 5.87275 175.507 6.02609 175.72 6.21275C175.933 6.38609 176.16 6.57275 176.4 6.77275C176.64 6.97275 176.86 7.16609 177.06 7.35275C177.007 7.56609 176.827 7.67275 176.52 7.67275H168.7L168.54 7.09275ZM169.5 14.9528V14.0728L171.64 14.9528H174.64V15.5128H171.56V21.1328C171.56 21.1994 171.473 21.2861 171.3 21.3928C171.127 21.4994 170.907 21.5928 170.64 21.6728C170.373 21.7528 170.093 21.7928 169.8 21.7928H169.5V14.9528ZM173.8 14.9528H173.6L174.64 13.8528L176.76 15.4528C176.693 15.5194 176.593 15.5928 176.46 15.6728C176.34 15.7394 176.187 15.7928 176 15.8328V20.4528C176 20.5061 175.9 20.5794 175.7 20.6728C175.5 20.7794 175.26 20.8728 174.98 20.9528C174.7 21.0461 174.433 21.0928 174.18 21.0928H173.8V14.9528ZM170.56 19.2728H174.6V19.8528H170.56V19.2728ZM180.5 3.25275L183.46 3.51275C183.447 3.63275 183.393 3.73942 183.3 3.83275C183.22 3.91275 183.06 3.97275 182.82 4.01275V7.65275H180.5V3.25275ZM180.5 7.71275L183.46 7.99275C183.447 8.12609 183.393 8.23942 183.3 8.33275C183.22 8.42609 183.06 8.48609 182.82 8.51275V20.6328H180.5V7.71275ZM191.66 4.81275V3.79275L194.1 4.81275H205.14V5.37275H193.94V20.9728C193.94 21.0794 193.847 21.1994 193.66 21.3328C193.487 21.4661 193.253 21.5861 192.96 21.6928C192.68 21.7994 192.373 21.8528 192.04 21.8528H191.66V4.81275ZM204.02 4.81275H203.82L204.88 3.57275L207.16 5.33275C207.093 5.41275 206.993 5.49275 206.86 5.57275C206.727 5.65275 206.553 5.71275 206.34 5.75275V19.1728C206.34 19.7061 206.28 20.1594 206.16 20.5328C206.053 20.9194 205.813 21.2194 205.44 21.4328C205.067 21.6594 204.487 21.8061 203.7 21.8728C203.687 21.4994 203.66 21.1661 203.62 20.8728C203.58 20.5928 203.513 20.3794 203.42 20.2328C203.34 20.0461 203.213 19.8928 203.04 19.7728C202.867 19.6528 202.62 19.5594 202.3 19.4928V19.2128C202.3 19.2128 202.353 19.2194 202.46 19.2328C202.58 19.2328 202.72 19.2394 202.88 19.2528C203.04 19.2661 203.193 19.2794 203.34 19.2928C203.487 19.2928 203.6 19.2928 203.68 19.2928C203.827 19.2928 203.92 19.2661 203.96 19.2128C204 19.1461 204.02 19.0461 204.02 18.9128V4.81275ZM189.42 11.9728H206.3L207.26 10.2728C207.26 10.2728 207.353 10.3861 207.54 10.6128C207.74 10.8261 207.967 11.0861 208.22 11.3928C208.473 11.6861 208.687 11.9594 208.86 12.2128C208.807 12.4261 208.633 12.5328 208.34 12.5328H189.58L189.42 11.9728ZM195.8 4.81275H197.94V20.9128C197.94 20.9794 197.78 21.0994 197.46 21.2728C197.153 21.4461 196.727 21.5328 196.18 21.5328H195.8V4.81275ZM199.9 4.81275H202.04V20.9128C202.04 20.9794 201.887 21.0994 201.58 21.2728C201.273 21.4461 200.84 21.5328 200.28 21.5328H199.9V4.81275Z" fill="#F5F5F5"/>
<line x1="126" y1="25.5" x2="207" y2="25.5" stroke="#F5F5F5"/>
</svg>
