<svg width="640" height="25" viewBox="0 0 640 25" fill="none" xmlns="http://www.w3.org/2000/svg">
<line y1="11.8228" x2="200" y2="11.8228" stroke="#F5F5F5" stroke-width="0.5"/>
<path d="M246.62 4.05275H259.38V6.23275H246.62V4.05275ZM249.24 9.59275V11.5728H256.54V9.59275H249.24ZM247.06 7.63275H258.84V13.5328H247.06V7.63275ZM248.94 13.7328C250.72 16.6128 254.5 18.2328 259.68 18.7128C259.18 19.2328 258.58 20.1928 258.28 20.8528C252.86 20.1128 249.16 18.0928 246.98 14.3328L248.94 13.7328ZM251.68 2.21275H254.04V11.3528C254.04 15.4328 253.02 19.1528 247.28 20.8728C247 20.3328 246.3 19.3728 245.78 18.8728C251.16 17.6728 251.68 14.6128 251.68 11.3328V2.21275ZM245.1 2.03275L247.34 2.75275C245.98 6.15275 243.78 9.73275 241.5 11.9928C241.3 11.4328 240.66 10.1128 240.26 9.53275C242.16 7.73275 244.02 4.89275 245.1 2.03275ZM243.16 7.61275L245.42 5.33275L245.44 5.35275V20.9128H243.16V7.61275ZM264.2 3.43275H276.48V5.71275H264.2V3.43275ZM264.2 8.03275H276.52V10.2728H264.2V8.03275ZM264.16 12.7528H276.6V15.0128H264.16V12.7528ZM262.82 3.43275H265.2V10.6328C265.2 13.8128 264.8 18.3128 262.34 20.9928C261.96 20.5328 260.98 19.7328 260.46 19.4328C262.64 17.0128 262.82 13.4328 262.82 10.6128V3.43275ZM275.64 3.43275H278.02V18.0528C278.02 19.3328 277.74 19.9728 276.94 20.3528C276.1 20.7328 274.9 20.7728 273.08 20.7528C272.98 20.1128 272.62 19.0728 272.3 18.4528C273.44 18.5328 274.76 18.5128 275.12 18.5128C275.5 18.4928 275.64 18.3728 275.64 18.0328V3.43275ZM268.98 4.33275H271.42V20.6328H268.98V4.33275ZM280.98 14.3328H298.98V16.5328H280.98V14.3328ZM281.6 4.09275H298.48V6.29275H281.6V4.09275ZM285.92 7.53275H294.02V9.53275H285.92V7.53275ZM285.92 10.8928H294.02V12.8928H285.92V10.8928ZM284.4 2.13275H286.78V15.5128H284.4V2.13275ZM293.1 2.13275H295.54V15.5128H293.1V2.13275ZM291 18.1528L292.72 16.6728C295 17.4528 297.58 18.5328 299.1 19.2928L296.78 20.8128C295.5 20.0328 293.2 18.9528 291 18.1528ZM286.96 16.4728L288.96 18.0528C287.14 19.0928 284.42 20.2128 282.3 20.8528C281.94 20.3528 281.24 19.5528 280.74 19.0528C282.84 18.4928 285.56 17.3728 286.96 16.4728ZM312.14 2.17275H314.38V16.1128H312.14V2.17275ZM305.38 10.0128L317.26 5.39275L318.16 7.47275L306.3 12.1328L305.38 10.0128ZM307.82 4.33275H310.2V17.0328C310.2 18.2328 310.4 18.4128 311.72 18.4128C312.32 18.4128 315.06 18.4128 315.76 18.4128C316.92 18.4128 317.14 17.9328 317.32 15.6528C317.86 16.0328 318.82 16.4328 319.5 16.5928C319.18 19.5928 318.46 20.5728 315.94 20.5728C315.26 20.5728 312.14 20.5728 311.52 20.5728C308.62 20.5728 307.82 19.8128 307.82 17.0328V4.33275ZM316.44 5.79275H316.3L316.72 5.49275L317.14 5.17275L318.78 5.81275L318.68 6.17275C318.66 9.67275 318.64 12.0928 318.52 12.9528C318.42 13.9728 318.06 14.4928 317.38 14.7928C316.78 15.0528 315.84 15.0928 315.12 15.0728C315.08 14.3928 314.86 13.3928 314.6 12.8728C315.02 12.8928 315.6 12.8928 315.82 12.8928C316.1 12.8928 316.24 12.8328 316.34 12.4328C316.42 11.9928 316.44 9.99275 316.44 5.79275ZM304.82 2.17275L307.04 2.87275C305.76 6.25275 303.68 9.85275 301.52 12.1328C301.3 11.5728 300.66 10.2728 300.26 9.69275C302.08 7.87275 303.8 5.03275 304.82 2.17275ZM302.8 7.69275L305.16 5.35275V5.37275V20.8528H302.8V7.69275ZM320.92 5.29275H339.06V7.59275H320.92V5.29275ZM327.6 10.1928H335.26V12.4728H327.6V10.1928ZM334.38 10.1928H336.86C336.86 10.1928 336.84 10.9128 336.78 11.2328C336.42 16.7128 336 18.9728 335.2 19.8528C334.6 20.4928 333.96 20.6928 333.04 20.7928C332.28 20.8528 330.94 20.8328 329.6 20.7928C329.56 20.0928 329.2 19.0928 328.74 18.4328C330.12 18.5528 331.54 18.5528 332.12 18.5528C332.56 18.5528 332.84 18.5328 333.1 18.3128C333.7 17.7928 334.08 15.5128 334.36 10.5728L334.38 10.1928ZM326.7 6.65275H329.4C329.1 12.0128 328.56 17.8528 322.28 21.0128C321.92 20.3728 321.2 19.4928 320.56 18.9928C326.38 16.2928 326.5 11.2128 326.7 6.65275ZM328.64 1.99275H331.12V6.19275H328.64V1.99275ZM354.26 3.41275L355.86 2.09275C356.76 2.71275 357.94 3.65275 358.5 4.31275L356.82 5.75275C356.3 5.07275 355.18 4.07275 354.26 3.41275ZM341.02 5.49275H359.02V7.83275H341.02V5.49275ZM341.76 10.1328H350.42V12.4528H341.76V10.1328ZM344.8 11.4528H347.2V18.2328H344.8V11.4528ZM341 17.8928C343.42 17.5328 347.34 16.8528 350.94 16.1728L351.12 18.3128C347.82 19.0328 344.28 19.7728 341.68 20.3128L341 17.8928ZM350.84 2.17275H353.42C353.24 10.3928 354.76 18.3728 356.66 18.3728C357.1 18.3728 357.32 17.2728 357.44 14.7528C357.98 15.3128 358.86 15.8928 359.54 16.1328C359.18 19.9528 358.36 20.8928 356.46 20.8928C352.12 20.8928 350.86 11.4328 350.84 2.17275ZM366.32 7.43275H373.72V9.43275H366.32V7.43275ZM361.4 18.5128H378.68V20.4728H361.4V18.5128ZM362.56 2.83275H368.16V4.77275H362.56V2.83275ZM367.4 2.83275H367.8L368.22 2.73275L369.78 3.51275C368.3 7.43275 365.14 10.2928 361.78 11.9128C361.46 11.4128 360.82 10.5928 360.34 10.1728C363.32 8.91275 366.3 6.19275 367.4 3.23275V2.83275ZM371.96 2.15275C373.34 5.41275 376.14 8.31275 379.62 9.63275C379.06 10.1128 378.36 11.0128 378 11.6328C374.32 9.95275 371.58 6.75275 369.92 2.79275L371.96 2.15275ZM361.6 6.43275L362.88 5.11275C363.78 5.61275 364.88 6.39275 365.4 6.99275L364.06 8.45275C363.54 7.85275 362.46 6.99275 361.6 6.43275ZM375.04 2.27275L376.84 3.55275C375.74 4.49275 374.44 5.47275 373.44 6.11275L372 4.99275C372.96 4.31275 374.28 3.15275 375.04 2.27275ZM377.3 4.61275L379.06 5.85275C377.92 6.85275 376.54 7.89275 375.48 8.55275L374.04 7.43275C375.08 6.71275 376.48 5.53275 377.3 4.61275ZM366.5 12.4928V14.2528H373.34V12.4928H366.5ZM364.16 10.5728H375.82V16.1528H364.16V10.5728ZM365.32 16.4128L367.52 15.8528C368.04 16.5728 368.48 17.5928 368.66 18.2728L366.36 18.9328C366.22 18.2528 365.78 17.1928 365.32 16.4128ZM372.46 15.8328L374.78 16.3328C374.28 17.3128 373.82 18.2128 373.42 18.8528L371.32 18.3728C371.72 17.6728 372.22 16.5928 372.46 15.8328ZM384.58 3.21275H390.24V5.65275H384.58V3.21275ZM389.06 3.21275H391.54C391.54 7.01275 392.08 14.3728 399.5 18.7128C398.94 19.1528 397.98 20.2128 397.56 20.8128C389.94 16.2328 389.06 7.29275 389.06 3.21275ZM388.2 7.59275L390.96 8.09275C389.56 14.0328 386.9 18.3328 382.72 20.8528C382.28 20.3328 381.16 19.3328 380.54 18.8928C384.72 16.7728 387.12 12.8928 388.2 7.59275Z" fill="#F5F5F5"/>
<line x1="440" y1="11.8228" x2="640" y2="11.8228" stroke="#F5F5F5" stroke-width="0.5"/>
</svg>
