<svg width="640" height="25" viewBox="0 0 640 25" fill="none" xmlns="http://www.w3.org/2000/svg">
<line y1="11.8228" x2="200" y2="11.8228" stroke="#F5F5F5" stroke-width="0.5"/>
<path d="M243.38 6.13275H253L254.2 4.59275C254.2 4.59275 254.267 4.65275 254.4 4.77275C254.547 4.89275 254.733 5.04609 254.96 5.23275C255.187 5.40609 255.427 5.59942 255.68 5.81275C255.933 6.01275 256.16 6.19942 256.36 6.37275C256.333 6.47942 256.267 6.55942 256.16 6.61275C256.067 6.66609 255.947 6.69275 255.8 6.69275H243.54L243.38 6.13275ZM245.22 13.1128H253.9V13.6928H245.22V13.1128ZM253.26 8.83275H253.06L254 7.83275L255.96 9.31275C255.907 9.39275 255.807 9.47275 255.66 9.55275C255.513 9.63275 255.34 9.69275 255.14 9.73275V14.1928C255.14 14.2328 255.053 14.2994 254.88 14.3928C254.707 14.4728 254.5 14.5528 254.26 14.6328C254.02 14.6994 253.793 14.7328 253.58 14.7328H253.26V8.83275ZM243.92 8.83275V8.03275L245.86 8.83275H253.66V9.41275H245.74V14.3128C245.74 14.3661 245.66 14.4394 245.5 14.5328C245.353 14.6128 245.16 14.6928 244.92 14.7728C244.68 14.8528 244.433 14.8928 244.18 14.8928H243.92V8.83275ZM245.48 14.8928C245.933 15.6661 246.527 16.3394 247.26 16.9128C247.993 17.4861 248.84 17.9661 249.8 18.3528C250.773 18.7394 251.827 19.0394 252.96 19.2528C254.107 19.4528 255.307 19.5728 256.56 19.6128V19.8328C256.173 19.9394 255.833 20.1594 255.54 20.4928C255.26 20.8261 255.08 21.2394 255 21.7328C253.293 21.4794 251.807 21.0861 250.54 20.5528C249.273 20.0194 248.2 19.3061 247.32 18.4128C246.453 17.5061 245.753 16.3794 245.22 15.0328L245.48 14.8928ZM248.6 3.23275L251.18 3.47275C251.167 3.60609 251.107 3.72609 251 3.83275C250.907 3.92609 250.733 3.99275 250.48 4.03275V12.8128C250.467 13.9594 250.313 15.0061 250.02 15.9528C249.74 16.8861 249.28 17.7261 248.64 18.4728C248.013 19.2061 247.18 19.8461 246.14 20.3928C245.1 20.9394 243.813 21.3928 242.28 21.7528L242.14 21.4728C243.727 20.8861 244.987 20.1928 245.92 19.3928C246.867 18.5794 247.547 17.6394 247.96 16.5728C248.387 15.4928 248.6 14.2394 248.6 12.8128V3.23275ZM240.1 9.35275L240.86 8.35275L242.56 8.97275C242.533 9.06609 242.467 9.14609 242.36 9.21275C242.267 9.27942 242.133 9.32609 241.96 9.35275V21.1728C241.96 21.2261 241.88 21.2994 241.72 21.3928C241.573 21.4861 241.387 21.5661 241.16 21.6328C240.933 21.7128 240.693 21.7528 240.44 21.7528H240.1V9.35275ZM241.7 3.17275L244.44 4.01275C244.387 4.13275 244.293 4.23275 244.16 4.31275C244.04 4.39275 243.867 4.42609 243.64 4.41275C243.173 5.69275 242.633 6.89275 242.02 8.01275C241.42 9.13275 240.76 10.1594 240.04 11.0928C239.32 12.0261 238.553 12.8461 237.74 13.5528L237.46 13.3728C238.02 12.5594 238.567 11.6061 239.1 10.5128C239.633 9.40609 240.127 8.22609 240.58 6.97275C241.033 5.71942 241.407 4.45275 241.7 3.17275ZM261.12 4.69275V4.49275V3.87275L263.32 4.69275H263.02V10.8328C263.02 11.7528 262.98 12.6994 262.9 13.6728C262.833 14.6328 262.667 15.5861 262.4 16.5328C262.133 17.4794 261.727 18.3928 261.18 19.2728C260.633 20.1394 259.88 20.9328 258.92 21.6528L258.66 21.4728C259.407 20.4728 259.953 19.3928 260.3 18.2328C260.647 17.0728 260.867 15.8728 260.96 14.6328C261.067 13.3794 261.12 12.1194 261.12 10.8528V4.69275ZM262.18 9.37275H274.2V9.95275H262.18V9.37275ZM262.18 4.69275H274.32V5.27275H262.18V4.69275ZM262.08 14.1728H274.2V14.7528H262.08V14.1728ZM273.48 4.69275H273.26L274.2 3.57275L276.3 5.21275C276.233 5.30609 276.12 5.39275 275.96 5.47275C275.8 5.55275 275.607 5.61942 275.38 5.67275V19.2328C275.38 19.6861 275.32 20.0728 275.2 20.3928C275.093 20.7261 274.853 20.9928 274.48 21.1928C274.107 21.3928 273.527 21.5328 272.74 21.6128C272.713 21.3061 272.667 21.0394 272.6 20.8128C272.533 20.5861 272.433 20.3994 272.3 20.2528C272.14 20.1061 271.933 19.9794 271.68 19.8728C271.427 19.7661 271.053 19.6794 270.56 19.6128V19.3128C270.56 19.3128 270.667 19.3194 270.88 19.3328C271.093 19.3461 271.34 19.3661 271.62 19.3928C271.913 19.4061 272.193 19.4261 272.46 19.4528C272.727 19.4661 272.907 19.4728 273 19.4728C273.187 19.4728 273.313 19.4394 273.38 19.3728C273.447 19.2928 273.48 19.1794 273.48 19.0328V4.69275ZM267.1 4.81275H268.98V20.9728C268.98 21.0394 268.84 21.1461 268.56 21.2928C268.293 21.4528 267.913 21.5328 267.42 21.5328H267.1V4.81275ZM279.74 16.0328H294.96L296.16 14.5128C296.16 14.5128 296.233 14.5728 296.38 14.6928C296.527 14.8128 296.713 14.9661 296.94 15.1528C297.18 15.3261 297.427 15.5128 297.68 15.7128C297.933 15.9128 298.167 16.1061 298.38 16.2928C298.353 16.3994 298.287 16.4794 298.18 16.5328C298.087 16.5861 297.967 16.6128 297.82 16.6128H279.92L279.74 16.0328ZM290.82 17.4528C292.247 17.6661 293.413 17.9194 294.32 18.2128C295.227 18.5061 295.933 18.8194 296.44 19.1528C296.96 19.4728 297.307 19.7861 297.48 20.0928C297.653 20.4128 297.707 20.6994 297.64 20.9528C297.587 21.2061 297.453 21.3994 297.24 21.5328C297.027 21.6794 296.78 21.7394 296.5 21.7128C296.22 21.6861 295.96 21.5594 295.72 21.3328C295.307 20.7728 294.687 20.1728 293.86 19.5328C293.033 18.8794 291.987 18.2861 290.72 17.7528L290.82 17.4528ZM285.86 17.0128L288.34 18.3328C288.273 18.4394 288.153 18.5194 287.98 18.5728C287.82 18.6128 287.587 18.6061 287.28 18.5528C286.747 18.9661 286.087 19.3794 285.3 19.7928C284.527 20.1928 283.68 20.5661 282.76 20.9128C281.853 21.2594 280.927 21.5528 279.98 21.7928L279.86 21.5328C280.647 21.1594 281.427 20.7128 282.2 20.1928C282.987 19.6728 283.7 19.1328 284.34 18.5728C284.98 18.0128 285.487 17.4928 285.86 17.0128ZM280.2 6.35275H294.76L295.88 4.95275C295.88 4.95275 295.947 5.00609 296.08 5.11275C296.227 5.21942 296.407 5.35942 296.62 5.53275C296.833 5.69275 297.06 5.87275 297.3 6.07275C297.54 6.25942 297.753 6.43942 297.94 6.61275C297.9 6.82609 297.72 6.93275 297.4 6.93275H280.36L280.2 6.35275ZM284.32 3.25275L286.96 3.49275C286.947 3.62609 286.887 3.74609 286.78 3.85275C286.673 3.94609 286.493 4.01942 286.24 4.07275V16.3928H284.32V3.25275ZM291.88 3.25275L294.56 3.49275C294.547 3.63942 294.487 3.76609 294.38 3.87275C294.273 3.96609 294.087 4.03275 293.82 4.07275V16.3928H291.88V3.25275ZM285.2 9.51275H292.78V10.0928H285.2V9.51275ZM285.2 12.7528H292.78V13.3328H285.2V12.7528ZM311.8 3.41275L314.38 3.67275C314.367 3.80609 314.307 3.92609 314.2 4.03275C314.107 4.13942 313.92 4.21275 313.64 4.25275V17.1928C313.64 17.2594 313.56 17.3394 313.4 17.4328C313.253 17.5261 313.067 17.6128 312.84 17.6928C312.613 17.7594 312.38 17.7928 312.14 17.7928H311.8V3.41275ZM307.6 5.13275L310.16 5.43275C310.147 5.56609 310.087 5.68609 309.98 5.79275C309.873 5.88609 309.7 5.94609 309.46 5.97275V18.4128C309.46 18.7061 309.553 18.9194 309.74 19.0528C309.94 19.1728 310.327 19.2328 310.9 19.2328H313.96C314.573 19.2328 315.113 19.2261 315.58 19.2128C316.047 19.1994 316.393 19.1861 316.62 19.1728C316.793 19.1461 316.933 19.1128 317.04 19.0728C317.147 19.0194 317.24 18.9394 317.32 18.8328C317.427 18.6461 317.56 18.2994 317.72 17.7928C317.893 17.2861 318.08 16.6661 318.28 15.9328H318.52L318.58 18.9328C318.927 19.0528 319.16 19.1728 319.28 19.2928C319.4 19.4128 319.46 19.5661 319.46 19.7528C319.46 19.9928 319.38 20.1928 319.22 20.3528C319.06 20.5261 318.78 20.6594 318.38 20.7528C317.98 20.8461 317.407 20.9128 316.66 20.9528C315.927 21.0061 314.98 21.0328 313.82 21.0328H310.78C309.993 21.0328 309.367 20.9728 308.9 20.8528C308.433 20.7461 308.1 20.5328 307.9 20.2128C307.7 19.9061 307.6 19.4661 307.6 18.8928V5.13275ZM315.98 7.61275L316.5 7.43275L316.7 7.97275L305.64 11.8728L305.26 11.3928L315.98 7.61275ZM303.06 9.35275L303.84 8.35275L305.54 8.97275C305.513 9.06609 305.447 9.14609 305.34 9.21275C305.247 9.27942 305.113 9.32609 304.94 9.35275V21.1728C304.927 21.2261 304.84 21.2994 304.68 21.3928C304.533 21.4861 304.347 21.5661 304.12 21.6328C303.893 21.7128 303.66 21.7528 303.42 21.7528H303.06V9.35275ZM304.62 3.19275L307.4 4.03275C307.36 4.15275 307.273 4.25275 307.14 4.33275C307.02 4.41275 306.847 4.44609 306.62 4.43275C306.153 5.69942 305.62 6.89942 305.02 8.03275C304.42 9.16609 303.773 10.2061 303.08 11.1528C302.387 12.0994 301.64 12.9394 300.84 13.6728L300.58 13.4928C301.1 12.6528 301.613 11.6728 302.12 10.5528C302.627 9.43275 303.093 8.24609 303.52 6.99275C303.96 5.72609 304.327 4.45942 304.62 3.19275ZM316.28 7.57275H316.06L317.06 6.59275L318.9 8.09275C318.833 8.18609 318.733 8.25942 318.6 8.31275C318.48 8.36609 318.32 8.40609 318.12 8.43275C318.107 9.64609 318.087 10.6794 318.06 11.5328C318.033 12.3861 317.98 13.0928 317.9 13.6528C317.833 14.2128 317.733 14.6594 317.6 14.9928C317.48 15.3261 317.32 15.5861 317.12 15.7728C316.88 15.9861 316.587 16.1528 316.24 16.2728C315.893 16.3794 315.52 16.4328 315.12 16.4328C315.12 16.1528 315.1 15.8994 315.06 15.6728C315.033 15.4461 314.967 15.2728 314.86 15.1528C314.767 15.0194 314.613 14.9061 314.4 14.8128C314.187 14.7194 313.94 14.6394 313.66 14.5728L313.68 14.2728C313.827 14.2861 314 14.3061 314.2 14.3328C314.4 14.3461 314.593 14.3594 314.78 14.3728C314.98 14.3728 315.133 14.3728 315.24 14.3728C315.493 14.3728 315.673 14.3194 315.78 14.2128C315.9 14.0794 315.993 13.7661 316.06 13.2728C316.127 12.7794 316.173 12.0661 316.2 11.1328C316.24 10.1994 316.267 9.01275 316.28 7.57275ZM328.48 11.2528H336.24V11.8328H328.48V11.2528ZM321.72 7.09275H336.84L338.06 5.55275C338.06 5.55275 338.133 5.61275 338.28 5.73275C338.427 5.85275 338.613 6.00609 338.84 6.19275C339.08 6.36609 339.327 6.55942 339.58 6.77275C339.833 6.97275 340.067 7.16609 340.28 7.35275C340.253 7.44609 340.187 7.51942 340.08 7.57275C339.987 7.62609 339.867 7.65275 339.72 7.65275H321.9L321.72 7.09275ZM335.18 11.2528H334.96L336.02 10.1928L337.92 11.7928C337.84 11.8728 337.733 11.9394 337.6 11.9928C337.467 12.0461 337.287 12.0928 337.06 12.1328C336.993 13.2794 336.907 14.3394 336.8 15.3128C336.707 16.2861 336.58 17.1461 336.42 17.8928C336.273 18.6394 336.093 19.2661 335.88 19.7728C335.667 20.2794 335.427 20.6528 335.16 20.8928C334.827 21.1728 334.44 21.3794 334 21.5128C333.573 21.6594 333.053 21.7261 332.44 21.7128C332.44 21.4328 332.407 21.1728 332.34 20.9328C332.287 20.7061 332.167 20.5194 331.98 20.3728C331.86 20.2661 331.673 20.1661 331.42 20.0728C331.18 19.9661 330.9 19.8728 330.58 19.7928C330.273 19.7128 329.947 19.6461 329.6 19.5928L329.62 19.2928C329.98 19.3194 330.387 19.3528 330.84 19.3928C331.307 19.4328 331.74 19.4661 332.14 19.4928C332.54 19.5194 332.82 19.5328 332.98 19.5328C333.18 19.5328 333.34 19.5194 333.46 19.4928C333.58 19.4528 333.693 19.3861 333.8 19.2928C333.973 19.1461 334.133 18.8461 334.28 18.3928C334.427 17.9261 334.553 17.3394 334.66 16.6328C334.78 15.9128 334.88 15.0994 334.96 14.1928C335.053 13.2728 335.127 12.2928 335.18 11.2528ZM329.96 3.15275L332.64 3.37275C332.627 3.50609 332.567 3.62609 332.46 3.73275C332.353 3.82609 332.167 3.89275 331.9 3.93275V7.33275H329.96V3.15275ZM328.08 7.25275H330.3C330.22 8.87942 330.04 10.4128 329.76 11.8528C329.48 13.2928 329.047 14.6328 328.46 15.8728C327.873 17.0994 327.06 18.2128 326.02 19.2128C324.98 20.1994 323.64 21.0528 322 21.7728L321.84 21.5528C323.093 20.6728 324.12 19.7128 324.92 18.6728C325.72 17.6194 326.34 16.4994 326.78 15.3128C327.233 14.1128 327.553 12.8394 327.74 11.4928C327.94 10.1461 328.053 8.73275 328.08 7.25275ZM342.84 7.65275H357.86L359.06 6.17275C359.06 6.17275 359.133 6.23275 359.28 6.35275C359.427 6.45942 359.613 6.60609 359.84 6.79275C360.067 6.96609 360.307 7.15275 360.56 7.35275C360.813 7.53942 361.047 7.72609 361.26 7.91275C361.207 8.12609 361.02 8.23275 360.7 8.23275H343L342.84 7.65275ZM343.6 11.7128H349.9L351 10.2928C351 10.2928 351.067 10.3461 351.2 10.4528C351.333 10.5594 351.507 10.6994 351.72 10.8728C351.933 11.0461 352.153 11.2328 352.38 11.4328C352.62 11.6194 352.833 11.7994 353.02 11.9728C352.967 12.1861 352.787 12.2928 352.48 12.2928H343.74L343.6 11.7128ZM352.84 3.27275L355.56 3.55275C355.547 3.68609 355.487 3.80609 355.38 3.91275C355.287 4.01942 355.113 4.09275 354.86 4.13275C354.833 5.59942 354.873 7.05275 354.98 8.49275C355.087 9.91942 355.287 11.2794 355.58 12.5728C355.873 13.8528 356.3 15.0128 356.86 16.0528C357.433 17.0928 358.167 17.9594 359.06 18.6528C359.207 18.7994 359.32 18.8728 359.4 18.8728C359.493 18.8594 359.593 18.7594 359.7 18.5728C359.847 18.3194 360.02 17.9661 360.22 17.5128C360.433 17.0461 360.62 16.6061 360.78 16.1928L361.02 16.2328L360.6 19.4928C360.933 19.9994 361.127 20.3928 361.18 20.6728C361.247 20.9528 361.207 21.1661 361.06 21.3128C360.873 21.5128 360.647 21.6194 360.38 21.6328C360.127 21.6594 359.853 21.6261 359.56 21.5328C359.267 21.4394 358.98 21.3061 358.7 21.1328C358.42 20.9594 358.167 20.7728 357.94 20.5728C356.873 19.6661 356.007 18.5994 355.34 17.3728C354.673 16.1461 354.16 14.7928 353.8 13.3128C353.44 11.8194 353.187 10.2328 353.04 8.55275C352.907 6.85942 352.84 5.09942 352.84 3.27275ZM356.06 3.81275C356.86 3.82609 357.507 3.91942 358 4.09275C358.493 4.25275 358.86 4.45275 359.1 4.69275C359.34 4.93275 359.48 5.17942 359.52 5.43275C359.56 5.67275 359.52 5.89275 359.4 6.09275C359.28 6.27942 359.1 6.40609 358.86 6.47275C358.633 6.52609 358.373 6.47942 358.08 6.33275C357.947 6.06609 357.753 5.78609 357.5 5.49275C357.26 5.19942 357 4.91942 356.72 4.65275C356.44 4.38609 356.167 4.16609 355.9 3.99275L356.06 3.81275ZM347.18 11.7328H349.1V18.8328L347.18 19.0728V11.7328ZM343.04 19.1928C343.64 19.0994 344.473 18.9461 345.54 18.7328C346.62 18.5061 347.84 18.2461 349.2 17.9528C350.573 17.6461 351.993 17.3261 353.46 16.9928L353.54 17.2928C352.567 17.7328 351.367 18.2461 349.94 18.8328C348.513 19.4194 346.793 20.0861 344.78 20.8328C344.74 20.9528 344.673 21.0528 344.58 21.1328C344.5 21.2261 344.413 21.2928 344.32 21.3328L343.04 19.1928ZM365.8 4.63275H371.66V5.19275H365.98L365.8 4.63275ZM364.06 20.6328H378.72L379.92 19.0528C379.92 19.0528 379.993 19.1128 380.14 19.2328C380.287 19.3528 380.473 19.5061 380.7 19.6928C380.94 19.8661 381.187 20.0594 381.44 20.2728C381.693 20.4861 381.92 20.6861 382.12 20.8728C382.067 21.0861 381.88 21.1928 381.56 21.1928H364.22L364.06 20.6328ZM369.54 9.69275H373.68L374.7 8.39275C374.7 8.39275 374.767 8.44609 374.9 8.55275C375.033 8.64609 375.193 8.77275 375.38 8.93275C375.58 9.07942 375.787 9.24609 376 9.43275C376.227 9.60609 376.427 9.77942 376.6 9.95275C376.547 10.1528 376.367 10.2528 376.06 10.2528H369.7L369.54 9.69275ZM370.52 4.63275H370.3L371.42 3.55275L373.26 5.19275C373.193 5.28609 373.1 5.35275 372.98 5.39275C372.86 5.43275 372.687 5.45942 372.46 5.47275C371.953 6.59275 371.287 7.65942 370.46 8.67275C369.647 9.67275 368.667 10.5728 367.52 11.3728C366.387 12.1728 365.08 12.8394 363.6 13.3728L363.42 13.1128C364.58 12.4728 365.627 11.7061 366.56 10.8128C367.493 9.90609 368.3 8.92609 368.98 7.87275C369.66 6.81942 370.173 5.73942 370.52 4.63275ZM365.24 6.37275C366.093 6.43942 366.767 6.58609 367.26 6.81275C367.767 7.02609 368.127 7.27275 368.34 7.55275C368.553 7.81942 368.653 8.09275 368.64 8.37275C368.64 8.63942 368.553 8.86609 368.38 9.05275C368.207 9.23942 367.98 9.34609 367.7 9.37275C367.433 9.39942 367.147 9.30609 366.84 9.09275C366.787 8.77275 366.667 8.45275 366.48 8.13275C366.307 7.81275 366.093 7.51275 365.84 7.23275C365.6 6.95275 365.347 6.71942 365.08 6.53275L365.24 6.37275ZM373.84 3.15275C374.187 4.17942 374.66 5.12609 375.26 5.99275C375.86 6.85942 376.547 7.63942 377.32 8.33275C378.107 9.01275 378.947 9.61942 379.84 10.1528C380.747 10.6728 381.673 11.1128 382.62 11.4728L382.56 11.6928C382.16 11.7461 381.807 11.9061 381.5 12.1728C381.207 12.4261 380.98 12.7794 380.82 13.2328C379.647 12.5661 378.58 11.7661 377.62 10.8328C376.66 9.88609 375.833 8.79275 375.14 7.55275C374.46 6.29942 373.927 4.88609 373.54 3.31275L373.84 3.15275ZM377.96 3.83275L380.02 5.17275C379.953 5.26609 379.867 5.33275 379.76 5.37275C379.653 5.39942 379.487 5.38609 379.26 5.33275C378.967 5.54609 378.613 5.77275 378.2 6.01275C377.787 6.23942 377.353 6.47275 376.9 6.71275C376.46 6.93942 376.02 7.14609 375.58 7.33275L375.34 7.09275C375.66 6.77275 375.987 6.41942 376.32 6.03275C376.653 5.64609 376.967 5.25942 377.26 4.87275C377.553 4.47275 377.787 4.12609 377.96 3.83275ZM380.2 6.07275L382.24 7.45275C382.187 7.54609 382.1 7.61275 381.98 7.65275C381.873 7.67942 381.713 7.66609 381.5 7.61275C381.02 7.89275 380.42 8.19942 379.7 8.53275C378.993 8.86609 378.3 9.15942 377.62 9.41275L377.4 9.15275C377.733 8.87275 378.073 8.54609 378.42 8.17275C378.78 7.79942 379.12 7.42609 379.44 7.05275C379.76 6.67942 380.013 6.35275 380.2 6.07275ZM368.82 16.8928C369.58 17.1061 370.173 17.3661 370.6 17.6728C371.027 17.9661 371.32 18.2728 371.48 18.5928C371.64 18.9128 371.693 19.2194 371.64 19.5128C371.6 19.7928 371.48 20.0194 371.28 20.1928C371.093 20.3661 370.867 20.4528 370.6 20.4528C370.333 20.4661 370.053 20.3528 369.76 20.1128C369.76 19.5794 369.64 19.0261 369.4 18.4528C369.173 17.8794 368.913 17.3994 368.62 17.0128L368.82 16.8928ZM375.24 16.8128L377.84 17.6928C377.8 17.7994 377.72 17.8928 377.6 17.9728C377.48 18.0394 377.313 18.0661 377.1 18.0528C376.86 18.3194 376.58 18.6194 376.26 18.9528C375.953 19.2861 375.627 19.6261 375.28 19.9728C374.933 20.3061 374.593 20.6194 374.26 20.9128H373.94C374.1 20.5261 374.253 20.0928 374.4 19.6128C374.56 19.1328 374.713 18.6461 374.86 18.1528C375.02 17.6594 375.147 17.2128 375.24 16.8128ZM368.44 15.4928H377.58V16.0728H368.44V15.4928ZM367.48 12.0928V11.2728L369.5 12.0928H377.18V12.6728H369.4V16.5928C369.4 16.6461 369.313 16.7194 369.14 16.8128C368.98 16.9061 368.773 16.9928 368.52 17.0728C368.267 17.1394 368.007 17.1728 367.74 17.1728H367.48V12.0928ZM376.52 12.0928H376.34L377.26 11.1128L379.22 12.5928C379.167 12.6594 379.073 12.7328 378.94 12.8128C378.82 12.8794 378.673 12.9261 378.5 12.9528V16.4328C378.5 16.4594 378.407 16.5128 378.22 16.5928C378.033 16.6728 377.813 16.7461 377.56 16.8128C377.307 16.8661 377.073 16.8928 376.86 16.8928H376.52V12.0928ZM392.78 4.99275L393.72 3.53275L396.22 5.35275C396.047 5.57942 395.753 5.75275 395.34 5.87275C394.94 5.99275 394.453 6.07942 393.88 6.13275V6.93275C394.093 8.99942 394.58 10.8528 395.34 12.4928C396.113 14.1328 397.173 15.5661 398.52 16.7928C399.867 18.0061 401.493 19.0061 403.4 19.7928L403.32 20.0128C402.827 20.0528 402.42 20.2194 402.1 20.5128C401.793 20.8194 401.547 21.2394 401.36 21.7728C400.627 21.3594 399.887 20.8194 399.14 20.1528C398.393 19.4861 397.693 18.7194 397.04 17.8528C396.387 16.9861 395.813 16.0461 395.32 15.0328C394.827 14.0061 394.46 12.9261 394.22 11.7928C393.753 13.2861 393.073 14.6661 392.18 15.9328C391.3 17.1994 390.247 18.3261 389.02 19.3128C387.793 20.2994 386.413 21.1128 384.88 21.7528L384.7 21.5128C385.807 20.9128 386.847 20.1328 387.82 19.1728C388.793 18.1994 389.66 17.0861 390.42 15.8328C391.193 14.5794 391.827 13.2061 392.32 11.7128C392.813 10.2061 393.127 8.60609 393.26 6.91275V5.57275H388.64L388.5 4.99275H392.78Z" fill="#F5F5F5"/>
<line x1="440" y1="11.8228" x2="640" y2="11.8228" stroke="#F5F5F5" stroke-width="0.5"/>
</svg>
