<svg width="640" height="24" viewBox="0 0 640 24" fill="none" xmlns="http://www.w3.org/2000/svg">
<line y1="11.75" x2="200" y2="11.75" stroke="#F5F5F5" stroke-width="0.5"/>
<path d="M243.38 6.06H253L254.2 4.52C254.2 4.52 254.267 4.58 254.4 4.7C254.547 4.82 254.733 4.97333 254.96 5.16C255.187 5.33333 255.427 5.52667 255.68 5.74C255.933 5.94 256.16 6.12667 256.36 6.3C256.333 6.40667 256.267 6.48667 256.16 6.54C256.067 6.59333 255.947 6.62 255.8 6.62H243.54L243.38 6.06ZM245.22 13.04H253.9V13.62H245.22V13.04ZM253.26 8.76H253.06L254 7.76L255.96 9.24C255.907 9.32 255.807 9.4 255.66 9.48C255.513 9.56 255.34 9.62 255.14 9.66V14.12C255.14 14.16 255.053 14.2267 254.88 14.32C254.707 14.4 254.5 14.48 254.26 14.56C254.02 14.6267 253.793 14.66 253.58 14.66H253.26V8.76ZM243.92 8.76V7.96L245.86 8.76H253.66V9.34H245.74V14.24C245.74 14.2933 245.66 14.3667 245.5 14.46C245.353 14.54 245.16 14.62 244.92 14.7C244.68 14.78 244.433 14.82 244.18 14.82H243.92V8.76ZM245.48 14.82C245.933 15.5933 246.527 16.2667 247.26 16.84C247.993 17.4133 248.84 17.8933 249.8 18.28C250.773 18.6667 251.827 18.9667 252.96 19.18C254.107 19.38 255.307 19.5 256.56 19.54V19.76C256.173 19.8667 255.833 20.0867 255.54 20.42C255.26 20.7533 255.08 21.1667 255 21.66C253.293 21.4067 251.807 21.0133 250.54 20.48C249.273 19.9467 248.2 19.2333 247.32 18.34C246.453 17.4333 245.753 16.3067 245.22 14.96L245.48 14.82ZM248.6 3.16L251.18 3.4C251.167 3.53333 251.107 3.65333 251 3.76C250.907 3.85333 250.733 3.92 250.48 3.96V12.74C250.467 13.8867 250.313 14.9333 250.02 15.88C249.74 16.8133 249.28 17.6533 248.64 18.4C248.013 19.1333 247.18 19.7733 246.14 20.32C245.1 20.8667 243.813 21.32 242.28 21.68L242.14 21.4C243.727 20.8133 244.987 20.12 245.92 19.32C246.867 18.5067 247.547 17.5667 247.96 16.5C248.387 15.42 248.6 14.1667 248.6 12.74V3.16ZM240.1 9.28L240.86 8.28L242.56 8.9C242.533 8.99333 242.467 9.07333 242.36 9.14C242.267 9.20667 242.133 9.25333 241.96 9.28V21.1C241.96 21.1533 241.88 21.2267 241.72 21.32C241.573 21.4133 241.387 21.4933 241.16 21.56C240.933 21.64 240.693 21.68 240.44 21.68H240.1V9.28ZM241.7 3.1L244.44 3.94C244.387 4.06 244.293 4.16 244.16 4.24C244.04 4.32 243.867 4.35333 243.64 4.34C243.173 5.62 242.633 6.82 242.02 7.94C241.42 9.06 240.76 10.0867 240.04 11.02C239.32 11.9533 238.553 12.7733 237.74 13.48L237.46 13.3C238.02 12.4867 238.567 11.5333 239.1 10.44C239.633 9.33333 240.127 8.15333 240.58 6.9C241.033 5.64667 241.407 4.38 241.7 3.1ZM261.12 4.62V4.42V3.8L263.32 4.62H263.02V10.76C263.02 11.68 262.98 12.6267 262.9 13.6C262.833 14.56 262.667 15.5133 262.4 16.46C262.133 17.4067 261.727 18.32 261.18 19.2C260.633 20.0667 259.88 20.86 258.92 21.58L258.66 21.4C259.407 20.4 259.953 19.32 260.3 18.16C260.647 17 260.867 15.8 260.96 14.56C261.067 13.3067 261.12 12.0467 261.12 10.78V4.62ZM262.18 9.3H274.2V9.88H262.18V9.3ZM262.18 4.62H274.32V5.2H262.18V4.62ZM262.08 14.1H274.2V14.68H262.08V14.1ZM273.48 4.62H273.26L274.2 3.5L276.3 5.14C276.233 5.23333 276.12 5.32 275.96 5.4C275.8 5.48 275.607 5.54667 275.38 5.6V19.16C275.38 19.6133 275.32 20 275.2 20.32C275.093 20.6533 274.853 20.92 274.48 21.12C274.107 21.32 273.527 21.46 272.74 21.54C272.713 21.2333 272.667 20.9667 272.6 20.74C272.533 20.5133 272.433 20.3267 272.3 20.18C272.14 20.0333 271.933 19.9067 271.68 19.8C271.427 19.6933 271.053 19.6067 270.56 19.54V19.24C270.56 19.24 270.667 19.2467 270.88 19.26C271.093 19.2733 271.34 19.2933 271.62 19.32C271.913 19.3333 272.193 19.3533 272.46 19.38C272.727 19.3933 272.907 19.4 273 19.4C273.187 19.4 273.313 19.3667 273.38 19.3C273.447 19.22 273.48 19.1067 273.48 18.96V4.62ZM267.1 4.74H268.98V20.9C268.98 20.9667 268.84 21.0733 268.56 21.22C268.293 21.38 267.913 21.46 267.42 21.46H267.1V4.74ZM279.74 15.96H294.96L296.16 14.44C296.16 14.44 296.233 14.5 296.38 14.62C296.527 14.74 296.713 14.8933 296.94 15.08C297.18 15.2533 297.427 15.44 297.68 15.64C297.933 15.84 298.167 16.0333 298.38 16.22C298.353 16.3267 298.287 16.4067 298.18 16.46C298.087 16.5133 297.967 16.54 297.82 16.54H279.92L279.74 15.96ZM290.82 17.38C292.247 17.5933 293.413 17.8467 294.32 18.14C295.227 18.4333 295.933 18.7467 296.44 19.08C296.96 19.4 297.307 19.7133 297.48 20.02C297.653 20.34 297.707 20.6267 297.64 20.88C297.587 21.1333 297.453 21.3267 297.24 21.46C297.027 21.6067 296.78 21.6667 296.5 21.64C296.22 21.6133 295.96 21.4867 295.72 21.26C295.307 20.7 294.687 20.1 293.86 19.46C293.033 18.8067 291.987 18.2133 290.72 17.68L290.82 17.38ZM285.86 16.94L288.34 18.26C288.273 18.3667 288.153 18.4467 287.98 18.5C287.82 18.54 287.587 18.5333 287.28 18.48C286.747 18.8933 286.087 19.3067 285.3 19.72C284.527 20.12 283.68 20.4933 282.76 20.84C281.853 21.1867 280.927 21.48 279.98 21.72L279.86 21.46C280.647 21.0867 281.427 20.64 282.2 20.12C282.987 19.6 283.7 19.06 284.34 18.5C284.98 17.94 285.487 17.42 285.86 16.94ZM280.2 6.28H294.76L295.88 4.88C295.88 4.88 295.947 4.93333 296.08 5.04C296.227 5.14667 296.407 5.28667 296.62 5.46C296.833 5.62 297.06 5.8 297.3 6C297.54 6.18667 297.753 6.36667 297.94 6.54C297.9 6.75333 297.72 6.86 297.4 6.86H280.36L280.2 6.28ZM284.32 3.18L286.96 3.42C286.947 3.55333 286.887 3.67333 286.78 3.78C286.673 3.87333 286.493 3.94667 286.24 4V16.32H284.32V3.18ZM291.88 3.18L294.56 3.42C294.547 3.56667 294.487 3.69333 294.38 3.8C294.273 3.89333 294.087 3.96 293.82 4V16.32H291.88V3.18ZM285.2 9.44H292.78V10.02H285.2V9.44ZM285.2 12.68H292.78V13.26H285.2V12.68ZM311.8 3.34L314.38 3.6C314.367 3.73333 314.307 3.85333 314.2 3.96C314.107 4.06667 313.92 4.14 313.64 4.18V17.12C313.64 17.1867 313.56 17.2667 313.4 17.36C313.253 17.4533 313.067 17.54 312.84 17.62C312.613 17.6867 312.38 17.72 312.14 17.72H311.8V3.34ZM307.6 5.06L310.16 5.36C310.147 5.49333 310.087 5.61333 309.98 5.72C309.873 5.81333 309.7 5.87333 309.46 5.9V18.34C309.46 18.6333 309.553 18.8467 309.74 18.98C309.94 19.1 310.327 19.16 310.9 19.16H313.96C314.573 19.16 315.113 19.1533 315.58 19.14C316.047 19.1267 316.393 19.1133 316.62 19.1C316.793 19.0733 316.933 19.04 317.04 19C317.147 18.9467 317.24 18.8667 317.32 18.76C317.427 18.5733 317.56 18.2267 317.72 17.72C317.893 17.2133 318.08 16.5933 318.28 15.86H318.52L318.58 18.86C318.927 18.98 319.16 19.1 319.28 19.22C319.4 19.34 319.46 19.4933 319.46 19.68C319.46 19.92 319.38 20.12 319.22 20.28C319.06 20.4533 318.78 20.5867 318.38 20.68C317.98 20.7733 317.407 20.84 316.66 20.88C315.927 20.9333 314.98 20.96 313.82 20.96H310.78C309.993 20.96 309.367 20.9 308.9 20.78C308.433 20.6733 308.1 20.46 307.9 20.14C307.7 19.8333 307.6 19.3933 307.6 18.82V5.06ZM315.98 7.54L316.5 7.36L316.7 7.9L305.64 11.8L305.26 11.32L315.98 7.54ZM303.06 9.28L303.84 8.28L305.54 8.9C305.513 8.99333 305.447 9.07333 305.34 9.14C305.247 9.20667 305.113 9.25333 304.94 9.28V21.1C304.927 21.1533 304.84 21.2267 304.68 21.32C304.533 21.4133 304.347 21.4933 304.12 21.56C303.893 21.64 303.66 21.68 303.42 21.68H303.06V9.28ZM304.62 3.12L307.4 3.96C307.36 4.08 307.273 4.18 307.14 4.26C307.02 4.34 306.847 4.37333 306.62 4.36C306.153 5.62667 305.62 6.82667 305.02 7.96C304.42 9.09333 303.773 10.1333 303.08 11.08C302.387 12.0267 301.64 12.8667 300.84 13.6L300.58 13.42C301.1 12.58 301.613 11.6 302.12 10.48C302.627 9.36 303.093 8.17333 303.52 6.92C303.96 5.65333 304.327 4.38667 304.62 3.12ZM316.28 7.5H316.06L317.06 6.52L318.9 8.02C318.833 8.11333 318.733 8.18667 318.6 8.24C318.48 8.29333 318.32 8.33333 318.12 8.36C318.107 9.57333 318.087 10.6067 318.06 11.46C318.033 12.3133 317.98 13.02 317.9 13.58C317.833 14.14 317.733 14.5867 317.6 14.92C317.48 15.2533 317.32 15.5133 317.12 15.7C316.88 15.9133 316.587 16.08 316.24 16.2C315.893 16.3067 315.52 16.36 315.12 16.36C315.12 16.08 315.1 15.8267 315.06 15.6C315.033 15.3733 314.967 15.2 314.86 15.08C314.767 14.9467 314.613 14.8333 314.4 14.74C314.187 14.6467 313.94 14.5667 313.66 14.5L313.68 14.2C313.827 14.2133 314 14.2333 314.2 14.26C314.4 14.2733 314.593 14.2867 314.78 14.3C314.98 14.3 315.133 14.3 315.24 14.3C315.493 14.3 315.673 14.2467 315.78 14.14C315.9 14.0067 315.993 13.6933 316.06 13.2C316.127 12.7067 316.173 11.9933 316.2 11.06C316.24 10.1267 316.267 8.94 316.28 7.5ZM328.48 11.18H336.24V11.76H328.48V11.18ZM321.72 7.02H336.84L338.06 5.48C338.06 5.48 338.133 5.54 338.28 5.66C338.427 5.78 338.613 5.93333 338.84 6.12C339.08 6.29333 339.327 6.48667 339.58 6.7C339.833 6.9 340.067 7.09333 340.28 7.28C340.253 7.37333 340.187 7.44667 340.08 7.5C339.987 7.55333 339.867 7.58 339.72 7.58H321.9L321.72 7.02ZM335.18 11.18H334.96L336.02 10.12L337.92 11.72C337.84 11.8 337.733 11.8667 337.6 11.92C337.467 11.9733 337.287 12.02 337.06 12.06C336.993 13.2067 336.907 14.2667 336.8 15.24C336.707 16.2133 336.58 17.0733 336.42 17.82C336.273 18.5667 336.093 19.1933 335.88 19.7C335.667 20.2067 335.427 20.58 335.16 20.82C334.827 21.1 334.44 21.3067 334 21.44C333.573 21.5867 333.053 21.6533 332.44 21.64C332.44 21.36 332.407 21.1 332.34 20.86C332.287 20.6333 332.167 20.4467 331.98 20.3C331.86 20.1933 331.673 20.0933 331.42 20C331.18 19.8933 330.9 19.8 330.58 19.72C330.273 19.64 329.947 19.5733 329.6 19.52L329.62 19.22C329.98 19.2467 330.387 19.28 330.84 19.32C331.307 19.36 331.74 19.3933 332.14 19.42C332.54 19.4467 332.82 19.46 332.98 19.46C333.18 19.46 333.34 19.4467 333.46 19.42C333.58 19.38 333.693 19.3133 333.8 19.22C333.973 19.0733 334.133 18.7733 334.28 18.32C334.427 17.8533 334.553 17.2667 334.66 16.56C334.78 15.84 334.88 15.0267 334.96 14.12C335.053 13.2 335.127 12.22 335.18 11.18ZM329.96 3.08L332.64 3.3C332.627 3.43333 332.567 3.55333 332.46 3.66C332.353 3.75333 332.167 3.82 331.9 3.86V7.26H329.96V3.08ZM328.08 7.18H330.3C330.22 8.80667 330.04 10.34 329.76 11.78C329.48 13.22 329.047 14.56 328.46 15.8C327.873 17.0267 327.06 18.14 326.02 19.14C324.98 20.1267 323.64 20.98 322 21.7L321.84 21.48C323.093 20.6 324.12 19.64 324.92 18.6C325.72 17.5467 326.34 16.4267 326.78 15.24C327.233 14.04 327.553 12.7667 327.74 11.42C327.94 10.0733 328.053 8.66 328.08 7.18ZM342.84 7.58H357.86L359.06 6.1C359.06 6.1 359.133 6.16 359.28 6.28C359.427 6.38667 359.613 6.53333 359.84 6.72C360.067 6.89333 360.307 7.08 360.56 7.28C360.813 7.46667 361.047 7.65333 361.26 7.84C361.207 8.05333 361.02 8.16 360.7 8.16H343L342.84 7.58ZM343.6 11.64H349.9L351 10.22C351 10.22 351.067 10.2733 351.2 10.38C351.333 10.4867 351.507 10.6267 351.72 10.8C351.933 10.9733 352.153 11.16 352.38 11.36C352.62 11.5467 352.833 11.7267 353.02 11.9C352.967 12.1133 352.787 12.22 352.48 12.22H343.74L343.6 11.64ZM352.84 3.2L355.56 3.48C355.547 3.61333 355.487 3.73333 355.38 3.84C355.287 3.94667 355.113 4.02 354.86 4.06C354.833 5.52667 354.873 6.98 354.98 8.42C355.087 9.84667 355.287 11.2067 355.58 12.5C355.873 13.78 356.3 14.94 356.86 15.98C357.433 17.02 358.167 17.8867 359.06 18.58C359.207 18.7267 359.32 18.8 359.4 18.8C359.493 18.7867 359.593 18.6867 359.7 18.5C359.847 18.2467 360.02 17.8933 360.22 17.44C360.433 16.9733 360.62 16.5333 360.78 16.12L361.02 16.16L360.6 19.42C360.933 19.9267 361.127 20.32 361.18 20.6C361.247 20.88 361.207 21.0933 361.06 21.24C360.873 21.44 360.647 21.5467 360.38 21.56C360.127 21.5867 359.853 21.5533 359.56 21.46C359.267 21.3667 358.98 21.2333 358.7 21.06C358.42 20.8867 358.167 20.7 357.94 20.5C356.873 19.5933 356.007 18.5267 355.34 17.3C354.673 16.0733 354.16 14.72 353.8 13.24C353.44 11.7467 353.187 10.16 353.04 8.48C352.907 6.78667 352.84 5.02667 352.84 3.2ZM356.06 3.74C356.86 3.75333 357.507 3.84667 358 4.02C358.493 4.18 358.86 4.38 359.1 4.62C359.34 4.86 359.48 5.10667 359.52 5.36C359.56 5.6 359.52 5.82 359.4 6.02C359.28 6.20667 359.1 6.33333 358.86 6.4C358.633 6.45333 358.373 6.40667 358.08 6.26C357.947 5.99333 357.753 5.71333 357.5 5.42C357.26 5.12667 357 4.84667 356.72 4.58C356.44 4.31333 356.167 4.09333 355.9 3.92L356.06 3.74ZM347.18 11.66H349.1V18.76L347.18 19V11.66ZM343.04 19.12C343.64 19.0267 344.473 18.8733 345.54 18.66C346.62 18.4333 347.84 18.1733 349.2 17.88C350.573 17.5733 351.993 17.2533 353.46 16.92L353.54 17.22C352.567 17.66 351.367 18.1733 349.94 18.76C348.513 19.3467 346.793 20.0133 344.78 20.76C344.74 20.88 344.673 20.98 344.58 21.06C344.5 21.1533 344.413 21.22 344.32 21.26L343.04 19.12ZM371.56 7.14H379.26L380.3 5.78C380.3 5.78 380.367 5.83333 380.5 5.94C380.633 6.04667 380.8 6.18667 381 6.36C381.2 6.52 381.413 6.69333 381.64 6.88C381.867 7.05333 382.067 7.22667 382.24 7.4C382.2 7.61333 382.02 7.72 381.7 7.72H371.72L371.56 7.14ZM371.84 12.98H379.04L380.06 11.64C380.06 11.64 380.167 11.7267 380.38 11.9C380.607 12.0733 380.867 12.28 381.16 12.52C381.453 12.76 381.713 13 381.94 13.24C381.9 13.4533 381.727 13.56 381.42 13.56H372L371.84 12.98ZM370.88 20.18H379.34L380.46 18.72C380.46 18.72 380.527 18.7733 380.66 18.88C380.793 18.9867 380.967 19.1267 381.18 19.3C381.393 19.4733 381.613 19.66 381.84 19.86C382.08 20.06 382.293 20.2533 382.48 20.44C382.427 20.64 382.247 20.74 381.94 20.74H371.04L370.88 20.18ZM364.58 4.54H368.24L369.22 3.26C369.22 3.26 369.32 3.34667 369.52 3.52C369.733 3.68 369.98 3.88 370.26 4.12C370.553 4.36 370.813 4.58667 371.04 4.8C370.987 5.01333 370.807 5.12 370.5 5.12H364.74L364.58 4.54ZM364.56 9.64H368.46L369.36 8.46C369.36 8.46 369.453 8.54 369.64 8.7C369.84 8.84667 370.067 9.03333 370.32 9.26C370.573 9.47333 370.8 9.68667 371 9.9C370.96 10.1 370.793 10.2 370.5 10.2H364.72L364.56 9.64ZM364.56 12.22H368.6L369.5 11.04C369.5 11.04 369.593 11.12 369.78 11.28C369.98 11.4267 370.207 11.6133 370.46 11.84C370.713 12.0533 370.947 12.2667 371.16 12.48C371.147 12.5733 371.093 12.6467 371 12.7C370.907 12.7533 370.793 12.78 370.66 12.78H364.72L364.56 12.22ZM363.62 7.06H368.9L369.94 5.72C369.94 5.72 370.007 5.77333 370.14 5.88C370.273 5.97333 370.433 6.10667 370.62 6.28C370.82 6.44 371.027 6.61333 371.24 6.8C371.467 6.97333 371.667 7.14667 371.84 7.32C371.787 7.53333 371.607 7.64 371.3 7.64H363.78L363.62 7.06ZM364.58 14.84V14.06L366.38 14.84H369.66V15.4H366.3V21.08C366.3 21.1333 366.227 21.2067 366.08 21.3C365.933 21.3933 365.747 21.4733 365.52 21.54C365.307 21.6067 365.08 21.64 364.84 21.64H364.58V14.84ZM368.9 14.84H368.72L369.62 13.86L371.5 15.32C371.447 15.3867 371.347 15.46 371.2 15.54C371.067 15.6067 370.907 15.6533 370.72 15.68V20.42C370.72 20.46 370.633 20.5267 370.46 20.62C370.287 20.7133 370.087 20.7933 369.86 20.86C369.633 20.94 369.413 20.98 369.2 20.98H368.9V14.84ZM365.46 19.18H369.58V19.76H365.46V19.18ZM375.62 3.3L378.16 3.52C378.147 3.65333 378.093 3.76667 378 3.86C377.907 3.94 377.747 4 377.52 4.04V7.6H375.62V3.3ZM375.62 7.68L378.16 7.92C378.147 8.05333 378.093 8.16667 378 8.26C377.907 8.35333 377.747 8.41333 377.52 8.44V20.5H375.62V7.68ZM386.8 4.82V3.94L388.8 4.82H400.3V5.4H388.66V20.96C388.66 21.04 388.587 21.1333 388.44 21.24C388.293 21.36 388.107 21.46 387.88 21.54C387.653 21.6333 387.4 21.68 387.12 21.68H386.8V4.82ZM399.38 4.82H399.18L400.08 3.74L402.1 5.3C402.033 5.38 401.927 5.46 401.78 5.54C401.633 5.62 401.46 5.68 401.26 5.72V19.32C401.26 19.7867 401.207 20.18 401.1 20.5C401.007 20.8333 400.793 21.0933 400.46 21.28C400.14 21.48 399.627 21.6133 398.92 21.68C398.907 21.3867 398.88 21.12 398.84 20.88C398.8 20.64 398.733 20.4533 398.64 20.32C398.547 20.1733 398.4 20.0467 398.2 19.94C398.013 19.8333 397.753 19.7533 397.42 19.7V19.4C397.42 19.4 397.48 19.4067 397.6 19.42C397.733 19.4333 397.893 19.4467 398.08 19.46C398.267 19.4733 398.447 19.4867 398.62 19.5C398.793 19.5 398.92 19.5 399 19.5C399.16 19.5 399.26 19.4733 399.3 19.42C399.353 19.3533 399.38 19.2533 399.38 19.12V4.82ZM384.44 11.9H401.34L402.24 10.36C402.24 10.36 402.327 10.46 402.5 10.66C402.687 10.86 402.9 11.1 403.14 11.38C403.38 11.66 403.587 11.92 403.76 12.16C403.707 12.3733 403.54 12.48 403.26 12.48H384.6L384.44 11.9ZM390.96 4.82H392.72V20.82C392.72 20.8733 392.587 20.9733 392.32 21.12C392.067 21.2667 391.713 21.34 391.26 21.34H390.96V4.82ZM395.14 4.82H396.92V20.82C396.92 20.8733 396.787 20.9733 396.52 21.12C396.267 21.2667 395.913 21.34 395.46 21.34H395.14V4.82Z" fill="#F5F5F5"/>
<line x1="440" y1="11.75" x2="640" y2="11.75" stroke="#F5F5F5" stroke-width="0.5"/>
</svg>
