<svg width="640" height="24" viewBox="0 0 640 24" fill="none" xmlns="http://www.w3.org/2000/svg">
<line y1="11.75" x2="200" y2="11.75" stroke="#F5F5F5" stroke-width="0.5"/>
<path d="M246.64 3.98H259.38V6.14H246.64V3.98ZM249.24 9.5V11.48H256.54V9.5H249.24ZM247.06 7.56H258.86V13.44H247.06V7.56ZM248.94 13.66C249.553 14.6067 250.367 15.4267 251.38 16.12C252.393 16.8 253.6 17.3467 255 17.76C256.4 18.1733 257.967 18.46 259.7 18.62C259.527 18.7933 259.347 19.0067 259.16 19.26C258.987 19.5133 258.82 19.7733 258.66 20.04C258.513 20.3067 258.387 20.5467 258.28 20.76C256.48 20.52 254.86 20.1267 253.42 19.58C251.993 19.0467 250.747 18.34 249.68 17.46C248.627 16.5667 247.727 15.4933 246.98 14.24L248.94 13.66ZM251.68 2.14H254.06V11.26C254.06 12.0733 254.007 12.8733 253.9 13.66C253.793 14.4333 253.6 15.18 253.32 15.9C253.053 16.6067 252.667 17.2667 252.16 17.88C251.653 18.4933 251 19.0467 250.2 19.54C249.4 20.0333 248.427 20.4467 247.28 20.78C247.2 20.6067 247.067 20.3933 246.88 20.14C246.707 19.9 246.527 19.6533 246.34 19.4C246.153 19.16 245.973 18.96 245.8 18.8C246.88 18.56 247.773 18.2533 248.48 17.88C249.2 17.4933 249.773 17.0533 250.2 16.56C250.627 16.0667 250.947 15.54 251.16 14.98C251.373 14.4067 251.513 13.8067 251.58 13.18C251.647 12.5533 251.68 11.9067 251.68 11.24V2.14ZM245.12 1.96L247.34 2.68C246.887 3.81333 246.347 4.94667 245.72 6.08C245.107 7.2 244.44 8.26667 243.72 9.28C243.013 10.28 242.28 11.16 241.52 11.92C241.453 11.72 241.347 11.4667 241.2 11.16C241.053 10.8533 240.893 10.54 240.72 10.22C240.547 9.9 240.393 9.64667 240.26 9.46C240.9 8.84667 241.52 8.14 242.12 7.34C242.733 6.54 243.293 5.68 243.8 4.76C244.307 3.84 244.747 2.90667 245.12 1.96ZM243.16 7.52L245.44 5.24V5.26V20.84H243.16V7.52ZM264.22 3.34H276.48V5.64H264.22V3.34ZM264.22 7.96H276.52V10.2H264.22V7.96ZM264.18 12.68H276.6V14.94H264.18V12.68ZM262.84 3.34H265.2V10.54C265.2 11.3267 265.167 12.1867 265.1 13.12C265.033 14.0533 264.9 14.9933 264.7 15.94C264.513 16.8733 264.227 17.7667 263.84 18.62C263.467 19.4733 262.973 20.2333 262.36 20.9C262.24 20.74 262.06 20.56 261.82 20.36C261.58 20.16 261.333 19.9667 261.08 19.78C260.84 19.5933 260.633 19.4467 260.46 19.34C261.007 18.74 261.44 18.08 261.76 17.36C262.08 16.6267 262.313 15.8733 262.46 15.1C262.62 14.3133 262.72 13.5333 262.76 12.76C262.813 11.9733 262.84 11.2267 262.84 10.52V3.34ZM275.64 3.34H278.04V17.96C278.04 18.6 277.96 19.0933 277.8 19.44C277.64 19.8 277.353 20.0733 276.94 20.26C276.54 20.4467 276.027 20.5667 275.4 20.62C274.773 20.6733 274 20.6933 273.08 20.68C273.04 20.36 272.94 19.9733 272.78 19.52C272.62 19.0667 272.46 18.6867 272.3 18.38C272.687 18.3933 273.073 18.4067 273.46 18.42C273.847 18.42 274.187 18.42 274.48 18.42C274.787 18.42 275.007 18.42 275.14 18.42C275.327 18.42 275.453 18.3867 275.52 18.32C275.6 18.2533 275.64 18.1267 275.64 17.94V3.34ZM269 4.26H271.42V20.54H269V4.26ZM281 14.24H299V16.46H281V14.24ZM281.6 4H298.48V6.2H281.6V4ZM285.92 7.46H294.04V9.46H285.92V7.46ZM285.92 10.8H294.04V12.8H285.92V10.8ZM284.4 2.06H286.78V15.44H284.4V2.06ZM293.12 2.06H295.56V15.44H293.12V2.06ZM291.02 18.08L292.72 16.6C293.493 16.84 294.267 17.12 295.04 17.44C295.827 17.7467 296.573 18.0533 297.28 18.36C298 18.6667 298.607 18.9467 299.1 19.2L296.8 20.72C296.373 20.4667 295.847 20.1867 295.22 19.88C294.593 19.5733 293.92 19.2667 293.2 18.96C292.48 18.64 291.753 18.3467 291.02 18.08ZM286.96 16.4L288.96 17.96C288.36 18.3067 287.673 18.6533 286.9 19C286.14 19.36 285.36 19.6867 284.56 19.98C283.773 20.2867 283.02 20.5467 282.3 20.76C282.127 20.5067 281.887 20.2067 281.58 19.86C281.273 19.5133 280.993 19.22 280.74 18.98C281.447 18.78 282.187 18.54 282.96 18.26C283.747 17.9667 284.493 17.66 285.2 17.34C285.907 17.0067 286.493 16.6933 286.96 16.4ZM312.14 2.1H314.4V16.04H312.14V2.1ZM305.38 9.94L317.26 5.3L318.18 7.38L306.32 12.06L305.38 9.94ZM307.84 4.24H310.2V16.94C310.2 17.34 310.233 17.64 310.3 17.84C310.38 18.04 310.527 18.1733 310.74 18.24C310.967 18.3067 311.293 18.34 311.72 18.34C311.84 18.34 312.033 18.34 312.3 18.34C312.567 18.34 312.867 18.34 313.2 18.34C313.547 18.34 313.887 18.34 314.22 18.34C314.567 18.34 314.873 18.34 315.14 18.34C315.42 18.34 315.627 18.34 315.76 18.34C316.16 18.34 316.46 18.2667 316.66 18.12C316.86 17.9733 317.007 17.7067 317.1 17.32C317.193 16.92 317.273 16.34 317.34 15.58C317.607 15.7667 317.947 15.9467 318.36 16.12C318.787 16.2933 319.167 16.42 319.5 16.5C319.393 17.5 319.22 18.2933 318.98 18.88C318.753 19.4533 318.4 19.8667 317.92 20.12C317.453 20.3733 316.8 20.5 315.96 20.5C315.827 20.5 315.607 20.5 315.3 20.5C314.993 20.5 314.653 20.5 314.28 20.5C313.907 20.5 313.533 20.5 313.16 20.5C312.787 20.5 312.453 20.5 312.16 20.5C311.867 20.5 311.653 20.5 311.52 20.5C310.56 20.5 309.813 20.3933 309.28 20.18C308.747 19.98 308.373 19.62 308.16 19.1C307.947 18.58 307.84 17.86 307.84 16.94V4.24ZM316.46 5.7H316.3L316.72 5.4L317.14 5.1L318.78 5.72L318.7 6.1C318.7 7.26 318.693 8.3 318.68 9.22C318.667 10.1267 318.647 10.8933 318.62 11.52C318.593 12.1333 318.56 12.5867 318.52 12.88C318.48 13.3867 318.36 13.78 318.16 14.06C317.973 14.34 317.72 14.5533 317.4 14.7C317.093 14.8333 316.727 14.92 316.3 14.96C315.873 14.9867 315.48 14.9933 315.12 14.98C315.107 14.6467 315.053 14.26 314.96 13.82C314.867 13.38 314.747 13.0333 314.6 12.78C314.827 12.7933 315.06 12.8067 315.3 12.82C315.54 12.82 315.72 12.82 315.84 12.82C315.973 12.82 316.08 12.7933 316.16 12.74C316.24 12.6733 316.3 12.5467 316.34 12.36C316.367 12.2 316.387 11.8667 316.4 11.36C316.413 10.8533 316.427 10.1333 316.44 9.2C316.453 8.26667 316.46 7.1 316.46 5.7ZM304.84 2.08L307.06 2.8C306.633 3.92 306.127 5.04667 305.54 6.18C304.953 7.31333 304.32 8.38667 303.64 9.4C302.96 10.4 302.26 11.28 301.54 12.04C301.473 11.8533 301.36 11.6067 301.2 11.3C301.053 10.9933 300.893 10.6867 300.72 10.38C300.56 10.06 300.413 9.8 300.28 9.6C300.88 8.98667 301.46 8.28 302.02 7.48C302.593 6.68 303.12 5.82 303.6 4.9C304.093 3.98 304.507 3.04 304.84 2.08ZM302.82 7.62L305.16 5.26L305.18 5.28V20.76H302.82V7.62ZM320.94 5.22H339.08V7.5H320.94V5.22ZM327.62 10.12H335.28V12.38H327.62V10.12ZM334.38 10.12H336.86C336.86 10.12 336.853 10.1867 336.84 10.32C336.84 10.44 336.84 10.58 336.84 10.74C336.84 10.9 336.827 11.04 336.8 11.16C336.68 12.9867 336.547 14.48 336.4 15.64C336.253 16.8 336.087 17.7067 335.9 18.36C335.713 19 335.487 19.4667 335.22 19.76C334.913 20.0933 334.593 20.32 334.26 20.44C333.927 20.56 333.527 20.6467 333.06 20.7C332.673 20.74 332.167 20.7533 331.54 20.74C330.913 20.74 330.267 20.7267 329.6 20.7C329.587 20.3533 329.5 19.9533 329.34 19.5C329.18 19.06 328.98 18.6733 328.74 18.34C329.433 18.4067 330.1 18.4467 330.74 18.46C331.38 18.4733 331.84 18.48 332.12 18.48C332.347 18.48 332.533 18.4667 332.68 18.44C332.84 18.4 332.98 18.3267 333.1 18.22C333.313 18.0467 333.493 17.6667 333.64 17.08C333.8 16.4933 333.94 15.66 334.06 14.58C334.18 13.5 334.287 12.1333 334.38 10.48V10.12ZM326.72 6.58H329.4C329.347 7.64667 329.26 8.72667 329.14 9.82C329.033 10.9 328.847 11.9733 328.58 13.04C328.313 14.0933 327.927 15.1 327.42 16.06C326.913 17.02 326.247 17.9133 325.42 18.74C324.593 19.5667 323.547 20.3 322.28 20.94C322.107 20.6067 321.853 20.2467 321.52 19.86C321.2 19.4733 320.887 19.1533 320.58 18.9C321.74 18.3667 322.687 17.7467 323.42 17.04C324.167 16.32 324.753 15.5467 325.18 14.72C325.607 13.88 325.92 13.0067 326.12 12.1C326.333 11.1933 326.473 10.2733 326.54 9.34C326.62 8.40667 326.68 7.48667 326.72 6.58ZM328.64 1.92H331.14V6.12H328.64V1.92ZM354.28 3.32L355.86 2C356.167 2.2 356.487 2.43333 356.82 2.7C357.167 2.96667 357.487 3.23333 357.78 3.5C358.087 3.76667 358.333 4.00667 358.52 4.22L356.82 5.68C356.66 5.44 356.433 5.18667 356.14 4.92C355.86 4.64 355.553 4.36 355.22 4.08C354.9 3.8 354.587 3.54667 354.28 3.32ZM341.02 5.42H359.02V7.76H341.02V5.42ZM341.78 10.04H350.44V12.36H341.78V10.04ZM344.8 11.36H347.2V18.14H344.8V11.36ZM341.02 17.82C341.82 17.6867 342.76 17.5333 343.84 17.36C344.933 17.1733 346.087 16.9733 347.3 16.76C348.527 16.5467 349.747 16.3267 350.96 16.1L351.12 18.24C350.027 18.48 348.92 18.72 347.8 18.96C346.68 19.1867 345.6 19.4067 344.56 19.62C343.52 19.8467 342.56 20.0533 341.68 20.24L341.02 17.82ZM350.86 2.08H353.44C353.4 3.73333 353.42 5.34667 353.5 6.92C353.593 8.49333 353.74 9.96667 353.94 11.34C354.14 12.7133 354.38 13.92 354.66 14.96C354.94 16 355.247 16.8133 355.58 17.4C355.927 17.9867 356.293 18.28 356.68 18.28C356.907 18.28 357.073 17.9933 357.18 17.42C357.3 16.8467 357.387 15.9267 357.44 14.66C357.72 14.94 358.053 15.2133 358.44 15.48C358.84 15.7467 359.207 15.94 359.54 16.06C359.433 17.3267 359.253 18.3067 359 19C358.76 19.68 358.433 20.1467 358.02 20.4C357.62 20.6667 357.1 20.8 356.46 20.8C355.74 20.8 355.1 20.5533 354.54 20.06C353.98 19.5667 353.493 18.8867 353.08 18.02C352.667 17.14 352.32 16.1067 352.04 14.92C351.76 13.7333 351.533 12.4467 351.36 11.06C351.187 9.66 351.06 8.2 350.98 6.68C350.9 5.16 350.86 3.62667 350.86 2.08ZM362 2.56H367.64V4.38H362V2.56ZM361.78 8.22H367.86V10.04H361.78V8.22ZM361.78 10.98H367.86V12.82H361.78V10.98ZM360.64 5.3H368.78V7.24H360.64V5.3ZM369.06 5.78H379.06V8.04H369.06V5.78ZM368.58 17.86H379.4V20.12H368.58V17.86ZM369.48 11.66H378.74V13.88H369.48V11.66ZM362.84 13.78H368.08V19.62H362.84V17.86H365.86V15.54H362.84V13.78ZM361.6 13.78H363.76V20.52H361.6V13.78ZM372.82 2.02H375.22V6.78H372.82V2.02ZM372.82 6.64H375.22V18.98H372.82V6.64ZM382.52 3.14H396.54V5.5H384.88V20.82H382.52V3.14ZM395.24 3.14H397.62V18.18C397.62 18.7 397.567 19.1333 397.46 19.48C397.353 19.8267 397.147 20.1 396.84 20.3C396.533 20.5 396.167 20.6267 395.74 20.68C395.313 20.7333 394.813 20.76 394.24 20.76C394.213 20.5467 394.16 20.3 394.08 20.02C394.013 19.74 393.933 19.4533 393.84 19.16C393.747 18.88 393.64 18.64 393.52 18.44C393.813 18.4533 394.1 18.46 394.38 18.46C394.66 18.46 394.853 18.46 394.96 18.46C395.067 18.46 395.14 18.4333 395.18 18.38C395.22 18.3267 395.24 18.2467 395.24 18.14V3.14ZM380.6 10.34H399.42V12.68H380.6V10.34ZM386.78 3.9H389V20.5H386.78V3.9ZM390.96 3.9H393.2V20.5H390.96V3.9Z" fill="#F5F5F5"/>
<line x1="440" y1="11.75" x2="640" y2="11.75" stroke="#F5F5F5" stroke-width="0.5"/>
</svg>
