<svg width="660" height="77" viewBox="0 0 660 77" fill="none" xmlns="http://www.w3.org/2000/svg">
<rect x="0.5" y="9.5" width="659" height="19" rx="9.5" fill="url(#paint0_linear_1167_495)" stroke="white"/>
<circle cx="330" cy="19" r="19" fill="#D8A5DF"/>
<rect y="9" width="331" height="20" rx="10" fill="#D8A5DF"/>
<path d="M316.118 70.2784C314.686 70.2784 313.413 70.0331 312.3 69.5426C311.193 69.0521 310.318 68.3693 309.675 67.4943C309.032 66.6193 308.69 65.6084 308.651 64.4616H312.389C312.422 65.0118 312.605 65.4924 312.936 65.9034C313.268 66.3078 313.708 66.6226 314.259 66.848C314.809 67.0734 315.425 67.1861 316.108 67.1861C316.837 67.1861 317.483 67.0601 318.047 66.8082C318.61 66.5497 319.051 66.1918 319.369 65.7344C319.688 65.277 319.843 64.75 319.837 64.1534C319.843 63.5369 319.684 62.9934 319.359 62.5227C319.035 62.0521 318.564 61.6842 317.947 61.419C317.338 61.1539 316.602 61.0213 315.74 61.0213H313.94V58.1776H315.74C316.449 58.1776 317.069 58.0549 317.599 57.8097C318.136 57.5644 318.557 57.2197 318.862 56.7756C319.167 56.3248 319.316 55.8045 319.31 55.2145C319.316 54.6378 319.187 54.1373 318.922 53.7131C318.663 53.2822 318.295 52.9474 317.818 52.7088C317.348 52.4702 316.794 52.3509 316.158 52.3509C315.535 52.3509 314.958 52.4635 314.428 52.6889C313.897 52.9143 313.47 53.2358 313.145 53.6534C312.82 54.0644 312.648 54.5549 312.628 55.125H309.078C309.105 53.9848 309.433 52.9839 310.062 52.1222C310.699 51.2538 311.547 50.5777 312.608 50.0938C313.669 49.6032 314.858 49.358 316.178 49.358C317.536 49.358 318.716 49.6132 319.717 50.1236C320.725 50.6274 321.504 51.3068 322.054 52.1619C322.604 53.017 322.879 53.9616 322.879 54.9957C322.886 56.1425 322.548 57.1037 321.865 57.8793C321.189 58.6548 320.301 59.1619 319.2 59.4006V59.5597C320.632 59.7585 321.729 60.2888 322.491 61.1506C323.26 62.0057 323.642 63.0696 323.635 64.3423C323.635 65.4825 323.31 66.5033 322.661 67.4048C322.018 68.2997 321.129 69.0024 319.996 69.5128C318.869 70.0232 317.576 70.2784 316.118 70.2784ZM335.4 48.6818L328.838 73.0625H325.686L332.248 48.6818H335.4ZM344.737 70.2784C343.411 70.2784 342.225 70.0298 341.177 69.5327C340.13 69.0289 339.298 68.3395 338.681 67.4645C338.072 66.5895 337.747 65.5885 337.707 64.4616H341.287C341.353 65.2969 341.714 65.9796 342.37 66.5099C343.027 67.0336 343.815 67.2955 344.737 67.2955C345.459 67.2955 346.102 67.1297 346.666 66.7983C347.229 66.4669 347.673 66.0062 347.998 65.4162C348.323 64.8262 348.482 64.1534 348.475 63.3977C348.482 62.6288 348.32 61.946 347.988 61.3494C347.657 60.7528 347.203 60.2855 346.626 59.9474C346.049 59.6027 345.386 59.4304 344.637 59.4304C344.028 59.4238 343.428 59.5365 342.838 59.7685C342.248 60.0005 341.78 60.3054 341.436 60.6832L338.105 60.1364L339.169 49.6364H350.981V52.7188H342.221L341.635 58.1179H341.754C342.132 57.6738 342.665 57.3059 343.355 57.0142C344.044 56.7159 344.8 56.5668 345.622 56.5668C346.855 56.5668 347.955 56.8584 348.923 57.4418C349.891 58.0185 350.653 58.8139 351.21 59.8281C351.767 60.8423 352.045 62.0024 352.045 63.3082C352.045 64.6539 351.734 65.8537 351.11 66.9077C350.494 67.955 349.636 68.7803 348.535 69.3835C347.441 69.9801 346.175 70.2784 344.737 70.2784Z" fill="white"/>
<defs>
<linearGradient id="paint0_linear_1167_495" x1="0" y1="19" x2="660" y2="19" gradientUnits="userSpaceOnUse">
<stop stop-color="#B99BB9"/>
<stop offset="1" stop-color="#0C083B"/>
</linearGradient>
</defs>
</svg>
