<svg width="683" height="77" viewBox="0 0 683 77" fill="none" xmlns="http://www.w3.org/2000/svg">
<rect x="0.5" y="9.5" width="659" height="19" rx="9.5" fill="url(#paint0_linear_1167_500)" stroke="white"/>
<circle cx="660" cy="19" r="19" fill="#D8A5DF"/>
<rect y="9" width="660" height="20" rx="10" fill="#D8A5DF"/>
<path d="M644.889 70.2784C643.563 70.2784 642.377 70.0298 641.33 69.5327C640.282 69.0289 639.45 68.3395 638.834 67.4645C638.224 66.5895 637.899 65.5885 637.859 64.4616H641.439C641.505 65.2969 641.866 65.9796 642.523 66.5099C643.179 67.0336 643.968 67.2955 644.889 67.2955C645.612 67.2955 646.255 67.1297 646.818 66.7983C647.382 66.4669 647.826 66.0062 648.151 65.4162C648.475 64.8262 648.634 64.1534 648.628 63.3977C648.634 62.6288 648.472 61.946 648.141 61.3494C647.809 60.7528 647.355 60.2855 646.778 59.9474C646.202 59.6027 645.539 59.4304 644.79 59.4304C644.18 59.4238 643.58 59.5365 642.99 59.7685C642.4 60.0005 641.933 60.3054 641.588 60.6832L638.257 60.1364L639.321 49.6364H651.134V52.7188H642.374L641.787 58.1179H641.906C642.284 57.6738 642.818 57.3059 643.507 57.0142C644.196 56.7159 644.952 56.5668 645.774 56.5668C647.007 56.5668 648.107 56.8584 649.075 57.4418C650.043 58.0185 650.805 58.8139 651.362 59.8281C651.919 60.8423 652.197 62.0024 652.197 63.3082C652.197 64.6539 651.886 65.8537 651.263 66.9077C650.646 67.955 649.788 68.7803 648.688 69.3835C647.594 69.9801 646.328 70.2784 644.889 70.2784ZM663.881 48.6818L657.318 73.0625H654.166L660.729 48.6818H663.881ZM673.217 70.2784C671.892 70.2784 670.705 70.0298 669.658 69.5327C668.61 69.0289 667.778 68.3395 667.162 67.4645C666.552 66.5895 666.227 65.5885 666.188 64.4616H669.767C669.833 65.2969 670.195 65.9796 670.851 66.5099C671.507 67.0336 672.296 67.2955 673.217 67.2955C673.94 67.2955 674.583 67.1297 675.146 66.7983C675.71 66.4669 676.154 66.0062 676.479 65.4162C676.804 64.8262 676.963 64.1534 676.956 63.3977C676.963 62.6288 676.8 61.946 676.469 61.3494C676.137 60.7528 675.683 60.2855 675.107 59.9474C674.53 59.6027 673.867 59.4304 673.118 59.4304C672.508 59.4238 671.908 59.5365 671.318 59.7685C670.728 60.0005 670.261 60.3054 669.916 60.6832L666.585 60.1364L667.649 49.6364H679.462V52.7188H670.702L670.115 58.1179H670.234C670.612 57.6738 671.146 57.3059 671.835 57.0142C672.525 56.7159 673.28 56.5668 674.102 56.5668C675.335 56.5668 676.436 56.8584 677.403 57.4418C678.371 58.0185 679.134 58.8139 679.69 59.8281C680.247 60.8423 680.526 62.0024 680.526 63.3082C680.526 64.6539 680.214 65.8537 679.591 66.9077C678.974 67.955 678.116 68.7803 677.016 69.3835C675.922 69.9801 674.656 70.2784 673.217 70.2784Z" fill="white"/>
<defs>
<linearGradient id="paint0_linear_1167_500" x1="0" y1="19" x2="660" y2="19" gradientUnits="userSpaceOnUse">
<stop stop-color="#B99BB9"/>
<stop offset="1" stop-color="#0C083B"/>
</linearGradient>
</defs>
</svg>
