<svg width="681" height="77" viewBox="0 0 681 77" fill="none" xmlns="http://www.w3.org/2000/svg">
<rect x="21.5" y="9.5" width="659" height="19" rx="9.5" fill="url(#paint0_linear_1167_493)" stroke="white"/>
<circle cx="21" cy="19" r="19" fill="#D8A5DF"/>
<path d="M10.0923 49.6364V70H6.40341V53.2259H6.28409L1.52131 56.2685V52.8878L6.58239 49.6364H10.0923ZM23.6151 48.6818L17.0526 73.0625H13.9006L20.4631 48.6818H23.6151ZM32.9517 70.2784C31.6259 70.2784 30.4394 70.0298 29.392 69.5327C28.3447 69.0289 27.5128 68.3395 26.8963 67.4645C26.2865 66.5895 25.9616 65.5885 25.9219 64.4616H29.5014C29.5677 65.2969 29.929 65.9796 30.5852 66.5099C31.2415 67.0336 32.0303 67.2955 32.9517 67.2955C33.6742 67.2955 34.3172 67.1297 34.8807 66.7983C35.4441 66.4669 35.8883 66.0062 36.2131 65.4162C36.5379 64.8262 36.697 64.1534 36.6903 63.3977C36.697 62.6288 36.5346 61.946 36.2031 61.3494C35.8717 60.7528 35.4176 60.2855 34.8409 59.9474C34.2642 59.6027 33.6013 59.4304 32.8523 59.4304C32.2424 59.4238 31.6425 59.5365 31.0526 59.7685C30.4626 60.0005 29.9953 60.3054 29.6506 60.6832L26.3196 60.1364L27.3835 49.6364H39.196V52.7188H30.4361L29.8494 58.1179H29.9688C30.3466 57.6738 30.8802 57.3059 31.5696 57.0142C32.259 56.7159 33.0147 56.5668 33.8366 56.5668C35.0696 56.5668 36.17 56.8584 37.1378 57.4418C38.1056 58.0185 38.8679 58.8139 39.4247 59.8281C39.9815 60.8423 40.2599 62.0024 40.2599 63.3082C40.2599 64.6539 39.9484 65.8537 39.3253 66.9077C38.7088 67.955 37.8504 68.7803 36.75 69.3835C35.6562 69.9801 34.3902 70.2784 32.9517 70.2784Z" fill="white"/>
<defs>
<linearGradient id="paint0_linear_1167_493" x1="21" y1="19" x2="681" y2="19" gradientUnits="userSpaceOnUse">
<stop stop-color="#B99BB9"/>
<stop offset="1" stop-color="#0C083B"/>
</linearGradient>
</defs>
</svg>
