<svg width="78" height="38" viewBox="0 0 78 38" fill="none" xmlns="http://www.w3.org/2000/svg">
<path d="M3 1.12H14.28V4.76H3V1.12ZM2.52 12.48H14.68V16.12H2.52V12.48ZM2.52 18H14.68V21.64H2.52V18ZM0.24 6.6H16.56V10.48H0.24V6.6ZM17.12 7.6H37.12V12.08H17.12V7.6ZM16.16 31.72H37.76V36.24H16.16V31.72ZM17.96 19.32H36.48V23.76H17.96V19.32ZM4.68 23.56H15.12V35.28H4.68V31.72H10.68V27.12H4.68V23.56ZM2.2 23.56H6.52V37.08H2.2V23.56ZM24.6 0.079998H29.4V9.6H24.6V0.079998ZM24.6 9.32H29.4V34H24.6V9.32ZM44.04 2.28H72.04V7H48.76V37.68H44.04V2.28ZM69.48 2.28H74.24V32.36C74.24 34.48 73.92 35.8 72.64 36.64C71.4 37.44 69.76 37.56 67.44 37.56C67.32 36.28 66.68 34.12 66.04 32.88C67.2 32.96 68.48 32.96 68.88 32.96C69.36 32.96 69.48 32.76 69.48 32.28V2.28ZM40.2 16.72H77.8V21.4H40.2V16.72ZM52.52 3.84H56.96V37H52.52V3.84ZM60.88 3.84H65.4V37H60.88V3.84Z" fill="white"/>
</svg>
