<svg width="103" height="19" viewBox="0 0 103 19" fill="none" xmlns="http://www.w3.org/2000/svg">
<path d="M31.512 7.4H36.776V9.208H31.512V7.4ZM30.728 7.4H32.664V13.704C32.664 14.392 32.808 14.488 33.576 14.488C33.928 14.488 35.416 14.488 35.848 14.488C36.568 14.488 36.696 14.12 36.792 12.104C37.224 12.424 38.04 12.744 38.584 12.872C38.344 15.528 37.8 16.312 35.992 16.312C35.544 16.312 33.752 16.312 33.336 16.312C31.336 16.312 30.728 15.752 30.728 13.704V7.4ZM30.68 2.216H37.72V10.024H35.784V4.04H30.68V2.216ZM24.248 6.328H29.416V7.768H24.248V6.328ZM24.344 1.912H29.464V3.368H24.344V1.912ZM24.248 8.504H29.416V9.96H24.248V8.504ZM23.464 4.072H30.056V5.592H23.464V4.072ZM25.128 10.728H29.368V15.592H25.128V14.072H27.688V12.248H25.128V10.728ZM24.2 10.728H25.864V16.232H24.2V10.728ZM44.536 4.504H54.328V6.328H44.536V4.504ZM45.064 9.112H53.88V10.936H45.064V9.112ZM44.184 14.104H54.568V15.928H44.184V14.104ZM48.456 5.064H50.408V15.272H48.456V5.064ZM46.44 2.744L47.704 1.384C48.888 2.008 50.536 3 51.352 3.72L49.976 5.256C49.256 4.52 47.64 3.448 46.44 2.744ZM43.064 1.448L44.856 2.024C43.768 4.744 42.008 7.608 40.184 9.416C40.024 8.968 39.512 7.912 39.192 7.448C40.712 6.008 42.2 3.736 43.064 1.448ZM41.528 5.88L43.336 4.056L43.352 4.072V16.392H41.528V5.88ZM60.488 6.168H63.576V8.008H60.488V6.168ZM59.752 1.416H61.736V14.168L59.752 14.392V1.416ZM56.712 4.744H58.584V14.584L56.712 14.84V4.744ZM55.528 14.328C57.576 14.04 60.664 13.512 63.48 13.016L63.624 14.904C60.904 15.432 57.96 15.944 55.848 16.36L55.528 14.328ZM68.76 4.872L70.296 6.456C68.872 7.448 67.064 8.376 65.48 9.096C65.352 8.664 65.016 7.992 64.76 7.592C66.216 6.856 67.768 5.768 68.76 4.872ZM64.152 1.416H66.152V13.224C66.152 14.104 66.216 14.232 66.728 14.232C66.968 14.232 67.944 14.232 68.184 14.232C68.712 14.232 68.792 13.688 68.872 11.592C69.352 11.944 70.136 12.296 70.68 12.424C70.488 15.08 69.992 16.104 68.376 16.104C68.008 16.104 66.76 16.104 66.408 16.104C64.648 16.104 64.152 15.448 64.152 13.192V1.416ZM73.864 1.416H75.48V16.44H73.864V1.416ZM71.784 4.36H76.888V6.056H73.176V13.112H71.784V4.36ZM76.2 4.36H77.576V11.224C77.576 11.8 77.512 12.312 77.176 12.6C76.824 12.888 76.456 12.936 75.912 12.936C75.896 12.472 75.688 11.752 75.48 11.32C75.752 11.336 75.976 11.336 76.088 11.336C76.168 11.32 76.2 11.288 76.2 11.16V4.36ZM79.352 2.008H85.784V3.544H79.352V2.008ZM79.368 4.264H85.288V5.688H79.368V4.264ZM79.368 6.424H85.288V7.832H79.368V6.424ZM77.736 8.584H86.36V10.168H77.736V8.584ZM77.208 14.6C78.616 14.424 80.712 14.104 82.728 13.784L82.856 15.368C81.016 15.704 79.08 16.024 77.592 16.296L77.208 14.6ZM82.744 9.128C83.272 11.784 84.424 13.896 86.744 14.792C86.328 15.16 85.768 15.944 85.512 16.456C82.952 15.224 81.816 12.728 81.192 9.352L82.744 9.128ZM85.288 10.28L86.536 11.432C85.704 12.168 84.6 12.952 83.8 13.448L82.744 12.376C83.512 11.864 84.648 10.968 85.288 10.28ZM78.648 2.008H80.424V9.368H78.648V2.008ZM78.616 9.4H80.392V14.792L78.616 15.016V9.4ZM89.848 3.48V5.192H91.336V3.48H89.848ZM88.168 1.944H93.112V6.744H88.168V1.944ZM87.48 7.48H93.672V9.128H87.48V7.48ZM88.824 8.264H90.568C90.296 9.672 89.928 11.4 89.64 12.52L87.928 12.232C88.248 11.16 88.6 9.544 88.824 8.264ZM89.32 10.104H92.008V11.688H88.952L89.32 10.104ZM91.32 10.104H93.048C93.048 10.104 93.032 10.552 93.016 10.792C92.808 13.96 92.6 15.32 92.152 15.832C91.816 16.216 91.464 16.344 90.968 16.408C90.552 16.456 89.848 16.456 89.112 16.44C89.08 15.944 88.888 15.24 88.584 14.792C89.256 14.856 89.88 14.856 90.168 14.856C90.408 14.856 90.568 14.824 90.712 14.68C91 14.392 91.176 13.24 91.32 10.36V10.104ZM97.912 2.28H101.976V3.8H97.912V2.28ZM94.808 4.504H101.448V6.008H94.808V4.504ZM97.048 1.416H98.888V5.192H97.048V1.416ZM94.024 4.504H95.736V8.664C95.736 11 95.48 14.36 93.992 16.488C93.688 16.184 92.952 15.64 92.552 15.464C93.896 13.496 94.024 10.712 94.024 8.664V4.504ZM95.864 7.096L100.232 6.712L100.392 7.96L96.024 8.376L95.864 7.096ZM97.16 5.88H98.84V8.328C98.84 8.712 98.888 8.744 99.272 8.744C99.432 8.744 100.152 8.744 100.36 8.744C100.664 8.744 100.728 8.632 100.776 7.96C101.112 8.184 101.752 8.392 102.184 8.488C102.024 9.72 101.608 10.072 100.552 10.072C100.248 10.072 99.304 10.072 99 10.072C97.496 10.072 97.16 9.672 97.16 8.328V5.88ZM100.952 4.504H101.192L101.464 4.44L102.664 4.696C102.504 5.784 102.264 7.032 102.072 7.832L100.632 7.496C100.744 6.776 100.888 5.624 100.952 4.728V4.504ZM96.424 10.6H98.024C97.928 13.32 97.56 15.336 95.592 16.536C95.384 16.104 94.904 15.448 94.52 15.144C96.12 14.232 96.344 12.744 96.424 10.6ZM98.808 10.6H100.44V14.216C100.44 14.296 100.456 14.408 100.488 14.44C100.536 14.504 100.632 14.536 100.728 14.536C100.792 14.536 100.936 14.536 101.032 14.536C101.112 14.536 101.224 14.504 101.272 14.456C101.336 14.408 101.384 14.296 101.416 14.152C101.448 13.912 101.464 13.336 101.464 12.68C101.768 12.952 102.36 13.272 102.792 13.416C102.776 14.184 102.68 14.952 102.584 15.272C102.472 15.624 102.296 15.832 102.024 16.024C101.816 16.152 101.464 16.232 101.144 16.232C100.888 16.232 100.472 16.232 100.248 16.232C99.832 16.232 99.416 16.136 99.16 15.864C98.872 15.576 98.808 15.304 98.808 14.376V10.6Z" fill="white"/>
<rect x="0.75" y="0.75" width="16.5" height="16.5" rx="1.25" stroke="white" stroke-width="1.5"/>
</svg>
