<svg width="84" height="27" viewBox="0 0 84 27" fill="none" xmlns="http://www.w3.org/2000/svg">
<path d="M7.56 10.924H25.536V13.724H7.56V10.924ZM6.804 15.628H26.796V18.456H6.804V15.628ZM11.116 8.6H14.196V16.944H11.116V8.6ZM9.716 16.664H12.796V23.72H9.716V16.664ZM18.368 8.6H21.504V16.916H18.368V8.6ZM3.612 1.432H7V9.748C7 14.676 6.552 21.984 3.612 26.604C2.94 26.072 1.428 25.204 0.588 24.868C3.388 20.556 3.612 14.228 3.612 9.748V1.432ZM5.684 1.432H25.284V9.076H5.684V6.248H21.896V4.26H5.684V1.432ZM6.832 23.076C9.576 22.796 13.692 22.236 17.64 21.648L17.78 24.532C14.14 25.148 10.22 25.708 7.308 26.156L6.832 23.076ZM17.584 16.804C19.068 20.416 22.232 22.88 27.104 23.776C26.432 24.448 25.536 25.708 25.116 26.548C19.824 25.232 16.632 22.152 14.812 17.392L17.584 16.804ZM23.268 18.092L25.788 19.8C24.276 20.892 22.4 21.928 20.972 22.6L18.816 21.004C20.216 20.276 22.148 19.016 23.268 18.092ZM40.236 10.644H43.932V22.572C43.932 24.448 43.512 25.4 42.224 25.96C40.908 26.464 39.06 26.52 36.596 26.52C36.456 25.484 35.924 23.972 35.42 22.964C37.016 23.048 39.004 23.048 39.536 23.02C40.068 23.02 40.236 22.908 40.236 22.488V10.644ZM33.516 14.172L37.044 15.096C35.784 18.428 33.712 21.816 31.724 23.944C31.024 23.328 29.484 22.376 28.616 21.928C30.632 20.08 32.48 17.084 33.516 14.172ZM46.788 15.376L49.952 14.06C51.8 16.664 53.844 20.108 54.6 22.488L51.128 24.028C50.484 21.704 48.58 18.092 46.788 15.376ZM32.06 2.02H51.912V5.352H32.06V2.02ZM29.512 8.768H54.544V12.128H29.512V8.768ZM73.332 19.464V20.752H75.656V19.464H73.332ZM71.204 17.784H77.84V22.46H71.204V17.784ZM67.172 14.732H82.096V26.464H79.184V16.86H69.916V26.492H67.172V14.732ZM66.528 2.496H82.236V5.044H66.528V2.496ZM68.852 23.356H80.248V25.512H68.852V23.356ZM65.996 10.98H83.104V13.528H65.996V10.98ZM56.84 14.116H64.12V17H56.84V14.116ZM62.44 0.227999H65.408V26.52H62.44V0.227999ZM72.744 0.227999H75.88V12.352H72.744V0.227999ZM68.544 8.376L70.14 7.004C71.036 7.648 72.156 8.628 72.688 9.3L71.008 10.812C70.532 10.112 69.44 9.076 68.544 8.376ZM58.072 15.32H60.9V17.028C60.9 19.268 60.648 23.608 59.192 26.492C58.604 26.1 57.344 25.512 56.616 25.26C57.904 22.712 58.072 18.96 58.072 16.944V15.32ZM68.74 5.1L71.204 5.632C70.56 7.76 69.3 9.72 67.9 10.98C67.424 10.588 66.388 9.888 65.8 9.58C67.2 8.488 68.236 6.864 68.74 5.1ZM78.512 8.236L80.136 6.864C81.144 7.564 82.376 8.628 82.964 9.356L81.256 10.896C80.696 10.112 79.492 9.02 78.512 8.236ZM78.512 5.1L81.004 5.548C80.416 7.788 79.24 9.692 77.728 10.952C77.28 10.532 76.244 9.804 75.628 9.496C77.084 8.432 78.064 6.892 78.512 5.1ZM57.876 1.712H60.704V8.068H64.456V11.064H57.876V1.712Z" fill="white"/>
</svg>
