<svg width="102" height="49" viewBox="0 0 102 49" fill="none" xmlns="http://www.w3.org/2000/svg">
<path d="M16.56 13.924H34.536V16.724H16.56V13.924ZM15.804 18.628H35.796V21.456H15.804V18.628ZM20.116 11.6H23.196V19.944H20.116V11.6ZM18.716 19.664H21.796V26.72H18.716V19.664ZM27.368 11.6H30.504V19.916H27.368V11.6ZM12.612 4.432H16V12.748C16 17.676 15.552 24.984 12.612 29.604C11.94 29.072 10.428 28.204 9.588 27.868C12.388 23.556 12.612 17.228 12.612 12.748V4.432ZM14.684 4.432H34.284V12.076H14.684V9.248H30.896V7.26H14.684V4.432ZM15.832 26.076C18.576 25.796 22.692 25.236 26.64 24.648L26.78 27.532C23.14 28.148 19.22 28.708 16.308 29.156L15.832 26.076ZM26.584 19.804C28.068 23.416 31.232 25.88 36.104 26.776C35.432 27.448 34.536 28.708 34.116 29.548C28.824 28.232 25.632 25.152 23.812 20.392L26.584 19.804ZM32.268 21.092L34.788 22.8C33.276 23.892 31.4 24.928 29.972 25.6L27.816 24.004C29.216 23.276 31.148 22.016 32.268 21.092ZM49.236 13.644H52.932V25.572C52.932 27.448 52.512 28.4 51.224 28.96C49.908 29.464 48.06 29.52 45.596 29.52C45.456 28.484 44.924 26.972 44.42 25.964C46.016 26.048 48.004 26.048 48.536 26.02C49.068 26.02 49.236 25.908 49.236 25.488V13.644ZM42.516 17.172L46.044 18.096C44.784 21.428 42.712 24.816 40.724 26.944C40.024 26.328 38.484 25.376 37.616 24.928C39.632 23.08 41.48 20.084 42.516 17.172ZM55.788 18.376L58.952 17.06C60.8 19.664 62.844 23.108 63.6 25.488L60.128 27.028C59.484 24.704 57.58 21.092 55.788 18.376ZM41.06 5.02H60.912V8.352H41.06V5.02ZM38.512 11.768H63.544V15.128H38.512V11.768ZM82.332 22.464V23.752H84.656V22.464H82.332ZM80.204 20.784H86.84V25.46H80.204V20.784ZM76.172 17.732H91.096V29.464H88.184V19.86H78.916V29.492H76.172V17.732ZM75.528 5.496H91.236V8.044H75.528V5.496ZM77.852 26.356H89.248V28.512H77.852V26.356ZM74.996 13.98H92.104V16.528H74.996V13.98ZM65.84 17.116H73.12V20H65.84V17.116ZM71.44 3.228H74.408V29.52H71.44V3.228ZM81.744 3.228H84.88V15.352H81.744V3.228ZM77.544 11.376L79.14 10.004C80.036 10.648 81.156 11.628 81.688 12.3L80.008 13.812C79.532 13.112 78.44 12.076 77.544 11.376ZM67.072 18.32H69.9V20.028C69.9 22.268 69.648 26.608 68.192 29.492C67.604 29.1 66.344 28.512 65.616 28.26C66.904 25.712 67.072 21.96 67.072 19.944V18.32ZM77.74 8.1L80.204 8.632C79.56 10.76 78.3 12.72 76.9 13.98C76.424 13.588 75.388 12.888 74.8 12.58C76.2 11.488 77.236 9.864 77.74 8.1ZM87.512 11.236L89.136 9.864C90.144 10.564 91.376 11.628 91.964 12.356L90.256 13.896C89.696 13.112 88.492 12.02 87.512 11.236ZM87.512 8.1L90.004 8.548C89.416 10.788 88.24 12.692 86.728 13.952C86.28 13.532 85.244 12.804 84.628 12.496C86.084 11.432 87.064 9.892 87.512 8.1ZM66.876 4.712H69.704V11.068H73.456V14.064H66.876V4.712Z" fill="white"/>
<g filter="url(#filter0_d_834_529)">
<line x1="6" y1="38" x2="96" y2="38" stroke="white" stroke-width="2"/>
</g>
<defs>
<filter id="filter0_d_834_529" x="0" y="35" width="102" height="14" filterUnits="userSpaceOnUse" color-interpolation-filters="sRGB">
<feFlood flood-opacity="0" result="BackgroundImageFix"/>
<feColorMatrix in="SourceAlpha" type="matrix" values="0 0 0 0 0 0 0 0 0 0 0 0 0 0 0 0 0 0 127 0" result="hardAlpha"/>
<feOffset dy="4"/>
<feGaussianBlur stdDeviation="3"/>
<feComposite in2="hardAlpha" operator="out"/>
<feColorMatrix type="matrix" values="0 0 0 0 1 0 0 0 0 1 0 0 0 0 1 0 0 0 0.9 0"/>
<feBlend mode="normal" in2="BackgroundImageFix" result="effect1_dropShadow_834_529"/>
<feBlend mode="normal" in="SourceGraphic" in2="effect1_dropShadow_834_529" result="shape"/>
</filter>
</defs>
</svg>
