<svg width="84" height="27" viewBox="0 0 84 27" fill="none" xmlns="http://www.w3.org/2000/svg">
<path d="M7.588 10.896H25.564V13.696H7.588V10.896ZM6.832 15.628H26.796V18.456H6.832V15.628ZM11.116 8.6H14.196V16.916H11.116V8.6ZM9.716 16.636H12.796V23.72H9.716V16.636ZM18.396 8.6H21.532V16.888H18.396V8.6ZM3.612 1.404H7.028V9.72C7.028 10.952 6.98133 12.3053 6.888 13.78C6.81333 15.236 6.65467 16.7293 6.412 18.26C6.188 19.7907 5.852 21.2747 5.404 22.712C4.956 24.1493 4.35867 25.4373 3.612 26.576C3.40667 26.408 3.11733 26.212 2.744 25.988C2.37067 25.764 1.988 25.54 1.596 25.316C1.22267 25.1107 0.886667 24.9613 0.588 24.868C1.29733 23.7853 1.85733 22.6 2.268 21.312C2.67867 20.024 2.97733 18.708 3.164 17.364C3.35067 16.0013 3.472 14.6667 3.528 13.36C3.584 12.0533 3.612 10.84 3.612 9.72V1.404ZM5.712 1.404H25.312V9.076H5.712V6.22H21.924V4.26H5.712V1.404ZM6.832 23.076C7.76533 22.964 8.82 22.8333 9.996 22.684C11.172 22.5347 12.4133 22.376 13.72 22.208C15.0453 22.0213 16.3613 21.8347 17.668 21.648L17.808 24.532C15.9787 24.8307 14.14 25.12 12.292 25.4C10.444 25.68 8.78267 25.932 7.308 26.156L6.832 23.076ZM17.584 16.776C18.3307 18.5867 19.4973 20.0893 21.084 21.284C22.6707 22.4787 24.6867 23.3093 27.132 23.776C26.7773 24.0933 26.404 24.5227 26.012 25.064C25.6387 25.624 25.3493 26.1187 25.144 26.548C22.4933 25.876 20.3373 24.7747 18.676 23.244C17.0147 21.7133 15.7267 19.7627 14.812 17.392L17.584 16.776ZM23.296 18.064L25.816 19.8C25.0693 20.3413 24.2573 20.864 23.38 21.368C22.5027 21.8533 21.7 22.264 20.972 22.6L18.844 21.004C19.3107 20.7613 19.8147 20.472 20.356 20.136C20.8973 19.7813 21.4293 19.4267 21.952 19.072C22.4747 18.7173 22.9227 18.3813 23.296 18.064ZM40.264 10.616H43.932V22.572C43.932 23.5053 43.8107 24.2333 43.568 24.756C43.3253 25.2787 42.8773 25.6707 42.224 25.932C41.5707 26.1933 40.7773 26.352 39.844 26.408C38.9107 26.4827 37.8373 26.52 36.624 26.52C36.5493 25.9973 36.3907 25.3907 36.148 24.7C35.924 24.028 35.6813 23.44 35.42 22.936C35.9613 22.9547 36.512 22.9733 37.072 22.992C37.6507 23.0107 38.164 23.02 38.612 23.02C39.0787 23.02 39.396 23.02 39.564 23.02C39.8253 23.02 40.0027 22.9827 40.096 22.908C40.208 22.8147 40.264 22.6747 40.264 22.488V10.616ZM33.516 14.144L37.072 15.068C36.6613 16.188 36.1573 17.2893 35.56 18.372C34.9813 19.4547 34.3653 20.472 33.712 21.424C33.0587 22.376 32.396 23.2067 31.724 23.916C31.5 23.7293 31.192 23.5053 30.8 23.244C30.4267 22.9827 30.044 22.7307 29.652 22.488C29.26 22.2453 28.9147 22.0493 28.616 21.9C29.624 20.9853 30.5667 19.828 31.444 18.428C32.3213 17.028 33.012 15.6 33.516 14.144ZM46.788 15.348L49.952 14.06C50.568 14.9187 51.184 15.852 51.8 16.86C52.416 17.8493 52.976 18.8387 53.48 19.828C53.984 20.7987 54.3667 21.6853 54.628 22.488L51.128 24C50.9227 23.2347 50.5867 22.3573 50.12 21.368C49.672 20.36 49.1493 19.3333 48.552 18.288C47.9733 17.2427 47.3853 16.2627 46.788 15.348ZM32.06 2.02H51.912V5.352H32.06V2.02ZM29.512 8.768H54.544V12.1H29.512V8.768ZM73.36 19.464V20.752H75.656V19.464H73.36ZM71.232 17.756H77.84V22.432H71.232V17.756ZM67.172 14.732H82.096V26.464H79.212V16.832H69.944V26.492H67.172V14.732ZM66.556 2.496H82.236V5.016H66.556V2.496ZM68.88 23.328H80.248V25.512H68.88V23.328ZM66.024 10.952H83.104V13.528H66.024V10.952ZM56.868 14.088H64.148V16.972H56.868V14.088ZM62.468 0.227999H65.436V26.52H62.468V0.227999ZM72.772 0.199999H75.88V12.324H72.772V0.199999ZM68.544 8.376L70.14 7.004C70.6067 7.32133 71.0827 7.69467 71.568 8.124C72.0533 8.55333 72.4267 8.936 72.688 9.272L71.036 10.812C70.7747 10.4573 70.4013 10.0467 69.916 9.58C69.4493 9.11333 68.992 8.712 68.544 8.376ZM58.1 15.292H60.928V17C60.928 17.56 60.9 18.232 60.844 19.016C60.8067 19.8 60.7227 20.6307 60.592 21.508C60.48 22.3853 60.312 23.2533 60.088 24.112C59.864 24.9707 59.5653 25.7547 59.192 26.464C59.0053 26.3333 58.7533 26.1933 58.436 26.044C58.1373 25.8947 57.82 25.7453 57.484 25.596C57.1667 25.4467 56.8773 25.3253 56.616 25.232C57.0453 24.392 57.3627 23.4587 57.568 22.432C57.7733 21.3867 57.9133 20.3787 57.988 19.408C58.0627 18.4187 58.1 17.588 58.1 16.916V15.292ZM68.74 5.1L71.204 5.604C70.8867 6.68667 70.4293 7.69467 69.832 8.628C69.2533 9.56133 68.6093 10.3453 67.9 10.98C67.676 10.7747 67.3493 10.532 66.92 10.252C66.4907 9.95333 66.1173 9.72933 65.8 9.58C66.5093 9.02 67.1067 8.35733 67.592 7.592C68.096 6.808 68.4787 5.97733 68.74 5.1ZM78.54 8.236L80.136 6.864C80.64 7.2 81.1627 7.61067 81.704 8.096C82.2453 8.56267 82.6653 8.98267 82.964 9.356L81.284 10.868C81.004 10.476 80.5933 10.0373 80.052 9.552C79.5293 9.048 79.0253 8.60933 78.54 8.236ZM78.512 5.1L81.004 5.548C80.724 6.64933 80.2947 7.66667 79.716 8.6C79.156 9.53333 78.5027 10.308 77.756 10.924C77.532 10.7187 77.2053 10.4667 76.776 10.168C76.3467 9.86933 75.9733 9.64533 75.656 9.496C76.384 8.97333 76.9907 8.32933 77.476 7.564C77.9613 6.79867 78.3067 5.97733 78.512 5.1ZM57.904 1.684H60.732V8.068H64.456V11.064H57.904V1.684Z" fill="#D8A5DF"/>
</svg>
