<svg width="139" height="27" viewBox="0 0 139 27" fill="none" xmlns="http://www.w3.org/2000/svg">
<path d="M6.056 14.508H19.888V16.916H6.056V14.508ZM11.488 12.044H14.372V22.068H11.488V12.044ZM16.976 10.252L18.964 12.128C15.8 12.94 11.236 13.332 7.428 13.416C7.344 12.884 7.036 11.96 6.756 11.428C10.368 11.26 14.624 10.868 16.976 10.252ZM11.236 15.768L13.392 16.608C11.992 18.764 9.5 20.92 7.176 22.04C6.784 21.396 5.944 20.416 5.356 19.94C7.568 19.1 9.976 17.448 11.236 15.768ZM0.512 1.768H25.404V4.68H0.512V1.768ZM3.648 22.684H22.38V25.568H3.648V22.684ZM6.672 0.227999H10.004V6.416H6.672V0.227999ZM15.884 0.227999H19.216V6.416H15.884V0.227999ZM2.024 7.228H24.116V26.52H20.812V10.028H5.188V26.52H2.024V7.228ZM14.82 16.02C16.024 17.532 18.376 19.1 20.392 19.884C19.776 20.388 18.936 21.34 18.516 21.984C16.472 20.92 14.092 18.82 12.748 16.916L14.82 16.02ZM44.332 2.608H47.552V24.784H44.332V2.608ZM38.032 5.128H53.628V7.732H38.032V5.128ZM37.192 23.412H54.216V26.072H37.192V23.412ZM38.76 19.576H53.18V22.124H38.76V19.576ZM51.668 0.451999L53.6 2.944C49.54 3.728 43.8 4.064 39.04 4.12C38.984 3.392 38.62 2.272 38.312 1.6C42.932 1.46 48.364 1.096 51.668 0.451999ZM41.868 14.564V15.992H50.128V14.564H41.868ZM41.868 11.204V12.604H50.128V11.204H41.868ZM38.956 8.88H53.18V18.316H38.956V8.88ZM32.152 2.832H35.428V26.492H32.152V2.832ZM28.12 8.096H38.396V11.232H28.12V8.096ZM32.348 9.356L34.308 10.224C33.244 14.228 31.256 19.212 29.1 21.984C28.792 21.004 28.064 19.604 27.532 18.764C29.492 16.524 31.452 12.464 32.348 9.356ZM36.52 0.507999L38.76 3.112C35.904 4.204 32.012 4.96 28.736 5.38C28.596 4.652 28.176 3.532 27.784 2.832C30.892 2.3 34.364 1.488 36.52 0.507999ZM35.344 11.988C36.044 12.576 38.48 15.096 39.012 15.74L37.108 18.372C36.436 17.028 34.756 14.48 33.888 13.304L35.344 11.988ZM59.004 4.764H67.6V23.636H59.004V20.668H64.548V7.704H59.004V4.764ZM57.044 4.764H60.096V25.708H57.044V4.764ZM58.864 12.24H66.032V15.152H58.864V12.24ZM61.02 0.199999L64.688 0.731999C64.044 2.636 63.344 4.624 62.784 5.94L60.096 5.352C60.488 3.896 60.88 1.74 61.02 0.199999ZM71.296 4.568H79.472V7.62H71.296V4.568ZM78.324 4.568H81.432C81.432 4.568 81.432 5.66 81.404 6.08C81.04 18.68 80.704 23.132 79.556 24.616C78.772 25.708 77.988 26.016 76.84 26.184C75.776 26.352 74.068 26.324 72.444 26.24C72.388 25.316 71.94 23.888 71.324 22.992C73.144 23.132 74.824 23.16 75.524 23.16C76.084 23.16 76.392 23.048 76.756 22.656C77.652 21.704 78.016 16.888 78.324 5.212V4.568ZM71.38 0.227999L74.6 0.983999C73.508 5.128 71.688 9.384 69.784 12.072C69.168 11.512 67.796 10.56 67.012 10.112C68.888 7.76 70.484 3.952 71.38 0.227999ZM70.008 12.632L72.64 11.148C74.012 13.08 75.86 15.768 76.728 17.42L73.872 19.156C73.116 17.448 71.352 14.704 70.008 12.632ZM84.008 6.976H110.048V10.224H84.008V6.976ZM89.804 21.508H109.04V24.728H89.804V21.508ZM96.72 14.648H103.916V17.784H96.72V14.648ZM88.04 1.068H91.512V26.52H88.04V1.068ZM95.32 0.479999H98.708V18.932H95.32V0.479999ZM102.46 0.759999H105.848V18.876H102.46V0.759999ZM118.392 8.404V10.448H131.608V8.404H118.392ZM118.392 3.896V5.884H131.608V3.896H118.392ZM115.032 1.18H135.108V13.136H115.032V1.18ZM128.836 11.372C130.684 13.892 134.324 15.964 138.244 16.944C137.488 17.616 136.48 18.932 136.004 19.8C131.888 18.456 128.248 15.768 126.008 12.408L128.836 11.372ZM121.192 11.344L124.16 12.492C121.892 15.74 118.112 18.484 114.136 19.912C113.632 19.072 112.624 17.812 111.896 17.14C115.676 16.076 119.344 13.864 121.192 11.344ZM119.204 16.468H122.676V18.4C122.676 21.088 121.864 24.672 116.264 26.716C115.816 25.876 114.696 24.616 113.968 23.972C118.644 22.46 119.204 20.08 119.204 18.288V16.468ZM123.292 2.552H126.68V11.792H123.292V2.552ZM127.744 16.524H131.244V26.436H127.744V16.524Z" fill="white"/>
</svg>
