<svg width="162" height="49" viewBox="0 0 162 49" fill="none" xmlns="http://www.w3.org/2000/svg">
<path d="M18.056 17.508H31.888V19.916H18.056V17.508ZM23.488 15.044H26.372V25.068H23.488V15.044ZM28.976 13.252L30.964 15.128C27.8 15.94 23.236 16.332 19.428 16.416C19.344 15.884 19.036 14.96 18.756 14.428C22.368 14.26 26.624 13.868 28.976 13.252ZM23.236 18.768L25.392 19.608C23.992 21.764 21.5 23.92 19.176 25.04C18.784 24.396 17.944 23.416 17.356 22.94C19.568 22.1 21.976 20.448 23.236 18.768ZM12.512 4.768H37.404V7.68H12.512V4.768ZM15.648 25.684H34.38V28.568H15.648V25.684ZM18.672 3.228H22.004V9.416H18.672V3.228ZM27.884 3.228H31.216V9.416H27.884V3.228ZM14.024 10.228H36.116V29.52H32.812V13.028H17.188V29.52H14.024V10.228ZM26.82 19.02C28.024 20.532 30.376 22.1 32.392 22.884C31.776 23.388 30.936 24.34 30.516 24.984C28.472 23.92 26.092 21.82 24.748 19.916L26.82 19.02ZM56.332 5.608H59.552V27.784H56.332V5.608ZM50.032 8.128H65.628V10.732H50.032V8.128ZM49.192 26.412H66.216V29.072H49.192V26.412ZM50.76 22.576H65.18V25.124H50.76V22.576ZM63.668 3.452L65.6 5.944C61.54 6.728 55.8 7.064 51.04 7.12C50.984 6.392 50.62 5.272 50.312 4.6C54.932 4.46 60.364 4.096 63.668 3.452ZM53.868 17.564V18.992H62.128V17.564H53.868ZM53.868 14.204V15.604H62.128V14.204H53.868ZM50.956 11.88H65.18V21.316H50.956V11.88ZM44.152 5.832H47.428V29.492H44.152V5.832ZM40.12 11.096H50.396V14.232H40.12V11.096ZM44.348 12.356L46.308 13.224C45.244 17.228 43.256 22.212 41.1 24.984C40.792 24.004 40.064 22.604 39.532 21.764C41.492 19.524 43.452 15.464 44.348 12.356ZM48.52 3.508L50.76 6.112C47.904 7.204 44.012 7.96 40.736 8.38C40.596 7.652 40.176 6.532 39.784 5.832C42.892 5.3 46.364 4.488 48.52 3.508ZM47.344 14.988C48.044 15.576 50.48 18.096 51.012 18.74L49.108 21.372C48.436 20.028 46.756 17.48 45.888 16.304L47.344 14.988ZM71.004 7.764H79.6V26.636H71.004V23.668H76.548V10.704H71.004V7.764ZM69.044 7.764H72.096V28.708H69.044V7.764ZM70.864 15.24H78.032V18.152H70.864V15.24ZM73.02 3.2L76.688 3.732C76.044 5.636 75.344 7.624 74.784 8.94L72.096 8.352C72.488 6.896 72.88 4.74 73.02 3.2ZM83.296 7.568H91.472V10.62H83.296V7.568ZM90.324 7.568H93.432C93.432 7.568 93.432 8.66 93.404 9.08C93.04 21.68 92.704 26.132 91.556 27.616C90.772 28.708 89.988 29.016 88.84 29.184C87.776 29.352 86.068 29.324 84.444 29.24C84.388 28.316 83.94 26.888 83.324 25.992C85.144 26.132 86.824 26.16 87.524 26.16C88.084 26.16 88.392 26.048 88.756 25.656C89.652 24.704 90.016 19.888 90.324 8.212V7.568ZM83.38 3.228L86.6 3.984C85.508 8.128 83.688 12.384 81.784 15.072C81.168 14.512 79.796 13.56 79.012 13.112C80.888 10.76 82.484 6.952 83.38 3.228ZM82.008 15.632L84.64 14.148C86.012 16.08 87.86 18.768 88.728 20.42L85.872 22.156C85.116 20.448 83.352 17.704 82.008 15.632ZM96.008 9.976H122.048V13.224H96.008V9.976ZM101.804 24.508H121.04V27.728H101.804V24.508ZM108.72 17.648H115.916V20.784H108.72V17.648ZM100.04 4.068H103.512V29.52H100.04V4.068ZM107.32 3.48H110.708V21.932H107.32V3.48ZM114.46 3.76H117.848V21.876H114.46V3.76ZM130.392 11.404V13.448H143.608V11.404H130.392ZM130.392 6.896V8.884H143.608V6.896H130.392ZM127.032 4.18H147.108V16.136H127.032V4.18ZM140.836 14.372C142.684 16.892 146.324 18.964 150.244 19.944C149.488 20.616 148.48 21.932 148.004 22.8C143.888 21.456 140.248 18.768 138.008 15.408L140.836 14.372ZM133.192 14.344L136.16 15.492C133.892 18.74 130.112 21.484 126.136 22.912C125.632 22.072 124.624 20.812 123.896 20.14C127.676 19.076 131.344 16.864 133.192 14.344ZM131.204 19.468H134.676V21.4C134.676 24.088 133.864 27.672 128.264 29.716C127.816 28.876 126.696 27.616 125.968 26.972C130.644 25.46 131.204 23.08 131.204 21.288V19.468ZM135.292 5.552H138.68V14.792H135.292V5.552ZM139.744 19.524H143.244V29.436H139.744V19.524Z" fill="white"/>
<g filter="url(#filter0_d_493_290)">
<line x1="6" y1="38" x2="156" y2="38" stroke="white" stroke-width="2"/>
</g>
<defs>
<filter id="filter0_d_493_290" x="0" y="35" width="162" height="14" filterUnits="userSpaceOnUse" color-interpolation-filters="sRGB">
<feFlood flood-opacity="0" result="BackgroundImageFix"/>
<feColorMatrix in="SourceAlpha" type="matrix" values="0 0 0 0 0 0 0 0 0 0 0 0 0 0 0 0 0 0 127 0" result="hardAlpha"/>
<feOffset dy="4"/>
<feGaussianBlur stdDeviation="3"/>
<feComposite in2="hardAlpha" operator="out"/>
<feColorMatrix type="matrix" values="0 0 0 0 1 0 0 0 0 1 0 0 0 0 1 0 0 0 0.9 0"/>
<feBlend mode="normal" in2="BackgroundImageFix" result="effect1_dropShadow_493_290"/>
<feBlend mode="normal" in="SourceGraphic" in2="effect1_dropShadow_493_290" result="shape"/>
</filter>
</defs>
</svg>
