<svg width="139" height="27" viewBox="0 0 139 27" fill="none" xmlns="http://www.w3.org/2000/svg">
<path d="M6.084 14.48H19.916V16.888H6.084V14.48ZM11.516 12.044H14.372V22.068H11.516V12.044ZM17.004 10.224L18.964 12.1C17.9373 12.38 16.7613 12.6133 15.436 12.8C14.1293 12.968 12.7853 13.0987 11.404 13.192C10.0413 13.2853 8.72533 13.3507 7.456 13.388C7.4 13.1267 7.30667 12.8 7.176 12.408C7.04533 11.9973 6.90533 11.6707 6.756 11.428C7.67067 11.372 8.604 11.316 9.556 11.26C10.508 11.1853 11.4413 11.1013 12.356 11.008C13.2707 10.896 14.12 10.7747 14.904 10.644C15.7067 10.5133 16.4067 10.3733 17.004 10.224ZM11.264 15.768L13.392 16.608C12.944 17.3173 12.3747 18.0173 11.684 18.708C11.012 19.3987 10.284 20.0333 9.5 20.612C8.73467 21.1907 7.96933 21.6573 7.204 22.012C6.99867 21.6947 6.71867 21.3307 6.364 20.92C6.00933 20.5093 5.68267 20.1733 5.384 19.912C6.112 19.632 6.84933 19.2773 7.596 18.848C8.34267 18.4 9.03333 17.9147 9.668 17.392C10.3213 16.8693 10.8533 16.328 11.264 15.768ZM0.54 1.74H25.432V4.68H0.54V1.74ZM3.648 22.684H22.38V25.568H3.648V22.684ZM6.672 0.199999H10.004V6.416H6.672V0.199999ZM15.884 0.199999H19.244V6.416H15.884V0.199999ZM2.024 7.2H24.116V26.492H20.812V10H5.188V26.492H2.024V7.2ZM14.82 16.02C15.2307 16.5053 15.744 17 16.36 17.504C16.976 17.9893 17.6387 18.4373 18.348 18.848C19.0573 19.2587 19.748 19.604 20.42 19.884C20.1213 20.1267 19.7853 20.4533 19.412 20.864C19.0387 21.2747 18.7493 21.648 18.544 21.984C17.8533 21.6107 17.144 21.1533 16.416 20.612C15.7067 20.052 15.0347 19.4547 14.4 18.82C13.7653 18.1667 13.224 17.5227 12.776 16.888L14.82 16.02ZM44.36 2.608H47.58V24.756H44.36V2.608ZM38.032 5.1H53.656V7.704H38.032V5.1ZM37.192 23.412H54.244V26.044H37.192V23.412ZM38.788 19.548H53.18V22.124H38.788V19.548ZM51.668 0.451999L53.6 2.916C52.592 3.12133 51.4907 3.29867 50.296 3.448C49.1013 3.57867 47.8693 3.69067 46.6 3.784C45.3307 3.87733 44.052 3.952 42.764 4.008C41.476 4.04533 40.244 4.07333 39.068 4.092C39.0307 3.73733 38.9373 3.31733 38.788 2.832C38.6387 2.34667 38.4893 1.936 38.34 1.6C39.4973 1.56267 40.6827 1.516 41.896 1.46C43.128 1.38533 44.332 1.30133 45.508 1.208C46.684 1.11467 47.7947 1.00267 48.84 0.871999C49.904 0.741332 50.8467 0.601332 51.668 0.451999ZM41.868 14.564V15.964H50.156V14.564H41.868ZM41.868 11.176V12.576H50.156V11.176H41.868ZM38.956 8.852H53.208V18.288H38.956V8.852ZM32.18 2.832H35.428V26.492H32.18V2.832ZM28.148 8.096H38.424V11.204H28.148V8.096ZM32.348 9.356L34.308 10.196C34.0467 11.204 33.7293 12.2493 33.356 13.332C32.9827 14.4147 32.572 15.488 32.124 16.552C31.676 17.5973 31.2 18.5867 30.696 19.52C30.192 20.4533 29.6693 21.2653 29.128 21.956C28.96 21.4707 28.7173 20.9293 28.4 20.332C28.1013 19.716 27.8213 19.1933 27.56 18.764C28.0453 18.204 28.5213 17.5507 28.988 16.804C29.4733 16.0387 29.9307 15.2267 30.36 14.368C30.7893 13.5093 31.172 12.6507 31.508 11.792C31.844 10.9333 32.124 10.1213 32.348 9.356ZM36.52 0.507999L38.788 3.084C37.836 3.43867 36.7907 3.76533 35.652 4.064C34.5133 4.36267 33.3467 4.624 32.152 4.848C30.976 5.05333 29.8467 5.23067 28.764 5.38C28.6893 5.00667 28.5587 4.57733 28.372 4.092C28.1853 3.588 27.9987 3.15867 27.812 2.804C28.8387 2.636 29.884 2.44 30.948 2.216C32.0307 1.97333 33.048 1.70267 34 1.404C34.9707 1.10533 35.8107 0.806666 36.52 0.507999ZM35.372 11.988C35.54 12.1187 35.792 12.3613 36.128 12.716C36.4827 13.052 36.856 13.4253 37.248 13.836C37.6587 14.2467 38.0227 14.6293 38.34 14.984C38.6573 15.32 38.8907 15.5627 39.04 15.712L37.108 18.372C36.94 18.0173 36.716 17.616 36.436 17.168C36.1747 16.72 35.8853 16.2533 35.568 15.768C35.2693 15.2827 34.9707 14.8253 34.672 14.396C34.3733 13.948 34.112 13.584 33.888 13.304L35.372 11.988ZM59.004 4.764H67.6V23.608H59.004V20.668H64.576V7.676H59.004V4.764ZM57.044 4.764H60.096V25.68H57.044V4.764ZM58.892 12.24H66.032V15.152H58.892V12.24ZM61.048 0.199999L64.688 0.731999C64.3893 1.684 64.0627 2.62667 63.708 3.56C63.372 4.49333 63.064 5.28667 62.784 5.94L60.096 5.324C60.2267 4.83867 60.348 4.29733 60.46 3.7C60.5907 3.10267 60.712 2.496 60.824 1.88C60.936 1.264 61.0107 0.704 61.048 0.199999ZM71.296 4.54H79.5V7.62H71.296V4.54ZM78.324 4.54H81.432C81.432 4.54 81.432 4.64267 81.432 4.848C81.432 5.03467 81.432 5.24933 81.432 5.492C81.432 5.73467 81.4227 5.92133 81.404 6.052C81.3293 9.20667 81.236 11.8853 81.124 14.088C81.0307 16.272 80.9093 18.0827 80.76 19.52C80.6293 20.9387 80.4707 22.0493 80.284 22.852C80.0973 23.6547 79.8547 24.2427 79.556 24.616C79.1827 25.1573 78.7813 25.5307 78.352 25.736C77.9227 25.9413 77.428 26.0907 76.868 26.184C76.3267 26.2587 75.6547 26.2867 74.852 26.268C74.068 26.268 73.2653 26.2587 72.444 26.24C72.4253 25.7733 72.3133 25.2227 72.108 24.588C71.9027 23.972 71.6507 23.4307 71.352 22.964C72.248 23.0387 73.0787 23.0853 73.844 23.104C74.628 23.1227 75.1973 23.132 75.552 23.132C75.832 23.132 76.056 23.104 76.224 23.048C76.4107 22.9733 76.588 22.8427 76.756 22.656C76.9987 22.4133 77.1947 21.9187 77.344 21.172C77.512 20.4067 77.652 19.3333 77.764 17.952C77.876 16.5707 77.9787 14.8253 78.072 12.716C78.1653 10.6067 78.2493 8.096 78.324 5.184V4.54ZM71.38 0.227999L74.628 0.983999C74.2733 2.34667 73.8347 3.70933 73.312 5.072C72.808 6.43467 72.248 7.72267 71.632 8.936C71.0347 10.1307 70.4187 11.176 69.784 12.072C69.5973 11.8853 69.3267 11.6707 68.972 11.428C68.636 11.1667 68.2907 10.9147 67.936 10.672C67.6 10.4293 67.3013 10.2427 67.04 10.112C67.656 9.30933 68.2347 8.38533 68.776 7.34C69.336 6.276 69.8307 5.13733 70.26 3.924C70.708 2.692 71.0813 1.46 71.38 0.227999ZM70.008 12.632L72.64 11.148C73.1067 11.7827 73.6013 12.4827 74.124 13.248C74.6467 14.0133 75.1413 14.76 75.608 15.488C76.0747 16.216 76.4573 16.86 76.756 17.42L73.9 19.156C73.6387 18.5773 73.284 17.9147 72.836 17.168C72.4067 16.4213 71.94 15.656 71.436 14.872C70.9507 14.0693 70.4747 13.3227 70.008 12.632ZM84.036 6.976H110.048V10.196H84.036V6.976ZM89.804 21.48H109.068V24.728H89.804V21.48ZM96.748 14.62H103.916V17.756H96.748V14.62ZM88.068 1.068H91.512V26.52H88.068V1.068ZM95.32 0.451999H98.736V18.904H95.32V0.451999ZM102.46 0.731999H105.876V18.876H102.46V0.731999ZM118.392 8.404V10.42H131.636V8.404H118.392ZM118.392 3.868V5.884H131.636V3.868H118.392ZM115.06 1.152H135.136V13.136H115.06V1.152ZM128.864 11.344C129.48 12.184 130.264 12.968 131.216 13.696C132.187 14.424 133.269 15.068 134.464 15.628C135.677 16.1693 136.937 16.5987 138.244 16.916C138.001 17.14 137.74 17.42 137.46 17.756C137.18 18.092 136.909 18.4467 136.648 18.82C136.387 19.1747 136.172 19.5013 136.004 19.8C134.641 19.3333 133.335 18.7453 132.084 18.036C130.852 17.308 129.713 16.468 128.668 15.516C127.641 14.5453 126.764 13.5 126.036 12.38L128.864 11.344ZM121.22 11.344L124.16 12.492C123.413 13.556 122.508 14.564 121.444 15.516C120.399 16.468 119.251 17.3173 118 18.064C116.768 18.8107 115.48 19.4173 114.136 19.884C113.987 19.604 113.781 19.296 113.52 18.96C113.259 18.624 112.988 18.288 112.708 17.952C112.428 17.616 112.167 17.3453 111.924 17.14C113.175 16.7667 114.388 16.2907 115.564 15.712C116.759 15.1147 117.841 14.4427 118.812 13.696C119.801 12.9493 120.604 12.1653 121.22 11.344ZM119.232 16.468H122.676V18.4C122.676 19.072 122.601 19.7907 122.452 20.556C122.303 21.3027 122.013 22.0493 121.584 22.796C121.155 23.5427 120.511 24.252 119.652 24.924C118.812 25.596 117.683 26.184 116.264 26.688C116.133 26.408 115.928 26.1 115.648 25.764C115.387 25.428 115.107 25.092 114.808 24.756C114.509 24.4387 114.229 24.168 113.968 23.944C115.144 23.5707 116.077 23.1507 116.768 22.684C117.477 22.2173 118 21.732 118.336 21.228C118.691 20.724 118.924 20.22 119.036 19.716C119.167 19.1933 119.232 18.708 119.232 18.26V16.468ZM123.292 2.552H126.68V11.764H123.292V2.552ZM127.744 16.524H131.244V26.408H127.744V16.524Z" fill="#D8A5DF"/>
</svg>
