<svg width="540" height="75" viewBox="0 0 540 75" fill="none" xmlns="http://www.w3.org/2000/svg">
<path d="M4.9 8.1V15.18H3.46V9.5H0.92V8.1H4.9ZM4.9 14.58C5.84 16.06 7.6 16.74 9.98 16.82C12.2 16.92 16.82 16.86 19.24 16.7C19.06 17.04 18.82 17.74 18.76 18.18C16.5 18.28 12.22 18.32 9.98 18.22C7.34 18.12 5.52 17.42 4.28 15.84C3.4 16.7 2.48 17.56 1.48 18.44L0.7 16.98C1.58 16.34 2.66 15.44 3.6 14.58H4.9ZM1.1 1.54L2.24 0.72C3.48 1.62 4.88 3 5.5 3.98L4.26 4.92C3.7 3.92 2.32 2.52 1.1 1.54ZM6.24 3.92H19.02V5.1H6.24V3.92ZM7.84 8.96H14.56V10.12H7.84V8.96ZM14.42 10.76H17.4V11.9H14.42V10.76ZM11.86 1.8H13.28V8.48H11.86V1.8ZM11.46 4.46L12.54 4.9C11.2 6.84 8.72 8.68 6.52 9.58C6.3 9.24 5.9 8.76 5.6 8.5C7.78 7.76 10.22 6.14 11.46 4.46ZM13.68 4.52C14.86 6.1 17.2 7.62 19.36 8.28C19.06 8.56 18.66 9.06 18.46 9.4C16.28 8.56 13.94 6.76 12.66 4.9L13.68 4.52ZM16.98 10.76H18.4C18.4 10.76 18.36 11.12 18.34 11.32C18.12 13.68 17.86 14.7 17.42 15.1C17.1 15.42 16.72 15.52 16.2 15.54C15.7 15.58 14.74 15.58 13.76 15.52C13.72 15.16 13.58 14.68 13.38 14.34C14.34 14.44 15.28 14.46 15.62 14.46C15.96 14.46 16.14 14.44 16.28 14.3C16.6 14.02 16.8 13.14 16.98 10.96V10.76ZM17.16 0.54L18.16 1.56C15.34 2.18 10.86 2.52 7.18 2.64C7.14 2.34 6.98 1.86 6.84 1.56C10.46 1.42 14.82 1.08 17.16 0.54ZM10.32 9.28H11.72C11.4 12.4 10.48 14.64 7.04 15.82C6.9 15.48 6.52 14.96 6.24 14.7C9.32 13.74 10.06 11.86 10.32 9.28ZM14.18 8.96H15.54C15.32 10.18 15.02 11.6 14.78 12.58L13.48 12.4C13.74 11.44 14.02 10.08 14.18 8.96ZM24.9 8.1V15.18H23.46V9.5H20.92V8.1H24.9ZM24.9 14.58C25.84 16.06 27.6 16.74 29.98 16.82C32.2 16.92 36.82 16.86 39.24 16.7C39.06 17.04 38.82 17.74 38.76 18.18C36.5 18.28 32.22 18.32 29.98 18.22C27.34 18.12 25.52 17.42 24.28 15.84C23.4 16.7 22.48 17.56 21.48 18.44L20.7 16.98C21.58 16.34 22.66 15.44 23.6 14.58H24.9ZM21.1 1.54L22.24 0.72C23.48 1.62 24.88 3 25.5 3.98L24.26 4.92C23.7 3.92 22.32 2.52 21.1 1.54ZM26.84 7.1H37.66V8.3H28.18V15.78H26.84V7.1ZM31.68 3.72H35.88V4.78H32.82V7.6H31.68V3.72ZM28.4 0.899999H36.64V7.5H35.28V2.08H29.74V7.5H28.4V0.899999ZM30.54 9.58H35.06V13.82H30.54V12.78H33.9V10.66H30.54V9.58ZM36.82 7.1H38.2V14.3C38.2 14.98 38.08 15.36 37.56 15.56C37.08 15.78 36.3 15.78 35.12 15.78C35.06 15.42 34.88 14.9 34.7 14.56C35.54 14.58 36.3 14.58 36.52 14.58C36.74 14.56 36.82 14.5 36.82 14.3V7.1ZM29.86 9.58H31.02V14.62H29.86V9.58ZM46.28 10.38H58.98V11.74H46.28V10.38ZM53.66 2.24H55.06V6.16C55.06 6.6 55.12 6.68 55.64 6.68C55.86 6.68 57.04 6.68 57.34 6.68C57.76 6.68 57.84 6.48 57.88 5.12C58.18 5.34 58.74 5.52 59.12 5.62C58.98 7.44 58.6 7.9 57.5 7.9C57.2 7.9 55.74 7.9 55.46 7.9C54 7.9 53.66 7.54 53.66 6.18V2.24ZM46.56 1.1H58.84V4.44H57.46V2.38H47.9V4.78H46.56V1.1ZM51.74 8.12H53.2V18.6H51.74V8.12ZM50.34 2.26H51.76C51.56 5.82 50.76 7.64 47.02 8.64C46.9 8.3 46.52 7.78 46.26 7.52C49.58 6.72 50.18 5.28 50.34 2.26ZM53.8 11.02C54.92 13.16 57.16 15.38 59.3 16.4C58.94 16.68 58.46 17.22 58.22 17.62C56.1 16.38 53.9 13.88 52.7 11.42L53.8 11.02ZM51.28 10.9L52.46 11.3C51.14 14.02 48.72 16.5 46.26 17.76C46.04 17.42 45.62 16.9 45.3 16.62C47.68 15.56 50.06 13.28 51.28 10.9ZM41.7 1.52L42.58 0.439999C43.82 1 45.36 1.94 46.12 2.64L45.22 3.86C44.48 3.12 42.98 2.14 41.7 1.52ZM40.78 7.02L41.54 5.86C42.82 6.26 44.42 7 45.22 7.62L44.42 8.94C43.64 8.28 42.06 7.5 40.78 7.02ZM41.3 17.46C42.26 15.94 43.64 13.34 44.66 11.12L45.82 12C44.88 14.08 43.66 16.54 42.6 18.38L41.3 17.46ZM64.5 5.82H78.72V7.06H64.5V5.82ZM64.78 11.66H76.22V12.9H64.78V11.66ZM67.72 4.08H69.14V9.18H74.02V4.08H75.48V10.38H67.72V4.08ZM75.82 11.66H76.12L76.4 11.58L77.34 12.1C75.14 16.26 70.02 17.94 64.64 18.62C64.52 18.24 64.24 17.68 64 17.34C69.06 16.86 74 15.3 75.82 11.88V11.66ZM68.34 12.7C70.24 15.36 74.38 16.86 79.22 17.36C78.9 17.68 78.52 18.26 78.34 18.64C73.38 18 69.22 16.3 67.04 13.18L68.34 12.7ZM69.8 0.219999H71.34V2.94H69.8V0.219999ZM63.14 2.2H78.86V3.56H63.14V2.2ZM62.4 2.2H63.84V7.96C63.84 11.08 63.58 15.6 61.86 18.64C61.6 18.38 60.96 17.96 60.62 17.8C62.26 14.94 62.4 10.88 62.4 7.96V2.2ZM81.7 1.48H98.42V2.9H81.7V1.48ZM86.2 5.84H94.44V7.2H86.2V5.84ZM85.04 11.56H93.82V12.92H85.04V11.56ZM81.02 16.32H99V17.72H81.02V16.32ZM86.24 2.44H87.84C87.16 6.12 86.14 11.08 85.38 13.96L83.78 13.8C84.58 10.92 85.64 5.98 86.24 2.44ZM93.76 5.84H95.34C94.96 9.36 94.4 14.14 93.96 16.86H92.34C92.82 14.06 93.46 9.28 93.76 5.84ZM101.38 13.28H110.5V14.42H101.38V13.28ZM100.84 3.64H110.82V4.8H100.84V3.64ZM105.18 1.82H106.56V16.54H105.18V1.82ZM100.82 16.58C103.26 16.36 107 16 110.58 15.62L110.6 16.8C107.2 17.2 103.58 17.62 101.04 17.88L100.82 16.58ZM102.68 9.54V11.02H109.16V9.54H102.68ZM102.68 7.1V8.54H109.16V7.1H102.68ZM101.42 6.06H110.44V12.06H101.42V6.06ZM109.72 0.399999L110.48 1.56C108.12 2.08 104.4 2.42 101.4 2.52C101.34 2.2 101.2 1.7 101.04 1.4C104.02 1.24 107.66 0.879999 109.72 0.399999ZM110.68 4.88H117.9V6.28H110.68V4.88ZM117.32 4.88H118.76C118.76 4.88 118.74 5.44 118.74 5.64C118.52 14.08 118.32 16.88 117.66 17.74C117.3 18.26 116.9 18.44 116.3 18.5C115.74 18.56 114.78 18.56 113.86 18.5C113.82 18.08 113.66 17.46 113.42 17.06C114.4 17.14 115.28 17.16 115.68 17.16C116 17.16 116.2 17.1 116.38 16.84C116.88 16.22 117.1 13.34 117.32 5.24V4.88ZM113.1 0.46H114.54C114.52 8.42 114.5 15.14 109.72 18.72C109.48 18.36 108.96 17.88 108.6 17.64C113.18 14.36 113.08 8.02 113.1 0.46ZM123.14 19.14L122.68 18.1C124.32 17.42 125.22 16.4 125.22 14.9L124.84 13.2L125.92 14.72C125.64 15.08 125.24 15.18 124.86 15.18C124.04 15.18 123.36 14.7 123.36 13.74C123.36 12.8 124.08 12.3 124.88 12.3C126 12.3 126.6 13.22 126.6 14.62C126.6 16.78 125.24 18.42 123.14 19.14ZM147.16 10.52H158.98V11.9H147.16V10.52ZM153.86 3.24H155.22V6.78C155.22 7.2 155.3 7.28 155.8 7.28C156.02 7.28 157.14 7.28 157.44 7.28C157.88 7.28 157.96 7.08 158 5.52C158.28 5.74 158.84 5.94 159.22 6.04C159.08 8 158.7 8.5 157.6 8.5C157.3 8.5 155.9 8.5 155.62 8.5C154.18 8.5 153.86 8.12 153.86 6.8V3.24ZM147.48 1.3H158.82V4.84H157.46V2.62H148.8V4.92H147.48V1.3ZM152.24 8.36H153.72V18.6H152.24V8.36ZM150.66 3.28H152.06C151.86 6.38 151.08 8.06 147.8 8.96C147.66 8.64 147.3 8.14 147.02 7.9C149.92 7.16 150.5 5.86 150.66 3.28ZM154.28 11.14C155.36 13.32 157.48 15.44 159.54 16.48C159.22 16.76 158.76 17.28 158.5 17.66C156.4 16.42 154.28 14.04 153.1 11.6L154.28 11.14ZM151.76 11.02L152.94 11.44C151.74 14.14 149.5 16.54 147.04 17.76C146.82 17.4 146.4 16.88 146.06 16.6C148.42 15.58 150.66 13.4 151.76 11.02ZM140.54 10.58C142.1 10.14 144.44 9.42 146.72 8.68L146.92 10.06C144.84 10.78 142.64 11.5 140.94 12.04L140.54 10.58ZM140.82 4.24H146.9V5.64H140.82V4.24ZM143.34 0.219999H144.74V16.86C144.74 17.7 144.54 18.1 144.04 18.34C143.58 18.58 142.8 18.62 141.54 18.62C141.48 18.26 141.3 17.64 141.1 17.22C141.98 17.24 142.74 17.24 142.98 17.22C143.22 17.22 143.34 17.16 143.34 16.86V0.219999ZM169.2 13.1H170.7V18.64H169.2V13.1ZM169.2 0.199999H170.68V5.8H169.2V0.199999ZM168.46 6.16L169.86 6.84C168.7 7.92 167.28 9.08 166.12 9.88L165.02 9.26C166.14 8.44 167.64 7.12 168.46 6.16ZM172.78 7.46L174.14 8.2C171.88 10.04 168.8 12.16 166.36 13.52L165.3 12.8C167.74 11.42 170.9 9.16 172.78 7.46ZM163.48 9.2L164.48 8.34C165.98 9.08 167.88 10.22 168.86 11.06L167.82 12.02C166.9 11.18 165.02 9.98 163.48 9.2ZM172.56 10.78L173.56 9.98C175.32 11.02 177.54 12.56 178.66 13.62L177.6 14.54C176.54 13.48 174.34 11.84 172.56 10.78ZM172.62 15.06L173.76 14.28C175.48 15.12 177.68 16.46 178.82 17.44L177.58 18.34C176.54 17.36 174.38 15.96 172.62 15.06ZM161.3 12.48C164.96 12.48 171 12.4 176.7 12.28L176.62 13.48C171.08 13.64 165.18 13.82 161.38 13.86L161.3 12.48ZM165.78 14.26L167.2 14.78C165.86 16.16 163.8 17.54 162.06 18.4C161.8 18.12 161.24 17.6 160.88 17.34C162.66 16.6 164.58 15.44 165.78 14.26ZM161.52 1.98H178.42V3.3H161.52V1.98ZM161.46 5.22H178.6V8.98H177.12V6.52H162.88V8.98H161.46V5.22ZM188.54 11.66H196.5V12.82H188.54V11.66ZM186.68 1.78H198.56V2.92H186.68V1.78ZM187.16 4.2H198.06V5.3H187.16V4.2ZM186.06 6.7H199.14V7.84H186.06V6.7ZM188.54 14.34H196.56V15.46H188.54V14.34ZM187.52 9.02H196.5V10.18H188.92V18.58H187.52V9.02ZM196.14 9.02H197.58V16.92C197.58 17.68 197.42 18.08 196.86 18.3C196.3 18.52 195.4 18.54 193.98 18.52C193.92 18.16 193.72 17.6 193.54 17.22C194.54 17.26 195.5 17.26 195.78 17.24C196.06 17.24 196.14 17.16 196.14 16.9V9.02ZM191.8 0.199999H193.28V7.06H191.8V0.199999ZM183.02 0.199999H184.4V18.58H183.02V0.199999ZM181.44 4.06L182.56 4.22C182.5 5.78 182.16 8.1 181.7 9.6L180.54 9.22C181 7.84 181.32 5.64 181.44 4.06ZM184.58 3.54L185.58 3.14C186.02 4.06 186.5 5.24 186.68 5.98L185.64 6.48C185.44 5.72 184.98 4.48 184.58 3.54ZM213.58 0.959999L214.36 0.0799997C215.36 0.399999 216.6 0.959999 217.24 1.46L216.42 2.46C215.82 1.94 214.6 1.32 213.58 0.959999ZM203.24 2.24H218.82V3.48H203.24V2.24ZM204.66 4.84H210.8V5.9H204.66V4.84ZM204.98 7.26H206.24V10.9H204.98V7.26ZM215.6 4.44L217 4.78C215.88 8.1 213.86 10.8 211.42 12.54C211.2 12.26 210.64 11.76 210.34 11.5C212.76 9.94 214.64 7.44 215.6 4.44ZM210.88 0.199999H212.32C212.54 6.36 215.26 11.36 217.3 11.34C217.8 11.34 218 10.62 218.1 8.8C218.4 9.08 218.9 9.34 219.28 9.48C219.04 12.02 218.5 12.72 217.22 12.72C214.06 12.72 211.2 6.92 210.88 0.199999ZM204.98 7.26H210.48V11.46H204.98V10.38H209.2V8.32H204.98V7.26ZM205.98 13.3H207.46V16.4C207.46 16.9 207.66 17 208.72 17C209.22 17 211.72 17 212.38 17C213.26 17 213.4 16.76 213.48 14.9C213.8 15.14 214.42 15.34 214.84 15.44C214.64 17.8 214.2 18.36 212.5 18.36C212.04 18.36 209.06 18.36 208.62 18.36C206.5 18.36 205.98 17.96 205.98 16.42V13.3ZM207.54 12.64L208.5 11.8C209.76 12.38 211.24 13.34 211.94 14.12L210.92 15.08C210.24 14.3 208.78 13.28 207.54 12.64ZM214.44 13.9L215.66 13.22C217.1 14.34 218.6 16 219.22 17.24L217.88 17.98C217.32 16.76 215.88 15.06 214.44 13.9ZM203.44 13.42L204.76 13.88C204.26 15.5 203.44 17.18 202.02 18.2L200.78 17.36C202.12 16.44 203 14.92 203.44 13.42ZM202.54 2.24H203.94V5.26C203.94 7.58 203.58 10.86 201.74 13.12C201.54 12.84 200.94 12.34 200.64 12.18C202.32 10.1 202.54 7.28 202.54 5.24V2.24ZM222.62 3.42H228.7V16.5H222.62V15.14H227.3V4.76H222.62V3.42ZM221.72 3.42H223.12V18.1H221.72V3.42ZM222.52 8.98H228.04V10.32H222.52V8.98ZM224.78 0.159999L226.4 0.46C226 1.7 225.5 3.08 225.1 3.98L223.9 3.68C224.24 2.72 224.62 1.2 224.78 0.159999ZM231.54 3.36H237.68V4.76H231.54V3.36ZM237.16 3.36H238.56C238.56 3.36 238.56 3.92 238.56 4.14C238.24 13.32 237.96 16.42 237.16 17.4C236.72 17.98 236.26 18.16 235.56 18.22C234.88 18.3 233.7 18.26 232.58 18.2C232.54 17.76 232.36 17.14 232.08 16.74C233.38 16.84 234.58 16.86 235.04 16.86C235.44 16.86 235.68 16.8 235.9 16.54C236.56 15.82 236.88 12.5 237.16 3.68V3.36ZM231.96 0.119999L233.4 0.46C232.66 3.44 231.48 6.38 230.1 8.28C229.84 8.04 229.22 7.62 228.86 7.42C230.22 5.66 231.32 2.9 231.96 0.119999ZM231.04 8.56L232.2 7.88C233.34 9.3 234.72 11.24 235.36 12.42L234.08 13.22C233.48 12 232.14 10.02 231.04 8.56ZM245.02 4.62L246.02 3.74C247.52 4.44 249.36 5.56 250.26 6.4L249.2 7.38C248.34 6.54 246.52 5.36 245.02 4.62ZM254.26 1.9H254.56L254.82 1.82L255.8 2.42C253.2 7.08 247.28 9.88 242 11.04C241.86 10.66 241.56 10.04 241.28 9.72C246.32 8.78 252.08 6.08 254.26 2.14V1.9ZM247.58 1.9H254.64V3.16H247.58V1.9ZM249.06 0.18L250.74 0.54C248.9 2.66 246.18 4.64 242.46 6.12C242.24 5.76 241.78 5.26 241.44 5C245.04 3.74 247.68 1.86 249.06 0.18ZM247.58 11.96L248.68 11.1C250.26 11.92 252.18 13.18 253.14 14.14L251.96 15.1C251.06 14.16 249.16 12.82 247.58 11.96ZM257.18 8.9H257.48L257.76 8.82L258.74 9.36C256.22 15.2 249.98 17.7 243.44 18.66C243.34 18.24 243.04 17.62 242.8 17.28C248.98 16.54 255.02 14.16 257.18 9.12V8.9ZM250.68 8.9H257.58V10.18H250.68V8.9ZM252.3 7.02L253.96 7.4C251.94 9.76 248.78 11.94 244.4 13.48C244.22 13.14 243.78 12.6 243.46 12.32C247.7 11 250.74 8.92 252.3 7.02ZM267.1 9.1H272.58V10.34H267.1V9.1ZM267.1 12.58H272.64V13.82H267.1V12.58ZM262.98 16.16H277.1V17.56H262.98V16.16ZM262.06 5.48H277.92V18.62H276.4V6.88H263.52V18.62H262.06V5.48ZM266.4 6.36H267.76V16.8H266.4V6.36ZM272 6.36H273.38V16.74H272V6.36ZM269 2.2L270.74 2.6C270.32 3.94 269.9 5.48 269.5 6.48L268.14 6.1C268.46 5.02 268.86 3.36 269 2.2ZM261.16 1.54H278.88V2.98H261.16V1.54ZM283.42 0.199999H284.94V18.58H283.42V0.199999ZM281.58 4L282.72 4.18C282.62 5.8 282.26 8.12 281.72 9.56L280.54 9.16C281.08 7.82 281.44 5.62 281.58 4ZM285.08 3.88L286.12 3.42C286.74 4.5 287.36 5.92 287.58 6.78L286.46 7.34C286.24 6.46 285.64 5 285.08 3.88ZM289.16 1.14L290.62 1.38C290.1 4.3 289.22 7.14 288.1 9.02C287.8 8.8 287.12 8.48 286.74 8.32C287.92 6.56 288.72 3.84 289.16 1.14ZM289.18 4.44H298.48V5.88H288.72L289.18 4.44ZM292.42 0.279999H293.92V17.28H292.42V0.279999ZM288.16 10.04H298.04V11.46H288.16V10.04ZM286.66 16.46H298.96V17.9H286.66V16.46ZM303.14 19.14L302.68 18.1C304.32 17.42 305.22 16.4 305.22 14.9L304.84 13.2L305.92 14.72C305.64 15.08 305.24 15.18 304.86 15.18C304.04 15.18 303.36 14.7 303.36 13.74C303.36 12.8 304.08 12.3 304.88 12.3C306 12.3 306.6 13.22 306.6 14.62C306.6 16.78 305.24 18.42 303.14 19.14ZM327.26 2.5H338.94V5.88H337.56V3.76H328.6V5.88H327.26V2.5ZM332.18 0.199999H333.64V3.14H332.18V0.199999ZM333.9 4.52H335.3V7.7C335.3 8.1 335.38 8.16 335.84 8.16C336.04 8.16 337.1 8.16 337.38 8.16C337.8 8.16 337.86 8.02 337.92 6.72C338.2 6.94 338.78 7.14 339.16 7.24C339.02 8.96 338.64 9.42 337.56 9.42C337.28 9.42 335.94 9.42 335.66 9.42C334.22 9.42 333.9 9.04 333.9 7.72V4.52ZM330.48 4.56H331.88C331.7 7.42 331.02 8.9 327.96 9.68C327.84 9.36 327.5 8.86 327.24 8.62C329.84 8.02 330.36 6.9 330.48 4.56ZM327.92 10.38H335.54V11.68H327.92V10.38ZM335.48 10.38H335.68L335.98 10.34L337 10.88C336.94 10.98 336.86 11.08 336.74 11.16C329.9 15.06 329.38 15.9 329.38 16.46C329.38 16.88 329.86 17.04 330.64 17.04H336.96C337.72 17.04 337.96 16.84 338.02 14.84C338.4 15.08 338.9 15.24 339.3 15.32C339.12 18.02 338.54 18.42 336.88 18.42H330.72C328.78 18.42 327.92 17.78 327.92 16.62C327.92 15.72 328.18 14.66 335.48 10.38ZM320.54 10.58C322.1 10.14 324.44 9.42 326.72 8.68L326.92 10.06C324.84 10.78 322.64 11.5 320.94 12.04L320.54 10.58ZM320.82 4.24H326.9V5.64H320.82V4.24ZM323.34 0.219999H324.74V16.86C324.74 17.7 324.54 18.1 324.04 18.34C323.58 18.58 322.8 18.62 321.54 18.62C321.48 18.26 321.3 17.64 321.1 17.22C321.98 17.24 322.74 17.24 322.98 17.22C323.22 17.22 323.34 17.16 323.34 16.86V0.219999ZM348.28 1.08H358.56V6.08H348.24V4.82H357.14V2.34H348.28V1.08ZM347.46 1.08H348.86V7.18C348.86 10.54 348.58 15.4 346.6 18.64C346.34 18.38 345.74 17.96 345.42 17.82C347.3 14.72 347.46 10.36 347.46 7.18V1.08ZM353.36 6.46H354.64V17.2H353.36V6.46ZM349.52 13.08H350.78V18.6H349.52V13.08ZM357.4 13.08H358.66V18.52H357.4V13.08ZM349.86 7.48H351.08V10.72H357.06V7.46H358.34V11.94H349.86V7.48ZM350.32 16.54H357.9V17.78H350.32V16.54ZM340.54 10.58C342.1 10.14 344.44 9.42 346.72 8.68L346.92 10.06C344.84 10.78 342.64 11.5 340.94 12.04L340.54 10.58ZM340.82 4.24H346.9V5.64H340.82V4.24ZM343.34 0.219999H344.74V16.86C344.74 17.7 344.54 18.1 344.04 18.34C343.58 18.58 342.8 18.62 341.54 18.62C341.48 18.26 341.3 17.64 341.1 17.22C341.98 17.24 342.74 17.24 342.98 17.22C343.22 17.22 343.34 17.16 343.34 16.86V0.219999ZM368.72 1.06L370.02 1.38C369.42 2.9 368.5 4.52 367.6 5.56C367.36 5.34 366.82 4.96 366.5 4.78C367.42 3.8 368.24 2.44 368.72 1.06ZM367.18 10.4H376.6V11.36H367.18V10.4ZM376.44 10.32H379.18V11.42H376.44V10.32ZM368.72 4.38H376.96V5.38H368.72V4.38ZM367.42 6.46H378.4V7.48H367.42V6.46ZM372.08 4.8H373.46V6.94H372.08V4.8ZM369.7 14.24H371.04V16.7C371.04 17.1 371.16 17.16 371.88 17.16C372.2 17.16 373.92 17.16 374.36 17.16C374.92 17.16 375.02 17.02 375.08 15.76C375.34 15.96 375.88 16.16 376.24 16.22C376.1 17.92 375.72 18.34 374.5 18.34C374.18 18.34 372.06 18.34 371.74 18.34C370.1 18.34 369.7 18 369.7 16.7V14.24ZM376.96 0.219999L378.02 1.14C375.78 1.8 372.28 2.22 369.36 2.4C369.3 2.12 369.14 1.64 368.98 1.38C371.8 1.16 375.16 0.74 376.96 0.219999ZM368.3 8.42H377.36V13.38H368.3V12.4H376.02V9.38H368.3V8.42ZM375.56 14.64L376.62 14C377.66 15 378.8 16.36 379.3 17.32L378.16 18.06C377.7 17.1 376.58 15.66 375.56 14.64ZM371.58 2.5L372.68 2.08C373.1 2.66 373.5 3.46 373.68 3.98L372.5 4.46C372.36 3.92 371.96 3.1 371.58 2.5ZM375.58 2.26L376.6 1.64C377.5 2.54 378.58 3.82 379.06 4.64L378 5.36C377.52 4.52 376.48 3.2 375.58 2.26ZM371 13.78L371.84 13.02C372.78 13.48 373.88 14.28 374.46 14.82L373.56 15.68C373 15.1 371.88 14.26 371 13.78ZM367.76 14.28L368.92 14.68C368.54 15.94 367.94 17.34 366.86 18.16L365.84 17.4C366.78 16.7 367.44 15.42 367.76 14.28ZM361.6 1.08H365.98V2.44H362.92V18.62H361.6V1.08ZM365.54 1.08H365.78L365.98 1.02L366.92 1.56C366.44 3.2 365.76 5.28 365.18 6.92C366.46 8.58 366.76 10.02 366.76 11.24C366.76 12.3 366.54 13.14 366.02 13.54C365.76 13.72 365.44 13.82 365.06 13.88C364.72 13.92 364.28 13.94 363.86 13.92C363.84 13.56 363.72 13 363.52 12.64C363.92 12.66 364.26 12.68 364.52 12.66C364.76 12.66 364.96 12.6 365.1 12.48C365.36 12.26 365.46 11.7 365.46 11.08C365.44 10.02 365.18 8.64 363.9 7.06C364.54 5.22 365.18 2.84 365.54 1.48V1.08ZM381.2 1.62H398.82V2.9H381.2V1.62ZM385.22 5.06H399.04V6.36H385.22V5.06ZM382.34 8.58H385.08V9.82H382.34V8.58ZM380.82 11.48H385V12.74H380.82V11.48ZM387.38 15.26H392.98V16.3H387.38V15.26ZM385.94 0.219999H387.42V4.3H385.94V0.219999ZM392.48 0.219999H393.96V4.32H392.48V0.219999ZM389.64 8.16H390.72V10.58H389.64V8.16ZM381.7 5.16H382.88V10.44H381.7V5.16ZM389.64 13.26H390.72V15.7H389.64V13.26ZM387.5 10.04H392.8V13.78H387.5V12.8H391.7V11.04H387.5V10.04ZM386.84 7.6H392.8V8.64H387.98V17.5H386.84V7.6ZM384.54 5.06H385.82V10.6C385.82 13.04 385.62 16.4 384.38 18.66C384.14 18.44 383.56 18.12 383.24 18C384.42 15.86 384.54 12.86 384.54 10.58V5.06ZM393.16 3.74H394.52C394.6 12.9 396.12 17.3 397.54 17.3C397.96 17.28 398.16 16.76 398.26 14.78C398.56 15.06 399 15.34 399.34 15.46C399.12 18.14 398.62 18.64 397.44 18.64C394.86 18.64 393.4 13.3 393.16 3.74ZM395.42 3.78L396.3 3.08C397.02 3.5 397.88 4.14 398.28 4.62L397.34 5.38C396.96 4.88 396.14 4.22 395.42 3.78ZM396.68 7.6L398.02 7.82C396.98 12.66 395.04 16.3 391.98 18.64C391.74 18.4 391.18 17.94 390.86 17.72C393.94 15.6 395.78 12.08 396.68 7.6ZM381.92 11.92H383.06V13.66C383.06 15.1 382.84 17.18 381.6 18.62C381.38 18.42 380.94 18.12 380.68 17.98C381.76 16.68 381.92 14.88 381.92 13.62V11.92ZM401.24 3.3H418.76V4.76H401.24V3.3ZM407.44 9.64H417.98V11.04H407.44V9.64ZM406.66 16.72H418.76V18.14H406.66V16.72ZM411.96 5.78H413.46V17.48H411.96V5.78ZM407.82 0.199999L409.36 0.579999C407.96 5.16 405.52 9.82 401.54 12.68C401.38 12.28 401 11.64 400.76 11.3C404.36 8.76 406.7 4.32 407.82 0.199999ZM403.86 8.44H405.36V18.54H403.86V8.44ZM425.18 5.6H435.62V6.96H425.18V5.6ZM423.74 14.66H438.48V16H423.74V14.66ZM424.5 2.54H438.42V3.9H424.5V2.54ZM435.02 5.6H436.5C436.5 5.6 436.48 6.14 436.48 6.34C436.24 14.4 435.96 17.02 435.32 17.86C434.94 18.36 434.5 18.52 433.9 18.58C433.3 18.62 432.3 18.62 431.3 18.56C431.28 18.22 431.14 17.7 430.94 17.36C431.96 17.44 432.88 17.46 433.26 17.44C433.64 17.44 433.82 17.4 434 17.16C434.52 16.52 434.8 13.72 435.02 5.92V5.6ZM424.44 5.6H425.96C425.52 9.18 424.84 14 424.34 16.76L422.82 16.66C423.38 13.88 424.1 9.06 424.44 5.6ZM425.4 0.0999994L426.96 0.54C425.76 3.28 423.94 5.98 422.2 7.74C421.88 7.5 421.2 7.04 420.8 6.82C422.64 5.2 424.36 2.64 425.4 0.0999994ZM427.8 7.86L428.66 7C429.96 7.58 431.52 8.48 432.32 9.22L431.42 10.16C430.66 9.42 429.12 8.44 427.8 7.86ZM427.3 12.24L428.14 11.4C429.5 12.04 431.16 13.1 431.98 13.88L431.1 14.84C430.3 14.04 428.66 12.94 427.3 12.24ZM420.84 10.08H424.58V10.12H435.62V10.08H439.18V11.44H435.62V11.4H424.58V11.44H420.84V10.08ZM449.36 9.08H457.1V10.46H449.36V9.08ZM443.02 5.4H448.36V6.82H443.02V5.4ZM443.02 9.24H448.54V10.66H443.02V9.24ZM451.2 1.04H455.9V2.38H451.2V1.04ZM456.8 9.08H457.08L457.34 9.02L458.32 9.4C456.82 14.54 453.08 17.34 448.64 18.64C448.48 18.26 448.12 17.66 447.82 17.32C451.94 16.28 455.54 13.66 456.8 9.34V9.08ZM451.5 10.38C452.8 13.8 455.54 16.26 459.36 17.28C459 17.58 458.58 18.18 458.36 18.58C454.4 17.36 451.64 14.64 450.2 10.74L451.5 10.38ZM442.32 1.72L443.74 2.18V18.58H442.32V1.72ZM440.66 14.2C442.76 13.88 445.98 13.34 449.06 12.8L449.12 14.18C446.2 14.72 443.12 15.28 440.92 15.68L440.66 14.2ZM450.52 1.04H451.92V3.92C451.92 5.56 451.52 7.54 449.5 8.8C449.3 8.52 448.76 7.98 448.46 7.78C450.28 6.68 450.52 5.22 450.52 3.88V1.04ZM447.88 0.219999L449.16 1.28C447.52 2.1 445.16 2.78 443.12 3.24C443.04 2.92 442.82 2.42 442.62 2.12C444.52 1.64 446.68 0.899999 447.88 0.219999ZM455.06 1.04H456.48V5.98C456.48 6.36 456.5 6.58 456.6 6.66C456.66 6.72 456.76 6.74 456.92 6.74C457.04 6.74 457.32 6.74 457.48 6.74C457.66 6.74 457.84 6.72 457.92 6.66C458 6.62 458.08 6.46 458.12 6.22C458.18 5.94 458.2 5.3 458.22 4.48C458.48 4.74 458.98 4.96 459.36 5.08C459.32 5.88 459.26 6.76 459.16 7.1C459.04 7.42 458.84 7.64 458.56 7.76C458.34 7.9 457.94 7.96 457.62 7.96C457.34 7.96 456.82 7.96 456.6 7.96C456.2 7.96 455.74 7.86 455.46 7.6C455.18 7.36 455.06 7.02 455.06 5.9V1.04ZM472.88 8.34L474.48 8.78C472.28 14.36 467.88 17.14 461.74 18.68C461.58 18.3 461.1 17.62 460.78 17.26C466.84 16 471.04 13.4 472.88 8.34ZM466.36 4.9L467.88 5.48C466.46 7.4 464.22 9.28 462.28 10.5C462.02 10.18 461.44 9.58 461.06 9.3C463.02 8.26 465.14 6.6 466.36 4.9ZM467.16 8.44C469.02 13.18 473.08 16.16 479.28 17.18C478.94 17.52 478.5 18.2 478.28 18.62C471.9 17.4 467.88 14.2 465.74 8.88L467.16 8.44ZM461.22 2.82H478.78V4.28H461.22V2.82ZM469.18 0.18H470.72V3.76H469.18V0.18ZM472.34 5.74L473.58 4.82C475.46 6.08 477.82 7.94 478.96 9.26L477.66 10.3C476.58 8.98 474.26 7.04 472.34 5.74ZM486.28 2.82H499.02V4.18H486.28V2.82ZM491.6 0.219999H493.12V3.48H491.6V0.219999ZM491.6 9.8H492.94V17.74H491.6V9.8ZM488.08 9.68H489.46V11.78C489.46 14.02 489.14 16.62 486.44 18.58C486.22 18.28 485.72 17.82 485.38 17.58C487.82 15.88 488.08 13.62 488.08 11.74V9.68ZM490.7 3.56L492.26 4.04C491.5 5.48 490.56 7.18 489.8 8.26L488.6 7.82C489.34 6.68 490.22 4.84 490.7 3.56ZM494.2 5.52L495.36 4.86C496.8 6.08 498.4 7.82 499.12 9.04L497.88 9.78C497.2 8.58 495.62 6.76 494.2 5.52ZM486.54 7.46C489.14 7.4 493.26 7.24 497.18 7.1L497.14 8.36C493.38 8.58 489.44 8.78 486.7 8.9L486.54 7.46ZM481.8 1.46L482.64 0.379999C483.9 0.92 485.48 1.82 486.24 2.52L485.38 3.74C484.62 3.02 483.08 2.06 481.8 1.46ZM480.74 6.9L481.56 5.78C482.84 6.26 484.46 7.12 485.26 7.78L484.4 9.02C483.62 8.34 482.04 7.44 480.74 6.9ZM481.34 17.36C482.36 15.82 483.82 13.16 484.9 10.88L486.04 11.8C485.06 13.92 483.74 16.46 482.64 18.32L481.34 17.36ZM495.14 9.68H496.54V16.3C496.54 16.7 496.56 16.9 496.66 17C496.72 17.06 496.86 17.08 496.98 17.08C497.12 17.08 497.38 17.08 497.56 17.08C497.72 17.08 497.9 17.06 497.98 16.98C498.08 16.92 498.14 16.78 498.18 16.46C498.22 16.12 498.24 15.4 498.26 14.44C498.52 14.66 498.96 14.88 499.32 15C499.3 15.88 499.24 16.94 499.12 17.3C499.02 17.68 498.86 17.92 498.58 18.08C498.36 18.22 497.96 18.3 497.64 18.3C497.38 18.3 496.86 18.3 496.64 18.3C496.26 18.3 495.82 18.2 495.54 17.96C495.24 17.68 495.14 17.36 495.14 16.14V9.68ZM503.94 8.3H515.12V9.44H505.46V18.62H503.94V8.3ZM514.68 8.3H516.2V16.94C516.2 17.78 516 18.18 515.36 18.4C514.74 18.62 513.7 18.62 512.08 18.62C512.02 18.22 511.78 17.66 511.58 17.28C512.76 17.34 513.92 17.34 514.24 17.32C514.58 17.3 514.68 17.2 514.68 16.92V8.3ZM505.04 11.14H515.18V12.26H505.04V11.14ZM501.58 1.94H507.46V3.16H501.58V1.94ZM501.08 5.86C502.7 5.62 505.08 5.22 507.46 4.82L507.52 5.96C505.3 6.4 503.06 6.82 501.3 7.14L501.08 5.86ZM505.04 14.04H515.24V15.16H505.04V14.04ZM506.58 0.199999H508.08V7.62H506.58V0.199999ZM517.04 1.1L518.08 2.18C516.42 2.9 514.06 3.58 512.06 4.04C511.98 3.74 511.78 3.26 511.62 2.98C513.54 2.48 515.76 1.76 517.04 1.1ZM510.98 0.199999H512.5V5.5C512.5 6.06 512.66 6.14 513.56 6.14C513.94 6.14 516.1 6.14 516.66 6.14C517.34 6.14 517.48 5.92 517.54 4.44C517.88 4.68 518.48 4.88 518.88 4.98C518.72 6.92 518.28 7.46 516.8 7.46C516.36 7.46 513.78 7.46 513.4 7.46C511.46 7.46 510.98 7.04 510.98 5.48V0.199999ZM531.22 8.36L532.58 8.78C531.24 11.14 529.02 13.2 526.82 14.54C526.62 14.26 526.12 13.68 525.8 13.42C527.96 12.26 530.06 10.42 531.22 8.36ZM531.34 0.199999L532.66 0.879999C531.66 2.1 530.42 3.46 529.42 4.36L528.36 3.74C529.34 2.8 530.62 1.3 531.34 0.199999ZM535.2 1.74L536.56 2.48C534.56 4.64 531.78 7.24 529.58 8.88L528.56 8.22C530.74 6.54 533.56 3.8 535.2 1.74ZM526.7 3.44L527.62 2.48C529.14 3.46 531.02 4.88 531.9 5.9L530.94 6.98C530.08 5.98 528.26 4.46 526.7 3.44ZM534.96 5.82L536.12 5.18C537.4 6.48 538.82 8.32 539.46 9.52L538.18 10.26C537.6 9.06 536.22 7.18 534.96 5.82ZM526.04 7.8C528.9 7.76 533.46 7.68 537.8 7.56L537.74 8.8C533.54 8.94 529.14 9.08 526.16 9.16L526.04 7.8ZM529.92 11.46C531.64 14.38 535.22 16.54 539.46 17.36C539.14 17.68 538.74 18.24 538.54 18.64C534.22 17.64 530.64 15.28 528.7 11.88L529.92 11.46ZM530.38 10.6H536.34V11.8H529.34L530.38 10.6ZM535.86 10.6H536.14L536.4 10.54L537.36 11C535.5 15.28 531.06 17.62 526.5 18.66C526.36 18.28 526.02 17.68 525.74 17.38C530.02 16.56 534.28 14.36 535.86 10.84V10.6ZM525.34 4.28L526.7 4.78C525.32 7.18 523.22 9.6 521.26 11.2C521.12 10.88 520.68 10.18 520.4 9.86C522.26 8.5 524.16 6.4 525.34 4.28ZM524.88 0.219999L526.22 0.74C525.06 2.42 523.18 4.3 521.48 5.5C521.28 5.2 520.9 4.68 520.64 4.4C522.2 3.34 524 1.64 524.88 0.219999ZM523.54 8L524.76 6.78L524.96 6.88V18.68H523.54V8ZM2.62 31.42H8.7V44.5H2.62V43.14H7.3V32.76H2.62V31.42ZM1.72 31.42H3.12V46.1H1.72V31.42ZM2.52 36.98H8.04V38.32H2.52V36.98ZM4.78 28.16L6.4 28.46C6 29.7 5.5 31.08 5.1 31.98L3.9 31.68C4.24 30.72 4.62 29.2 4.78 28.16ZM11.54 31.36H17.68V32.76H11.54V31.36ZM17.16 31.36H18.56C18.56 31.36 18.56 31.92 18.56 32.14C18.24 41.32 17.96 44.42 17.16 45.4C16.72 45.98 16.26 46.16 15.56 46.22C14.88 46.3 13.7 46.26 12.58 46.2C12.54 45.76 12.36 45.14 12.08 44.74C13.38 44.84 14.58 44.86 15.04 44.86C15.44 44.86 15.68 44.8 15.9 44.54C16.56 43.82 16.88 40.5 17.16 31.68V31.36ZM11.96 28.12L13.4 28.46C12.66 31.44 11.48 34.38 10.1 36.28C9.84 36.04 9.22 35.62 8.86 35.42C10.22 33.66 11.32 30.9 11.96 28.12ZM11.04 36.56L12.2 35.88C13.34 37.3 14.72 39.24 15.36 40.42L14.08 41.22C13.48 40 12.14 38.02 11.04 36.56ZM31.2 31.92H39.2V33.34H31.2V31.92ZM20.84 32.1H29.62V33.52H20.84V32.1ZM31.82 28.2L33.32 28.44C32.58 32.18 31.32 35.62 29.6 37.86C29.34 37.62 28.7 37.12 28.32 36.9C30.04 34.86 31.18 31.6 31.82 28.2ZM36.3 32.7L37.78 32.88C36.66 39.98 34.26 44.14 28.74 46.62C28.58 46.28 28.14 45.6 27.88 45.3C33.14 43.18 35.34 39.26 36.3 32.7ZM31.9 33.18C32.92 38.82 35.1 43.44 39.34 45.34C38.98 45.64 38.52 46.22 38.3 46.62C33.88 44.42 31.7 39.62 30.54 33.42L31.9 33.18ZM24.5 28.2H26.02V37.9H24.5V28.2ZM21.68 37.18H23.1V45.74H21.68V37.18ZM22.52 37.18H28.82V44.34H22.52V42.94H27.4V38.6H22.52V37.18ZM49.16 28.2H50.68V44.92C50.68 45.86 50.42 46.22 49.8 46.44C49.16 46.64 48.12 46.66 46.44 46.66C46.36 46.3 46.12 45.74 45.92 45.4C47.12 45.44 48.32 45.42 48.68 45.42C49.04 45.4 49.16 45.28 49.16 44.92V28.2ZM41.34 29.8H58.7V31.04H41.34V29.8ZM44.86 33.28V34.72H55.18V33.28H44.86ZM43.44 32.24H56.7V35.78H43.44V32.24ZM42.86 37.18H57V44.46H55.5V38.3H42.86V37.18ZM40.96 39.68H59.08V40.88H40.96V39.68ZM42.66 42.4H56.28V43.56H42.66V42.4ZM63.14 47.14L62.68 46.1C64.32 45.42 65.22 44.4 65.22 42.9L64.84 41.2L65.92 42.72C65.64 43.08 65.24 43.18 64.86 43.18C64.04 43.18 63.36 42.7 63.36 41.74C63.36 40.8 64.08 40.3 64.88 40.3C66 40.3 66.6 41.22 66.6 42.62C66.6 44.78 65.24 46.42 63.14 47.14ZM80.66 38.8C82.46 38.36 85.16 37.6 87.7 36.86L87.88 38.24C85.54 38.94 83.02 39.7 81.1 40.24L80.66 38.8ZM80.9 32.24H87.68V33.66H80.9V32.24ZM83.78 28.22H85.24V44.7C85.24 45.54 85.02 45.96 84.52 46.18C83.98 46.42 83.16 46.46 81.78 46.46C81.72 46.08 81.5 45.46 81.32 45.06C82.26 45.1 83.12 45.08 83.38 45.08C83.66 45.08 83.78 44.98 83.78 44.7V28.22ZM87.92 33.86L98.66 32.74L98.82 34.14L88.08 35.3L87.92 33.86ZM93.5 29.44L94.64 28.68C95.64 29.52 96.84 30.74 97.4 31.56L96.2 32.42C95.68 31.58 94.48 30.32 93.5 29.44ZM90.62 28.28H92.14C92.48 37.26 94.1 44.46 97.08 44.76C97.62 44.8 97.94 43.7 98.14 41.5C98.44 41.8 99.1 42.18 99.42 42.32C98.96 45.58 98.16 46.58 97.14 46.52C92.68 46.18 91.1 38.48 90.62 28.28ZM96.56 35.7L97.8 36.46C96 40.38 92.4 44.16 88.5 45.92C88.22 45.52 87.74 45.04 87.32 44.74C91.3 43.16 94.9 39.48 96.56 35.7ZM101 29.52H111.26V30.88H101V29.52ZM101.6 39.04H110.68V40.4H101.6V39.04ZM105.42 36.66H106.9V44.5L105.42 44.72V36.66ZM100.78 44.5C103.38 44.22 107.44 43.68 111.3 43.16L111.34 44.56C107.62 45.08 103.68 45.64 101.02 46L100.78 44.5ZM100.96 34.96C103.24 34.88 106.76 34.72 110.2 34.54L110.16 35.86C106.88 36.06 103.46 36.24 101.08 36.38L100.96 34.96ZM107.34 32.52L108.46 31.9C109.68 33.3 111.08 35.18 111.66 36.38L110.46 37.1C109.88 35.88 108.54 33.94 107.34 32.52ZM104.46 30.24L106.08 30.56C105.38 32.32 104.52 34.52 103.78 35.9L102.46 35.58C103.16 34.16 104.02 31.82 104.46 30.24ZM112.14 30.62H113.58V41.7H112.14V30.62ZM116.86 28.78H118.34V44.58C118.34 45.62 118.1 46.08 117.44 46.32C116.78 46.58 115.56 46.62 113.94 46.62C113.86 46.2 113.64 45.5 113.42 45.04C114.76 45.1 116 45.08 116.4 45.08C116.76 45.06 116.86 44.96 116.86 44.6V28.78ZM124.96 34.74H135.06V36.08H124.96V34.74ZM124.6 44.46H135.32V45.8H124.6V44.46ZM123.92 38.6H136.16V46.62H134.64V39.96H125.38V46.62H123.92V38.6ZM129.94 29.74C128.3 32.18 125.02 35.02 121.6 36.88C121.4 36.54 121 36 120.66 35.68C124.18 33.9 127.52 30.84 129.1 28.26H130.62C132.78 31.24 136.28 34.02 139.48 35.44C139.1 35.8 138.74 36.32 138.48 36.76C135.34 35.12 131.82 32.3 129.94 29.74ZM149.74 31.56H159.22V33H149.04L149.74 31.56ZM152.24 35.9H158.76V37.28H152.24V35.9ZM152.22 40.3H159.04V41.72H152.22V40.3ZM151.48 32.02H153.02V46.6H151.48V32.02ZM150.5 28.44L151.96 28.82C150.82 32 149.08 35.14 147.24 37.2C147.02 36.94 146.42 36.4 146.08 36.16C147.9 34.3 149.52 31.38 150.5 28.44ZM145.7 28.28L147.14 28.74C145.82 32.12 143.76 35.54 141.58 37.78C141.44 37.42 140.98 36.62 140.7 36.26C142.7 34.32 144.56 31.32 145.7 28.28ZM143.56 33.44L145.04 31.94L145.08 31.96V46.58H143.56V33.44ZM173.08 29.46H176.78V30.8H173.08V29.46ZM168.46 30.44H172.68V31.72H168.46V30.44ZM173.28 33.16H176.74V34.42H173.28V33.16ZM173.24 36.9H176.64V38.16H173.24V36.9ZM163.38 33.16H166.78V34.42H163.38V33.16ZM163.46 36.88H166.8V38.16H163.46V36.88ZM162.58 29.6L164.36 30.14C164.32 30.26 164.22 30.34 163.98 30.38L164.34 41.22H162.98L162.58 29.6ZM175.96 29.46H177.36C177.34 33.22 177.22 38.3 177.02 41.18H175.6C175.82 38.24 175.98 33.14 175.96 29.46ZM166.26 28.4L167.44 29.48C166.22 30.12 164.72 30.76 163.44 31.24C163.36 30.98 163.12 30.5 162.96 30.2C164.12 29.66 165.46 28.94 166.26 28.4ZM167.8 35.9H169.04V41.1H167.8V35.9ZM167.82 28.38H169.12V33.8H171.72V35.02H167.82V28.38ZM170.98 33.8H172.28V41.08H170.98V33.8ZM160.88 40.58H179.14V41.98H160.88V40.58ZM171.86 43.26L172.92 42.26C175.14 43.3 177.56 44.64 179.02 45.64L177.62 46.66C176.28 45.68 174 44.32 171.86 43.26ZM166.62 42.3L168.02 43.2C166.44 44.44 164.08 45.8 162.18 46.64C161.92 46.34 161.4 45.86 161.04 45.58C162.98 44.78 165.38 43.4 166.62 42.3ZM189.5 34.22V36.8H196.94V34.22H189.5ZM189.5 30.44V32.98H196.94V30.44H189.5ZM188.14 29.14H198.38V38.1H188.14V29.14ZM187.88 40.44H198.66V41.82H187.88V40.44ZM186.34 44.58H199.32V45.94H186.34V44.58ZM180.9 29.56H187.14V30.98H180.9V29.56ZM181.12 35.34H186.86V36.76H181.12V35.34ZM180.7 43C182.32 42.56 184.72 41.78 187.04 41L187.3 42.44C185.12 43.18 182.84 43.94 181.06 44.54L180.7 43ZM183.4 30.12H184.84V42.52L183.4 42.8V30.12ZM192.56 29.76H193.88V37.46H193.98V45.2H192.46V37.46H192.56V29.76ZM202.76 33.28H208.54V34.46H202.76V33.28ZM202.76 36.68H208.54V37.82H202.76V36.68ZM202.76 40.16H208.54V41.34H202.76V40.16ZM211.28 37.68H218.9V38.98H211.28V37.68ZM203.8 30H207.12V31.18H203.8V30ZM210 29.22H217.82V30.5H210V29.22ZM209.76 41.42H219.24V42.76H209.76V41.42ZM213.98 35.62H215.42V46.52H213.98V35.62ZM205.24 33.86H206.32V40.66H205.24V33.86ZM217.34 29.22H218.7C218.7 29.22 218.7 29.6 218.68 29.78C218.54 33.12 218.34 34.42 217.92 34.88C217.64 35.22 217.34 35.34 216.82 35.38C216.42 35.42 215.58 35.42 214.74 35.38C214.72 34.98 214.58 34.46 214.4 34.12C215.2 34.2 215.92 34.2 216.2 34.2C216.48 34.22 216.66 34.18 216.78 34.02C217.04 33.72 217.2 32.56 217.34 29.42V29.22ZM211.36 35.8L212.66 36.06C212.26 37.92 211.56 39.74 210.72 40.94C210.46 40.76 209.86 40.46 209.54 40.3C210.4 39.18 211.02 37.5 211.36 35.8ZM203.76 28.2L205.14 28.5C204.4 31.2 203.18 33.78 201.76 35.48C201.52 35.24 200.94 34.78 200.62 34.58C202.04 33.04 203.16 30.66 203.76 28.2ZM202.18 33.28H203.42V38.6C203.42 41.04 203.18 44.42 201.76 46.64C201.54 46.44 200.98 46.1 200.68 45.96C202.04 43.84 202.18 40.86 202.18 38.6V33.28ZM208.14 33.28H209.4V44.96C209.4 45.7 209.24 46.12 208.72 46.34C208.22 46.56 207.4 46.58 206.02 46.58C205.96 46.24 205.74 45.66 205.56 45.3C206.58 45.34 207.48 45.34 207.76 45.32C208.02 45.3 208.14 45.22 208.14 44.96V33.28ZM212.84 29.64H214.22C213.88 32.4 213.02 34.68 210.22 35.94C210.04 35.62 209.68 35.14 209.38 34.92C211.84 33.88 212.56 31.9 212.84 29.64ZM206.76 30H207.06L207.26 29.92L208.14 30.5C207.72 31.74 206.96 33.22 206.36 34.16C206.12 33.96 205.68 33.7 205.4 33.58C205.9 32.68 206.46 31.24 206.76 30.24V30ZM222.62 31.42H228.7V44.5H222.62V43.14H227.3V32.76H222.62V31.42ZM221.72 31.42H223.12V46.1H221.72V31.42ZM222.52 36.98H228.04V38.32H222.52V36.98ZM224.78 28.16L226.4 28.46C226 29.7 225.5 31.08 225.1 31.98L223.9 31.68C224.24 30.72 224.62 29.2 224.78 28.16ZM231.54 31.36H237.68V32.76H231.54V31.36ZM237.16 31.36H238.56C238.56 31.36 238.56 31.92 238.56 32.14C238.24 41.32 237.96 44.42 237.16 45.4C236.72 45.98 236.26 46.16 235.56 46.22C234.88 46.3 233.7 46.26 232.58 46.2C232.54 45.76 232.36 45.14 232.08 44.74C233.38 44.84 234.58 44.86 235.04 44.86C235.44 44.86 235.68 44.8 235.9 44.54C236.56 43.82 236.88 40.5 237.16 31.68V31.36ZM231.96 28.12L233.4 28.46C232.66 31.44 231.48 34.38 230.1 36.28C229.84 36.04 229.22 35.62 228.86 35.42C230.22 33.66 231.32 30.9 231.96 28.12ZM231.04 36.56L232.2 35.88C233.34 37.3 234.72 39.24 235.36 40.42L234.08 41.22C233.48 40 232.14 38.02 231.04 36.56ZM241.64 32.58H257.16V34.1H241.64V32.58ZM256.58 32.58H258.14C258.14 32.58 258.12 33.14 258.1 33.38C257.64 41.66 257.22 44.64 256.34 45.64C255.86 46.22 255.38 46.38 254.62 46.44C253.92 46.52 252.64 46.48 251.4 46.4C251.38 45.96 251.18 45.3 250.9 44.86C252.26 44.98 253.54 45 254.04 45C254.48 45 254.72 44.94 254.98 44.7C255.74 43.96 256.18 40.84 256.58 32.9V32.58ZM248.18 28.24H249.76V31.72C249.76 36.28 249.2 42.46 242.2 46.68C241.98 46.32 241.42 45.76 241.06 45.5C247.7 41.54 248.18 35.86 248.18 31.72V28.24ZM264.98 31.7V32.82H274.94V31.7H264.98ZM264.98 29.76V30.84H274.94V29.76H264.98ZM263.54 28.86H276.44V33.72H263.54V28.86ZM264.6 39.56V40.7H275.54V39.56H264.6ZM264.6 37.54V38.66H275.54V37.54H264.6ZM263.18 36.6H277.02V41.62H263.18V36.6ZM269.22 36.94H270.7V45.56H269.22V36.94ZM261.04 34.56H278.98V35.72H261.04V34.56ZM262.62 42.72H277.46V43.78H262.62V42.72ZM260.92 44.94H279.08V46.12H260.92V44.94ZM283.14 47.14L282.68 46.1C284.32 45.42 285.22 44.4 285.22 42.9L284.84 41.2L285.92 42.72C285.64 43.08 285.24 43.18 284.86 43.18C284.04 43.18 283.36 42.7 283.36 41.74C283.36 40.8 284.08 40.3 284.88 40.3C286 40.3 286.6 41.22 286.6 42.62C286.6 44.78 285.24 46.42 283.14 47.14ZM313.58 28.96L314.36 28.08C315.36 28.4 316.6 28.96 317.24 29.46L316.42 30.46C315.82 29.94 314.6 29.32 313.58 28.96ZM303.24 30.24H318.82V31.48H303.24V30.24ZM304.66 32.84H310.8V33.9H304.66V32.84ZM304.98 35.26H306.24V38.9H304.98V35.26ZM315.6 32.44L317 32.78C315.88 36.1 313.86 38.8 311.42 40.54C311.2 40.26 310.64 39.76 310.34 39.5C312.76 37.94 314.64 35.44 315.6 32.44ZM310.88 28.2H312.32C312.54 34.36 315.26 39.36 317.3 39.34C317.8 39.34 318 38.62 318.1 36.8C318.4 37.08 318.9 37.34 319.28 37.48C319.04 40.02 318.5 40.72 317.22 40.72C314.06 40.72 311.2 34.92 310.88 28.2ZM304.98 35.26H310.48V39.46H304.98V38.38H309.2V36.32H304.98V35.26ZM305.98 41.3H307.46V44.4C307.46 44.9 307.66 45 308.72 45C309.22 45 311.72 45 312.38 45C313.26 45 313.4 44.76 313.48 42.9C313.8 43.14 314.42 43.34 314.84 43.44C314.64 45.8 314.2 46.36 312.5 46.36C312.04 46.36 309.06 46.36 308.62 46.36C306.5 46.36 305.98 45.96 305.98 44.42V41.3ZM307.54 40.64L308.5 39.8C309.76 40.38 311.24 41.34 311.94 42.12L310.92 43.08C310.24 42.3 308.78 41.28 307.54 40.64ZM314.44 41.9L315.66 41.22C317.1 42.34 318.6 44 319.22 45.24L317.88 45.98C317.32 44.76 315.88 43.06 314.44 41.9ZM303.44 41.42L304.76 41.88C304.26 43.5 303.44 45.18 302.02 46.2L300.78 45.36C302.12 44.44 303 42.92 303.44 41.42ZM302.54 30.24H303.94V33.26C303.94 35.58 303.58 38.86 301.74 41.12C301.54 40.84 300.94 40.34 300.64 40.18C302.32 38.1 302.54 35.28 302.54 33.24V30.24ZM321.44 33.98H338.56V38.06H337.1V35.32H322.84V38.06H321.44V33.98ZM323.86 37.58H335.04V38.98H323.86V37.58ZM336.38 28.14L337.44 29.34C333.42 30.18 327.18 30.7 321.98 30.9C321.94 30.52 321.76 29.96 321.62 29.62C326.8 29.38 332.96 28.86 336.38 28.14ZM323.3 31.32L324.6 30.94C325.18 31.76 325.78 32.88 326.02 33.6L324.66 34.04C324.42 33.32 323.84 32.18 323.3 31.32ZM328.62 30.9L329.98 30.6C330.44 31.52 330.92 32.74 331.04 33.52L329.62 33.86C329.5 33.08 329.08 31.84 328.62 30.9ZM335.46 30.56L336.98 31C336.26 32.28 335.32 33.76 334.6 34.7L333.4 34.28C334.1 33.28 334.98 31.68 335.46 30.56ZM334.5 37.58H334.84L335.12 37.52L336.12 38.14C333.66 43.22 328 45.54 321.9 46.56C321.74 46.18 321.32 45.52 321.02 45.2C327.02 44.38 332.42 42.26 334.5 37.84V37.58ZM325.82 38.5C328.1 42.18 332.92 44.42 338.94 45.14C338.64 45.48 338.22 46.12 338.04 46.54C331.94 45.66 327.12 43.22 324.5 39.06L325.82 38.5ZM348.96 28.82H350.62C350.46 31.96 350.16 41.94 341.88 46.44C341.62 46.06 341.12 45.6 340.66 45.26C348.82 41.1 348.82 31.48 348.96 28.82ZM350.56 29.22C350.62 30.78 351.2 41.4 359.44 45.18C359 45.52 358.54 46.02 358.3 46.44C349.82 42.38 349.26 31.2 349.12 29.36L350.56 29.22ZM369.24 36.44H375.98V37.68H369.24V36.44ZM367.42 39.4H377.96V40.66H367.42V39.4ZM368.4 29.86H371.76V30.94H368.4V29.86ZM367.84 32.08L368.42 31.38C369.26 31.8 370.28 32.46 370.76 32.96L370.2 33.76C369.68 33.26 368.68 32.54 367.84 32.08ZM366.68 33.62L367.3 32.96C368.14 33.5 369.16 34.3 369.64 34.84L369 35.56C368.5 35 367.52 34.16 366.68 33.62ZM375.06 42.16L376.2 41.56C377.24 42.64 378.38 44.16 378.86 45.16L377.66 45.86C377.18 44.84 376.08 43.28 375.06 42.16ZM371.32 29.86H371.56L371.8 29.82L372.66 30.14C371.74 34.18 369.52 37.06 366.96 38.6C366.78 38.3 366.42 37.82 366.12 37.58C368.46 36.3 370.58 33.52 371.32 30.12V29.86ZM374.6 29.8H378.08V30.94H374.6V29.8ZM368.78 28.24L370 28.52C369.24 30.88 367.9 33.02 366.38 34.42C366.16 34.22 365.66 33.82 365.38 33.64C366.9 32.36 368.12 30.38 368.78 28.24ZM377.58 29.8H377.86L378.1 29.72L378.98 30.2C378.34 32.04 377.28 34 376.2 35.24C376.02 34.96 375.62 34.58 375.34 34.38C376.28 33.28 377.16 31.44 377.58 30.06V29.8ZM371.94 39.98H373.36V45.04C373.36 45.78 373.2 46.14 372.68 46.36C372.14 46.58 371.3 46.58 369.98 46.58C369.92 46.2 369.7 45.66 369.52 45.3C370.48 45.32 371.34 45.32 371.6 45.32C371.86 45.3 371.94 45.24 371.94 45.02V39.98ZM368.48 41.62L369.82 41.98C369.18 43.42 368.12 44.9 367.14 45.86C366.88 45.64 366.32 45.28 366 45.1C367 44.2 367.94 42.92 368.48 41.62ZM373.54 28.6C374.42 32.6 376.32 35.9 379.4 37.34C379.1 37.6 378.68 38.1 378.48 38.48C375.24 36.76 373.32 33.28 372.34 28.86L373.54 28.6ZM361.56 29.08H365.56V30.44H362.9V46.62H361.56V29.08ZM365.16 29.08H365.38L365.58 29.02L366.5 29.56C366.04 31.24 365.44 33.36 364.9 35C366.04 36.72 366.3 38.22 366.32 39.48C366.32 40.58 366.1 41.44 365.64 41.82C365.4 42.02 365.1 42.12 364.74 42.16C364.44 42.2 364.04 42.22 363.68 42.2C363.66 41.84 363.58 41.3 363.36 40.94C363.7 40.96 364 40.96 364.24 40.96C364.42 40.96 364.6 40.9 364.74 40.78C364.98 40.56 365.06 39.96 365.06 39.34C365.06 38.2 364.82 36.8 363.68 35.14C364.26 33.3 364.82 30.84 365.16 29.48V29.08ZM384.9 36.1V43.18H383.46V37.5H380.92V36.1H384.9ZM384.9 42.58C385.84 44.06 387.6 44.74 389.98 44.82C392.2 44.92 396.82 44.86 399.24 44.7C399.06 45.04 398.82 45.74 398.76 46.18C396.5 46.28 392.22 46.32 389.98 46.22C387.34 46.12 385.52 45.42 384.28 43.84C383.4 44.7 382.48 45.56 381.48 46.44L380.7 44.98C381.58 44.34 382.66 43.44 383.6 42.58H384.9ZM381.1 29.54L382.24 28.72C383.48 29.62 384.88 31 385.5 31.98L384.26 32.92C383.7 31.92 382.32 30.52 381.1 29.54ZM386.04 30H398.62V31.26H386.04V30ZM385.74 40.56H398.92V41.82H385.74V40.56ZM391.46 28.22H392.94V44.1H391.46V28.22ZM388.38 36.4V38H396.12V36.4H388.38ZM388.38 33.76V35.34H396.12V33.76H388.38ZM387 32.64H397.58V39.14H387V32.64ZM412.92 28.2H414.42V36.06H412.92V28.2ZM410.32 44.22H417.46V45.6H410.32V44.22ZM408.28 31.04H419.2V32.42H408.28V31.04ZM408.92 35.42H418.76V36.8H408.92V35.42ZM409.56 38.98H418.2V46.54H416.74V40.34H410.96V46.58H409.56V38.98ZM403.9 28.22L405.24 28.72C404.48 30.2 403.52 31.98 402.74 33.06L401.7 32.62C402.46 31.46 403.38 29.54 403.9 28.22ZM406.32 30.5L407.62 31.06C406.22 33.3 404.26 36.18 402.74 37.9L401.78 37.4C403.32 35.62 405.22 32.62 406.32 30.5ZM400.74 32.42L401.5 31.42C402.62 32.36 403.88 33.68 404.42 34.56L403.62 35.7C403.08 34.76 401.82 33.38 400.74 32.42ZM405.68 35.14L406.8 34.66C407.64 35.94 408.5 37.66 408.8 38.76L407.6 39.32C407.3 38.2 406.5 36.46 405.68 35.14ZM400.7 37.16C402.5 37.1 405.1 37 407.7 36.88L407.68 38.1C405.2 38.26 402.68 38.42 400.82 38.5L400.7 37.16ZM406.18 39.92L407.32 39.56C407.9 40.78 408.46 42.36 408.68 43.4L407.46 43.82C407.28 42.78 406.74 41.16 406.18 39.92ZM401.8 39.64L403.1 39.88C402.82 41.76 402.32 43.7 401.68 44.98C401.42 44.82 400.82 44.54 400.5 44.4C401.16 43.18 401.56 41.4 401.8 39.64ZM404.1 37.74H405.46V46.66H404.1V37.74ZM421.56 36.08H438.58V39.94H437.1V37.34H422.96V39.94H421.56V36.08ZM427.36 28.54H428.7V33.88H431.28V28.54H432.68V35.04H427.36V28.54ZM421.16 30.62H438.86V31.84H421.16V30.62ZM434.42 28.48H435.78V33.62C435.78 34.06 435.84 34.12 436.2 34.12C436.38 34.12 437.14 34.12 437.34 34.12C437.7 34.12 437.78 33.9 437.82 32.4C438.1 32.6 438.62 32.8 439 32.88C438.88 34.78 438.52 35.3 437.52 35.3C437.26 35.3 436.26 35.3 436 35.3C434.72 35.3 434.42 34.94 434.42 33.62V28.48ZM424.34 28.48H425.72V31.08C425.72 32.7 425.18 34.64 422.14 35.82C421.96 35.52 421.58 35.08 421.3 34.84C424.02 33.94 424.34 32.32 424.34 31.08V28.48ZM429.18 37.12H430.66V46.58H429.18V37.12ZM423.54 39.38H435.74V40.62H425V45.44H423.54V39.38ZM435.18 39.38H436.64V43.86C436.64 44.58 436.5 45 435.9 45.22C435.28 45.44 434.32 45.44 432.8 45.44C432.74 45.04 432.52 44.5 432.32 44.12C433.46 44.16 434.52 44.16 434.8 44.14C435.1 44.14 435.18 44.06 435.18 43.84V39.38ZM441.44 31H458.7V32.46H441.44V31ZM449.16 28.22H450.72V46.6H449.16V28.22ZM449.34 37.1L450.6 37.6C448.64 41.02 445.18 44.12 441.8 45.7C441.56 45.32 441.08 44.72 440.74 44.42C444.08 43.06 447.54 40.14 449.34 37.1ZM450.64 37.14C452.4 40.2 455.82 43.08 459.28 44.4C458.9 44.72 458.42 45.32 458.16 45.74C454.72 44.2 451.32 41.08 449.38 37.66L450.64 37.14ZM444.1 36.06L445.1 35.14C446.04 35.94 447.28 37.08 447.9 37.8L446.88 38.82C446.26 38.1 445.06 36.9 444.1 36.06ZM444.94 32.94L446.4 33.2C445.7 36.12 444.3 38.5 442.44 40.04C442.2 39.78 441.62 39.3 441.26 39.06C443.08 37.7 444.34 35.52 444.94 32.94ZM453.72 36.1L454.72 35.22C456.06 36.24 457.9 37.74 458.8 38.66L457.74 39.7C456.88 38.74 455.08 37.2 453.72 36.1ZM454.42 32.94L455.86 33.18C455.34 35.7 454.26 37.8 452.84 39.2C452.56 38.96 451.92 38.54 451.56 38.36C453.02 37.14 453.98 35.18 454.42 32.94ZM462.62 31.42H468.7V44.5H462.62V43.14H467.3V32.76H462.62V31.42ZM461.72 31.42H463.12V46.1H461.72V31.42ZM462.52 36.98H468.04V38.32H462.52V36.98ZM464.78 28.16L466.4 28.46C466 29.7 465.5 31.08 465.1 31.98L463.9 31.68C464.24 30.72 464.62 29.2 464.78 28.16ZM471.54 31.36H477.68V32.76H471.54V31.36ZM477.16 31.36H478.56C478.56 31.36 478.56 31.92 478.56 32.14C478.24 41.32 477.96 44.42 477.16 45.4C476.72 45.98 476.26 46.16 475.56 46.22C474.88 46.3 473.7 46.26 472.58 46.2C472.54 45.76 472.36 45.14 472.08 44.74C473.38 44.84 474.58 44.86 475.04 44.86C475.44 44.86 475.68 44.8 475.9 44.54C476.56 43.82 476.88 40.5 477.16 31.68V31.36ZM471.96 28.12L473.4 28.46C472.66 31.44 471.48 34.38 470.1 36.28C469.84 36.04 469.22 35.62 468.86 35.42C470.22 33.66 471.32 30.9 471.96 28.12ZM471.04 36.56L472.2 35.88C473.34 37.3 474.72 39.24 475.36 40.42L474.08 41.22C473.48 40 472.14 38.02 471.04 36.56ZM486.8 38.5H497.86V45.38H496.44V39.8H494.46V45.38H493.26V39.8H491.3V45.38H490.12V39.8H488.18V45.38H486.8V38.5ZM485 44.7H499.24V46.02H485V44.7ZM481.78 29.48L482.62 28.38C483.84 28.92 485.32 29.82 486.04 30.52L485.16 31.74C484.46 31.02 482.98 30.06 481.78 29.48ZM480.74 34.88L481.58 33.74C482.8 34.24 484.3 35.08 485.06 35.74L484.18 36.98C483.46 36.3 481.98 35.42 480.74 34.88ZM481.22 45.42C482.16 43.88 483.48 41.26 484.46 38.98L485.64 39.88C484.76 42 483.56 44.48 482.54 46.34L481.22 45.42ZM488.9 30.32V35.82H495.7V30.32H488.9ZM487.54 29.14H497.14V37H487.54V29.14ZM491.98 30.68L493.08 30.8C492.74 32.62 491.68 34.44 489.98 35.38C489.84 35.18 489.52 34.82 489.3 34.64C490.82 33.78 491.72 32.2 491.98 30.68ZM491.54 32.74L492.3 32.16C493.28 32.92 494.52 34 495.14 34.68L494.36 35.38C493.76 34.68 492.52 33.54 491.54 32.74ZM504.5 33.82H518.72V35.06H504.5V33.82ZM504.78 39.66H516.22V40.9H504.78V39.66ZM507.72 32.08H509.14V37.18H514.02V32.08H515.48V38.38H507.72V32.08ZM515.82 39.66H516.12L516.4 39.58L517.34 40.1C515.14 44.26 510.02 45.94 504.64 46.62C504.52 46.24 504.24 45.68 504 45.34C509.06 44.86 514 43.3 515.82 39.88V39.66ZM508.34 40.7C510.24 43.36 514.38 44.86 519.22 45.36C518.9 45.68 518.52 46.26 518.34 46.64C513.38 46 509.22 44.3 507.04 41.18L508.34 40.7ZM509.8 28.22H511.34V30.94H509.8V28.22ZM503.14 30.2H518.86V31.56H503.14V30.2ZM502.4 30.2H503.84V35.96C503.84 39.08 503.58 43.6 501.86 46.64C501.6 46.38 500.96 45.96 500.62 45.8C502.26 42.94 502.4 38.88 502.4 35.96V30.2ZM533.08 29.46H536.78V30.8H533.08V29.46ZM528.46 30.44H532.68V31.72H528.46V30.44ZM533.28 33.16H536.74V34.42H533.28V33.16ZM533.24 36.9H536.64V38.16H533.24V36.9ZM523.38 33.16H526.78V34.42H523.38V33.16ZM523.46 36.88H526.8V38.16H523.46V36.88ZM522.58 29.6L524.36 30.14C524.32 30.26 524.22 30.34 523.98 30.38L524.34 41.22H522.98L522.58 29.6ZM535.96 29.46H537.36C537.34 33.22 537.22 38.3 537.02 41.18H535.6C535.82 38.24 535.98 33.14 535.96 29.46ZM526.26 28.4L527.44 29.48C526.22 30.12 524.72 30.76 523.44 31.24C523.36 30.98 523.12 30.5 522.96 30.2C524.12 29.66 525.46 28.94 526.26 28.4ZM527.8 35.9H529.04V41.1H527.8V35.9ZM527.82 28.38H529.12V33.8H531.72V35.02H527.82V28.38ZM530.98 33.8H532.28V41.08H530.98V33.8ZM520.88 40.58H539.14V41.98H520.88V40.58ZM531.86 43.26L532.92 42.26C535.14 43.3 537.56 44.64 539.02 45.64L537.62 46.66C536.28 45.68 534 44.32 531.86 43.26ZM526.62 42.3L528.02 43.2C526.44 44.44 524.08 45.8 522.18 46.64C521.92 46.34 521.4 45.86 521.04 45.58C522.98 44.78 525.38 43.4 526.62 42.3ZM5.6 56.38H7.14V67.58H5.6V56.38ZM12.84 56.38H14.4V67.58H12.84V56.38ZM0.96 66.64H19.12V68.1H0.96V66.64ZM1.76 60.44H18.4V61.88H1.76V60.44ZM11.74 70L13.04 69.24C14.9 70.56 17.4 72.48 18.68 73.68L17.26 74.6C16.06 73.4 13.64 71.42 11.74 70ZM6.56 69.26L8.12 69.86C6.7 71.62 4.42 73.46 2.4 74.62C2.1 74.3 1.58 73.84 1.22 73.56C3.2 72.5 5.44 70.76 6.56 69.26ZM28.36 57.98H29.74V68H28.36V57.98ZM29.26 65.1H39.22V66.28H29.26V65.1ZM29.26 60.44H36.7V61.46H29.26V60.44ZM28.36 67.52H37.76V68.74H28.36V67.52ZM37.36 67.52H38.74C38.74 67.52 38.74 67.92 38.72 68.12C38.5 72.02 38.28 73.52 37.8 74.06C37.5 74.42 37.14 74.52 36.6 74.56C36.16 74.62 35.24 74.6 34.3 74.56C34.26 74.18 34.14 73.66 33.94 73.32C34.84 73.42 35.66 73.42 35.98 73.42C36.28 73.42 36.48 73.38 36.62 73.22C36.96 72.86 37.16 71.48 37.36 67.74V67.52ZM27.46 69.7L28.66 70.04C28.34 71.66 27.82 73.24 26.68 74.18L25.56 73.48C26.6 72.64 27.2 71.18 27.46 69.7ZM29.5 70.14L30.64 69.9C31 70.96 31.22 72.36 31.24 73.24L30.02 73.5C30.04 72.6 29.84 71.2 29.5 70.14ZM31.78 69.94L32.78 69.64C33.3 70.5 33.78 71.64 33.96 72.4L32.86 72.76C32.7 72 32.24 70.82 31.78 69.94ZM34.02 69.66L34.98 69.26C35.58 69.94 36.22 70.86 36.5 71.48L35.48 71.96C35.2 71.32 34.6 70.36 34.02 69.66ZM29.32 57.98H37.5V63.94H29.32V62.82H36.06V59.1H29.32V57.98ZM32.1 56.2L33.82 56.46C33.4 57.32 32.94 58.16 32.58 58.76L31.28 58.48C31.6 57.8 31.96 56.84 32.1 56.2ZM22.26 58.22H26.86V69H22.26V67.6H25.5V59.62H22.26V58.22ZM21.46 58.22H22.82V70.88H21.46V58.22Z" fill="white"/>
</svg>
