<svg width="109" height="34" viewBox="0 0 109 34" fill="none" xmlns="http://www.w3.org/2000/svg">
<path d="M1.148 28L1.176 27.048L5.656 26.6H6.132L6.104 28H1.148ZM3.64 28C3.67733 26.3947 3.696 24.808 3.696 23.24C3.71467 21.6533 3.724 20.216 3.724 18.928V16.94C3.724 15.2787 3.71467 13.6267 3.696 11.984C3.696 10.3413 3.67733 8.708 3.64 7.084H8.568C8.53067 8.68933 8.50267 10.304 8.484 11.928C8.484 13.5333 8.484 15.0547 8.484 16.492V18.312C8.484 19.8613 8.484 21.4573 8.484 23.1C8.50267 24.724 8.53067 26.3573 8.568 28H3.64ZM6.104 28L6.132 26.908H16.464L14.084 27.944L15.736 21.728H17.276L17.332 28H6.104ZM1.148 8.036V7.084H11.284V8.036L6.72 8.456H5.656L1.148 8.036ZM31.9088 28.56C30.6022 28.56 29.3515 28.3267 28.1568 27.86C26.9622 27.3933 25.8982 26.7027 24.9648 25.788C24.0315 24.8547 23.2942 23.7067 22.7528 22.344C22.2302 20.9627 21.9688 19.3573 21.9688 17.528C21.9688 15.7173 22.2302 14.1307 22.7528 12.768C23.2942 11.3867 24.0315 10.2387 24.9648 9.324C25.8982 8.39067 26.9622 7.69067 28.1568 7.224C29.3515 6.75733 30.6022 6.524 31.9088 6.524C33.2342 6.524 34.4848 6.75733 35.6608 7.224C36.8555 7.69067 37.9102 8.39067 38.8248 9.324C39.7582 10.2387 40.4862 11.3867 41.0088 12.768C41.5502 14.1307 41.8208 15.7173 41.8208 17.528C41.8208 19.3387 41.5502 20.9347 41.0088 22.316C40.4862 23.6973 39.7582 24.8547 38.8248 25.788C37.9102 26.7027 36.8555 27.3933 35.6608 27.86C34.4848 28.3267 33.2342 28.56 31.9088 28.56ZM31.9088 27.496C32.7675 27.496 33.5048 27.2533 34.1208 26.768C34.7368 26.264 35.2408 25.564 35.6328 24.668C36.0435 23.772 36.3422 22.7173 36.5288 21.504C36.7342 20.2907 36.8368 18.9653 36.8368 17.528C36.8368 16.0907 36.7342 14.7747 36.5288 13.58C36.3422 12.3667 36.0435 11.312 35.6328 10.416C35.2408 9.52 34.7368 8.82933 34.1208 8.344C33.5048 7.84 32.7675 7.588 31.9088 7.588C31.0502 7.588 30.3035 7.84 29.6688 8.344C29.0528 8.82933 28.5395 9.52 28.1288 10.416C27.7368 11.312 27.4382 12.3667 27.2328 13.58C27.0462 14.7747 26.9528 16.0907 26.9528 17.528C26.9528 18.9653 27.0462 20.2907 27.2328 21.504C27.4382 22.7173 27.7368 23.772 28.1288 24.668C28.5395 25.564 29.0528 26.264 29.6688 26.768C30.3035 27.2533 31.0502 27.496 31.9088 27.496ZM58.6902 28.56C56.4875 28.56 54.5462 28.1213 52.8662 27.244C51.1862 26.348 49.8795 25.0787 48.9462 23.436C48.0129 21.7747 47.5462 19.7867 47.5462 17.472C47.5462 15.2133 48.0222 13.272 48.9742 11.648C49.9262 10.0053 51.2515 8.74533 52.9502 7.868C54.6675 6.972 56.6462 6.524 58.8862 6.524C60.0995 6.524 61.2009 6.65467 62.1902 6.916C63.1795 7.17733 64.1035 7.55067 64.9622 8.036L64.8502 13.16H63.1142L61.4342 7.196L63.7582 8.064V9.24C62.9929 8.64267 62.2929 8.22267 61.6582 7.98C61.0235 7.71867 60.3049 7.588 59.5022 7.588C58.1955 7.588 57.0102 7.952 55.9462 8.68C54.9009 9.38933 54.0702 10.4813 53.4542 11.956C52.8382 13.4307 52.5302 15.288 52.5302 17.528C52.5302 19.6 52.8289 21.3827 53.4262 22.876C54.0235 24.3693 54.8262 25.5173 55.8342 26.32C56.8422 27.104 57.9715 27.496 59.2222 27.496C59.8195 27.496 60.3982 27.44 60.9582 27.328C61.5182 27.216 62.0689 27.0667 62.6102 26.88L61.0422 27.748V25.2C61.0422 23.9307 61.0329 22.6893 61.0142 21.476C60.9955 20.2627 60.9675 19.012 60.9302 17.724H65.6342C65.6155 18.9373 65.5875 20.1693 65.5502 21.42C65.5315 22.652 65.5222 23.9587 65.5222 25.34V26.712C64.4395 27.3467 63.3569 27.8133 62.2742 28.112C61.2102 28.4107 60.0155 28.56 58.6902 28.56ZM57.9902 18.676V17.724H67.3422V18.676L63.8142 19.152H61.8822L57.9902 18.676ZM71.4816 28V27.048L75.9896 26.6H76.8576L81.3936 27.048V28H71.4816ZM73.9736 28C74.0296 26.3947 74.0576 24.7707 74.0576 23.128C74.0763 21.4853 74.0856 19.8333 74.0856 18.172V16.94C74.0856 15.2787 74.0763 13.636 74.0576 12.012C74.0576 10.3693 74.0296 8.72667 73.9736 7.084H78.9296C78.8923 8.68933 78.8643 10.3227 78.8456 11.984C78.8456 13.6267 78.8456 15.2787 78.8456 16.94V18.144C78.8456 19.7867 78.8456 21.4293 78.8456 23.072C78.8643 24.7147 78.8923 26.3573 78.9296 28H73.9736ZM71.4816 8.036V7.084H81.3936V8.036L76.8576 8.456H75.9896L71.4816 8.036ZM86.3362 28V27.048L89.2762 26.6H90.1442L94.0922 27.048V28H86.3362ZM89.0802 28V7.896H90.1442L90.5362 21.56V28H89.0802ZM99.7482 8.036V7.084H107.532V8.036L104.592 8.456H103.752L99.7482 8.036ZM102.296 28.056L89.8082 10.024L89.7242 9.912L88.6322 8.26L86.5042 8.036V7.084H93.3922L104.2 22.708L103.64 22.904L103.528 14.616V7.084H104.76V28.056H102.296Z" fill="white"/>
</svg>
