<svg width="173" height="38" viewBox="0 0 173 38" fill="none" xmlns="http://www.w3.org/2000/svg">
<path d="M7.968 19.232H19.52L21.216 17.088C21.216 17.088 21.3867 17.2267 21.728 17.504C22.0693 17.7813 22.4853 18.1227 22.976 18.528C23.4667 18.912 23.8933 19.2853 24.256 19.648C24.192 19.9893 23.9147 20.16 23.424 20.16H8.224L7.968 19.232ZM7.232 24.768H20.416L22.016 22.56C22.016 22.56 22.176 22.7093 22.496 23.008C22.816 23.2853 23.2 23.6267 23.648 24.032C24.096 24.4373 24.4907 24.8107 24.832 25.152C24.768 25.4933 24.4907 25.664 24 25.664H7.456L7.232 24.768ZM17.184 19.232H20.352V32.512C20.3307 32.5973 20.0853 32.736 19.616 32.928C19.168 33.1413 18.5387 33.248 17.728 33.248H17.184V19.232ZM11.264 19.232H14.4V23.776C14.4 24.5653 14.3253 25.408 14.176 26.304C14.048 27.1787 13.7707 28.064 13.344 28.96C12.9173 29.8347 12.2773 30.6667 11.424 31.456C10.5707 32.2453 9.408 32.9493 7.936 33.568L7.68 33.216C8.768 32.2987 9.55733 31.3173 10.048 30.272C10.56 29.2053 10.8907 28.1173 11.04 27.008C11.1893 25.8987 11.264 24.8213 11.264 23.776V19.232ZM2.624 7.296V5.664L6.368 7.296H12.32V8.192H6.208V33.472C6.208 33.6213 6.06933 33.8027 5.792 34.016C5.536 34.2293 5.184 34.4213 4.736 34.592C4.288 34.7627 3.78667 34.848 3.232 34.848H2.624V7.296ZM17.344 7.296V5.824L20.928 7.296H27.168V8.192H20.8V16.192C20.8 16.2987 20.6507 16.4373 20.352 16.608C20.0533 16.7787 19.68 16.9387 19.232 17.088C18.784 17.216 18.3147 17.28 17.824 17.28H17.344V7.296ZM25.632 7.296H25.312L26.976 5.312L30.624 8.128C30.5173 8.256 30.3467 8.384 30.112 8.512C29.8773 8.64 29.6 8.736 29.28 8.8V30.56C29.28 31.392 29.184 32.1067 28.992 32.704C28.8 33.3013 28.384 33.7707 27.744 34.112C27.1253 34.4747 26.1653 34.7307 24.864 34.88C24.8427 34.2613 24.7787 33.728 24.672 33.28C24.5867 32.8533 24.4587 32.512 24.288 32.256C24.0747 31.9787 23.808 31.744 23.488 31.552C23.1893 31.36 22.72 31.1893 22.08 31.04V30.624C22.08 30.624 22.1973 30.6347 22.432 30.656C22.688 30.656 22.9867 30.6773 23.328 30.72C23.6907 30.7413 24.032 30.7627 24.352 30.784C24.672 30.784 24.896 30.784 25.024 30.784C25.28 30.784 25.44 30.7307 25.504 30.624C25.5893 30.5173 25.632 30.368 25.632 30.176V7.296ZM10.848 7.296H10.56L12.16 5.568L15.456 8.064C15.3707 8.17067 15.2213 8.288 15.008 8.416C14.816 8.52267 14.5707 8.608 14.272 8.672V16.48C14.272 16.5653 14.112 16.6933 13.792 16.864C13.472 17.0133 13.0987 17.152 12.672 17.28C12.2453 17.408 11.84 17.472 11.456 17.472H10.848V7.296ZM4.48 11.136H12.288V12.032H4.48V11.136ZM4.48 15.072H12.288V16H4.48V15.072ZM19.168 11.136H27.04V12.032H19.168V11.136ZM19.168 15.072H27.04V16H19.168V15.072ZM52.544 30.976H62.656V31.872H52.544V30.976ZM59.584 10.368C61.248 10.9867 62.5707 11.6907 63.552 12.48C64.5547 13.248 65.28 14.0373 65.728 14.848C66.176 15.6373 66.4 16.3733 66.4 17.056C66.4 17.7173 66.2507 18.2613 65.952 18.688C65.6533 19.0933 65.248 19.328 64.736 19.392C64.224 19.4347 63.6693 19.2213 63.072 18.752C62.944 17.8347 62.6773 16.8853 62.272 15.904C61.888 14.9227 61.4293 13.9733 60.896 13.056C60.3627 12.1173 59.8187 11.2747 59.264 10.528L59.584 10.368ZM54.816 4.832L60.16 6.304C60.096 6.496 59.968 6.66667 59.776 6.816C59.584 6.944 59.3067 6.99733 58.944 6.976C58.496 7.91467 57.9413 8.97067 57.28 10.144C56.64 11.3173 55.936 12.5013 55.168 13.696C54.4 14.8907 53.5787 16.0213 52.704 17.088H52.288C52.6507 15.8933 52.992 14.5813 53.312 13.152C53.6533 11.7013 53.952 10.2507 54.208 8.8C54.464 7.34933 54.6667 6.02667 54.816 4.832ZM51.04 21.728V20.224L54.912 21.728H60.736L62.496 19.744L65.824 22.304C65.7173 22.432 65.568 22.5493 65.376 22.656C65.2053 22.7413 64.9387 22.816 64.576 22.88V33.728C64.576 33.8133 64.2987 33.9733 63.744 34.208C63.2107 34.4427 62.4747 34.56 61.536 34.56H60.864V22.624H54.56V33.92C54.56 34.048 54.304 34.2187 53.792 34.432C53.28 34.6667 52.576 34.784 51.68 34.784H51.04V21.728ZM48.96 15.456C49.792 15.456 50.9867 15.4347 52.544 15.392C54.1013 15.328 55.8613 15.2533 57.824 15.168C59.808 15.0827 61.8347 14.9867 63.904 14.88L63.936 15.328C62.528 15.776 60.7787 16.3093 58.688 16.928C56.6187 17.5253 54.112 18.1973 51.168 18.944C51.0613 19.136 50.9227 19.296 50.752 19.424C50.5813 19.5307 50.3893 19.6053 50.176 19.648L48.96 15.456ZM36.032 12.832H48.064V13.728H36.32L36.032 12.832ZM41.184 4.896L45.696 5.856C45.632 6.06933 45.504 6.25067 45.312 6.4C45.12 6.528 44.8213 6.592 44.416 6.592C44.2667 7.38133 44.064 8.384 43.808 9.6C43.5733 10.7947 43.2853 12.1067 42.944 13.536C42.624 14.9653 42.2827 16.416 41.92 17.888C41.5787 19.36 41.2373 20.7787 40.896 22.144C40.5547 23.488 40.224 24.6827 39.904 25.728C39.584 25.9627 39.104 26.1013 38.464 26.144C37.824 26.1653 37.1307 26.0693 36.384 25.856C36.7253 24.832 37.088 23.6053 37.472 22.176C37.8773 20.7467 38.272 19.2213 38.656 17.6C39.04 15.9787 39.4027 14.368 39.744 12.768C40.0853 11.168 40.384 9.68533 40.64 8.32C40.896 6.95467 41.0773 5.81333 41.184 4.896ZM39.712 23.008C41.8453 23.456 43.5947 24.0427 44.96 24.768C46.3253 25.472 47.36 26.2293 48.064 27.04C48.7893 27.8507 49.248 28.64 49.44 29.408C49.6533 30.1547 49.6427 30.7947 49.408 31.328C49.1947 31.8613 48.832 32.2027 48.32 32.352C47.8293 32.5227 47.2533 32.4053 46.592 32C46.336 31.2107 45.952 30.4107 45.44 29.6C44.9493 28.7893 44.3733 28 43.712 27.232C43.072 26.464 42.3787 25.7387 41.632 25.056C40.8853 24.3733 40.1493 23.7867 39.424 23.296L39.712 23.008ZM45.44 12.832H45.088L46.912 10.912L50.208 13.76C50.1013 13.9307 49.952 14.0587 49.76 14.144C49.5893 14.208 49.3227 14.2613 48.96 14.304C48.7467 16.3947 48.4053 18.432 47.936 20.416C47.488 22.4 46.816 24.2667 45.92 26.016C45.024 27.7653 43.7867 29.3547 42.208 30.784C40.6507 32.192 38.6453 33.408 36.192 34.432L35.936 34.048C37.7493 32.896 39.2427 31.552 40.416 30.016C41.6107 28.4587 42.5493 26.7733 43.232 24.96C43.9147 23.1253 44.416 21.184 44.736 19.136C45.0773 17.088 45.312 14.9867 45.44 12.832ZM71.296 12.48H78.88L80.416 9.888C80.416 9.888 80.512 9.984 80.704 10.176C80.9173 10.368 81.1733 10.624 81.472 10.944C81.7707 11.264 82.0693 11.5947 82.368 11.936C82.688 12.2773 82.9653 12.5973 83.2 12.896C83.1147 13.2373 82.8373 13.408 82.368 13.408H71.552L71.296 12.48ZM81.152 21.888H96.096L98.048 19.328C98.048 19.328 98.1653 19.424 98.4 19.616C98.6347 19.808 98.9333 20.0533 99.296 20.352C99.6587 20.6507 100.032 20.9707 100.416 21.312C100.821 21.6533 101.184 21.984 101.504 22.304C101.419 22.6453 101.131 22.816 100.64 22.816H81.408L81.152 21.888ZM75.2 4.8L79.936 5.248C79.9147 5.48267 79.808 5.68533 79.616 5.856C79.4453 6.00533 79.1573 6.112 78.752 6.176V30.592C78.752 31.424 78.656 32.1387 78.464 32.736C78.2933 33.3333 77.8987 33.8027 77.28 34.144C76.6613 34.4853 75.712 34.72 74.432 34.848C74.3893 34.2933 74.3253 33.8027 74.24 33.376C74.1547 32.9493 74.016 32.5867 73.824 32.288C73.6533 32.0107 73.3973 31.7867 73.056 31.616C72.736 31.424 72.2453 31.2747 71.584 31.168V30.688C71.584 30.688 71.712 30.6987 71.968 30.72C72.224 30.7413 72.5333 30.7627 72.896 30.784C73.2587 30.784 73.6 30.7947 73.92 30.816C74.24 30.8373 74.464 30.848 74.592 30.848C74.848 30.848 75.008 30.816 75.072 30.752C75.1573 30.6667 75.2 30.5387 75.2 30.368V4.8ZM71.072 20.864C71.7547 20.7573 72.736 20.5867 74.016 20.352C75.296 20.096 76.7467 19.808 78.368 19.488C79.9893 19.1467 81.632 18.7947 83.296 18.432L83.392 18.752C82.3467 19.4347 80.992 20.2667 79.328 21.248C77.6853 22.2293 75.7013 23.3173 73.376 24.512C73.2053 24.96 72.9067 25.248 72.48 25.376L71.072 20.864ZM84.64 7.072H98.976V7.968H84.64V7.072ZM84.8 5.312H85.28C85.856 6.848 85.9947 8.14933 85.696 9.216C85.3973 10.2613 84.9173 10.9653 84.256 11.328C83.808 11.584 83.3067 11.648 82.752 11.52C82.1973 11.392 81.824 11.0613 81.632 10.528C81.504 10.016 81.568 9.57867 81.824 9.216C82.08 8.832 82.432 8.544 82.88 8.352C83.3493 8.096 83.7973 7.69067 84.224 7.136C84.6507 6.56 84.8427 5.952 84.8 5.312ZM97.28 7.072H96.928L98.656 5.28L101.792 8.256C101.664 8.384 101.504 8.46933 101.312 8.512C101.141 8.55467 100.885 8.58667 100.544 8.608C100.224 8.928 99.84 9.29067 99.392 9.696C98.9653 10.1013 98.5173 10.496 98.048 10.88C97.6 11.264 97.1733 11.5947 96.768 11.872L96.416 11.712C96.5227 11.2853 96.6293 10.784 96.736 10.208C96.8427 9.632 96.9493 9.06667 97.056 8.512C97.1627 7.936 97.2373 7.456 97.28 7.072ZM87.2 7.072H90.688C90.624 8.26667 90.4853 9.408 90.272 10.496C90.0587 11.5627 89.6427 12.5547 89.024 13.472C88.4267 14.3893 87.5307 15.232 86.336 16C85.1413 16.768 83.5307 17.4507 81.504 18.048L81.152 17.568C82.624 16.864 83.7653 16.1173 84.576 15.328C85.3867 14.5387 85.9733 13.7067 86.336 12.832C86.6987 11.9573 86.9227 11.0507 87.008 10.112C87.1147 9.152 87.1787 8.13867 87.2 7.072ZM92.192 7.072H95.296C95.296 7.24267 95.296 7.424 95.296 7.616C95.296 7.78667 95.296 7.936 95.296 8.064V13.536C95.296 13.728 95.328 13.856 95.392 13.92C95.4773 13.984 95.6587 14.016 95.936 14.016H97.28C97.536 14.016 97.7707 14.016 97.984 14.016C98.2187 14.016 98.3893 14.016 98.496 14.016C98.7733 14.016 98.976 13.9307 99.104 13.76C99.232 13.6107 99.3813 13.344 99.552 12.96C99.7227 12.5547 99.904 12.0853 100.096 11.552H100.448L100.544 13.824C100.928 13.9947 101.184 14.176 101.312 14.368C101.461 14.56 101.536 14.816 101.536 15.136C101.536 15.5627 101.397 15.9147 101.12 16.192C100.843 16.448 100.373 16.6507 99.712 16.8C99.0507 16.928 98.1333 16.992 96.96 16.992H94.976C94.1653 16.992 93.5573 16.9067 93.152 16.736C92.768 16.5653 92.512 16.288 92.384 15.904C92.256 15.52 92.192 14.9973 92.192 14.336V7.072ZM88.928 17.216L93.536 17.664C93.5147 17.8347 93.44 17.984 93.312 18.112C93.184 18.24 92.9387 18.336 92.576 18.4V33.792C92.576 33.8987 92.416 34.0267 92.096 34.176C91.7973 34.3467 91.424 34.4853 90.976 34.592C90.528 34.72 90.08 34.784 89.632 34.784H88.928V17.216ZM87.904 21.888H92.128V22.4C91.04 24.832 89.4507 26.944 87.36 28.736C85.2907 30.528 82.7627 32 79.776 33.152L79.488 32.736C81.5573 31.4133 83.296 29.8027 84.704 27.904C86.112 25.984 87.1787 23.9787 87.904 21.888ZM92.64 21.888C93.216 23.0613 93.984 24.128 94.944 25.088C95.904 26.048 96.9813 26.8907 98.176 27.616C99.3707 28.32 100.576 28.864 101.792 29.248L101.728 29.6C101.045 29.7493 100.459 30.1227 99.968 30.72C99.4773 31.296 99.1147 32.0533 98.88 32.992C97.216 31.84 95.8507 30.368 94.784 28.576C93.7173 26.7627 92.8853 24.5973 92.288 22.08L92.64 21.888ZM108.384 8.896H129.152L131.296 6.24C131.296 6.24 131.424 6.34667 131.68 6.56C131.936 6.752 132.256 7.008 132.64 7.328C133.045 7.62667 133.472 7.95733 133.92 8.32C134.368 8.66133 134.773 8.992 135.136 9.312C135.051 9.65333 134.741 9.824 134.208 9.824H108.672L108.384 8.896ZM108.32 23.328C109.365 23.328 110.709 23.328 112.352 23.328C114.016 23.3067 115.904 23.2747 118.016 23.232C120.128 23.168 122.4 23.1147 124.832 23.072C127.264 23.008 129.76 22.9333 132.32 22.848L132.352 23.424C130.027 23.872 127.136 24.352 123.68 24.864C120.224 25.3547 115.989 25.92 110.976 26.56C110.741 26.944 110.432 27.168 110.048 27.232L108.32 23.328ZM119.712 24.448H123.424V34.08C123.424 34.144 123.157 34.2827 122.624 34.496C122.091 34.7093 121.344 34.816 120.384 34.816H119.712V24.448ZM126.656 20.192C128.363 20.3413 129.76 20.64 130.848 21.088C131.936 21.5147 132.757 22.016 133.312 22.592C133.888 23.168 134.24 23.744 134.368 24.32C134.517 24.896 134.485 25.3973 134.272 25.824C134.059 26.2507 133.717 26.5387 133.248 26.688C132.8 26.816 132.267 26.7413 131.648 26.464C131.328 25.7387 130.88 25.0133 130.304 24.288C129.728 23.5413 129.099 22.8373 128.416 22.176C127.733 21.4933 127.061 20.9173 126.4 20.448L126.656 20.192ZM111.936 17.376C113.387 17.2907 114.571 17.3867 115.488 17.664C116.427 17.92 117.141 18.272 117.632 18.72C118.123 19.1467 118.421 19.6053 118.528 20.096C118.656 20.5653 118.624 20.992 118.432 21.376C118.261 21.76 117.963 22.0267 117.536 22.176C117.131 22.3253 116.64 22.2933 116.064 22.08C115.829 21.5253 115.467 20.9707 114.976 20.416C114.485 19.84 113.952 19.3067 113.376 18.816C112.8 18.3253 112.235 17.9307 111.68 17.632L111.936 17.376ZM125.344 27.424C127.307 27.4667 128.939 27.6907 130.24 28.096C131.541 28.48 132.555 28.96 133.28 29.536C134.005 30.0907 134.485 30.6773 134.72 31.296C134.976 31.8933 135.029 32.4267 134.88 32.896C134.731 33.3867 134.421 33.7387 133.952 33.952C133.504 34.1653 132.939 34.1653 132.256 33.952C131.744 33.2267 131.072 32.48 130.24 31.712C129.429 30.9227 128.565 30.1867 127.648 29.504C126.752 28.8 125.899 28.2027 125.088 27.712L125.344 27.424ZM114.336 27.008L118.336 29.312C118.251 29.4613 118.123 29.568 117.952 29.632C117.781 29.696 117.515 29.696 117.152 29.632C116.384 30.272 115.445 30.9013 114.336 31.52C113.248 32.1173 112.053 32.672 110.752 33.184C109.472 33.696 108.16 34.1013 106.816 34.4L106.56 34.016C107.605 33.4187 108.619 32.7147 109.6 31.904C110.603 31.0933 111.52 30.2613 112.352 29.408C113.184 28.5547 113.845 27.7547 114.336 27.008ZM119.808 5.184L124.672 5.6C124.651 5.81333 124.555 6.00533 124.384 6.176C124.235 6.32533 123.936 6.42133 123.488 6.464V13.856H119.808V5.184ZM110.784 13.28H133.28V14.176H110.784V13.28ZM110.72 11.424L111.136 11.456C111.541 12.8427 111.712 14.016 111.648 14.976C111.605 15.936 111.413 16.704 111.072 17.28C110.752 17.8347 110.347 18.2293 109.856 18.464C109.365 18.6773 108.885 18.7627 108.416 18.72C107.947 18.6773 107.552 18.5173 107.232 18.24C106.933 17.9627 106.773 17.6107 106.752 17.184C106.752 16.736 106.976 16.2347 107.424 15.68C108.171 15.4027 108.853 14.9227 109.472 14.24C110.112 13.5573 110.528 12.6187 110.72 11.424ZM131.36 13.28H131.008L132.992 11.232L136.544 14.56C136.416 14.7093 136.256 14.8053 136.064 14.848C135.893 14.8907 135.627 14.9227 135.264 14.944C134.645 15.5413 133.845 16.1707 132.864 16.832C131.904 17.472 130.997 18.0053 130.144 18.432L129.856 18.208C130.048 17.7387 130.24 17.2053 130.432 16.608C130.645 16.0107 130.827 15.4133 130.976 14.816C131.147 14.2187 131.275 13.7067 131.36 13.28ZM117.44 14.016L122.24 15.776C122.197 15.9253 122.069 16.064 121.856 16.192C121.643 16.32 121.365 16.352 121.024 16.288C120.64 16.5867 120.139 16.928 119.52 17.312C118.923 17.696 118.272 18.0907 117.568 18.496C116.864 18.88 116.171 19.2213 115.488 19.52L115.232 19.36C115.509 18.8267 115.787 18.2293 116.064 17.568C116.363 16.8853 116.64 16.224 116.896 15.584C117.152 14.944 117.333 14.4213 117.44 14.016ZM124.288 15.552L128.512 17.6C128.341 17.9413 127.925 18.0587 127.264 17.952C126.56 18.5493 125.643 19.264 124.512 20.096C123.403 20.928 122.176 21.7387 120.832 22.528C119.488 23.296 118.144 23.9573 116.8 24.512L116.608 24.192C117.312 23.616 118.037 22.9547 118.784 22.208C119.552 21.4613 120.277 20.6827 120.96 19.872C121.664 19.0613 122.304 18.2827 122.88 17.536C123.456 16.768 123.925 16.1067 124.288 15.552ZM168.064 19.072C167.019 18.2827 165.973 17.3653 164.928 16.32C163.883 15.2533 162.965 14.1867 162.176 13.12L163.36 12.16C164.448 13.6533 165.749 15.072 167.264 16.416C168.779 17.76 170.261 18.9013 171.712 19.84C170.261 20.7573 168.779 21.8987 167.264 23.264C165.749 24.608 164.448 26.0267 163.36 27.52L162.176 26.56C163.008 25.4507 163.936 24.3733 164.96 23.328C165.984 22.2827 167.019 21.376 168.064 20.608H142.08V19.072H168.064Z" fill="white"/>
</svg>
