<svg width="159" height="39" viewBox="0 0 159 39" fill="none" xmlns="http://www.w3.org/2000/svg">
<path d="M8.224 18.072H23.744V21.112H8.224V18.072ZM7.744 23.544H24.256V26.68H7.744V23.544ZM17.344 19.032H20.704V33.304H17.344V19.032ZM11.104 19.16H14.368V25.304C14.368 27.352 13.504 31.576 10.144 33.88C9.632 33.208 8.48 32.184 7.68 31.672C10.4 30.008 11.104 26.904 11.104 25.272V19.16ZM4.416 9.432H12.48V11.928H4.416V9.432ZM19.264 9.432H27.36V11.928H19.264V9.432ZM25.856 5.048H29.632V29.432C29.632 31.352 29.28 32.44 28.128 33.08C26.944 33.72 25.28 33.816 22.816 33.784C22.72 32.76 22.208 30.968 21.696 29.976C23.104 30.04 24.704 30.04 25.184 30.04C25.696 30.04 25.856 29.848 25.856 29.368V5.048ZM4.768 5.048H14.912V16.44H4.768V13.688H11.296V7.8H4.768V5.048ZM27.808 5.048V7.8H20.64V13.752H27.808V16.504H16.992V5.048H27.808ZM2.496 5.048H6.272V33.88H2.496V5.048ZM49.536 29.176H59.744V32.632H49.536V29.176ZM47.616 20.472H61.792V33.752H57.984V23.928H51.264V33.88H47.616V20.472ZM45.568 14.392C49.376 14.232 55.168 13.912 60.608 13.56L60.576 16.984C55.424 17.4 49.92 17.816 45.952 18.104L45.568 14.392ZM55.648 10.36L58.688 8.824C60.704 11.512 62.816 15.096 63.584 17.528L60.256 19.288C59.584 16.888 57.6 13.176 55.648 10.36ZM51.136 3.8L55.392 4.6C54.08 8.696 52.352 13.368 50.912 16.376L47.68 15.544C48.992 12.376 50.432 7.448 51.136 3.8ZM33.216 10.2H43.584V13.752H33.216V10.2ZM37.536 3.8L41.152 4.216C39.808 11 37.824 19.608 36.256 25.368L33.12 23.672C34.592 18.648 36.448 10.168 37.536 3.8ZM35.04 23.192L37.12 20.504C40.48 22.584 44.704 25.688 46.56 28.088L44.256 31.16C42.464 28.76 38.4 25.4 35.04 23.192ZM42.176 10.2H42.816L43.488 10.104L45.76 10.52C45.024 23 41.952 30.072 35.584 34.008C35.072 33.08 34.048 31.672 33.28 30.936C38.72 28.088 41.568 21.016 42.176 10.904V10.2ZM75.392 20.44H94.56V23.864H75.392V20.44ZM85.664 9.304H89.088V13.944C89.088 14.712 89.184 14.808 89.76 14.808C90.016 14.808 91.04 14.808 91.328 14.808C91.872 14.808 92 14.488 92.064 12.376C92.736 12.888 94.144 13.4 95.072 13.624C94.72 16.952 93.856 17.848 91.744 17.848C91.168 17.848 89.728 17.848 89.184 17.848C86.24 17.848 85.664 16.856 85.664 13.976V9.304ZM75.68 5.304H94.464V11.704H91.072V8.568H78.944V11.864H75.68V5.304ZM82.976 17.272H86.752V33.848H82.976V17.272ZM80.512 9.336H84C83.712 14.232 82.688 17.08 76.864 18.584C76.544 17.752 75.68 16.472 75.008 15.864C79.712 14.808 80.32 12.952 80.512 9.336ZM87.712 22.104C89.312 25.08 92.416 28.088 95.488 29.656C94.688 30.36 93.504 31.704 92.896 32.632C89.696 30.616 86.624 26.936 84.8 23.192L87.712 22.104ZM82.144 21.784L85.12 22.776C83.168 27.064 79.776 30.872 75.84 32.888C75.296 32.024 74.208 30.68 73.408 29.976C77.088 28.408 80.48 25.208 82.144 21.784ZM64.64 19.928C67.2 19.352 71.008 18.328 74.624 17.304L75.136 20.76C71.84 21.784 68.32 22.808 65.504 23.608L64.64 19.928ZM65.152 9.912H74.944V13.432H65.152V9.912ZM68.544 3.864H72.064V29.816C72.064 31.608 71.744 32.6 70.752 33.176C69.792 33.784 68.416 33.912 66.336 33.912C66.24 32.952 65.792 31.384 65.344 30.328C66.496 30.392 67.616 30.392 68 30.36C68.384 30.36 68.544 30.264 68.544 29.816V3.864ZM109.984 25.144H113.792V33.88H109.984V25.144ZM109.952 3.832H113.76V13.048H109.952V3.832ZM109.088 13.624L112.576 15.256C110.656 16.984 108.448 18.712 106.688 19.832L104 18.392C105.696 17.144 107.872 15.128 109.088 13.624ZM116.032 15.672L119.456 17.528C115.488 20.504 110.304 23.736 106.24 25.784L103.712 24.024C107.808 21.912 112.928 18.424 116.032 15.672ZM101.184 19L103.68 16.856C105.984 17.976 109.056 19.768 110.624 21.112L107.936 23.512C106.528 22.168 103.552 20.248 101.184 19ZM116.192 21.528L118.72 19.576C121.248 21.176 124.64 23.576 126.336 25.24L123.648 27.448C122.08 25.816 118.784 23.224 116.192 21.528ZM115.616 28.44L118.56 26.52C121.056 27.832 124.576 29.912 126.432 31.384L123.264 33.56C121.664 32.088 118.24 29.912 115.616 28.44ZM97.952 23.256C103.936 23.288 113.696 23.192 122.848 23.064L122.656 25.976C113.856 26.296 104.416 26.584 98.144 26.712L97.952 23.256ZM104.48 26.616L108.128 27.992C106.048 30.168 102.784 32.376 100.064 33.656C99.392 32.92 97.984 31.608 97.12 30.968C99.872 29.976 102.784 28.312 104.48 26.616ZM98.304 6.328H125.6V9.624H98.304V6.328ZM98.048 11.576H125.984V18.232H122.208V14.808H101.664V18.232H98.048V11.576ZM143.511 32.6932L140.58 29.7841L147.409 22.9545H132V18.6818H147.409L140.58 11.8636L143.511 8.94318L155.386 20.8182L143.511 32.6932Z" fill="white"/>
</svg>
