<svg width="45" height="45" viewBox="0 0 45 45" fill="none" xmlns="http://www.w3.org/2000/svg">
<g clip-path="url(#clip0_1854_610)">
<path d="M22.5 27.2909L5.73194 44.0589C5.10456 44.6863 4.30608 45 3.3365 45C2.36692 45 1.56844 44.6863 0.941063 44.0589C0.313687 43.4316 0 42.6331 0 41.6635C0 40.6939 0.313687 39.8954 0.941063 39.2681L17.7091 22.5L0.941063 5.73194C0.313687 5.10456 0 4.30608 0 3.3365C0 2.36692 0.313687 1.56844 0.941063 0.941063C1.56844 0.313687 2.36692 0 3.3365 0C4.30608 0 5.10456 0.313687 5.73194 0.941063L22.5 17.7091L39.2681 0.941063C39.8954 0.313687 40.6939 0 41.6635 0C42.6331 0 43.4316 0.313687 44.0589 0.941063C44.6863 1.56844 45 2.36692 45 3.3365C45 4.30608 44.6863 5.10456 44.0589 5.73194L27.2909 22.5L44.0589 39.2681C44.6863 39.8954 45 40.6939 45 41.6635C45 42.6331 44.6863 43.4316 44.0589 44.0589C43.4316 44.6863 42.6331 45 41.6635 45C40.6939 45 39.8954 44.6863 39.2681 44.0589L22.5 27.2909Z" fill="#FFD3F0"/>
</g>
<defs>
<clipPath id="clip0_1854_610">
<rect width="45" height="45" fill="white"/>
</clipPath>
</defs>
</svg>
