<svg width="1512" height="982" viewBox="0 0 1512 982" fill="none" xmlns="http://www.w3.org/2000/svg">
<g clip-path="url(#clip0_1927_250)">
<rect width="1512" height="982" fill="#17193A"/>
<g filter="url(#filter0_f_1927_250)">
<path d="M519.458 776.938C1346.81 710.733 962.682 535.568 1036.97 19.0388H519.458C243.675 293.74 -142.422 829.901 519.458 776.938Z" fill="#3D314D"/>
<path d="M116.79 365.442C-221.645 179.92 44.2999 -56.3543 219.577 -151.301L655.808 -165.341C721.91 -128.991 868.414 15.9326 925.614 304.825C997.115 665.94 871.174 671.14 716.473 404.365C561.772 137.589 539.835 597.344 116.79 365.442Z" fill="#3D314D"/>
<path d="M2.10635 613.292C-219.195 567.793 -87.0747 723.293 -313 870.155C-290.319 940.417 -219.723 1091.08 -118.784 1131.62C7.39114 1182.31 202.268 1190.95 328.443 1172.52C454.618 1154.09 665.349 1108.59 633.64 1021.62C601.931 934.658 865.511 943.297 633.64 732.508C401.77 521.719 223.407 658.79 2.10635 613.292Z" fill="#3D314D"/>
<path d="M1306.79 910.203C1848.75 825.185 988.181 643.371 1020.2 634.538C860.897 508.299 1141.08 479.224 1217.13 523.389C1293.18 567.554 1593.38 546.576 1835.94 523.389C2078.5 500.202 1861.56 634.538 1969.63 740.167C2077.7 845.796 1950.42 910.203 1676.64 954C1402.86 997.798 764.834 995.221 1306.79 910.203Z" fill="#3D314D"/>
<path d="M1194.25 923.429C1008.8 1083.66 915.581 1006.96 892.156 948.578C892.156 874.629 874.063 712.451 801.688 655.328C711.22 583.924 892.156 462.223 1136.1 426.296C1380.04 390.37 1258.07 487.371 1483.43 655.328C1708.79 823.284 1426.08 723.139 1194.25 923.429Z" fill="#3D314D"/>
</g>
<g style="mix-blend-mode:multiply" filter="url(#filter1_f_1927_250)">
<path d="M735.465 576.355C1562.82 510.286 1178.69 335.478 1252.98 -180H735.465C459.682 94.1414 73.5848 629.21 735.465 576.355Z" fill="#A245FF"/>
<path d="M332.797 165.697C-5.63829 -19.4465 260.307 -255.24 435.584 -349.993L871.815 -364.004C937.917 -327.728 1084.42 -183.1 1141.62 105.204C1213.12 465.584 1087.18 470.774 932.48 204.541C777.779 -61.6909 755.842 397.127 332.797 165.697Z" fill="#2B2A6F"/>
<path d="M218.113 413.043C-3.18792 367.637 128.932 522.82 -96.9932 669.382C-74.3126 739.502 -3.7164 889.858 97.2233 930.32C223.398 980.898 418.275 989.52 544.45 971.128C670.624 952.735 881.356 907.33 849.647 820.542C817.938 733.755 1081.52 742.376 849.647 532.016C617.776 321.657 439.414 458.448 218.113 413.043Z" fill="#403057"/>
<path d="M1522.8 709.349C2064.76 624.504 1204.19 443.061 1236.21 434.246C1076.9 308.264 1357.09 279.248 1433.14 323.323C1509.19 367.398 1809.39 346.463 2051.95 323.323C2294.51 300.184 2077.56 434.246 2185.64 539.659C2293.71 645.073 2166.42 709.349 1892.64 753.057C1618.86 796.765 980.84 794.194 1522.8 709.349Z" fill="#A53DFF"/>
<path d="M1410.79 722.548C1225.09 882.454 1131.76 805.907 1108.31 747.646C1108.31 673.848 1090.19 512 1017.73 454.993C927.143 383.734 1108.31 262.281 1352.56 226.428C1596.81 190.575 1474.68 287.379 1700.33 454.993C1925.98 622.607 1642.91 522.666 1410.79 722.548Z" fill="#330060"/>
</g>
<g filter="url(#filter2_f_1927_250)">
<rect x="-76" y="-66" width="1664" height="1113" fill="black" fill-opacity="0.24"/>
</g>
</g>
<defs>
<filter id="filter0_f_1927_250" x="-513" y="-365.341" width="2721" height="1746.75" filterUnits="userSpaceOnUse" color-interpolation-filters="sRGB">
<feFlood flood-opacity="0" result="BackgroundImageFix"/>
<feBlend mode="normal" in="SourceGraphic" in2="BackgroundImageFix" result="shape"/>
<feGaussianBlur stdDeviation="100" result="effect1_foregroundBlur_1927_250"/>
</filter>
<filter id="filter1_f_1927_250" x="-296.993" y="-564.004" width="2721" height="1744" filterUnits="userSpaceOnUse" color-interpolation-filters="sRGB">
<feFlood flood-opacity="0" result="BackgroundImageFix"/>
<feBlend mode="normal" in="SourceGraphic" in2="BackgroundImageFix" result="shape"/>
<feGaussianBlur stdDeviation="100" result="effect1_foregroundBlur_1927_250"/>
</filter>
<filter id="filter2_f_1927_250" x="-94" y="-84" width="1700" height="1149" filterUnits="userSpaceOnUse" color-interpolation-filters="sRGB">
<feFlood flood-opacity="0" result="BackgroundImageFix"/>
<feBlend mode="normal" in="SourceGraphic" in2="BackgroundImageFix" result="shape"/>
<feGaussianBlur stdDeviation="9" result="effect1_foregroundBlur_1927_250"/>
</filter>
<clipPath id="clip0_1927_250">
<rect width="1512" height="982" fill="white"/>
</clipPath>
</defs>
</svg>
