<svg width="319" height="40" viewBox="0 0 319 40" fill="none" xmlns="http://www.w3.org/2000/svg">
<path d="M2.184 13.446H39.9V18.066H2.184V13.446ZM4.746 4.794H37.17V9.414H4.746V4.794ZM12.054 15.546L17.01 16.89C14.28 22.056 9.492 26.13 4.368 28.608C3.654 27.6 1.848 25.626 0.798 24.744C5.67 22.854 9.954 19.62 12.054 15.546ZM29.316 15.714C31.542 19.41 35.994 22.686 40.866 24.198C39.816 25.122 38.346 26.97 37.674 28.188C32.34 26.13 27.888 21.972 25.2 17.016L29.316 15.714ZM11.718 0.299999H16.716V16.302H11.718V0.299999ZM24.99 0.299999H30.03V16.302H24.99V0.299999ZM15.918 21.174H20.706V34.656C20.706 36.966 20.328 38.268 18.732 39.024C17.22 39.738 15.078 39.822 12.264 39.822C12.096 38.436 11.466 36.462 10.836 35.118C12.642 35.202 14.574 35.202 15.204 35.202C15.75 35.16 15.918 35.034 15.918 34.572V21.174ZM9.66 24.744L13.86 26.508C12.516 29.658 10.71 33.228 8.316 35.58L4.116 33.102C6.468 31.002 8.526 27.726 9.66 24.744ZM21.756 26.382L25.83 25.542C26.964 28.356 27.888 32.052 28.224 34.572L23.898 35.538C23.688 33.06 22.764 29.28 21.756 26.382ZM27.216 25.206L31.29 23.568C33.726 26.718 36.246 30.876 37.38 33.816L33.012 35.748C32.046 32.85 29.526 28.398 27.216 25.206ZM52.08 35.286H74.256V38.646H52.08V35.286ZM49.014 29.322H77.406V39.78H72.198V32.682H53.97V39.78H49.014V29.322ZM45.108 2.82H80.892V6.432H45.108V2.82ZM48.006 8.112H78.414V11.598H48.006V8.112ZM43.638 23.988H82.236V27.81H43.638V23.988ZM60.27 0.258H65.394V9.414H60.27V0.258ZM52.374 21.846L56.952 20.67C57.75 21.804 58.422 23.316 58.716 24.408L53.886 25.752C53.718 24.66 53.046 22.98 52.374 21.846ZM68.628 20.628L74.172 21.426C73.164 23.106 72.114 24.534 71.316 25.584L66.948 24.66C67.578 23.442 68.292 21.804 68.628 20.628ZM54.6 16.176V18.276H71.484V16.176H54.6ZM49.812 13.026H76.566V21.384H49.812V13.026ZM89.964 11.136H101.598V14.832H89.964V11.136ZM89.964 18.024H101.598V21.594H89.964V18.024ZM89.964 25.038H101.598V28.776H89.964V25.038ZM108.15 20.292H123.984V24.534H108.15V20.292ZM92.022 4.248H98.658V8.028H92.022V4.248ZM105 2.484H120.582V6.6H105V2.484ZM105 28.314H124.782V32.682H105V28.314ZM112.854 16.512H117.642V39.654H112.854V16.512ZM94.5 13.068H97.86V26.424H94.5V13.068ZM119.238 2.484H123.732C123.732 2.484 123.69 3.534 123.648 4.08C123.438 10.842 123.06 13.74 122.136 14.832C121.464 15.714 120.666 16.05 119.574 16.218C118.65 16.344 117.012 16.386 115.332 16.302C115.248 15.042 114.828 13.362 114.198 12.27C115.542 12.396 116.634 12.438 117.18 12.438C117.726 12.438 118.062 12.354 118.356 11.976C118.818 11.43 119.07 9.162 119.238 3.072V2.484ZM107.31 16.806L111.426 17.604C110.67 21.468 109.284 25.332 107.646 27.81C106.806 27.222 104.958 26.298 103.95 25.836C105.588 23.61 106.722 20.166 107.31 16.806ZM91.014 0.299999L95.508 1.266C93.996 7.062 91.392 12.732 88.368 16.302C87.612 15.504 85.806 13.992 84.798 13.32C87.654 10.212 89.88 5.298 91.014 0.299999ZM88.116 11.136H92.148V22.266C92.148 27.642 91.602 35.118 88.536 39.864C87.78 39.192 85.974 38.058 85.008 37.638C87.864 33.27 88.116 27.012 88.116 22.266V11.136ZM100.254 11.136H104.37V34.95C104.37 36.924 103.992 38.184 102.732 38.94C101.43 39.654 99.708 39.738 97.146 39.738C96.978 38.562 96.306 36.63 95.718 35.496C97.356 35.58 99.036 35.58 99.54 35.538C100.044 35.538 100.254 35.37 100.254 34.866V11.136ZM110.04 3.87H114.534C114.03 10.002 112.602 14.706 106.344 17.478C105.84 16.428 104.706 14.79 103.698 14.034C108.738 11.976 109.62 8.406 110.04 3.87ZM97.482 4.248H98.448L99.078 4.038L101.934 5.844C101.01 8.49 99.372 11.808 98.07 13.908C97.272 13.32 95.886 12.48 95.004 12.018C95.928 10.086 96.978 6.978 97.482 5.004V4.248ZM150.192 19.62V21.762H159.894V19.62H150.192ZM150.192 25.164V27.348H159.894V25.164H150.192ZM150.192 14.034V16.176H159.894V14.034H150.192ZM145.656 10.38H164.682V31.002H145.656V10.38ZM152.628 0.341998H157.248V13.026H152.628V0.341998ZM144.018 2.862L148.008 1.308C149.31 3.408 150.738 6.222 151.284 8.07L147.084 9.834C146.622 7.986 145.32 5.046 144.018 2.862ZM161.49 1.182L166.194 2.82C164.976 5.382 163.632 7.986 162.54 9.75L158.55 8.238C159.558 6.348 160.86 3.324 161.49 1.182ZM156.324 33.522L159.81 30.96C162.498 32.892 165.564 35.496 167.202 37.26L162.876 39.738C161.448 37.974 158.634 35.37 156.324 33.522ZM149.94 30.792L153.93 33.564C151.536 35.916 147.714 38.394 144.564 39.864C143.85 38.898 142.506 37.386 141.54 36.462C144.522 35.16 148.134 32.724 149.94 30.792ZM130.2 10.8H142.8V15H130.2V10.8ZM128.184 18.066H143.514V22.35H128.184V18.066ZM128.604 24.702L131.796 23.904C132.51 26.256 133.098 29.196 133.308 31.212L129.906 32.094C129.822 30.078 129.234 27.054 128.604 24.702ZM127.722 34.32C131.838 33.732 138.096 32.598 143.976 31.506L144.312 35.664C138.894 36.84 133.098 38.016 128.688 38.898L127.722 34.32ZM140.238 23.568L143.85 24.45C143.094 26.844 142.422 29.49 141.792 31.254L138.768 30.414C139.314 28.524 139.944 25.584 140.238 23.568ZM133.938 12.48H138.264V35.118L133.938 35.874V12.48ZM133.728 0.341998H136.374V1.266H137.802V2.568C136.164 5.76 133.602 10.086 129.444 13.866C128.772 12.858 127.344 11.262 126.42 10.59C129.948 7.566 132.426 3.618 133.728 0.341998ZM134.358 0.341998H137.886C140.322 2.442 143.43 5.424 144.942 7.608L141.708 11.472C140.406 9.33 137.55 5.802 135.24 3.912H134.358V0.341998ZM192.99 14.244H208.656V18.906H192.99V14.244ZM170.226 4.5H189.126V8.616H170.226V4.5ZM169.806 21.216H189.084V25.458H169.806V21.216ZM169.68 13.866H189.462V18.024H169.68V13.866ZM199.794 16.26H204.666V39.57H199.794V16.26ZM177.24 0.677999H182.154V6.348H177.24V0.677999ZM177.24 17.772H182.154V39.738H177.24V17.772ZM190.722 3.66L196.602 5.298C196.56 5.718 196.266 5.928 195.51 6.054V18.402C195.51 24.66 194.712 33.942 189 39.864C188.37 38.772 186.522 37.05 185.388 36.42C190.26 31.254 190.722 24.072 190.722 18.318V3.66ZM204.456 0.761998L208.488 4.416C204.204 6.348 198.492 7.776 193.578 8.7C193.326 7.608 192.612 5.844 192.024 4.878C196.518 3.87 201.474 2.358 204.456 0.761998ZM181.776 25.626C183.078 26.424 187.11 29.574 188.118 30.414L185.22 34.026C183.834 32.346 180.642 29.196 179.088 27.81L181.776 25.626ZM172.326 9.246L176.19 8.322C176.946 9.834 177.534 11.892 177.744 13.278L173.628 14.37C173.544 12.984 172.998 10.842 172.326 9.246ZM182.784 8.238L187.236 9.078C186.438 11.01 185.724 12.816 185.094 14.118L181.104 13.278C181.692 11.85 182.406 9.708 182.784 8.238ZM177.282 23.694L180.852 24.996C178.794 29.616 175.308 34.446 171.948 37.176C171.15 36.084 169.68 34.404 168.63 33.606C171.948 31.464 175.434 27.39 177.282 23.694ZM220.584 21.762H241.332V25.374H220.584V21.762ZM228.732 18.066H233.058V33.102H228.732V18.066ZM236.964 15.378L239.946 18.192C235.2 19.41 228.354 19.998 222.642 20.124C222.516 19.326 222.054 17.94 221.634 17.142C227.052 16.89 233.436 16.302 236.964 15.378ZM228.354 23.652L231.588 24.912C229.488 28.146 225.75 31.38 222.264 33.06C221.676 32.094 220.416 30.624 219.534 29.91C222.852 28.65 226.464 26.172 228.354 23.652ZM212.268 2.652H249.606V7.02H212.268V2.652ZM216.972 34.026H245.07V38.352H216.972V34.026ZM221.508 0.341998H226.506V9.624H221.508V0.341998ZM235.326 0.341998H240.324V9.624H235.326V0.341998ZM214.536 10.842H247.674V39.78H242.718V15.042H219.282V39.78H214.536V10.842ZM233.73 24.03C235.536 26.298 239.064 28.65 242.088 29.826C241.164 30.582 239.904 32.01 239.274 32.976C236.208 31.38 232.638 28.23 230.622 25.374L233.73 24.03ZM277.998 3.912H282.828V37.176H277.998V3.912ZM268.548 7.692H291.942V11.598H268.548V7.692ZM267.288 35.118H292.824V39.108H267.288V35.118ZM269.64 29.364H291.27V33.186H269.64V29.364ZM289.002 0.677999L291.9 4.416C285.81 5.592 277.2 6.096 270.06 6.18C269.976 5.088 269.43 3.408 268.968 2.4C275.898 2.19 284.046 1.644 289.002 0.677999ZM274.302 21.846V23.988H286.692V21.846H274.302ZM274.302 16.806V18.906H286.692V16.806H274.302ZM269.934 13.32H291.27V27.474H269.934V13.32ZM259.728 4.248H264.642V39.738H259.728V4.248ZM253.68 12.144H269.094V16.848H253.68V12.144ZM260.022 14.034L262.962 15.336C261.366 21.342 258.384 28.818 255.15 32.976C254.688 31.506 253.596 29.406 252.798 28.146C255.738 24.786 258.678 18.696 260.022 14.034ZM266.28 0.761998L269.64 4.668C265.356 6.306 259.518 7.44 254.604 8.07C254.394 6.978 253.764 5.298 253.176 4.248C257.838 3.45 263.046 2.232 266.28 0.761998ZM264.516 17.982C265.566 18.864 269.22 22.644 270.018 23.61L267.162 27.558C266.154 25.542 263.634 21.72 262.332 19.956L264.516 17.982ZM312.816 25.206L311.724 10.842L311.514 4.584H318.444L318.234 10.842L317.142 25.206H312.816ZM315 36.42C312.816 36.42 311.262 34.866 311.262 32.682C311.262 30.498 312.858 28.986 315 28.986C317.1 28.986 318.696 30.498 318.696 32.682C318.696 34.866 317.1 36.42 315 36.42Z" fill="white"/>
</svg>
