<svg width="342" height="40" viewBox="0 0 342 40" fill="none" xmlns="http://www.w3.org/2000/svg">
<path d="M25.746 14.664C26.754 15.952 28.084 17.114 29.736 18.15C31.416 19.186 33.25 20.054 35.238 20.754C37.254 21.426 39.242 21.916 41.202 22.224L41.16 22.728C40.264 22.924 39.48 23.4 38.808 24.156C38.164 24.912 37.716 25.892 37.464 27.096C35.56 26.312 33.824 25.346 32.256 24.198C30.716 23.05 29.358 21.706 28.182 20.166C27.034 18.598 26.054 16.862 25.242 14.958L25.746 14.664ZM11.424 24.366L11.97 24.408C12.39 26.368 12.53 28.034 12.39 29.406C12.25 30.75 11.928 31.842 11.424 32.682C10.92 33.494 10.332 34.082 9.66 34.446C8.988 34.81 8.33 34.978 7.686 34.95C7.042 34.922 6.496 34.74 6.048 34.404C5.628 34.068 5.404 33.606 5.376 33.018C5.348 32.43 5.614 31.758 6.174 31.002C7.266 30.414 8.302 29.546 9.282 28.398C10.29 27.25 11.004 25.906 11.424 24.366ZM23.142 24.45C24.626 25.458 25.746 26.494 26.502 27.558C27.286 28.594 27.79 29.588 28.014 30.54C28.266 31.492 28.308 32.346 28.14 33.102C27.972 33.83 27.664 34.39 27.216 34.782C26.768 35.174 26.25 35.342 25.662 35.286C25.074 35.23 24.5 34.88 23.94 34.236C24.052 33.172 24.052 32.08 23.94 30.96C23.828 29.84 23.646 28.734 23.394 27.642C23.17 26.55 22.918 25.556 22.638 24.66L23.142 24.45ZM28.14 23.988C30.324 24.716 32.06 25.556 33.348 26.508C34.664 27.432 35.616 28.398 36.204 29.406C36.82 30.386 37.128 31.31 37.128 32.178C37.156 33.018 36.974 33.718 36.582 34.278C36.218 34.81 35.7 35.118 35.028 35.202C34.356 35.286 33.628 35.034 32.844 34.446C32.62 33.298 32.228 32.108 31.668 30.876C31.136 29.644 30.52 28.454 29.82 27.306C29.12 26.158 28.42 25.136 27.72 24.24L28.14 23.988ZM1.386 14.664H33.348L35.952 11.136C35.952 11.136 36.12 11.276 36.456 11.556C36.792 11.808 37.198 12.144 37.674 12.564C38.178 12.984 38.696 13.432 39.228 13.908C39.788 14.356 40.278 14.79 40.698 15.21C40.614 15.658 40.222 15.882 39.522 15.882H1.722L1.386 14.664ZM2.982 7.314H32.172L34.65 3.912C34.65 3.912 34.804 4.038 35.112 4.29C35.448 4.542 35.854 4.878 36.33 5.298C36.806 5.69 37.31 6.11 37.842 6.558C38.374 7.006 38.836 7.44 39.228 7.86C39.116 8.308 38.738 8.532 38.094 8.532H3.318L2.982 7.314ZM15.876 19.704L21.882 20.208C21.854 20.516 21.728 20.768 21.504 20.964C21.28 21.132 20.93 21.244 20.454 21.3V34.32C20.454 35.384 20.328 36.294 20.076 37.05C19.824 37.806 19.292 38.408 18.48 38.856C17.696 39.332 16.45 39.64 14.742 39.78C14.714 39.052 14.644 38.422 14.532 37.89C14.42 37.358 14.224 36.91 13.944 36.546C13.692 36.21 13.342 35.916 12.894 35.664C12.446 35.412 11.774 35.216 10.878 35.076V34.446C10.878 34.446 11.06 34.46 11.424 34.488C11.788 34.516 12.222 34.558 12.726 34.614C13.23 34.642 13.706 34.67 14.154 34.698C14.602 34.726 14.924 34.74 15.12 34.74C15.4 34.74 15.596 34.684 15.708 34.572C15.82 34.46 15.876 34.292 15.876 34.068V19.704ZM12.348 0.258L18.9 0.803998C18.872 1.084 18.746 1.336 18.522 1.56C18.326 1.756 17.948 1.91 17.388 2.022V15.168H12.348V0.258ZM23.646 0.258L30.282 0.803998C30.254 1.084 30.128 1.336 29.904 1.56C29.708 1.756 29.316 1.91 28.728 2.022V15.168H23.646V0.258ZM12.516 14.706H18.354V15.378C16.73 18.262 14.434 20.782 11.466 22.938C8.498 25.066 5.068 26.816 1.176 28.188L0.84 27.684C2.632 26.62 4.27 25.388 5.754 23.988C7.238 22.56 8.554 21.062 9.702 19.494C10.85 17.898 11.788 16.302 12.516 14.706ZM48.174 4.374H76.86L79.632 1.014C79.632 1.014 79.8 1.14 80.136 1.392C80.472 1.616 80.892 1.938 81.396 2.358C81.928 2.75 82.474 3.17 83.034 3.618C83.622 4.066 84.154 4.486 84.63 4.878C84.518 5.326 84.126 5.55 83.454 5.55H48.51L48.174 4.374ZM46.956 25.836H77.952L80.682 22.434C80.682 22.434 80.85 22.56 81.186 22.812C81.522 23.064 81.942 23.386 82.446 23.778C82.95 24.17 83.482 24.59 84.042 25.038C84.602 25.486 85.12 25.92 85.596 26.34C85.484 26.788 85.092 27.012 84.42 27.012H47.334L46.956 25.836ZM51.66 9.33H74.214L76.86 6.348C76.86 6.348 77.014 6.46 77.322 6.684C77.658 6.908 78.078 7.202 78.582 7.566C79.086 7.902 79.618 8.28 80.178 8.7C80.766 9.092 81.284 9.484 81.732 9.876C81.62 10.324 81.228 10.548 80.556 10.548H51.954L51.66 9.33ZM53.466 29.742V27.726L58.716 29.742H77.532V30.918H58.422V38.31C58.422 38.45 58.198 38.632 57.75 38.856C57.33 39.08 56.798 39.29 56.154 39.486C55.51 39.682 54.852 39.78 54.18 39.78H53.466V29.742ZM74.508 29.742H74.13L76.314 27.348L81.06 30.834C80.948 30.974 80.752 31.128 80.472 31.296C80.22 31.436 79.898 31.548 79.506 31.632V38.31C79.506 38.394 79.268 38.52 78.792 38.688C78.316 38.884 77.756 39.052 77.112 39.192C76.496 39.36 75.922 39.444 75.39 39.444H74.508V29.742ZM55.524 36.252H77.196V37.47H55.524V36.252ZM53.928 13.446V11.43L59.136 13.446H76.104V14.622H58.884V20.964C58.884 21.076 58.66 21.258 58.212 21.51C57.792 21.734 57.246 21.944 56.574 22.14C55.93 22.308 55.272 22.392 54.6 22.392H53.928V13.446ZM73.668 13.446H73.248L75.474 11.094L80.178 14.538C80.066 14.678 79.884 14.832 79.632 15C79.38 15.14 79.058 15.252 78.666 15.336V20.46C78.666 20.544 78.428 20.684 77.952 20.88C77.476 21.048 76.916 21.216 76.272 21.384C75.656 21.524 75.082 21.594 74.55 21.594H73.668V13.446ZM56.364 19.074H76.314V20.25H56.364V19.074ZM63.672 0.258L70.308 0.761998C70.28 1.042 70.154 1.294 69.93 1.518C69.706 1.714 69.314 1.854 68.754 1.938V9.876H63.672V0.258ZM58.758 20.628C60.354 20.852 61.558 21.188 62.37 21.636C63.21 22.084 63.742 22.574 63.966 23.106C64.218 23.638 64.246 24.142 64.05 24.618C63.854 25.066 63.504 25.43 63 25.71C62.524 25.962 61.978 26.06 61.362 26.004C60.746 25.92 60.144 25.612 59.556 25.08C59.612 24.324 59.5 23.554 59.22 22.77C58.968 21.986 58.688 21.342 58.38 20.838L58.758 20.628ZM70.056 20.628L75.978 21.972C75.894 22.224 75.726 22.434 75.474 22.602C75.222 22.742 74.872 22.812 74.424 22.812C73.752 23.344 72.898 23.946 71.862 24.618C70.854 25.262 69.902 25.836 69.006 26.34H68.376C68.684 25.556 68.992 24.618 69.3 23.526C69.608 22.434 69.86 21.468 70.056 20.628ZM98.574 5.046H106.092V6.264H98.028L98.574 5.046ZM103.614 5.046H103.152L105.378 2.778L109.368 6.306C109.2 6.474 108.976 6.586 108.696 6.642C108.444 6.698 108.122 6.74 107.73 6.768C107.198 7.272 106.596 7.846 105.924 8.49C105.252 9.106 104.552 9.708 103.824 10.296C103.124 10.856 102.424 11.346 101.724 11.766H101.094C101.43 11.15 101.752 10.436 102.06 9.624C102.396 8.784 102.704 7.958 102.984 7.146C103.264 6.306 103.474 5.606 103.614 5.046ZM94.92 11.262V10.842V9.498L99.582 11.262H98.91V19.872C98.91 21.356 98.854 22.952 98.742 24.66C98.63 26.368 98.378 28.104 97.986 29.868C97.594 31.632 96.95 33.34 96.054 34.992C95.186 36.644 93.982 38.156 92.442 39.528L91.938 39.15C92.918 37.218 93.604 35.174 93.996 33.018C94.416 30.834 94.668 28.622 94.752 26.382C94.864 24.142 94.92 21.986 94.92 19.914V11.262ZM97.23 11.262H108.402V12.438H97.23V11.262ZM97.23 18.234H108.402V19.452H97.23V18.234ZM97.188 25.458H108.402V26.634H97.188V25.458ZM106.428 11.262H105.966L107.94 8.952L112.308 12.312C112.168 12.48 111.944 12.648 111.636 12.816C111.328 12.984 110.936 13.124 110.46 13.236V34.572C110.46 35.524 110.348 36.35 110.124 37.05C109.9 37.778 109.396 38.352 108.612 38.772C107.828 39.192 106.638 39.486 105.042 39.654C104.986 38.982 104.888 38.394 104.748 37.89C104.636 37.386 104.44 36.994 104.16 36.714C103.852 36.378 103.446 36.098 102.942 35.874C102.438 35.622 101.724 35.426 100.8 35.286V34.698C100.8 34.698 100.996 34.712 101.388 34.74C101.808 34.768 102.298 34.796 102.858 34.824C103.418 34.852 103.95 34.88 104.454 34.908C104.986 34.936 105.35 34.95 105.546 34.95C105.91 34.95 106.148 34.88 106.26 34.74C106.372 34.6 106.428 34.39 106.428 34.11V11.262ZM100.926 11.262H104.286V25.836H100.926V11.262ZM110.502 3.744H127.26V4.92H110.88L110.502 3.744ZM125.286 3.744H124.866L127.134 1.56L131.208 4.878C131.068 5.046 130.872 5.186 130.62 5.298C130.368 5.41 130.046 5.494 129.654 5.55C129.57 7.538 129.444 9.176 129.276 10.464C129.108 11.724 128.87 12.732 128.562 13.488C128.254 14.216 127.82 14.776 127.26 15.168C126.728 15.504 126.112 15.77 125.412 15.966C124.74 16.162 123.928 16.26 122.976 16.26C122.976 15.644 122.934 15.084 122.85 14.58C122.794 14.048 122.64 13.642 122.388 13.362C122.136 13.054 121.8 12.802 121.38 12.606C120.988 12.382 120.484 12.2 119.868 12.06V11.472C120.204 11.5 120.582 11.528 121.002 11.556C121.45 11.584 121.87 11.612 122.262 11.64C122.682 11.668 123.004 11.682 123.228 11.682C123.732 11.682 124.068 11.584 124.236 11.388C124.544 11.136 124.768 10.408 124.908 9.204C125.076 7.972 125.202 6.152 125.286 3.744ZM118.86 16.344L124.866 16.89C124.838 17.142 124.726 17.366 124.53 17.562C124.334 17.758 123.984 17.884 123.48 17.94V38.394C123.48 38.534 123.284 38.702 122.892 38.898C122.5 39.122 122.01 39.318 121.422 39.486C120.862 39.654 120.288 39.738 119.7 39.738H118.86V16.344ZM110.796 29.616H126L128.226 26.592C128.226 26.592 128.464 26.788 128.94 27.18C129.416 27.572 129.976 28.048 130.62 28.608C131.264 29.14 131.838 29.644 132.342 30.12C132.23 30.568 131.852 30.792 131.208 30.792H111.132L110.796 29.616ZM116.214 3.744H121.422C120.946 6.908 119.826 9.624 118.062 11.892C116.326 14.16 113.848 15.938 110.628 17.226L110.418 16.722C112.49 15.07 113.946 13.138 114.786 10.926C115.626 8.686 116.102 6.292 116.214 3.744ZM113.274 16.806L118.608 18.528C118.496 18.752 118.314 18.948 118.062 19.116C117.81 19.284 117.46 19.354 117.012 19.326C116.284 21.062 115.43 22.672 114.45 24.156C113.47 25.612 112.35 26.844 111.09 27.852L110.502 27.516C111.146 26.144 111.706 24.506 112.182 22.602C112.686 20.698 113.05 18.766 113.274 16.806ZM114.156 22.56H125.202L127.302 19.788C127.302 19.788 127.526 19.97 127.974 20.334C128.422 20.67 128.954 21.104 129.57 21.636C130.186 22.14 130.732 22.616 131.208 23.064C131.096 23.512 130.732 23.736 130.116 23.736H114.156V22.56ZM97.902 0.215998L103.698 2.022C103.614 2.274 103.432 2.498 103.152 2.694C102.9 2.862 102.536 2.932 102.06 2.904C100.884 5.452 99.47 7.72 97.818 9.708C96.166 11.668 94.374 13.292 92.442 14.58L91.938 14.202C93.17 12.55 94.318 10.478 95.382 7.986C96.446 5.494 97.286 2.904 97.902 0.215998ZM154.224 1.56C156.016 1.924 157.416 2.428 158.424 3.072C159.432 3.688 160.132 4.36 160.524 5.088C160.944 5.788 161.126 6.46 161.07 7.104C161.014 7.748 160.776 8.28 160.356 8.7C159.964 9.12 159.46 9.344 158.844 9.372C158.256 9.4 157.626 9.162 156.954 8.658C156.898 7.846 156.716 7.034 156.408 6.222C156.1 5.382 155.722 4.584 155.274 3.828C154.826 3.044 154.35 2.358 153.846 1.77L154.224 1.56ZM170.688 1.308L176.526 3.45C176.414 3.702 176.218 3.898 175.938 4.038C175.658 4.178 175.294 4.248 174.846 4.248C174.006 5.2 173.082 6.138 172.074 7.062C171.094 7.958 170.114 8.728 169.134 9.372L168.588 9.036C168.924 8.084 169.274 6.908 169.638 5.508C170.03 4.108 170.38 2.708 170.688 1.308ZM165.9 31.464C168.196 31.548 170.058 31.856 171.486 32.388C172.942 32.892 174.048 33.508 174.804 34.236C175.56 34.964 176.022 35.706 176.19 36.462C176.386 37.218 176.344 37.876 176.064 38.436C175.784 39.024 175.336 39.416 174.72 39.612C174.104 39.836 173.376 39.752 172.536 39.36C172.116 38.464 171.514 37.54 170.73 36.588C169.974 35.664 169.134 34.796 168.21 33.984C167.314 33.144 166.432 32.43 165.564 31.842L165.9 31.464ZM158.214 16.806H172.116V18.024H158.214V16.806ZM158.214 22.644H172.116V23.82H158.214V22.644ZM158.214 28.608H172.116V29.784H158.214V28.608ZM169.806 11.01H169.386L171.612 8.574L176.19 12.102C176.05 12.27 175.826 12.438 175.518 12.606C175.238 12.774 174.888 12.9 174.468 12.984V30.414C174.468 30.526 174.244 30.68 173.796 30.876C173.376 31.072 172.858 31.254 172.242 31.422C171.654 31.59 171.094 31.674 170.562 31.674H169.806V11.01ZM155.778 11.01V9.078L160.44 11.01H172.032V12.186H160.188V30.834C160.188 31.002 160.006 31.198 159.642 31.422C159.306 31.646 158.844 31.856 158.256 32.052C157.696 32.248 157.108 32.346 156.492 32.346H155.778V11.01ZM162.498 0.635997L168.42 1.14C168.392 1.42 168.28 1.658 168.084 1.854C167.916 2.022 167.58 2.148 167.076 2.232V11.598H162.498V0.635997ZM159.852 31.044L165.606 34.278C165.438 34.502 165.172 34.67 164.808 34.782C164.444 34.866 163.926 34.852 163.254 34.74C162.246 35.44 161.014 36.112 159.558 36.756C158.13 37.428 156.576 38.016 154.896 38.52C153.216 39.024 151.48 39.43 149.688 39.738L149.478 39.234C150.878 38.59 152.25 37.792 153.594 36.84C154.966 35.916 156.184 34.95 157.248 33.942C158.34 32.906 159.208 31.94 159.852 31.044ZM147.504 3.24C146.832 4.668 145.978 6.18 144.942 7.776C143.906 9.344 142.702 10.842 141.33 12.27C139.986 13.698 138.53 14.93 136.962 15.966L136.542 15.63C137.298 14.65 138.026 13.516 138.726 12.228C139.454 10.912 140.098 9.554 140.658 8.154C141.246 6.754 141.764 5.382 142.212 4.038C142.66 2.694 142.982 1.476 143.178 0.383998L149.226 2.316C149.142 2.568 148.96 2.778 148.68 2.946C148.428 3.086 148.036 3.184 147.504 3.24ZM146.37 2.946C148.386 3.338 149.968 3.842 151.116 4.458C152.264 5.046 153.076 5.676 153.552 6.348C154.028 6.992 154.238 7.608 154.182 8.196C154.154 8.784 153.944 9.274 153.552 9.666C153.16 10.03 152.684 10.24 152.124 10.296C151.564 10.352 151.004 10.156 150.444 9.708C150.08 8.812 149.492 7.748 148.68 6.516C147.896 5.256 146.944 4.094 145.824 3.03L146.37 2.946ZM140.574 12.732H147.294L149.436 9.75C149.436 9.75 149.646 9.946 150.066 10.338C150.514 10.73 151.032 11.192 151.62 11.724C152.236 12.256 152.782 12.76 153.258 13.236C153.146 13.684 152.782 13.908 152.166 13.908H140.91L140.574 12.732ZM137.844 19.074H148.596L150.696 15.966C150.696 15.966 150.906 16.176 151.326 16.596C151.774 16.988 152.292 17.464 152.88 18.024C153.496 18.584 154.028 19.116 154.476 19.62C154.364 20.04 153.986 20.25 153.342 20.25H138.18L137.844 19.074ZM143.64 12.732H147.672V33.606L143.64 34.698V12.732ZM137.34 34.362C138.348 34.194 139.748 33.956 141.54 33.648C143.36 33.34 145.418 32.962 147.714 32.514C150.038 32.038 152.418 31.548 154.854 31.044L154.98 31.548C153.524 32.416 151.676 33.424 149.436 34.572C147.224 35.72 144.508 37.05 141.288 38.562C141.176 38.842 141.022 39.066 140.826 39.234C140.658 39.43 140.462 39.57 140.238 39.654L137.34 34.362ZM149.436 21.888L154.35 23.316C154.238 23.568 154.056 23.778 153.804 23.946C153.552 24.114 153.216 24.198 152.796 24.198C152.236 25.29 151.62 26.41 150.948 27.558C150.304 28.706 149.646 29.714 148.974 30.582L148.26 30.288C148.456 29.224 148.666 27.922 148.89 26.382C149.114 24.814 149.296 23.316 149.436 21.888ZM139.23 22.056C140.602 23.176 141.568 24.296 142.128 25.416C142.716 26.508 142.996 27.502 142.968 28.398C142.968 29.294 142.772 30.022 142.38 30.582C141.988 31.142 141.498 31.436 140.91 31.464C140.35 31.492 139.804 31.17 139.272 30.498C139.412 29.602 139.454 28.664 139.398 27.684C139.37 26.704 139.286 25.738 139.146 24.786C139.006 23.834 138.838 22.966 138.642 22.182L139.23 22.056ZM183.372 6.096H196.854L199.038 3.114C199.038 3.114 199.262 3.31 199.71 3.702C200.186 4.066 200.732 4.528 201.348 5.088C201.992 5.62 202.552 6.138 203.028 6.642C202.916 7.09 202.552 7.314 201.936 7.314H183.708L183.372 6.096ZM183.078 22.098H197.358L199.542 19.158C199.542 19.158 199.766 19.354 200.214 19.746C200.662 20.11 201.194 20.558 201.81 21.09C202.426 21.622 202.958 22.14 203.406 22.644C203.294 23.064 202.93 23.274 202.314 23.274H183.414L183.078 22.098ZM182.658 15.504H198.03L200.298 12.396C200.298 12.396 200.536 12.606 201.012 13.026C201.488 13.418 202.048 13.894 202.692 14.454C203.336 15.014 203.896 15.546 204.372 16.05C204.288 16.498 203.924 16.722 203.28 16.722H182.994L182.658 15.504ZM190.596 0.467999L196.854 0.971998C196.826 1.252 196.714 1.49 196.518 1.686C196.322 1.882 195.958 2.022 195.426 2.106V6.936H190.596V0.467999ZM195.384 24.576C197.092 24.912 198.436 25.388 199.416 26.004C200.424 26.592 201.124 27.222 201.516 27.894C201.936 28.538 202.118 29.168 202.062 29.784C202.006 30.372 201.782 30.862 201.39 31.254C200.998 31.646 200.508 31.856 199.92 31.884C199.36 31.912 198.772 31.674 198.156 31.17C198.072 30.442 197.862 29.686 197.526 28.902C197.218 28.118 196.84 27.376 196.392 26.676C195.944 25.976 195.482 25.36 195.006 24.828L195.384 24.576ZM186.732 7.272C188.188 7.916 189.294 8.616 190.05 9.372C190.834 10.1 191.338 10.828 191.562 11.556C191.814 12.284 191.856 12.928 191.688 13.488C191.548 14.048 191.254 14.496 190.806 14.832C190.386 15.14 189.91 15.28 189.378 15.252C188.846 15.196 188.314 14.888 187.782 14.328C187.81 13.18 187.656 11.99 187.32 10.758C187.012 9.498 186.662 8.406 186.27 7.482L186.732 7.272ZM195.678 7.146L201.432 8.91C201.348 9.134 201.18 9.33 200.928 9.498C200.704 9.638 200.354 9.694 199.878 9.666C199.234 10.59 198.408 11.626 197.4 12.774C196.42 13.922 195.398 14.972 194.334 15.924H193.704C193.956 15.112 194.208 14.188 194.46 13.152C194.74 12.116 194.978 11.08 195.174 10.044C195.398 8.98 195.566 8.014 195.678 7.146ZM189.756 22.098H194.88V22.77C193.788 25.542 192.206 28.076 190.134 30.372C188.09 32.64 185.71 34.6 182.994 36.252L182.532 35.748C183.68 34.516 184.716 33.158 185.64 31.674C186.564 30.162 187.362 28.58 188.034 26.928C188.734 25.276 189.308 23.666 189.756 22.098ZM206.556 15.252H215.124L217.812 11.556C217.812 11.556 217.966 11.696 218.274 11.976C218.61 12.256 219.03 12.62 219.534 13.068C220.038 13.488 220.556 13.936 221.088 14.412C221.648 14.888 222.152 15.336 222.6 15.756C222.572 15.98 222.446 16.148 222.222 16.26C222.026 16.372 221.774 16.428 221.466 16.428H206.556V15.252ZM204.372 3.744L210.252 5.592C210.14 5.9 209.762 6.096 209.118 6.18V17.94C209.118 19.844 209.006 21.79 208.782 23.778C208.586 25.766 208.138 27.726 207.438 29.658C206.766 31.562 205.716 33.368 204.288 35.076C202.86 36.784 200.914 38.324 198.45 39.696L198.03 39.234C199.906 37.218 201.292 35.062 202.188 32.766C203.084 30.442 203.672 28.02 203.952 25.5C204.232 22.98 204.372 20.432 204.372 17.856V3.744ZM216.636 0.299999L221.802 4.416C221.55 4.64 221.214 4.766 220.794 4.794C220.402 4.822 219.884 4.738 219.24 4.542C218.26 4.878 217.112 5.2 215.796 5.508C214.508 5.816 213.136 6.096 211.68 6.348C210.224 6.572 208.782 6.754 207.354 6.894L207.186 6.348C208.306 5.844 209.468 5.242 210.672 4.542C211.876 3.814 213.01 3.086 214.074 2.358C215.138 1.602 215.992 0.915998 216.636 0.299999ZM213.108 15.252H217.98V38.352C217.952 38.492 217.588 38.758 216.888 39.15C216.188 39.542 215.208 39.738 213.948 39.738H213.108V15.252ZM190.47 17.352L196.518 17.898C196.49 18.15 196.378 18.374 196.182 18.57C195.986 18.766 195.65 18.892 195.174 18.948V38.436C195.174 38.548 194.978 38.716 194.586 38.94C194.194 39.164 193.704 39.346 193.116 39.486C192.528 39.654 191.94 39.738 191.352 39.738H190.47V17.352ZM234.276 35.202H261.408V36.378H234.276V35.202ZM231.546 11.892V9.792L236.712 11.892H261.408V13.11H236.334V38.058C236.334 38.226 236.138 38.436 235.746 38.688C235.382 38.968 234.892 39.206 234.276 39.402C233.66 39.626 233.002 39.738 232.302 39.738H231.546V11.892ZM259.224 11.892H258.804L261.072 9.33L265.776 13.026C265.636 13.194 265.426 13.362 265.146 13.53C264.866 13.67 264.502 13.782 264.054 13.866V38.016C264.054 38.128 263.83 38.296 263.382 38.52C262.934 38.744 262.388 38.94 261.744 39.108C261.128 39.304 260.54 39.402 259.98 39.402H259.224V11.892ZM228.144 5.256H239.022V0.341998L245.322 0.887999C245.294 1.168 245.182 1.406 244.986 1.602C244.79 1.798 244.412 1.924 243.852 1.98V5.256H251.37V0.341998L257.754 0.887999C257.726 1.168 257.614 1.406 257.418 1.602C257.222 1.798 256.844 1.924 256.284 1.98V5.256H260.442L262.962 1.98C262.962 1.98 263.102 2.106 263.382 2.358C263.69 2.582 264.082 2.89 264.558 3.282C265.034 3.674 265.524 4.094 266.028 4.542C266.532 4.99 266.994 5.41 267.414 5.802C267.302 6.25 266.924 6.474 266.28 6.474H256.284V9.246C256.284 9.442 255.878 9.666 255.066 9.918C254.282 10.17 253.316 10.31 252.168 10.338H251.37V6.474H243.852V9.414C243.852 9.638 243.446 9.876 242.634 10.128C241.822 10.38 240.884 10.506 239.82 10.506H239.022V6.474H228.438L228.144 5.256ZM237.048 21.51H252.84L254.898 18.822C254.898 18.822 255.108 19.004 255.528 19.368C255.976 19.704 256.494 20.124 257.082 20.628C257.698 21.132 258.244 21.594 258.72 22.014C258.608 22.462 258.244 22.686 257.628 22.686H237.384L237.048 21.51ZM244.566 21.51H249.27V22.182C248.066 24.394 246.386 26.354 244.23 28.062C242.074 29.77 239.638 31.226 236.922 32.43L236.502 31.842C238.35 30.526 239.96 28.958 241.332 27.138C242.704 25.318 243.782 23.442 244.566 21.51ZM249.9 16.596V32.976C249.9 33.088 249.578 33.326 248.934 33.69C248.29 34.026 247.422 34.194 246.33 34.194H245.574V17.184L249.9 16.596ZM249.9 24.324C251.748 24.576 253.232 24.968 254.352 25.5C255.5 26.004 256.34 26.592 256.872 27.264C257.404 27.908 257.698 28.538 257.754 29.154C257.81 29.77 257.684 30.302 257.376 30.75C257.096 31.17 256.69 31.436 256.158 31.548C255.626 31.632 255.024 31.464 254.352 31.044C254.156 30.288 253.792 29.518 253.26 28.734C252.728 27.95 252.126 27.208 251.454 26.508C250.81 25.78 250.166 25.164 249.522 24.66L249.9 24.324ZM253.008 13.572L256.83 17.31C256.354 17.73 255.556 17.702 254.436 17.226C253.064 17.478 251.468 17.716 249.648 17.94C247.828 18.136 245.938 18.304 243.978 18.444C242.018 18.584 240.1 18.654 238.224 18.654L238.056 17.982C239.82 17.674 241.64 17.268 243.516 16.764C245.392 16.26 247.17 15.728 248.85 15.168C250.53 14.608 251.916 14.076 253.008 13.572ZM287.742 8.868H306.39L308.826 5.802C308.826 5.802 309.078 5.998 309.582 6.39C310.086 6.782 310.674 7.258 311.346 7.818C312.046 8.378 312.662 8.91 313.194 9.414C313.11 9.862 312.732 10.086 312.06 10.086H288.078L287.742 8.868ZM288.96 31.002H305.466L307.776 27.978C307.776 27.978 308.014 28.174 308.49 28.566C308.966 28.93 309.54 29.392 310.212 29.952C310.912 30.512 311.514 31.03 312.018 31.506C311.934 31.954 311.57 32.178 310.926 32.178H289.296L288.96 31.002ZM286.692 37.008H306.81L309.246 33.816C309.246 33.816 309.4 33.942 309.708 34.194C310.016 34.418 310.394 34.726 310.842 35.118C311.29 35.482 311.766 35.874 312.27 36.294C312.802 36.714 313.264 37.12 313.656 37.512C313.544 37.96 313.166 38.184 312.522 38.184H287.028L286.692 37.008ZM306.936 0.425997L311.598 4.878C311.346 5.046 310.982 5.144 310.506 5.172C310.058 5.2 309.526 5.088 308.91 4.836C307.202 5.088 305.2 5.312 302.904 5.508C300.636 5.704 298.27 5.858 295.806 5.97C293.37 6.082 291.004 6.124 288.708 6.096L288.624 5.466C290.192 5.214 291.83 4.892 293.538 4.5C295.246 4.08 296.926 3.646 298.578 3.198C300.23 2.722 301.77 2.246 303.198 1.77C304.654 1.294 305.9 0.845999 306.936 0.425997ZM292.068 19.2H308.154V20.376H292.068V19.2ZM292.068 25.122H308.322V26.34H292.068V25.122ZM297.78 4.206H302.274V37.596H297.78V4.206ZM289.758 13.53V11.682L294.336 13.53H307.734V14.706H294.084V27.558C294.084 27.698 293.902 27.88 293.538 28.104C293.202 28.3 292.74 28.482 292.152 28.65C291.592 28.818 291.004 28.902 290.388 28.902H289.758V13.53ZM306.39 13.53H305.97L308.07 11.262L312.438 14.58C312.326 14.72 312.13 14.86 311.85 15C311.598 15.14 311.276 15.252 310.884 15.336V27.096C310.884 27.18 310.674 27.32 310.254 27.516C309.834 27.712 309.33 27.88 308.742 28.02C308.182 28.16 307.65 28.23 307.146 28.23H306.39V13.53ZM273.42 13.446H284.424L286.566 10.38C286.566 10.38 286.776 10.59 287.196 11.01C287.644 11.402 288.162 11.878 288.75 12.438C289.366 12.97 289.898 13.488 290.346 13.992C290.234 14.44 289.856 14.664 289.212 14.664H273.756L273.42 13.446ZM279.006 13.572H283.878V14.244C283.01 17.856 281.68 21.188 279.888 24.24C278.124 27.292 275.912 30.022 273.252 32.43L272.706 31.968C273.77 30.288 274.708 28.426 275.52 26.382C276.36 24.338 277.06 22.224 277.62 20.04C278.208 17.828 278.67 15.672 279.006 13.572ZM279.384 6.012L283.878 4.206V38.394C283.878 38.562 283.542 38.828 282.87 39.192C282.198 39.556 281.302 39.738 280.182 39.738H279.384V6.012ZM283.878 18.066C285.446 18.626 286.664 19.256 287.532 19.956C288.428 20.656 289.03 21.356 289.338 22.056C289.674 22.756 289.786 23.4 289.674 23.988C289.59 24.576 289.352 25.038 288.96 25.374C288.568 25.71 288.092 25.878 287.532 25.878C287 25.85 286.454 25.584 285.894 25.08C285.838 24.324 285.67 23.54 285.39 22.728C285.138 21.916 284.844 21.132 284.508 20.376C284.172 19.592 283.808 18.892 283.416 18.276L283.878 18.066ZM285.012 0.803998L290.43 5.298C290.178 5.522 289.828 5.648 289.38 5.676C288.932 5.704 288.386 5.62 287.742 5.424C286.538 5.788 285.124 6.152 283.5 6.516C281.904 6.88 280.224 7.202 278.46 7.482C276.696 7.734 274.96 7.944 273.252 8.112L273.126 7.608C274.526 7.048 275.982 6.376 277.494 5.592C279.006 4.78 280.42 3.954 281.736 3.114C283.08 2.274 284.172 1.504 285.012 0.803998ZM338.478 36.546C337.554 36.546 336.784 36.238 336.168 35.622C335.552 35.006 335.244 34.278 335.244 33.438C335.244 32.542 335.552 31.786 336.168 31.17C336.784 30.526 337.554 30.204 338.478 30.204C339.402 30.204 340.172 30.526 340.788 31.17C341.404 31.786 341.712 32.542 341.712 33.438C341.712 34.278 341.404 35.006 340.788 35.622C340.172 36.238 339.402 36.546 338.478 36.546ZM337.848 26.256L337.05 19.62C336.63 17.268 336.294 15.322 336.042 13.782C335.818 12.214 335.65 10.912 335.538 9.876C335.454 8.84 335.412 7.958 335.412 7.23C335.412 6.054 335.706 5.172 336.294 4.584C336.882 3.996 337.61 3.702 338.478 3.702C339.346 3.702 340.074 3.996 340.662 4.584C341.25 5.172 341.544 6.054 341.544 7.23C341.544 7.958 341.488 8.84 341.376 9.876C341.292 10.912 341.138 12.214 340.914 13.782C340.69 15.322 340.368 17.268 339.948 19.62L339.108 26.256H337.848Z" fill="white"/>
</svg>
