<svg width="289" height="31" viewBox="0 0 289 31" fill="none" xmlns="http://www.w3.org/2000/svg">
<path d="M24.6077 8.416H24.2877L25.9837 6.56L29.5677 9.28C29.4611 9.408 29.3011 9.536 29.0877 9.664C28.8744 9.77067 28.5971 9.856 28.2557 9.92V18.464C28.2557 18.5493 28.0851 18.6773 27.7437 18.848C27.4024 18.9973 26.9971 19.1467 26.5277 19.296C26.0584 19.424 25.6211 19.488 25.2157 19.488H24.6077V8.416ZM12.4157 17.248H26.1757V18.144H12.4157V17.248ZM12.4157 12.736H26.1757V13.632H12.4157V12.736ZM10.8157 8.416V6.912L14.5917 8.416H26.3357V9.344H14.3997V18.976C14.3997 19.0827 14.2397 19.232 13.9197 19.424C13.6211 19.5947 13.2371 19.7547 12.7677 19.904C12.3197 20.032 11.8397 20.096 11.3277 20.096H10.8157V8.416ZM17.6317 0.768L22.4637 1.248C22.4211 1.46133 22.3144 1.65333 22.1437 1.824C21.9944 1.97333 21.7064 2.08 21.2797 2.144V25.024C21.2797 25.152 21.1304 25.312 20.8317 25.504C20.5331 25.6747 20.1491 25.8347 19.6797 25.984C19.2317 26.1333 18.7731 26.208 18.3037 26.208H17.6317V0.768ZM8.03174 24.16C8.60774 24.736 9.19441 25.2053 9.79174 25.568C10.4104 25.9093 11.1037 26.176 11.8717 26.368C12.6611 26.5387 13.5891 26.656 14.6557 26.72C15.7224 26.784 17.0024 26.816 18.4957 26.816C19.7117 26.816 21.0451 26.816 22.4957 26.816C23.9464 26.816 25.4184 26.8053 26.9117 26.784C28.4051 26.7627 29.8131 26.7307 31.1357 26.688V27.072C29.6851 27.4347 28.8851 28.4587 28.7357 30.144C27.7757 30.144 26.7091 30.144 25.5357 30.144C24.3837 30.144 23.1997 30.144 21.9837 30.144C20.7891 30.144 19.6371 30.144 18.5277 30.144C16.9917 30.144 15.6584 30.0693 14.5277 29.92C13.4184 29.7707 12.4477 29.504 11.6157 29.12C10.7837 28.736 10.0477 28.192 9.40774 27.488C8.78908 26.7627 8.21308 25.8347 7.67974 24.704C7.25308 25.28 6.77308 25.9093 6.23974 26.592C5.70641 27.2533 5.17308 27.8827 4.63974 28.48C4.10641 29.0987 3.63708 29.632 3.23174 30.08C3.23174 30.272 3.18908 30.432 3.10374 30.56C3.01841 30.688 2.90108 30.784 2.75174 30.848L0.735744 26.816C1.35441 26.5813 2.07974 26.2933 2.91174 25.952C3.76508 25.5893 4.63974 25.2053 5.53574 24.8C6.45308 24.3733 7.28508 23.9893 8.03174 23.648V24.16ZM8.03174 16.192V24.096L4.54374 26.016V15.712H0.895744L0.703744 14.816H4.06374L5.85574 12.416L9.69574 15.52C9.56774 15.648 9.37574 15.776 9.11974 15.904C8.86374 16.032 8.50108 16.128 8.03174 16.192ZM1.59974 1.792C3.17841 2.09066 4.42641 2.50666 5.34374 3.04C6.26108 3.57333 6.91174 4.14933 7.29574 4.768C7.70108 5.36533 7.88241 5.952 7.83974 6.528C7.81841 7.104 7.63708 7.584 7.29574 7.968C6.97574 8.33067 6.55974 8.53333 6.04774 8.576C5.53574 8.61867 4.98108 8.42667 4.38374 8C4.27708 7.27467 4.06374 6.54933 3.74374 5.824C3.42374 5.09867 3.05041 4.40533 2.62374 3.744C2.19708 3.08267 1.75974 2.496 1.31174 1.984L1.59974 1.792ZM9.02374 4.768H24.7997L26.8157 2.304C26.8157 2.304 26.9331 2.4 27.1677 2.592C27.4237 2.76267 27.7331 2.99733 28.0957 3.296C28.4797 3.57333 28.8744 3.88266 29.2797 4.224C29.7064 4.56533 30.0904 4.87466 30.4317 5.152C30.4104 5.32267 30.3144 5.45067 30.1437 5.536C29.9944 5.62133 29.8024 5.664 29.5677 5.664H9.27974L9.02374 4.768ZM8.67174 21.696H25.3117L27.2957 19.232C27.2957 19.232 27.4131 19.328 27.6477 19.52C27.9037 19.6907 28.2237 19.9253 28.6077 20.224C28.9917 20.5013 29.3864 20.8107 29.7917 21.152C30.2184 21.472 30.6131 21.7813 30.9757 22.08C30.8904 22.4213 30.5917 22.592 30.0797 22.592H8.92774L8.67174 21.696ZM49.3757 5.056V3.616L53.1837 5.056H60.3197L62.0157 3.136L65.3117 5.6C65.2051 5.74933 65.0557 5.87733 64.8637 5.984C64.6931 6.06933 64.4264 6.144 64.0637 6.208V14.88C64.0637 14.944 63.7864 15.0933 63.2317 15.328C62.6984 15.5413 61.9731 15.648 61.0557 15.648H60.4157V5.984H52.8637V15.328C52.8637 15.456 52.6077 15.6267 52.0957 15.84C51.5837 16.0533 50.8797 16.16 49.9837 16.16H49.3757V5.056ZM51.4557 9.376H62.4317V10.272H51.4557V9.376ZM51.4237 13.76H62.4637V14.656H51.4237V13.76ZM58.1757 13.76C58.6024 16.0427 59.2317 17.9413 60.0637 19.456C60.9171 20.9493 61.9091 22.1547 63.0397 23.072C64.1917 23.968 65.3651 24.6933 66.5597 25.248L66.4957 25.6C65.8344 25.7707 65.2477 26.1653 64.7357 26.784C64.2451 27.4027 63.9037 28.1493 63.7117 29.024C62.5811 27.936 61.6317 26.7413 60.8637 25.44C60.1171 24.1173 59.5091 22.528 59.0397 20.672C58.5704 18.816 58.2077 16.5547 57.9517 13.888L58.1757 13.76ZM47.4557 18.656H53.1517V19.552H47.7437L47.4557 18.656ZM51.2637 18.656H50.9757L52.6077 17.024L55.5197 19.424C55.3491 19.6587 54.9544 19.7973 54.3357 19.84C53.8024 21.6747 52.8957 23.4027 51.6157 25.024C50.3571 26.6453 48.6824 27.9787 46.5917 29.024L46.3037 28.608C47.2851 27.7973 48.1064 26.848 48.7677 25.76C49.4504 24.672 49.9944 23.52 50.3997 22.304C50.8264 21.0667 51.1144 19.8507 51.2637 18.656ZM40.7677 15.584L44.1917 15.296V29.92C44.1917 30.0053 43.9357 30.1867 43.4237 30.464C42.9331 30.7413 42.2504 30.88 41.3757 30.88H40.7677V15.584ZM40.3517 0.799999L45.0237 2.336C44.9597 2.528 44.8211 2.688 44.6077 2.816C44.3944 2.944 44.1171 3.008 43.7757 3.008C43.0504 3.968 42.2611 4.91733 41.4077 5.856C40.5544 6.77333 39.7224 7.56267 38.9117 8.224L38.4637 7.968C38.7624 7.09333 39.0824 5.99467 39.4237 4.672C39.7651 3.34933 40.0744 2.05867 40.3517 0.799999ZM44.1597 4.736L48.4797 6.624C48.3944 6.79467 48.2451 6.93333 48.0317 7.04C47.8184 7.12533 47.5304 7.14667 47.1677 7.104C46.5704 7.95733 45.8237 8.928 44.9277 10.016C44.0531 11.0827 43.1144 12.1707 42.1117 13.28C41.1304 14.368 40.1597 15.3813 39.1997 16.32H38.6877C39.3064 15.2107 39.9464 13.9733 40.6077 12.608C41.2904 11.2427 41.9411 9.87733 42.5597 8.512C43.1784 7.12533 43.7117 5.86667 44.1597 4.736ZM35.8717 14.88C36.5331 14.88 37.4397 14.8693 38.5917 14.848C39.7651 14.8267 41.0771 14.7947 42.5277 14.752C43.9997 14.7093 45.5037 14.656 47.0397 14.592L47.0717 15.072C46.0691 15.392 44.8211 15.776 43.3277 16.224C41.8557 16.6507 40.0744 17.152 37.9837 17.728C37.8771 17.9413 37.7384 18.1013 37.5677 18.208C37.3971 18.2933 37.2264 18.3573 37.0557 18.4L35.8717 14.88ZM36.1277 6.176C37.4077 6.38933 38.4211 6.70933 39.1677 7.136C39.9144 7.56267 40.4371 8.02133 40.7357 8.512C41.0344 8.98133 41.1624 9.44 41.1197 9.888C41.0984 10.336 40.9384 10.7093 40.6397 11.008C40.3624 11.3067 39.9997 11.4773 39.5517 11.52C39.1251 11.5413 38.6771 11.3813 38.2077 11.04C38.0797 10.2293 37.7704 9.39733 37.2797 8.544C36.8104 7.66933 36.3304 6.944 35.8397 6.368L36.1277 6.176ZM44.3517 11.648C45.5464 12.16 46.4637 12.7147 47.1037 13.312C47.7651 13.888 48.2024 14.464 48.4157 15.04C48.6504 15.616 48.7144 16.1387 48.6077 16.608C48.5011 17.0773 48.2877 17.4507 47.9677 17.728C47.6477 18.0053 47.2744 18.1333 46.8477 18.112C46.4211 18.0907 45.9837 17.856 45.5357 17.408C45.5357 16.7893 45.4611 16.1493 45.3117 15.488C45.1624 14.8053 44.9704 14.144 44.7357 13.504C44.5011 12.864 44.2557 12.2987 43.9997 11.808L44.3517 11.648ZM44.7997 19.168C45.8877 19.68 46.7197 20.2347 47.2957 20.832C47.8717 21.4293 48.2451 22.0053 48.4157 22.56C48.6077 23.1147 48.6504 23.616 48.5437 24.064C48.4371 24.512 48.2237 24.864 47.9037 25.12C47.5837 25.3547 47.2211 25.4613 46.8157 25.44C46.4317 25.3973 46.0264 25.1733 45.5997 24.768C45.6424 24.1493 45.5997 23.52 45.4717 22.88C45.3651 22.2187 45.2157 21.5787 45.0237 20.96C44.8531 20.3413 44.6611 19.7867 44.4477 19.296L44.7997 19.168ZM37.3757 19.392L41.4397 20.224C41.3971 20.4373 41.2797 20.6187 41.0877 20.768C40.9171 20.896 40.6611 20.96 40.3197 20.96C39.8717 22.4747 39.3064 23.8827 38.6237 25.184C37.9624 26.464 37.1837 27.5413 36.2877 28.416L35.8077 28.16C36.2344 26.9867 36.5864 25.6213 36.8637 24.064C37.1411 22.5067 37.3117 20.9493 37.3757 19.392ZM54.6237 0.831999L59.8077 1.6C59.6797 2.112 59.2637 2.38933 58.5597 2.432C58.2611 2.73067 57.8984 3.06133 57.4717 3.424C57.0664 3.78667 56.6611 4.14933 56.2557 4.512C55.8504 4.85333 55.4877 5.16267 55.1677 5.44H54.1437C54.2291 4.864 54.3144 4.128 54.3997 3.232C54.4851 2.31467 54.5597 1.51467 54.6237 0.831999ZM62.5597 15.68L66.3357 18.272C66.2717 18.4 66.1331 18.496 65.9197 18.56C65.7064 18.624 65.4397 18.6027 65.1197 18.496C64.5864 18.8373 63.8504 19.264 62.9117 19.776C61.9731 20.2667 61.0557 20.704 60.1597 21.088L59.9037 20.864C60.2237 20.352 60.5544 19.776 60.8957 19.136C61.2371 18.496 61.5571 17.8667 61.8557 17.248C62.1544 16.6293 62.3891 16.1067 62.5597 15.68ZM54.7517 13.76H58.1117V26.656C58.1117 27.424 58.0157 28.096 57.8237 28.672C57.6531 29.2693 57.2584 29.7493 56.6397 30.112C56.0424 30.4747 55.1357 30.7093 53.9197 30.816C53.8984 30.304 53.8451 29.8453 53.7597 29.44C53.6957 29.056 53.5677 28.736 53.3757 28.48C53.1837 28.2453 52.9171 28.032 52.5757 27.84C52.2344 27.648 51.7224 27.4987 51.0397 27.392V26.976C51.0397 26.976 51.1677 26.9867 51.4237 27.008C51.7011 27.0293 52.0211 27.0507 52.3837 27.072C52.7464 27.072 53.0984 27.0827 53.4397 27.104C53.7811 27.1253 54.0264 27.136 54.1757 27.136C54.3891 27.136 54.5384 27.0933 54.6237 27.008C54.7091 26.9013 54.7517 26.7627 54.7517 26.592V13.76ZM96.3197 17.344V18.272H74.9437V17.344H96.3197ZM94.9757 7.904L96.7997 5.888L100.576 8.768C100.49 8.896 100.33 9.024 100.096 9.152C99.8824 9.28 99.6157 9.376 99.2957 9.44V20C99.2957 20.0853 99.1037 20.2027 98.7197 20.352C98.3357 20.48 97.8877 20.608 97.3757 20.736C96.8637 20.864 96.3944 20.928 95.9677 20.928H95.2957V7.904H94.9757ZM76.9597 20.128C76.9597 20.256 76.7891 20.4267 76.4477 20.64C76.1277 20.8533 75.7117 21.0453 75.1997 21.216C74.6877 21.3653 74.1544 21.44 73.5997 21.44H73.0237V7.872V6.208L77.2797 7.872H96.1277V8.8H76.9597V20.128ZM89.2797 1.344C89.2584 1.55733 89.1624 1.74933 88.9917 1.92C88.8424 2.09067 88.5437 2.208 88.0957 2.272V29.44C88.0957 29.568 87.9357 29.7493 87.6157 29.984C87.2957 30.2187 86.8797 30.4213 86.3677 30.592C85.8771 30.7627 85.3757 30.848 84.8637 30.848H84.0957V0.831999L89.2797 1.344ZM119.2 4.256H130.88L132.672 1.92C132.672 1.92 132.864 2.06933 133.248 2.368C133.632 2.66666 134.069 3.02933 134.56 3.456C135.072 3.88267 135.541 4.288 135.968 4.672C135.882 5.01333 135.594 5.184 135.104 5.184H119.424L119.2 4.256ZM120.032 7.776H130.56L132.224 5.632C132.224 5.632 132.394 5.77066 132.736 6.048C133.098 6.32533 133.514 6.66667 133.984 7.072C134.474 7.456 134.912 7.82933 135.296 8.192C135.21 8.53333 134.922 8.704 134.432 8.704H120.288L120.032 7.776ZM118.336 11.456H131.552L133.376 9.12C133.376 9.12 133.557 9.26933 133.92 9.568C134.304 9.86667 134.752 10.2293 135.264 10.656C135.776 11.0613 136.234 11.456 136.64 11.84C136.576 12.1813 136.288 12.352 135.776 12.352H118.592L118.336 11.456ZM120.608 14.784V13.28L124.288 14.784H132.192V15.68H124.128V29.536C124.128 29.664 123.978 29.8133 123.68 29.984C123.402 30.176 123.029 30.3467 122.56 30.496C122.112 30.6453 121.642 30.72 121.152 30.72H120.608V14.784ZM122.528 18.592H132.288V19.52H122.528V18.592ZM122.528 22.528H132.288V23.424H122.528V22.528ZM130.592 14.784H130.272L131.872 12.96L135.424 15.616C135.338 15.7227 135.189 15.84 134.976 15.968C134.784 16.0747 134.538 16.16 134.24 16.224V26.56C134.24 27.3707 134.144 28.0747 133.952 28.672C133.76 29.2693 133.344 29.7387 132.704 30.08C132.085 30.4427 131.114 30.688 129.792 30.816C129.77 30.2187 129.717 29.696 129.632 29.248C129.546 28.8213 129.408 28.4693 129.216 28.192C129.024 27.9147 128.757 27.68 128.416 27.488C128.096 27.296 127.616 27.136 126.976 27.008V26.56C126.976 26.56 127.104 26.5707 127.36 26.592C127.616 26.6133 127.925 26.6347 128.288 26.656C128.65 26.6773 128.992 26.6987 129.312 26.72C129.632 26.72 129.866 26.72 130.016 26.72C130.25 26.72 130.4 26.6773 130.464 26.592C130.549 26.4853 130.592 26.336 130.592 26.144V14.784ZM125.216 1.024L130.048 1.408C130.026 1.62133 129.93 1.81333 129.76 1.984C129.61 2.13333 129.322 2.24 128.896 2.304V11.968H125.216V1.024ZM107.776 3.2H113.216L114.88 1.024C114.88 1.024 115.05 1.16267 115.392 1.44C115.733 1.71733 116.138 2.05867 116.608 2.464C117.098 2.86933 117.536 3.24267 117.92 3.584C117.834 3.92533 117.546 4.096 117.056 4.096H108.032L107.776 3.2ZM107.712 11.392H113.472L115.104 9.28C115.104 9.28 115.264 9.41867 115.584 9.696C115.904 9.97333 116.288 10.304 116.736 10.688C117.205 11.072 117.621 11.4453 117.984 11.808C117.898 12.128 117.621 12.288 117.152 12.288H107.968L107.712 11.392ZM107.712 15.552H113.472L115.104 13.44C115.104 13.44 115.264 13.5787 115.584 13.856C115.904 14.1333 116.288 14.464 116.736 14.848C117.205 15.232 117.621 15.6053 117.984 15.968C117.898 16.288 117.621 16.448 117.152 16.448H107.968L107.712 15.552ZM106.176 7.232H114.624L116.32 5.056C116.32 5.056 116.49 5.19467 116.832 5.472C117.173 5.74933 117.578 6.09067 118.048 6.496C118.517 6.90133 118.944 7.28533 119.328 7.648C119.264 7.98933 118.976 8.16 118.464 8.16H106.432L106.176 7.232ZM107.712 19.872V18.496L111.136 19.872H115.968V20.8H111.008V29.792C111.008 29.8773 110.869 30.0053 110.592 30.176C110.314 30.3467 109.962 30.496 109.536 30.624C109.109 30.7733 108.661 30.848 108.192 30.848H107.712V19.872ZM114.176 19.872H113.888L115.456 18.208L118.72 20.704C118.634 20.8107 118.485 20.928 118.272 21.056C118.058 21.1627 117.802 21.2373 117.504 21.28V28.672C117.504 28.7573 117.344 28.8747 117.024 29.024C116.725 29.1733 116.362 29.312 115.936 29.44C115.53 29.568 115.125 29.632 114.72 29.632H114.176V19.872ZM109.408 26.816H115.872V27.744H109.408V26.816ZM160.512 0.863998L165.248 1.28C165.226 1.49333 165.13 1.68533 164.96 1.856C164.789 2.00533 164.501 2.112 164.096 2.176V11.328H160.512V0.863998ZM165.216 2.912C166.73 3.31733 167.936 3.81867 168.832 4.416C169.749 5.01333 170.41 5.632 170.816 6.272C171.221 6.912 171.424 7.52 171.424 8.096C171.424 8.65067 171.285 9.10933 171.008 9.472C170.73 9.83467 170.357 10.0373 169.888 10.08C169.418 10.1227 168.917 9.952 168.384 9.568C168.234 8.82133 167.978 8.064 167.616 7.296C167.253 6.50667 166.826 5.74933 166.336 5.024C165.866 4.29867 165.386 3.65867 164.896 3.104L165.216 2.912ZM156.288 2.528L160.704 4.576C160.64 4.74667 160.512 4.87467 160.32 4.96C160.149 5.04533 159.882 5.06667 159.52 5.024C158.837 6.048 157.962 7.09333 156.896 8.16C155.829 9.20533 154.634 10.08 153.312 10.784L153.024 10.464C153.578 9.71733 154.069 8.87467 154.496 7.936C154.944 6.99733 155.317 6.05867 155.616 5.12C155.914 4.16 156.138 3.296 156.288 2.528ZM156.64 16.288H167.36V17.184H156.64V16.288ZM156.64 21.76H167.36V22.656H156.64V21.76ZM155.168 10.976V9.504L158.752 10.976H167.264V11.872H158.592V29.568C158.592 29.696 158.453 29.856 158.176 30.048C157.92 30.24 157.568 30.4107 157.12 30.56C156.693 30.7093 156.224 30.784 155.712 30.784H155.168V10.976ZM165.92 10.976H165.6L167.264 9.12L170.784 11.84C170.677 11.968 170.506 12.096 170.272 12.224C170.058 12.352 169.781 12.4373 169.44 12.48V26.656C169.44 27.4453 169.344 28.128 169.152 28.704C168.96 29.3013 168.533 29.7707 167.872 30.112C167.232 30.4747 166.229 30.72 164.864 30.848C164.821 30.272 164.746 29.7813 164.64 29.376C164.554 28.9707 164.394 28.6293 164.16 28.352C163.925 28.096 163.605 27.872 163.2 27.68C162.794 27.4667 162.208 27.296 161.44 27.168V26.72C161.44 26.72 161.6 26.7307 161.92 26.752C162.24 26.7733 162.624 26.7947 163.072 26.816C163.52 26.8373 163.946 26.8587 164.352 26.88C164.757 26.9013 165.066 26.912 165.28 26.912C165.536 26.912 165.706 26.8587 165.792 26.752C165.877 26.6453 165.92 26.4853 165.92 26.272V10.976ZM141.6 10.912H150.08L151.68 8.576C151.68 8.576 151.84 8.72533 152.16 9.024C152.501 9.32266 152.896 9.68533 153.344 10.112C153.813 10.5387 154.218 10.9333 154.56 11.296C154.474 11.6373 154.197 11.808 153.728 11.808H141.856L141.6 10.912ZM145.856 10.912H149.536V11.424C148.896 14.1547 147.893 16.6827 146.528 19.008C145.162 21.3333 143.466 23.4027 141.44 25.216L141.056 24.832C141.866 23.5733 142.581 22.176 143.2 20.64C143.818 19.0827 144.341 17.472 144.768 15.808C145.216 14.144 145.578 12.512 145.856 10.912ZM146.144 5.152L149.568 3.776V29.824C149.568 29.952 149.312 30.1547 148.8 30.432C148.288 30.7093 147.605 30.848 146.752 30.848H146.144V5.152ZM149.568 14.432C150.784 14.8587 151.722 15.3387 152.384 15.872C153.045 16.4053 153.493 16.9387 153.728 17.472C153.984 17.984 154.08 18.464 154.016 18.912C153.952 19.3387 153.77 19.6907 153.472 19.968C153.173 20.224 152.81 20.352 152.384 20.352C151.978 20.3307 151.562 20.128 151.136 19.744C151.093 19.168 150.965 18.5707 150.752 17.952C150.56 17.3333 150.325 16.736 150.048 16.16C149.792 15.584 149.514 15.0613 149.216 14.592L149.568 14.432ZM150.304 1.184L154.432 4.608C154.24 4.77867 153.973 4.87466 153.632 4.896C153.29 4.91733 152.874 4.85333 152.384 4.704C151.488 4.98133 150.432 5.25867 149.216 5.536C148.021 5.792 146.762 6.02667 145.44 6.24C144.138 6.45333 142.848 6.60267 141.568 6.688L141.44 6.336C142.506 5.888 143.605 5.36533 144.736 4.768C145.866 4.17067 146.922 3.56267 147.904 2.944C148.885 2.304 149.685 1.71733 150.304 1.184ZM188.672 20.096H201.088L203.072 17.568C203.072 17.568 203.189 17.664 203.424 17.856C203.68 18.048 204 18.2933 204.384 18.592C204.768 18.8907 205.162 19.2107 205.568 19.552C205.994 19.872 206.378 20.192 206.72 20.512C206.634 20.8533 206.336 21.024 205.824 21.024H188.928L188.672 20.096ZM188.736 9.088H202.432L204.096 6.496C204.096 6.496 204.192 6.592 204.384 6.784C204.597 6.976 204.864 7.232 205.184 7.552C205.504 7.85067 205.824 8.18133 206.144 8.544C206.485 8.88533 206.784 9.19467 207.04 9.472C206.976 9.81333 206.698 9.984 206.208 9.984H188.992L188.736 9.088ZM191.616 9.952L196.224 11.328C196.096 11.7547 195.69 11.968 195.008 11.968C194.261 13.5467 193.376 14.944 192.352 16.16C191.328 17.376 190.218 18.368 189.024 19.136L188.608 18.88C189.269 17.7707 189.866 16.4267 190.4 14.848C190.933 13.2693 191.338 11.6373 191.616 9.952ZM195.136 14.208H198.88C198.816 15.7867 198.72 17.2693 198.592 18.656C198.464 20.0213 198.197 21.2907 197.792 22.464C197.386 23.6373 196.746 24.736 195.872 25.76C195.018 26.7627 193.845 27.68 192.352 28.512C190.88 29.344 189.002 30.1013 186.72 30.784L186.432 30.304C188.181 29.5147 189.6 28.672 190.688 27.776C191.797 26.88 192.65 25.9413 193.248 24.96C193.845 23.9573 194.272 22.9013 194.528 21.792C194.805 20.6613 194.965 19.4667 195.008 18.208C195.072 16.9493 195.114 15.616 195.136 14.208ZM190.208 2.944H200.704V3.84H190.496L190.208 2.944ZM198.752 2.944H198.432L200.16 1.12L203.648 3.712C203.562 3.81867 203.402 3.936 203.168 4.064C202.954 4.192 202.677 4.288 202.336 4.352V9.664H198.752V2.944ZM198.624 20.224C198.88 21.056 199.349 21.888 200.032 22.72C200.714 23.552 201.642 24.3307 202.816 25.056C204.01 25.7813 205.461 26.3893 207.168 26.88V27.264C206.293 27.4773 205.61 27.8293 205.12 28.32C204.65 28.832 204.384 29.6427 204.32 30.752C203.317 30.1547 202.453 29.4293 201.728 28.576C201.002 27.744 200.394 26.848 199.904 25.888C199.434 24.9067 199.061 23.936 198.784 22.976C198.506 22.016 198.304 21.1307 198.176 20.32L198.624 20.224ZM179.456 11.04L180.736 9.312L183.872 10.496C183.808 10.6453 183.69 10.7733 183.52 10.88C183.37 10.9653 183.157 11.0293 182.88 11.072V29.888C182.88 29.952 182.73 30.0587 182.432 30.208C182.133 30.3787 181.77 30.528 181.344 30.656C180.938 30.784 180.512 30.848 180.064 30.848H179.456V11.04ZM181.152 0.831999L185.984 2.336C185.92 2.528 185.781 2.688 185.568 2.816C185.376 2.944 185.098 3.008 184.736 3.008C184.138 4.992 183.434 6.88 182.624 8.672C181.813 10.464 180.917 12.1173 179.936 13.632C178.954 15.1467 177.866 16.5013 176.672 17.696L176.256 17.44C176.96 16.0533 177.621 14.4533 178.24 12.64C178.88 10.8267 179.456 8.90667 179.968 6.88C180.48 4.85333 180.874 2.83733 181.152 0.831999ZM184.64 6.24L188.992 6.624C188.97 6.83733 188.885 7.01867 188.736 7.168C188.586 7.296 188.32 7.392 187.936 7.456V24.864C187.936 24.9493 187.797 25.0773 187.52 25.248C187.264 25.3973 186.922 25.536 186.496 25.664C186.09 25.7707 185.674 25.824 185.248 25.824H184.64V6.24ZM191.904 14.208H200.16L202.08 11.744C202.08 11.744 202.197 11.84 202.432 12.032C202.688 12.2027 202.997 12.4373 203.36 12.736C203.722 13.0347 204.106 13.3547 204.512 13.696C204.917 14.016 205.28 14.3253 205.6 14.624C205.536 14.9653 205.237 15.136 204.704 15.136H191.904V14.208ZM216.32 28.512C215.573 28.512 214.944 28.256 214.432 27.744C213.941 27.232 213.696 26.624 213.696 25.92C213.696 25.216 213.941 24.608 214.432 24.096C214.944 23.5627 215.573 23.296 216.32 23.296C217.045 23.296 217.653 23.5627 218.144 24.096C218.656 24.608 218.912 25.216 218.912 25.92C218.912 26.624 218.656 27.232 218.144 27.744C217.653 28.256 217.045 28.512 216.32 28.512ZM230.238 28.512C229.492 28.512 228.862 28.256 228.35 27.744C227.86 27.232 227.614 26.624 227.614 25.92C227.614 25.216 227.86 24.608 228.35 24.096C228.862 23.5627 229.492 23.296 230.238 23.296C230.964 23.296 231.572 23.5627 232.062 24.096C232.574 24.608 232.83 25.216 232.83 25.92C232.83 26.624 232.574 27.232 232.062 27.744C231.572 28.256 230.964 28.512 230.238 28.512ZM244.157 28.512C243.411 28.512 242.781 28.256 242.269 27.744C241.779 27.232 241.533 26.624 241.533 25.92C241.533 25.216 241.779 24.608 242.269 24.096C242.781 23.5627 243.411 23.296 244.157 23.296C244.883 23.296 245.491 23.5627 245.981 24.096C246.493 24.608 246.749 25.216 246.749 25.92C246.749 26.624 246.493 27.232 245.981 27.744C245.491 28.256 244.883 28.512 244.157 28.512ZM258.076 28.512C257.329 28.512 256.7 28.256 256.188 27.744C255.697 27.232 255.452 26.624 255.452 25.92C255.452 25.216 255.697 24.608 256.188 24.096C256.7 23.5627 257.329 23.296 258.076 23.296C258.801 23.296 259.409 23.5627 259.9 24.096C260.412 24.608 260.668 25.216 260.668 25.92C260.668 26.624 260.412 27.232 259.9 27.744C259.409 28.256 258.801 28.512 258.076 28.512ZM271.995 28.512C271.248 28.512 270.619 28.256 270.107 27.744C269.616 27.232 269.371 26.624 269.371 25.92C269.371 25.216 269.616 24.608 270.107 24.096C270.619 23.5627 271.248 23.296 271.995 23.296C272.72 23.296 273.328 23.5627 273.819 24.096C274.331 24.608 274.587 25.216 274.587 25.92C274.587 26.624 274.331 27.232 273.819 27.744C273.328 28.256 272.72 28.512 271.995 28.512ZM285.914 28.512C285.167 28.512 284.538 28.256 284.026 27.744C283.535 27.232 283.29 26.624 283.29 25.92C283.29 25.216 283.535 24.608 284.026 24.096C284.538 23.5627 285.167 23.296 285.914 23.296C286.639 23.296 287.247 23.5627 287.738 24.096C288.25 24.608 288.506 25.216 288.506 25.92C288.506 26.624 288.25 27.232 287.738 27.744C287.247 28.256 286.639 28.512 285.914 28.512Z" fill="white"/>
</svg>
