<svg width="284" height="31" viewBox="0 0 284 31" fill="none" xmlns="http://www.w3.org/2000/svg">
<path d="M8.16199 13.28V25.088H4.48199V16.832H0.865994V13.28H8.16199ZM8.16199 23.552C8.78066 24.6187 9.65533 25.408 10.786 25.92C11.9167 26.4107 13.2927 26.688 14.914 26.752C15.874 26.7947 17.026 26.8267 18.37 26.848C19.7353 26.848 21.154 26.8373 22.626 26.816C24.1193 26.7947 25.57 26.7627 26.978 26.72C28.4073 26.656 29.6873 26.5707 30.818 26.464C30.6687 26.7413 30.5087 27.1147 30.338 27.584C30.1887 28.032 30.0393 28.4907 29.89 28.96C29.762 29.4293 29.666 29.8453 29.602 30.208C28.6207 30.272 27.49 30.3147 26.21 30.336C24.93 30.3573 23.6073 30.368 22.242 30.368C20.8767 30.3893 19.554 30.3893 18.274 30.368C16.994 30.368 15.8633 30.3467 14.882 30.304C12.962 30.2187 11.33 29.9093 9.98599 29.376C8.64199 28.8427 7.48999 27.9573 6.52999 26.72C5.91133 27.36 5.24999 27.9893 4.54599 28.608C3.86333 29.248 3.11666 29.9093 2.30599 30.592L0.481994 26.784C1.16466 26.336 1.87933 25.8347 2.62599 25.28C3.39399 24.7253 4.12999 24.1493 4.83399 23.552H8.16199ZM0.993994 3.808L3.90599 1.632C4.52466 2.10133 5.16466 2.63467 5.82599 3.232C6.48733 3.82933 7.09533 4.42666 7.64999 5.024C8.20466 5.62133 8.65266 6.18667 8.99399 6.72L5.82599 9.152C5.52733 8.61867 5.11133 8.04267 4.57799 7.424C4.06599 6.784 3.48999 6.15467 2.84999 5.536C2.20999 4.896 1.59133 4.32 0.993994 3.808ZM9.53799 3.104H29.698V6.208H9.53799V3.104ZM9.15399 19.872H30.114V23.008H9.15399V19.872ZM17.57 0.799999H21.314V26.016H17.57V0.799999ZM14.306 14.24V15.84H24.642V14.24H14.306ZM14.306 10.176V11.744H24.642V10.176H14.306ZM10.818 7.552H28.322V18.496H10.818V7.552ZM62.85 16.768L65.954 19.072C65.0153 19.8613 64.0553 20.6507 63.074 21.44C62.114 22.208 61.2393 22.8587 60.45 23.392L58.178 21.504C58.69 21.0987 59.2233 20.6293 59.778 20.096C60.354 19.5413 60.9087 18.976 61.442 18.4C61.9967 17.8027 62.466 17.2587 62.85 16.768ZM55.01 0.768L59.362 1.408C58.914 2.304 58.434 3.168 57.922 4C57.4313 4.81067 56.9833 5.51467 56.578 6.112L53.314 5.376C53.634 4.69333 53.954 3.92533 54.274 3.072C54.594 2.21866 54.8393 1.45067 55.01 0.768ZM52.322 11.36V13.056H60.93V11.36H52.322ZM52.322 6.944V8.608H60.93V6.944H52.322ZM48.866 4H64.546V16H48.866V4ZM55.074 14.72H58.498V27.2C58.498 28.0107 58.4127 28.6613 58.242 29.152C58.0713 29.6427 57.73 30.016 57.218 30.272C56.706 30.5493 56.0873 30.7093 55.362 30.752C54.658 30.816 53.826 30.848 52.866 30.848C52.802 30.3787 52.674 29.8347 52.482 29.216C52.3113 28.5973 52.13 28.0533 51.938 27.584C52.4927 27.6053 53.026 27.616 53.538 27.616C54.05 27.616 54.3913 27.616 54.562 27.616C54.7753 27.616 54.914 27.584 54.978 27.52C55.042 27.456 55.074 27.3387 55.074 27.168V14.72ZM48.034 18.144H52.642V21.312H48.034V18.144ZM51.938 18.144H52.578L53.154 18.08L55.202 18.912C54.6687 21.4933 53.8153 23.68 52.642 25.472C51.49 27.2427 50.1353 28.608 48.578 29.568C48.4073 29.312 48.1833 29.024 47.906 28.704C47.6287 28.384 47.33 28.0747 47.01 27.776C46.7113 27.456 46.4447 27.2 46.21 27.008C47.618 26.24 48.8233 25.1413 49.826 23.712C50.8287 22.2827 51.5327 20.608 51.938 18.688V18.144ZM58.146 14.848C58.3807 15.9147 58.7007 17.0133 59.106 18.144C59.5327 19.2533 60.066 20.3413 60.706 21.408C61.3673 22.4533 62.1673 23.4133 63.106 24.288C64.0447 25.1627 65.1433 25.888 66.402 26.464C66.1673 26.6987 65.9007 26.9973 65.602 27.36C65.3247 27.7013 65.0473 28.0747 64.77 28.48C64.4927 28.8853 64.2793 29.248 64.13 29.568C62.914 28.8853 61.8473 28.0427 60.93 27.04C60.0127 26.016 59.234 24.9173 58.594 23.744C57.954 22.5707 57.4313 21.3973 57.026 20.224C56.6207 19.0293 56.3007 17.92 56.066 16.896L58.146 14.848ZM40.578 0.831999L43.906 2.016C43.4793 2.848 43.0313 3.70133 42.562 4.576C42.0927 5.42933 41.634 6.26133 41.186 7.072C40.738 7.86133 40.3113 8.55467 39.906 9.152L37.346 8.096C37.73 7.43467 38.1247 6.688 38.53 5.856C38.9353 5.024 39.3193 4.16 39.682 3.264C40.066 2.368 40.3647 1.55733 40.578 0.831999ZM44.194 4.64L47.33 6.048C46.5407 7.24266 45.6873 8.50133 44.77 9.824C43.8527 11.1467 42.9353 12.416 42.018 13.632C41.1007 14.848 40.226 15.9147 39.394 16.832L37.186 15.616C37.7833 14.8907 38.402 14.08 39.042 13.184C39.7033 12.2667 40.3433 11.3173 40.962 10.336C41.602 9.33333 42.1993 8.34133 42.754 7.36C43.3087 6.37867 43.7887 5.472 44.194 4.64ZM35.65 8.32L37.538 5.728C38.0713 6.24 38.626 6.79467 39.202 7.392C39.778 7.98933 40.3113 8.58667 40.802 9.184C41.2927 9.78133 41.6553 10.336 41.89 10.848L39.842 13.76C39.6073 13.248 39.2553 12.672 38.786 12.032C38.338 11.392 37.8367 10.752 37.282 10.112C36.7273 9.45067 36.1833 8.85333 35.65 8.32ZM43.106 12.288L45.794 11.2C46.2207 11.904 46.626 12.672 47.01 13.504C47.394 14.336 47.7353 15.1467 48.034 15.936C48.3327 16.704 48.546 17.3973 48.674 18.016L45.762 19.296C45.6767 18.6773 45.4953 17.9627 45.218 17.152C44.9407 16.3413 44.6207 15.52 44.258 14.688C43.8953 13.8347 43.5113 13.0347 43.106 12.288ZM35.554 14.848C36.9833 14.784 38.6687 14.6987 40.61 14.592C42.5513 14.464 44.5247 14.336 46.53 14.208L46.594 17.344C44.7167 17.4933 42.8393 17.6427 40.962 17.792C39.106 17.92 37.4313 18.048 35.938 18.176L35.554 14.848ZM44.002 20.32L46.658 19.52C47.042 20.3947 47.3727 21.344 47.65 22.368C47.9487 23.3707 48.1513 24.256 48.258 25.024L45.41 25.92C45.346 25.152 45.1753 24.2453 44.898 23.2C44.642 22.1547 44.3433 21.1947 44.002 20.32ZM36.93 19.616L40.002 20.16C39.8313 21.696 39.5753 23.2107 39.234 24.704C38.914 26.176 38.53 27.424 38.082 28.448C37.8687 28.2987 37.5913 28.1387 37.25 27.968C36.9087 27.7973 36.5567 27.6373 36.194 27.488C35.8313 27.3173 35.522 27.1893 35.266 27.104C35.7353 26.144 36.098 24.992 36.354 23.648C36.61 22.304 36.802 20.96 36.93 19.616ZM40.418 16.576H43.746V30.88H40.418V16.576ZM72.866 6.368H99.298V22.432H95.266V10.144H76.706V22.592H72.866V6.368ZM74.85 17.056H97.506V20.832H74.85V17.056ZM83.938 0.799999H88.002V30.848H83.938V0.799999ZM107.714 10.624H117.378V13.536H107.714V10.624ZM107.842 1.824H117.314V4.704H107.842V1.824ZM107.714 15.008H117.378V17.888H107.714V15.008ZM106.21 6.112H118.434V9.152H106.21V6.112ZM109.378 19.424H117.442V29.184H109.378V26.144H114.146V22.464H109.378V19.424ZM107.65 19.424H110.882V30.432H107.65V19.424ZM119.202 2.56H135.522V5.28H119.202V2.56ZM120.034 6.464H135.042V9.024H120.034V6.464ZM118.466 10.304H136.13V13.056H118.466V10.304ZM125.442 0.799999H129.058V12.64H125.442V0.799999ZM120.642 14.272H132.898V16.992H124.162V30.816H120.642V14.272ZM130.818 14.272H134.402V27.296C134.402 28.0853 134.306 28.704 134.114 29.152C133.922 29.6213 133.549 29.984 132.994 30.24C132.461 30.496 131.81 30.6453 131.042 30.688C130.274 30.752 129.378 30.784 128.354 30.784C128.29 30.3147 128.151 29.7813 127.938 29.184C127.746 28.608 127.554 28.1173 127.362 27.712C127.938 27.7333 128.514 27.744 129.09 27.744C129.687 27.744 130.082 27.7333 130.274 27.712C130.487 27.712 130.626 27.68 130.69 27.616C130.775 27.5307 130.818 27.4027 130.818 27.232V14.272ZM122.178 18.4H132.642V20.928H122.178V18.4ZM122.178 22.4H132.642V24.896H122.178V22.4ZM156.45 15.264H167.81V18.272H156.45V15.264ZM156.45 20.416H167.81V23.616H156.45V20.416ZM154.882 9.824H167.17V13.12H158.498V30.816H154.882V9.824ZM166.306 9.824H169.986V27.072C169.986 27.8613 169.89 28.512 169.698 29.024C169.527 29.536 169.175 29.9413 168.642 30.24C168.151 30.5173 167.565 30.6987 166.882 30.784C166.199 30.8693 165.378 30.912 164.418 30.912C164.333 30.4213 164.173 29.8347 163.938 29.152C163.725 28.4693 163.501 27.904 163.266 27.456C163.778 27.4773 164.279 27.4987 164.77 27.52C165.282 27.52 165.634 27.52 165.826 27.52C166.146 27.52 166.306 27.3493 166.306 27.008V9.824ZM160.322 0.831999H164.066V12H160.322V0.831999ZM156.162 2.496L159.682 3.392C159.149 4.672 158.477 5.92 157.666 7.136C156.855 8.352 156.034 9.376 155.202 10.208C154.967 10.016 154.669 9.792 154.306 9.536C153.943 9.28 153.57 9.03467 153.186 8.8C152.802 8.544 152.461 8.352 152.162 8.224C153.015 7.52 153.783 6.656 154.466 5.632C155.17 4.608 155.735 3.56267 156.162 2.496ZM164.77 3.52L167.714 2.048C168.226 2.64533 168.749 3.31733 169.282 4.064C169.815 4.78933 170.295 5.51467 170.722 6.24C171.17 6.944 171.511 7.59467 171.746 8.192L168.546 9.856C168.375 9.25867 168.077 8.59733 167.65 7.872C167.245 7.14667 166.786 6.4 166.274 5.632C165.783 4.864 165.282 4.16 164.77 3.52ZM146.37 3.808H150.082V30.848H146.37V3.808ZM141.762 9.824H153.506V13.376H141.762V9.824ZM146.562 11.264L148.802 12.224C148.503 13.376 148.141 14.5707 147.714 15.808C147.287 17.0453 146.818 18.272 146.306 19.488C145.794 20.6827 145.25 21.8133 144.674 22.88C144.098 23.9467 143.501 24.8747 142.882 25.664C142.69 25.1093 142.413 24.4907 142.05 23.808C141.709 23.104 141.389 22.5067 141.09 22.016C141.645 21.376 142.189 20.6293 142.722 19.776C143.277 18.9013 143.799 17.9733 144.29 16.992C144.781 16.0107 145.218 15.0293 145.602 14.048C145.986 13.0667 146.306 12.1387 146.562 11.264ZM151.33 1.152L153.922 4.096C152.834 4.50133 151.639 4.87467 150.338 5.216C149.037 5.55733 147.703 5.856 146.338 6.112C144.994 6.34667 143.703 6.54933 142.466 6.72C142.381 6.29333 142.231 5.80267 142.018 5.248C141.805 4.672 141.591 4.18133 141.378 3.776C142.551 3.584 143.746 3.36 144.962 3.104C146.199 2.82667 147.362 2.51733 148.45 2.176C149.559 1.83467 150.519 1.49333 151.33 1.152ZM150.018 14.272C150.21 14.4213 150.498 14.6987 150.882 15.104C151.287 15.488 151.714 15.9147 152.162 16.384C152.631 16.8533 153.047 17.2907 153.41 17.696C153.773 18.08 154.039 18.3573 154.21 18.528L152.002 21.568C151.81 21.1627 151.554 20.704 151.234 20.192C150.935 19.68 150.605 19.1467 150.242 18.592C149.901 18.0373 149.559 17.5147 149.218 17.024C148.877 16.512 148.578 16.096 148.322 15.776L150.018 14.272ZM192.418 10.688L195.874 11.52C195.405 12.992 194.797 14.432 194.05 15.84C193.303 17.2267 192.514 18.3893 191.682 19.328C191.447 19.136 191.149 18.9227 190.786 18.688C190.423 18.432 190.05 18.1867 189.666 17.952C189.303 17.7173 188.983 17.5253 188.706 17.376C189.517 16.5653 190.242 15.5627 190.882 14.368C191.543 13.1733 192.055 11.9467 192.418 10.688ZM191.042 2.176H203.17V9.568H199.65V5.312H191.042V2.176ZM192.29 13.44H205.922V16.576H192.29V13.44ZM189.282 19.392H206.85V22.592H189.282V19.392ZM189.218 8.064H206.338V11.264H189.218V8.064ZM199.65 21.152C199.778 21.7067 199.981 22.2933 200.258 22.912C200.557 23.5307 200.983 24.1493 201.538 24.768C202.093 25.3867 202.839 25.9627 203.778 26.496C204.717 27.008 205.901 27.456 207.33 27.84C206.925 28.1813 206.509 28.6613 206.082 29.28C205.677 29.8987 205.367 30.4533 205.154 30.944C203.575 30.4533 202.263 29.8347 201.218 29.088C200.173 28.3413 199.33 27.5307 198.69 26.656C198.071 25.7813 197.581 24.896 197.218 24C196.877 23.104 196.61 22.272 196.418 21.504L199.65 21.152ZM195.906 14.944H199.65V19.712C199.65 20.6507 199.522 21.632 199.266 22.656C199.031 23.6587 198.583 24.6613 197.922 25.664C197.282 26.6453 196.365 27.584 195.17 28.48C193.997 29.3973 192.461 30.2293 190.562 30.976C190.306 30.5493 189.933 30.0693 189.442 29.536C188.973 29.0027 188.525 28.5653 188.098 28.224C189.89 27.648 191.309 27.008 192.354 26.304C193.399 25.6 194.167 24.864 194.658 24.096C195.17 23.328 195.501 22.56 195.65 21.792C195.821 21.024 195.906 20.3093 195.906 19.648V14.944ZM185.154 4.704H188.482V25.728H185.154V4.704ZM182.338 0.927999L185.858 1.952C185.261 3.82933 184.535 5.71733 183.682 7.616C182.85 9.51467 181.933 11.3173 180.93 13.024C179.927 14.7093 178.882 16.192 177.794 17.472C177.709 17.152 177.549 16.736 177.314 16.224C177.101 15.6907 176.866 15.1573 176.61 14.624C176.375 14.0693 176.151 13.632 175.938 13.312C176.813 12.288 177.645 11.1147 178.434 9.792C179.245 8.46933 179.981 7.05067 180.642 5.536C181.303 4.02133 181.869 2.48533 182.338 0.927999ZM179.842 9.664L183.362 6.112L183.49 6.176V30.848H179.842V9.664ZM215.736 28.3295C214.918 28.3295 214.217 28.0417 213.634 27.4659C213.058 26.8902 212.774 26.1932 212.782 25.375C212.774 24.572 213.058 23.8864 213.634 23.3182C214.217 22.7424 214.918 22.4545 215.736 22.4545C216.509 22.4545 217.191 22.7424 217.782 23.3182C218.38 23.8864 218.683 24.572 218.691 25.375C218.683 25.9205 218.539 26.4167 218.259 26.8636C217.986 27.3106 217.627 27.6667 217.18 27.9318C216.74 28.197 216.259 28.3295 215.736 28.3295ZM228.686 28.3295C227.868 28.3295 227.167 28.0417 226.584 27.4659C226.008 26.8902 225.724 26.1932 225.732 25.375C225.724 24.572 226.008 23.8864 226.584 23.3182C227.167 22.7424 227.868 22.4545 228.686 22.4545C229.459 22.4545 230.141 22.7424 230.732 23.3182C231.33 23.8864 231.633 24.572 231.641 25.375C231.633 25.9205 231.489 26.4167 231.209 26.8636C230.936 27.3106 230.577 27.6667 230.13 27.9318C229.69 28.197 229.209 28.3295 228.686 28.3295ZM241.636 28.3295C240.818 28.3295 240.117 28.0417 239.534 27.4659C238.958 26.8902 238.674 26.1932 238.682 25.375C238.674 24.572 238.958 23.8864 239.534 23.3182C240.117 22.7424 240.818 22.4545 241.636 22.4545C242.409 22.4545 243.091 22.7424 243.682 23.3182C244.28 23.8864 244.583 24.572 244.591 25.375C244.583 25.9205 244.439 26.4167 244.159 26.8636C243.886 27.3106 243.527 27.6667 243.08 27.9318C242.64 28.197 242.159 28.3295 241.636 28.3295ZM254.586 28.3295C253.768 28.3295 253.067 28.0417 252.484 27.4659C251.908 26.8902 251.624 26.1932 251.632 25.375C251.624 24.572 251.908 23.8864 252.484 23.3182C253.067 22.7424 253.768 22.4545 254.586 22.4545C255.359 22.4545 256.041 22.7424 256.632 23.3182C257.23 23.8864 257.533 24.572 257.541 25.375C257.533 25.9205 257.389 26.4167 257.109 26.8636C256.836 27.3106 256.477 27.6667 256.03 27.9318C255.59 28.197 255.109 28.3295 254.586 28.3295ZM267.536 28.3295C266.718 28.3295 266.017 28.0417 265.434 27.4659C264.858 26.8902 264.574 26.1932 264.582 25.375C264.574 24.572 264.858 23.8864 265.434 23.3182C266.017 22.7424 266.718 22.4545 267.536 22.4545C268.309 22.4545 268.991 22.7424 269.582 23.3182C270.18 23.8864 270.483 24.572 270.491 25.375C270.483 25.9205 270.339 26.4167 270.059 26.8636C269.786 27.3106 269.427 27.6667 268.98 27.9318C268.54 28.197 268.059 28.3295 267.536 28.3295ZM280.486 28.3295C279.668 28.3295 278.967 28.0417 278.384 27.4659C277.808 26.8902 277.524 26.1932 277.532 25.375C277.524 24.572 277.808 23.8864 278.384 23.3182C278.967 22.7424 279.668 22.4545 280.486 22.4545C281.259 22.4545 281.941 22.7424 282.532 23.3182C283.13 23.8864 283.433 24.572 283.441 25.375C283.433 25.9205 283.289 26.4167 283.009 26.8636C282.736 27.3106 282.377 27.6667 281.93 27.9318C281.49 28.197 281.009 28.3295 280.486 28.3295Z" fill="white"/>
</svg>
