<svg width="594" height="50" viewBox="0 0 594 50" fill="none" xmlns="http://www.w3.org/2000/svg">
<path d="M22.6056 0.851998L28.3256 2.308C27.3896 5.04666 26.1416 7.68133 24.5816 10.212C23.0216 12.708 21.3749 14.8053 19.6416 16.504C19.3296 16.1227 18.8789 15.6893 18.2896 15.204C17.7349 14.684 17.1629 14.1813 16.5736 13.696C16.0189 13.2107 15.5162 12.8293 15.0656 12.552C16.7296 11.1653 18.2202 9.432 19.5376 7.352C20.8549 5.272 21.8776 3.10533 22.6056 0.851998ZM22.2416 14.216L27.9616 15.672C27.1642 17.7173 26.1416 19.728 24.8936 21.704C23.6456 23.68 22.3802 25.3267 21.0976 26.644C20.7509 26.332 20.2656 25.9853 19.6416 25.604C19.0522 25.188 18.4456 24.7893 17.8216 24.408C17.1976 23.992 16.6602 23.6627 16.2096 23.42C17.4576 22.276 18.6016 20.872 19.6416 19.208C20.7162 17.544 21.5829 15.88 22.2416 14.216ZM23.7496 5.272H44.4976V10.524H21.6696L23.7496 5.272ZM29.7296 9.224H35.6576V25.448C35.6576 26.8 35.5016 27.8747 35.1896 28.672C34.9122 29.4693 34.3056 30.0933 33.3696 30.544C32.4682 30.96 31.4109 31.22 30.1976 31.324C29.0189 31.428 27.6322 31.48 26.0376 31.48C25.9336 30.648 25.6909 29.712 25.3096 28.672C24.9282 27.632 24.5296 26.748 24.1136 26.02C25.0842 26.0547 26.0376 26.072 26.9736 26.072C27.9096 26.072 28.5336 26.072 28.8456 26.072C29.1922 26.0373 29.4176 25.9853 29.5216 25.916C29.6602 25.812 29.7296 25.6213 29.7296 25.344V9.224ZM36.8536 15.984L41.9496 13.8C42.7469 14.9093 43.5269 16.1227 44.2896 17.44C45.0522 18.7573 45.7456 20.0573 46.3696 21.34C46.9936 22.588 47.4962 23.732 47.8776 24.772L42.4696 27.32C42.1576 26.28 41.6896 25.1187 41.0656 23.836C40.4762 22.5187 39.8176 21.1667 39.0896 19.78C38.3616 18.3933 37.6162 17.128 36.8536 15.984ZM42.8856 5.272H43.7696L44.7576 5.116L49.1256 6.052C48.5709 7.78533 47.9296 9.57066 47.2016 11.408C46.5082 13.2453 45.8669 14.788 45.2776 16.036L39.9736 14.944C40.4589 13.8347 40.9789 12.4307 41.5336 10.732C42.0882 9.03333 42.5389 7.456 42.8856 6V5.272ZM14.0776 33.404H20.2656V41.464C20.2656 42.192 20.4216 42.66 20.7336 42.868C21.0802 43.076 21.8602 43.18 23.0736 43.18C23.3509 43.18 23.8016 43.18 24.4256 43.18C25.0496 43.18 25.7256 43.18 26.4536 43.18C27.2162 43.18 27.9269 43.18 28.5856 43.18C29.2789 43.18 29.7989 43.18 30.1456 43.18C30.8389 43.18 31.3416 43.0587 31.6536 42.816C32.0002 42.5733 32.2602 42.088 32.4336 41.36C32.6069 40.632 32.7282 39.5227 32.7976 38.032C33.1789 38.3093 33.6989 38.604 34.3576 38.916C35.0162 39.228 35.6922 39.5053 36.3856 39.748C37.1136 39.956 37.7549 40.1293 38.3096 40.268C38.0669 42.4867 37.6856 44.2027 37.1656 45.416C36.6456 46.664 35.8656 47.5133 34.8256 47.964C33.8202 48.4493 32.4509 48.692 30.7176 48.692C30.4056 48.692 29.9722 48.692 29.4176 48.692C28.8629 48.692 28.2389 48.692 27.5456 48.692C26.8522 48.692 26.1589 48.692 25.4656 48.692C24.7722 48.692 24.1482 48.692 23.5936 48.692C23.0389 48.692 22.6229 48.692 22.3456 48.692C20.1269 48.692 18.4109 48.4667 17.1976 48.016C16.0189 47.6 15.2042 46.8547 14.7536 45.78C14.3029 44.74 14.0776 43.3187 14.0776 41.516V33.404ZM18.4456 32L22.6576 28.412C23.6976 29.0013 24.7896 29.6773 25.9336 30.44C27.0776 31.168 28.1349 31.9307 29.1056 32.728C30.1109 33.5253 30.9256 34.288 31.5496 35.016L27.0776 38.968C26.4882 38.24 25.7256 37.46 24.7896 36.628C23.8536 35.7613 22.8309 34.9293 21.7216 34.132C20.6122 33.3347 19.5202 32.624 18.4456 32ZM35.2936 35.38L40.4416 32.572C41.6896 33.716 42.9029 34.9813 44.0816 36.368C45.2949 37.7547 46.3869 39.1413 47.3576 40.528C48.3282 41.9147 49.0736 43.232 49.5936 44.48L43.9776 47.6C43.5616 46.3867 42.9029 45.0693 42.0016 43.648C41.1002 42.2267 40.0602 40.8053 38.8816 39.384C37.7376 37.928 36.5416 36.5933 35.2936 35.38ZM7.62956 33.56L13.2456 35.484C12.5176 37.876 11.5816 40.1987 10.4376 42.452C9.32823 44.7053 7.78556 46.5773 5.80956 48.068L0.661563 44.532C2.3949 43.2493 3.83356 41.6547 4.97756 39.748C6.15623 37.8067 7.04023 35.744 7.62956 33.56ZM12.3616 0.799999L17.8736 2.724C16.7642 4.87333 15.4469 7.02266 13.9216 9.172C12.3962 11.3213 10.7669 13.332 9.03356 15.204C7.3349 17.0413 5.6189 18.6533 3.88556 20.04C3.6429 19.624 3.29623 19.104 2.84556 18.48C2.42956 17.8213 1.96156 17.18 1.44156 16.556C0.956229 15.932 0.522896 15.412 0.141563 14.996C2.4989 13.2973 4.76956 11.2 6.95356 8.704C9.17223 6.17333 10.9749 3.53867 12.3616 0.799999ZM7.83756 11.668L13.7136 5.844L13.8176 5.896V31.376H7.83756V11.668ZM71.5376 27.372H101.178V32.832H71.5376V27.372ZM82.9776 4.856H96.3416L95.0416 9.016H80.3776L82.9776 4.856ZM89.4776 21.236H95.4056V42.972C95.4056 44.4627 95.2322 45.6587 94.8856 46.56C94.5389 47.4613 93.8802 48.1547 92.9096 48.64C91.9389 49.0907 90.7429 49.3853 89.3216 49.524C87.9002 49.6627 86.2189 49.732 84.2776 49.732C84.1736 48.8307 83.9482 47.808 83.6016 46.664C83.2896 45.52 82.9256 44.5147 82.5096 43.648C83.7576 43.6827 84.9536 43.7173 86.0976 43.752C87.2762 43.752 88.0562 43.752 88.4376 43.752C88.8189 43.752 89.0789 43.7 89.2176 43.596C89.3909 43.4573 89.4776 43.2147 89.4776 42.868V21.236ZM84.1736 0.903997L90.2576 2.464C88.8709 4.336 87.2589 6.17333 85.4216 7.976C83.5842 9.744 81.6256 11.3733 79.5456 12.864C77.5002 14.32 75.4029 15.5853 73.2536 16.66C72.9762 16.2787 72.6122 15.8627 72.1616 15.412C71.7109 14.9267 71.2256 14.4413 70.7056 13.956C70.2202 13.4707 69.7869 13.0893 69.4056 12.812C71.4509 11.9453 73.4096 10.8707 75.2816 9.588C77.1882 8.30533 78.9042 6.91866 80.4296 5.428C81.9549 3.93733 83.2029 2.42933 84.1736 0.903997ZM74.0336 35.9L78.8176 33.196C79.8922 34.2707 80.9669 35.5013 82.0416 36.888C83.1509 38.24 83.9482 39.4533 84.4336 40.528L79.3376 43.544C79.0602 42.8507 78.6269 42.0533 78.0376 41.152C77.4829 40.2507 76.8416 39.3493 76.1136 38.448C75.4202 37.512 74.7269 36.6627 74.0336 35.9ZM79.9616 11.148L83.0296 8.288C83.9309 8.73867 84.8496 9.29333 85.7856 9.952C86.7216 10.576 87.5882 11.2173 88.3856 11.876C89.2176 12.5347 89.8762 13.176 90.3616 13.8L87.0856 16.972C86.6349 16.348 86.0109 15.6893 85.2136 14.996C84.4509 14.3027 83.6016 13.6267 82.6656 12.968C81.7642 12.2747 80.8629 11.668 79.9616 11.148ZM74.1376 14.944L77.6216 12.292C78.4536 12.8467 79.3029 13.488 80.1696 14.216C81.0709 14.9093 81.9029 15.6373 82.6656 16.4C83.4282 17.128 84.0176 17.8213 84.4336 18.48L80.7416 21.392C80.3602 20.7333 79.7882 20.04 79.0256 19.312C78.2976 18.5493 77.5002 17.7867 76.6336 17.024C75.8016 16.2267 74.9696 15.5333 74.1376 14.944ZM52.6616 26.592H66.4416V31.948H52.6616V26.592ZM64.2056 0.851998H69.9256V49.68H64.2056V0.851998ZM55.2616 28.828H60.6696V32C60.6696 33.0747 60.6176 34.3573 60.5136 35.848C60.4096 37.304 60.2189 38.864 59.9416 40.528C59.6989 42.1573 59.3176 43.7693 58.7976 45.364C58.2776 46.9587 57.5842 48.432 56.7176 49.784C56.3709 49.4373 55.9202 49.0733 55.3656 48.692C54.8109 48.3453 54.2389 47.9813 53.6496 47.6C53.0949 47.2533 52.5922 46.976 52.1416 46.768C53.0776 45.2773 53.7709 43.6133 54.2216 41.776C54.6722 39.904 54.9496 38.1013 55.0536 36.368C55.1922 34.6 55.2616 33.092 55.2616 31.844V28.828ZM94.1576 4.856H95.2496L96.2376 4.596L100.086 6.468C98.9762 9.31066 97.5376 11.876 95.7696 14.164C94.0362 16.4173 92.0256 18.4107 89.7376 20.144C87.4496 21.8427 84.9882 23.316 82.3536 24.564C79.7536 25.7773 77.0322 26.8 74.1896 27.632C73.8776 26.9387 73.4096 26.1587 72.7856 25.292C72.1962 24.3907 71.6416 23.6627 71.1216 23.108C73.6522 22.484 76.1136 21.652 78.5056 20.612C80.8976 19.572 83.1162 18.324 85.1616 16.868C87.2069 15.412 88.9922 13.748 90.5176 11.876C92.0776 10.004 93.2909 7.95866 94.1576 5.74V4.856ZM54.7936 3.244H60.1496V15.048H67.3776V20.612H54.7936V3.244ZM137.11 3.868H146.73V9.224H137.11V3.868ZM125.358 6.052H136.07V11.2H125.358V6.052ZM137.734 13.384H146.522V18.532H137.734V13.384ZM137.682 22.952H146.418V28.1H137.682V22.952ZM112.15 13.384H120.886V18.532H112.15V13.384ZM112.254 22.9H120.938V28.048H112.254V22.9ZM109.134 4.232L116.102 6.104C115.998 6.52 115.564 6.78 114.802 6.884L115.634 34.86H110.07L109.134 4.232ZM143.194 3.868H148.914C148.914 6.39866 148.896 9.068 148.862 11.876C148.827 14.6493 148.758 17.4227 148.654 20.196C148.584 22.9347 148.498 25.552 148.394 28.048C148.29 30.544 148.186 32.7627 148.082 34.704H142.206C142.379 32.6933 142.518 30.44 142.622 27.944C142.76 25.4133 142.864 22.7787 142.934 20.04C143.038 17.2667 143.107 14.4933 143.142 11.72C143.211 8.94666 143.228 6.32933 143.194 3.868ZM118.858 1.32L123.538 5.792C121.77 6.69333 119.915 7.56 117.974 8.392C116.032 9.18933 114.195 9.9 112.462 10.524C112.323 9.96933 112.063 9.25867 111.682 8.392C111.3 7.52533 110.954 6.81466 110.642 6.26C112.098 5.56666 113.571 4.76933 115.062 3.868C116.552 2.932 117.818 2.08267 118.858 1.32ZM122.706 21.34H127.698V34.288H122.706V21.34ZM122.862 1.476H128.114V14.736H133.626V19.572H122.862V1.476ZM130.61 14.736H135.862V34.444H130.61V14.736ZM105.13 32.364H153.23V38.084H105.13V32.364ZM132.638 41.516L137.318 37.356C139.19 38.188 141.096 39.1067 143.038 40.112C145.014 41.0827 146.886 42.036 148.654 42.972C150.422 43.908 151.912 44.74 153.126 45.468L146.938 49.732C145.863 48.9693 144.528 48.1027 142.934 47.132C141.374 46.196 139.692 45.2427 137.89 44.272C136.122 43.2667 134.371 42.348 132.638 41.516ZM119.846 37.512L125.358 41.464C123.971 42.4 122.394 43.388 120.626 44.428C118.858 45.4333 117.055 46.3867 115.218 47.288C113.415 48.224 111.716 49.0213 110.122 49.68C109.567 49.056 108.822 48.328 107.886 47.496C106.95 46.664 106.1 45.9533 105.338 45.364C107.002 44.74 108.735 43.9773 110.538 43.076C112.375 42.1747 114.108 41.2387 115.738 40.268C117.402 39.2627 118.771 38.344 119.846 37.512ZM181.156 27.32H206.844V31.792H181.156V27.32ZM191.244 22.796H196.548V41.412H191.244V22.796ZM201.436 19.416L205.076 22.9C203.169 23.42 200.985 23.8533 198.524 24.2C196.097 24.512 193.601 24.7547 191.036 24.928C188.505 25.1013 186.061 25.2227 183.704 25.292C183.6 24.8067 183.427 24.2 183.184 23.472C182.941 22.7093 182.681 22.1027 182.404 21.652C184.103 21.548 185.836 21.444 187.604 21.34C189.372 21.2013 191.105 21.0453 192.804 20.872C194.503 20.664 196.08 20.4387 197.536 20.196C199.027 19.9533 200.327 19.6933 201.436 19.416ZM190.776 29.712L194.728 31.272C193.896 32.5893 192.839 33.8893 191.556 35.172C190.308 36.4547 188.956 37.6333 187.5 38.708C186.079 39.7827 184.657 40.6493 183.236 41.308C182.855 40.7187 182.335 40.0427 181.676 39.28C181.017 38.5173 180.411 37.8933 179.856 37.408C181.208 36.888 182.577 36.2293 183.964 35.432C185.351 34.6 186.633 33.6987 187.812 32.728C189.025 31.7573 190.013 30.752 190.776 29.712ZM170.86 3.66H217.088V9.12H170.86V3.66ZM176.632 42.556H211.42V47.912H176.632V42.556ZM182.248 0.799999H188.436V12.344H182.248V0.799999ZM199.356 0.799999H205.596V12.344H199.356V0.799999ZM173.616 13.8H214.644V49.628H208.508V19H179.492V49.628H173.616V13.8ZM197.38 30.18C198.143 31.0813 199.096 32 200.24 32.936C201.384 33.8373 202.615 34.6693 203.932 35.432C205.249 36.1947 206.532 36.836 207.78 37.356C207.225 37.8067 206.601 38.4133 205.908 39.176C205.215 39.9387 204.677 40.632 204.296 41.256C203.013 40.5627 201.696 39.7133 200.344 38.708C199.027 37.668 197.779 36.5587 196.6 35.38C195.421 34.1667 194.416 32.9707 193.584 31.792L197.38 30.18ZM233.416 16.868V20.56H258.272V16.868H233.416ZM233.416 8.548V12.084H258.272V8.548H233.416ZM227.176 3.4H264.772V25.708H227.176V3.4ZM242.62 5.844H248.912V23.108H242.62V5.844ZM223.692 29.348H263.004V34.912H223.692V29.348ZM260.196 29.348H266.54C266.54 29.348 266.523 29.504 266.488 29.816C266.488 30.0933 266.471 30.4227 266.436 30.804C266.436 31.1853 266.419 31.5147 266.384 31.792C266.107 34.9813 265.795 37.616 265.448 39.696C265.101 41.776 264.703 43.44 264.252 44.688C263.836 45.9013 263.333 46.7853 262.744 47.34C262.051 48.0333 261.288 48.5187 260.456 48.796C259.659 49.108 258.705 49.2987 257.596 49.368C256.66 49.4373 255.447 49.472 253.956 49.472C252.465 49.472 250.905 49.4547 249.276 49.42C249.207 48.5533 248.981 47.5827 248.6 46.508C248.253 45.4333 247.803 44.4973 247.248 43.7C248.843 43.8387 250.385 43.9253 251.876 43.96C253.367 43.9947 254.459 44.012 255.152 44.012C255.672 44.012 256.105 43.9947 256.452 43.96C256.833 43.8907 257.163 43.7347 257.44 43.492C257.856 43.1453 258.22 42.4693 258.532 41.464C258.879 40.424 259.173 38.9853 259.416 37.148C259.693 35.3107 259.936 32.988 260.144 30.18L260.196 29.348ZM241.684 24.668H248.236C247.959 27.0253 247.577 29.2787 247.092 31.428C246.607 33.5427 245.879 35.5187 244.908 37.356C243.937 39.1933 242.603 40.892 240.904 42.452C239.24 43.9773 237.091 45.3467 234.456 46.56C231.821 47.7733 228.58 48.796 224.732 49.628C224.559 49.0733 224.281 48.4667 223.9 47.808C223.553 47.1493 223.172 46.4907 222.756 45.832C222.34 45.1733 221.907 44.6187 221.456 44.168C224.957 43.5093 227.869 42.712 230.192 41.776C232.515 40.84 234.387 39.7827 235.808 38.604C237.264 37.4253 238.373 36.1253 239.136 34.704C239.899 33.248 240.471 31.688 240.852 30.024C241.233 28.3253 241.511 26.54 241.684 24.668ZM284.532 22.276H320.62V26.124H284.532V22.276ZM286.092 27.84H312.04V31.272H286.092V27.84ZM283.44 40.164H320.62V43.804H283.44V40.164ZM292.956 32.676L295.556 30.284C296.457 30.4227 297.376 30.6307 298.312 30.908C299.248 31.1853 300.132 31.4973 300.964 31.844C301.831 32.1907 302.559 32.5373 303.148 32.884L300.496 35.484C299.629 34.9293 298.485 34.392 297.064 33.872C295.643 33.3173 294.273 32.9187 292.956 32.676ZM291.812 38.656L294.62 36.108C295.591 36.2467 296.613 36.472 297.688 36.784C298.763 37.0613 299.785 37.3907 300.756 37.772C301.727 38.1187 302.541 38.4827 303.2 38.864L300.392 41.724C299.733 41.308 298.919 40.9093 297.948 40.528C297.012 40.112 296.007 39.748 294.932 39.436C293.857 39.0893 292.817 38.8293 291.812 38.656ZM283.336 27.84H289.576C289.229 29.9547 288.813 32.1733 288.328 34.496C287.877 36.8187 287.409 39.0547 286.924 41.204C286.473 43.3533 286.04 45.26 285.624 46.924L279.384 46.508C279.835 44.844 280.303 42.9547 280.788 40.84C281.273 38.7253 281.741 36.5413 282.192 34.288C282.643 32 283.024 29.8507 283.336 27.84ZM309.908 27.84H315.94C315.94 27.84 315.923 28.1347 315.888 28.724C315.853 29.2787 315.801 29.7293 315.732 30.076C315.455 33.924 315.125 37.044 314.744 39.436C314.397 41.828 314.016 43.6827 313.6 45C313.184 46.2827 312.699 47.2013 312.144 47.756C311.555 48.38 310.879 48.8133 310.116 49.056C309.388 49.3333 308.591 49.5067 307.724 49.576C306.927 49.6453 305.887 49.6627 304.604 49.628C303.356 49.628 302.021 49.5933 300.6 49.524C300.565 48.9347 300.427 48.224 300.184 47.392C299.941 46.5947 299.647 45.9187 299.3 45.364C300.548 45.468 301.692 45.5373 302.732 45.572C303.807 45.6067 304.604 45.624 305.124 45.624C305.609 45.624 305.991 45.572 306.268 45.468C306.58 45.3987 306.84 45.2427 307.048 45C307.464 44.6187 307.845 43.8387 308.192 42.66C308.539 41.4467 308.851 39.7133 309.128 37.46C309.44 35.172 309.7 32.26 309.908 28.724V27.84ZM283.024 20.196L289.108 21.288C287.929 23.4027 286.508 25.396 284.844 27.268C283.215 29.1053 281.221 30.8213 278.864 32.416C278.552 31.9307 278.119 31.4453 277.564 30.96C277.044 30.44 276.507 29.9547 275.952 29.504C275.397 29.0187 274.895 28.6373 274.444 28.36C276.489 27.216 278.223 25.916 279.644 24.46C281.1 23.004 282.227 21.5827 283.024 20.196ZM278.656 2.516H317.24V6.728H278.656V2.516ZM282.348 13.436H293.164V16.244H282.348V13.436ZM281.204 17.752H293.216V20.612H281.204V17.752ZM302.576 17.752H314.692V20.612H302.576V17.752ZM302.576 13.436H313.496V16.244H302.576V13.436ZM275.068 8.288H320.984V16.92H315.212V11.876H280.632V16.92H275.068V8.288ZM294.776 4.388H300.912V21.028H294.776V4.388ZM274.34 33.716H284.792V34.236H312.612V33.716H321.712V37.616H312.612V37.2H284.792V37.616H274.34V33.716ZM326.34 12.604H373.816V18.948H326.34V12.604ZM344.956 0.799999L351.82 2.048C350.78 4.856 349.653 7.78533 348.44 10.836C347.261 13.8867 346.048 16.92 344.8 19.936C343.552 22.952 342.321 25.8467 341.108 28.62C339.929 31.3933 338.82 33.9067 337.78 36.16L331.436 33.924C332.441 31.7747 333.533 29.3653 334.712 26.696C335.925 23.992 337.139 21.1667 338.352 18.22C339.565 15.2387 340.744 12.2747 341.888 9.328C343.032 6.34667 344.055 3.504 344.956 0.799999ZM359.516 15.724L366.38 17.232C365.34 22.64 363.919 27.2333 362.116 31.012C360.313 34.756 357.991 37.876 355.148 40.372C352.305 42.8333 348.821 44.792 344.696 46.248C340.605 47.7387 335.735 48.9173 330.084 49.784C329.807 48.7787 329.356 47.6867 328.732 46.508C328.108 45.3293 327.467 44.3413 326.808 43.544C332.043 42.9547 336.532 42.0707 340.276 40.892C344.02 39.6787 347.157 38.0147 349.688 35.9C352.253 33.7853 354.316 31.0987 355.876 27.84C357.471 24.5467 358.684 20.508 359.516 15.724ZM334.868 32.832L339.028 27.996C341.836 28.8973 344.8 29.9893 347.92 31.272C351.04 32.52 354.16 33.872 357.28 35.328C360.4 36.7493 363.312 38.2053 366.016 39.696C368.72 41.1867 371.025 42.6427 372.932 44.064L368.2 49.94C366.467 48.5187 364.3 47.028 361.7 45.468C359.1 43.908 356.275 42.3653 353.224 40.84C350.208 39.3147 347.105 37.876 343.916 36.524C340.761 35.1373 337.745 33.9067 334.868 32.832ZM402.73 21.08V40.268H396.75V26.852H390.874V21.08H402.73ZM402.73 37.772C403.736 39.5053 405.157 40.788 406.994 41.62C408.832 42.4173 411.068 42.868 413.702 42.972C415.262 43.0413 417.134 43.0933 419.318 43.128C421.537 43.128 423.842 43.1107 426.234 43.076C428.661 43.0413 431.018 42.9893 433.306 42.92C435.629 42.816 437.709 42.6773 439.546 42.504C439.304 42.9547 439.044 43.5613 438.766 44.324C438.524 45.052 438.281 45.7973 438.038 46.56C437.83 47.3227 437.674 47.9987 437.57 48.588C435.976 48.692 434.138 48.7613 432.058 48.796C429.978 48.8307 427.829 48.848 425.61 48.848C423.392 48.8827 421.242 48.8827 419.162 48.848C417.082 48.848 415.245 48.8133 413.65 48.744C410.53 48.6053 407.878 48.1027 405.694 47.236C403.51 46.3693 401.638 44.9307 400.078 42.92C399.073 43.96 397.998 44.9827 396.854 45.988C395.745 47.028 394.532 48.1027 393.214 49.212L390.25 43.024C391.36 42.296 392.521 41.4813 393.734 40.58C394.982 39.6787 396.178 38.7427 397.322 37.772H402.73ZM391.082 5.688L395.814 2.152C396.82 2.91466 397.86 3.78133 398.934 4.752C400.009 5.72266 400.997 6.69333 401.898 7.664C402.8 8.63466 403.528 9.55333 404.082 10.42L398.934 14.372C398.449 13.5053 397.773 12.5693 396.906 11.564C396.074 10.524 395.138 9.50133 394.098 8.496C393.058 7.456 392.053 6.52 391.082 5.688ZM423.998 1.424L430.862 2.672C429.996 4.47467 429.112 6.26 428.21 8.028C427.309 9.76133 426.477 11.2347 425.714 12.448L420.514 11.148C420.965 10.212 421.398 9.18933 421.814 8.08C422.265 6.97066 422.681 5.844 423.062 4.7C423.444 3.52133 423.756 2.42933 423.998 1.424ZM414.17 8.288H437.258V13.54H414.17V36.628H408.138V13.02L412.922 8.288H414.17ZM411.622 16.868H435.854V21.86H411.622V16.868ZM411.622 25.24H435.646V30.284H411.622V25.24ZM408.138 33.872H438.142V39.072H408.138V33.872ZM420.982 10.524H426.91V36.212H420.982V10.524ZM412.298 1.008L418.538 2.776C417.533 5.23733 416.32 7.64666 414.898 10.004C413.512 12.3267 412.004 14.5107 410.374 16.556C408.745 18.5667 407.064 20.3173 405.33 21.808C405.018 21.392 404.585 20.872 404.03 20.248C403.476 19.624 402.904 19 402.314 18.376C401.725 17.752 401.205 17.2667 400.754 16.92C403.181 15.048 405.417 12.708 407.462 9.9C409.508 7.092 411.12 4.128 412.298 1.008ZM464.142 3.764H489.518V9.744H464.142V3.764ZM477.298 19.988H483.694V42.452C483.694 44.0813 483.486 45.364 483.07 46.3C482.689 47.2707 481.926 47.9987 480.782 48.484C479.638 48.9347 478.234 49.212 476.57 49.316C474.906 49.4547 472.913 49.524 470.59 49.524C470.452 48.6227 470.192 47.548 469.81 46.3C469.464 45.0867 469.082 44.0467 468.666 43.18C469.672 43.2147 470.677 43.2493 471.682 43.284C472.688 43.3187 473.589 43.336 474.386 43.336C475.184 43.3013 475.738 43.284 476.05 43.284C476.536 43.284 476.865 43.2147 477.038 43.076C477.212 42.9027 477.298 42.6427 477.298 42.296V19.988ZM461.906 18.22H490.87V24.148H461.906V18.22ZM450.206 24.356L455.666 18.844L456.446 19.156V49.732H450.206V24.356ZM456.082 12.136L462.01 14.424C460.658 16.712 459.081 19.0173 457.278 21.34C455.51 23.628 453.638 25.7947 451.662 27.84C449.721 29.8853 447.814 31.6707 445.942 33.196C445.665 32.7453 445.266 32.1907 444.746 31.532C444.226 30.8387 443.689 30.1453 443.134 29.452C442.614 28.7587 442.129 28.204 441.678 27.788C443.481 26.54 445.266 25.084 447.034 23.42C448.802 21.7213 450.466 19.9187 452.026 18.012C453.586 16.0707 454.938 14.112 456.082 12.136ZM454.106 0.799999L460.138 3.296C458.856 4.92533 457.417 6.58933 455.822 8.288C454.228 9.952 452.564 11.5467 450.83 13.072C449.097 14.5973 447.398 15.932 445.734 17.076C445.492 16.5907 445.162 16.036 444.746 15.412C444.33 14.7533 443.897 14.112 443.446 13.488C443.03 12.864 442.632 12.344 442.25 11.928C443.706 11.0267 445.18 9.93466 446.67 8.652C448.161 7.36933 449.565 6.052 450.882 4.7C452.2 3.31333 453.274 2.01333 454.106 0.799999ZM507.614 34.704H527.686V38.084H507.614V34.704ZM510.474 30.128H528.83V33.04H510.474V30.128ZM510.474 25.656H528.622V28.516H510.474V25.656ZM516.87 22.692H521.55V36.68H516.87V22.692ZM526.958 34.704H531.742C531.742 34.704 531.742 34.912 531.742 35.328C531.742 35.7093 531.725 36.056 531.69 36.368C531.586 38.552 531.465 40.3547 531.326 41.776C531.222 43.1973 531.066 44.2893 530.858 45.052C530.685 45.8493 530.425 46.456 530.078 46.872C529.732 47.288 529.316 47.6 528.83 47.808C528.345 48.016 527.825 48.1547 527.27 48.224C526.75 48.2587 526.092 48.276 525.294 48.276C524.532 48.3107 523.717 48.3107 522.85 48.276C522.816 47.6867 522.694 47.028 522.486 46.3C522.278 45.6067 522.036 45.0173 521.758 44.532C522.417 44.6013 523.006 44.6533 523.526 44.688C524.081 44.7227 524.497 44.7227 524.774 44.688C525.294 44.7227 525.693 44.584 525.97 44.272C526.213 43.96 526.404 43.1627 526.542 41.88C526.716 40.5627 526.854 38.3787 526.958 35.328V34.704ZM506.626 38.968L510.266 39.904C510.024 41.464 509.66 42.972 509.174 44.428C508.689 45.8493 507.926 47.028 506.886 47.964L503.61 45.78C504.442 45.0173 505.101 44.012 505.586 42.764C506.106 41.516 506.453 40.2507 506.626 38.968ZM520.978 39.384L523.474 38.604C523.96 39.2627 524.376 40.008 524.722 40.84C525.069 41.672 525.329 42.4 525.502 43.024L522.85 44.012C522.712 43.3533 522.469 42.5907 522.122 41.724C521.81 40.8573 521.429 40.0773 520.978 39.384ZM511.566 40.216L514.634 39.8C514.842 40.8747 514.981 42.0707 515.05 43.388C515.154 44.7053 515.189 45.7973 515.154 46.664L511.826 47.184C511.93 46.248 511.948 45.1387 511.878 43.856C511.844 42.5387 511.74 41.3253 511.566 40.216ZM516.454 39.956L519.314 39.28C519.661 40.216 519.956 41.256 520.198 42.4C520.441 43.5093 520.597 44.4627 520.666 45.26L517.65 46.092C517.616 45.26 517.494 44.272 517.286 43.128C517.078 41.984 516.801 40.9267 516.454 39.956ZM507.614 20.664H530.13V24.096H512.502V36.576H507.614V20.664ZM500.074 8.6H513.178V12.136H500.074V8.6ZM523.838 8.6H537.046V12.136H523.838V8.6ZM535.174 2.516H541.154V43.44C541.154 44.8267 540.998 45.9187 540.686 46.716C540.409 47.548 539.854 48.2067 539.022 48.692C538.225 49.1773 537.22 49.472 536.006 49.576C534.828 49.68 533.424 49.732 531.794 49.732C531.725 48.9693 531.534 48.0507 531.222 46.976C530.91 45.9013 530.564 45 530.182 44.272C531.014 44.3067 531.829 44.324 532.626 44.324C533.458 44.324 534.03 44.324 534.342 44.324C534.654 44.2893 534.862 44.2027 534.966 44.064C535.105 43.9253 535.174 43.7 535.174 43.388V2.516ZM500.646 2.516H517.13V18.376H500.646V14.424H511.306V6.468H500.646V2.516ZM538.19 2.516V6.468H526.49V14.372H538.19V18.324H520.562V2.516H538.19ZM496.954 2.516H502.778V49.732H496.954V2.516ZM565.906 28.412L568.922 27.476C569.512 28.3427 570.049 29.3133 570.534 30.388C571.054 31.428 571.401 32.3467 571.574 33.144L568.402 34.236C568.229 33.404 567.9 32.4507 567.414 31.376C566.964 30.3013 566.461 29.3133 565.906 28.412ZM557.222 24.46L559.198 22.068C560.134 22.692 561.105 23.4373 562.11 24.304C563.116 25.1707 563.861 25.9507 564.346 26.644L562.266 29.4C561.781 28.672 561.053 27.84 560.082 26.904C559.112 25.968 558.158 25.1533 557.222 24.46ZM562.994 18.74L566.582 20.144C565.889 21.0107 565.178 21.8947 564.45 22.796C563.757 23.6973 563.098 24.4427 562.474 25.032L559.718 23.836C560.273 23.108 560.862 22.2587 561.486 21.288C562.11 20.3173 562.613 19.468 562.994 18.74ZM566.53 22.536L569.754 23.94C568.888 24.876 567.969 25.8467 566.998 26.852C566.028 27.8573 565.074 28.828 564.138 29.764C563.202 30.6653 562.318 31.4627 561.486 32.156L559.094 30.908C559.926 30.1453 560.793 29.2787 561.694 28.308C562.63 27.3027 563.514 26.2973 564.346 25.292C565.213 24.252 565.941 23.3333 566.53 22.536ZM571.938 34.08H576.202V48.64H571.938V34.08ZM556.754 30.492C558.418 30.388 560.29 30.284 562.37 30.18C564.485 30.0413 566.721 29.8853 569.078 29.712V32.884C566.929 33.092 564.849 33.2827 562.838 33.456C560.828 33.5947 558.938 33.7333 557.17 33.872L556.754 30.492ZM579.01 28.1L582.182 27.164C582.806 28.1347 583.396 29.2093 583.95 30.388C584.505 31.532 584.886 32.5547 585.094 33.456L581.818 34.496C581.645 33.6293 581.298 32.6067 580.778 31.428C580.258 30.2147 579.669 29.1053 579.01 28.1ZM569.598 24.2L571.834 21.912C572.874 22.6053 573.914 23.4373 574.954 24.408C576.029 25.3787 576.826 26.2627 577.346 27.06L575.058 29.66C574.538 28.828 573.758 27.9093 572.718 26.904C571.678 25.864 570.638 24.9627 569.598 24.2ZM575.578 18.688L579.374 20.092C578.577 21.0973 577.78 22.068 576.982 23.004C576.185 23.94 575.44 24.772 574.746 25.5L571.938 24.252C572.562 23.4893 573.221 22.5707 573.914 21.496C574.608 20.4213 575.162 19.4853 575.578 18.688ZM579.322 22.536L582.598 24.044C581.697 25.0147 580.744 26.02 579.738 27.06C578.733 28.1 577.728 29.088 576.722 30.024C575.717 30.96 574.746 31.792 573.81 32.52L571.418 31.168C572.285 30.4053 573.204 29.5387 574.174 28.568C575.18 27.5627 576.133 26.54 577.034 25.5C577.936 24.4253 578.698 23.4373 579.322 22.536ZM570.638 30.492C572.233 30.4227 574.053 30.3187 576.098 30.18C578.178 30.0413 580.362 29.9027 582.65 29.764V32.884C580.64 33.092 578.664 33.2827 576.722 33.456C574.816 33.5947 573.03 33.7333 571.366 33.872L570.638 30.492ZM558.366 34.964H562.162V39.436H567.778V42.92H558.366V34.964ZM579.426 34.964H583.326V42.92H575.318V39.436H579.426V34.964ZM565.334 34.08H569.442V39.124C569.442 40.476 569.269 41.7933 568.922 43.076C568.576 44.3587 567.865 45.5373 566.79 46.612C565.716 47.6867 564.069 48.6053 561.85 49.368C561.608 48.848 561.209 48.2587 560.654 47.6C560.1 46.9413 559.614 46.404 559.198 45.988C561.001 45.468 562.336 44.844 563.202 44.116C564.069 43.3533 564.641 42.5387 564.918 41.672C565.196 40.8053 565.334 39.9213 565.334 39.02V34.08ZM552.074 9.432H565.178V13.228H552.074V9.432ZM575.994 9.432H589.202V13.228H575.994V9.432ZM587.122 2.828H593.102V42.504C593.102 43.9947 592.964 45.1907 592.686 46.092C592.409 47.028 591.82 47.756 590.918 48.276C590.052 48.796 588.994 49.108 587.746 49.212C586.498 49.3507 585.008 49.42 583.274 49.42C583.205 48.8307 583.084 48.172 582.91 47.444C582.737 46.716 582.529 45.9707 582.286 45.208C582.078 44.48 581.836 43.856 581.558 43.336C582.494 43.3707 583.413 43.4053 584.314 43.44C585.25 43.44 585.892 43.4227 586.238 43.388C586.585 43.388 586.81 43.3187 586.914 43.18C587.053 43.0413 587.122 42.7987 587.122 42.452V2.828ZM552.646 2.828H569.13V19.78H552.646V15.62H563.306V6.988H552.646V2.828ZM590.19 2.828V6.988H578.49V15.62H590.19V19.78H572.562V2.828H590.19ZM548.954 2.828H554.882V49.68H548.954V2.828Z" fill="white"/>
</svg>
