<svg width="93" height="93" viewBox="0 0 93 93" fill="none" xmlns="http://www.w3.org/2000/svg">
<g filter="url(#filter0_d_1710_781)">
<g filter="url(#filter1_d_1710_781)">
<circle cx="46.5" cy="40.5" r="36.5" fill="#9A6CBE"/>
</g>
</g>
<path d="M46.5 18.5C47.4336 18.5 48.2472 18.7999 48.9121 19.4023L49.043 19.5273L49.0439 19.5283L49.1689 19.6592C49.7715 20.3241 50.0713 21.1377 50.0713 22.0713V36.9287H64.9287C65.9244 36.9287 66.7826 37.2701 67.4688 37.9561L67.5938 38.0879C68.1982 38.7527 68.5 39.5659 68.5 40.5C68.5 41.4959 68.1565 42.3531 67.4688 43.0391L67.4697 43.04C66.7837 43.7285 65.9251 44.0713 64.9287 44.0713H50.0713V58.9287C50.0713 59.8622 49.7708 60.6746 49.168 61.3379L49.0439 61.4688C48.356 62.1567 47.4964 62.5 46.5 62.5C45.5037 62.5 44.6451 62.1571 43.959 61.4688V61.4678C43.2715 60.7819 42.9287 59.9244 42.9287 58.9287V44.0713H28.0713C27.1372 44.0713 26.324 43.7696 25.6592 43.165L25.5283 43.04C24.8421 42.3538 24.5 41.4959 24.5 40.5C24.5 39.5041 24.8417 38.6451 25.5273 37.957L25.5283 37.9561L25.6592 37.8311C26.3241 37.2285 27.1377 36.9287 28.0713 36.9287H42.9287V22.0713C42.9287 21.0749 43.2721 20.2162 43.96 19.5283L44.0898 19.4033C44.7533 18.8002 45.5662 18.5 46.5 18.5Z" fill="#F3CFFF" stroke="#F3CFFF"/>
<defs>
<filter id="filter0_d_1710_781" x="0" y="0" width="93" height="93" filterUnits="userSpaceOnUse" color-interpolation-filters="sRGB">
<feFlood flood-opacity="0" result="BackgroundImageFix"/>
<feColorMatrix in="SourceAlpha" type="matrix" values="0 0 0 0 0 0 0 0 0 0 0 0 0 0 0 0 0 0 127 0" result="hardAlpha"/>
<feOffset dy="6"/>
<feGaussianBlur stdDeviation="5"/>
<feComposite in2="hardAlpha" operator="out"/>
<feColorMatrix type="matrix" values="0 0 0 0 0.201753 0 0 0 0 0 0 0 0 0 0.378288 0 0 0 1 0"/>
<feBlend mode="normal" in2="BackgroundImageFix" result="effect1_dropShadow_1710_781"/>
<feBlend mode="normal" in="SourceGraphic" in2="effect1_dropShadow_1710_781" result="shape"/>
</filter>
<filter id="filter1_d_1710_781" x="6" y="4" width="81" height="81" filterUnits="userSpaceOnUse" color-interpolation-filters="sRGB">
<feFlood flood-opacity="0" result="BackgroundImageFix"/>
<feColorMatrix in="SourceAlpha" type="matrix" values="0 0 0 0 0 0 0 0 0 0 0 0 0 0 0 0 0 0 127 0" result="hardAlpha"/>
<feOffset dy="4"/>
<feGaussianBlur stdDeviation="2"/>
<feComposite in2="hardAlpha" operator="out"/>
<feColorMatrix type="matrix" values="0 0 0 0 0 0 0 0 0 0 0 0 0 0 0 0 0 0 0.25 0"/>
<feBlend mode="normal" in2="BackgroundImageFix" result="effect1_dropShadow_1710_781"/>
<feBlend mode="normal" in="SourceGraphic" in2="effect1_dropShadow_1710_781" result="shape"/>
</filter>
</defs>
</svg>
