<svg width="555" height="226" viewBox="0 0 555 226" fill="none" xmlns="http://www.w3.org/2000/svg">
<g filter="url(#filter0_dddddd_892_661)">
<line x1="112" y1="113" x2="443" y2="113" stroke="#EBC0F6" stroke-width="2"/>
</g>
<path d="M126.464 70.432H139.456V73.984H126.464V70.432ZM125.376 81.568H143.04V85.184H125.376V81.568ZM132.128 77.824H136V94.624C136 96.544 135.616 97.568 134.368 98.176C133.088 98.752 131.328 98.88 128.96 98.848C128.768 97.792 128.128 96.128 127.616 95.104C129.248 95.168 130.912 95.2 131.456 95.168C131.968 95.136 132.128 95.008 132.128 94.56V77.824ZM138.08 70.432H139.008L139.808 70.24L142.304 72.128C140.416 74.912 137.696 78.304 135.2 80.416C134.688 79.744 133.632 78.688 133.024 78.176C134.912 76.352 137.12 73.184 138.08 71.264V70.432ZM113.184 75.2H123.52V78.752H113.184V75.2ZM117.472 68.832L121.088 69.216C119.872 76.032 118.016 84.608 116.512 90.368L113.376 88.704C114.752 83.648 116.48 75.2 117.472 68.832ZM115.04 88.16L117.152 85.472C120.48 87.552 124.704 90.656 126.56 93.056L124.256 96.16C122.464 93.728 118.4 90.368 115.04 88.16ZM122.208 75.2H122.816L123.488 75.104L125.76 75.488C125.024 87.968 121.92 95.04 115.584 98.976C115.072 98.048 114.048 96.672 113.28 95.936C118.72 93.088 121.568 86.016 122.208 75.904V75.2ZM157.376 82.56C160.064 89.28 165.792 93.664 174.816 95.264C173.952 96.064 172.864 97.728 172.32 98.784C162.912 96.704 157.344 91.68 154.016 83.552L157.376 82.56ZM167.168 80.64H167.904L168.608 80.48L171.232 81.6C168.672 91.168 162.336 96.224 154.016 98.848C153.536 97.856 152.608 96.384 151.84 95.584C159.264 93.664 165.184 88.864 167.168 81.312V80.64ZM146.016 73.6H173.952V77.312H146.016V73.6ZM155.072 80.64H167.552V84.352H153.984L155.072 80.64ZM154.016 68.832H158.016C157.76 73.856 157.28 89.344 148.064 97.728C147.264 96.704 146.048 95.744 144.736 94.976C153.888 87.52 153.824 72.736 154.016 68.832ZM194.496 72.416H198.272V90.08H194.496V72.416ZM201.952 69.44H205.76V94.304C205.76 96.48 205.312 97.536 204.064 98.144C202.72 98.752 200.736 98.88 197.856 98.88C197.664 97.792 197.12 96.096 196.576 95.04C198.496 95.104 200.512 95.072 201.12 95.072C201.728 95.072 201.952 94.88 201.952 94.304V69.44ZM182.432 77.376H190.656V80.864H182.432V77.376ZM177.728 70.272H193.632V73.824H177.728V70.272ZM180.48 85.824L182.272 82.976C184.128 84.032 186.72 85.632 187.968 86.688L186.048 89.92C184.864 88.768 182.336 87.04 180.48 85.824ZM189.312 77.376H190.048L190.688 77.248L193.088 78.048C191.488 88.64 187.2 95.552 181.312 98.976C180.736 98.144 179.296 96.736 178.432 96.16C184.192 93.12 188.064 87.2 189.312 78.144V77.376ZM183.008 72.224L186.848 72.96C185.376 78.496 182.976 84.704 179.136 88.48C178.464 87.744 177.216 86.592 176.416 85.984C179.872 82.688 182.048 76.928 183.008 72.224ZM210.944 70.944H237.152V74.208H210.944V70.944ZM212.416 75.84H235.904V78.912H212.416V75.84ZM209.76 80.672H238.176V83.936H209.76V80.672ZM221.952 68.832H225.856V83.424H221.952V68.832ZM221.984 81.888L225.312 83.456C221.888 87.136 216.224 90.368 211.008 92C210.432 91.072 209.344 89.664 208.544 88.864C213.6 87.552 219.168 84.8 221.984 81.888ZM227.52 82.496C229.184 88.864 232.736 93.504 239.328 95.392C238.464 96.16 237.376 97.76 236.832 98.816C229.664 96.32 226.112 91.008 224.032 83.168L227.52 82.496ZM234.912 84.416L238.08 86.816C235.68 88.544 232.8 90.304 230.592 91.392L228.16 89.344C230.304 88.096 233.184 86.048 234.912 84.416ZM211.936 95.264C215.808 94.592 221.696 93.376 227.168 92.192L227.52 95.648C222.496 96.8 217.056 97.984 213.088 98.848L211.936 95.264ZM216.32 88.768L218.848 86.24L220.16 86.592V95.808H216.32V88.768Z" fill="#D8A5DF"/>
<defs>
<filter id="filter0_dddddd_892_661" x="0.515198" y="0.515198" width="553.97" height="224.97" filterUnits="userSpaceOnUse" color-interpolation-filters="sRGB">
<feFlood flood-opacity="0" result="BackgroundImageFix"/>
<feColorMatrix in="SourceAlpha" type="matrix" values="0 0 0 0 0 0 0 0 0 0 0 0 0 0 0 0 0 0 127 0" result="hardAlpha"/>
<feOffset/>
<feGaussianBlur stdDeviation="1.3272"/>
<feColorMatrix type="matrix" values="0 0 0 0 0.921569 0 0 0 0 0.752941 0 0 0 0 0.964706 0 0 0 1 0"/>
<feBlend mode="normal" in2="BackgroundImageFix" result="effect1_dropShadow_892_661"/>
<feColorMatrix in="SourceAlpha" type="matrix" values="0 0 0 0 0 0 0 0 0 0 0 0 0 0 0 0 0 0 127 0" result="hardAlpha"/>
<feOffset/>
<feGaussianBlur stdDeviation="2.6544"/>
<feColorMatrix type="matrix" values="0 0 0 0 0.921569 0 0 0 0 0.752941 0 0 0 0 0.964706 0 0 0 1 0"/>
<feBlend mode="normal" in2="effect1_dropShadow_892_661" result="effect2_dropShadow_892_661"/>
<feColorMatrix in="SourceAlpha" type="matrix" values="0 0 0 0 0 0 0 0 0 0 0 0 0 0 0 0 0 0 127 0" result="hardAlpha"/>
<feOffset/>
<feGaussianBlur stdDeviation="9.2904"/>
<feColorMatrix type="matrix" values="0 0 0 0 0.921569 0 0 0 0 0.752941 0 0 0 0 0.964706 0 0 0 1 0"/>
<feBlend mode="normal" in2="effect2_dropShadow_892_661" result="effect3_dropShadow_892_661"/>
<feColorMatrix in="SourceAlpha" type="matrix" values="0 0 0 0 0 0 0 0 0 0 0 0 0 0 0 0 0 0 127 0" result="hardAlpha"/>
<feOffset/>
<feGaussianBlur stdDeviation="18.5808"/>
<feColorMatrix type="matrix" values="0 0 0 0 0.921569 0 0 0 0 0.752941 0 0 0 0 0.964706 0 0 0 1 0"/>
<feBlend mode="normal" in2="effect3_dropShadow_892_661" result="effect4_dropShadow_892_661"/>
<feColorMatrix in="SourceAlpha" type="matrix" values="0 0 0 0 0 0 0 0 0 0 0 0 0 0 0 0 0 0 127 0" result="hardAlpha"/>
<feOffset/>
<feGaussianBlur stdDeviation="31.8528"/>
<feColorMatrix type="matrix" values="0 0 0 0 0.921569 0 0 0 0 0.752941 0 0 0 0 0.964706 0 0 0 1 0"/>
<feBlend mode="normal" in2="effect4_dropShadow_892_661" result="effect5_dropShadow_892_661"/>
<feColorMatrix in="SourceAlpha" type="matrix" values="0 0 0 0 0 0 0 0 0 0 0 0 0 0 0 0 0 0 127 0" result="hardAlpha"/>
<feOffset/>
<feGaussianBlur stdDeviation="55.7424"/>
<feColorMatrix type="matrix" values="0 0 0 0 0.921569 0 0 0 0 0.752941 0 0 0 0 0.964706 0 0 0 1 0"/>
<feBlend mode="normal" in2="effect5_dropShadow_892_661" result="effect6_dropShadow_892_661"/>
<feBlend mode="normal" in="SourceGraphic" in2="effect6_dropShadow_892_661" result="shape"/>
</filter>
</defs>
</svg>
