<svg width="555" height="226" viewBox="0 0 555 226" fill="none" xmlns="http://www.w3.org/2000/svg">
<g filter="url(#filter0_dddddd_892_661)">
<line x1="112" y1="113" x2="443" y2="113" stroke="#EBC0F6" stroke-width="2"/>
</g>
<path d="M125.408 72.744H139.52V73.672H125.664L125.408 72.744ZM125.056 84.104H138.144L140.032 81.48C140.032 81.48 140.149 81.5867 140.384 81.8C140.619 81.992 140.917 82.248 141.28 82.568C141.643 82.8667 142.016 83.1867 142.4 83.528C142.805 83.8693 143.157 84.1893 143.456 84.488C143.371 84.8293 143.083 85 142.592 85H125.312L125.056 84.104ZM131.744 78.44L136.608 78.888C136.587 79.1227 136.491 79.3147 136.32 79.464C136.149 79.6133 135.883 79.7093 135.52 79.752V95.368C135.52 96.2427 135.413 96.9893 135.2 97.608C134.987 98.248 134.528 98.7493 133.824 99.112C133.141 99.496 132.085 99.752 130.656 99.88C130.613 99.2827 130.539 98.7493 130.432 98.28C130.347 97.832 130.187 97.4693 129.952 97.192C129.696 96.872 129.365 96.616 128.96 96.424C128.555 96.2107 127.957 96.04 127.168 95.912V95.496C127.168 95.496 127.328 95.5067 127.648 95.528C127.989 95.5493 128.395 95.5707 128.864 95.592C129.355 95.6133 129.803 95.6347 130.208 95.656C130.635 95.6773 130.933 95.688 131.104 95.688C131.339 95.688 131.499 95.6453 131.584 95.56C131.691 95.4747 131.744 95.336 131.744 95.144V78.44ZM137.824 72.744H137.44L139.456 70.824L142.848 73.832C142.72 73.96 142.549 74.056 142.336 74.12C142.144 74.1627 141.867 74.1947 141.504 74.216C140.843 74.728 140.085 75.3147 139.232 75.976C138.379 76.6373 137.493 77.288 136.576 77.928C135.68 78.5467 134.805 79.0693 133.952 79.496H133.504C134.016 78.8987 134.549 78.184 135.104 77.352C135.659 76.52 136.181 75.688 136.672 74.856C137.163 74.0027 137.547 73.2987 137.824 72.744ZM112.832 77.832H124.864V78.728H113.12L112.832 77.832ZM117.984 69.896L122.496 70.856C122.432 71.0693 122.304 71.2507 122.112 71.4C121.92 71.528 121.621 71.592 121.216 71.592C121.067 72.3813 120.864 73.384 120.608 74.6C120.373 75.7947 120.085 77.1067 119.744 78.536C119.424 79.9653 119.093 81.416 118.752 82.888C118.411 84.36 118.069 85.7787 117.728 87.144C117.387 88.488 117.056 89.6827 116.736 90.728C116.416 90.9627 115.936 91.1013 115.296 91.144C114.656 91.1653 113.963 91.0693 113.216 90.856C113.579 89.832 113.952 88.6053 114.336 87.176C114.72 85.7467 115.093 84.2213 115.456 82.6C115.84 80.9787 116.203 79.368 116.544 77.768C116.885 76.168 117.184 74.6853 117.44 73.32C117.696 71.9547 117.877 70.8133 117.984 69.896ZM116.512 88.008C118.645 88.456 120.395 89.0427 121.76 89.768C123.125 90.472 124.16 91.2293 124.864 92.04C125.589 92.8507 126.048 93.64 126.24 94.408C126.453 95.1547 126.443 95.7947 126.208 96.328C125.995 96.8613 125.632 97.2027 125.12 97.352C124.629 97.5227 124.053 97.4053 123.392 97C123.136 96.2107 122.752 95.4107 122.24 94.6C121.749 93.7893 121.173 93 120.512 92.232C119.872 91.464 119.179 90.7387 118.432 90.056C117.685 89.3733 116.949 88.7867 116.224 88.296L116.512 88.008ZM122.208 77.832H121.856L123.648 75.912L126.944 78.76C126.837 78.9307 126.688 79.0587 126.496 79.144C126.325 79.208 126.069 79.2613 125.728 79.304C125.493 81.3947 125.152 83.432 124.704 85.416C124.256 87.4 123.584 89.2667 122.688 91.016C121.792 92.7653 120.555 94.3547 118.976 95.784C117.419 97.192 115.413 98.408 112.96 99.432L112.672 99.048C114.485 97.896 115.979 96.552 117.152 95.016C118.347 93.4587 119.285 91.7733 119.968 89.96C120.672 88.1253 121.184 86.184 121.504 84.136C121.845 82.088 122.08 79.9867 122.208 77.832ZM168.256 81.704H167.84L169.952 79.688L173.344 82.792C173.216 82.984 173.056 83.112 172.864 83.176C172.672 83.24 172.373 83.2933 171.968 83.336C171.029 85.9387 169.739 88.328 168.096 90.504C166.475 92.6587 164.395 94.536 161.856 96.136C159.339 97.7147 156.245 98.9413 152.576 99.816L152.352 99.4C156.725 97.672 160.224 95.272 162.848 92.2C165.472 89.128 167.275 85.6293 168.256 81.704ZM159.616 82.12C160.256 84.3173 161.163 86.216 162.336 87.816C163.509 89.3947 164.907 90.7387 166.528 91.848C168.171 92.936 169.963 93.832 171.904 94.536C173.867 95.24 175.936 95.7947 178.112 96.2L178.08 96.552C177.227 96.7227 176.501 97.0853 175.904 97.64C175.328 98.216 174.901 98.952 174.624 99.848C172.576 99.1867 170.72 98.376 169.056 97.416C167.392 96.456 165.909 95.2933 164.608 93.928C163.307 92.5413 162.197 90.9093 161.28 89.032C160.384 87.1547 159.68 84.936 159.168 82.376L159.616 82.12ZM148.032 76.2H170.944L173.152 73.352C173.152 73.352 173.291 73.4587 173.568 73.672C173.845 73.8853 174.197 74.152 174.624 74.472C175.051 74.792 175.499 75.144 175.968 75.528C176.437 75.912 176.864 76.264 177.248 76.584C177.163 76.9253 176.853 77.096 176.32 77.096H148.32L148.032 76.2ZM157.344 69.832L162.848 70.184C162.827 70.3973 162.731 70.5893 162.56 70.76C162.411 70.9093 162.091 71.0267 161.6 71.112C161.429 73.096 161.195 75.1333 160.896 77.224C160.597 79.2933 160.149 81.3627 159.552 83.432C158.976 85.48 158.197 87.4747 157.216 89.416C156.235 91.336 154.976 93.1387 153.44 94.824C151.925 96.488 150.069 97.96 147.872 99.24L147.488 98.952C149.557 97.1173 151.232 95.0587 152.512 92.776C153.792 90.472 154.773 88.04 155.456 85.48C156.139 82.8987 156.619 80.2853 156.896 77.64C157.173 74.9947 157.323 72.392 157.344 69.832ZM157.024 81.704H169.792V82.632H156.8L157.024 81.704ZM182.4 72.936H194.272L196.32 70.088C196.32 70.088 196.448 70.1947 196.704 70.408C196.96 70.6213 197.291 70.8987 197.696 71.24C198.101 71.5813 198.517 71.944 198.944 72.328C199.392 72.6907 199.787 73.032 200.128 73.352C200.043 73.6933 199.733 73.864 199.2 73.864H182.656L182.4 72.936ZM188.704 79.144H196.096V80.04H188.384L188.704 79.144ZM188.16 72.936H192.736C192.267 74.92 191.541 76.9147 190.56 78.92C189.579 80.9253 188.384 82.8133 186.976 84.584C185.568 86.3547 183.968 87.88 182.176 89.16L181.888 88.872C183.019 87.4 184.011 85.768 184.864 83.976C185.739 82.1627 186.464 80.3067 187.04 78.408C187.616 76.488 187.989 74.664 188.16 72.936ZM186.752 83.208C188.203 83.4 189.344 83.72 190.176 84.168C191.029 84.5947 191.616 85.0747 191.936 85.608C192.277 86.1413 192.416 86.664 192.352 87.176C192.288 87.6667 192.085 88.072 191.744 88.392C191.424 88.712 191.019 88.8933 190.528 88.936C190.037 88.9573 189.515 88.7547 188.96 88.328C188.939 87.752 188.8 87.1653 188.544 86.568C188.309 85.9493 188.011 85.3627 187.648 84.808C187.285 84.2533 186.901 83.784 186.496 83.4L186.752 83.208ZM200.8 72.456L205.152 72.904C205.131 73.096 205.045 73.2667 204.896 73.416C204.747 73.544 204.491 73.64 204.128 73.704V91.4C204.128 91.4853 203.979 91.6133 203.68 91.784C203.403 91.9547 203.061 92.104 202.656 92.232C202.251 92.3387 201.835 92.392 201.408 92.392H200.8V72.456ZM207.008 70.44L211.808 70.888C211.787 71.1227 211.68 71.3253 211.488 71.496C211.317 71.6453 211.04 71.752 210.656 71.816V95.4C210.656 96.2533 210.549 96.9893 210.336 97.608C210.123 98.2267 209.664 98.7173 208.96 99.08C208.277 99.464 207.211 99.72 205.76 99.848C205.717 99.272 205.632 98.76 205.504 98.312C205.397 97.8853 205.205 97.5333 204.928 97.256C204.651 96.936 204.288 96.68 203.84 96.488C203.413 96.2747 202.773 96.104 201.92 95.976V95.528C201.92 95.528 202.101 95.5387 202.464 95.56C202.848 95.5813 203.296 95.6133 203.808 95.656C204.341 95.6773 204.832 95.6987 205.28 95.72C205.749 95.7413 206.08 95.752 206.272 95.752C206.549 95.752 206.741 95.7093 206.848 95.624C206.955 95.5173 207.008 95.3573 207.008 95.144V70.44ZM195.136 79.144H194.752L196.736 77.096L200.128 80.168C200.021 80.3387 199.872 80.4667 199.68 80.552C199.488 80.6373 199.189 80.7013 198.784 80.744C198.251 82.7707 197.568 84.744 196.736 86.664C195.925 88.5627 194.891 90.344 193.632 92.008C192.395 93.6507 190.891 95.144 189.12 96.488C187.349 97.832 185.237 98.9627 182.784 99.88L182.528 99.496C184.939 98.0667 186.987 96.296 188.672 94.184C190.379 92.072 191.755 89.736 192.8 87.176C193.867 84.5947 194.645 81.9173 195.136 79.144ZM229.824 69.832L234.848 70.248C234.827 70.4613 234.731 70.6533 234.56 70.824C234.389 70.9733 234.091 71.08 233.664 71.144V83.464H229.824V69.832ZM218.848 73.672H239.488L241.44 71.016C241.44 71.016 241.557 71.1227 241.792 71.336C242.027 71.528 242.325 71.784 242.688 72.104C243.072 72.4027 243.467 72.7333 243.872 73.096C244.277 73.4373 244.64 73.768 244.96 74.088C244.875 74.4293 244.587 74.6 244.096 74.6H219.136L218.848 73.672ZM217.024 82.728H240.928L242.88 80.072C242.88 80.072 242.997 80.1787 243.232 80.392C243.488 80.584 243.797 80.84 244.16 81.16C244.523 81.4587 244.907 81.7893 245.312 82.152C245.717 82.4933 246.08 82.8133 246.4 83.112C246.315 83.4533 246.016 83.624 245.504 83.624H217.28L217.024 82.728ZM220.16 78.184H238.72L240.608 75.592C240.608 75.592 240.725 75.6987 240.96 75.912C241.195 76.104 241.483 76.3493 241.824 76.648C242.187 76.9467 242.56 77.2667 242.944 77.608C243.349 77.9493 243.712 78.2693 244.032 78.568C243.947 78.9093 243.648 79.08 243.136 79.08H220.416L220.16 78.184ZM224.864 88.264L228.576 86.024V95.176C228.555 95.24 228.277 95.3573 227.744 95.528C227.232 95.6773 226.496 95.752 225.536 95.752H224.864V88.264ZM227.552 82.856H232.672V83.368C231.605 84.8187 230.272 86.1413 228.672 87.336C227.072 88.5307 225.259 89.5867 223.232 90.504C221.227 91.4 219.072 92.1787 216.768 92.84L216.544 92.456C218.123 91.6667 219.605 90.7493 220.992 89.704C222.379 88.6373 223.627 87.5173 224.736 86.344C225.867 85.1707 226.805 84.008 227.552 82.856ZM219.936 95.72C220.832 95.592 222.069 95.3893 223.648 95.112C225.227 94.8347 227.019 94.5147 229.024 94.152C231.029 93.7893 233.099 93.3947 235.232 92.968L235.296 93.352C233.995 94.056 232.331 94.8773 230.304 95.816C228.277 96.7547 225.803 97.832 222.88 99.048C222.731 99.4747 222.453 99.7413 222.048 99.848L219.936 95.72ZM240.8 84.04L245.152 86.856C245.045 87.0053 244.907 87.1227 244.736 87.208C244.565 87.272 244.288 87.272 243.904 87.208C243.243 87.5707 242.453 87.9653 241.536 88.392C240.64 88.7973 239.701 89.1813 238.72 89.544C237.739 89.9067 236.768 90.2267 235.808 90.504L235.52 90.184C236.16 89.608 236.811 88.9467 237.472 88.2C238.155 87.4533 238.784 86.7173 239.36 85.992C239.957 85.2453 240.437 84.5947 240.8 84.04ZM233.088 82.888C233.813 85.448 234.848 87.5493 236.192 89.192C237.557 90.8347 239.168 92.1147 241.024 93.032C242.88 93.9493 244.885 94.6 247.04 94.984L247.008 95.432C246.091 95.8587 245.365 96.4133 244.832 97.096C244.299 97.8 243.979 98.6 243.872 99.496C240.843 98.2373 238.4 96.296 236.544 93.672C234.688 91.0267 233.355 87.5173 232.544 83.144L233.088 82.888Z" fill="#D8A5DF"/>
<defs>
<filter id="filter0_dddddd_892_661" x="0.515198" y="0.515198" width="553.97" height="224.97" filterUnits="userSpaceOnUse" color-interpolation-filters="sRGB">
<feFlood flood-opacity="0" result="BackgroundImageFix"/>
<feColorMatrix in="SourceAlpha" type="matrix" values="0 0 0 0 0 0 0 0 0 0 0 0 0 0 0 0 0 0 127 0" result="hardAlpha"/>
<feOffset/>
<feGaussianBlur stdDeviation="1.3272"/>
<feColorMatrix type="matrix" values="0 0 0 0 0.921569 0 0 0 0 0.752941 0 0 0 0 0.964706 0 0 0 1 0"/>
<feBlend mode="normal" in2="BackgroundImageFix" result="effect1_dropShadow_892_661"/>
<feColorMatrix in="SourceAlpha" type="matrix" values="0 0 0 0 0 0 0 0 0 0 0 0 0 0 0 0 0 0 127 0" result="hardAlpha"/>
<feOffset/>
<feGaussianBlur stdDeviation="2.6544"/>
<feColorMatrix type="matrix" values="0 0 0 0 0.921569 0 0 0 0 0.752941 0 0 0 0 0.964706 0 0 0 1 0"/>
<feBlend mode="normal" in2="effect1_dropShadow_892_661" result="effect2_dropShadow_892_661"/>
<feColorMatrix in="SourceAlpha" type="matrix" values="0 0 0 0 0 0 0 0 0 0 0 0 0 0 0 0 0 0 127 0" result="hardAlpha"/>
<feOffset/>
<feGaussianBlur stdDeviation="9.2904"/>
<feColorMatrix type="matrix" values="0 0 0 0 0.921569 0 0 0 0 0.752941 0 0 0 0 0.964706 0 0 0 1 0"/>
<feBlend mode="normal" in2="effect2_dropShadow_892_661" result="effect3_dropShadow_892_661"/>
<feColorMatrix in="SourceAlpha" type="matrix" values="0 0 0 0 0 0 0 0 0 0 0 0 0 0 0 0 0 0 127 0" result="hardAlpha"/>
<feOffset/>
<feGaussianBlur stdDeviation="18.5808"/>
<feColorMatrix type="matrix" values="0 0 0 0 0.921569 0 0 0 0 0.752941 0 0 0 0 0.964706 0 0 0 1 0"/>
<feBlend mode="normal" in2="effect3_dropShadow_892_661" result="effect4_dropShadow_892_661"/>
<feColorMatrix in="SourceAlpha" type="matrix" values="0 0 0 0 0 0 0 0 0 0 0 0 0 0 0 0 0 0 127 0" result="hardAlpha"/>
<feOffset/>
<feGaussianBlur stdDeviation="31.8528"/>
<feColorMatrix type="matrix" values="0 0 0 0 0.921569 0 0 0 0 0.752941 0 0 0 0 0.964706 0 0 0 1 0"/>
<feBlend mode="normal" in2="effect4_dropShadow_892_661" result="effect5_dropShadow_892_661"/>
<feColorMatrix in="SourceAlpha" type="matrix" values="0 0 0 0 0 0 0 0 0 0 0 0 0 0 0 0 0 0 127 0" result="hardAlpha"/>
<feOffset/>
<feGaussianBlur stdDeviation="55.7424"/>
<feColorMatrix type="matrix" values="0 0 0 0 0.921569 0 0 0 0 0.752941 0 0 0 0 0.964706 0 0 0 1 0"/>
<feBlend mode="normal" in2="effect5_dropShadow_892_661" result="effect6_dropShadow_892_661"/>
<feBlend mode="normal" in="SourceGraphic" in2="effect6_dropShadow_892_661" result="shape"/>
</filter>
</defs>
</svg>
