<svg width="185" height="72" viewBox="0 0 185 72" fill="none" xmlns="http://www.w3.org/2000/svg">
<path d="M3.44 5.66V9.908H2.576V6.5H1.052V5.66H3.44ZM3.44 9.548C4.004 10.436 5.06 10.844 6.488 10.892C7.82 10.952 10.592 10.916 12.044 10.82C11.936 11.024 11.792 11.444 11.756 11.708C10.4 11.768 7.832 11.792 6.488 11.732C4.904 11.672 3.812 11.252 3.068 10.304C2.54 10.82 1.988 11.336 1.388 11.864L0.92 10.988C1.448 10.604 2.096 10.064 2.66 9.548H3.44ZM1.16 1.724L1.844 1.232C2.588 1.772 3.428 2.6 3.8 3.188L3.056 3.752C2.72 3.152 1.892 2.312 1.16 1.724ZM4.244 3.152H11.912V3.86H4.244V3.152ZM5.204 6.176H9.236V6.872H5.204V6.176ZM9.152 7.256H10.94V7.94H9.152V7.256ZM7.616 1.88H8.468V5.888H7.616V1.88ZM7.376 3.476L8.024 3.74C7.22 4.904 5.732 6.008 4.412 6.548C4.28 6.344 4.04 6.056 3.86 5.9C5.168 5.456 6.632 4.484 7.376 3.476ZM8.708 3.512C9.416 4.46 10.82 5.372 12.116 5.768C11.936 5.936 11.696 6.236 11.576 6.44C10.268 5.936 8.864 4.856 8.096 3.74L8.708 3.512ZM10.688 7.256H11.54C11.54 7.256 11.516 7.472 11.504 7.592C11.372 9.008 11.216 9.62 10.952 9.86C10.76 10.052 10.532 10.112 10.22 10.124C9.92 10.148 9.344 10.148 8.756 10.112C8.732 9.896 8.648 9.608 8.528 9.404C9.104 9.464 9.668 9.476 9.872 9.476C10.076 9.476 10.184 9.464 10.268 9.38C10.46 9.212 10.58 8.684 10.688 7.376V7.256ZM10.796 1.124L11.396 1.736C9.704 2.108 7.016 2.312 4.808 2.384C4.784 2.204 4.688 1.916 4.604 1.736C6.776 1.652 9.392 1.448 10.796 1.124ZM6.692 6.368H7.532C7.34 8.24 6.788 9.584 4.724 10.292C4.64 10.088 4.412 9.776 4.244 9.62C6.092 9.044 6.536 7.916 6.692 6.368ZM9.008 6.176H9.824C9.692 6.908 9.512 7.76 9.368 8.348L8.588 8.24C8.744 7.664 8.912 6.848 9.008 6.176ZM15.44 5.66V9.908H14.576V6.5H13.052V5.66H15.44ZM15.44 9.548C16.004 10.436 17.06 10.844 18.488 10.892C19.82 10.952 22.592 10.916 24.044 10.82C23.936 11.024 23.792 11.444 23.756 11.708C22.4 11.768 19.832 11.792 18.488 11.732C16.904 11.672 15.812 11.252 15.068 10.304C14.54 10.82 13.988 11.336 13.388 11.864L12.92 10.988C13.448 10.604 14.096 10.064 14.66 9.548H15.44ZM13.16 1.724L13.844 1.232C14.588 1.772 15.428 2.6 15.8 3.188L15.056 3.752C14.72 3.152 13.892 2.312 13.16 1.724ZM16.604 5.06H23.096V5.78H17.408V10.268H16.604V5.06ZM19.508 3.032H22.028V3.668H20.192V5.36H19.508V3.032ZM17.54 1.34H22.484V5.3H21.668V2.048H18.344V5.3H17.54V1.34ZM18.824 6.548H21.536V9.092H18.824V8.468H20.84V7.196H18.824V6.548ZM22.592 5.06H23.42V9.38C23.42 9.788 23.348 10.016 23.036 10.136C22.748 10.268 22.28 10.268 21.572 10.268C21.536 10.052 21.428 9.74 21.32 9.536C21.824 9.548 22.28 9.548 22.412 9.548C22.544 9.536 22.592 9.5 22.592 9.38V5.06ZM18.416 6.548H19.112V9.572H18.416V6.548ZM28.268 7.028H35.888V7.844H28.268V7.028ZM32.696 2.144H33.536V4.496C33.536 4.76 33.572 4.808 33.884 4.808C34.016 4.808 34.724 4.808 34.904 4.808C35.156 4.808 35.204 4.688 35.228 3.872C35.408 4.004 35.744 4.112 35.972 4.172C35.888 5.264 35.66 5.54 35 5.54C34.82 5.54 33.944 5.54 33.776 5.54C32.9 5.54 32.696 5.324 32.696 4.508V2.144ZM28.436 1.46H35.804V3.464H34.976V2.228H29.24V3.668H28.436V1.46ZM31.544 5.672H32.42V11.96H31.544V5.672ZM30.704 2.156H31.556C31.436 4.292 30.956 5.384 28.712 5.984C28.64 5.78 28.412 5.468 28.256 5.312C30.248 4.832 30.608 3.968 30.704 2.156ZM32.78 7.412C33.452 8.696 34.796 10.028 36.08 10.64C35.864 10.808 35.576 11.132 35.432 11.372C34.16 10.628 32.84 9.128 32.12 7.652L32.78 7.412ZM31.268 7.34L31.976 7.58C31.184 9.212 29.732 10.7 28.256 11.456C28.124 11.252 27.872 10.94 27.68 10.772C29.108 10.136 30.536 8.768 31.268 7.34ZM25.52 1.712L26.048 1.064C26.792 1.4 27.716 1.964 28.172 2.384L27.632 3.116C27.188 2.672 26.288 2.084 25.52 1.712ZM24.968 5.012L25.424 4.316C26.192 4.556 27.152 5 27.632 5.372L27.152 6.164C26.684 5.768 25.736 5.3 24.968 5.012ZM25.28 11.276C25.856 10.364 26.684 8.804 27.296 7.472L27.992 8C27.428 9.248 26.696 10.724 26.06 11.828L25.28 11.276ZM39.2 4.292H47.732V5.036H39.2V4.292ZM39.368 7.796H46.232V8.54H39.368V7.796ZM41.132 3.248H41.984V6.308H44.912V3.248H45.788V7.028H41.132V3.248ZM45.992 7.796H46.172L46.34 7.748L46.904 8.06C45.584 10.556 42.512 11.564 39.284 11.972C39.212 11.744 39.044 11.408 38.9 11.204C41.936 10.916 44.9 9.98 45.992 7.928V7.796ZM41.504 8.42C42.644 10.016 45.128 10.916 48.032 11.216C47.84 11.408 47.612 11.756 47.504 11.984C44.528 11.6 42.032 10.58 40.724 8.708L41.504 8.42ZM42.38 0.931999H43.304V2.564H42.38V0.931999ZM38.384 2.12H47.816V2.936H38.384V2.12ZM37.94 2.12H38.804V5.576C38.804 7.448 38.648 10.16 37.616 11.984C37.46 11.828 37.076 11.576 36.872 11.48C37.856 9.764 37.94 7.328 37.94 5.576V2.12ZM49.52 1.688H59.552V2.54H49.52V1.688ZM52.22 4.304H57.164V5.12H52.22V4.304ZM51.524 7.736H56.792V8.552H51.524V7.736ZM49.112 10.592H59.9V11.432H49.112V10.592ZM52.244 2.264H53.204C52.796 4.472 52.184 7.448 51.728 9.176L50.768 9.08C51.248 7.352 51.884 4.388 52.244 2.264ZM56.756 4.304H57.704C57.476 6.416 57.14 9.284 56.876 10.916H55.904C56.192 9.236 56.576 6.368 56.756 4.304ZM61.328 8.768H66.8V9.452H61.328V8.768ZM61.004 2.984H66.992V3.68H61.004V2.984ZM63.608 1.892H64.436V10.724H63.608V1.892ZM60.992 10.748C62.456 10.616 64.7 10.4 66.848 10.172L66.86 10.88C64.82 11.12 62.648 11.372 61.124 11.528L60.992 10.748ZM62.108 6.524V7.412H65.996V6.524H62.108ZM62.108 5.06V5.924H65.996V5.06H62.108ZM61.352 4.436H66.764V8.036H61.352V4.436ZM66.332 1.04L66.788 1.736C65.372 2.048 63.14 2.252 61.34 2.312C61.304 2.12 61.22 1.82 61.124 1.64C62.912 1.544 65.096 1.328 66.332 1.04ZM66.908 3.728H71.24V4.568H66.908V3.728ZM70.892 3.728H71.756C71.756 3.728 71.744 4.064 71.744 4.184C71.612 9.248 71.492 10.928 71.096 11.444C70.88 11.756 70.64 11.864 70.28 11.9C69.944 11.936 69.368 11.936 68.816 11.9C68.792 11.648 68.696 11.276 68.552 11.036C69.14 11.084 69.668 11.096 69.908 11.096C70.1 11.096 70.22 11.06 70.328 10.904C70.628 10.532 70.76 8.804 70.892 3.944V3.728ZM68.36 1.076H69.224C69.212 5.852 69.2 9.884 66.332 12.032C66.188 11.816 65.876 11.528 65.66 11.384C68.408 9.416 68.348 5.612 68.36 1.076ZM74.384 12.284L74.108 11.66C75.092 11.252 75.632 10.64 75.632 9.74L75.404 8.72L76.052 9.632C75.884 9.848 75.644 9.908 75.416 9.908C74.924 9.908 74.516 9.62 74.516 9.044C74.516 8.48 74.948 8.18 75.428 8.18C76.1 8.18 76.46 8.732 76.46 9.572C76.46 10.868 75.644 11.852 74.384 12.284ZM88.796 7.112H95.888V7.94H88.796V7.112ZM92.816 2.744H93.632V4.868C93.632 5.12 93.68 5.168 93.98 5.168C94.112 5.168 94.784 5.168 94.964 5.168C95.228 5.168 95.276 5.048 95.3 4.112C95.468 4.244 95.804 4.364 96.032 4.424C95.948 5.6 95.72 5.9 95.06 5.9C94.88 5.9 94.04 5.9 93.872 5.9C93.008 5.9 92.816 5.672 92.816 4.88V2.744ZM88.988 1.58H95.792V3.704H94.976V2.372H89.78V3.752H88.988V1.58ZM91.844 5.816H92.732V11.96H91.844V5.816ZM90.896 2.768H91.736C91.616 4.628 91.148 5.636 89.18 6.176C89.096 5.984 88.88 5.684 88.712 5.54C90.452 5.096 90.8 4.316 90.896 2.768ZM93.068 7.484C93.716 8.792 94.988 10.064 96.224 10.688C96.032 10.856 95.756 11.168 95.6 11.396C94.34 10.652 93.068 9.224 92.36 7.76L93.068 7.484ZM91.556 7.412L92.264 7.664C91.544 9.284 90.2 10.724 88.724 11.456C88.592 11.24 88.34 10.928 88.136 10.76C89.552 10.148 90.896 8.84 91.556 7.412ZM84.824 7.148C85.76 6.884 87.164 6.452 88.532 6.008L88.652 6.836C87.404 7.268 86.084 7.7 85.064 8.024L84.824 7.148ZM84.992 3.344H88.64V4.184H84.992V3.344ZM86.504 0.931999H87.344V10.916C87.344 11.42 87.224 11.66 86.924 11.804C86.648 11.948 86.18 11.972 85.424 11.972C85.388 11.756 85.28 11.384 85.16 11.132C85.688 11.144 86.144 11.144 86.288 11.132C86.432 11.132 86.504 11.096 86.504 10.916V0.931999ZM102.02 8.66H102.92V11.984H102.02V8.66ZM102.02 0.92H102.908V4.28H102.02V0.92ZM101.576 4.496L102.416 4.904C101.72 5.552 100.868 6.248 100.172 6.728L99.512 6.356C100.184 5.864 101.084 5.072 101.576 4.496ZM104.168 5.276L104.984 5.72C103.628 6.824 101.78 8.096 100.316 8.912L99.68 8.48C101.144 7.652 103.04 6.296 104.168 5.276ZM98.588 6.32L99.188 5.804C100.088 6.248 101.228 6.932 101.816 7.436L101.192 8.012C100.64 7.508 99.512 6.788 98.588 6.32ZM104.036 7.268L104.636 6.788C105.692 7.412 107.024 8.336 107.696 8.972L107.06 9.524C106.424 8.888 105.104 7.904 104.036 7.268ZM104.072 9.836L104.756 9.368C105.788 9.872 107.108 10.676 107.792 11.264L107.048 11.804C106.424 11.216 105.128 10.376 104.072 9.836ZM97.28 8.288C99.476 8.288 103.1 8.24 106.52 8.168L106.472 8.888C103.148 8.984 99.608 9.092 97.328 9.116L97.28 8.288ZM99.968 9.356L100.82 9.668C100.016 10.496 98.78 11.324 97.736 11.84C97.58 11.672 97.244 11.36 97.028 11.204C98.096 10.76 99.248 10.064 99.968 9.356ZM97.412 1.988H107.552V2.78H97.412V1.988ZM97.376 3.932H107.66V6.188H106.772V4.712H98.228V6.188H97.376V3.932ZM113.624 7.796H118.4V8.492H113.624V7.796ZM112.508 1.868H119.636V2.552H112.508V1.868ZM112.796 3.32H119.336V3.98H112.796V3.32ZM112.136 4.82H119.984V5.504H112.136V4.82ZM113.624 9.404H118.436V10.076H113.624V9.404ZM113.012 6.212H118.4V6.908H113.852V11.948H113.012V6.212ZM118.184 6.212H119.048V10.952C119.048 11.408 118.952 11.648 118.616 11.78C118.28 11.912 117.74 11.924 116.888 11.912C116.852 11.696 116.732 11.36 116.624 11.132C117.224 11.156 117.8 11.156 117.968 11.144C118.136 11.144 118.184 11.096 118.184 10.94V6.212ZM115.58 0.92H116.468V5.036H115.58V0.92ZM110.312 0.92H111.14V11.948H110.312V0.92ZM109.364 3.236L110.036 3.332C110 4.268 109.796 5.66 109.52 6.56L108.824 6.332C109.1 5.504 109.292 4.184 109.364 3.236ZM111.248 2.924L111.848 2.684C112.112 3.236 112.4 3.944 112.508 4.388L111.884 4.688C111.764 4.232 111.488 3.488 111.248 2.924ZM128.648 1.376L129.116 0.848C129.716 1.04 130.46 1.376 130.844 1.676L130.352 2.276C129.992 1.964 129.26 1.592 128.648 1.376ZM122.444 2.144H131.792V2.888H122.444V2.144ZM123.296 3.704H126.98V4.34H123.296V3.704ZM123.488 5.156H124.244V7.34H123.488V5.156ZM129.86 3.464L130.7 3.668C130.028 5.66 128.816 7.28 127.352 8.324C127.22 8.156 126.884 7.856 126.704 7.7C128.156 6.764 129.284 5.264 129.86 3.464ZM127.028 0.92H127.892C128.024 4.616 129.656 7.616 130.88 7.604C131.18 7.604 131.3 7.172 131.36 6.08C131.54 6.248 131.84 6.404 132.068 6.488C131.924 8.012 131.6 8.432 130.832 8.432C128.936 8.432 127.22 4.952 127.028 0.92ZM123.488 5.156H126.788V7.676H123.488V7.028H126.02V5.792H123.488V5.156ZM124.088 8.78H124.976V10.64C124.976 10.94 125.096 11 125.732 11C126.032 11 127.532 11 127.928 11C128.456 11 128.54 10.856 128.588 9.74C128.78 9.884 129.152 10.004 129.404 10.064C129.284 11.48 129.02 11.816 128 11.816C127.724 11.816 125.936 11.816 125.672 11.816C124.4 11.816 124.088 11.576 124.088 10.652V8.78ZM125.024 8.384L125.6 7.88C126.356 8.228 127.244 8.804 127.664 9.272L127.052 9.848C126.644 9.38 125.768 8.768 125.024 8.384ZM129.164 9.14L129.896 8.732C130.76 9.404 131.66 10.4 132.032 11.144L131.228 11.588C130.892 10.856 130.028 9.836 129.164 9.14ZM122.564 8.852L123.356 9.128C123.056 10.1 122.564 11.108 121.712 11.72L120.968 11.216C121.772 10.664 122.3 9.752 122.564 8.852ZM122.024 2.144H122.864V3.956C122.864 5.348 122.648 7.316 121.544 8.672C121.424 8.504 121.064 8.204 120.884 8.108C121.892 6.86 122.024 5.168 122.024 3.944V2.144ZM134.072 2.852H137.72V10.7H134.072V9.884H136.88V3.656H134.072V2.852ZM133.532 2.852H134.372V11.66H133.532V2.852ZM134.012 6.188H137.324V6.992H134.012V6.188ZM135.368 0.895999L136.34 1.076C136.1 1.82 135.8 2.648 135.56 3.188L134.84 3.008C135.044 2.432 135.272 1.52 135.368 0.895999ZM139.424 2.816H143.108V3.656H139.424V2.816ZM142.796 2.816H143.636C143.636 2.816 143.636 3.152 143.636 3.284C143.444 8.792 143.276 10.652 142.796 11.24C142.532 11.588 142.256 11.696 141.836 11.732C141.428 11.78 140.72 11.756 140.048 11.72C140.024 11.456 139.916 11.084 139.748 10.844C140.528 10.904 141.248 10.916 141.524 10.916C141.764 10.916 141.908 10.88 142.04 10.724C142.436 10.292 142.628 8.3 142.796 3.008V2.816ZM139.676 0.872L140.54 1.076C140.096 2.864 139.388 4.628 138.56 5.768C138.404 5.624 138.032 5.372 137.816 5.252C138.632 4.196 139.292 2.54 139.676 0.872ZM139.124 5.936L139.82 5.528C140.504 6.38 141.332 7.544 141.716 8.252L140.948 8.732C140.588 8 139.784 6.812 139.124 5.936ZM147.512 3.572L148.112 3.044C149.012 3.464 150.116 4.136 150.656 4.64L150.02 5.228C149.504 4.724 148.412 4.016 147.512 3.572ZM153.056 1.94H153.236L153.392 1.892L153.98 2.252C152.42 5.048 148.868 6.728 145.7 7.424C145.616 7.196 145.436 6.824 145.268 6.632C148.292 6.068 151.748 4.448 153.056 2.084V1.94ZM149.048 1.94H153.284V2.696H149.048V1.94ZM149.936 0.908L150.944 1.124C149.84 2.396 148.208 3.584 145.976 4.472C145.844 4.256 145.568 3.956 145.364 3.8C147.524 3.044 149.108 1.916 149.936 0.908ZM149.048 7.976L149.708 7.46C150.656 7.952 151.808 8.708 152.384 9.284L151.676 9.86C151.136 9.296 149.996 8.492 149.048 7.976ZM154.808 6.14H154.988L155.156 6.092L155.744 6.416C154.232 9.92 150.488 11.42 146.564 11.996C146.504 11.744 146.324 11.372 146.18 11.168C149.888 10.724 153.512 9.296 154.808 6.272V6.14ZM150.908 6.14H155.048V6.908H150.908V6.14ZM151.88 5.012L152.876 5.24C151.664 6.656 149.768 7.964 147.14 8.888C147.032 8.684 146.768 8.36 146.576 8.192C149.12 7.4 150.944 6.152 151.88 5.012ZM160.76 6.26H164.048V7.004H160.76V6.26ZM160.76 8.348H164.084V9.092H160.76V8.348ZM158.288 10.496H166.76V11.336H158.288V10.496ZM157.736 4.088H167.252V11.972H166.34V4.928H158.612V11.972H157.736V4.088ZM160.34 4.616H161.156V10.88H160.34V4.616ZM163.7 4.616H164.528V10.844H163.7V4.616ZM161.9 2.12L162.944 2.36C162.692 3.164 162.44 4.088 162.2 4.688L161.384 4.46C161.576 3.812 161.816 2.816 161.9 2.12ZM157.196 1.724H167.828V2.588H157.196V1.724ZM170.552 0.92H171.464V11.948H170.552V0.92ZM169.448 3.2L170.132 3.308C170.072 4.28 169.856 5.672 169.532 6.536L168.824 6.296C169.148 5.492 169.364 4.172 169.448 3.2ZM171.548 3.128L172.172 2.852C172.544 3.5 172.916 4.352 173.048 4.868L172.376 5.204C172.244 4.676 171.884 3.8 171.548 3.128ZM173.996 1.484L174.872 1.628C174.56 3.38 174.032 5.084 173.36 6.212C173.18 6.08 172.772 5.888 172.544 5.792C173.252 4.736 173.732 3.104 173.996 1.484ZM174.008 3.464H179.588V4.328H173.732L174.008 3.464ZM175.952 0.968H176.852V11.168H175.952V0.968ZM173.396 6.824H179.324V7.676H173.396V6.824ZM172.496 10.676H179.876V11.54H172.496V10.676ZM182.384 12.284L182.108 11.66C183.092 11.252 183.632 10.64 183.632 9.74L183.404 8.72L184.052 9.632C183.884 9.848 183.644 9.908 183.416 9.908C182.924 9.908 182.516 9.62 182.516 9.044C182.516 8.48 182.948 8.18 183.428 8.18C184.1 8.18 184.46 8.732 184.46 9.572C184.46 10.868 183.644 11.852 182.384 12.284ZM10.856 22.3H17.864V24.328H17.036V23.056H11.66V24.328H10.856V22.3ZM13.808 20.92H14.684V22.684H13.808V20.92ZM14.84 23.512H15.68V25.42C15.68 25.66 15.728 25.696 16.004 25.696C16.124 25.696 16.76 25.696 16.928 25.696C17.18 25.696 17.216 25.612 17.252 24.832C17.42 24.964 17.768 25.084 17.996 25.144C17.912 26.176 17.684 26.452 17.036 26.452C16.868 26.452 16.064 26.452 15.896 26.452C15.032 26.452 14.84 26.224 14.84 25.432V23.512ZM12.788 23.536H13.628C13.52 25.252 13.112 26.14 11.276 26.608C11.204 26.416 11 26.116 10.844 25.972C12.404 25.612 12.716 24.94 12.788 23.536ZM11.252 27.028H15.824V27.808H11.252V27.028ZM15.788 27.028H15.908L16.088 27.004L16.7 27.328C16.664 27.388 16.616 27.448 16.544 27.496C12.44 29.836 12.128 30.34 12.128 30.676C12.128 30.928 12.416 31.024 12.884 31.024H16.676C17.132 31.024 17.276 30.904 17.312 29.704C17.54 29.848 17.84 29.944 18.08 29.992C17.972 31.612 17.624 31.852 16.628 31.852H12.932C11.768 31.852 11.252 31.468 11.252 30.772C11.252 30.232 11.408 29.596 15.788 27.028ZM6.824 27.148C7.76 26.884 9.164 26.452 10.532 26.008L10.652 26.836C9.404 27.268 8.084 27.7 7.064 28.024L6.824 27.148ZM6.992 23.344H10.64V24.184H6.992V23.344ZM8.504 20.932H9.344V30.916C9.344 31.42 9.224 31.66 8.924 31.804C8.648 31.948 8.18 31.972 7.424 31.972C7.388 31.756 7.28 31.384 7.16 31.132C7.688 31.144 8.144 31.144 8.288 31.132C8.432 31.132 8.504 31.096 8.504 30.916V20.932ZM23.468 21.448H29.636V24.448H23.444V23.692H28.784V22.204H23.468V21.448ZM22.976 21.448H23.816V25.108C23.816 27.124 23.648 30.04 22.46 31.984C22.304 31.828 21.944 31.576 21.752 31.492C22.88 29.632 22.976 27.016 22.976 25.108V21.448ZM26.516 24.676H27.284V31.12H26.516V24.676ZM24.212 28.648H24.968V31.96H24.212V28.648ZM28.94 28.648H29.696V31.912H28.94V28.648ZM24.416 25.288H25.148V27.232H28.736V25.276H29.504V27.964H24.416V25.288ZM24.692 30.724H29.24V31.468H24.692V30.724ZM18.824 27.148C19.76 26.884 21.164 26.452 22.532 26.008L22.652 26.836C21.404 27.268 20.084 27.7 19.064 28.024L18.824 27.148ZM18.992 23.344H22.64V24.184H18.992V23.344ZM20.504 20.932H21.344V30.916C21.344 31.42 21.224 31.66 20.924 31.804C20.648 31.948 20.18 31.972 19.424 31.972C19.388 31.756 19.28 31.384 19.16 31.132C19.688 31.144 20.144 31.144 20.288 31.132C20.432 31.132 20.504 31.096 20.504 30.916V20.932ZM35.732 21.436L36.512 21.628C36.152 22.54 35.6 23.512 35.06 24.136C34.916 24.004 34.592 23.776 34.4 23.668C34.952 23.08 35.444 22.264 35.732 21.436ZM34.808 27.04H40.46V27.616H34.808V27.04ZM40.364 26.992H42.008V27.652H40.364V26.992ZM35.732 23.428H40.676V24.028H35.732V23.428ZM34.952 24.676H41.54V25.288H34.952V24.676ZM37.748 23.68H38.576V24.964H37.748V23.68ZM36.32 29.344H37.124V30.82C37.124 31.06 37.196 31.096 37.628 31.096C37.82 31.096 38.852 31.096 39.116 31.096C39.452 31.096 39.512 31.012 39.548 30.256C39.704 30.376 40.028 30.496 40.244 30.532C40.16 31.552 39.932 31.804 39.2 31.804C39.008 31.804 37.736 31.804 37.544 31.804C36.56 31.804 36.32 31.6 36.32 30.82V29.344ZM40.676 20.932L41.312 21.484C39.968 21.88 37.868 22.132 36.116 22.24C36.08 22.072 35.984 21.784 35.888 21.628C37.58 21.496 39.596 21.244 40.676 20.932ZM35.48 25.852H40.916V28.828H35.48V28.24H40.112V26.428H35.48V25.852ZM39.836 29.584L40.472 29.2C41.096 29.8 41.78 30.616 42.08 31.192L41.396 31.636C41.12 31.06 40.448 30.196 39.836 29.584ZM37.448 22.3L38.108 22.048C38.36 22.396 38.6 22.876 38.708 23.188L38 23.476C37.916 23.152 37.676 22.66 37.448 22.3ZM39.848 22.156L40.46 21.784C41 22.324 41.648 23.092 41.936 23.584L41.3 24.016C41.012 23.512 40.388 22.72 39.848 22.156ZM37.1 29.068L37.604 28.612C38.168 28.888 38.828 29.368 39.176 29.692L38.636 30.208C38.3 29.86 37.628 29.356 37.1 29.068ZM35.156 29.368L35.852 29.608C35.624 30.364 35.264 31.204 34.616 31.696L34.004 31.24C34.568 30.82 34.964 30.052 35.156 29.368ZM31.46 21.448H34.088V22.264H32.252V31.972H31.46V21.448ZM33.824 21.448H33.968L34.088 21.412L34.652 21.736C34.364 22.72 33.956 23.968 33.608 24.952C34.376 25.948 34.556 26.812 34.556 27.544C34.556 28.18 34.424 28.684 34.112 28.924C33.956 29.032 33.764 29.092 33.536 29.128C33.332 29.152 33.068 29.164 32.816 29.152C32.804 28.936 32.732 28.6 32.612 28.384C32.852 28.396 33.056 28.408 33.212 28.396C33.356 28.396 33.476 28.36 33.56 28.288C33.716 28.156 33.776 27.82 33.776 27.448C33.764 26.812 33.608 25.984 32.84 25.036C33.224 23.932 33.608 22.504 33.824 21.688V21.448ZM43.22 21.772H53.792V22.54H43.22V21.772ZM45.632 23.836H53.924V24.616H45.632V23.836ZM43.904 25.948H45.548V26.692H43.904V25.948ZM42.992 27.688H45.5V28.444H42.992V27.688ZM46.928 29.956H50.288V30.58H46.928V29.956ZM46.064 20.932H46.952V23.38H46.064V20.932ZM49.988 20.932H50.876V23.392H49.988V20.932ZM48.284 25.696H48.932V27.148H48.284V25.696ZM43.52 23.896H44.228V27.064H43.52V23.896ZM48.284 28.756H48.932V30.22H48.284V28.756ZM47 26.824H50.18V29.068H47V28.48H49.52V27.424H47V26.824ZM46.604 25.36H50.18V25.984H47.288V31.3H46.604V25.36ZM45.224 23.836H45.992V27.16C45.992 28.624 45.872 30.64 45.128 31.996C44.984 31.864 44.636 31.672 44.444 31.6C45.152 30.316 45.224 28.516 45.224 27.148V23.836ZM50.396 23.044H51.212C51.26 28.54 52.172 31.18 53.024 31.18C53.276 31.168 53.396 30.856 53.456 29.668C53.636 29.836 53.9 30.004 54.104 30.076C53.972 31.684 53.672 31.984 52.964 31.984C51.416 31.984 50.54 28.78 50.396 23.044ZM51.752 23.068L52.28 22.648C52.712 22.9 53.228 23.284 53.468 23.572L52.904 24.028C52.676 23.728 52.184 23.332 51.752 23.068ZM52.508 25.36L53.312 25.492C52.688 28.396 51.524 30.58 49.688 31.984C49.544 31.84 49.208 31.564 49.016 31.432C50.864 30.16 51.968 28.048 52.508 25.36ZM43.652 27.952H44.336V28.996C44.336 29.86 44.204 31.108 43.46 31.972C43.328 31.852 43.064 31.672 42.908 31.588C43.556 30.808 43.652 29.728 43.652 28.972V27.952ZM55.244 22.78H65.756V23.656H55.244V22.78ZM58.964 26.584H65.288V27.424H58.964V26.584ZM58.496 30.832H65.756V31.684H58.496V30.832ZM61.676 24.268H62.576V31.288H61.676V24.268ZM59.192 20.92L60.116 21.148C59.276 23.896 57.812 26.692 55.424 28.408C55.328 28.168 55.1 27.784 54.956 27.58C57.116 26.056 58.52 23.392 59.192 20.92ZM56.816 25.864H57.716V31.924H56.816V25.864ZM69.608 24.16H75.872V24.976H69.608V24.16ZM68.744 29.596H77.588V30.4H68.744V29.596ZM69.2 22.324H77.552V23.14H69.2V22.324ZM75.512 24.16H76.4C76.4 24.16 76.388 24.484 76.388 24.604C76.244 29.44 76.076 31.012 75.692 31.516C75.464 31.816 75.2 31.912 74.84 31.948C74.48 31.972 73.88 31.972 73.28 31.936C73.268 31.732 73.184 31.42 73.064 31.216C73.676 31.264 74.228 31.276 74.456 31.264C74.684 31.264 74.792 31.24 74.9 31.096C75.212 30.712 75.38 29.032 75.512 24.352V24.16ZM69.164 24.16H70.076C69.812 26.308 69.404 29.2 69.104 30.856L68.192 30.796C68.528 29.128 68.96 26.236 69.164 24.16ZM69.74 20.86L70.676 21.124C69.956 22.768 68.864 24.388 67.82 25.444C67.628 25.3 67.22 25.024 66.98 24.892C68.084 23.92 69.116 22.384 69.74 20.86ZM71.18 25.516L71.696 25C72.476 25.348 73.412 25.888 73.892 26.332L73.352 26.896C72.896 26.452 71.972 25.864 71.18 25.516ZM70.88 28.144L71.384 27.64C72.2 28.024 73.196 28.66 73.688 29.128L73.16 29.704C72.68 29.224 71.696 28.564 70.88 28.144ZM67.004 26.848H69.248V26.872H75.872V26.848H78.008V27.664H75.872V27.64H69.248V27.664H67.004V26.848ZM84.116 26.248H88.76V27.076H84.116V26.248ZM80.312 24.04H83.516V24.892H80.312V24.04ZM80.312 26.344H83.624V27.196H80.312V26.344ZM85.22 21.424H88.04V22.228H85.22V21.424ZM88.58 26.248H88.748L88.904 26.212L89.492 26.44C88.592 29.524 86.348 31.204 83.684 31.984C83.588 31.756 83.372 31.396 83.192 31.192C85.664 30.568 87.824 28.996 88.58 26.404V26.248ZM85.4 27.028C86.18 29.08 87.824 30.556 90.116 31.168C89.9 31.348 89.648 31.708 89.516 31.948C87.14 31.216 85.484 29.584 84.62 27.244L85.4 27.028ZM79.892 21.832L80.744 22.108V31.948H79.892V21.832ZM78.896 29.32C80.156 29.128 82.088 28.804 83.936 28.48L83.972 29.308C82.22 29.632 80.372 29.968 79.052 30.208L78.896 29.32ZM84.812 21.424H85.652V23.152C85.652 24.136 85.412 25.324 84.2 26.08C84.08 25.912 83.756 25.588 83.576 25.468C84.668 24.808 84.812 23.932 84.812 23.128V21.424ZM83.228 20.932L83.996 21.568C83.012 22.06 81.596 22.468 80.372 22.744C80.324 22.552 80.192 22.252 80.072 22.072C81.212 21.784 82.508 21.34 83.228 20.932ZM87.536 21.424H88.388V24.388C88.388 24.616 88.4 24.748 88.46 24.796C88.496 24.832 88.556 24.844 88.652 24.844C88.724 24.844 88.892 24.844 88.988 24.844C89.096 24.844 89.204 24.832 89.252 24.796C89.3 24.772 89.348 24.676 89.372 24.532C89.408 24.364 89.42 23.98 89.432 23.488C89.588 23.644 89.888 23.776 90.116 23.848C90.092 24.328 90.056 24.856 89.996 25.06C89.924 25.252 89.804 25.384 89.636 25.456C89.504 25.54 89.264 25.576 89.072 25.576C88.904 25.576 88.592 25.576 88.46 25.576C88.22 25.576 87.944 25.516 87.776 25.36C87.608 25.216 87.536 25.012 87.536 24.34V21.424ZM98.228 25.804L99.188 26.068C97.868 29.416 95.228 31.084 91.544 32.008C91.448 31.78 91.16 31.372 90.968 31.156C94.604 30.4 97.124 28.84 98.228 25.804ZM94.316 23.74L95.228 24.088C94.376 25.24 93.032 26.368 91.868 27.1C91.712 26.908 91.364 26.548 91.136 26.38C92.312 25.756 93.584 24.76 94.316 23.74ZM94.796 25.864C95.912 28.708 98.348 30.496 102.068 31.108C101.864 31.312 101.6 31.72 101.468 31.972C97.64 31.24 95.228 29.32 93.944 26.128L94.796 25.864ZM91.232 22.492H101.768V23.368H91.232V22.492ZM96.008 20.908H96.932V23.056H96.008V20.908ZM97.904 24.244L98.648 23.692C99.776 24.448 101.192 25.564 101.876 26.356L101.096 26.98C100.448 26.188 99.056 25.024 97.904 24.244ZM106.268 22.492H113.912V23.308H106.268V22.492ZM109.46 20.932H110.372V22.888H109.46V20.932ZM109.46 26.68H110.264V31.444H109.46V26.68ZM107.348 26.608H108.176V27.868C108.176 29.212 107.984 30.772 106.364 31.948C106.232 31.768 105.932 31.492 105.728 31.348C107.192 30.328 107.348 28.972 107.348 27.844V26.608ZM108.92 22.936L109.856 23.224C109.4 24.088 108.836 25.108 108.38 25.756L107.66 25.492C108.104 24.808 108.632 23.704 108.92 22.936ZM111.02 24.112L111.716 23.716C112.58 24.448 113.54 25.492 113.972 26.224L113.228 26.668C112.82 25.948 111.872 24.856 111.02 24.112ZM106.424 25.276C107.984 25.24 110.456 25.144 112.808 25.06L112.784 25.816C110.528 25.948 108.164 26.068 106.52 26.14L106.424 25.276ZM103.58 21.676L104.084 21.028C104.84 21.352 105.788 21.892 106.244 22.312L105.728 23.044C105.272 22.612 104.348 22.036 103.58 21.676ZM102.944 24.94L103.436 24.268C104.204 24.556 105.176 25.072 105.656 25.468L105.14 26.212C104.672 25.804 103.724 25.264 102.944 24.94ZM103.304 31.216C103.916 30.292 104.792 28.696 105.44 27.328L106.124 27.88C105.536 29.152 104.744 30.676 104.084 31.792L103.304 31.216ZM111.584 26.608H112.424V30.58C112.424 30.82 112.436 30.94 112.496 31C112.532 31.036 112.616 31.048 112.688 31.048C112.772 31.048 112.928 31.048 113.036 31.048C113.132 31.048 113.24 31.036 113.288 30.988C113.348 30.952 113.384 30.868 113.408 30.676C113.432 30.472 113.444 30.04 113.456 29.464C113.612 29.596 113.876 29.728 114.092 29.8C114.08 30.328 114.044 30.964 113.972 31.18C113.912 31.408 113.816 31.552 113.648 31.648C113.516 31.732 113.276 31.78 113.084 31.78C112.928 31.78 112.616 31.78 112.484 31.78C112.256 31.78 111.992 31.72 111.824 31.576C111.644 31.408 111.584 31.216 111.584 30.484V26.608ZM116.864 25.78H123.572V26.464H117.776V31.972H116.864V25.78ZM123.308 25.78H124.22V30.964C124.22 31.468 124.1 31.708 123.716 31.84C123.344 31.972 122.72 31.972 121.748 31.972C121.712 31.732 121.568 31.396 121.448 31.168C122.156 31.204 122.852 31.204 123.044 31.192C123.248 31.18 123.308 31.12 123.308 30.952V25.78ZM117.524 27.484H123.608V28.156H117.524V27.484ZM115.448 21.964H118.976V22.696H115.448V21.964ZM115.148 24.316C116.12 24.172 117.548 23.932 118.976 23.692L119.012 24.376C117.68 24.64 116.336 24.892 115.28 25.084L115.148 24.316ZM117.524 29.224H123.644V29.896H117.524V29.224ZM118.448 20.92H119.348V25.372H118.448V20.92ZM124.724 21.46L125.348 22.108C124.352 22.54 122.936 22.948 121.736 23.224C121.688 23.044 121.568 22.756 121.472 22.588C122.624 22.288 123.956 21.856 124.724 21.46ZM121.088 20.92H122V24.1C122 24.436 122.096 24.484 122.636 24.484C122.864 24.484 124.16 24.484 124.496 24.484C124.904 24.484 124.988 24.352 125.024 23.464C125.228 23.608 125.588 23.728 125.828 23.788C125.732 24.952 125.468 25.276 124.58 25.276C124.316 25.276 122.768 25.276 122.54 25.276C121.376 25.276 121.088 25.024 121.088 24.088V20.92ZM133.232 25.816L134.048 26.068C133.244 27.484 131.912 28.72 130.592 29.524C130.472 29.356 130.172 29.008 129.98 28.852C131.276 28.156 132.536 27.052 133.232 25.816ZM133.304 20.92L134.096 21.328C133.496 22.06 132.752 22.876 132.152 23.416L131.516 23.044C132.104 22.48 132.872 21.58 133.304 20.92ZM135.62 21.844L136.436 22.288C135.236 23.584 133.568 25.144 132.248 26.128L131.636 25.732C132.944 24.724 134.636 23.08 135.62 21.844ZM130.52 22.864L131.072 22.288C131.984 22.876 133.112 23.728 133.64 24.34L133.064 24.988C132.548 24.388 131.456 23.476 130.52 22.864ZM135.476 24.292L136.172 23.908C136.94 24.688 137.792 25.792 138.176 26.512L137.408 26.956C137.06 26.236 136.232 25.108 135.476 24.292ZM130.124 25.48C131.84 25.456 134.576 25.408 137.18 25.336L137.144 26.08C134.624 26.164 131.984 26.248 130.196 26.296L130.124 25.48ZM132.452 27.676C133.484 29.428 135.632 30.724 138.176 31.216C137.984 31.408 137.744 31.744 137.624 31.984C135.032 31.384 132.884 29.968 131.72 27.928L132.452 27.676ZM132.728 27.16H136.304V27.88H132.104L132.728 27.16ZM136.016 27.16H136.184L136.34 27.124L136.916 27.4C135.8 29.968 133.136 31.372 130.4 31.996C130.316 31.768 130.112 31.408 129.944 31.228C132.512 30.736 135.068 29.416 136.016 27.304V27.16ZM129.704 23.368L130.52 23.668C129.692 25.108 128.432 26.56 127.256 27.52C127.172 27.328 126.908 26.908 126.74 26.716C127.856 25.9 128.996 24.64 129.704 23.368ZM129.428 20.932L130.232 21.244C129.536 22.252 128.408 23.38 127.388 24.1C127.268 23.92 127.04 23.608 126.884 23.44C127.82 22.804 128.9 21.784 129.428 20.932ZM128.624 25.6L129.356 24.868L129.476 24.928V32.008H128.624V25.6ZM140.072 22.852H143.72V30.7H140.072V29.884H142.88V23.656H140.072V22.852ZM139.532 22.852H140.372V31.66H139.532V22.852ZM140.012 26.188H143.324V26.992H140.012V26.188ZM141.368 20.896L142.34 21.076C142.1 21.82 141.8 22.648 141.56 23.188L140.84 23.008C141.044 22.432 141.272 21.52 141.368 20.896ZM145.424 22.816H149.108V23.656H145.424V22.816ZM148.796 22.816H149.636C149.636 22.816 149.636 23.152 149.636 23.284C149.444 28.792 149.276 30.652 148.796 31.24C148.532 31.588 148.256 31.696 147.836 31.732C147.428 31.78 146.72 31.756 146.048 31.72C146.024 31.456 145.916 31.084 145.748 30.844C146.528 30.904 147.248 30.916 147.524 30.916C147.764 30.916 147.908 30.88 148.04 30.724C148.436 30.292 148.628 28.3 148.796 23.008V22.816ZM145.676 20.872L146.54 21.076C146.096 22.864 145.388 24.628 144.56 25.768C144.404 25.624 144.032 25.372 143.816 25.252C144.632 24.196 145.292 22.54 145.676 20.872ZM145.124 25.936L145.82 25.528C146.504 26.38 147.332 27.544 147.716 28.252L146.948 28.732C146.588 28 145.784 26.812 145.124 25.936ZM157.22 23.152H162.02V24.004H157.22V23.152ZM151.004 23.26H156.272V24.112H151.004V23.26ZM157.592 20.92L158.492 21.064C158.048 23.308 157.292 25.372 156.26 26.716C156.104 26.572 155.72 26.272 155.492 26.14C156.524 24.916 157.208 22.96 157.592 20.92ZM160.28 23.62L161.168 23.728C160.496 27.988 159.056 30.484 155.744 31.972C155.648 31.768 155.384 31.36 155.228 31.18C158.384 29.908 159.704 27.556 160.28 23.62ZM157.64 23.908C158.252 27.292 159.56 30.064 162.104 31.204C161.888 31.384 161.612 31.732 161.48 31.972C158.828 30.652 157.52 27.772 156.824 24.052L157.64 23.908ZM153.2 20.92H154.112V26.74H153.2V20.92ZM151.508 26.308H152.36V31.444H151.508V26.308ZM152.012 26.308H155.792V30.604H152.012V29.764H154.94V27.16H152.012V26.308ZM167.996 20.92H168.908V30.952C168.908 31.516 168.752 31.732 168.38 31.864C167.996 31.984 167.372 31.996 166.364 31.996C166.316 31.78 166.172 31.444 166.052 31.24C166.772 31.264 167.492 31.252 167.708 31.252C167.924 31.24 167.996 31.168 167.996 30.952V20.92ZM163.304 21.88H173.72V22.624H163.304V21.88ZM165.416 23.968V24.832H171.608V23.968H165.416ZM164.564 23.344H172.52V25.468H164.564V23.344ZM164.216 26.308H172.7V30.676H171.8V26.98H164.216V26.308ZM163.076 27.808H173.948V28.528H163.076V27.808ZM164.096 29.44H172.268V30.136H164.096V29.44ZM176.384 32.284L176.108 31.66C177.092 31.252 177.632 30.64 177.632 29.74L177.404 28.72L178.052 29.632C177.884 29.848 177.644 29.908 177.416 29.908C176.924 29.908 176.516 29.62 176.516 29.044C176.516 28.48 176.948 28.18 177.428 28.18C178.1 28.18 178.46 28.732 178.46 29.572C178.46 30.868 177.644 31.852 176.384 32.284ZM30.896 47.28C31.976 47.016 33.596 46.56 35.12 46.116L35.228 46.944C33.824 47.364 32.312 47.82 31.16 48.144L30.896 47.28ZM31.04 43.344H35.108V44.196H31.04V43.344ZM32.768 40.932H33.644V50.82C33.644 51.324 33.512 51.576 33.212 51.708C32.888 51.852 32.396 51.876 31.568 51.876C31.532 51.648 31.4 51.276 31.292 51.036C31.856 51.06 32.372 51.048 32.528 51.048C32.696 51.048 32.768 50.988 32.768 50.82V40.932ZM35.252 44.316L41.696 43.644L41.792 44.484L35.348 45.18L35.252 44.316ZM38.6 41.664L39.284 41.208C39.884 41.712 40.604 42.444 40.94 42.936L40.22 43.452C39.908 42.948 39.188 42.192 38.6 41.664ZM36.872 40.968H37.784C37.988 46.356 38.96 50.676 40.748 50.856C41.072 50.88 41.264 50.22 41.384 48.9C41.564 49.08 41.96 49.308 42.152 49.392C41.876 51.348 41.396 51.948 40.784 51.912C38.108 51.708 37.16 47.088 36.872 40.968ZM40.436 45.42L41.18 45.876C40.1 48.228 37.94 50.496 35.6 51.552C35.432 51.312 35.144 51.024 34.892 50.844C37.28 49.896 39.44 47.688 40.436 45.42ZM43.1 41.712H49.256V42.528H43.1V41.712ZM43.46 47.424H48.908V48.24H43.46V47.424ZM45.752 45.996H46.64V50.7L45.752 50.832V45.996ZM42.968 50.7C44.528 50.532 46.964 50.208 49.28 49.896L49.304 50.736C47.072 51.048 44.708 51.384 43.112 51.6L42.968 50.7ZM43.076 44.976C44.444 44.928 46.556 44.832 48.62 44.724L48.596 45.516C46.628 45.636 44.576 45.744 43.148 45.828L43.076 44.976ZM46.904 43.512L47.576 43.14C48.308 43.98 49.148 45.108 49.496 45.828L48.776 46.26C48.428 45.528 47.624 44.364 46.904 43.512ZM45.176 42.144L46.148 42.336C45.728 43.392 45.212 44.712 44.768 45.54L43.976 45.348C44.396 44.496 44.912 43.092 45.176 42.144ZM49.784 42.372H50.648V49.02H49.784V42.372ZM52.616 41.268H53.504V50.748C53.504 51.372 53.36 51.648 52.964 51.792C52.568 51.948 51.836 51.972 50.864 51.972C50.816 51.72 50.684 51.3 50.552 51.024C51.356 51.06 52.1 51.048 52.34 51.048C52.556 51.036 52.616 50.976 52.616 50.76V41.268ZM57.476 44.844H63.536V45.648H57.476V44.844ZM57.26 50.676H63.692V51.48H57.26V50.676ZM56.852 47.16H64.196V51.972H63.284V47.976H57.728V51.972H56.852V47.16ZM60.464 41.844C59.48 43.308 57.512 45.012 55.46 46.128C55.34 45.924 55.1 45.6 54.896 45.408C57.008 44.34 59.012 42.504 59.96 40.956H60.872C62.168 42.744 64.268 44.412 66.188 45.264C65.96 45.48 65.744 45.792 65.588 46.056C63.704 45.072 61.592 43.38 60.464 41.844ZM72.344 42.936H78.032V43.8H71.924L72.344 42.936ZM73.844 45.54H77.756V46.368H73.844V45.54ZM73.832 48.18H77.924V49.032H73.832V48.18ZM73.388 43.212H74.312V51.96H73.388V43.212ZM72.8 41.064L73.676 41.292C72.992 43.2 71.948 45.084 70.844 46.32C70.712 46.164 70.352 45.84 70.148 45.696C71.24 44.58 72.212 42.828 72.8 41.064ZM69.92 40.968L70.784 41.244C69.992 43.272 68.756 45.324 67.448 46.668C67.364 46.452 67.088 45.972 66.92 45.756C68.12 44.592 69.236 42.792 69.92 40.968ZM68.636 44.064L69.524 43.164L69.548 43.176V51.948H68.636V44.064ZM86.348 41.676H88.568V42.48H86.348V41.676ZM83.576 42.264H86.108V43.032H83.576V42.264ZM86.468 43.896H88.544V44.652H86.468V43.896ZM86.444 46.14H88.484V46.896H86.444V46.14ZM80.528 43.896H82.568V44.652H80.528V43.896ZM80.576 46.128H82.58V46.896H80.576V46.128ZM80.048 41.76L81.116 42.084C81.092 42.156 81.032 42.204 80.888 42.228L81.104 48.732H80.288L80.048 41.76ZM88.076 41.676H88.916C88.904 43.932 88.832 46.98 88.712 48.708H87.86C87.992 46.944 88.088 43.884 88.076 41.676ZM82.256 41.04L82.964 41.688C82.232 42.072 81.332 42.456 80.564 42.744C80.516 42.588 80.372 42.3 80.276 42.12C80.972 41.796 81.776 41.364 82.256 41.04ZM83.18 45.54H83.924V48.66H83.18V45.54ZM83.192 41.028H83.972V44.28H85.532V45.012H83.192V41.028ZM85.088 44.28H85.868V48.648H85.088V44.28ZM79.028 48.348H89.984V49.188H79.028V48.348ZM85.616 49.956L86.252 49.356C87.584 49.98 89.036 50.784 89.912 51.384L89.072 51.996C88.268 51.408 86.9 50.592 85.616 49.956ZM82.472 49.38L83.312 49.92C82.364 50.664 80.948 51.48 79.808 51.984C79.652 51.804 79.34 51.516 79.124 51.348C80.288 50.868 81.728 50.04 82.472 49.38ZM96.2 44.532V46.08H100.664V44.532H96.2ZM96.2 42.264V43.788H100.664V42.264H96.2ZM95.384 41.484H101.528V46.86H95.384V41.484ZM95.228 48.264H101.696V49.092H95.228V48.264ZM94.304 50.748H102.092V51.564H94.304V50.748ZM91.04 41.736H94.784V42.588H91.04V41.736ZM91.172 45.204H94.616V46.056H91.172V45.204ZM90.92 49.8C91.892 49.536 93.332 49.068 94.724 48.6L94.88 49.464C93.572 49.908 92.204 50.364 91.136 50.724L90.92 49.8ZM92.54 42.072H93.404V49.512L92.54 49.68V42.072ZM98.036 41.856H98.828V46.476H98.888V51.12H97.976V46.476H98.036V41.856ZM104.156 43.968H107.624V44.676H104.156V43.968ZM104.156 46.008H107.624V46.692H104.156V46.008ZM104.156 48.096H107.624V48.804H104.156V48.096ZM109.268 46.608H113.84V47.388H109.268V46.608ZM104.78 42H106.772V42.708H104.78V42ZM108.5 41.532H113.192V42.3H108.5V41.532ZM108.356 48.852H114.044V49.656H108.356V48.852ZM110.888 45.372H111.752V51.912H110.888V45.372ZM105.644 44.316H106.292V48.396H105.644V44.316ZM112.904 41.532H113.72C113.72 41.532 113.72 41.76 113.708 41.868C113.624 43.872 113.504 44.652 113.252 44.928C113.084 45.132 112.904 45.204 112.592 45.228C112.352 45.252 111.848 45.252 111.344 45.228C111.332 44.988 111.248 44.676 111.14 44.472C111.62 44.52 112.052 44.52 112.22 44.52C112.388 44.532 112.496 44.508 112.568 44.412C112.724 44.232 112.82 43.536 112.904 41.652V41.532ZM109.316 45.48L110.096 45.636C109.856 46.752 109.436 47.844 108.932 48.564C108.776 48.456 108.416 48.276 108.224 48.18C108.74 47.508 109.112 46.5 109.316 45.48ZM104.756 40.92L105.584 41.1C105.14 42.72 104.408 44.268 103.556 45.288C103.412 45.144 103.064 44.868 102.872 44.748C103.724 43.824 104.396 42.396 104.756 40.92ZM103.808 43.968H104.552V47.16C104.552 48.624 104.408 50.652 103.556 51.984C103.424 51.864 103.088 51.66 102.908 51.576C103.724 50.304 103.808 48.516 103.808 47.16V43.968ZM107.384 43.968H108.14V50.976C108.14 51.42 108.044 51.672 107.732 51.804C107.432 51.936 106.94 51.948 106.112 51.948C106.076 51.744 105.944 51.396 105.836 51.18C106.448 51.204 106.988 51.204 107.156 51.192C107.312 51.18 107.384 51.132 107.384 50.976V43.968ZM110.204 41.784H111.032C110.828 43.44 110.312 44.808 108.632 45.564C108.524 45.372 108.308 45.084 108.128 44.952C109.604 44.328 110.036 43.14 110.204 41.784ZM106.556 42H106.736L106.856 41.952L107.384 42.3C107.132 43.044 106.676 43.932 106.316 44.496C106.172 44.376 105.908 44.22 105.74 44.148C106.04 43.608 106.376 42.744 106.556 42.144V42ZM116.072 42.852H119.72V50.7H116.072V49.884H118.88V43.656H116.072V42.852ZM115.532 42.852H116.372V51.66H115.532V42.852ZM116.012 46.188H119.324V46.992H116.012V46.188ZM117.368 40.896L118.34 41.076C118.1 41.82 117.8 42.648 117.56 43.188L116.84 43.008C117.044 42.432 117.272 41.52 117.368 40.896ZM121.424 42.816H125.108V43.656H121.424V42.816ZM124.796 42.816H125.636C125.636 42.816 125.636 43.152 125.636 43.284C125.444 48.792 125.276 50.652 124.796 51.24C124.532 51.588 124.256 51.696 123.836 51.732C123.428 51.78 122.72 51.756 122.048 51.72C122.024 51.456 121.916 51.084 121.748 50.844C122.528 50.904 123.248 50.916 123.524 50.916C123.764 50.916 123.908 50.88 124.04 50.724C124.436 50.292 124.628 48.3 124.796 43.008V42.816ZM121.676 40.872L122.54 41.076C122.096 42.864 121.388 44.628 120.56 45.768C120.404 45.624 120.032 45.372 119.816 45.252C120.632 44.196 121.292 42.54 121.676 40.872ZM121.124 45.936L121.82 45.528C122.504 46.38 123.332 47.544 123.716 48.252L122.948 48.732C122.588 48 121.784 46.812 121.124 45.936ZM127.484 43.548H136.796V44.46H127.484V43.548ZM136.448 43.548H137.384C137.384 43.548 137.372 43.884 137.36 44.028C137.084 48.996 136.832 50.784 136.304 51.384C136.016 51.732 135.728 51.828 135.272 51.864C134.852 51.912 134.084 51.888 133.34 51.84C133.328 51.576 133.208 51.18 133.04 50.916C133.856 50.988 134.624 51 134.924 51C135.188 51 135.332 50.964 135.488 50.82C135.944 50.376 136.208 48.504 136.448 43.74V43.548ZM131.408 40.944H132.356V43.032C132.356 45.768 132.02 49.476 127.82 52.008C127.688 51.792 127.352 51.456 127.136 51.3C131.12 48.924 131.408 45.516 131.408 43.032V40.944ZM141.488 43.02V43.692H147.464V43.02H141.488ZM141.488 41.856V42.504H147.464V41.856H141.488ZM140.624 41.316H148.364V44.232H140.624V41.316ZM141.26 47.736V48.42H147.824V47.736H141.26ZM141.26 46.524V47.196H147.824V46.524H141.26ZM140.408 45.96H148.712V48.972H140.408V45.96ZM144.032 46.164H144.92V51.336H144.032V46.164ZM139.124 44.736H149.888V45.432H139.124V44.736ZM140.072 49.632H148.976V50.268H140.072V49.632ZM139.052 50.964H149.948V51.672H139.052V50.964ZM152.384 52.284L152.108 51.66C153.092 51.252 153.632 50.64 153.632 49.74L153.404 48.72L154.052 49.632C153.884 49.848 153.644 49.908 153.416 49.908C152.924 49.908 152.516 49.62 152.516 49.044C152.516 48.48 152.948 48.18 153.428 48.18C154.1 48.18 154.46 48.732 154.46 49.572C154.46 50.868 153.644 51.852 152.384 52.284ZM20.648 61.376L21.116 60.848C21.716 61.04 22.46 61.376 22.844 61.676L22.352 62.276C21.992 61.964 21.26 61.592 20.648 61.376ZM14.444 62.144H23.792V62.888H14.444V62.144ZM15.296 63.704H18.98V64.34H15.296V63.704ZM15.488 65.156H16.244V67.34H15.488V65.156ZM21.86 63.464L22.7 63.668C22.028 65.66 20.816 67.28 19.352 68.324C19.22 68.156 18.884 67.856 18.704 67.7C20.156 66.764 21.284 65.264 21.86 63.464ZM19.028 60.92H19.892C20.024 64.616 21.656 67.616 22.88 67.604C23.18 67.604 23.3 67.172 23.36 66.08C23.54 66.248 23.84 66.404 24.068 66.488C23.924 68.012 23.6 68.432 22.832 68.432C20.936 68.432 19.22 64.952 19.028 60.92ZM15.488 65.156H18.788V67.676H15.488V67.028H18.02V65.792H15.488V65.156ZM16.088 68.78H16.976V70.64C16.976 70.94 17.096 71 17.732 71C18.032 71 19.532 71 19.928 71C20.456 71 20.54 70.856 20.588 69.74C20.78 69.884 21.152 70.004 21.404 70.064C21.284 71.48 21.02 71.816 20 71.816C19.724 71.816 17.936 71.816 17.672 71.816C16.4 71.816 16.088 71.576 16.088 70.652V68.78ZM17.024 68.384L17.6 67.88C18.356 68.228 19.244 68.804 19.664 69.272L19.052 69.848C18.644 69.38 17.768 68.768 17.024 68.384ZM21.164 69.14L21.896 68.732C22.76 69.404 23.66 70.4 24.032 71.144L23.228 71.588C22.892 70.856 22.028 69.836 21.164 69.14ZM14.564 68.852L15.356 69.128C15.056 70.1 14.564 71.108 13.712 71.72L12.968 71.216C13.772 70.664 14.3 69.752 14.564 68.852ZM14.024 62.144H14.864V63.956C14.864 65.348 14.648 67.316 13.544 68.672C13.424 68.504 13.064 68.204 12.884 68.108C13.892 66.86 14.024 65.168 14.024 63.944V62.144ZM25.364 64.388H35.636V66.836H34.76V65.192H26.204V66.836H25.364V64.388ZM26.816 66.548H33.524V67.388H26.816V66.548ZM34.328 60.884L34.964 61.604C32.552 62.108 28.808 62.42 25.688 62.54C25.664 62.312 25.556 61.976 25.472 61.772C28.58 61.628 32.276 61.316 34.328 60.884ZM26.48 62.792L27.26 62.564C27.608 63.056 27.968 63.728 28.112 64.16L27.296 64.424C27.152 63.992 26.804 63.308 26.48 62.792ZM29.672 62.54L30.488 62.36C30.764 62.912 31.052 63.644 31.124 64.112L30.272 64.316C30.2 63.848 29.948 63.104 29.672 62.54ZM33.776 62.336L34.688 62.6C34.256 63.368 33.692 64.256 33.26 64.82L32.54 64.568C32.96 63.968 33.488 63.008 33.776 62.336ZM33.2 66.548H33.404L33.572 66.512L34.172 66.884C32.696 69.932 29.3 71.324 25.64 71.936C25.544 71.708 25.292 71.312 25.112 71.12C28.712 70.628 31.952 69.356 33.2 66.704V66.548ZM27.992 67.1C29.36 69.308 32.252 70.652 35.864 71.084C35.684 71.288 35.432 71.672 35.324 71.924C31.664 71.396 28.772 69.932 27.2 67.436L27.992 67.1ZM41.876 61.292H42.872C42.776 63.176 42.596 69.164 37.628 71.864C37.472 71.636 37.172 71.36 36.896 71.156C41.792 68.66 41.792 62.888 41.876 61.292ZM42.836 61.532C42.872 62.468 43.22 68.84 48.164 71.108C47.9 71.312 47.624 71.612 47.48 71.864C42.392 69.428 42.056 62.72 41.972 61.616L42.836 61.532ZM54.044 65.864H58.088V66.608H54.044V65.864ZM52.952 67.64H59.276V68.396H52.952V67.64ZM53.54 61.916H55.556V62.564H53.54V61.916ZM53.204 63.248L53.552 62.828C54.056 63.08 54.668 63.476 54.956 63.776L54.62 64.256C54.308 63.956 53.708 63.524 53.204 63.248ZM52.508 64.172L52.88 63.776C53.384 64.1 53.996 64.58 54.284 64.904L53.9 65.336C53.6 65 53.012 64.496 52.508 64.172ZM57.536 69.296L58.22 68.936C58.844 69.584 59.528 70.496 59.816 71.096L59.096 71.516C58.808 70.904 58.148 69.968 57.536 69.296ZM55.292 61.916H55.436L55.58 61.892L56.096 62.084C55.544 64.508 54.212 66.236 52.676 67.16C52.568 66.98 52.352 66.692 52.172 66.548C53.576 65.78 54.848 64.112 55.292 62.072V61.916ZM57.26 61.88H59.348V62.564H57.26V61.88ZM53.768 60.944L54.5 61.112C54.044 62.528 53.24 63.812 52.328 64.652C52.196 64.532 51.896 64.292 51.728 64.184C52.64 63.416 53.372 62.228 53.768 60.944ZM59.048 61.88H59.216L59.36 61.832L59.888 62.12C59.504 63.224 58.868 64.4 58.22 65.144C58.112 64.976 57.872 64.748 57.704 64.628C58.268 63.968 58.796 62.864 59.048 62.036V61.88ZM55.664 67.988H56.516V71.024C56.516 71.468 56.42 71.684 56.108 71.816C55.784 71.948 55.28 71.948 54.488 71.948C54.452 71.72 54.32 71.396 54.212 71.18C54.788 71.192 55.304 71.192 55.46 71.192C55.616 71.18 55.664 71.144 55.664 71.012V67.988ZM53.588 68.972L54.392 69.188C54.008 70.052 53.372 70.94 52.784 71.516C52.628 71.384 52.292 71.168 52.1 71.06C52.7 70.52 53.264 69.752 53.588 68.972ZM56.624 61.16C57.152 63.56 58.292 65.54 60.14 66.404C59.96 66.56 59.708 66.86 59.588 67.088C57.644 66.056 56.492 63.968 55.904 61.316L56.624 61.16ZM49.436 61.448H51.836V62.264H50.24V71.972H49.436V61.448ZM51.596 61.448H51.728L51.848 61.412L52.4 61.736C52.124 62.744 51.764 64.016 51.44 65C52.124 66.032 52.28 66.932 52.292 67.688C52.292 68.348 52.16 68.864 51.884 69.092C51.74 69.212 51.56 69.272 51.344 69.296C51.164 69.32 50.924 69.332 50.708 69.32C50.696 69.104 50.648 68.78 50.516 68.564C50.72 68.576 50.9 68.576 51.044 68.576C51.152 68.576 51.26 68.54 51.344 68.468C51.488 68.336 51.536 67.976 51.536 67.604C51.536 66.92 51.392 66.08 50.708 65.084C51.056 63.98 51.392 62.504 51.596 61.688V61.448ZM63.44 65.66V69.908H62.576V66.5H61.052V65.66H63.44ZM63.44 69.548C64.004 70.436 65.06 70.844 66.488 70.892C67.82 70.952 70.592 70.916 72.044 70.82C71.936 71.024 71.792 71.444 71.756 71.708C70.4 71.768 67.832 71.792 66.488 71.732C64.904 71.672 63.812 71.252 63.068 70.304C62.54 70.82 61.988 71.336 61.388 71.864L60.92 70.988C61.448 70.604 62.096 70.064 62.66 69.548H63.44ZM61.16 61.724L61.844 61.232C62.588 61.772 63.428 62.6 63.8 63.188L63.056 63.752C62.72 63.152 61.892 62.312 61.16 61.724ZM64.124 62H71.672V62.756H64.124V62ZM63.944 68.336H71.852V69.092H63.944V68.336ZM67.376 60.932H68.264V70.46H67.376V60.932ZM65.528 65.84V66.8H70.172V65.84H65.528ZM65.528 64.256V65.204H70.172V64.256H65.528ZM64.7 63.584H71.048V67.484H64.7V63.584ZM80.252 60.92H81.152V65.636H80.252V60.92ZM78.692 70.532H82.976V71.36H78.692V70.532ZM77.468 62.624H84.02V63.452H77.468V62.624ZM77.852 65.252H83.756V66.08H77.852V65.252ZM78.236 67.388H83.42V71.924H82.544V68.204H79.076V71.948H78.236V67.388ZM74.84 60.932L75.644 61.232C75.188 62.12 74.612 63.188 74.144 63.836L73.52 63.572C73.976 62.876 74.528 61.724 74.84 60.932ZM76.292 62.3L77.072 62.636C76.232 63.98 75.056 65.708 74.144 66.74L73.568 66.44C74.492 65.372 75.632 63.572 76.292 62.3ZM72.944 63.452L73.4 62.852C74.072 63.416 74.828 64.208 75.152 64.736L74.672 65.42C74.348 64.856 73.592 64.028 72.944 63.452ZM75.908 65.084L76.58 64.796C77.084 65.564 77.6 66.596 77.78 67.256L77.06 67.592C76.88 66.92 76.4 65.876 75.908 65.084ZM72.92 66.296C74 66.26 75.56 66.2 77.12 66.128L77.108 66.86C75.62 66.956 74.108 67.052 72.992 67.1L72.92 66.296ZM76.208 67.952L76.892 67.736C77.24 68.468 77.576 69.416 77.708 70.04L76.976 70.292C76.868 69.668 76.544 68.696 76.208 67.952ZM73.58 67.784L74.36 67.928C74.192 69.056 73.892 70.22 73.508 70.988C73.352 70.892 72.992 70.724 72.8 70.64C73.196 69.908 73.436 68.84 73.58 67.784ZM74.96 66.644H75.776V71.996H74.96V66.644ZM85.436 65.648H95.648V67.964H94.76V66.404H86.276V67.964H85.436V65.648ZM88.916 61.124H89.72V64.328H91.268V61.124H92.108V65.024H88.916V61.124ZM85.196 62.372H95.816V63.104H85.196V62.372ZM93.152 61.088H93.968V64.172C93.968 64.436 94.004 64.472 94.22 64.472C94.328 64.472 94.784 64.472 94.904 64.472C95.12 64.472 95.168 64.34 95.192 63.44C95.36 63.56 95.672 63.68 95.9 63.728C95.828 64.868 95.612 65.18 95.012 65.18C94.856 65.18 94.256 65.18 94.1 65.18C93.332 65.18 93.152 64.964 93.152 64.172V61.088ZM87.104 61.088H87.932V62.648C87.932 63.62 87.608 64.784 85.784 65.492C85.676 65.312 85.448 65.048 85.28 64.904C86.912 64.364 87.104 63.392 87.104 62.648V61.088ZM90.008 66.272H90.896V71.948H90.008V66.272ZM86.624 67.628H93.944V68.372H87.5V71.264H86.624V67.628ZM93.608 67.628H94.484V70.316C94.484 70.748 94.4 71 94.04 71.132C93.668 71.264 93.092 71.264 92.18 71.264C92.144 71.024 92.012 70.7 91.892 70.472C92.576 70.496 93.212 70.496 93.38 70.484C93.56 70.484 93.608 70.436 93.608 70.304V67.628ZM97.364 62.6H107.72V63.476H97.364V62.6ZM101.996 60.932H102.932V71.96H101.996V60.932ZM102.104 66.26L102.86 66.56C101.684 68.612 99.608 70.472 97.58 71.42C97.436 71.192 97.148 70.832 96.944 70.652C98.948 69.836 101.024 68.084 102.104 66.26ZM102.884 66.284C103.94 68.12 105.992 69.848 108.068 70.64C107.84 70.832 107.552 71.192 107.396 71.444C105.332 70.52 103.292 68.648 102.128 66.596L102.884 66.284ZM98.96 65.636L99.56 65.084C100.124 65.564 100.868 66.248 101.24 66.68L100.628 67.292C100.256 66.86 99.536 66.14 98.96 65.636ZM99.464 63.764L100.34 63.92C99.92 65.672 99.08 67.1 97.964 68.024C97.82 67.868 97.472 67.58 97.256 67.436C98.348 66.62 99.104 65.312 99.464 63.764ZM104.732 65.66L105.332 65.132C106.136 65.744 107.24 66.644 107.78 67.196L107.144 67.82C106.628 67.244 105.548 66.32 104.732 65.66ZM105.152 63.764L106.016 63.908C105.704 65.42 105.056 66.68 104.204 67.52C104.036 67.376 103.652 67.124 103.436 67.016C104.312 66.284 104.888 65.108 105.152 63.764ZM110.072 62.852H113.72V70.7H110.072V69.884H112.88V63.656H110.072V62.852ZM109.532 62.852H110.372V71.66H109.532V62.852ZM110.012 66.188H113.324V66.992H110.012V66.188ZM111.368 60.896L112.34 61.076C112.1 61.82 111.8 62.648 111.56 63.188L110.84 63.008C111.044 62.432 111.272 61.52 111.368 60.896ZM115.424 62.816H119.108V63.656H115.424V62.816ZM118.796 62.816H119.636C119.636 62.816 119.636 63.152 119.636 63.284C119.444 68.792 119.276 70.652 118.796 71.24C118.532 71.588 118.256 71.696 117.836 71.732C117.428 71.78 116.72 71.756 116.048 71.72C116.024 71.456 115.916 71.084 115.748 70.844C116.528 70.904 117.248 70.916 117.524 70.916C117.764 70.916 117.908 70.88 118.04 70.724C118.436 70.292 118.628 68.3 118.796 63.008V62.816ZM115.676 60.872L116.54 61.076C116.096 62.864 115.388 64.628 114.56 65.768C114.404 65.624 114.032 65.372 113.816 65.252C114.632 64.196 115.292 62.54 115.676 60.872ZM115.124 65.936L115.82 65.528C116.504 66.38 117.332 67.544 117.716 68.252L116.948 68.732C116.588 68 115.784 66.812 115.124 65.936ZM124.58 67.1H131.216V71.228H130.364V67.88H129.176V71.228H128.456V67.88H127.28V71.228H126.572V67.88H125.408V71.228H124.58V67.1ZM123.5 70.82H132.044V71.612H123.5V70.82ZM121.568 61.688L122.072 61.028C122.804 61.352 123.692 61.892 124.124 62.312L123.596 63.044C123.176 62.612 122.288 62.036 121.568 61.688ZM120.944 64.928L121.448 64.244C122.18 64.544 123.08 65.048 123.536 65.444L123.008 66.188C122.576 65.78 121.688 65.252 120.944 64.928ZM121.232 71.252C121.796 70.328 122.588 68.756 123.176 67.388L123.884 67.928C123.356 69.2 122.636 70.688 122.024 71.804L121.232 71.252ZM125.84 62.192V65.492H129.92V62.192H125.84ZM125.024 61.484H130.784V66.2H125.024V61.484ZM127.688 62.408L128.348 62.48C128.144 63.572 127.508 64.664 126.488 65.228C126.404 65.108 126.212 64.892 126.08 64.784C126.992 64.268 127.532 63.32 127.688 62.408ZM127.424 63.644L127.88 63.296C128.468 63.752 129.212 64.4 129.584 64.808L129.116 65.228C128.756 64.808 128.012 64.124 127.424 63.644ZM135.2 64.292H143.732V65.036H135.2V64.292ZM135.368 67.796H142.232V68.54H135.368V67.796ZM137.132 63.248H137.984V66.308H140.912V63.248H141.788V67.028H137.132V63.248ZM141.992 67.796H142.172L142.34 67.748L142.904 68.06C141.584 70.556 138.512 71.564 135.284 71.972C135.212 71.744 135.044 71.408 134.9 71.204C137.936 70.916 140.9 69.98 141.992 67.928V67.796ZM137.504 68.42C138.644 70.016 141.128 70.916 144.032 71.216C143.84 71.408 143.612 71.756 143.504 71.984C140.528 71.6 138.032 70.58 136.724 68.708L137.504 68.42ZM138.38 60.932H139.304V62.564H138.38V60.932ZM134.384 62.12H143.816V62.936H134.384V62.12ZM133.94 62.12H134.804V65.576C134.804 67.448 134.648 70.16 133.616 71.984C133.46 71.828 133.076 71.576 132.872 71.48C133.856 69.764 133.94 67.328 133.94 65.576V62.12ZM152.348 61.676H154.568V62.48H152.348V61.676ZM149.576 62.264H152.108V63.032H149.576V62.264ZM152.468 63.896H154.544V64.652H152.468V63.896ZM152.444 66.14H154.484V66.896H152.444V66.14ZM146.528 63.896H148.568V64.652H146.528V63.896ZM146.576 66.128H148.58V66.896H146.576V66.128ZM146.048 61.76L147.116 62.084C147.092 62.156 147.032 62.204 146.888 62.228L147.104 68.732H146.288L146.048 61.76ZM154.076 61.676H154.916C154.904 63.932 154.832 66.98 154.712 68.708H153.86C153.992 66.944 154.088 63.884 154.076 61.676ZM148.256 61.04L148.964 61.688C148.232 62.072 147.332 62.456 146.564 62.744C146.516 62.588 146.372 62.3 146.276 62.12C146.972 61.796 147.776 61.364 148.256 61.04ZM149.18 65.54H149.924V68.66H149.18V65.54ZM149.192 61.028H149.972V64.28H151.532V65.012H149.192V61.028ZM151.088 64.28H151.868V68.648H151.088V64.28ZM145.028 68.348H155.984V69.188H145.028V68.348ZM151.616 69.956L152.252 69.356C153.584 69.98 155.036 70.784 155.912 71.384L155.072 71.996C154.268 71.408 152.9 70.592 151.616 69.956ZM148.472 69.38L149.312 69.92C148.364 70.664 146.948 71.48 145.808 71.984C145.652 71.804 145.34 71.516 145.124 71.348C146.288 70.868 147.728 70.04 148.472 69.38ZM159.86 61.028H160.784V67.748H159.86V61.028ZM164.204 61.028H165.14V67.748H164.204V61.028ZM157.076 67.184H167.972V68.06H157.076V67.184ZM157.556 63.464H167.54V64.328H157.556V63.464ZM163.544 69.2L164.324 68.744C165.44 69.536 166.94 70.688 167.708 71.408L166.856 71.96C166.136 71.24 164.684 70.052 163.544 69.2ZM160.436 68.756L161.372 69.116C160.52 70.172 159.152 71.276 157.94 71.972C157.76 71.78 157.448 71.504 157.232 71.336C158.42 70.7 159.764 69.656 160.436 68.756ZM173.516 61.988H174.344V68H173.516V61.988ZM174.056 66.26H180.032V66.968H174.056V66.26ZM174.056 63.464H178.52V64.076H174.056V63.464ZM173.516 67.712H179.156V68.444H173.516V67.712ZM178.916 67.712H179.744C179.744 67.712 179.744 67.952 179.732 68.072C179.6 70.412 179.468 71.312 179.18 71.636C179 71.852 178.784 71.912 178.46 71.936C178.196 71.972 177.644 71.96 177.08 71.936C177.056 71.708 176.984 71.396 176.864 71.192C177.404 71.252 177.896 71.252 178.088 71.252C178.268 71.252 178.388 71.228 178.472 71.132C178.676 70.916 178.796 70.088 178.916 67.844V67.712ZM172.976 69.02L173.696 69.224C173.504 70.196 173.192 71.144 172.508 71.708L171.836 71.288C172.46 70.784 172.82 69.908 172.976 69.02ZM174.2 69.284L174.884 69.14C175.1 69.776 175.232 70.616 175.244 71.144L174.512 71.3C174.524 70.76 174.404 69.92 174.2 69.284ZM175.568 69.164L176.168 68.984C176.48 69.5 176.768 70.184 176.876 70.64L176.216 70.856C176.12 70.4 175.844 69.692 175.568 69.164ZM176.912 68.996L177.488 68.756C177.848 69.164 178.232 69.716 178.4 70.088L177.788 70.376C177.62 69.992 177.26 69.416 176.912 68.996ZM174.092 61.988H179V65.564H174.092V64.892H178.136V62.66H174.092V61.988ZM175.76 60.92L176.792 61.076C176.54 61.592 176.264 62.096 176.048 62.456L175.268 62.288C175.46 61.88 175.676 61.304 175.76 60.92ZM169.856 62.132H172.616V68.6H169.856V67.76H171.8V62.972H169.856V62.132ZM169.376 62.132H170.192V69.728H169.376V62.132Z" fill="white"/>
</svg>
