<svg width="681" height="77" viewBox="0 0 681 77" fill="none" xmlns="http://www.w3.org/2000/svg">
<rect x="21.5" y="9.5" width="659" height="19" rx="9.5" fill="url(#paint0_linear_2552_352)" stroke="white"/>
<circle cx="21" cy="19" r="19" fill="#D8A5DF"/>
<path d="M1.82 71V70.188L5.628 69.712H8.512L12.04 70.244V71.056L1.82 71ZM5.376 71C5.432 68.816 5.46 66.6413 5.46 64.476V52.072L1.708 52.632V51.708L8.316 50.112L8.736 50.42L8.624 54.872V64.476C8.624 65.54 8.63333 66.6227 8.652 67.724C8.67067 68.8253 8.68933 69.9173 8.708 71H5.376ZM13.5177 75.956L21.8057 49.048H23.3177L15.0577 75.956H13.5177ZM30.8744 71.448C29.1757 71.448 27.8037 71.0653 26.7584 70.3C25.713 69.516 25.0877 68.4427 24.8824 67.08C25.013 66.744 25.1997 66.492 25.4424 66.324C25.7037 66.156 25.993 66.072 26.3104 66.072C26.7397 66.072 27.085 66.2027 27.3464 66.464C27.6077 66.7253 27.785 67.1733 27.8784 67.808L28.5224 70.58L27.5704 69.796C28.037 70.0573 28.4664 70.244 28.8584 70.356C29.269 70.468 29.773 70.524 30.3704 70.524C31.845 70.524 33.0024 70.048 33.8424 69.096C34.6824 68.144 35.1024 66.7813 35.1024 65.008C35.1024 63.3093 34.6824 62.04 33.8424 61.2C33.021 60.36 31.9197 59.94 30.5384 59.94C29.9597 59.94 29.409 59.9867 28.8864 60.08C28.3637 60.1733 27.8597 60.3133 27.3744 60.5L26.6184 60.136L27.2904 50.42H37.8464V52.94H27.7944L28.3824 51.176L27.7944 59.968L26.8144 59.66C27.5797 59.2867 28.3357 59.0253 29.0824 58.876C29.829 58.7267 30.6224 58.652 31.4624 58.652C33.609 58.652 35.3077 59.1747 36.5584 60.22C37.8277 61.2653 38.4624 62.8147 38.4624 64.868C38.4624 66.2307 38.145 67.4067 37.5104 68.396C36.8757 69.3667 35.989 70.1227 34.8504 70.664C33.7117 71.1867 32.3864 71.448 30.8744 71.448Z" fill="white"/>
<defs>
<linearGradient id="paint0_linear_2552_352" x1="21" y1="19" x2="681" y2="19" gradientUnits="userSpaceOnUse">
<stop stop-color="#B99BB9"/>
<stop offset="1" stop-color="#0C083B"/>
</linearGradient>
</defs>
</svg>
