<svg width="660" height="77" viewBox="0 0 660 77" fill="none" xmlns="http://www.w3.org/2000/svg">
<rect x="0.5" y="9.5" width="659" height="19" rx="9.5" fill="url(#paint0_linear_1167_494)" stroke="white"/>
<rect y="9" width="165" height="20" rx="10" fill="#D8A5DF"/>
<circle cx="165" cy="19" r="19" fill="#D8A5DF"/>
<path d="M143.81 70V67.3352L150.879 60.4048C151.555 59.7221 152.119 59.1155 152.57 58.5852C153.02 58.0549 153.358 57.5412 153.584 57.044C153.809 56.5469 153.922 56.0166 153.922 55.4531C153.922 54.8101 153.776 54.2599 153.484 53.8026C153.193 53.3385 152.792 52.9806 152.281 52.7287C151.771 52.4768 151.191 52.3509 150.541 52.3509C149.872 52.3509 149.285 52.4901 148.781 52.7685C148.277 53.0402 147.886 53.428 147.608 53.9318C147.336 54.4356 147.2 55.0355 147.2 55.7315H143.69C143.69 54.4389 143.985 53.3153 144.575 52.3608C145.165 51.4062 145.977 50.6671 147.011 50.1435C148.052 49.6198 149.245 49.358 150.591 49.358C151.956 49.358 153.156 49.6132 154.19 50.1236C155.224 50.634 156.027 51.3333 156.597 52.2216C157.173 53.1098 157.462 54.1241 157.462 55.2642C157.462 56.0265 157.316 56.7756 157.024 57.5114C156.732 58.2472 156.219 59.0625 155.483 59.9574C154.754 60.8523 153.73 61.9361 152.411 63.2088L148.901 66.7784V66.9176H157.77V70H143.81ZM169.553 48.6818L162.99 73.0625H159.838L166.401 48.6818H169.553ZM178.889 70.2784C177.563 70.2784 176.377 70.0298 175.33 69.5327C174.282 69.0289 173.45 68.3395 172.834 67.4645C172.224 66.5895 171.899 65.5885 171.859 64.4616H175.439C175.505 65.2969 175.866 65.9796 176.523 66.5099C177.179 67.0336 177.968 67.2955 178.889 67.2955C179.612 67.2955 180.255 67.1297 180.818 66.7983C181.382 66.4669 181.826 66.0062 182.151 65.4162C182.475 64.8262 182.634 64.1534 182.628 63.3977C182.634 62.6288 182.472 61.946 182.141 61.3494C181.809 60.7528 181.355 60.2855 180.778 59.9474C180.202 59.6027 179.539 59.4304 178.79 59.4304C178.18 59.4238 177.58 59.5365 176.99 59.7685C176.4 60.0005 175.933 60.3054 175.588 60.6832L172.257 60.1364L173.321 49.6364H185.134V52.7188H176.374L175.787 58.1179H175.906C176.284 57.6738 176.818 57.3059 177.507 57.0142C178.196 56.7159 178.952 56.5668 179.774 56.5668C181.007 56.5668 182.107 56.8584 183.075 57.4418C184.043 58.0185 184.805 58.8139 185.362 59.8281C185.919 60.8423 186.197 62.0024 186.197 63.3082C186.197 64.6539 185.886 65.8537 185.263 66.9077C184.646 67.955 183.788 68.7803 182.688 69.3835C181.594 69.9801 180.328 70.2784 178.889 70.2784Z" fill="white"/>
<defs>
<linearGradient id="paint0_linear_1167_494" x1="0" y1="19" x2="660" y2="19" gradientUnits="userSpaceOnUse">
<stop stop-color="#B99BB9"/>
<stop offset="1" stop-color="#0C083B"/>
</linearGradient>
</defs>
</svg>
