<svg width="660" height="77" viewBox="0 0 660 77" fill="none" xmlns="http://www.w3.org/2000/svg">
<rect x="0.5" y="9.5" width="659" height="19" rx="9.5" fill="url(#paint0_linear_2552_372)" stroke="white"/>
<circle cx="495" cy="19" r="19" fill="#D8A5DF"/>
<rect y="9" width="495" height="20" rx="10" fill="#D8A5DF"/>
<path d="M480.408 71.476V65.176V64.728V52.072H480.016L481.024 51.708L477.104 57.812L472.876 64.364L473.128 63.328V63.748H486.484V65.876H471.924V64.168L481.108 50.084H483.264V71.476H480.408ZM487.58 75.956L495.868 49.048H497.38L489.12 75.956H487.58ZM504.937 71.448C503.238 71.448 501.866 71.0653 500.821 70.3C499.776 69.516 499.15 68.4427 498.945 67.08C499.076 66.744 499.262 66.492 499.505 66.324C499.766 66.156 500.056 66.072 500.373 66.072C500.802 66.072 501.148 66.2027 501.409 66.464C501.67 66.7253 501.848 67.1733 501.941 67.808L502.585 70.58L501.633 69.796C502.1 70.0573 502.529 70.244 502.921 70.356C503.332 70.468 503.836 70.524 504.433 70.524C505.908 70.524 507.065 70.048 507.905 69.096C508.745 68.144 509.165 66.7813 509.165 65.008C509.165 63.3093 508.745 62.04 507.905 61.2C507.084 60.36 505.982 59.94 504.601 59.94C504.022 59.94 503.472 59.9867 502.949 60.08C502.426 60.1733 501.922 60.3133 501.437 60.5L500.681 60.136L501.353 50.42H511.909V52.94H501.857L502.445 51.176L501.857 59.968L500.877 59.66C501.642 59.2867 502.398 59.0253 503.145 58.876C503.892 58.7267 504.685 58.652 505.525 58.652C507.672 58.652 509.37 59.1747 510.621 60.22C511.89 61.2653 512.525 62.8147 512.525 64.868C512.525 66.2307 512.208 67.4067 511.573 68.396C510.938 69.3667 510.052 70.1227 508.913 70.664C507.774 71.1867 506.449 71.448 504.937 71.448Z" fill="white"/>
<defs>
<linearGradient id="paint0_linear_2552_372" x1="0" y1="19" x2="660" y2="19" gradientUnits="userSpaceOnUse">
<stop stop-color="#B99BB9"/>
<stop offset="1" stop-color="#0C083B"/>
</linearGradient>
</defs>
</svg>
