<svg width="660" height="77" viewBox="0 0 660 77" fill="none" xmlns="http://www.w3.org/2000/svg">
<rect x="0.5" y="9.5" width="659" height="19" rx="9.5" fill="url(#paint0_linear_2552_358)" stroke="white"/>
<rect y="9" width="165" height="20" rx="10" fill="#D8A5DF"/>
<circle cx="165" cy="19" r="19" fill="#D8A5DF"/>
<path d="M143.736 71V69.124C144.632 68.0973 145.5 67.0893 146.34 66.1C147.18 65.1107 147.945 64.224 148.636 63.44C149.644 62.2453 150.456 61.2093 151.072 60.332C151.707 59.4547 152.173 58.624 152.472 57.84C152.771 57.0373 152.92 56.188 152.92 55.292C152.92 53.8733 152.584 52.7813 151.912 52.016C151.24 51.2507 150.316 50.868 149.14 50.868C148.673 50.868 148.197 50.9333 147.712 51.064C147.245 51.176 146.741 51.3907 146.2 51.708L147.46 50.924L146.76 53.78C146.629 54.4893 146.415 54.9653 146.116 55.208C145.817 55.4507 145.491 55.572 145.136 55.572C144.8 55.572 144.501 55.488 144.24 55.32C143.997 55.1333 143.82 54.8907 143.708 54.592C143.839 53.5653 144.212 52.716 144.828 52.044C145.444 51.3533 146.219 50.84 147.152 50.504C148.085 50.1493 149.084 49.972 150.148 49.972C152.164 49.972 153.657 50.4667 154.628 51.456C155.617 52.4453 156.112 53.7707 156.112 55.432C156.112 56.3653 155.879 57.252 155.412 58.092C154.945 58.932 154.227 59.8653 153.256 60.892C152.285 61.9 151.025 63.1227 149.476 64.56C149.159 64.84 148.767 65.2133 148.3 65.68C147.833 66.128 147.32 66.6413 146.76 67.22C146.219 67.78 145.659 68.3493 145.08 68.928L145.36 68.004V68.48H156.84V71H143.736ZM158.635 75.956L166.923 49.048H168.435L160.175 75.956H158.635ZM175.992 71.448C174.293 71.448 172.921 71.0653 171.876 70.3C170.83 69.516 170.205 68.4427 170 67.08C170.13 66.744 170.317 66.492 170.56 66.324C170.821 66.156 171.11 66.072 171.428 66.072C171.857 66.072 172.202 66.2027 172.464 66.464C172.725 66.7253 172.902 67.1733 172.996 67.808L173.64 70.58L172.688 69.796C173.154 70.0573 173.584 70.244 173.976 70.356C174.386 70.468 174.89 70.524 175.488 70.524C176.962 70.524 178.12 70.048 178.96 69.096C179.8 68.144 180.22 66.7813 180.22 65.008C180.22 63.3093 179.8 62.04 178.96 61.2C178.138 60.36 177.037 59.94 175.656 59.94C175.077 59.94 174.526 59.9867 174.004 60.08C173.481 60.1733 172.977 60.3133 172.492 60.5L171.736 60.136L172.408 50.42H182.964V52.94H172.912L173.5 51.176L172.912 59.968L171.932 59.66C172.697 59.2867 173.453 59.0253 174.2 58.876C174.946 58.7267 175.74 58.652 176.58 58.652C178.726 58.652 180.425 59.1747 181.676 60.22C182.945 61.2653 183.58 62.8147 183.58 64.868C183.58 66.2307 183.262 67.4067 182.628 68.396C181.993 69.3667 181.106 70.1227 179.968 70.664C178.829 71.1867 177.504 71.448 175.992 71.448Z" fill="white"/>
<defs>
<linearGradient id="paint0_linear_2552_358" x1="0" y1="19" x2="660" y2="19" gradientUnits="userSpaceOnUse">
<stop stop-color="#B99BB9"/>
<stop offset="1" stop-color="#0C083B"/>
</linearGradient>
</defs>
</svg>
