<svg width="660" height="77" viewBox="0 0 660 77" fill="none" xmlns="http://www.w3.org/2000/svg">
<rect x="0.5" y="9.5" width="659" height="19" rx="9.5" fill="url(#paint0_linear_2552_365)" stroke="white"/>
<circle cx="330" cy="19" r="19" fill="#D8A5DF"/>
<rect y="9" width="331" height="20" rx="10" fill="#D8A5DF"/>
<path d="M314.448 71.448C312.656 71.448 311.228 71.0747 310.164 70.328C309.119 69.5627 308.475 68.48 308.232 67.08C308.363 66.7253 308.549 66.464 308.792 66.296C309.053 66.128 309.333 66.044 309.632 66.044C310.061 66.044 310.407 66.184 310.668 66.464C310.929 66.7253 311.125 67.192 311.256 67.864L311.928 70.664L310.696 69.768C311.144 70.0107 311.583 70.1973 312.012 70.328C312.46 70.4587 312.955 70.524 313.496 70.524C315.008 70.524 316.175 70.104 316.996 69.264C317.817 68.4053 318.228 67.2107 318.228 65.68C318.228 64.0933 317.827 62.88 317.024 62.04C316.221 61.1813 315.027 60.752 313.44 60.752H312.236V59.716H313.3C314.607 59.716 315.671 59.324 316.492 58.54C317.313 57.756 317.724 56.58 317.724 55.012C317.724 53.6867 317.407 52.6693 316.772 51.96C316.137 51.232 315.241 50.868 314.084 50.868C313.617 50.868 313.141 50.924 312.656 51.036C312.189 51.148 311.685 51.3347 311.144 51.596L312.572 50.812L311.872 53.472C311.741 54.032 311.536 54.424 311.256 54.648C310.976 54.872 310.631 54.984 310.22 54.984C309.94 54.984 309.688 54.9187 309.464 54.788C309.259 54.6573 309.1 54.4613 308.988 54.2C309.1 53.2107 309.436 52.408 309.996 51.792C310.575 51.1573 311.293 50.7 312.152 50.42C313.011 50.1213 313.925 49.972 314.896 49.972C316.856 49.972 318.34 50.4293 319.348 51.344C320.375 52.2587 320.888 53.444 320.888 54.9C320.888 55.8147 320.664 56.664 320.216 57.448C319.787 58.2133 319.105 58.8573 318.172 59.38C317.257 59.884 316.063 60.2107 314.588 60.36V60.024C316.249 60.0987 317.584 60.388 318.592 60.892C319.6 61.3773 320.337 62.0307 320.804 62.852C321.271 63.6733 321.504 64.6253 321.504 65.708C321.504 66.8467 321.205 67.8547 320.608 68.732C320.029 69.5907 319.217 70.2627 318.172 70.748C317.127 71.2147 315.885 71.448 314.448 71.448ZM323.608 75.956L331.896 49.048H333.408L325.148 75.956H323.608ZM340.964 71.448C339.266 71.448 337.894 71.0653 336.848 70.3C335.803 69.516 335.178 68.4427 334.972 67.08C335.103 66.744 335.29 66.492 335.532 66.324C335.794 66.156 336.083 66.072 336.4 66.072C336.83 66.072 337.175 66.2027 337.436 66.464C337.698 66.7253 337.875 67.1733 337.968 67.808L338.612 70.58L337.66 69.796C338.127 70.0573 338.556 70.244 338.948 70.356C339.359 70.468 339.863 70.524 340.46 70.524C341.935 70.524 343.092 70.048 343.932 69.096C344.772 68.144 345.192 66.7813 345.192 65.008C345.192 63.3093 344.772 62.04 343.932 61.2C343.111 60.36 342.01 59.94 340.628 59.94C340.05 59.94 339.499 59.9867 338.976 60.08C338.454 60.1733 337.95 60.3133 337.464 60.5L336.708 60.136L337.38 50.42H347.936V52.94H337.884L338.472 51.176L337.884 59.968L336.904 59.66C337.67 59.2867 338.426 59.0253 339.172 58.876C339.919 58.7267 340.712 58.652 341.552 58.652C343.699 58.652 345.398 59.1747 346.648 60.22C347.918 61.2653 348.552 62.8147 348.552 64.868C348.552 66.2307 348.235 67.4067 347.6 68.396C346.966 69.3667 346.079 70.1227 344.94 70.664C343.802 71.1867 342.476 71.448 340.964 71.448Z" fill="white"/>
<defs>
<linearGradient id="paint0_linear_2552_365" x1="0" y1="19" x2="660" y2="19" gradientUnits="userSpaceOnUse">
<stop stop-color="#B99BB9"/>
<stop offset="1" stop-color="#0C083B"/>
</linearGradient>
</defs>
</svg>
