<svg width="377" height="51" viewBox="0 0 377 51" fill="none" xmlns="http://www.w3.org/2000/svg">
<path d="M10.856 34.756C13.664 34.9293 15.8653 35.3973 17.46 36.16C19.0893 36.888 20.2333 37.7547 20.892 38.76C21.5853 39.7307 21.88 40.7013 21.776 41.672C21.7067 42.6427 21.36 43.4747 20.736 44.168C20.112 44.8613 19.2973 45.2427 18.292 45.312C17.3213 45.416 16.2813 45.0867 15.172 44.324C15.068 43.18 14.7907 42.036 14.34 40.892C13.8893 39.748 13.3347 38.6733 12.676 37.668C12.0173 36.6627 11.2893 35.796 10.492 35.068L10.856 34.756ZM5.292 18.168H36.752L40.236 13.592C40.236 13.592 40.444 13.7653 40.86 14.112C41.276 14.424 41.8133 14.8573 42.472 15.412C43.1307 15.932 43.8067 16.504 44.5 17.128C45.228 17.7173 45.8693 18.272 46.424 18.792C46.2853 19.3467 45.8 19.624 44.968 19.624H5.708L5.292 18.168ZM1.808 32.728H39.612L42.94 28.204C42.94 28.204 43.148 28.3773 43.564 28.724C43.98 29.036 44.5 29.4693 45.124 30.024C45.748 30.544 46.4067 31.0987 47.1 31.688C47.7933 32.2773 48.4173 32.832 48.972 33.352C48.8333 33.9067 48.348 34.184 47.516 34.184H2.224L1.808 32.728ZM0.664 25.136H40.444L43.668 20.872C43.668 20.872 43.9973 21.1493 44.656 21.704C45.3147 22.224 46.0947 22.8653 46.996 23.628C47.932 24.3907 48.7467 25.1013 49.44 25.76C49.336 26.3147 48.868 26.592 48.036 26.592H1.08L0.664 25.136ZM21.152 13.28L29.888 14.008C29.8533 14.2853 29.7493 14.528 29.576 14.736C29.4027 14.944 29.0213 15.1 28.432 15.204V25.916H21.152V13.28ZM31.032 26.904L40.184 27.632C40.1493 28.0133 39.9933 28.3253 39.716 28.568C39.4387 28.776 39.0227 28.9147 38.468 28.984V41.776C38.468 43.4053 38.2427 44.7747 37.792 45.884C37.376 47.028 36.492 47.9293 35.14 48.588C33.8227 49.2813 31.7773 49.7493 29.004 49.992C28.9 48.848 28.744 47.86 28.536 47.028C28.328 46.196 27.9813 45.5027 27.496 44.948C27.0107 44.3933 26.3867 43.9253 25.624 43.544C24.896 43.128 23.752 42.7813 22.192 42.504V41.88C22.192 41.88 22.5213 41.8973 23.18 41.932C23.8733 41.9667 24.688 42.0187 25.624 42.088C26.5947 42.1573 27.496 42.2093 28.328 42.244C29.16 42.2787 29.732 42.296 30.044 42.296C30.4253 42.296 30.6853 42.2267 30.824 42.088C30.9627 41.9493 31.032 41.724 31.032 41.412V26.904ZM7.32 0.435997L16.16 3.712C16.0213 4.024 15.7787 4.26667 15.432 4.44C15.0853 4.61333 14.6173 4.68267 14.028 4.648C12.3293 7.664 10.3187 10.1427 7.996 12.084C5.708 14.0253 3.22933 15.568 0.56 16.712L0.0920001 16.244C1.61733 14.4067 3.03867 12.1013 4.356 9.328C5.67333 6.55466 6.66133 3.59066 7.32 0.435997ZM9.244 7.04H16.888L19.904 2.88C19.904 2.88 20.216 3.15733 20.84 3.712C21.464 4.232 22.192 4.856 23.024 5.584C23.8907 6.312 24.6533 7.00533 25.312 7.664C25.208 8.21866 24.74 8.496 23.908 8.496H9.244V7.04ZM28.12 7.04H40.392L43.772 2.724C43.772 2.724 44.1187 3.00133 44.812 3.556C45.54 4.076 46.372 4.71733 47.308 5.48C48.2787 6.24266 49.1453 6.97066 49.908 7.664C49.804 8.21866 49.3187 8.496 48.452 8.496H28.12V7.04ZM11.376 7.56C13.4907 8.04533 15.1027 8.66933 16.212 9.432C17.3213 10.16 18.032 10.94 18.344 11.772C18.6907 12.604 18.7427 13.384 18.5 14.112C18.2573 14.8053 17.8067 15.36 17.148 15.776C16.524 16.1573 15.796 16.3133 14.964 16.244C14.132 16.1747 13.3173 15.7587 12.52 14.996C12.5893 13.748 12.4507 12.4827 12.104 11.2C11.792 9.88267 11.3933 8.756 10.908 7.82L11.376 7.56ZM26.976 0.383998L36.232 3.66C36.128 3.972 35.8853 4.232 35.504 4.44C35.1573 4.61333 34.6893 4.68267 34.1 4.648C32.5747 7.04 30.8067 9.068 28.796 10.732C26.82 12.3613 24.7227 13.6787 22.504 14.684L21.984 14.268C23.024 12.5693 23.9947 10.4893 24.896 8.028C25.832 5.56666 26.5253 3.01866 26.976 0.383998ZM32.488 7.196C34.776 7.54267 36.544 8.08 37.792 8.808C39.04 9.536 39.872 10.316 40.288 11.148C40.704 11.98 40.7907 12.7773 40.548 13.54C40.34 14.3027 39.9067 14.9267 39.248 15.412C38.624 15.8627 37.8787 16.088 37.012 16.088C36.1453 16.0533 35.2613 15.6547 34.36 14.892C34.3253 13.5747 34.0653 12.2573 33.58 10.94C33.0947 9.588 32.592 8.42667 32.072 7.456L32.488 7.196ZM73.204 5.584C73.0653 5.82666 72.84 6.01733 72.528 6.156C72.2507 6.29466 71.8173 6.312 71.228 6.208C69.9453 7.31733 68.4373 8.47866 66.704 9.692C64.9707 10.9053 63.116 12.0667 61.14 13.176C59.164 14.2507 57.1187 15.204 55.004 16.036L54.588 15.516C56.0093 14.0947 57.396 12.4827 58.748 10.68C60.1 8.87733 61.3307 7.07467 62.44 5.272C63.5493 3.46933 64.416 1.87466 65.04 0.487997L73.204 5.584ZM73.984 15.88C73.8453 16.1227 73.62 16.3307 73.308 16.504C73.0307 16.6427 72.58 16.6773 71.956 16.608C70.6387 18.0987 69.0787 19.7107 67.276 21.444C65.508 23.1427 63.5667 24.824 61.452 26.488C59.3373 28.1173 57.1187 29.5907 54.796 30.908L54.328 30.44C55.472 29.0187 56.5813 27.476 57.656 25.812C58.7653 24.1133 59.8053 22.38 60.776 20.612C61.7813 18.8093 62.6827 17.0933 63.48 15.464C64.2773 13.8 64.9187 12.3093 65.404 10.992L73.984 15.88ZM70.136 22.692C70.0667 22.9347 69.9107 23.1427 69.668 23.316C69.4253 23.4893 69.044 23.628 68.524 23.732V47.496C68.524 47.704 68.2467 48.016 67.692 48.432C67.1373 48.848 66.4093 49.212 65.508 49.524C64.6413 49.8707 63.6707 50.044 62.596 50.044H61.244V22.744L63.22 20.144L70.136 22.692ZM73.672 30.388C76.3067 30.7347 78.3693 31.3067 79.86 32.104C81.3853 32.9013 82.4427 33.7853 83.032 34.756C83.656 35.7267 83.916 36.68 83.812 37.616C83.7427 38.5173 83.396 39.28 82.772 39.904C82.148 40.4933 81.368 40.8227 80.432 40.892C79.496 40.9267 78.508 40.58 77.468 39.852C77.26 38.7773 76.9307 37.6853 76.48 36.576C76.0293 35.4667 75.5093 34.4093 74.92 33.404C74.3653 32.3987 73.8107 31.48 73.256 30.648L73.672 30.388ZM97.332 22.12C97.228 22.8827 96.6387 23.3333 95.564 23.472V42.14C95.564 43.7347 95.3387 45.0867 94.888 46.196C94.4373 47.3053 93.5187 48.172 92.132 48.796C90.7453 49.4547 88.6307 49.9053 85.788 50.148C85.684 49.0387 85.528 48.0853 85.32 47.288C85.112 46.5253 84.7133 45.8667 84.124 45.312C83.5693 44.8267 82.8933 44.3933 82.096 44.012C81.3333 43.596 80.12 43.2493 78.456 42.972V42.348C78.456 42.348 78.82 42.3653 79.548 42.4C80.3107 42.4347 81.1947 42.4867 82.2 42.556C83.24 42.6253 84.2107 42.6773 85.112 42.712C86.048 42.7467 86.672 42.764 86.984 42.764C87.4 42.764 87.6773 42.6947 87.816 42.556C87.9893 42.4173 88.076 42.192 88.076 41.88V21.34L97.332 22.12ZM90.884 1.216C90.8493 1.56266 90.7107 1.85733 90.468 2.1C90.26 2.308 89.844 2.464 89.22 2.568V20.248H81.732V0.487997L90.884 1.216ZM98.372 22.64C98.372 22.64 98.58 22.8133 98.996 23.16C99.4467 23.5067 100.001 23.9573 100.66 24.512C101.353 25.0667 102.064 25.656 102.792 26.28C103.52 26.904 104.179 27.4933 104.768 28.048C104.629 28.6027 104.127 28.88 103.26 28.88H71.332L70.916 27.424H94.836L98.372 22.64ZM98.424 14.58C98.424 14.58 98.6493 14.7707 99.1 15.152C99.5853 15.4987 100.175 15.9493 100.868 16.504C101.561 17.0587 102.289 17.6653 103.052 18.324C103.849 18.948 104.56 19.5373 105.184 20.092C105.045 20.6467 104.543 20.924 103.676 20.924H70.188L69.772 19.468H94.68L98.424 14.58ZM95.564 5.22C95.564 5.22 95.7893 5.39333 96.24 5.74C96.6907 6.08666 97.2627 6.53733 97.956 7.092C98.684 7.64666 99.412 8.25333 100.14 8.912C100.903 9.536 101.596 10.1253 102.22 10.68C102.185 10.9573 102.029 11.1653 101.752 11.304C101.475 11.4427 101.145 11.512 100.764 11.512H73.204L72.788 10.056H91.872L95.564 5.22ZM117.924 44.116H150.58V45.572H117.924V44.116ZM113.764 15.152V12.084L121.564 15.152H150.476V16.608H121.044V47.392C121.044 47.6693 120.749 47.9987 120.16 48.38C119.571 48.796 118.808 49.1427 117.872 49.42C116.936 49.732 115.948 49.888 114.908 49.888H113.764V15.152ZM147.252 15.152H146.732L150.06 11.46L156.716 16.66C156.543 16.868 156.283 17.076 155.936 17.284C155.624 17.492 155.191 17.648 154.636 17.752V47.496C154.636 47.6347 154.289 47.86 153.596 48.172C152.937 48.5187 152.123 48.8133 151.152 49.056C150.216 49.3333 149.315 49.472 148.448 49.472H147.252V15.152ZM109.604 6.832H122.5V0.591998L131.6 1.372C131.565 1.71866 131.427 2.01333 131.184 2.256C130.976 2.464 130.525 2.62 129.832 2.724V6.832H138.048V0.591998L147.356 1.32C147.321 1.66666 147.183 1.96133 146.94 2.204C146.697 2.44666 146.229 2.62 145.536 2.724V6.832H149.28L152.712 2.256C152.712 2.256 152.92 2.42933 153.336 2.776C153.752 3.088 154.272 3.52133 154.896 4.076C155.555 4.596 156.231 5.168 156.924 5.792C157.617 6.38133 158.241 6.936 158.796 7.456C158.657 8.01066 158.172 8.288 157.34 8.288H145.536V11.512C145.536 11.7893 144.912 12.1187 143.664 12.5C142.451 12.8467 140.977 13.02 139.244 13.02H138.048V8.288H129.832V11.772C129.832 12.0493 129.225 12.3787 128.012 12.76C126.799 13.1067 125.36 13.28 123.696 13.28H122.5V8.288H109.968L109.604 6.832ZM121.356 27.112H139.244L142.052 23.368C142.052 23.368 142.347 23.6107 142.936 24.096C143.525 24.5813 144.219 25.1707 145.016 25.864C145.848 26.5227 146.576 27.1467 147.2 27.736C147.061 28.2907 146.593 28.568 145.796 28.568H121.772L121.356 27.112ZM129.416 27.112H136.488V27.944C135.067 30.7173 133.021 33.1613 130.352 35.276C127.683 37.356 124.632 39.124 121.2 40.58L120.732 39.904C122.777 38.2747 124.528 36.3333 125.984 34.08C127.475 31.792 128.619 29.4693 129.416 27.112ZM137.372 21.028V41.1C137.372 41.2387 136.887 41.568 135.916 42.088C134.98 42.5733 133.697 42.816 132.068 42.816H130.872V21.86L137.372 21.028ZM137.372 30.596C139.66 30.7693 141.48 31.168 142.832 31.792C144.184 32.3813 145.137 33.092 145.692 33.924C146.247 34.7213 146.489 35.5187 146.42 36.316C146.385 37.1133 146.108 37.7893 145.588 38.344C145.103 38.8987 144.461 39.228 143.664 39.332C142.867 39.4013 142 39.1413 141.064 38.552C140.925 37.6507 140.631 36.732 140.18 35.796C139.764 34.86 139.261 33.976 138.672 33.144C138.117 32.2773 137.545 31.532 136.956 30.908L137.372 30.596ZM139.712 16.92L145.224 22.38C144.565 22.9347 143.491 22.9 142 22.276C140.371 22.5533 138.464 22.8133 136.28 23.056C134.131 23.264 131.877 23.4373 129.52 23.576C127.197 23.68 124.927 23.7147 122.708 23.68L122.552 22.952C124.563 22.5013 126.643 21.9293 128.792 21.236C130.976 20.5427 133.021 19.8147 134.928 19.052C136.869 18.2893 138.464 17.5787 139.712 16.92ZM182.196 11.512H204.66L207.988 7.248C207.988 7.248 208.335 7.52533 209.028 8.08C209.721 8.6 210.536 9.24133 211.472 10.004C212.408 10.732 213.24 11.4427 213.968 12.136C213.829 12.6907 213.344 12.968 212.512 12.968H182.612L182.196 11.512ZM183.652 39.28H203.724L206.896 35.12C206.896 35.12 207.225 35.38 207.884 35.9C208.543 36.42 209.323 37.0613 210.224 37.824C211.16 38.552 211.975 39.2453 212.668 39.904C212.564 40.4587 212.096 40.736 211.264 40.736H184.068L183.652 39.28ZM181.104 46.612H205.284L208.612 42.192C208.612 42.192 208.82 42.3653 209.236 42.712C209.652 43.024 210.172 43.44 210.796 43.96C211.42 44.48 212.079 45.0173 212.772 45.572C213.465 46.1613 214.089 46.716 214.644 47.236C214.505 47.7907 214.02 48.068 213.188 48.068H181.52L181.104 46.612ZM205.544 0.643998L212.304 7.092C211.957 7.33466 211.472 7.47333 210.848 7.508C210.224 7.54267 209.479 7.38667 208.612 7.04C206.497 7.31733 204.001 7.56 201.124 7.768C198.281 7.94133 195.317 8.06266 192.232 8.132C189.181 8.20133 186.269 8.20133 183.496 8.132L183.392 7.456C185.264 7.07466 187.223 6.60667 189.268 6.052C191.348 5.49733 193.393 4.908 195.404 4.284C197.415 3.66 199.287 3.036 201.02 2.412C202.788 1.788 204.296 1.19867 205.544 0.643998ZM188.176 24.304H207.156V25.76H188.176V24.304ZM188.176 31.844H207.416V33.3H188.176V31.844ZM194.208 5.688H200.968V47.236H194.208V5.688ZM184.588 17.128V14.476L191.4 17.128H206.428V18.584H191.088V34.912C191.088 35.12 190.811 35.38 190.256 35.692C189.736 36.004 189.043 36.2987 188.176 36.576C187.344 36.8187 186.46 36.94 185.524 36.94H184.588V17.128ZM204.556 17.128H204.036L207.052 13.904L213.188 18.532C213.049 18.7053 212.824 18.896 212.512 19.104C212.2 19.2773 211.801 19.416 211.316 19.52V34.392C211.316 34.496 211.004 34.6867 210.38 34.964C209.756 35.2067 209.011 35.432 208.144 35.64C207.277 35.848 206.463 35.952 205.7 35.952H204.556V17.128ZM163.996 17.232H177.984L180.844 12.968C180.844 12.968 181.139 13.2453 181.728 13.8C182.317 14.32 183.011 14.9613 183.808 15.724C184.605 16.4867 185.299 17.1973 185.888 17.856C185.749 18.4107 185.281 18.688 184.484 18.688H164.412L163.996 17.232ZM170.652 17.232H177.932V18.064C176.857 22.6747 175.124 26.904 172.732 30.752C170.375 34.6 167.445 37.9973 163.944 40.944L163.372 40.424C164.62 38.344 165.712 36.004 166.648 33.404C167.619 30.804 168.433 28.1173 169.092 25.344C169.751 22.5707 170.271 19.8667 170.652 17.232ZM171.12 8.444L177.88 5.74V48.016C177.88 48.224 177.377 48.588 176.372 49.108C175.367 49.6627 174.032 49.94 172.368 49.94H171.12V8.444ZM177.88 22.38C179.995 23.0733 181.607 23.888 182.716 24.824C183.86 25.7253 184.605 26.644 184.952 27.58C185.333 28.516 185.42 29.3827 185.212 30.18C185.004 30.9427 184.588 31.5493 183.964 32C183.375 32.4507 182.681 32.6587 181.884 32.624C181.087 32.5547 180.289 32.1387 179.492 31.376C179.492 30.3707 179.388 29.348 179.18 28.308C178.972 27.268 178.712 26.2627 178.4 25.292C178.088 24.2867 177.741 23.3853 177.36 22.588L177.88 22.38ZM178.4 1.164L186.304 7.872C185.957 8.14933 185.472 8.32266 184.848 8.392C184.224 8.42667 183.461 8.30533 182.56 8.028C181 8.444 179.163 8.84266 177.048 9.224C174.968 9.60533 172.767 9.91733 170.444 10.16C168.156 10.4027 165.903 10.5933 163.684 10.732L163.58 10.212C165.348 9.44933 167.168 8.548 169.04 7.508C170.947 6.43333 172.715 5.34133 174.344 4.232C176.008 3.088 177.36 2.06533 178.4 1.164ZM218.7 45.676H255.984L260.3 40.216C260.3 40.216 260.56 40.424 261.08 40.84C261.6 41.2213 262.259 41.724 263.056 42.348C263.888 42.972 264.737 43.6307 265.604 44.324C266.505 45.0173 267.32 45.676 268.048 46.3C267.909 46.8547 267.389 47.132 266.488 47.132H219.116L218.7 45.676ZM225.044 28.308H252.136L256.296 23.108C256.296 23.108 256.539 23.2987 257.024 23.68C257.544 24.0613 258.203 24.5467 259 25.136C259.797 25.7253 260.629 26.3667 261.496 27.06C262.363 27.7187 263.16 28.3427 263.888 28.932C263.749 29.4867 263.247 29.764 262.38 29.764H225.46L225.044 28.308ZM228.32 13.488H253.696L257.804 8.444C257.804 8.444 258.047 8.61733 258.532 8.964C259.017 9.31067 259.641 9.77867 260.404 10.368C261.201 10.9227 262.016 11.5293 262.848 12.188C263.715 12.8467 264.512 13.488 265.24 14.112C265.101 14.6667 264.581 14.944 263.68 14.944H227.592L228.32 13.488ZM239.032 0.903997L249.276 1.84C249.241 2.22133 249.085 2.55066 248.808 2.828C248.565 3.07067 248.08 3.244 247.352 3.348V46.56H239.032V0.903997ZM226.812 2.36L237.316 5.376C237.212 5.72267 236.987 6 236.64 6.208C236.293 6.416 235.808 6.52 235.184 6.52C233.277 11.5467 230.937 15.8107 228.164 19.312C225.425 22.7787 222.253 25.6733 218.648 27.996L218.128 27.632C219.376 25.552 220.572 23.16 221.716 20.456C222.86 17.7173 223.883 14.8053 224.784 11.72C225.685 8.6 226.361 5.48 226.812 2.36ZM282.036 20.924H293.112V22.38H282.036V20.924ZM290.772 20.924H290.252L293.736 17.596L299.716 22.588C299.543 22.796 299.283 22.9867 298.936 23.16C298.624 23.3333 298.208 23.4547 297.688 23.524C297.584 27.372 297.411 30.4227 297.168 32.676C296.96 34.9293 296.631 36.6453 296.18 37.824C295.729 39.0027 295.088 39.904 294.256 40.528C293.493 41.0827 292.609 41.516 291.604 41.828C290.599 42.1053 289.403 42.244 288.016 42.244C288.016 41.2387 287.964 40.3373 287.86 39.54C287.791 38.7427 287.6 38.1187 287.288 37.668C286.976 37.1827 286.577 36.784 286.092 36.472C285.607 36.16 284.965 35.8827 284.168 35.64V35.016C284.515 35.0507 284.931 35.0853 285.416 35.12C285.901 35.12 286.369 35.1373 286.82 35.172C287.305 35.172 287.687 35.172 287.964 35.172C288.588 35.172 289.039 35.0507 289.316 34.808C289.767 34.392 290.096 33.1267 290.304 31.012C290.512 28.8627 290.668 25.5 290.772 20.924ZM298.468 0.591998L307.776 1.476C307.741 1.82267 307.585 2.13466 307.308 2.412C307.065 2.68933 306.597 2.88 305.904 2.984C305.835 6.34667 305.904 9.72667 306.112 13.124C306.32 16.5213 306.771 19.7973 307.464 22.952C308.157 26.1067 309.197 29.036 310.584 31.74C312.005 34.444 313.877 36.8013 316.2 38.812C316.581 39.1933 316.893 39.384 317.136 39.384C317.379 39.384 317.656 39.1587 317.968 38.708C318.453 38.0147 319.06 37.0267 319.788 35.744C320.551 34.4613 321.209 33.2307 321.764 32.052L322.232 32.208L320.828 41.516C321.833 43.3533 322.423 44.792 322.596 45.832C322.804 46.9067 322.631 47.6867 322.076 48.172C321.313 48.8307 320.447 49.1947 319.476 49.264C318.54 49.3333 317.587 49.1947 316.616 48.848C315.645 48.536 314.709 48.1027 313.808 47.548C312.941 46.9933 312.213 46.4213 311.624 45.832C308.747 42.9547 306.441 39.8173 304.708 36.42C302.975 32.988 301.657 29.348 300.756 25.5C299.855 21.652 299.248 17.6307 298.936 13.436C298.624 9.24133 298.468 4.96 298.468 0.591998ZM308.244 1.944C310.601 1.66666 312.491 1.70133 313.912 2.048C315.333 2.39466 316.356 2.91466 316.98 3.608C317.639 4.30133 317.968 5.04667 317.968 5.844C317.968 6.60667 317.708 7.3 317.188 7.924C316.703 8.548 316.044 8.964 315.212 9.172C314.38 9.34533 313.444 9.18933 312.404 8.704C312.161 7.90667 311.797 7.10933 311.312 6.312C310.827 5.51467 310.272 4.76933 309.648 4.076C309.059 3.348 308.469 2.74133 307.88 2.256L308.244 1.944ZM311.52 16.764L321.036 19.988C320.932 20.3 320.741 20.56 320.464 20.768C320.187 20.9413 319.701 21.0107 319.008 20.976C317.933 23.7493 316.581 26.5227 314.952 29.296C313.357 32.0693 311.416 34.7387 309.128 37.304C306.875 39.8347 304.188 42.14 301.068 44.22C297.983 46.2653 294.412 47.9813 290.356 49.368L289.992 48.796C293.147 46.8547 295.92 44.636 298.312 42.14C300.704 39.644 302.767 36.992 304.5 34.184C306.233 31.3413 307.672 28.4467 308.816 25.5C309.995 22.5187 310.896 19.6067 311.52 16.764ZM281.724 11.356H311.728L315.576 6.468C315.576 6.468 315.801 6.65866 316.252 7.04C316.737 7.38667 317.344 7.83733 318.072 8.392C318.8 8.94666 319.563 9.55333 320.36 10.212C321.157 10.836 321.885 11.4253 322.544 11.98C322.405 12.5347 321.903 12.812 321.036 12.812H281.724V11.356ZM278.032 11.356V10.836V8.444L286.664 11.356H285.572V22.484C285.572 24.5987 285.451 26.904 285.208 29.4C285 31.8613 284.497 34.34 283.7 36.836C282.937 39.332 281.707 41.7413 280.008 44.064C278.344 46.352 276.056 48.3973 273.144 50.2L272.78 49.836C274.409 47.132 275.588 44.2373 276.316 41.152C277.079 38.032 277.547 34.8773 277.72 31.688C277.928 28.4987 278.032 25.4307 278.032 22.484V11.356ZM368.304 27.736V29.192H334.66V27.736H368.304ZM365.964 12.344L369.448 8.496L376.572 13.904C376.433 14.112 376.191 14.3373 375.844 14.58C375.532 14.788 375.099 14.944 374.544 15.048V31.792C374.544 31.9307 374.163 32.1387 373.4 32.416C372.637 32.6933 371.736 32.9533 370.696 33.196C369.691 33.4387 368.755 33.56 367.888 33.56H366.484V12.344H365.964ZM338.768 31.896C338.768 32.1387 338.421 32.468 337.728 32.884C337.069 33.3 336.22 33.664 335.18 33.976C334.14 34.288 333.065 34.444 331.956 34.444H330.812V12.292V9.068L339.34 12.292H367.992V13.748H338.768V31.896ZM358.528 1.528C358.493 1.87467 358.337 2.18667 358.06 2.464C357.817 2.74133 357.332 2.932 356.604 3.036V47.184C356.604 47.4267 356.275 47.7733 355.616 48.224C354.957 48.6747 354.125 49.0733 353.12 49.42C352.115 49.7667 351.092 49.94 350.052 49.94H348.544V0.591998L358.528 1.528Z" fill="white"/>
</svg>
