<svg width="221" height="51" viewBox="0 0 221 51" fill="none" xmlns="http://www.w3.org/2000/svg">
<path d="M32.24 40.736H44.512V42.192H32.24V40.736ZM40.82 9.38H40.3L43.784 5.532L50.492 10.888C50.3187 11.1307 50.0587 11.356 49.712 11.564C49.4 11.7373 48.984 11.8933 48.464 12.032V45.26C48.4293 45.468 48.0827 45.78 47.424 46.196C46.7653 46.612 45.9507 46.9933 44.98 47.34C44.0093 47.6867 43.0387 47.86 42.068 47.86H40.82V9.38ZM1.872 12.188H21.372V13.644H2.34L1.872 12.188ZM8.06 1.06L17.42 1.892C17.3507 2.27333 17.1773 2.58533 16.9 2.828C16.6227 3.07067 16.1547 3.244 15.496 3.348C15.4613 6.676 15.392 10.0387 15.288 13.436C15.184 16.7987 14.924 20.144 14.508 23.472C14.1267 26.7653 13.4333 29.972 12.428 33.092C11.4573 36.212 10.0707 39.1933 8.268 42.036C6.46533 44.8787 4.108 47.5307 1.196 49.992L0.52 49.316C2.63467 45.676 4.212 41.8973 5.252 37.98C6.32667 34.0627 7.05467 30.076 7.436 26.02C7.81733 21.9293 8.008 17.804 8.008 13.644C8.04267 9.44933 8.06 5.25466 8.06 1.06ZM18.876 12.188H18.252L22.1 8.34L28.34 13.852C27.924 14.4067 27.1613 14.7707 26.052 14.944C25.948 20.56 25.8093 25.2227 25.636 28.932C25.4973 32.6413 25.2893 35.6573 25.012 37.98C24.7347 40.268 24.3533 42.0707 23.868 43.388C23.3827 44.6707 22.7587 45.676 21.996 46.404C21.0253 47.34 19.916 48.016 18.668 48.432C17.4547 48.8827 16.0853 49.108 14.56 49.108C14.56 47.86 14.508 46.8027 14.404 45.936C14.3 45.104 14.092 44.4627 13.78 44.012C13.3987 43.4227 12.896 42.9373 12.272 42.556C11.6827 42.1747 10.8853 41.8453 9.88 41.568L9.932 40.944C10.4173 40.9787 10.9547 41.0307 11.544 41.1C12.1333 41.1347 12.7053 41.1693 13.26 41.204C13.8147 41.204 14.2653 41.204 14.612 41.204C14.9933 41.204 15.3053 41.152 15.548 41.048C15.8253 40.944 16.0853 40.788 16.328 40.58C16.9173 40.0253 17.368 38.7253 17.68 36.68C18.0267 34.6 18.2867 31.5667 18.46 27.58C18.6333 23.5933 18.772 18.4627 18.876 12.188ZM28.912 9.38V6.312L36.4 9.38H44.772V10.836H36.192V46.352C36.192 46.6293 35.8973 46.976 35.308 47.392C34.7533 47.808 34.008 48.172 33.072 48.484C32.1707 48.796 31.1827 48.952 30.108 48.952H28.912V9.38ZM78.624 5.792L81.536 1.164L89.18 6.676C88.6253 7.33466 87.672 7.85466 86.32 8.236C85.0027 8.58267 83.4773 8.84267 81.744 9.016V10.42C82.264 15.6547 83.5293 20.2653 85.54 24.252C87.5853 28.204 90.3933 31.6533 93.964 34.6C97.5693 37.5467 101.937 40.0947 107.068 42.244L106.912 42.764C105.04 43.0413 103.497 43.7867 102.284 45C101.105 46.1787 100.169 47.8253 99.476 49.94C97.9853 49.0387 96.4427 47.808 94.848 46.248C93.288 44.7227 91.7627 42.972 90.272 40.996C88.816 38.9853 87.4987 36.8533 86.32 34.6C85.176 32.312 84.2573 30.0067 83.564 27.684C82.212 30.7 80.2707 33.6293 77.74 36.472C75.244 39.3147 72.2973 41.8973 68.9 44.22C65.5373 46.508 61.828 48.38 57.772 49.836L57.512 49.42C60.32 47.8253 63.024 45.6587 65.624 42.92C68.224 40.1467 70.564 36.992 72.644 33.456C74.724 29.92 76.4227 26.1587 77.74 22.172C79.0573 18.1507 79.8547 14.0773 80.132 9.952L80.08 7.248H67.86L67.444 5.792H78.624ZM133.848 5.636H156.572V7.092H134.316L133.848 5.636ZM133.536 24.096H154.076L157.56 19.208C157.56 19.208 157.768 19.3987 158.184 19.78C158.6 20.1267 159.137 20.5947 159.796 21.184C160.455 21.7387 161.131 22.328 161.824 22.952C162.552 23.576 163.193 24.1653 163.748 24.72C163.609 25.2747 163.124 25.552 162.292 25.552H133.952L133.536 24.096ZM143.676 14.892L152.984 15.672C152.949 16.0533 152.793 16.3653 152.516 16.608C152.239 16.8507 151.805 17.0067 151.216 17.076V41.568C151.216 43.232 151.008 44.6533 150.592 45.832C150.211 47.0107 149.379 47.9467 148.096 48.64C146.813 49.3333 144.855 49.8013 142.22 50.044C142.151 48.8307 142.029 47.7733 141.856 46.872C141.717 45.9707 141.457 45.2427 141.076 44.688C140.695 44.0987 140.192 43.6133 139.568 43.232C138.979 42.816 138.043 42.4867 136.76 42.244V41.62C136.76 41.62 137.003 41.6373 137.488 41.672C138.008 41.7067 138.632 41.7413 139.36 41.776C140.088 41.8107 140.764 41.8453 141.388 41.88C142.047 41.9147 142.497 41.932 142.74 41.932C143.087 41.932 143.329 41.8627 143.468 41.724C143.607 41.5853 143.676 41.3947 143.676 41.152V14.892ZM153.504 5.636H152.88L156.624 1.996L162.916 7.508C162.708 7.75066 162.448 7.924 162.136 8.028C161.824 8.09733 161.373 8.14933 160.784 8.184C159.64 9.08533 158.34 10.0733 156.884 11.148C155.428 12.2227 153.92 13.2627 152.36 14.268C150.8 15.2387 149.292 16.0707 147.836 16.764H147.212C147.975 15.7933 148.755 14.6147 149.552 13.228C150.384 11.8413 151.147 10.4547 151.84 9.068C152.533 7.68133 153.088 6.53733 153.504 5.636ZM113.36 13.748H133.328V15.204H113.828L113.36 13.748ZM121.264 0.591998L129.792 2.412C129.688 2.75867 129.48 3.05333 129.168 3.296C128.856 3.504 128.353 3.608 127.66 3.608C127.452 4.89066 127.157 6.52 126.776 8.496C126.395 10.4373 125.944 12.5867 125.424 14.944C124.939 17.2667 124.419 19.6413 123.864 22.068C123.344 24.4947 122.824 26.8173 122.304 29.036C121.784 31.2547 121.281 33.2133 120.796 34.912C120.172 35.3627 119.236 35.6227 117.988 35.692C116.74 35.7613 115.388 35.588 113.932 35.172C114.487 33.4387 115.059 31.376 115.648 28.984C116.272 26.592 116.879 24.0613 117.468 21.392C118.057 18.688 118.612 16.0187 119.132 13.384C119.652 10.7493 120.103 8.32267 120.484 6.104C120.865 3.88533 121.125 2.048 121.264 0.591998ZM120.068 30.752C123.743 31.272 126.724 32.0867 129.012 33.196C131.335 34.3053 133.068 35.536 134.212 36.888C135.391 38.2053 136.101 39.5053 136.344 40.788C136.621 42.0707 136.517 43.18 136.032 44.116C135.547 45.0173 134.819 45.5893 133.848 45.832C132.877 46.1093 131.768 45.884 130.52 45.156C130.104 43.8733 129.515 42.5907 128.752 41.308C127.989 39.9907 127.123 38.7253 126.152 37.512C125.181 36.264 124.141 35.1027 123.032 34.028C121.923 32.9187 120.796 31.948 119.652 31.116L120.068 30.752ZM128.336 13.748H127.712L131.144 10.108L137.332 15.412C137.159 15.724 136.916 15.9493 136.604 16.088C136.327 16.2267 135.893 16.3307 135.304 16.4C134.957 19.832 134.403 23.1773 133.64 26.436C132.912 29.66 131.785 32.7107 130.26 35.588C128.735 38.4307 126.637 41.0133 123.968 43.336C121.299 45.624 117.867 47.5653 113.672 49.16L113.256 48.64C116.168 46.7333 118.56 44.5147 120.432 41.984C122.339 39.4533 123.829 36.68 124.904 33.664C126.013 30.648 126.811 27.4587 127.296 24.096C127.816 20.7333 128.163 17.284 128.336 13.748ZM202.904 19.988H202.176L206.18 16.14L212.576 21.964C212.403 22.276 212.16 22.5013 211.848 22.64C211.536 22.744 211.033 22.8307 210.34 22.9C208.78 27.2333 206.631 31.2027 203.892 34.808C201.153 38.3787 197.635 41.4467 193.336 44.012C189.072 46.5773 183.837 48.536 177.632 49.888L177.32 49.316C184.392 46.404 190.043 42.4 194.272 37.304C198.501 32.208 201.379 26.436 202.904 19.988ZM190.268 20.56C191.273 24.2 192.747 27.2853 194.688 29.816C196.629 32.3467 198.917 34.4613 201.552 36.16C204.221 37.824 207.116 39.176 210.236 40.216C213.391 41.256 216.667 42.088 220.064 42.712L220.012 43.336C218.348 43.6827 216.944 44.4107 215.8 45.52C214.691 46.664 213.859 48.1373 213.304 49.94C210.149 48.796 207.289 47.444 204.724 45.884C202.159 44.324 199.871 42.4347 197.86 40.216C195.884 37.9627 194.203 35.276 192.816 32.156C191.429 29.0013 190.355 25.2573 189.592 20.924L190.268 20.56ZM170.716 11.2H206.804L210.964 5.896C210.964 5.896 211.207 6.08666 211.692 6.468C212.212 6.84933 212.871 7.352 213.668 7.976C214.465 8.56533 215.297 9.20666 216.164 9.9C217.031 10.5933 217.811 11.2347 218.504 11.824C218.365 12.3787 217.845 12.656 216.944 12.656H171.132L170.716 11.2ZM185.276 0.539999L195.728 1.216C195.693 1.56266 195.537 1.87467 195.26 2.152C195.017 2.39466 194.515 2.58533 193.752 2.724C193.475 5.948 193.076 9.25867 192.556 12.656C192.071 16.0533 191.325 19.4507 190.32 22.848C189.349 26.2107 188.032 29.4693 186.368 32.624C184.704 35.7787 182.555 38.7253 179.92 41.464C177.32 44.168 174.131 46.5427 170.352 48.588L169.78 48.172C173.108 45.1213 175.795 41.7067 177.84 37.928C179.885 34.1147 181.428 30.1107 182.468 25.916C183.543 21.6867 184.271 17.4227 184.652 13.124C185.068 8.82533 185.276 4.63066 185.276 0.539999ZM185.068 19.988H205.972V21.444H184.704L185.068 19.988Z" fill="white"/>
</svg>
