<svg width="206" height="50" viewBox="0 0 206 50" fill="none" xmlns="http://www.w3.org/2000/svg">
<path d="M30.876 38.968H44.188V44.948H30.876V38.968ZM1.6 10.16H20.632V16.244H1.6V10.16ZM28.068 6.78H46.996V48.224H40.756V12.812H34.048V48.588H28.068V6.78ZM19.124 10.16H25.156C25.156 10.16 25.156 10.3507 25.156 10.732C25.156 11.0787 25.156 11.4773 25.156 11.928C25.156 12.3787 25.1387 12.7427 25.104 13.02C25 18.5667 24.8787 23.2987 24.74 27.216C24.636 31.0987 24.4973 34.288 24.324 36.784C24.1853 39.28 23.9773 41.2387 23.7 42.66C23.4227 44.0813 23.076 45.0867 22.66 45.676C22.0707 46.5427 21.464 47.1667 20.84 47.548C20.216 47.9293 19.4707 48.2067 18.604 48.38C17.8413 48.5533 16.9053 48.64 15.796 48.64C14.6867 48.6747 13.5253 48.6573 12.312 48.588C12.2773 47.6867 12.104 46.6293 11.792 45.416C11.48 44.2373 11.064 43.2147 10.544 42.348C11.584 42.4173 12.5373 42.4693 13.404 42.504C14.2707 42.5387 14.9467 42.556 15.432 42.556C15.8133 42.556 16.1427 42.4867 16.42 42.348C16.6973 42.2093 16.9573 41.9493 17.2 41.568C17.4773 41.1867 17.72 40.3893 17.928 39.176C18.136 37.9627 18.3093 36.1947 18.448 33.872C18.5867 31.5493 18.708 28.568 18.812 24.928C18.916 21.2533 19.02 16.7813 19.124 11.512V10.16ZM7.788 1.58H13.924C13.924 6.71066 13.8373 11.616 13.664 16.296C13.5253 20.9413 13.1787 25.3093 12.624 29.4C12.0693 33.4907 11.1507 37.252 9.868 40.684C8.62 44.0813 6.86933 47.08 4.616 49.68C4.304 49.16 3.888 48.6053 3.368 48.016C2.848 47.4267 2.29333 46.872 1.704 46.352C1.11467 45.832 0.56 45.416 0.0400001 45.104C1.66933 43.2667 2.96933 41.204 3.94 38.916C4.94533 36.5933 5.708 34.0627 6.228 31.324C6.78267 28.5853 7.164 25.656 7.372 22.536C7.58 19.3813 7.70133 16.0533 7.736 12.552C7.77067 9.016 7.788 5.35867 7.788 1.58ZM62.908 3.712H77.676V10.056H62.908V3.712ZM74.608 3.712H81.056C81.056 5.376 81.1253 7.26533 81.264 9.38C81.4027 11.46 81.6973 13.696 82.148 16.088C82.5987 18.4453 83.2747 20.872 84.176 23.368C85.0773 25.864 86.2733 28.3427 87.764 30.804C89.2893 33.2307 91.196 35.5707 93.484 37.824C95.772 40.0773 98.5107 42.1573 101.7 44.064C101.249 44.4107 100.695 44.9133 100.036 45.572C99.3773 46.2307 98.736 46.9067 98.112 47.6C97.5227 48.328 97.0373 48.9693 96.656 49.524C93.3973 47.5133 90.572 45.26 88.18 42.764C85.788 40.2333 83.7773 37.564 82.148 34.756C80.5187 31.9133 79.2013 29.0533 78.196 26.176C77.1907 23.264 76.428 20.4387 75.908 17.7C75.388 14.9267 75.0413 12.344 74.868 9.952C74.6947 7.56 74.608 5.48 74.608 3.712ZM72.372 15.152L79.496 16.452C78.3173 21.5827 76.74 26.2453 74.764 30.44C72.788 34.6347 70.4133 38.3267 67.64 41.516C64.9013 44.7053 61.7293 47.392 58.124 49.576C57.7427 49.1253 57.2053 48.5707 56.512 47.912C55.8187 47.288 55.0907 46.6467 54.328 45.988C53.6 45.364 52.9587 44.8613 52.404 44.48C57.8467 41.7413 62.18 37.8933 65.404 32.936C68.628 27.944 70.9507 22.016 72.372 15.152ZM126.504 3.452H147.668V9.172H126.504V3.452ZM124.736 21.496H153.492V27.424H124.736V21.496ZM135.76 15.464H142V42.712C142 44.272 141.809 45.5027 141.428 46.404C141.047 47.3053 140.353 47.9987 139.348 48.484C138.308 48.9693 137.06 49.2813 135.604 49.42C134.183 49.5933 132.519 49.6627 130.612 49.628C130.473 48.7613 130.179 47.7387 129.728 46.56C129.277 45.3813 128.827 44.3587 128.376 43.492C129.693 43.5267 130.959 43.5613 132.172 43.596C133.385 43.6307 134.217 43.6307 134.668 43.596C135.084 43.596 135.361 43.5267 135.5 43.388C135.673 43.2493 135.76 43.0067 135.76 42.66V15.464ZM145.38 3.452H146.94L148.188 3.088L152.244 6.156C151.239 7.68133 150.095 9.276 148.812 10.94C147.564 12.5693 146.247 14.1467 144.86 15.672C143.473 17.1627 142.104 18.48 140.752 19.624C140.336 19.0693 139.764 18.428 139.036 17.7C138.308 16.972 137.684 16.4 137.164 15.984C138.204 15.0133 139.261 13.852 140.336 12.5C141.411 11.148 142.381 9.77866 143.248 8.392C144.149 7.00533 144.86 5.792 145.38 4.752V3.452ZM104.924 11.148H121.772V16.972H104.924V11.148ZM111.944 0.799999L117.768 1.424C117.283 4.19733 116.728 7.10933 116.104 10.16C115.515 13.2107 114.891 16.2613 114.232 19.312C113.573 22.328 112.915 25.2573 112.256 28.1C111.597 30.908 110.956 33.4733 110.332 35.796L105.236 33.144C105.825 31.0987 106.415 28.7587 107.004 26.124C107.628 23.4893 108.235 20.716 108.824 17.804C109.413 14.8573 109.968 11.9453 110.488 9.068C111.043 6.156 111.528 3.4 111.944 0.799999ZM107.992 32.26L111.372 27.84C113.175 28.984 115.064 30.2667 117.04 31.688C119.051 33.1093 120.905 34.548 122.604 36.004C124.337 37.46 125.707 38.8467 126.712 40.164L122.968 45.208C121.997 43.8907 120.68 42.4693 119.016 40.944C117.352 39.384 115.549 37.8413 113.608 36.316C111.701 34.7907 109.829 33.4387 107.992 32.26ZM119.588 11.148H120.628L121.72 11.044L125.412 11.668C125.031 18.428 124.181 24.2693 122.864 29.192C121.581 34.08 119.779 38.2053 117.456 41.568C115.168 44.9307 112.291 47.6867 108.824 49.836C108.443 49.0733 107.888 48.1893 107.16 47.184C106.432 46.2133 105.739 45.4507 105.08 44.896C108.027 43.336 110.523 41.048 112.568 38.032C114.613 35.016 116.208 31.3413 117.352 27.008C118.531 22.6747 119.276 17.7867 119.588 12.344V11.148ZM176.736 23.16C178.955 28.6027 182.404 33.0747 187.084 36.576C191.764 40.0773 197.761 42.4693 205.076 43.752C204.625 44.2027 204.14 44.7573 203.62 45.416C203.1 46.1093 202.615 46.82 202.164 47.548C201.713 48.276 201.349 48.9173 201.072 49.472C195.976 48.328 191.521 46.664 187.708 44.48C183.929 42.296 180.705 39.5573 178.036 36.264C175.367 32.9707 173.131 29.1227 171.328 24.72L176.736 23.16ZM192.7 19.988H193.896L195.04 19.728L199.304 21.548C198.264 25.4653 196.86 28.932 195.092 31.948C193.324 34.964 191.227 37.5987 188.8 39.852C186.373 42.1053 183.687 44.0293 180.74 45.624C177.828 47.2187 174.673 48.536 171.276 49.576C170.929 48.7787 170.409 47.86 169.716 46.82C169.057 45.78 168.399 44.948 167.74 44.324C170.791 43.5267 173.633 42.452 176.268 41.1C178.937 39.748 181.364 38.1013 183.548 36.16C185.732 34.2187 187.604 32 189.164 29.504C190.724 26.9733 191.903 24.1827 192.7 21.132V19.988ZM158.276 8.548H203.672V14.632H158.276V8.548ZM173.044 19.988H193.324V26.02H171.224L173.044 19.988ZM171.276 0.799999H177.776C177.741 1.97866 177.672 3.46933 177.568 5.272C177.464 7.04 177.291 9.05066 177.048 11.304C176.805 13.5573 176.441 15.9493 175.956 18.48C175.505 20.976 174.899 23.5413 174.136 26.176C173.373 28.776 172.42 31.3587 171.276 33.924C170.167 36.4893 168.815 38.9507 167.22 41.308C165.625 43.6653 163.753 45.8147 161.604 47.756C160.98 46.9587 160.2 46.1787 159.264 45.416C158.328 44.6533 157.323 43.96 156.248 43.336C158.363 41.568 160.183 39.6267 161.708 37.512C163.268 35.3627 164.585 33.092 165.66 30.7C166.735 28.308 167.619 25.916 168.312 23.524C169.005 21.0973 169.543 18.7227 169.924 16.4C170.305 14.0773 170.583 11.9107 170.756 9.9C170.929 7.85467 171.051 6.052 171.12 4.492C171.189 2.932 171.241 1.70133 171.276 0.799999Z" fill="white"/>
</svg>
